<svg width="107" height="80" viewBox="0 0 107 80" fill="none" xmlns="http://www.w3.org/2000/svg">
<path d="M30.1612 9.41182H103.853C105.591 9.41182 107 10.8165 107 12.549V76.8628C107 78.5954 105.591 80 103.853 80H15.7353C7.06641 80 0.034871 73.0119 0 64.3494V15.6862C0 7.02307 7.04502 0 15.7353 0C22.1878 0 27.7332 3.8717 30.1612 9.41182ZM25.1765 64.3138C25.1765 59.1157 20.9496 54.9019 15.7353 54.9019C10.521 54.9019 6.29403 59.1157 6.29403 64.3138C6.29403 69.5118 10.521 73.7256 15.7353 73.7256H100.706V15.6862H31.4705V64.3138C31.4705 68.4967 25.1765 68.4967 25.1765 64.3138ZM6.29403 15.6862V51.7635C8.92392 49.7942 12.1928 48.6273 15.7353 48.6273C19.2777 48.6273 22.5466 49.7942 25.1765 51.7635V15.6862C25.1765 10.4882 20.9496 6.27443 15.7353 6.27443C10.521 6.27443 6.29403 10.4882 6.29403 15.6862ZM44.0588 59.6078C41.6298 59.6078 40.1166 56.9812 41.3405 54.8898L52.3552 36.0663C53.5696 33.991 56.5775 33.991 57.7918 36.0663L60.2589 40.2824L68.1665 28.0996C69.4066 26.189 72.2108 26.189 73.4509 28.0996L90.7596 54.7663C92.1146 56.8536 90.6115 59.6078 88.1175 59.6078H44.0588ZM70.8088 35.5789L63.8132 46.3565L67.8956 53.3333H82.3327L70.8088 35.5789ZM55.0735 43.8735L49.5378 53.3333H60.609L55.0735 43.8735Z" fill="#1B708A"/>
</svg>
