<svg width="105" height="89" viewBox="0 0 105 89" fill="none" xmlns="http://www.w3.org/2000/svg">
<path d="M97.3123 46.5934C96.0794 46.6089 94.7652 46.9038 93.4721 47.5259L71.1387 58.2673C70.0788 55.8195 67.5206 54.157 64.651 54.2392L51.8251 54.6121C48.6808 54.6121 46.2863 53.8356 43.2871 52.9711C40.2783 52.1038 36.7121 51.1809 31.7663 51.1809C27.6926 51.1809 22.1861 52.3895 17.71 53.9034V51.1061C17.71 50.7937 17.6432 50.4996 17.5236 50.2109C17.4041 49.9222 17.2598 49.6487 17.0389 49.4276C16.8181 49.2066 16.5445 49.0252 16.2561 48.9055C15.9674 48.7858 15.6363 48.7191 15.3239 48.7191H2.38629C2.07382 48.7191 1.78 48.7858 1.49138 48.9055C1.20276 49.0252 0.929181 49.2066 0.70831 49.4276C0.487439 49.6485 0.305852 49.9222 0.186397 50.2109C0.0669427 50.4996 0 50.7935 0 51.1061V60.8779V86.6124C0 86.9247 0.0667423 87.2562 0.186397 87.5449C0.305852 87.8336 0.487439 88.1072 0.70831 88.3282C0.929181 88.5491 1.20276 88.7308 1.49138 88.8503C1.77979 88.9698 2.07382 88.9992 2.38629 88.9994H15.3239C15.6361 88.9994 15.9674 88.9696 16.2561 88.8503C16.5445 88.7306 16.8181 88.5489 17.0389 88.3282C17.2598 88.1072 17.4041 87.8334 17.5236 87.5449C17.643 87.2564 17.71 86.9247 17.71 86.6124V83.5914C33.4203 80.8106 42.7808 85.5424 56.9332 85.5307C59.8608 85.5299 62.9372 84.0914 66.7764 82.0995C70.6166 80.107 75.0093 77.4355 79.4532 74.5656C88.3405 68.8258 97.4223 62.2917 102.16 59.0877C103.782 57.9848 104.759 56.2511 104.956 54.5375C105.153 52.8239 104.679 51.1522 103.726 49.7636C102.414 47.8541 100.025 46.5593 97.3123 46.5934ZM4.77217 53.4934H6.97186V84.2255H4.77217V60.8779V53.4934Z" fill="#1B708A"/>
<path d="M55.9266 0.0107505C55.6572 0.0119534 55.3973 0.0319993 55.1435 0.122622C54.89 0.213244 54.6443 0.363015 54.4352 0.532832C54.0169 0.872465 53.7281 1.34864 53.6149 1.87553C53.0749 4.3925 51.4326 9.43125 51.3034 14.146C51.239 16.5034 51.5132 18.9283 52.9066 20.9714C54.0759 22.6858 56.0918 23.8484 58.5364 24.1788C58.6763 25.21 58.4053 26.12 57.9026 27.2371C57.8477 27.358 57.8142 27.4497 57.7535 27.5728C57.4118 27.0495 56.9801 26.5753 56.5231 26.1182C54.3667 23.9609 51.4142 23.0735 48.6188 23.5074C48.1244 23.5842 47.6311 23.8256 47.2766 24.1788C46.9218 24.5319 46.6845 25.0273 46.6053 25.5215C46.1544 28.3406 47.0337 31.3205 49.178 33.4656C50.404 34.692 51.8918 35.4988 53.4658 35.89C52.9521 37.9428 52.9817 39.92 53.2794 41.7082H50.1475C47.2872 41.7082 44.9648 44.0453 44.9648 46.8925V49.7271C44.9648 50.0395 44.9947 50.3336 45.114 50.6223C45.2334 50.911 45.415 51.1845 45.6361 51.4054C45.8567 51.6263 46.1305 51.808 46.4189 51.9275C46.7076 52.0472 47.0387 52.1139 47.3509 52.1139H64.9865C65.2988 52.1139 65.5928 52.0472 65.8814 51.9275C66.1699 51.8078 66.4436 51.6263 66.6645 51.4054C66.8854 51.1845 67.067 50.9108 67.1864 50.6223C67.3059 50.3336 67.3728 50.0397 67.3728 49.7271V46.8925C67.3728 44.0455 65.0132 41.7082 62.1529 41.7082H58.1261C57.5984 39.6331 57.605 37.3846 58.9465 34.9204C59.8327 33.2888 61.2407 31.4523 62.2647 29.1767C62.9297 27.6989 63.3827 25.9454 63.2715 24.0672C65.4211 23.6311 67.1676 22.5316 68.2302 20.9716C69.6224 18.9279 69.9 16.5036 69.8335 14.1462C69.7006 9.43166 68.0615 4.39109 67.5217 1.87572C67.4323 1.4569 67.2171 1.07035 66.9253 0.756782C66.6332 0.443413 66.2554 0.204824 65.844 0.085531C65.4327 -0.0337615 64.9905 -0.0231355 64.5765 0.085531C64.162 0.194198 63.7952 0.413746 63.4952 0.719495L59.4684 4.78486C59.0755 3.8215 58.6558 2.75388 58.1634 1.50281C57.9884 1.05852 57.6635 0.689013 57.2685 0.421156C56.8736 0.153099 56.404 0.00854506 55.9266 0.0107505Z" fill="#1B708A"/>
</svg>
