<svg width="454" height="301" viewBox="0 0 454 301" fill="none" xmlns="http://www.w3.org/2000/svg">
<path d="M26.4018 38.7589C44.278 12.9196 72.88 0 112.208 0C151.535 0 179.037 12.095 194.713 36.2849C210.664 60.2 218.64 96.8972 218.64 146.377C218.64 249.459 181.787 301 108.082 301C70.4048 301 42.9029 288.63 25.5767 263.89C8.52558 238.876 0 201.766 0 152.562C0 102.532 8.8006 64.5982 26.4018 38.7589ZM142.322 72.9822C136.272 58.6881 125.409 51.5411 109.732 51.5411C94.0564 51.5411 82.9181 58.8256 76.3177 73.3945C69.9923 87.9635 66.8296 113.665 66.8296 150.5C66.8296 186.235 70.1298 211.662 76.7302 226.781C83.3307 241.9 94.3314 249.459 109.732 249.459C125.134 249.459 135.859 241.9 141.91 226.781C148.235 211.662 151.398 185.548 151.398 148.438C151.398 112.153 148.373 87.0014 142.322 72.9822Z" fill="#E5E5E5" fill-opacity="0.2"/>
<path d="M454 248.222V295.64H276.613V248.222H334.367L334.367 70.9205L271.25 111.329L247.323 67.6219L345.505 4.94794L398.309 4.94794L398.309 248.222L454 248.222Z" fill="#E5E5E5" fill-opacity="0.2"/>
</svg>
