<svg width="86" height="112" viewBox="0 0 86 112" fill="none" xmlns="http://www.w3.org/2000/svg">
<path fill-rule="evenodd" clip-rule="evenodd" d="M81.9688 40.6666C81.9688 48.4904 79.7412 55.7981 75.8828 62H75.9219L75.3506 62.8331C75.0518 63.2885 74.7441 63.7374 74.4277 64.1799L41.6445 112L8.66113 65.672C7.85449 64.6472 7.09668 63.583 6.39062 62.4829L6.04688 62H6.08594C2.22754 55.7981 0 48.4904 0 40.6666C0 18.207 18.3496 0 40.9844 0C63.6191 0 81.9688 18.207 81.9688 40.6666ZM41.6562 74.6666C60.209 74.6666 75.25 59.7428 75.25 41.3334C75.25 22.9238 60.209 8 41.6562 8C23.1025 8 8.0625 22.9238 8.0625 41.3334C8.0625 59.7428 23.1025 74.6666 41.6562 74.6666Z" fill="#4FB0BB"/>
<path d="M41.678 75.578C60.0297 75.578 74.9067 60.5431 74.9067 41.9966C74.9067 23.4501 60.0297 8.41516 41.678 8.41516C23.3262 8.41516 8.44922 23.4501 8.44922 41.9966C8.44922 60.5431 23.3262 75.578 41.678 75.578Z" fill="#E5E5E5"/>
<path d="M31.7285 35.67L38.5337 39.6406V17.5829L31.7285 13.2616V35.67Z" fill="#4AB1BA"/>
<path d="M62.8806 47.4948L41.6787 59.6733V69.3171L55.5683 60.9653V60.9936L61.9981 57.2243V57.1778L65.7207 51.677L62.8806 47.4948Z" fill="#157188"/>
<path d="M18.2031 40.8632L22.506 46.8524L32.7097 52.789V74.3397C34.589 74.8709 36.5358 75.2381 38.534 75.4276V56.1774V54.1885V44.1104L22.506 34.8297L18.2031 40.8632Z" fill="#4AB1BA"/>
<path d="M41.6776 77.3268C22.4014 77.3268 6.71875 61.4777 6.71875 41.9965C6.71875 22.5157 22.4014 6.66663 41.6776 6.66663C60.9542 6.66663 76.6365 22.5157 76.6365 41.9965C76.6365 42.9134 76.6017 43.8224 76.5334 44.7219C75.1525 62.9346 60.047 77.3268 41.6776 77.3268ZM41.6776 10.164C24.3094 10.164 10.1794 24.444 10.1794 41.9965C10.1794 59.5491 24.3094 73.8291 41.6776 73.8291C59.0459 73.8291 73.1763 59.5491 73.1763 41.9965C73.1763 24.444 59.0459 10.164 41.6776 10.164Z" fill="#157188"/>
<path d="M41.6774 75.5363C42.229 75.5639 41.1194 75.578 41.6774 75.578C43.4259 75.578 45.1427 75.4408 46.8182 75.1775V68.9359L41.6774 71.8123V75.5363Z" fill="#157188"/>
<g opacity="0.1">
<path opacity="0.1" d="M76.6164 42.8844L51.227 18.145H41.6776V34.83V37.5583V57.4295L41.6514 77.3257C41.6514 77.3257 48.8486 77.6573 56.6402 73.9351C60.0775 72.293 63.7839 69.7805 67.2287 66.0482C77.1697 55.2765 76.6164 42.8844 76.6164 42.8844Z" fill="#414042"/>
</g>
<path d="M51.2281 18.145H41.6787V24.468L51.2281 24.1702V18.145Z" fill="#4AB1BA"/>
<path d="M80.5129 24.7889L41.6787 27.629V56.4014L46.8195 53.4582V37.5579L80.5129 40.4347L86.0008 33.4123L80.5129 24.7889Z" fill="#DB3134"/>
</svg>
