<svg width="205" height="20" viewBox="0 0 205 20" fill="none" xmlns="http://www.w3.org/2000/svg">
<path d="M25.9464 16.7198C23.2394 15.3728 20.2784 13.9518 17.2344 13.5378C19.9884 11.5098 25.0464 7.80579 22.8744 5.43979C21.7954 4.26479 19.2444 4.88979 17.9604 5.26979C16.0454 5.83679 14.4424 6.50479 13.6894 8.45879C13.2894 9.49679 14.2214 9.07079 14.4814 8.39979C15.2394 6.43579 20.8294 5.51179 22.2204 7.02879C23.2314 8.13079 17.0094 12.5348 15.8084 13.5308V9.53279C15.8084 9.14479 15.3684 9.43879 15.2544 9.56179C14.9944 9.84279 14.8194 10.2168 14.8194 10.6018V17.1528C14.8194 17.5408 15.2594 17.2468 15.3734 17.1238C15.6334 16.8428 15.8084 16.4688 15.8084 16.0838V14.9328C19.0504 15.1758 22.2814 16.7238 25.1524 18.1528C25.6014 18.3758 26.3724 16.9318 25.9464 16.7198Z" fill="#1B708A"/>
<path d="M41.0884 15.6708C39.4304 14.1998 38.2854 12.4198 37.2594 10.4758C36.3204 8.69983 35.6924 6.58983 34.3924 5.04083C33.6754 4.18583 32.7494 4.56583 32.2014 5.33083C31.4394 6.39583 31.3824 7.38083 31.8574 8.57983C31.9254 8.75183 32.1154 8.66983 32.3194 8.47483C32.1694 8.96083 32.0364 9.45483 31.9424 9.96683C31.7404 11.0728 31.6124 12.3198 31.3554 13.5208C30.9644 13.9128 30.6474 14.5908 30.9594 14.9298C30.7104 15.6438 30.3874 16.3148 29.9174 16.8858C29.5394 17.3448 29.2644 19.0428 30.0574 18.0788C30.7174 17.2768 31.1814 16.4118 31.5344 15.5108L31.9344 15.9108C32.1874 16.1638 32.8844 15.2818 32.9684 14.6588C34.2624 14.5128 35.5654 14.4838 36.8784 14.4828C37.0504 14.4828 37.2344 14.3208 37.3944 14.1028C38.1744 15.2938 39.0674 16.3998 40.1494 17.3598C40.5154 17.6858 41.5664 16.0958 41.0884 15.6708ZM32.2364 13.1528C32.6574 11.2998 32.8974 9.38483 33.5414 7.59083C33.6384 7.52683 33.7504 7.41483 33.8634 7.28483C34.1284 7.69983 34.3234 8.19683 34.5314 8.61883C35.0844 9.74383 35.6014 10.8838 36.1674 12.0018C36.2984 12.2608 36.4454 12.5068 36.5844 12.7588C35.1224 12.7778 33.6744 12.8648 32.2364 13.1528Z" fill="#1B708A"/>
<path d="M56.2026 11.9598C55.5276 9.84182 55.0466 7.47082 55.2226 5.21182C55.6886 4.81382 56.0876 3.68982 55.6136 3.68982H55.1486C54.6396 3.68982 54.3156 4.58482 54.2436 4.96582C53.8966 6.82382 54.1136 8.65282 54.4076 10.5048C54.6436 11.9938 55.4146 13.5698 55.6676 15.1158C51.9436 12.5608 47.6546 10.1218 46.0206 5.76482C46.1246 5.45882 46.1306 5.18082 45.9526 5.10582C45.8346 4.86482 45.7166 4.62382 45.5986 4.38182C45.4226 3.58782 44.4586 5.18282 44.4746 5.59582C44.4906 6.01982 44.4986 6.31782 44.7326 6.53782C44.8346 6.86182 44.9516 7.17382 45.0796 7.47882C44.8586 7.31882 44.0086 8.41382 44.0086 8.85282C44.0076 12.3778 43.9556 15.8818 43.5446 19.3858C43.4306 20.3618 44.6086 18.9898 44.6656 18.5028C45.0526 15.2058 45.1176 11.9038 45.1276 8.59082C45.1276 8.58482 45.1326 8.57482 45.1326 8.56882V7.63882C45.1326 7.58682 45.1156 7.56782 45.1026 7.53982C47.0626 12.1358 51.8076 14.5898 55.7486 17.4328C56.1326 17.7098 56.6766 16.5998 56.7226 16.3718C57.0306 14.8308 56.6736 13.4378 56.2026 11.9598Z" fill="#1B708A"/>
<path d="M69.9604 15.6078C67.6794 19.4878 62.8694 16.1578 62.2134 12.9528C61.8144 10.9998 62.6284 8.96984 63.8644 7.48184C64.5684 6.63384 65.6354 6.16784 66.6264 5.76684C66.7754 5.70684 70.3774 4.91884 69.2694 6.55684C68.8784 7.13584 69.0164 8.15884 69.6324 7.24884C71.0854 5.10084 70.5294 3.31384 67.6224 4.19484C64.7094 5.07784 62.3844 7.35684 61.5564 10.3278C60.7794 13.1178 61.1364 16.0788 63.6784 17.8098C66.3884 19.6558 69.0274 18.5318 70.5534 15.9368C71.0394 15.1088 70.4424 14.7878 69.9604 15.6078Z" fill="#1B708A"/>
<path d="M76.5216 5.06275C76.5216 5.05575 76.5226 5.04875 76.5236 5.04175L76.5226 5.04275C76.5226 4.98775 76.5246 4.93275 76.5256 4.87775C76.5306 4.21475 75.4346 5.48975 75.4186 5.91175C75.0536 6.43575 74.7796 7.39975 75.2986 7.18175C75.3356 7.16575 75.3656 7.14575 75.3996 7.12775C75.3276 10.7678 75.0796 14.4208 75.8756 18.0038C76.0356 18.7228 77.0936 17.2978 76.9836 16.8068C76.1246 12.9408 76.4826 8.98975 76.5216 5.06275Z" fill="#1B708A"/>
<path d="M85.8694 9.53378C84.6694 9.09478 83.4594 8.93178 82.3424 8.27178C80.9854 7.47078 86.4594 5.51278 85.9114 6.45178C85.4654 7.21578 86.0154 7.51278 86.4584 6.75478C86.8374 6.10478 86.9444 5.86978 87.0054 5.13378C87.0154 5.00978 87.0054 4.81178 86.8324 4.81878C84.8204 4.90478 80.5104 6.27178 81.2244 9.08778C81.5634 10.4258 85.2854 10.8308 86.3664 11.3478C88.4774 12.3568 88.5944 14.7298 86.3584 16.0088C84.8514 16.8708 83.0654 16.5148 81.7094 15.6248C81.3554 15.3928 80.6004 16.6718 80.9874 16.9268C83.8574 18.8108 88.9384 17.0398 89.1064 13.1838C89.1954 11.1368 87.6594 10.1888 85.8694 9.53378Z" fill="#1B708A"/>
<path d="M98.3204 16.3438C96.3624 17.5078 93.9154 14.6078 93.2624 13.1698C92.4934 11.4768 93.0414 9.54782 93.9934 8.06982C94.3904 7.45382 97.2774 4.46682 97.3314 6.73782C97.3444 7.27482 98.2344 6.17482 98.2244 5.77282C98.1794 3.88182 96.6924 4.55482 95.5454 5.34382C94.0784 6.35482 92.9724 8.25682 92.3744 9.89282C91.6884 11.7688 92.0054 13.7888 93.0204 15.4638C93.8894 16.8978 96.3414 18.5828 97.9744 17.6118C98.3204 17.4068 98.7814 16.0698 98.3204 16.3438Z" fill="#1B708A"/>
<path d="M110.814 5.61484C108.223 4.23884 104.84 5.18784 102.758 7.16484C102.871 6.72184 102.842 6.37384 102.451 6.72084C100.058 8.83784 100.207 13.8058 102.102 16.1818C104.642 19.3668 108.89 16.4948 110.9 14.3268C113.289 11.7478 114.529 7.58684 110.814 5.61484ZM110.377 13.5958C108.776 15.3228 106.399 16.4938 104.119 15.4478C102.971 14.9208 102.389 13.6948 102.099 12.5418C101.952 11.9558 101.779 10.6228 101.852 9.55084C101.93 9.48284 102.018 9.37884 102.118 9.22284C105.366 4.14884 115.952 7.58084 110.377 13.5958Z" fill="#1B708A"/>
<path d="M141.61 14.9639C138.047 16.3989 134.425 16.7699 131.067 14.5169C128.319 12.6729 129.901 8.89286 131.938 7.24886C132.807 6.54686 133.891 6.23186 134.98 6.12586C135.913 6.03486 135.575 6.24786 135.201 6.53386C134.824 6.82186 134.296 8.47886 135.052 7.90086C136.172 7.04486 136.832 6.48286 137.011 4.99886C137.033 4.81486 137.001 4.64986 136.802 4.61986C132.213 3.91286 128.478 8.64286 128.527 12.9059C128.559 15.6559 131.149 16.8469 133.432 17.4249C136.298 18.1509 138.505 17.5839 141.192 16.5019C141.648 16.3179 142.265 14.6999 141.61 14.9639Z" fill="#1B708A"/>
<path d="M199.891 4.76676C197.242 5.20476 194.604 5.62476 191.911 5.50876C189.933 5.42276 188.005 4.53976 186.093 5.18876C185.758 5.30276 185.374 5.97476 185.436 6.33876C185.048 6.27276 184.366 7.46076 184.749 7.71776C186.019 8.56976 185.887 10.6218 185.867 11.9708C185.826 14.7038 183.754 16.5398 181.093 16.6538C177.64 16.8028 175.25 11.5788 176.205 8.51776H176.232C176.699 8.51776 177.294 7.11376 176.811 7.11376H176.42C176.176 7.11376 175.935 7.47276 175.843 7.65676C173.719 11.9178 176.567 19.3258 182.133 17.8068C184.061 17.2798 186.738 14.6908 186.772 12.5308C186.798 10.9148 187.183 8.37876 186.115 6.93776C186.298 6.87076 186.497 6.63176 186.634 6.36476C188.392 6.21276 190.728 6.88776 192.27 6.95476C193.091 6.99076 193.92 6.94876 194.749 6.86676C194.576 7.10976 194.434 7.38276 194.434 7.54576V8.32776C194.434 8.35076 194.444 8.35476 194.447 8.37176C194.51 11.1198 194.71 14.1048 193.165 16.4778C192.798 17.0428 192.935 18.0438 193.518 17.1488C195.586 13.9708 195.412 10.4348 195.381 6.79476C196.705 6.63276 198.025 6.38376 199.311 6.17176C199.79 6.09176 200.308 4.69776 199.891 4.76676Z" fill="#1B708A"/>
<path d="M204.917 5.11486C204.917 4.39986 203.71 5.87786 203.71 6.41986C203.709 10.2019 203.705 13.9859 203.21 17.7419C203.073 18.7849 204.347 17.3129 204.415 16.7929C204.903 13.0869 204.914 9.35186 204.915 5.62086C204.915 5.61886 204.917 5.61686 204.917 5.61486V5.11486H204.917Z" fill="#1B708A"/>
<path d="M204.24 0.271807C203.922 0.614807 203.709 1.07181 203.709 1.54181V2.04181C203.709 2.51581 204.247 2.15681 204.386 2.00681C204.704 1.66381 204.917 1.20681 204.917 0.736807V0.236807C204.917 -0.237193 204.379 0.121807 204.24 0.271807Z" fill="#1B708A"/>
<path d="M4.53052 6.73285C6.53352 6.40685 8.53752 6.17485 10.5675 6.14285C11.0705 6.13485 11.6995 4.62985 11.1875 4.63785C9.41052 4.66685 7.66352 4.85385 5.90552 5.11085C5.21952 5.21085 4.54452 5.35585 3.86952 5.49485C3.85952 5.27685 3.84852 5.06085 3.83852 4.84385C3.83252 4.72685 3.76152 4.63785 3.64152 4.63785H2.80352C2.45152 4.63785 2.03952 5.37585 2.00252 5.81785C1.60852 5.86485 1.21252 5.89585 0.812517 5.89585C0.311517 5.89585 -0.325483 7.40085 0.192517 7.40085H0.506517C0.529517 7.40085 0.554517 7.38285 0.578517 7.37685C1.38852 7.33985 2.14952 7.20685 2.91152 7.04785C3.18152 7.92085 3.30152 9.33185 3.34552 10.8488C3.08752 11.1408 2.82452 11.5738 2.82452 11.8058V12.6438C2.82752 12.7228 2.86152 12.7848 2.92452 12.8298C3.06852 12.8838 3.21652 12.9239 3.36552 12.9558C3.34852 15.0889 3.24352 17.0518 3.24352 17.6748C3.24352 18.0688 3.69552 17.7768 3.81052 17.6458C4.33052 17.0508 4.57652 16.6758 4.67452 15.8918C4.72852 15.4618 4.49952 15.5408 4.24552 15.7828C4.23852 14.8658 4.20452 13.9568 4.17852 13.0458C4.83652 13.0608 5.51052 12.9638 6.14552 12.9078C7.52452 12.7878 8.96752 12.5068 10.2625 11.9768C10.6885 11.8028 11.2635 10.2888 10.6535 10.5378C9.47652 11.0188 8.03052 11.3028 6.76552 11.4018C6.11652 11.4528 5.47252 11.5148 4.82052 11.5288C4.51052 11.5358 4.29252 11.5228 4.13952 11.4558C4.08152 9.91785 4.00952 8.38285 3.93452 6.84285C4.13252 6.80785 4.32652 6.76685 4.53052 6.73285Z" fill="#1B708A"/>
<path d="M156.619 15.6568C154.092 16.2488 151.547 16.4308 149.032 15.6748C147.694 15.2718 146.542 14.4358 145.601 13.4248C144.104 11.8168 145.237 9.02078 145.932 7.27578C149.109 6.89678 152.283 6.49078 155.462 6.13178C156.032 6.06778 156.678 4.39678 156.152 4.45678C152.26 4.89578 148.377 5.41778 144.485 5.85678C143.981 5.91378 143.171 7.50778 143.795 7.53178C144.039 7.65078 144.283 7.76878 144.527 7.88778C144.522 7.94778 144.514 8.00378 144.512 8.06978C144.503 8.28578 144.552 8.38578 144.631 8.41178C143.628 11.2608 143.237 14.1028 145.998 16.2338C148.741 18.3508 152.773 18.0698 155.929 17.3308C156.495 17.1998 157.078 15.5488 156.619 15.6568Z" fill="#1B708A"/>
<path d="M154.285 9.58978C153.005 9.88378 151.724 9.99678 150.413 10.0388C149.195 10.0778 147.51 10.3398 146.459 9.61078C146.03 9.31378 145.07 10.9078 145.554 11.2438C146.585 11.9588 148.008 11.7358 149.198 11.7248C150.682 11.7108 152.146 11.5978 153.595 11.2658C154.162 11.1348 154.747 9.48378 154.285 9.58978Z" fill="#1B708A"/>
<path d="M162.588 8.08179C162.58 7.41979 161.472 8.78279 161.478 9.28079C161.512 12.2178 161.979 15.1118 162.397 18.0128C162.499 18.7188 163.579 17.3128 163.507 16.8138C163.09 13.9138 162.622 11.0188 162.588 8.08179Z" fill="#1B708A"/>
<path d="M173.862 15.6697C170.94 15.2907 168.345 14.0737 165.608 13.2737C167.918 11.8277 170.073 10.3247 169.373 7.12875C168.592 3.56075 162.017 4.64275 159.615 5.09975C159.054 5.20675 158.459 6.84075 158.935 6.74975C161.33 6.29375 163.908 6.01675 166.285 6.69475C167.97 7.17575 169.431 9.23675 167.509 10.7967C166.426 11.6757 165.094 12.2417 163.947 13.0367C163.769 13.1597 162.926 14.4277 163.425 14.5417C166.739 15.2987 169.728 16.8727 173.182 17.3197C173.701 17.3867 174.47 15.7487 173.862 15.6697Z" fill="#1B708A"/>
</svg>
