<svg width="219" height="26" viewBox="0 0 219 26" fill="none" xmlns="http://www.w3.org/2000/svg">
<path d="M12.8993 0.0780885C11.2563 1.06409 8.42528 2.00109 6.72828 0.524088C6.37928 0.220088 5.00228 1.66309 5.28928 1.91309C6.13028 2.64509 7.93228 2.95709 9.00228 2.64509C9.57528 2.47809 10.3893 2.42209 10.9123 2.10809C12.4913 1.16009 10.5813 4.10409 10.3633 5.12009C9.76428 7.92009 8.50828 10.8031 7.54428 13.5061C6.84628 15.4641 4.91928 16.9561 3.25528 15.1591C2.48128 14.3231 1.86928 12.1061 1.45828 11.0621C1.38228 10.8691 -0.190719 11.9161 0.0192813 12.4511C0.774281 14.3721 1.28828 17.1161 3.61128 17.5001C4.99628 17.7291 6.52528 16.7741 7.39728 15.7881C8.90728 14.0771 9.32628 11.6251 9.99328 9.50609C10.9793 6.37309 12.2443 3.34009 13.2553 0.222088C13.3493 -0.0659115 13.0743 -0.0269115 12.8993 0.0780885Z" fill="#1B708A"/>
<path d="M14.2513 10.3071C13.8373 10.2171 11.3893 10.0411 12.5433 9.33911C13.0493 9.03111 14.4203 8.99211 14.8253 9.44011C15.0983 9.74211 16.5583 8.37711 16.2643 8.05111C15.5443 7.25311 13.8163 7.73211 13.0333 8.20911C12.3773 8.60811 10.3253 9.97111 10.7273 10.9861C10.9943 11.6601 11.7393 11.5651 12.3593 11.6401C13.3633 11.7621 14.2713 12.1421 14.9233 12.9371C15.2513 13.3371 15.3933 13.8991 15.5493 14.3781C15.8553 15.3161 14.8803 15.3521 14.2603 15.2431C13.5233 15.1141 11.8503 14.2581 12.2523 13.2691C12.4433 12.7991 10.9763 13.8401 10.8063 14.2581C10.1533 15.8631 12.5573 16.7071 13.7583 16.7861C15.0923 16.8731 17.1273 15.3161 17.1273 13.8931C17.1273 12.1301 15.9523 10.6791 14.2513 10.3071Z" fill="#1B708A"/>
<path d="M24.6064 15.764C24.5934 15.806 24.5804 15.859 24.5684 15.907C23.6344 15.844 23.8334 13.933 23.7474 13.214C23.6824 12.669 23.6274 12.123 23.5854 11.575C23.6464 11.013 23.6334 10.429 23.6074 9.85397C23.6134 9.82497 23.6224 9.79097 23.6254 9.76697C23.9424 9.38197 24.1464 8.98897 23.8394 9.04397C23.7434 9.06097 23.6614 9.09097 23.5754 9.11797C23.5694 8.95397 23.5654 8.79197 23.5654 8.63297C23.5654 8.55397 23.4214 8.59297 23.2304 8.69097C23.4214 8.49697 23.5654 8.29597 23.5654 8.13097V7.88097C23.5564 7.85397 23.5464 7.82697 23.5374 7.80097C22.0264 7.04497 20.5264 8.29897 19.7754 9.63497C19.1174 10.805 18.3514 11.987 17.9044 13.256C17.7324 13.744 17.5054 15.529 17.7464 16.034C18.5374 17.69 20.9084 16.184 21.6974 15.336C21.9084 15.11 22.0954 14.87 22.2714 14.625C22.2794 14.685 22.2874 14.748 22.2934 14.804C22.4234 15.926 21.9144 17.093 23.4554 17.248C24.8764 17.39 25.6984 15.916 26.0494 14.778C26.2124 14.256 24.7394 15.334 24.6064 15.764ZM19.4754 15.041C18.7224 14.615 19.5004 11.83 19.7074 11.432C20.0224 10.825 20.3804 10.238 20.7114 9.63797C20.8354 9.06997 21.2144 8.87897 21.8504 9.06397C22.0324 9.10997 22.1064 9.20797 22.0734 9.35997C22.0734 9.43897 22.2174 9.39997 22.4084 9.30197C22.2174 9.49597 22.0734 9.69697 22.0734 9.86197C22.0734 10.207 22.0874 10.785 22.0704 11.436C22.0524 11.637 22.0444 11.843 22.0434 12.05C21.9244 13.983 21.4274 16.144 19.4754 15.041Z" fill="#1B708A"/>
<path d="M33.8542 9.88805C33.3742 7.23405 30.7782 9.11705 29.6072 9.97205C29.3652 10.1491 29.1602 10.3381 28.9732 10.5331C29.1492 9.59505 29.3352 8.66405 29.5552 7.75905C30.1272 5.40705 29.8082 2.75205 30.5682 0.473052C30.7372 -0.0339481 29.2652 1.03405 29.1222 1.46205C28.4522 3.47105 28.4592 5.82805 28.2712 7.92905C27.9962 10.9921 27.0642 14.0961 26.5892 17.1381C26.5642 17.2961 26.9082 17.0861 27.2712 16.8011C28.5212 17.6811 30.2042 17.1021 31.3542 16.1571C33.3442 14.5201 34.3192 12.4561 33.8542 9.88805ZM28.3452 15.1141C28.7202 13.5611 28.9802 11.2151 29.9162 10.5311C34.3052 7.32905 32.4042 19.3681 28.3452 15.1141Z" fill="#1B708A"/>
<path d="M41.1334 15.637C39.7574 16.812 37.6204 16.137 36.6054 14.836C36.0184 14.084 35.9134 13.079 35.9894 12.088C36.4064 12.032 36.8224 11.981 37.2444 11.981C38.1294 11.981 38.9994 12.197 39.8644 11.961C40.3294 11.834 41.0924 11.15 41.1314 10.642C41.2294 9.36601 39.7204 6.65601 38.1434 7.03801C36.7874 7.36701 35.8604 8.97001 35.2164 10.094C34.9314 10.591 34.7344 11.183 34.6084 11.808C34.4594 12.045 34.3874 12.232 34.4744 12.232H34.5304C34.3344 13.635 34.5304 15.155 35.1664 16.225C36.4764 18.43 39.5494 17.766 41.1394 16.409C41.7184 15.914 42.1854 14.739 41.1334 15.637ZM37.8224 8.75801C38.4754 9.11801 39.0704 9.82401 39.3924 10.588C39.0994 10.56 38.8064 10.53 38.5244 10.53C37.7234 10.53 36.9674 10.698 36.1804 10.755C36.2204 10.554 36.2634 10.359 36.3064 10.174C36.4914 9.36601 36.8544 8.22401 37.8224 8.75801Z" fill="#1B708A"/>
<path d="M45.6184 15.6911C45.6004 15.7141 45.5834 15.7381 45.5654 15.7611C44.5964 15.5871 44.8944 14.8071 44.8994 13.7501C44.9064 12.1281 45.3144 10.5901 45.5034 8.9901C45.8104 6.3781 45.4814 3.8041 46.1264 1.2261C46.2634 0.679099 44.7894 1.7801 44.6804 2.2151C44.1724 4.2491 44.1694 6.2341 44.1234 8.3251C44.0584 11.2021 42.8944 14.2631 43.4024 17.1381C43.4034 17.2081 43.4394 17.2451 43.5094 17.2491C45.3154 17.2491 45.6174 16.7851 46.6934 15.3501C47.4554 14.3321 45.9064 15.3061 45.6184 15.6911Z" fill="#1B708A"/>
<path d="M67.2263 0.353202C67.1773 -0.0347983 66.3563 0.684202 66.2773 0.759202C64.8073 2.1462 63.9283 4.1852 62.8913 5.9022C62.4383 6.6522 62.0303 7.4252 61.5823 8.1762C62.0643 7.3682 61.7113 6.4062 61.5763 5.5572C61.3433 4.0912 60.0773 2.1312 60.4273 0.724202C60.5223 0.344202 59.8463 0.759202 59.3843 1.1942C59.4073 0.849202 59.4063 0.508202 59.3383 0.201202C59.3363 0.130202 59.3013 0.0942018 59.2313 0.0902018C58.2063 -0.165798 57.4083 0.988202 56.6903 1.5862C56.1033 2.0752 55.6343 3.2422 56.6963 2.3582C58.8203 0.588202 57.5213 4.1132 57.2253 4.9762C56.6953 6.5172 56.8243 8.3962 56.4633 9.9852C55.8133 12.8462 55.2693 15.7562 54.6923 18.6452C54.6633 18.7912 56.0753 17.9742 56.1863 17.4162C56.8013 14.3422 57.4013 11.2312 58.0953 8.1782C58.4763 6.5002 58.4343 4.8172 58.9663 3.1502C59.0243 3.3912 59.1023 3.6392 59.2203 3.9192C59.9863 5.7382 60.2203 7.6702 60.4633 9.6122C60.4883 9.8132 60.7443 9.6902 60.8443 9.6362C63.4673 8.2282 64.1003 4.8652 65.6413 2.4662C65.5043 2.9262 65.2773 3.3522 65.2303 3.8402C65.0493 5.6992 64.3233 7.4442 63.9413 9.2642C63.4043 11.8222 61.9123 15.0122 62.7213 17.6402C62.8423 18.0342 64.3533 16.8592 64.2153 16.4112C63.3393 13.5652 65.0113 10.0652 65.6023 7.2472C66.0413 5.1572 67.5013 2.5182 67.2263 0.353202Z" fill="#1B708A"/>
<path d="M74.8083 15.814C73.0623 17.615 73.2613 13.753 73.2293 12.918C73.1943 11.998 72.9993 11.105 72.9943 10.178C72.9923 9.83002 72.9513 9.52202 72.8693 9.22602C72.8253 8.38302 72.5613 7.77002 71.8863 7.77002C71.6533 7.77002 71.3473 8.03202 71.0873 8.33202C69.4173 8.76402 68.0703 10.854 67.3983 12.24C66.8843 13.299 66.6573 14.456 66.5283 15.616C66.3753 16.991 66.4873 17.602 67.9043 17.85C69.6233 18.151 70.9753 15.921 71.6753 14.498C71.6593 15.31 71.6083 16.131 71.8313 16.882C72.4323 18.908 74.4903 16.975 75.2103 16.232C76.0153 15.402 75.6213 14.976 74.8083 15.814ZM71.1973 12.672C71.1433 13.523 70.7853 14.266 70.4473 15.031C69.9963 16.054 68.0423 17.221 67.9783 15.407C67.9163 13.658 68.3783 11.252 69.6713 9.98102C70.0173 9.64102 70.4053 9.47702 70.7783 9.25002C70.8773 9.28602 70.9573 9.35802 71.0253 9.45202C70.9973 9.54202 70.9903 9.62502 71.0283 9.69102C71.1283 9.86202 71.2033 10.037 71.2663 10.215C71.3813 11.096 71.2213 12.295 71.1973 12.672Z" fill="#1B708A"/>
<path d="M83.6563 8.10714C83.1973 8.35614 82.5623 8.28914 82.0543 8.45614C81.6023 8.60514 81.1353 8.87714 80.7503 9.15514C79.8303 9.82114 79.0263 10.5641 78.2893 11.4221C78.2983 10.8801 78.3083 10.3381 78.4183 9.80614C78.6103 8.87914 78.7683 8.07814 78.7683 7.12714C78.7683 6.74214 77.8773 7.47514 77.8193 7.53314C77.7363 7.61714 77.6523 7.70014 77.5683 7.78414C77.0683 8.28414 77.0253 8.63214 77.2533 8.64314C77.1963 10.0231 76.7743 11.3311 76.7693 12.7201C76.7673 13.4181 76.5493 14.1131 76.5273 14.7911C76.2953 15.5701 76.1323 16.3681 76.0183 17.1381C75.9643 17.5081 76.9273 16.7701 76.9673 16.7321C77.7003 16.0311 77.8093 15.3291 77.9063 14.5351C78.0463 14.1331 78.1793 13.7311 78.2223 13.3141C78.3953 11.6451 80.1433 9.74514 81.8873 9.71214C82.3103 9.70414 82.5653 9.57814 82.9233 9.38414C83.2653 9.19914 84.4803 7.66014 83.6563 8.10714Z" fill="#1B708A"/>
<path d="M89.2783 8.55303C89.2773 8.55003 89.2683 8.55303 89.2663 8.55103C89.1163 8.03703 88.7913 7.65503 88.1953 7.51903C88.1053 7.49803 87.9893 7.54403 87.8673 7.61403C86.3243 7.57703 84.5823 10.046 83.8003 11.052C82.7933 12.348 80.2633 16.811 82.7753 17.752C84.1003 18.248 85.5403 17.196 86.5833 16.019C86.5833 16.021 86.5823 16.023 86.5813 16.025C86.1613 17.509 85.6673 19.021 85.4003 20.542C85.0653 22.452 82.6233 24.491 80.5203 23.586C79.1713 23.005 78.9333 20.907 78.7673 19.674C78.7233 19.344 77.2043 20.391 77.2733 20.903C77.5473 22.935 78.0693 25.001 80.3753 25.343C81.9113 25.571 83.9303 23.839 84.9843 22.923C86.6523 21.473 86.7313 19.936 87.2743 17.806C87.7493 15.943 88.2073 14.041 88.9473 12.266C89.4453 11.071 89.7313 9.76103 89.2783 8.55303ZM84.3693 16.347C82.5753 16.39 83.4463 13.538 83.7463 12.679C84.2773 11.157 85.3743 10.021 86.5743 9.02203C86.7453 9.07803 86.9163 9.13403 87.0873 9.19003C87.1623 9.23403 87.2603 9.21903 87.3643 9.18303C88.3173 9.93603 87.5913 12.177 87.3133 12.986C86.7993 14.484 86.2253 16.302 84.3693 16.347Z" fill="#1B708A"/>
<path d="M99.4632 14.1291C99.0542 14.3451 98.6822 14.7161 98.4462 15.1111C97.8912 16.0401 96.7092 15.5311 96.2412 14.8881C95.7892 14.2671 95.7282 13.4431 95.7202 12.7071C95.7172 12.4371 95.7382 12.1671 95.7602 11.8961C96.1192 10.9941 96.3772 10.0551 96.5012 9.1031C96.5612 8.9741 96.5972 8.8381 96.5272 8.7921C96.5492 8.5721 96.5752 8.3521 96.5832 8.1321C96.5852 8.0681 96.4802 8.0881 96.3292 8.1581C96.3282 8.1181 96.3302 8.0761 96.3042 8.0521C94.9732 6.8151 92.1982 9.7681 91.4262 10.6351C90.6452 11.5131 90.0842 12.5571 89.6352 13.6341C89.3472 14.3271 88.5572 15.7361 88.9062 16.5291C89.7362 18.4181 92.6872 16.5831 93.5132 15.6201C93.7752 15.3141 94.0212 14.9901 94.2572 14.6571C94.2592 14.6861 94.2612 14.7171 94.2642 14.7451C94.3912 16.2511 95.3662 17.2731 96.8682 16.9231C98.0842 16.6401 99.1402 15.4421 99.7482 14.4251C99.9382 14.1071 99.7812 13.9611 99.4632 14.1291ZM90.4342 15.3431C89.9122 14.7301 91.1272 12.4941 91.3942 11.9341C91.7302 11.2281 93.7282 8.3851 94.8652 9.4411C94.9142 9.4861 94.9902 9.4851 95.0782 9.4631C95.0732 9.5771 95.0502 9.6821 95.0412 9.7941C94.4352 10.6671 94.2392 11.9081 94.2082 13.0581C94.0532 13.4171 93.8832 13.7731 93.6952 14.1311C93.1262 15.2121 91.5712 16.6781 90.4342 15.3431Z" fill="#1B708A"/>
<path d="M107.093 7.04814C106.071 6.02614 103.619 8.39114 103.057 9.27814C102.846 9.61114 102.671 9.96614 102.507 10.3281C102.637 9.46714 102.754 8.60514 102.822 7.74414C102.834 7.70614 102.855 7.66514 102.855 7.62914V7.37914C102.855 7.09714 101.391 8.09414 101.361 8.60814C101.277 10.0281 100.915 11.4011 100.833 12.8251C100.802 13.3721 100.785 14.0391 100.732 14.7091C100.427 15.5841 100.188 16.4821 100.106 17.3891C100.072 17.7681 101.399 16.6361 101.504 16.4311C101.913 15.6331 102.014 14.8461 102.074 14.0291C102.356 13.1651 102.716 12.3201 103.081 11.5131C103.405 10.7981 104.528 7.31114 105.654 8.43714C105.96 8.74314 107.387 7.34114 107.093 7.04814Z" fill="#1B708A"/>
<path d="M109.39 15.884C109.375 15.967 108.396 15.509 108.27 15.38C107.862 14.962 108.164 14.008 108.277 13.555C108.729 11.74 109.262 10.019 109.855 8.25198C110.025 7.74598 108.553 8.81298 108.409 9.24098C107.816 11.009 107.294 12.733 106.831 14.544C106.621 15.365 106.368 16.295 107.024 16.969C108.39 18.369 110.657 15.902 110.883 14.656C110.913 14.498 109.491 15.325 109.39 15.884Z" fill="#1B708A"/>
<path d="M111.358 5.54201C111.195 5.40301 110.999 5.27401 110.777 5.26001H110.275C109.892 5.26001 109.477 5.71101 109.249 5.96901C109.204 6.02001 108.656 6.71101 108.994 6.71101H109.389V6.85101C109.389 7.04001 109.605 6.96001 109.806 6.84601C109.844 6.87401 109.882 6.90001 109.919 6.93201C110.277 7.23501 111.644 5.78501 111.358 5.54201Z" fill="#1B708A"/>
<path d="M121.817 5.26098C120.172 5.28398 118.54 5.48498 116.904 5.62598C117.519 3.97498 118.711 1.78898 118.132 0.272976C118.06 0.0849763 116.487 1.12198 116.693 1.66198C117.052 2.60198 116.403 4.29898 115.839 5.69898C115.407 5.72598 114.974 5.75598 114.54 5.76198C113.987 5.76998 113.025 7.21598 113.26 7.21298C113.942 7.20398 114.622 7.15998 115.301 7.10598C115.273 7.18998 115.236 7.28598 115.216 7.35898C114.628 9.48798 113.994 11.666 113.559 13.831C113.331 14.963 112.531 16.837 113.715 17.533C114.56 18.03 116.327 17.094 117.048 16.662C117.377 16.464 118.574 14.908 117.78 15.385C113.799 17.774 114.8 13.674 115.292 11.631C115.665 10.082 116.092 8.54198 116.496 6.99998C117.84 6.87098 119.184 6.73098 120.537 6.71298C121.09 6.70398 122.052 5.25798 121.817 5.26098Z" fill="#1B708A"/>
<path d="M128.734 15.764C128.974 15.186 128.787 15.541 128.145 15.622C127.862 15.658 127.579 15.633 127.298 15.6C126.458 15.5 126.663 14.474 126.691 13.902C126.734 13.006 126.714 12.14 126.838 11.261C126.886 11.048 126.933 10.837 126.972 10.61C126.986 10.525 126.992 10.394 126.996 10.248C127.017 10.05 127.024 9.84497 127.001 9.67197C127.001 9.43597 127.002 9.19197 127.01 8.96897C127.439 8.47497 127.895 7.77597 127.313 8.10597C127.246 8.14397 127.197 8.19197 127.134 8.23097C127.139 8.22297 127.143 8.20597 127.149 8.19997C127.968 7.38097 127.57 6.95897 126.746 7.78297C126.245 8.28397 125.912 8.67997 125.776 9.40897C125.732 9.64497 125.695 9.87597 125.658 10.105C125.606 10.265 125.547 10.419 125.514 10.594C125.418 11.105 125.356 11.627 125.309 12.153C125.068 13.313 124.694 14.403 123.802 15.471C123.182 16.213 122.182 17.095 121.304 16.253C120.88 15.847 121.266 14.192 121.361 13.844C121.568 13.081 122.159 12.5 122.402 11.762C122.867 10.349 123.973 8.81197 125.555 8.71597C126.113 8.68197 127.043 7.25297 126.835 7.26497C124.549 7.40297 123.094 9.20797 121.832 10.952C121.127 11.926 120.597 13.185 120.141 14.287C119.715 15.318 119.396 16.579 119.866 17.641C120.752 19.646 124.386 15.728 124.95 15.051C125.034 14.95 125.105 14.849 125.183 14.748C125.175 15.152 125.168 15.554 125.158 15.951C125.124 17.329 126.7 17.134 127.621 16.944C128.725 16.716 129.756 15.796 130.18 14.772C130.373 14.309 128.907 15.347 128.734 15.764Z" fill="#1B708A"/>
<path d="M145.467 0.677179C145.478 0.473179 145.118 0.644179 144.766 0.897179C144.124 1.10918 143.524 1.33018 143.025 1.51718C142.602 1.67518 141.514 3.10418 141.986 2.92718C142.491 2.73818 143.115 2.45618 143.79 2.17618C142.921 4.04818 142.892 6.37118 142.511 8.35618C141.954 11.2562 141.386 14.1352 140.779 17.0182C140.66 17.5832 142.133 16.4662 142.225 16.0292C142.587 14.3082 143.106 12.6102 143.43 10.8822C143.43 10.8812 143.43 10.8802 143.43 10.8792C146.25 11.9852 144.021 17.5992 146.884 18.5032C147.339 18.6472 148.545 17.1732 148.164 17.0522C145.75 16.2902 147.197 11.4512 145.306 9.79618C148.205 8.72618 151.271 7.54318 151.784 4.11618C152.501 -0.676821 148.65 -0.274821 145.467 0.677179ZM149.468 6.96118C147.652 8.17518 145.798 8.51918 143.874 9.36218C143.835 9.37918 143.747 9.44918 143.643 9.53918C143.818 8.40718 143.976 7.27318 144.192 6.14818C144.43 4.91018 144.462 3.04318 144.969 1.72418C146.571 1.16718 148.26 0.878179 149.324 1.91018C150.28 2.83618 150.742 6.10918 149.468 6.96118Z" fill="#1B708A"/>
<path d="M156.856 14.559C155.485 15.855 153.075 16.96 151.504 15.327C150.639 14.428 150.888 12.559 151.182 11.262C153.063 11.371 155.172 11.566 156.308 9.77901C157.009 8.67501 155.955 7.511 154.942 7.106C153.807 6.652 152.471 7.723 151.748 8.478C149.884 10.427 148.741 13.855 149.884 16.44C150.402 17.611 152.274 17.75 153.324 17.466C154.833 17.057 156.14 16.033 157.259 14.976C158.105 14.177 157.699 13.763 156.856 14.559ZM153.913 8.65901C154.182 8.80501 154.414 8.996 154.609 9.233C154.693 9.358 154.777 9.483 154.861 9.608C154.865 9.712 154.872 9.801 154.88 9.884C153.84 10.019 152.68 9.801 151.675 9.778C151.667 9.778 151.656 9.785 151.648 9.785C152.076 8.907 152.815 8.22001 153.913 8.65901Z" fill="#1B708A"/>
<path d="M173.734 14.7512C172.378 16.2812 170.561 15.1622 171.229 13.0422C171.361 12.6232 171.478 12.1972 171.594 11.7702C172.176 10.9212 172.599 9.98519 172.774 8.92119C172.869 8.75519 172.902 8.61819 172.832 8.55519C172.838 8.49619 172.855 8.44219 172.859 8.38219C172.868 8.26219 172.756 8.28819 172.598 8.37719C170.579 6.89319 168.364 8.48619 166.79 9.99719C165.306 11.4212 163.794 13.3132 163.759 15.4602C163.689 15.2572 163.034 15.5852 162.693 16.0062C161.341 16.2712 160.799 15.9042 161.066 14.9062C161.07 14.1672 161.105 13.4302 161.17 12.6942C161.273 11.1682 161.475 9.63419 161.753 8.13119C161.858 7.56419 161.97 6.99319 162.081 6.42119C162.87 6.35819 163.65 6.23519 164.445 6.20919C165.001 6.19119 165.949 4.75119 165.725 4.75819C164.798 4.78919 163.892 4.97819 162.965 5.00919C162.761 5.01619 162.556 5.01119 162.352 5.01419C162.623 3.59819 162.874 2.17519 163.023 0.757188C163.211 0.477188 163.314 0.242188 163.216 0.242188H162.965C162.456 0.242188 161.622 1.08919 161.578 1.58219C161.473 2.73719 161.31 3.88219 161.125 5.02419C160.567 5.01919 160.009 5.01019 159.453 5.01019C158.902 5.01019 157.93 6.46119 158.173 6.46119H160.88C160.315 9.65819 159.657 12.8442 159.571 16.1362C159.488 19.3402 162.19 17.6102 163.464 16.0402C163.663 15.7952 163.746 15.6362 163.765 15.5332C163.765 15.8142 163.783 16.0982 163.837 16.3872C164.336 19.0602 168.058 15.5022 168.684 14.9222C169.067 14.5672 169.447 14.2062 169.818 13.8402C169.538 14.7502 169.296 15.8162 169.867 16.4872C171.395 18.2812 173.601 15.8052 174.505 14.7852C175.421 13.7502 174.241 14.1792 173.734 14.7512ZM165.696 15.7162C163.682 14.9202 167.564 7.01219 171.218 9.80919C170.802 10.6232 170.525 11.4762 170.27 12.3542C170.046 12.6512 169.797 12.9482 169.526 13.2682C168.755 14.1762 167.097 16.2702 165.696 15.7162Z" fill="#1B708A"/>
<path d="M185.275 16.1372C183.796 17.0002 184.694 11.6272 184.778 10.9232C184.922 9.70817 185.315 8.01817 184.374 7.04817C184.252 6.92317 183.931 7.14717 183.844 7.21217C183.158 7.72317 182.491 8.39117 181.911 9.12017C182.029 7.88617 181.934 6.77317 181.175 6.96617C179.743 7.33017 178.761 8.94617 178.089 10.1472C177.763 10.7292 177.369 11.2232 177.034 11.7792C177.066 11.6522 177.102 11.5272 177.125 11.3952C177.412 9.80317 177.799 8.25517 177.627 6.62817C177.586 6.23817 176.753 6.96617 176.678 7.03417C175.963 7.68217 174.376 8.48517 174.376 9.61317C174.376 9.85417 175.629 9.07417 175.83 8.52317C175.936 8.43317 176.04 8.34017 176.147 8.25117C176.248 9.84217 175.98 11.6042 175.447 13.0792C174.922 14.5332 174.295 15.8212 174.627 17.3912C174.726 17.8582 175.816 16.7332 175.911 16.6062C176.655 15.6152 176.743 14.4082 177.362 13.3592C177.696 12.7932 177.894 12.1332 178.104 11.5152C178.348 10.7982 179.131 9.92417 179.546 9.18317C180.024 8.33017 180.475 8.90217 180.444 9.60417C180.393 10.7602 180.195 11.8822 179.92 13.0062C179.734 13.7652 179.417 14.5162 179.17 15.2582C178.842 15.9212 178.508 16.6762 178.641 17.3922C178.712 17.7732 179.501 17.0782 179.59 16.9862C179.968 16.5942 180.363 16.2152 180.433 15.6432C180.529 14.8622 180.709 14.1362 180.924 13.4102C181.163 12.9262 181.397 12.4662 181.534 12.0802C181.929 10.9652 182.202 9.55317 183.078 8.62417C184.153 10.1042 183.093 13.5632 182.938 15.1342C182.799 16.5362 182.622 18.5372 184.542 17.4172C184.876 17.2202 186.078 15.6682 185.275 16.1372Z" fill="#1B708A"/>
<path d="M195.798 16.115C194.855 17.75 193.89 15.635 193.778 15.22C193.59 14.527 193.684 13.691 193.684 12.982V8.132C193.684 7.846 192.225 8.852 192.19 9.361C192.045 11.474 190.881 13.329 189.702 15.035C189.287 15.635 188.789 16.813 187.931 16.272C187.461 15.975 187.469 15.264 187.483 14.784C187.531 13.169 189.034 7.44 191.464 8.94C191.914 9.218 193.151 7.704 192.903 7.551C191.237 6.523 189.252 8.451 188.341 9.725C186.965 11.648 186.285 13.697 185.989 16.014C185.904 16.684 186.132 17.667 186.877 17.886C187.815 18.162 188.635 17.451 189.232 16.775C190.267 15.603 191.347 14.184 192.188 12.663V14.213C192.188 15.433 192.027 16.805 192.969 17.723C194.393 19.11 196.522 16.431 197.1 15.43C197.57 14.613 195.993 15.777 195.798 16.115Z" fill="#1B708A"/>
<path d="M201.213 15.386C201.041 15.536 199.817 16.943 200.182 15.779C200.521 14.7 200.197 13.038 200.271 11.895C200.525 7.97698 200.673 4.03398 200.708 0.101985C200.71 -0.155015 199.218 0.783985 199.214 1.33098C199.185 4.59498 198.992 7.85298 198.963 11.117C198.946 13.001 197.982 16.007 198.721 17.749C198.747 17.759 198.774 17.769 198.8 17.78C199.99 17.716 200.388 16.883 201.218 16.158C201.791 15.659 202.256 14.477 201.213 15.386Z" fill="#1B708A"/>
<path d="M210.463 8.13405C210.312 7.38305 209.764 7.19205 209.213 6.79705C209.079 6.70105 208.849 6.80505 208.61 6.98305C205.905 5.85105 203.791 9.04305 202.986 11.304C202.4 12.948 202.366 14.639 203.321 16.152C204.515 18.046 206.863 17.295 208.379 16.41C208.712 16.216 209.914 14.664 209.111 15.133C206.733 16.521 204.582 15.622 204.102 12.993C204.37 12.802 204.645 12.547 204.825 12.256C204.843 12.245 204.85 12.243 204.871 12.231C205.055 12.148 205.242 12.075 205.433 12.011C205.838 11.865 206.257 11.759 206.674 11.653C207.544 11.431 208.234 11.67 209.109 11.73C209.588 11.763 210.484 10.855 210.496 10.39C210.515 9.62905 210.614 8.88805 210.463 8.13405ZM208.34 10.09C207.626 10.265 206.916 10.44 206.223 10.69C205.431 10.975 204.593 11.464 204.025 12.14C204.055 10.051 205.483 7.21505 207.773 8.68905C207.901 8.77105 208.098 8.69305 208.306 8.55005C208.655 8.79405 208.902 9.04105 209.024 9.64505C209.052 9.78405 209.063 9.92705 209.07 10.071C208.825 10.042 208.581 10.031 208.34 10.09Z" fill="#1B708A"/>
<path d="M217.051 9.92304C216.575 9.58304 215.703 9.68704 215.155 9.65204C214.021 9.58004 213.935 8.83504 214.21 8.05504C215.229 7.98404 216.057 8.53604 217.057 8.93904C217.597 9.15704 218.673 7.62104 218.496 7.55004C216.908 6.91004 215.316 5.83004 213.812 7.28304C213.075 7.99404 212.067 9.79704 212.745 10.736C213.67 12.017 216.236 10.182 216.522 12.548C216.578 13.012 216.715 13.421 216.842 13.877C217.225 15.25 215.701 15.773 214.682 15.871C213.324 16.002 212.215 15.324 212.001 13.902C211.95 13.565 210.43 14.624 210.507 15.131C211.158 19.443 216.811 16.701 218.029 14.225C218.705 12.849 218.26 10.787 217.051 9.92304Z" fill="#1B708A"/>
</svg>
