<svg width="52" height="35" viewBox="0 0 52 35" fill="none" xmlns="http://www.w3.org/2000/svg">
<path d="M48.8899 13.7774C48.8824 13.6904 48.8377 13.6518 48.7396 13.7152C48.7408 10.8788 48.8153 8.04229 49.0241 5.21576C49.0788 4.48489 49.7412 1.12263 48.225 1.07416C46.8257 1.02941 45.4834 0.680135 44.0753 0.741041C42.3789 0.814376 40.6912 0.828049 38.9923 0.828049C34.9508 0.828049 30.9266 0.68635 26.8875 0.711209C24.8991 0.723639 22.9106 0.711209 20.9234 0.711209C18.8392 0.711209 16.8097 1.0232 14.7243 0.956076C12.7321 0.891441 10.73 0.944889 8.73653 0.944889C6.96928 0.944889 4.36564 1.42343 2.72764 0.60307C2.58472 0.530978 2.37717 0.79076 2.2939 1.02444C1.68866 1.18727 1.1816 1.60491 1.10207 2.33951C0.857236 4.59054 1.10081 6.854 1.10081 9.11622C1.10081 14.8886 0.983999 20.6187 0.983999 26.3936C0.983999 27.5732 1.10081 28.7465 1.10081 29.9174C1.10081 30.5613 0.797573 32.0914 1.11697 32.6507C2.26283 34.6569 4.63159 34.1 6.69586 34.1C9.45611 34.1 12.2213 33.7495 15.0002 33.7495C17.968 33.7495 20.9308 33.9832 23.9011 33.9832C30.0591 33.9832 36.5676 33.0323 42.6847 34.0963C43.838 34.2964 45.0174 34.2007 46.1843 34.2766C46.8231 34.3176 47.8882 34.5289 48.4537 34.0441C49.5399 33.1119 49.2764 31.2462 49.3783 29.9286C49.5647 27.5272 49.2106 25.0375 49.2106 22.6299C49.2106 22.2483 49.1882 21.8692 49.1559 21.4913C49.7512 21.454 50.3527 21.4006 50.9119 21.2216C51.1083 21.1582 51.2351 20.8437 51.2624 20.6622C51.552 18.7294 51.7322 16.7257 51.9024 14.7805C52.0615 12.9421 49.8692 14.3927 48.8899 13.7774ZM48.701 22.651C48.967 25.2724 49.0229 28.3575 48.8191 30.9988C48.7097 32.4195 48.9061 33.6103 47.1426 33.5631C45.6003 33.5221 44.0045 33.5494 42.492 33.2399C39.9045 32.7104 36.7988 32.9963 34.1603 32.9963C30.8396 32.9963 27.5275 33.23 24.2118 33.23C21.4739 33.23 18.7472 33.1218 16.0118 33.0087C12.9769 32.8819 10.0228 33.2424 7.00656 33.348C5.83461 33.3891 4.60549 33.4189 3.43975 33.2896C1.41773 33.0646 1.60788 31.4165 1.60788 29.8242C1.60788 27.0648 1.49105 24.2892 1.49105 21.5186C1.49105 18.1651 1.60788 14.8414 1.60788 11.4828C1.60788 9.57115 1.74334 7.6321 1.60788 5.72786C1.54947 4.91247 0.879607 1.69938 2.60212 1.69938C2.67793 1.69938 2.7587 1.62728 2.82829 1.53157C4.68751 2.15928 7.34212 1.69938 9.18145 1.69938C12.3009 1.69938 15.4078 1.82243 18.5074 1.51542C24.484 0.925001 30.6457 1.65587 36.636 1.58129C39.2533 1.54898 41.8569 1.57632 44.4718 1.46445C45.461 1.42219 46.5298 1.67452 47.5129 1.81497C48.6525 1.9778 48.6463 2.59929 48.5258 3.68441C48.4276 4.56444 48.5332 5.42831 48.4674 6.31579C48.1032 11.2293 48.1579 16.1204 48.5693 21.0078C48.4338 21.2328 48.3655 21.5373 48.5233 21.5273C48.5519 21.5261 48.5817 21.5236 48.6103 21.5224C48.6439 21.9002 48.6625 22.2756 48.701 22.651ZM51.2226 16.185C51.0089 17.6343 50.9878 19.116 50.8113 20.5727C50.252 20.7032 49.6493 20.7331 49.0751 20.7642C48.9844 20.0395 48.8613 19.3186 48.7408 18.5964C48.537 17.3708 48.6612 15.929 48.7159 14.6089C49.0353 14.681 49.4181 14.6015 49.7301 14.6015H51.0288C51.5395 14.6002 51.2637 15.9016 51.2226 16.185Z" fill="#1B708A"/>
<path d="M47.0296 3.91435C46.7861 2.16424 43.8369 2.5334 42.5606 2.46628C39.5244 2.30718 36.4199 2.45883 33.3825 2.55453C30.1152 2.6577 26.8827 2.58312 23.6142 2.58312C16.9354 2.58312 10.2889 2.8168 3.61515 2.8168C3.36411 2.8168 3.04595 3.57005 3.30446 3.57005H3.5381C3.53935 3.57005 3.5406 3.5688 3.54184 3.5688C3.54805 3.5688 3.55427 3.5688 3.56048 3.5688C3.63878 4.65019 3.20505 5.87453 3.20505 6.97705V20.6324C3.20505 23.5944 3.03603 26.5303 3.52072 29.4662C3.59653 29.9261 3.4623 31.5345 3.95071 31.9223C3.9619 31.9708 3.99297 31.9907 4.04143 31.9783C4.2204 32.0541 4.46522 31.9944 4.80699 31.7185C5.44206 31.6986 6.33688 31.8652 6.69481 31.8776C7.66916 31.9136 8.64972 31.8478 9.61909 31.7608C11.3453 31.6054 13.0243 31.4102 14.7655 31.4102C18.3634 31.4102 21.9364 32.2219 25.5256 32.463C29.5087 32.7303 33.5416 32.5799 37.5347 32.5799C40.1843 32.5799 43.6915 33.1554 46.1671 32.3288C46.2169 32.3126 46.2666 32.2766 46.3113 32.2281H46.3436C46.5922 32.2281 46.7562 31.7695 46.7525 31.578C46.6903 28.5738 46.402 25.5956 46.402 22.5714C46.402 19.2726 46.8693 16.0408 46.8693 12.7457C46.8681 9.90177 47.4199 6.72845 47.0296 3.91435ZM46.5661 5.61599C46.4455 8.41144 46.3622 11.2007 46.3622 13.9999C46.3622 17.0514 45.895 20.0569 45.895 23.1196C45.895 25.9324 46.1373 28.7043 46.2218 31.4948C46.156 31.5271 46.0876 31.5979 46.0292 31.6874C45.2114 31.8801 44.3613 31.8266 43.4914 31.8266H37.0674C33.0084 31.8266 28.7482 32.1635 24.724 31.593C20.8154 31.0386 16.9155 30.657 12.9697 30.657C11.2521 30.657 9.49481 31.092 7.75739 31.1231C7.75615 31.1231 7.75366 31.1231 7.75242 31.1231C7.84563 30.9938 7.92144 30.8484 7.92144 30.7602C7.92144 26.6745 8.15507 22.5938 8.15507 18.5019C8.15507 13.5424 7.56973 8.56308 7.56973 3.62349C7.56973 3.32394 7.06266 3.94418 7.06266 4.17165C7.06266 8.85394 7.64803 13.5785 7.64803 18.2782C7.64803 22.5627 7.42308 26.8324 7.41686 31.1119C6.48477 31.046 5.26931 30.7216 4.47268 31.1169C4.03398 30.7639 4.03149 28.9939 4.02776 28.9193C3.95941 27.7372 3.74068 26.5527 3.66611 25.3669C3.50827 22.8511 3.71086 20.2359 3.71086 17.7126V9.93906C3.71086 8.5606 3.70216 7.18089 3.71831 5.80243C3.7295 4.94354 3.99793 4.30962 4.06256 3.56632C16.2432 3.55264 28.425 3.22201 40.6106 3.21953C41.7105 3.21953 42.7892 3.27049 43.8854 3.33637C45.6675 3.44451 46.6618 3.39727 46.5661 5.61599Z" fill="#1B708A"/>
<path d="M38.8443 7.30155C37.8029 7.98768 36.872 8.81426 35.8678 9.5501C34.7791 10.3493 33.509 10.8888 32.4178 11.6681C29.9757 13.412 27.2975 15.0515 24.7598 16.6587C22.99 17.7799 20.5367 19.1434 19.3561 20.9146C19.3089 20.9842 19.2791 21.0675 19.2617 21.1458C19.2542 21.1595 19.2455 21.1682 19.238 21.1831C18.905 21.8494 18.0835 22.7766 18.2078 23.5808C18.2227 23.6765 18.2786 23.6952 18.3631 23.6666C19.0069 23.4516 19.591 23.2576 20.149 23.0476C20.1962 23.1445 20.3628 23.0376 20.4137 22.9842C20.4274 22.9693 20.4348 22.9494 20.4473 22.9332C21.4278 22.5442 22.3351 22.0781 23.3306 21.3111C25.6123 19.5536 28.3179 18.4722 30.6531 16.7855C32.7049 15.3026 34.9059 14.0907 36.9404 12.5643C37.788 11.9279 40.45 10.8465 40.6625 9.48298C40.8427 8.33695 40.3369 6.31836 38.8443 7.30155ZM18.9087 22.8313C18.6191 22.9469 19.1784 22.0147 19.4431 21.5448C19.7028 21.6269 19.893 21.6468 20.0284 21.95C20.1005 22.1104 20.1229 22.303 20.1291 22.4969C19.7227 22.5939 19.3089 22.671 18.9087 22.8313ZM38.7623 10.6613C38.2751 10.936 38.0377 11.1237 37.5928 11.4581C34.2733 13.9589 30.7301 16.5257 27.0092 18.4051C24.9064 19.4678 23.1628 21.0526 21.0997 22.1613C20.9481 22.2434 20.7903 22.3018 20.6325 22.3552C20.6287 21.9911 20.6076 21.6418 20.5032 21.2875C20.415 20.988 20.1826 20.9146 19.9352 20.8388C20.5144 20.2385 21.2998 19.7711 21.92 19.2602C22.949 18.4125 24.0663 17.7177 25.1798 16.9893C27.4243 15.5238 29.5371 13.8309 31.9282 12.6041C33.6644 11.7129 35.3583 10.5768 36.882 9.36117C37.4922 8.87516 38.1446 8.44012 38.7561 7.95536C38.6803 8.10452 38.6306 8.26486 38.643 8.32577C38.6927 8.57063 38.8617 8.71358 39.0084 8.90748C39.1302 9.06907 39.324 9.30896 39.3775 9.50411C39.4185 9.65202 39.4433 9.76886 39.5328 9.89689C39.5751 9.95655 39.6385 9.94661 39.7081 9.90186C39.7155 9.90932 39.7242 9.91181 39.7329 9.91926C39.4757 10.24 39.1575 10.4923 38.7623 10.6613Z" fill="#1B708A"/>
</svg>
