<svg width="57" height="41" viewBox="0 0 57 41" fill="none" xmlns="http://www.w3.org/2000/svg">
<path d="M56.4719 16.6125C55.9723 16.3801 55.5486 16.0892 55.0912 15.7834C54.3679 15.3012 53.4221 15.1371 52.6056 14.8164C51.4846 14.3764 50.1412 14.5305 48.9667 14.5305C47.8271 14.5305 47.5835 11.7338 47.2529 10.9855C46.6924 9.71149 45.902 9.11238 44.5958 8.60152C44.5026 8.56547 44.3945 8.64502 44.305 8.76435C44.2702 8.72333 44.2043 8.73203 44.0863 8.84762C42.7267 10.1702 41.8828 11.2167 41.6802 13.1471C41.4888 14.9792 41.3844 17.5422 42.447 19.1531C41.4714 19.5024 40.1628 19.5024 39.2307 19.5024C37.328 19.5024 35.3171 19.5621 33.4256 19.8194C30.0613 20.2768 26.5356 20.3315 23.1427 20.3315C19.0999 20.3315 14.8732 20.513 10.8528 20.0555C9.33779 19.8828 7.72217 19.7858 6.19353 19.7746C5.35092 19.7684 4.53687 19.5807 3.68929 19.5894C2.89017 19.5981 1.85369 19.8666 1.09683 19.5124C0.860695 19.4017 0.472949 20.145 0.690438 20.247C0.719022 20.2606 0.751362 20.2656 0.779946 20.278C0.779946 20.2818 0.777451 20.288 0.778694 20.2917C1.19876 22.9194 0.531364 25.6042 1.32302 28.2368C2.16315 31.0261 3.9789 33.4685 6.05685 35.461C7.13435 36.4939 8.27647 37.5206 9.52796 38.341C10.7148 39.1178 12.287 39.2844 13.6416 39.5777C16.8691 40.2763 19.7872 40.0563 23.0222 39.7319C33.1596 38.7139 44.1745 32.5064 47.54 22.324C47.545 22.324 47.5462 22.329 47.5512 22.329C49.5335 22.329 51.3529 22.2693 53.0568 21.1668C54.3878 20.3066 55.3957 18.3676 56.3626 17.1594C56.426 17.0811 56.641 16.6896 56.4719 16.6125ZM54.2411 19.2849C52.7461 21.5285 50.2655 21.5745 47.8619 21.5745C47.7824 21.5745 47.6978 21.6528 47.6258 21.7559C47.5015 21.7721 47.2455 22.0369 47.1945 22.2009C46.46 24.57 44.6853 27.5345 43.1032 29.3853C41.3223 31.4698 38.7721 33.3318 36.3474 34.5785C35.2003 35.1677 34.2061 35.9893 33.0379 36.566C31.6397 37.2559 30.1359 37.6747 28.6321 38.0551C26.3205 38.6393 23.8996 38.7288 21.583 39.2471C18.7706 39.8773 15.5866 39.1551 12.84 38.5846C10.1779 38.0315 8.39702 36.5548 6.46323 34.7252C4.38156 32.7563 2.22779 29.9807 1.71576 27.0809C1.4933 25.8217 1.29195 24.6185 1.28449 23.3345C1.27827 22.3836 1.39386 21.3905 1.34415 20.4309C2.37442 20.5987 3.62345 20.3017 4.60401 20.3936C6.38618 20.5614 8.25285 20.8075 10.0412 20.8075C14.3077 20.8075 18.5618 21.1332 22.832 21.0835C26.4473 21.0412 30.131 20.9778 33.7164 20.4906C35.552 20.2407 37.5504 20.2557 39.4034 20.2557C40.5654 20.2557 41.9897 20.1662 42.9764 19.5086C43.1641 19.3831 43.4214 18.6187 43.0461 18.8685C43.01 18.8934 42.9653 18.9108 42.9268 18.9331C42.9939 18.7964 43.0249 18.656 42.9727 18.5814C41.1794 16.0233 42.1823 11.2776 44.1472 9.36595C44.1584 9.35476 44.1683 9.33736 44.1782 9.32369C44.1832 9.32617 44.1832 9.33363 44.1894 9.33611C45.6808 9.91907 46.7682 10.8737 47.0392 12.5579C47.0603 12.6909 47.4878 15.1296 47.8308 15.2142C48.8201 15.4578 49.9709 15.2738 50.9863 15.3198C52.8417 15.4043 54.2585 16.4596 55.8257 17.229C55.2789 17.8953 54.742 18.5329 54.2411 19.2849Z" fill="#1B708A"/>
<path d="M38.0388 15.4938C38.0934 14.8387 38.2103 14.1141 38.1705 13.4615C38.1693 13.4217 38.1519 13.3907 38.1208 13.3683C37.7815 13.2689 37.4683 13.3571 37.1166 13.3683C36.6406 13.3832 36.1945 13.3124 35.7234 13.2937C34.7565 13.2552 33.6865 12.9295 32.7296 13.2452C32.66 13.2689 32.5829 13.3633 32.5195 13.4752C32.3891 13.6393 32.2759 13.8742 32.3294 14.0022C32.5804 14.6125 32.3779 15.6081 32.3779 16.2296C32.3779 17.0947 32.3866 18.032 32.3132 18.8958C32.307 18.9667 32.3132 19.0773 32.4114 19.0736C34.1588 19.0151 35.9633 19.1009 37.697 18.9431C37.9406 18.9207 38.1196 18.5006 38.1059 18.293C38.0413 17.3545 37.9617 16.4298 38.0388 15.4938ZM32.8476 18.1525C32.9222 17.2688 32.7743 16.3328 32.9408 15.4528C33.0092 15.0936 32.9172 14.6647 32.8849 14.3092C32.8712 14.165 32.8787 14.0258 32.8812 13.8866C34.293 13.6057 35.8788 14.2918 37.308 14.0818C37.8449 14.0035 37.4919 16.3937 37.4696 16.6746C37.4285 17.1681 37.487 17.6926 37.5404 18.206C36.7661 18.2445 35.9708 18.2333 35.2015 18.2532C34.9504 18.2594 32.8315 18.3514 32.8476 18.1525Z" fill="#1B708A"/>
<path d="M31.4546 14.001C31.4757 13.3634 31.3117 13.0899 30.6816 13.1968C29.0088 13.4777 27.2626 12.6524 25.6159 13.1794C25.4395 13.2366 25.2145 13.7325 25.3028 13.8693C25.2804 13.9227 25.263 13.9724 25.2642 14.0097C25.2841 15.6194 25.2829 17.2203 25.2642 18.83C25.263 18.8983 25.2605 19.0127 25.3624 19.0077C26.9979 18.9232 28.8298 18.7019 30.4529 18.9418C31.4931 19.096 31.1961 17.0662 31.252 16.6038C31.3564 15.7549 31.4272 14.85 31.4546 14.001ZM26.978 18.1874C26.7717 18.1874 25.7713 18.3887 25.775 18.0059C25.7812 17.4403 25.8148 16.8748 25.8309 16.3092C25.8546 15.4789 25.8036 14.6486 25.7825 13.8183C27.2589 13.5187 28.8795 14.1415 30.3709 13.95C31.3055 13.8295 30.817 15.7437 30.8046 16.3739C30.7947 16.83 30.7064 17.28 30.6853 17.7374C30.6828 17.7933 30.7126 18.0022 30.7263 18.1886H26.978V18.1874Z" fill="#1B708A"/>
<path d="M24.3584 14.64C24.3323 14.103 24.5995 13.2541 23.8799 13.2155C23.0969 13.1733 22.2233 13.4517 21.4378 13.5138C20.6573 13.5747 19.9079 13.4057 19.1474 13.3585C19.0753 13.3535 18.997 13.4181 18.9274 13.5089C18.9174 13.4753 18.915 13.438 18.9025 13.4045C18.8317 13.2031 18.342 13.8196 18.4278 14.067C18.951 15.561 18.3557 17.4218 18.5421 18.9693C18.5434 19.009 18.5608 19.0401 18.5918 19.0625C19.1996 19.1955 19.9017 19.0625 20.5306 19.1209C21.5397 19.2129 22.5874 19.1383 23.6003 19.1383C24.172 19.1383 24.2789 17.909 24.3335 17.551C24.4765 16.6014 24.4044 15.5921 24.3584 14.64ZM22.8347 18.3838H21.4975C21.1594 18.3838 19.0057 18.4944 19.0504 18.0395C19.1312 17.2042 19.0504 16.3242 19.0504 15.4852C19.0504 15.0477 19.0765 14.5778 19.038 14.1229C20.5703 14.2149 22.0256 14.2634 23.5692 13.97C23.9893 13.8905 23.8898 16.9171 23.8861 17.1371C23.8774 17.5821 23.7593 18.001 23.6873 18.4236C23.4089 18.4373 22.9951 18.3838 22.8347 18.3838Z" fill="#1B708A"/>
<path d="M17.5488 16.9369C17.5488 15.776 17.4184 14.615 17.4184 13.4603C17.4184 13.3944 17.3761 13.3671 17.3202 13.3571C16.6031 13.2428 15.8263 13.4243 15.1093 13.4715C14.2642 13.5274 13.4526 13.3571 12.6212 13.3571C12.5404 13.3571 12.4534 13.4392 12.3801 13.5448C12.4919 13.1769 12.0743 13.3808 11.9364 13.684C11.6667 14.2757 11.7636 14.8848 11.7326 15.5249C11.6816 16.5827 11.7562 17.6417 11.6903 18.6982C11.6854 18.7715 11.6891 18.876 11.7885 18.876H15.7046C16.224 18.876 17.0256 19.1879 17.3898 18.6796C17.7253 18.211 17.5488 17.4639 17.5488 16.9369ZM15.6238 18.1227H12.8834C12.3689 18.1227 12.2173 18.1041 12.2272 17.5659C12.2334 17.1681 12.2135 16.7691 12.2036 16.3714C12.1874 15.7884 12.0893 14.758 12.2309 14.0445C12.2446 14.083 12.267 14.1129 12.313 14.1129C12.9145 14.1129 13.5259 14.2434 14.1399 14.2434C14.9601 14.2421 15.7891 14.1638 16.6043 14.0992C17.1959 14.052 16.9933 15.5522 17.0095 15.9686C17.0381 16.6796 17.1263 17.4813 17.084 18.2209C16.6279 18.2619 15.9245 18.1227 15.6238 18.1227Z" fill="#1B708A"/>
<path d="M10.8924 13.5262C10.8924 12.8588 9.58999 13.2279 9.2358 13.2279H5.50742C5.4167 13.2279 5.31728 13.3274 5.24022 13.4541C5.10724 13.5996 4.96931 13.8246 4.96931 13.9439C4.96931 15.0128 4.90343 16.0731 4.90343 17.1421C4.90343 17.6082 4.51568 18.7778 5.19797 18.876C6.12882 19.0103 7.33929 18.9456 8.26517 18.8101C8.85922 18.7231 10.1505 19.0438 10.5382 18.5479C10.8862 18.1016 10.8278 17.6877 10.8278 17.1396C10.8278 15.9351 10.8924 14.7332 10.8924 13.5262ZM10.3208 17.3372C10.3208 17.9388 10.4587 17.9923 9.83482 17.9923C8.39442 17.9923 6.95528 18.1228 5.50867 18.1228C5.32722 18.1228 5.42168 15.2801 5.46145 13.9837C6.95777 13.9911 8.47398 14.0545 9.96161 13.9165C10.6787 13.8494 10.3419 16.4236 10.3208 16.6759C10.3034 16.891 10.3208 17.1197 10.3208 17.3372Z" fill="#1B708A"/>
<path d="M17.263 9.94527C17.2655 9.60097 17.519 7.24677 17.1971 7.22937C16.5633 7.19581 15.9518 7.14733 15.3105 7.18338C14.4182 7.2331 13.4028 7.50531 12.5391 7.16598C12.4745 7.14112 12.4024 7.17343 12.3341 7.23434C12.3328 7.17716 12.3278 7.11999 12.3278 7.06281C12.3278 6.76325 11.8208 7.3835 11.8208 7.61096C11.8208 8.37788 11.9513 9.11745 11.9513 9.87815C11.9513 10.7992 12.001 11.7787 12.0818 12.7022C12.0867 12.7656 12.119 12.7991 12.1799 12.8054C12.9803 12.8787 13.7745 12.8712 14.5786 12.8712C15.1639 12.8712 16.347 13.1024 16.8715 12.8551C17.7899 12.4188 17.2568 10.6426 17.263 9.94527ZM16.393 12.118H14.8905C14.3511 12.118 12.5578 12.4337 12.5652 11.5698C12.5764 10.3592 12.4235 9.16841 12.3602 7.9677C13.5905 8.33065 15.1738 7.91176 16.4228 7.91176C16.9982 7.91176 16.7808 8.58173 16.7808 8.98321C16.7808 9.9316 16.7808 10.8452 16.8379 11.7898C16.8653 12.2398 16.8379 12.118 16.393 12.118Z" fill="#1B708A"/>
<path d="M24.1394 7.19457C24.1394 7.13863 24.0984 7.08891 24.0412 7.0914C22.3224 7.18214 20.6173 7.04044 18.9047 7.21197C18.8836 7.16225 18.8327 7.17095 18.7656 7.22191C18.7618 7.22191 18.7581 7.22191 18.7544 7.22315C18.5406 7.24677 18.2349 7.85583 18.3964 7.95651C18.302 9.36977 17.9229 11.3212 18.4772 12.6139C18.4946 12.6463 18.522 12.6612 18.5593 12.6599C19.4292 12.7569 20.3812 12.6115 21.2598 12.6115C22.1074 12.6115 22.9488 12.6773 23.7964 12.6773C24.0114 12.6773 24.1941 12.2734 24.204 12.1018C24.3072 10.4711 24.1394 8.82659 24.1394 7.19457ZM19.7598 11.8893C19.3646 11.9141 18.9433 12.1242 18.8873 11.5674C18.8451 11.1497 18.7892 10.7395 18.7892 10.3194C18.7892 9.52515 18.8414 8.73337 18.8861 7.94159C20.2395 7.82848 21.5842 7.8695 22.9488 7.87323C23.9182 7.87572 23.6211 8.711 23.6435 9.45554C23.6684 10.2771 23.7268 11.0938 23.7168 11.9154C22.397 11.898 21.0809 11.8048 19.7598 11.8893Z" fill="#1B708A"/>
<path d="M30.9266 7.33493C30.9304 7.26532 30.9279 7.15221 30.8284 7.15718C29.1594 7.23922 27.4754 7.15718 25.8038 7.15718C25.7889 7.15718 25.774 7.16713 25.7591 7.1721C25.743 6.94215 25.4161 7.13232 25.3154 7.41821C25.0656 8.12795 25.1998 8.95701 25.1998 9.70031C25.1998 10.6052 25.2433 11.6791 25.4198 12.5629C25.4211 12.6027 25.4385 12.6337 25.4695 12.6561C26.127 12.8115 26.9298 12.6002 27.6084 12.6201C28.6274 12.6499 29.6304 12.6101 30.6495 12.6101C30.8633 12.6101 31.0497 12.2062 31.0571 12.0346C31.1342 10.4685 30.8533 8.90108 30.9266 7.33493ZM26.0648 11.9215C25.8188 11.9277 25.6286 9.13849 25.6671 7.91167C27.1436 7.9154 28.6225 7.9589 30.0989 7.93032C30.6383 7.92037 30.4407 9.26403 30.4606 9.60088C30.5066 10.3442 30.55 11.1074 30.5488 11.8606C29.0537 11.8656 27.5599 11.8817 26.0648 11.9215Z" fill="#1B708A"/>
<path d="M31.0568 0.929935C31.0568 0.871515 31.0158 0.828011 30.9586 0.826768C29.2373 0.808123 27.5173 0.826768 25.8035 0.826768C25.7712 0.826768 25.7451 0.851628 25.7165 0.8653C25.5985 0.849142 25.3263 1.13503 25.2815 1.31526C25.1001 2.0424 25.1983 2.81926 25.1983 3.56629C25.1983 4.23998 24.9323 5.53889 25.243 6.13055C25.4717 6.56435 27.0401 6.14919 27.4502 6.14919C28.5886 6.14919 29.7134 6.24863 30.8431 6.27971C31.0929 6.28716 31.2519 5.81608 31.2519 5.62963C31.2531 4.06099 31.0568 2.49609 31.0568 0.929935ZM26.195 5.54262C25.4195 5.70421 25.7053 4.03738 25.7053 3.70426C25.7053 3.04424 25.6158 2.27235 25.6817 1.58001C27.1905 1.57753 28.7104 1.54148 30.2229 1.57628C30.8753 1.5912 30.6243 3.45069 30.6144 3.88325C30.6019 4.42394 30.6715 4.96464 30.7138 5.50782C29.2113 5.43324 27.6876 5.23063 26.195 5.54262Z" fill="#1B708A"/>
</svg>
