<svg width="35" height="34" viewBox="0 0 35 34" fill="none" xmlns="http://www.w3.org/2000/svg">
<path d="M20.2985 20.5637C19.7442 18.9988 19.1178 17.2947 18.8282 15.6502C18.3995 13.219 17.5519 10.8225 16.9081 8.43849C16.759 7.88661 16.7031 7.42298 16.0755 7.3658C15.3845 7.30241 13.5824 7.32727 12.9834 7.62683C12.9188 7.65915 12.8504 7.7561 12.792 7.86921C12.6565 7.99351 12.5024 8.216 12.4875 8.3316C12.1047 11.3582 10.8445 14.1587 10.1125 17.0871C9.60299 19.1231 9.03876 21.4264 8.26077 23.3691C8.23716 23.4288 8.14395 23.6848 8.25953 23.7209C9.01391 23.9558 10.8023 24.1659 11.3926 23.5407C12.0103 22.8856 12.0426 21.7831 12.3011 20.9553C12.7075 19.6526 12.2402 19.5992 13.5986 19.5992C13.8496 19.5992 16.2296 19.3643 16.2544 19.5694C16.4185 20.9391 16.9964 22.4183 17.5022 23.6861C17.5196 23.7184 17.5469 23.7333 17.5842 23.7321C18.3386 23.747 20.8291 24.2342 20.9733 22.9204C21.0454 22.2716 20.4725 21.0522 20.2985 20.5637ZM19.9989 22.9043C18.7052 22.7998 18.0068 23.1765 17.5444 21.7905C17.225 20.8335 16.8572 19.8043 16.7366 18.795C16.7354 18.7552 16.718 18.7241 16.6869 18.7018C15.9338 18.4507 14.7295 18.8459 13.9118 18.8459C13.4768 18.8459 12.756 18.5576 12.4477 18.9889C12.0115 19.5992 12.0053 20.468 11.8326 21.179C11.6822 21.7992 11.3267 22.4096 11.2571 23.046C11.2522 23.0895 10.1436 23.123 9.93481 23.123C9.70863 23.123 8.74173 23.2473 8.84737 22.8806C9.07356 22.0864 9.20902 21.276 9.53961 20.5128C9.90126 19.6762 10.2468 18.2294 10.4692 17.3357C11.2248 14.3128 12.4788 11.3955 12.9374 8.29679C13.6408 8.05441 15.075 8.17374 15.7672 8.12029C16.5129 8.06311 16.9678 11.0997 17.0548 11.5236C17.409 13.2351 17.8937 15.2065 18.4479 16.8721C18.8705 18.1412 19.1501 19.4401 19.6348 20.6868C19.7989 21.1119 20.6812 22.9602 19.9989 22.9043Z" fill="#1B708A"/>
<path d="M14.7332 10.4683C14.7108 10.2421 14.4511 10.5031 14.3131 10.753C14.1988 10.881 14.0894 11.0587 14.0819 11.1582C13.9664 12.8051 12.9311 14.3352 12.6353 15.9635C12.5682 16.3327 12.4004 16.7652 12.8267 16.9069C13.6271 17.1742 14.8512 16.8622 15.7013 16.9169C15.9175 16.9306 16.1537 16.4433 16.1102 16.2668C15.6242 14.3178 14.9308 12.4857 14.7332 10.4683ZM13.8384 16.1636C13.0604 16.1761 13.0243 16.0692 13.2157 15.2712C13.3288 14.7976 13.5115 14.2992 13.6681 13.843C13.893 13.1904 14.1677 12.5491 14.3616 11.889C14.6039 13.3446 15.0352 14.7268 15.4229 16.1512C14.896 16.145 14.3678 16.1549 13.8384 16.1636Z" fill="#1B708A"/>
<path d="M23.9843 7.24774C23.9457 7.24401 23.9035 7.26514 23.8625 7.29622C23.5617 7.26266 23.3107 7.23034 23.0137 7.46402C22.6967 7.71261 22.5178 8.15387 22.4333 8.53298C22.2344 9.42544 22.3537 10.6398 23.5269 10.7417C23.9979 10.7828 24.4379 10.8027 24.8095 10.4807C25.1214 10.211 25.3141 9.93506 25.3874 9.52612C25.5489 8.61874 24.9947 7.35091 23.9843 7.24774ZM24.8778 9.84183C24.6343 10.0668 24.29 10.0022 23.983 10.0022C23.3107 10.0022 22.8173 9.37945 22.8446 8.75299C22.8558 8.50066 22.8508 8.06313 23.1702 7.99477C23.3504 7.95624 23.6947 8.07183 23.8898 8.07308C23.8985 8.07308 23.9072 8.06562 23.9159 8.06438C24.3422 8.23466 24.6442 8.70451 24.8356 9.10226C24.8754 9.18306 24.9512 9.77471 24.8778 9.84183Z" fill="#1B708A"/>
<path d="M25.4235 11.981C25.4223 11.9412 25.4049 11.9102 25.3738 11.8878C24.5797 11.6889 23.6451 11.7424 22.8248 11.7424H22.7528C22.539 11.7424 22.2395 12.2682 22.36 12.4509C23.0896 13.5447 22.2718 16.2469 22.2718 17.4675C22.2718 18.6993 22.1873 19.9398 22.3439 21.1641C22.4445 21.9547 22.1202 22.9441 22.4595 23.6861C22.4769 23.7185 22.5042 23.7334 22.5415 23.7321C23.9135 23.7321 25.3142 23.8142 25.3142 22.1846V17.3557C25.3142 15.659 25.6907 13.6528 25.4235 11.981ZM24.781 16.6061C24.8369 17.9162 24.8083 19.2301 24.8083 20.5414V22.3959C24.8083 22.9876 24.1919 22.8359 23.6948 22.9776C22.4682 23.3282 22.887 21.3481 22.8509 20.616C22.7801 19.2077 22.6931 17.7534 22.8509 16.3414C22.9603 15.3607 23.3394 13.6553 23.0945 12.4857C23.8514 12.4832 24.9724 12.5578 24.8817 13.188C24.7288 14.2507 24.735 15.5409 24.781 16.6061Z" fill="#1B708A"/>
<path d="M33.1671 24.5885C33.2305 23.3604 32.8887 22.1087 32.9596 20.8359C33.0217 19.7098 33.1584 18.5464 33.141 17.4264C33.059 12.1972 33.1597 6.92951 32.9956 1.69782C32.9906 1.53126 32.8403 1.64189 32.7036 1.81217C27.7622 1.81217 22.7848 1.88427 17.8323 1.88427C16.3658 1.88427 2.84671 1.56234 2.84671 1.842C2.84671 1.61827 2.56584 1.9054 2.42292 2.16021C2.41795 2.16021 2.41298 2.15151 2.408 2.15772C2.59691 1.96879 2.73237 1.25408 2.34711 1.6394C2.2017 1.78358 2.07494 1.96009 2.05132 2.17015C1.92083 3.37087 2.05132 4.77294 2.05132 6.01343C2.05132 9.09975 1.90592 12.1724 1.90592 15.255C1.90592 20.7576 1.74808 26.259 2.19549 31.7443C2.2191 32.0364 2.5646 31.6337 2.60312 31.5554L2.67023 31.4211C4.88365 31.5989 7.00882 31.1937 9.21478 31.1937C11.6171 31.1937 13.9448 31.7132 16.3534 31.5927C21.7384 31.3229 27.1073 31.5641 32.4973 31.4137C32.5383 31.6424 32.9546 31.1116 32.9782 30.996C33.1373 30.2154 33.0776 29.4547 32.9956 28.6592C32.849 27.2236 33.095 26.0055 33.1671 24.5885ZM32.4898 24.0627C32.6514 25.3703 32.363 26.6531 32.3456 27.9743C32.3332 28.8817 32.6054 29.7605 32.5681 30.6666C27.5012 30.8021 22.4555 30.7052 17.3886 30.8058C14.9503 30.8543 12.6412 30.602 10.214 30.4429C7.73089 30.2801 5.31863 30.8929 2.82185 30.6604C2.77463 30.6554 2.72492 30.6865 2.67521 30.73C2.35084 26.4007 2.41298 22.0553 2.41298 17.7161C2.41298 14.8746 2.64538 12.0257 2.56833 9.19297C2.53477 7.95124 2.55838 6.70826 2.55838 5.46653C2.55838 5.42426 2.57827 3.44047 2.50743 2.56293C3.77632 2.55547 4.99301 2.35908 6.28179 2.4088C7.65508 2.46101 9.03333 2.56169 10.4079 2.5679C12.5591 2.57785 14.7067 2.63751 16.8617 2.63751C22.0516 2.63751 27.2639 2.56542 32.4426 2.56542C32.46 2.56542 32.4774 2.55423 32.496 2.54802C32.6352 7.27879 32.5619 12.0866 32.5619 16.8149C32.5619 19.2002 32.1953 21.6812 32.4898 24.0627Z" fill="#1B708A"/>
<path d="M34.5651 32.4728H34.4931C34.4757 32.4728 34.457 32.484 34.4396 32.4915C34.4185 32.4964 34.3949 32.4952 34.3738 32.5002C34.3738 30.0676 34.5042 27.6165 34.59 25.1852C34.6633 23.1381 34.3738 21.0673 34.3738 19.0226C34.3738 13.0401 34.1675 7.05766 34.5714 1.08268C34.7951 0.934761 35.0088 0.364235 34.7826 0.364235C29.3168 0.364235 23.8448 0.293385 18.3952 0.128069C15.5318 0.0423038 12.6448 0.146714 9.78014 0.146714C6.90183 0.145471 4.10057 0.105696 1.22724 4.25957e-05C1.18498 -0.00120038 1.14148 0.0249021 1.09799 0.0597055C1.05573 0.0584625 1.01472 0.0659204 0.95258 0.0895369C0.733849 0.171573 0.60087 0.510906 0.60087 0.723455C0.60087 3.54004 0.196962 6.4138 0.15595 9.24903C0.109967 12.4 0.210633 15.577 0.0590122 18.7242C-0.0466252 20.9231 -0.0341973 23.2996 0.295143 25.4773C0.686622 28.0689 0.343612 30.4505 0.315027 33.0346C0.315027 33.0396 0.312542 33.0471 0.312542 33.0508V33.1962C0.312542 33.3093 0.384624 33.2981 0.474105 33.2298C1.81632 33.2385 3.12747 33.4983 4.46844 33.5169C6.21456 33.5418 7.97187 33.0819 9.72297 33.0819C11.1298 33.0819 12.564 33.2882 13.9621 33.4448C15.7194 33.64 17.3438 33.5803 19.1073 33.5169C21.4723 33.4336 23.805 33.4137 26.1738 33.553C27.4377 33.6275 28.6656 33.3379 29.927 33.3019C31.3041 33.2633 32.9147 33.553 34.2544 33.2261C34.4545 33.1776 34.8584 32.4728 34.5651 32.4728ZM33.8667 18.2643C34.0904 23.0212 33.8853 27.7905 33.8704 32.5611C32.9122 32.653 31.8596 32.5449 30.9412 32.5449C29.4461 32.5449 27.9709 32.8867 26.4845 32.7985C24.1133 32.6593 21.7843 32.7226 19.418 32.7624C17.903 32.7873 16.4452 32.9638 14.9253 32.8159C13.2972 32.6568 11.6754 32.3274 10.0324 32.3274C9.40605 32.3274 1.63363 32.9663 0.881741 32.571C0.89044 32.4927 0.873041 32.4368 0.825815 32.4156C0.873041 30.5238 1.19368 28.6805 1.03585 26.7775C0.800959 23.9609 0.416936 21.1704 0.563586 18.3265C0.740062 14.9245 0.621997 11.4851 0.671709 8.07939C0.708993 5.64316 1.03833 3.18206 1.08929 0.758258C6.74524 0.962107 12.4062 0.96335 18.0845 0.88007C23.4036 0.801763 28.7601 1.09759 34.0966 1.11126C34.0929 1.12618 34.0854 1.14358 34.0842 1.15601C33.6803 6.81901 33.5995 12.5926 33.8667 18.2643Z" fill="#1B708A"/>
</svg>
