<svg width="27" height="34" viewBox="0 0 27 34" fill="none" xmlns="http://www.w3.org/2000/svg">
<path d="M26.524 32.6717C26.4569 32.6705 26.3885 32.6705 26.3214 32.6692C26.3077 28.6507 26.099 24.6346 26.2568 20.6161C26.3326 18.6882 26.5749 16.743 26.5228 14.8101C26.4643 12.6598 25.9337 10.1912 26.4059 8.06326C26.4258 7.97252 26.4221 7.91907 26.4109 7.88178C26.4208 7.82958 26.4233 7.78235 26.4084 7.74381C26.0579 6.86752 25.2116 6.32309 24.4995 5.73392C23.2617 4.70971 22.4452 3.50775 21.441 2.28963C20.9414 1.68306 20.0851 0.549466 19.4662 0.206404C18.8149 -0.154059 17.0266 0.19646 16.2598 0.19646C13.676 0.19646 11.1606 -0.0173317 8.56192 0.19646C7.42725 0.289684 6.27269 0.294656 5.13305 0.367991C4.35009 0.418953 2.21372 0.717268 1.60351 0.106966C1.57866 0.0821067 1.54138 0.0895645 1.50161 0.108209C1.36988 0.0758918 0.990817 0.583026 1.06414 0.804276C1.41958 1.87199 1.17227 3.54753 1.07409 4.61649C0.95478 5.91415 0.949811 7.24414 0.949811 8.54802C0.949811 11.7002 1.05421 14.9767 0.778305 18.1165C0.560816 20.59 0.799432 23.2848 1.24559 25.7185C1.68803 28.1336 0.850385 30.6929 0.850385 33.1217C0.850385 33.1801 0.891391 33.2248 0.94856 33.2248H1.04674C1.09397 33.2248 1.14369 33.1925 1.19216 33.1478C9.25415 34.4604 17.6529 33.2808 25.756 33.4175C25.7038 33.5766 25.705 33.7183 25.8168 33.7183H25.915C26.0555 33.7183 26.1623 33.5741 26.2319 33.415C26.4793 33.3777 26.7812 32.6767 26.524 32.6717ZM19.5159 3.5351C19.5805 2.93722 19.6377 2.2859 19.6228 1.6495C19.7247 1.73402 19.8316 1.826 19.9471 1.93041C21.1377 2.99316 21.9058 4.33433 22.9758 5.49154C23.4941 6.05212 24.2286 6.52197 24.8574 7.05769C23.289 6.75565 21.5491 6.81283 20.0093 6.61395C18.7864 6.45609 19.4252 4.37659 19.5159 3.5351ZM1.28163 20.6633C1.18097 19.301 1.35868 17.9449 1.35868 16.5864C1.35868 13.2999 1.39597 10.0035 1.47178 6.71712C1.50907 5.08136 1.9602 2.92107 1.7452 1.14982C3.07623 1.59232 5.74575 1.10383 6.77105 1.00067C9.39458 0.738398 12.0119 0.852752 14.6404 0.852752C15.6036 0.852752 16.5593 0.950947 17.5274 0.950947C18.2159 0.950947 18.6298 1.02801 19.0188 1.23186C19.3928 3.15475 18.2992 5.34363 18.9256 7.22176C18.943 7.25408 18.9703 7.269 19.0076 7.26776C19.8713 7.40573 20.7077 7.43059 21.5739 7.52629C22.8093 7.66302 24.2919 7.64935 25.4726 8.0471C25.5447 8.07072 25.623 8.02846 25.695 7.95636C25.782 8.08936 25.8554 8.22982 25.9175 8.37773C25.6043 9.88422 25.787 11.5883 25.8877 13.111C26.0579 15.7113 25.9871 18.4148 25.751 21.0126C25.6913 21.6701 25.6578 22.3326 25.6342 22.9951C17.7275 22.9902 9.77364 22.7677 1.85208 22.6024C1.72407 22.5999 1.62091 22.7204 1.55007 22.8646C1.44816 22.1251 1.33507 21.3842 1.28163 20.6633ZM1.50534 32.397C1.49167 32.3871 1.47924 32.3759 1.45811 32.3759H1.42704C1.71164 31.5766 1.75389 25.8254 1.75389 25.1753C1.75389 24.5837 1.68927 23.9746 1.61222 23.3655C1.61346 23.3643 1.61594 23.3618 1.61718 23.3606C9.57976 23.5271 17.5746 23.7509 25.5223 23.7534H25.5235H25.6118C25.5546 26.7154 25.7671 29.7097 25.8094 32.663C17.7872 32.5549 9.48034 33.6947 1.50534 32.397Z" fill="#1B708A"/>
<path d="M10.1492 17.8231C8.92627 17.3134 8.87656 16.866 8.7995 15.4763C8.75725 14.7069 8.63794 13.7274 8.03643 13.1731C8.80448 12.0569 8.37447 10.3055 8.9213 9.07995C10.097 8.67599 10.8414 7.29628 9.04061 7.04893C8.22658 6.93706 7.63501 7.73381 7.33177 8.35033C6.62835 9.77851 8.05383 11.8655 6.20456 12.7902C5.76585 13.0102 5.52102 13.2315 5.46385 13.7535C5.44769 13.9002 5.54961 14.0581 5.66643 14.1389C6.74766 14.8946 6.95893 15.3831 7.09315 16.7429C7.25844 18.4197 9.56134 20.5601 10.1815 18.0779C10.1964 18.0194 10.2337 17.8579 10.1492 17.8231ZM6.66936 13.7436C6.42453 13.5261 6.27664 13.4701 6.20828 13.4577C6.28782 13.4478 6.46803 13.3869 6.74517 13.1308C7.06829 12.8325 7.32059 12.6038 7.49209 12.1862C7.74687 11.5684 7.70834 10.8413 7.71704 10.1924C7.7245 9.63556 7.64246 9.24651 7.67726 8.63248C8.02773 8.35654 8.3782 8.07936 8.72867 7.80342C9.28047 8.21111 9.33764 8.41496 8.89893 8.41496C8.6715 8.45349 8.42916 9.04391 8.53355 9.1508C8.18557 10.3739 8.45898 12.431 7.61885 13.0314C7.50203 13.1147 7.17145 13.5932 7.38024 13.7187C9.22454 14.825 7.19258 17.9909 9.4992 18.5179C7.08694 17.9648 8.24771 15.1457 6.66936 13.7436Z" fill="#1B708A"/>
<path d="M13.9147 10.2769C13.7083 10.0544 13.4946 10.0544 13.3019 10.1576C12.775 10.2645 12.524 10.7841 12.5227 11.3185C12.5215 11.5858 12.5973 11.8207 12.8359 11.9612C13.0223 12.0705 13.466 12.0544 13.6288 11.9052C14.0576 11.5124 14.3621 10.7604 13.9147 10.2769Z" fill="#1B708A"/>
<path d="M13.7256 13.9699C13.4944 13.8182 13.2011 14.221 13.0955 14.3639C13.006 14.426 12.9128 14.528 12.8618 14.646C12.5412 15.3943 12.6418 16.1612 12.8071 16.9369C12.8395 17.0897 12.873 17.572 13.1489 17.5273C13.4223 17.4838 13.605 17.3271 13.7392 17.0848C13.907 16.7827 13.9803 16.4384 13.9952 16.0966C14.0139 15.6914 14.0798 15.2825 14.0773 14.8772C14.0748 14.5031 14.0549 14.1861 13.7256 13.9699ZM13.5317 15.8343C13.4907 16.1836 13.5416 16.5926 13.4223 16.9257C13.5019 16.7044 13.2608 16.1239 13.2235 15.8853C13.1663 15.5223 13.1203 15.1606 13.2135 14.8064C13.2359 14.7828 13.2558 14.7654 13.2806 14.7318C13.441 14.5155 13.569 15.2439 13.5715 15.2738C13.5802 15.4602 13.5528 15.6479 13.5317 15.8343Z" fill="#1B708A"/>
<path d="M21.1056 12.983C20.335 12.3702 19.7099 12.4684 19.4713 11.1161C19.3383 10.3666 19.3855 9.63321 19.3159 8.87624C19.2202 7.81971 18.5628 7.49778 17.6792 7.30138C17.6717 7.30014 17.668 7.29268 17.6581 7.29268C17.6556 7.29268 17.6518 7.29393 17.6494 7.29393C17.6009 7.28398 17.5561 7.27155 17.5064 7.26161C17.4145 7.24297 17.3213 7.31506 17.2405 7.41698C16.803 7.64072 16.4451 8.12921 16.6265 8.64007C16.7309 8.93217 16.6825 8.86132 16.9397 9.03534C17.8457 9.64688 17.8097 10.3852 17.8097 11.3821C17.8097 12.0272 17.7351 12.9868 18.3118 13.4206C18.1639 13.6294 18.052 13.8481 17.9774 14.1788C17.8954 14.5455 17.8979 14.9991 17.8942 15.3658C17.8842 16.7468 17.5015 17.4615 16.6327 18.528C16.5868 18.5839 16.2475 19.1122 16.46 19.1544C17.6195 19.3868 18.4969 19.1296 19.0972 18.0482C19.4439 17.4229 19.48 16.8189 19.516 16.1091C19.5409 15.602 19.475 15.0352 19.4812 14.5343C19.4887 13.9265 20.4121 13.9178 20.8048 13.7089C20.9651 13.6257 21.3193 13.1533 21.1056 12.983ZM19.1357 14.1204C18.5765 15.4752 19.7372 18.6746 17.2778 18.4757C17.617 18.1774 17.9364 17.8878 18.0992 17.3583C18.4572 16.1999 18.0209 14.3167 18.7741 13.4491C18.8399 13.3733 19.1519 12.9047 18.9468 12.8227C17.8656 12.3901 18.4746 10.6475 18.3565 9.83582C18.2745 9.26777 18.3354 9.43682 18.0607 8.93839C18.0011 8.83025 17.315 8.17023 17.3399 8.06706C18.8984 8.49464 18.7989 9.66055 18.8499 11.1832C18.8897 12.3553 19.4315 12.7742 20.166 13.3137C19.7323 13.4728 19.3209 13.6692 19.1357 14.1204Z" fill="#1B708A"/>
<path d="M12.638 26.1947C12.638 25.8019 12.766 25.24 12.4628 24.9368C12.3882 24.8622 12.1347 24.9082 11.8973 24.9629C11.8886 24.9641 11.8799 24.9641 11.8687 24.9691C11.7593 24.9939 11.6587 25.0188 11.5779 25.035C11.5593 25.0138 11.5319 25.0039 11.4822 25.0287C11.4561 25.0424 11.4288 25.0548 11.4027 25.0685C11.2709 25.1344 10.8434 25.8056 11.1491 25.8056C11.261 25.8056 11.3517 25.7857 11.4449 25.7658C11.4337 26.4781 11.3716 27.189 11.3716 27.9025C11.3716 28.6259 11.6699 30.3972 10.6209 30.2915C10.2245 30.2517 9.55214 29.6812 9.14078 30.028C8.85866 30.2666 8.71947 30.5264 8.63497 30.8894C8.61632 30.9714 8.58898 31.0845 8.66728 31.1454C9.92374 32.1286 12.5125 32.0603 12.7175 30.0988C12.8518 28.8099 12.638 27.4873 12.638 26.1947ZM11.0932 30.9453C11.6065 30.7054 11.8501 30.1113 11.8799 29.4314C11.9321 28.217 11.947 26.9864 11.9532 25.7658C12.2875 25.9461 12.1322 26.6558 12.1173 27.0287C12.0825 27.8503 12.1856 28.7191 12.2316 29.5432C12.2962 30.7166 11.8115 30.9764 11.0932 30.9453Z" fill="#1B708A"/>
<path d="M17.6206 28.458C17.3882 27.9583 16.5817 27.4723 16.1069 27.2225C16.0497 27.1926 15.2283 26.6308 15.5079 26.6059C15.7825 26.5811 16.3592 26.8309 16.6587 26.9167C16.8998 26.985 17.0962 26.5264 17.1148 26.3511C17.1509 26.0118 17.1148 25.6575 17.1148 25.317C17.1148 25.2275 17.0676 25.225 17.0042 25.2648C17.0104 25.1902 16.9955 25.1293 16.9446 25.1044C15.0766 24.1709 13.3007 25.8452 13.768 27.7445C13.8873 28.2305 14.6243 28.6419 15.0033 28.8582C15.2954 29.0248 15.5663 29.1702 15.8434 29.3579C16.7233 29.9582 15.5029 30.1335 15.0655 29.9632C14.4801 29.7358 13.8686 29.6376 13.6661 30.3821C13.466 31.1217 13.3964 31.8451 14.3061 31.8873C15.4022 31.9383 16.6127 31.5803 17.4106 30.8097C18.0419 30.2019 17.9475 29.1615 17.6206 28.458ZM14.3397 31.0521C14.0377 31.0011 14.1433 30.525 14.0687 30.525C14.7448 30.525 15.0729 30.9066 15.7888 30.8047C16.307 30.7301 16.5928 30.3398 16.7519 29.8911C16.9197 29.4213 16.5854 28.9241 16.2523 28.6208C15.8099 28.2181 15.1935 28.0329 14.7224 27.6575C13.8811 26.7874 14.0364 26.1038 15.1885 25.6041C15.611 25.5245 16.1715 25.6501 16.5394 25.8341C16.563 25.8452 16.5879 25.8428 16.614 25.839C16.6127 25.8452 16.609 25.8552 16.609 25.8614C16.609 25.9248 16.6127 25.9932 16.614 26.0603C15.7366 25.8427 14.889 25.803 14.889 27.041C14.889 27.7085 16.1442 28.2143 16.5655 28.5562C18.6907 30.2827 15.8285 31.2994 14.3397 31.0521Z" fill="#1B708A"/>
</svg>
