<svg width="23" height="23" viewBox="0 0 23 23" fill="none" xmlns="http://www.w3.org/2000/svg">
<path d="M11.5111 0C5.40234 0 0.451172 4.96717 0.451172 11.0941C0.451172 17.2217 5.40307 22.1882 11.5111 22.1882C17.6192 22.1882 22.5711 17.221 22.5711 11.0941C22.5711 4.96717 17.6199 0 11.5111 0ZM17.4629 10.5791C16.9224 12.9564 15.2565 14.5843 12.9989 14.5843C12.0684 14.5843 11.192 14.0964 10.8925 13.5418C10.8925 13.5418 10.3922 15.4686 10.2863 15.8422C9.91309 17.1573 8.81462 18.4738 8.72989 18.5807C8.67 18.6555 8.53854 18.632 8.52466 18.5324C8.50056 18.3654 8.22156 16.706 8.55022 15.3521C8.71529 14.6715 9.65965 10.7915 9.65965 10.7915C9.65965 10.7915 9.5238 10.5248 9.44273 10.0919C9.40914 9.91017 9.3843 9.69918 9.3843 9.4662C9.3843 8.22588 10.1256 7.30058 11.0481 7.30058C11.8318 7.30058 12.2108 7.87202 12.2108 8.55629C12.2108 8.95703 12.0728 9.46181 11.9048 10.0039C11.7514 10.497 11.5732 11.0208 11.4491 11.5263C11.2329 12.4143 11.9085 13.1381 12.8119 13.1381C14.0784 13.1381 15.0249 11.911 15.385 10.2333C15.4895 9.749 15.5442 9.2281 15.5442 8.68816C15.5442 6.85441 14.2712 5.48074 11.9567 5.48074C9.34267 5.48074 7.71103 7.37457 7.71103 9.48965C7.71103 9.78123 7.74828 10.0369 7.81255 10.2662C7.91042 10.6106 8.07183 10.8926 8.28072 11.1307C8.44067 11.3139 8.46112 11.3871 8.40488 11.5967C8.36252 11.7527 8.2683 12.122 8.22813 12.2692C8.17116 12.4824 7.99441 12.5571 7.79575 12.4795C6.96021 12.1469 6.43435 11.4274 6.19114 10.5366C6.08377 10.1446 6.03045 9.72116 6.03045 9.28158C6.03045 6.90423 8.09666 4.0536 12.1926 4.05286C15.4858 4.05286 17.6521 6.36502 17.6521 8.84787C17.6513 9.45668 17.5871 10.0369 17.4629 10.5791Z" fill="#1B708A"/>
</svg>
