<svg width="23" height="23" viewBox="0 0 23 23" fill="none" xmlns="http://www.w3.org/2000/svg">
<path d="M8.86236 11.6714H6.53687V14.0158H9.33856C9.85347 14.0158 10.2632 13.407 10.2632 12.8897C10.2632 11.8963 9.37727 11.6714 8.86236 11.6714Z" fill="#1B708A"/>
<path d="M9.80088 9.33937C9.80088 8.82287 9.37727 8.39941 8.86236 8.39941H6.53687V10.2808H8.86236C9.37727 10.2801 9.80088 9.85587 9.80088 9.33937Z" fill="#1B708A"/>
<path d="M11.7375 0C5.62865 0 0.67749 4.96717 0.67749 11.0941C0.67749 17.2217 5.62938 22.1882 11.7375 22.1882C17.8455 22.1882 22.7974 17.2217 22.7974 11.0941C22.7974 4.96717 17.8455 0 11.7375 0ZM14.0023 6.99507H18.191V8.39951H14.0023V6.99507ZM9.33747 15.884H4.67333V6.53059H9.33747C10.6193 6.53059 11.663 7.57751 11.663 8.87571C11.663 9.71017 11.2138 10.4516 10.5535 10.8626C11.465 11.1805 12.1392 12.0546 12.1392 13.0751C12.1392 14.6261 10.8705 15.884 9.33747 15.884ZM14.4646 12.6121C14.5304 13.6583 15.2177 14.4803 16.1036 14.4803C16.9749 14.4803 17.4643 13.8971 17.6359 13.0758H19.5254C19.2084 14.6788 18.2041 15.884 16.1036 15.884C13.9892 15.884 12.6015 14.3213 12.6015 12.3732C12.6015 10.4391 13.9892 8.87644 16.1036 8.87644C18.2041 8.87644 19.5918 10.4391 19.5918 12.3732C19.5918 12.4531 19.5918 12.5322 19.5918 12.6121H14.4646Z" fill="#1B708A"/>
<path d="M16.1036 10.2803C15.2841 10.2803 14.6633 10.8363 14.5566 11.6715H17.6359C17.5029 10.8503 16.9092 10.2803 16.1036 10.2803Z" fill="#1B708A"/>
</svg>
