<svg width="33" height="34" viewBox="0 0 33 34" fill="none" xmlns="http://www.w3.org/2000/svg">
<path d="M32.022 5.22277C31.9971 4.85112 32.1761 3.90024 31.8666 3.59074C31.8144 3.53853 31.7175 3.59944 31.6268 3.70509C31.6131 3.6591 31.5895 3.62305 31.5385 3.61684C27.8077 3.0836 23.7674 3.40678 19.998 3.40678C19.9445 3.40678 19.8886 3.44531 19.8364 3.49876C19.8936 2.61003 19.947 1.65294 19.7047 0.925796C19.6873 0.893478 19.6599 0.878562 19.6226 0.879805C18.3339 0.725676 16.7704 1.20298 15.4904 1.37824C13.6635 1.62932 11.8415 1.89532 10.032 2.25205C7.19844 2.81015 4.18344 3.53232 1.28897 3.58079C1.12865 3.58328 0.944707 3.88657 0.896238 4.10782C0.891267 4.12397 0.882567 4.14262 0.880082 4.15629C0.614124 6.2793 0.707345 8.42592 0.565667 10.5564C0.421503 12.7154 0.277342 14.8844 0.335753 17.0497C0.397893 19.3604 0.25 21.7071 0.25 24.024C0.25 26.1545 0.599213 28.2837 0.599213 30.3918C0.599213 30.5372 0.71853 30.4651 0.841567 30.3272C0.858966 30.3421 0.880085 30.3508 0.907427 30.3545C3.53718 30.7299 6.23901 30.5832 8.88118 30.9139C10.4881 31.1152 12.0615 31.4943 13.6721 31.6833C14.7397 31.8088 15.7513 32.0673 16.7878 32.342C17.3533 32.4924 18.0207 32.9983 18.5837 33.0107C18.6508 33.1462 19.0075 32.7982 19.0634 32.5944C19.2138 32.0524 19.1516 31.5266 19.1516 30.9636C19.1516 30.7871 19.1454 30.6081 19.1442 30.4303C21.0804 30.5621 23.0726 30.4651 25.0114 30.4577C26.9191 30.4502 29.299 30.7734 31.157 30.3209C31.1881 30.3135 31.2253 30.2849 31.2639 30.2501C31.2639 30.275 31.2689 30.2986 31.2689 30.3222C31.2689 30.3806 31.3099 30.4254 31.367 30.4254H31.4018C31.6529 30.4254 31.971 29.6721 31.7125 29.6721C31.3583 29.6721 31.7759 18.049 31.7759 16.9043C31.7759 16.8844 31.7684 16.8782 31.7647 16.8657C32.1736 14.1971 31.8381 11.4115 31.9412 8.71677C31.9859 7.58939 32.0965 6.35139 32.022 5.22277ZM18.5762 20.9924V26.7549C18.5762 27.9494 18.5576 29.1451 18.5638 30.3408C18.5663 30.9375 18.7055 31.6062 18.6781 32.2339C18.0157 32.1121 17.0327 31.5652 16.4635 31.4148C15.8147 31.2432 15.2418 31.063 14.5781 31.0009C12.9339 30.8467 11.327 30.4664 9.70018 30.2004C8.91473 30.0724 1.31755 29.7243 1.31755 29.5652C1.31755 29.4297 1.2144 29.4857 1.10006 29.6038C1.08017 27.9755 0.867654 26.28 0.775687 24.6505C0.635252 22.1757 0.724745 19.6413 0.857724 17.1703C1.0864 12.9131 0.861449 8.56513 1.32874 4.31664C5.17021 4.18861 9.04524 3.0488 12.8333 2.46336C14.9162 2.14143 17.0041 1.86797 19.0932 1.60695C19.4064 1.56841 19.1355 8.34761 19.1342 8.91938C19.1293 12.9578 18.5762 16.9515 18.5762 20.9924ZM19.0833 26.2067C19.0833 23.1676 18.8919 20.0428 19.1442 17.0124C19.3629 14.3922 19.6375 11.7285 19.6425 9.09215C19.6438 7.91257 19.7295 6.73547 19.7656 5.55713C23.1845 5.60933 26.6432 5.06739 30.0472 5.4813C30.0509 11.0933 30.389 16.7352 30.0584 22.3423C30.0286 22.4256 30.0111 22.4939 30.0111 22.5225C30.036 24.5225 29.9863 26.5112 29.9801 28.5074C27.8015 28.4528 19.4685 28.1868 19.4685 28.5149C19.4685 28.3272 19.2697 28.5 19.1206 28.7125C19.1019 27.8773 19.0833 27.0407 19.0833 26.2067ZM31.2241 29.61C29.5612 29.9381 27.6846 29.564 26.0044 29.6858C23.8519 29.8436 21.4906 29.8287 19.3343 29.6721C19.2697 29.6671 19.2001 29.7181 19.1355 29.7927C19.1317 29.5951 19.1305 29.3987 19.1268 29.1998C20.6716 29.1898 22.4102 28.8455 23.9202 29.0966C25.9037 29.4273 28.1345 29.2719 30.1454 29.2719C30.3964 29.2719 30.7146 28.5186 30.4561 28.5186C30.4486 28.5186 30.4362 28.5186 30.4275 28.5186C30.461 28.4515 30.4846 28.3881 30.4846 28.3421C30.4846 26.3235 30.5368 24.3149 30.5194 22.2951C30.5393 22.254 30.553 22.218 30.5542 22.1906C30.9109 16.4891 30.5654 10.7789 30.5567 5.07361C30.5952 4.95553 30.6039 4.84366 30.5406 4.78027C30.5294 4.76908 30.517 4.75665 30.5058 4.74546C30.4697 4.70942 30.4312 4.71439 30.3927 4.73303C26.9402 4.30669 23.4318 4.87225 19.9644 4.80513C19.9346 4.76659 19.8774 4.77529 19.7817 4.85982C19.7817 4.79394 19.7854 4.72682 19.7854 4.66094C19.7854 4.50184 19.7917 4.33279 19.8004 4.15878C23.5374 4.15256 27.5355 3.84182 31.2316 4.37008C31.2937 4.37878 31.3645 4.33031 31.4304 4.25697C31.4379 4.28183 31.4453 4.30793 31.464 4.32534C31.7958 4.65721 31.4975 6.40981 31.4851 6.85106C31.4553 7.8529 31.4143 8.86096 31.4143 9.86404C31.4143 12.3388 31.6454 15.0137 31.2403 17.4487C31.2241 17.5444 31.2415 17.5829 31.2738 17.5916C31.2738 19.6214 31.2626 21.732 31.1881 23.7618C31.1508 24.7686 31.0116 25.7766 30.9606 26.7872C30.9084 27.7343 31.1297 28.6653 31.2241 29.61Z" fill="#1B708A"/>
<path d="M5.42969 17.8949C4.05391 17.3903 3.77801 15.7955 5.45578 15.3157C5.80128 15.2175 6.50595 15.3307 6.77439 15.1231C7.27648 14.7353 7.26653 14.0554 7.19445 13.4761C7.19321 13.4687 7.18947 13.4674 7.18823 13.4612C7.20811 13.3456 7.18947 13.2499 7.09626 13.2338C4.83065 12.8211 3.11311 13.6713 2.57871 15.9422C2.31027 17.082 2.35501 18.2815 3.01867 19.2709C3.68232 20.2591 5.02578 20.233 6.08588 20.2044C6.61904 20.1895 7.18077 19.7718 7.1236 19.1777C7.10496 18.9887 7.1497 18.2852 6.96825 18.1398C6.5892 17.8365 5.9007 18.0677 5.42969 17.8949ZM6.39533 19.4499C5.42595 19.6388 4.1235 19.3641 3.49216 18.6084C2.61848 17.563 2.6595 14.9516 3.99675 14.2505C4.8667 13.7943 5.76026 13.8142 6.69235 13.9746C6.68987 13.9907 6.68491 14.0106 6.68615 14.0243C6.68739 14.1461 6.68615 14.2679 6.68615 14.3897C6.63644 14.3935 6.57802 14.4022 6.49972 14.4233C6.1418 14.4233 5.69439 14.5439 5.36381 14.6781C4.75732 14.9255 4.31738 15.2113 3.99549 15.7906C3.69225 16.3375 3.71712 16.8471 3.77429 17.4524C3.8501 18.2566 4.64175 18.4903 5.28427 18.7265C5.59124 18.8396 5.97527 18.7799 6.29467 18.7799C6.59294 18.7787 6.75822 19.3803 6.39533 19.4499Z" fill="#1B708A"/>
<path d="M11.388 16.1859C10.9767 15.8142 10.1514 15.5358 9.72391 15.0684C10.1527 15.0312 10.7902 15.107 10.9456 15.107C11.0649 15.107 11.1991 14.9628 11.2799 14.7975C11.3868 14.7527 11.5197 14.6259 11.5831 14.4706C11.9659 13.5147 11.9846 13.2301 10.8536 13.0461C9.82459 12.8796 8.62281 13.2475 8.06728 14.1835C7.58632 14.9951 7.49683 16.0964 8.0449 16.8944C8.43887 17.4674 9.25166 17.5581 9.8134 17.895C10.3615 18.2231 9.27776 18.1336 9.26285 18.1299C8.85522 18.0541 8.43638 17.9161 8.02129 17.8714C7.8038 17.8477 7.63602 18.2927 7.61365 18.4469C7.50429 19.1877 7.29799 20.008 8.15303 20.2106C8.87758 20.3822 10.5566 20.2703 11.0972 19.6041C11.5533 19.0422 12.2095 18.3462 12.1275 17.5407C12.0653 16.9379 11.8342 16.5886 11.388 16.1859ZM10.6051 19.266C9.84199 19.4897 9.00807 19.5842 8.22759 19.399C8.04118 19.3542 8.02006 19.0099 8.04118 18.6768C9.07394 18.8633 10.8437 19.3294 10.6548 17.7085C10.5553 16.8559 8.8229 16.6731 8.36555 16.0069C7.57638 14.8596 8.82787 13.8578 9.87057 13.7807C10.3379 13.7459 11.2923 13.7148 11.2178 14.314C11.1917 14.3152 11.1618 14.3251 11.1308 14.3475C10.6013 14.3239 9.71024 14.1835 9.33616 14.5862C9.13732 14.8012 8.77567 15.3655 9.12241 15.6427C9.61828 16.038 10.1626 16.3524 10.6871 16.7055C10.9854 16.8969 11.2414 17.1355 11.4539 17.4214C12.0156 18.1113 11.1929 19.0945 10.6051 19.266Z" fill="#1B708A"/>
<path d="M16.5379 16.0094C16.216 15.7136 15.781 15.5035 15.4082 15.281C15.223 15.1704 14.0486 14.9479 15.0018 14.897C15.4591 14.8721 16.1998 15.3618 16.5329 14.8883C16.8448 14.4458 16.9766 13.879 17.1071 13.3594C17.1655 13.1257 17.0909 13.0971 16.9865 13.1543C16.9803 13.1506 16.9778 13.1406 16.9704 13.1394C15.5822 12.8622 12.7275 13.3097 12.5274 15.1393C12.3969 16.3376 13.022 16.8447 14.0461 17.3705C14.2698 17.4861 15.8668 18.2381 14.6501 18.3698C14.0983 18.4295 13.5465 18.253 13.0021 18.3189C12.7933 18.3437 12.6666 18.6396 12.6107 18.8074C12.5286 19.0547 12.4404 19.3207 12.423 19.5817C12.4193 19.6377 12.4155 19.716 12.4727 19.7495C14.4636 20.944 17.5681 20.105 17.5023 17.5047C17.4849 16.9019 16.953 16.3898 16.5379 16.0094ZM15.3473 19.4413C14.5494 19.491 13.8733 19.3692 13.1227 19.1181C12.9188 19.0498 12.8667 19.317 12.9474 19.1206C12.9549 19.102 12.9574 19.0808 12.9636 19.0609C13.677 19.0336 14.3592 19.189 15.0838 18.964C15.4218 18.8583 15.9376 18.2294 15.8357 17.8478C15.6108 17.0026 14.5134 16.698 13.8236 16.2854C12.1906 15.3109 13.4098 14.2432 14.6016 13.9734C15.2043 13.8367 15.9451 13.7522 16.5515 13.8703C16.4993 14.0381 16.4434 14.2059 16.3925 14.3675C16.4211 14.2755 15.6195 14.1673 15.699 14.181C15.1882 14.094 14.7967 14.1474 14.399 14.4744C13.9218 14.8659 13.7727 15.5321 14.4177 15.7981C15.0378 16.0542 15.5933 16.3301 16.134 16.7415C17.4513 17.7471 17.0611 19.3344 15.3473 19.4413Z" fill="#1B708A"/>
<path d="M23.2628 21.0781C23.1733 20.8233 22.7234 20.4442 22.634 20.3087C22.1281 19.5505 22.1368 19.1341 22.0909 18.2677C22.061 17.696 21.8846 17.164 21.5639 16.7103C22.5718 15.6289 21.5291 13.0485 22.7819 12.1461C22.844 12.1013 22.9111 11.9833 22.9621 11.8565C23.1211 11.6501 23.2206 11.3195 23.0901 11.2847C21.846 10.9491 21.1215 11.5271 20.7126 12.6681C20.5038 13.2486 20.5138 13.9124 20.5063 14.5214C20.5013 14.9291 20.5908 15.3194 20.5709 15.7333C20.561 15.9434 19.7843 15.8564 19.6848 15.8564C19.4487 15.8564 19.1504 16.4244 19.3257 16.5997L19.3306 16.6046C19.2896 16.7488 19.2996 16.8756 19.4089 16.8893C21.5813 17.1603 19.7457 23.1837 22.9285 21.7692C23.1385 21.676 23.3411 21.3018 23.2628 21.0781ZM20.4255 16.4716C20.6878 16.3486 20.8816 16.1149 21.0196 15.6625C21.37 14.5177 20.4181 11.7583 22.2624 11.9385C21.9554 12.1871 21.6745 12.4842 21.6012 12.8471C21.4757 13.4699 21.7528 16.1671 21.165 16.3623C20.9674 16.4281 20.6878 16.9129 20.8642 17.0894C21.6646 17.8899 21.3576 18.8457 21.6348 19.8165C21.8001 20.397 22.194 20.7761 22.4948 21.2012C20.8965 21.2534 21.6223 17.6264 20.4255 16.4716Z" fill="#1B708A"/>
<path d="M29.3834 16.3561C27.0209 15.6812 29.9576 10.9889 26.1174 11.4153C26.0018 11.4277 25.8812 11.5893 25.8029 11.7583C25.6327 11.9547 25.5084 12.3065 25.6538 12.3686C27.1663 13.0224 26.7238 14.2704 26.7972 15.5892C26.8307 16.192 26.8059 16.0317 26.9848 16.5997C27.0408 16.7787 27.0755 16.8831 27.1041 16.9565C26.2441 18.0453 27.3999 20.4107 25.8166 21.2945C25.6886 21.3665 25.2449 21.9992 25.5631 22.0315C29.1137 22.387 27.1439 18.4493 29.146 17.0435C29.2306 16.9826 29.6121 16.4207 29.3834 16.3561ZM27.8821 17.6525C27.5254 18.8967 27.943 20.8979 26.5871 21.241C27.5963 20.0303 27.0929 18.463 27.7392 16.8483C27.7827 16.7402 27.8337 16.5898 27.7405 16.4966C26.5312 15.2871 27.8424 13.4687 26.9376 12.2804C28.4638 12.9292 27.0296 15.8577 28.4849 16.857C28.2189 17.0348 27.9965 17.2523 27.8821 17.6525Z" fill="#1B708A"/>
</svg>
