<svg width="23" height="23" viewBox="0 0 23 23" fill="none" xmlns="http://www.w3.org/2000/svg">
<path d="M11.2863 0.0930176C5.17748 0.0930176 0.226318 5.06019 0.226318 11.1871C0.226318 17.3148 5.17821 22.2812 11.2863 22.2812C17.3951 22.2812 22.3462 17.314 22.3462 11.1871C22.3462 5.06019 17.3944 0.0930176 11.2863 0.0930176ZM16.7304 8.56579C16.7356 8.68008 16.7378 8.79656 16.7378 8.91158C16.7378 9.44347 16.6749 9.98707 16.5537 10.527C15.8672 13.5806 13.2641 16.5243 9.02798 16.5243C7.49932 16.5243 6.07438 16.081 4.87365 15.322C5.08692 15.3469 5.30165 15.3594 5.52076 15.3594C6.79087 15.3594 7.95873 14.9315 8.88629 14.2136C7.70091 14.1923 6.7003 13.4179 6.35484 12.3556C6.52063 12.3871 6.69081 12.404 6.86464 12.404C7.11296 12.404 7.35179 12.3703 7.57967 12.3102C6.66744 12.1285 5.92246 11.4948 5.59087 10.6552C5.47182 10.3541 5.40536 10.0281 5.40536 9.68523C5.40536 9.67424 5.40536 9.66325 5.40536 9.65153C5.77054 9.85154 6.18904 9.97242 6.63311 9.98634C5.90712 9.50647 5.42727 8.6874 5.42727 7.7599C5.42727 7.26978 5.56166 6.80969 5.79465 6.41481C7.13049 8.03317 9.12732 9.09914 11.379 9.21049C11.3338 9.01415 11.3097 8.81048 11.3097 8.60095C11.3097 7.12399 12.5228 5.92542 14.0186 5.92542C14.7979 5.92542 15.502 6.2507 15.9957 6.77013C16.6129 6.64998 17.1935 6.42726 17.7172 6.1203C17.5141 6.74595 17.0854 7.26978 16.5252 7.60092C17.0737 7.53645 17.5959 7.39286 18.0809 7.1804C17.7186 7.71741 17.2592 8.18849 16.7304 8.56579Z" fill="#1B708A"/>
</svg>
