<svg width="23" height="23" viewBox="0 0 23 23" fill="none" xmlns="http://www.w3.org/2000/svg">
<path d="M11.06 0.0930176C4.95117 0.0930176 0 5.06019 0 11.1871C0 17.3148 4.95117 22.2819 11.06 22.2819C17.168 22.2819 22.1199 17.3148 22.1199 11.1871C22.1199 5.06019 17.168 0.0930176 11.06 0.0930176ZM8.32474 9.95484V16.9082H5.26742V10.4721V8.14673H8.32474V9.95484ZM6.79608 6.83314C5.95177 6.83314 5.26742 6.14667 5.26742 5.29976C5.26742 4.45285 5.9525 3.76638 6.79608 3.76638C7.63965 3.76638 8.32474 4.45285 8.32474 5.29976C8.32474 6.1474 7.64038 6.83314 6.79608 6.83314ZM18.3688 12.0941V16.9082H15.7482V12.6399C15.7482 11.6216 15.6365 10.3124 14.2451 10.3124C12.8333 10.3124 12.6171 11.4208 12.6171 12.5666V16.9089H10.0718V9.82883V8.14819H12.5068V9.33064H12.5448C12.9071 8.64051 13.7937 8.14819 15.1135 8.14819C17.3389 8.14819 18.0956 9.18705 18.3023 10.8384C18.3505 11.2245 18.3688 11.645 18.3688 12.0941Z" fill="#1B708A"/>
</svg>
