<svg width="42" height="36" viewBox="0 0 42 36" fill="none" xmlns="http://www.w3.org/2000/svg">
<path d="M15.0198 11.7183C13.8553 11.7183 12.6834 11.9159 11.5164 11.988C11.4132 11.9942 11.3051 12.121 11.2256 12.2689C11.0727 12.4591 10.9559 12.7698 11.0901 12.8668C11.5027 13.1638 11.5189 14.0973 11.6407 14.5547C11.7401 14.9326 11.9824 15.3005 12.0831 15.6461C12.1005 15.6784 12.1278 15.6933 12.1651 15.6921C12.6051 15.7107 13.04 14.7486 13.2737 14.464C13.8342 13.7791 14.3276 13.0234 14.8955 12.3559C14.9552 12.2826 15.2994 11.7183 15.0198 11.7183ZM12.6411 14.7375C12.5976 14.7462 12.5703 14.7797 12.5591 14.8381C12.5305 14.8779 12.5218 14.8928 12.5094 14.9127C12.5094 14.9053 12.5143 14.8966 12.5081 14.8941C12.3018 14.781 12.1365 13.9618 12.0868 13.7741C12.0085 13.4783 11.9712 13.0495 11.8519 12.6865C12.6771 12.6107 13.5061 12.5113 14.3313 12.4839C14.217 12.6418 14.1026 12.7997 13.9871 12.9575C13.5782 13.5144 12.8946 14.0861 12.6411 14.7375Z" fill="#1B708A"/>
<path d="M23.1864 9.06824C22.8434 8.61829 22.3276 8.3237 21.915 7.94584C21.5335 7.59656 21.3918 7.00366 20.8239 7.28706C20.5977 7.40017 20.5243 7.69351 20.359 7.86007C20.0757 8.14347 19.7849 8.41319 19.4816 8.67546C19.3163 8.8184 18.9062 9.28328 18.6589 9.29198C18.5881 9.29446 18.5147 9.35786 18.4489 9.44362C18.245 9.64126 18.0847 10.1297 18.2811 10.1123C19.6333 9.99675 20.978 10.0912 22.3338 10.1161C22.8421 10.126 23.6288 9.64996 23.1864 9.06824ZM21.2128 9.31808C20.6237 9.28949 20.0384 9.29446 19.453 9.31684C19.5835 9.18757 19.7053 9.06576 19.8147 8.97751C20.1589 8.70156 20.502 8.37963 20.7381 8.00053C21.0351 8.07386 21.5534 8.72145 21.705 8.86191C21.8628 9.00609 22.217 9.20994 22.4792 9.43492C21.9983 9.42498 21.357 9.32554 21.2128 9.31808Z" fill="#1B708A"/>
<path d="M29.8401 11.9196C29.0074 11.9196 28.1835 11.6722 27.3471 11.6498C27.311 11.6486 27.275 11.666 27.2377 11.6921C27.101 11.7418 26.8313 12.0774 26.804 12.2253C26.7605 12.4603 26.9183 12.5933 27.0687 12.7623C27.4241 13.1576 27.6143 13.6635 27.828 14.1408C27.997 14.5186 28.2618 14.9052 28.5041 15.2371C28.7042 15.5118 28.7837 15.861 29.0099 16.0985C29.0708 16.1631 29.2125 16.0239 29.2436 15.9903C29.5841 15.6274 29.7357 15.1538 29.8525 14.6765C30.0315 13.9531 30.3807 13.2719 30.5149 12.5324C30.6081 12.0265 30.3099 11.9196 29.8401 11.9196ZM29.558 14.3073C29.4685 14.5286 29.4287 14.935 29.3206 15.2271C29.2025 15.0258 29.1156 14.7473 28.9789 14.5758C28.7639 14.3048 28.5774 13.9705 28.3997 13.6709C28.2158 13.3627 28.1027 13.0059 27.9424 12.6852C27.92 12.6405 27.8554 12.5572 27.7771 12.4615C28.4755 12.5448 29.1678 12.689 29.8674 12.7325C30.1607 12.7511 29.5853 14.2402 29.558 14.3073Z" fill="#1B708A"/>
<path d="M14.8996 23.217C14.5317 22.547 14.0843 21.9392 13.7425 21.2531C13.4269 20.6204 12.9335 19.7976 12.8278 19.0978C12.7906 18.8517 12.4973 19.1649 12.3742 19.4297C12.0126 19.8572 11.7305 20.3432 11.4769 20.8355C11.1501 21.4706 10.7835 22.153 10.7039 22.8715C10.6368 23.4867 11.4384 23.2792 11.815 23.3687C12.6986 23.5787 13.617 23.5539 14.4596 23.9156C14.6995 24.0187 15.0002 23.3997 14.8996 23.217ZM11.631 22.5533C10.8792 22.5669 11.5863 21.4557 11.733 21.1189C11.8858 20.7659 12.1592 20.2898 12.4103 19.9778C12.588 20.5707 12.9484 21.1077 13.1671 21.6894C13.3274 22.117 13.5611 22.5035 13.8059 22.8839C13.6754 22.859 13.5425 22.8354 13.4033 22.8093C12.8465 22.7049 12.2002 22.5433 11.631 22.5533Z" fill="#1B708A"/>
<path d="M30.4616 21.5329C30.3448 21.196 30.1348 20.8555 29.9906 20.5223C29.829 20.1519 29.6973 19.7703 29.4512 19.4447C29.3071 19.2533 29.0486 19.6883 29.0113 19.7915C28.5328 21.1277 27.8928 22.2041 26.8936 23.2233C26.8041 23.3141 26.7283 23.5241 26.7146 23.6783C26.6736 23.8249 26.6786 23.943 26.7693 23.9269C27.7163 23.7628 28.585 23.4197 29.5581 23.3886C30.0913 23.3712 30.5548 23.5565 30.8581 23.0095C31.1451 22.4875 30.6281 22.0114 30.4616 21.5329ZM29.1666 22.7C28.6173 22.7883 28.0866 22.9387 27.5485 23.0642C28.2246 22.2501 28.7466 21.3676 29.1579 20.3893C29.4015 20.8033 29.5668 21.2768 29.7184 21.7243C29.8203 22.0251 30.0515 22.3309 30.2292 22.6416C30.2267 22.6416 30.2205 22.6404 30.2193 22.6404C29.8688 22.6093 29.5121 22.6441 29.1666 22.7Z" fill="#1B708A"/>
<path d="M23.3057 25.2604C22.5911 25.2604 21.8802 25.1933 21.1693 25.1933C20.4025 25.1933 19.6867 25.1062 18.9261 25.059C18.8764 25.0553 18.8242 25.0901 18.772 25.1373C18.7484 25.115 18.7297 25.0913 18.7049 25.069C18.5445 24.9285 18.0897 25.6208 18.2985 25.8036C18.7459 26.1951 19.1597 26.6761 19.4182 27.2081C19.5313 27.4406 19.7389 27.5512 19.9402 27.6904C20.2782 27.9216 20.5044 28.2821 20.7567 28.5978C20.7977 28.6487 20.8363 28.6525 20.8959 28.6264C21.3421 28.4325 21.6888 27.9614 21.9647 27.5698C22.2841 27.1174 22.6681 26.2883 23.1155 25.9577C23.21 25.8881 23.6015 25.2604 23.3057 25.2604ZM21.2377 27.8159C21.2576 27.7898 19.8917 26.5419 19.8942 26.5444C19.7153 26.3182 19.5624 26.0932 19.4045 25.8719C19.883 25.9105 20.359 25.9465 20.8611 25.9465C21.4403 25.9465 22.0206 25.985 22.6023 26.0012C22.473 26.2013 22.3475 26.4076 22.1959 26.5904C21.8665 26.9881 21.5521 27.4082 21.2377 27.8159Z" fill="#1B708A"/>
<path d="M28.3737 17.6921C27.5125 15.5392 25.9304 13.6424 24.6292 11.7233C24.2303 11.1341 22.9465 11.4486 22.3636 11.4486C20.61 11.4486 18.8614 11.4573 17.109 11.3815C16.9413 11.374 16.7412 11.7146 16.7089 11.9408C15.2188 13.1701 13.6951 15.7282 13.2154 17.4957C12.9706 18.3968 13.7361 19.0382 14.0903 19.7703C14.6806 20.9934 15.5692 22.3147 16.4479 23.3414C17.3899 24.4402 19.3287 24.1617 20.6759 24.4327C21.3109 24.5607 23.3354 24.9399 23.9258 24.475C25.9279 22.8976 26.5332 20.0997 28.1674 18.2825C28.2905 18.1457 28.4508 17.886 28.3737 17.6921ZM25.3463 21.9542C24.7423 22.8914 24.2191 23.846 22.944 23.846C21.5545 23.846 20.221 23.4955 18.8552 23.2842C16.3249 22.8939 15.8787 20.9748 14.5638 19.1078C13.8467 18.0898 13.5969 17.1874 14.2792 16.0215C14.9553 14.8668 15.7967 13.1452 16.9202 12.3485C16.9686 12.3149 17.0208 12.2354 17.0656 12.1434C18.2798 12.1906 19.4902 12.2031 20.7069 12.2031C21.644 12.2031 23.7605 11.8053 24.3931 12.7363C25.5812 14.4877 26.9818 16.2017 27.8107 18.1532C27.6107 18.449 27.4491 18.7598 27.2515 19.0842C26.65 20.0674 25.9652 20.9946 25.3463 21.9542Z" fill="#1B708A"/>
<path d="M20.4087 13.6722C20.3167 13.6809 20.2198 13.7841 20.144 13.9121C19.3424 13.9246 18.7583 14.1073 18.112 14.8916C17.5229 15.6051 17.1575 16.6392 17.073 17.5503C16.8419 20.0499 19.0553 21.8199 21.4464 21.4819C23.3665 21.2109 24.3334 19.0792 24.5397 17.4061C24.8181 15.1588 22.4357 13.4932 20.4087 13.6722ZM22.3077 20.5235C20.7989 21.1773 19.018 20.5521 18.1244 19.2246C17.5428 18.3607 17.5254 17.4248 17.728 16.4292C18.1244 14.4802 19.3498 14.6157 20.7728 14.694C20.8648 14.6989 20.9704 14.5958 21.0512 14.464C21.8802 14.6094 22.5749 15.0519 23.2174 15.6958C24.5981 17.078 24.1209 19.738 22.3077 20.5235Z" fill="#1B708A"/>
<path d="M19.6655 5.55554C19.3337 5.01112 18.4811 4.75382 17.9641 4.38217C17.1513 3.79797 16.2292 3.41389 15.404 2.83218C14.1164 1.92605 12.2448 1.73836 10.92 2.56991C10.2178 3.00993 10.1072 4.05278 10.0301 4.77993C9.80641 6.90169 9.92075 8.83452 10.0972 10.9525C10.1146 11.1626 10.3408 10.9501 10.485 10.7176C10.4353 10.8892 10.444 11.0296 10.5894 10.9712C12.2659 10.3 14.3525 10.4119 16.1235 10.1794C16.3273 10.1521 16.4653 9.86121 16.515 9.69093C16.9028 8.35721 18.3283 7.02847 19.3933 6.20562C19.5325 6.09997 19.7798 5.74323 19.6655 5.55554ZM16.2143 9.45103C14.4458 9.65612 12.4287 9.59522 10.7857 10.2515C10.7224 10.2764 10.654 10.3621 10.5956 10.4641C10.5993 10.4442 10.6055 10.4218 10.6043 10.4044C10.5235 9.4386 10.5223 8.52874 10.3346 7.57414C10.1805 6.79231 10.3632 5.81284 10.4688 5.02106C10.6702 3.50712 11.0281 2.76879 12.599 2.78122C13.7784 2.78992 14.8845 3.48723 15.8066 4.13606C16.6281 4.71405 18.2413 5.15779 18.9807 5.95827C17.8734 6.89174 16.7512 8.12726 16.2143 9.45103Z" fill="#1B708A"/>
<path d="M30.9323 2.46561C30.0139 1.08342 27.7508 2.47183 26.8187 2.95037C25.3957 3.68124 23.2842 4.45562 22.244 5.70481C22.2228 5.72967 22.203 5.76447 22.1831 5.80425C21.942 5.88131 21.6723 6.54257 21.9171 6.54257C22.6081 6.54257 23.273 7.972 23.6048 8.54004C23.9802 9.18266 24.7967 10.1733 25.3472 10.6009C25.812 10.9626 26.5801 10.9191 27.1468 10.9477C28.3424 11.0061 29.523 10.9937 30.7173 11.1577C30.8429 11.1751 30.9808 10.9502 31.0268 10.8669C31.7252 9.59781 31.5363 7.90861 31.8073 6.52642C32.0794 5.13801 31.7004 3.62034 30.9323 2.46561ZM31.0492 8.92536C30.8839 10.2703 31.1971 10.4244 30.0761 10.2777C29.3975 10.1895 28.7028 10.2305 28.0217 10.1683C26.759 10.054 26.1227 10.2715 25.2068 9.20254C24.6202 8.51766 23.9653 7.88002 23.5899 7.04598C23.4458 6.72529 23.0108 6.17465 22.6069 5.92233C23.2419 5.37418 24.179 5.00128 24.8725 4.63833C26.1053 3.99323 27.3506 3.02868 28.7214 2.73534C32.0148 2.03057 31.2716 7.1131 31.0492 8.92536Z" fill="#1B708A"/>
<path d="M39.0906 17.0171C38.5761 15.5964 37.3234 14.9811 36.0458 14.3298C34.9596 13.7767 33.6721 13.1229 32.5175 12.7375C32.3634 12.6866 32.1782 12.9302 32.0937 13.1515C32.0937 13.1527 32.0925 13.1527 32.0925 13.1539C31.3729 14.5399 31.1119 16.1197 30.273 17.4658C29.7461 18.3123 30.3712 18.5945 30.8087 19.4322C31.1778 20.137 31.614 22.6789 32.3795 22.8367C33.1091 22.9871 35.0168 21.82 35.7438 21.5154C37.2749 20.8766 39.8338 19.0705 39.0906 17.0171ZM37.3967 19.8871C36.3838 20.5223 35.5375 20.9387 34.4326 21.37C33.6248 21.6845 32.6679 22.5272 32.3149 21.3986C31.9744 20.3085 31.5307 19.2433 31.0013 18.2315C30.7316 18.091 30.5912 17.8934 30.5812 17.6374C30.9901 16.9488 31.0001 16.7797 31.4487 15.9531C31.865 15.1837 31.9607 14.336 32.3075 13.5492C33.7379 14.0563 35.1696 14.8755 36.5479 15.5019C38.0765 16.1968 39.9382 18.2924 37.3967 19.8871Z" fill="#1B708A"/>
<path d="M31.8925 25.8348C31.5084 23.8622 31.2562 24.1592 29.3945 24.4936C28.4089 24.6713 27.4557 24.5396 26.4727 24.4936C26.0364 24.4737 25.9295 24.4551 25.681 24.7037C25.5915 24.7932 25.5145 25.0007 25.4995 25.1536C25.4299 25.2294 25.3703 25.3214 25.3554 25.3488C24.5762 26.777 23.3247 27.9068 22.3155 29.1622C21.8631 29.7253 21.9601 30.0746 22.4423 30.5432C24.4693 32.5145 27.9342 34.5729 30.6609 32.6948C31.2624 32.2809 31.5718 31.1199 31.7309 30.4698C31.8925 29.8111 31.9099 29.1349 31.8912 28.4624C31.8726 27.7005 32.0292 26.5358 31.8925 25.8348ZM31.3195 26.8466C31.0064 29.3524 32.1286 32.7196 28.3344 32.6637C26.3782 32.6351 24.4469 31.3834 23.1532 30.0534C22.405 29.284 24.5849 27.0193 25.4225 25.882C25.5816 25.8833 25.891 25.4209 25.8115 25.1984C26.198 25.0442 28.1082 25.3301 28.4822 25.3165C29.9326 25.2605 31.6501 24.204 31.3195 26.8466Z" fill="#1B708A"/>
<path d="M19.8856 29.2815C19.6172 28.6227 18.6913 28.1243 18.1669 27.6582C17.7307 27.2704 16.3996 25.9814 16.3996 25.2294C16.3984 25.1896 16.381 25.1586 16.3499 25.1362C15.7931 24.9373 15.1407 24.992 14.5503 24.992C15.6353 24.992 12.4401 24.7011 12.7135 24.7074C12.148 24.6937 11.5478 24.8528 11.0544 24.5433C11.078 24.2984 10.853 24.2611 10.6703 24.6092C10.6442 24.6589 10.6181 24.7086 10.5921 24.7571C10.5361 24.8652 10.4143 25.1076 10.5423 25.2095C10.5585 25.222 10.5746 25.2294 10.5908 25.2406C10.5833 25.2605 10.5734 25.2816 10.5709 25.2965C10.1832 27.6271 8.85213 31.581 11.4284 33.1459C12.491 33.791 14.6212 32.4685 15.521 32.113C16.8246 31.5997 18.5558 30.8725 19.6135 29.9316C19.7676 29.7961 19.9751 29.5015 19.8856 29.2815ZM12.9993 32.4026C9.44619 32.6003 10.4988 27.9838 10.9798 25.4333C11.426 25.5638 11.9367 25.4817 12.4015 25.4606C13.3349 25.4171 14.569 25.7067 15.5185 25.8124C16.1225 25.8795 16.6159 27.11 16.9191 27.519C17.4833 28.2797 18.6851 28.8353 19.2307 29.6208C18.4726 30.1292 17.5442 30.4673 16.7613 30.8887C15.7322 31.4406 14.1787 32.3368 12.9993 32.4026Z" fill="#1B708A"/>
<path d="M11.5315 17.5577C10.9648 16.8492 10.3794 16.2911 10.1172 15.4011C9.84753 14.4876 9.73442 13.62 9.56665 12.6964C9.5567 12.6393 9.53434 12.5933 9.46847 12.5933H9.36159C9.27957 12.5933 9.19256 12.6753 9.11924 12.7834C6.94684 13.5019 3.12153 14.6168 2.44172 17.1227C2.04154 18.5968 2.92393 19.1487 3.95669 19.9939C4.74338 20.6378 5.68542 21.0008 6.57898 21.4557C6.83127 21.585 8.95395 22.3544 8.95395 22.6763C8.95395 22.7347 8.99498 22.7795 9.05215 22.7795H9.11924C9.32182 22.7795 9.46101 22.4401 9.51072 22.291C10.0153 20.7758 10.6267 19.3451 11.4495 17.9741C11.4979 17.8908 11.6098 17.6559 11.5315 17.5577ZM10.6889 18.5471C10.362 19.0791 10.1657 19.6857 9.85995 20.2289C9.5766 20.7335 9.40136 21.3227 9.22985 21.8945C7.43153 21.1599 5.38217 20.0959 3.88461 18.8703C0.669506 16.2364 7.40792 14.0103 9.03971 13.4658C9.04592 13.4633 9.05213 13.4559 9.05835 13.4534C9.10682 13.8325 9.33798 15.1687 9.35537 15.2657C9.52315 16.1904 10.0265 17.1252 10.6852 17.7839C11.1848 18.2824 11.1239 17.8374 10.6889 18.5471Z" fill="#1B708A"/>
<path d="M39.0508 14.0514C37.8204 13.4361 36.7541 12.4069 35.4802 11.9296C34.7942 11.6723 33.8385 11.3454 33.1984 10.9365C33.5551 8.96759 33.9131 7.10934 33.9131 5.08328C33.9131 3.44753 33.1177 2.46309 32.0016 1.38543C28.8251 -1.681 24.059 3.02864 21.1595 4.18834C21.126 4.20201 21.0912 4.23433 21.0564 4.27535C20.2908 3.90494 19.57 3.20763 18.9324 2.6744C17.9494 1.85279 16.6171 1.3556 15.4713 0.813659C14.0843 0.157367 11.6509 -0.236657 10.3273 0.863378C7.15821 3.496 8.17482 7.27714 8.4445 10.8457C6.75803 11.2298 4.30725 12.0514 3.17879 13.318C2.04288 14.5933 0.259479 15.6647 0.106616 17.5727C-0.240123 21.8834 5.38724 23.3799 8.52405 24.7124C8.49298 24.7845 8.47309 24.8528 8.48055 24.9001C8.60732 25.7863 8.13133 26.9385 8.0344 27.8571C7.92379 28.9161 7.90513 30.0373 8.00828 31.0988C8.11516 32.1939 8.46191 34.7134 9.89982 34.9495C12.4364 35.3659 14.4472 34.8078 16.7861 33.9477C18.0675 33.4766 19.6607 32.6662 20.517 31.5052C21.3683 32.9508 23.9484 34.2112 25.4385 34.6027C27.668 35.1882 29.6988 35.9327 31.6872 34.3367C32.8815 33.3772 33.4594 31.7501 33.6421 30.2884C33.8671 28.4898 34.0697 25.8137 33.355 24.0238C36.2955 22.9971 40.7832 21.999 41.1871 18.2949C41.3897 16.4528 40.7323 14.8929 39.0508 14.0514ZM32.9499 23.5253C32.7411 23.6061 32.4664 24.3146 32.7324 24.2475C32.7299 24.2873 32.7349 24.3233 32.7498 24.3519C33.4545 25.7614 33.2183 27.6856 33.186 29.2057C33.1264 31.9925 32.106 34.8078 28.8313 34.5592C27.2492 34.4387 25.5255 33.9141 24.0962 33.2218C23.24 32.8066 21.6268 31.7862 21.0278 30.8987C21.0613 30.7619 21.0477 30.6513 20.9495 30.6513H20.8501C20.7792 30.5792 20.6326 30.6314 20.5046 30.8751C19.7378 32.348 16.8035 33.3834 15.3246 33.8681C14.1228 34.2622 10.0987 35.1646 9.37536 33.5263C8.63963 31.8582 8.41344 30.0783 8.51535 28.2685C8.57625 27.1971 9.02614 25.9491 9.01993 24.8292C9.23493 24.6925 9.44744 24.204 9.27345 24.1257C6.89475 23.0555 4.55457 22.2973 2.40454 20.7348C-0.0276071 18.9673 0.870927 16.4951 2.82708 14.3C4.08852 12.8842 6.61512 11.9097 8.44327 11.5294C8.49671 11.5182 8.54891 11.4734 8.59862 11.4163C8.75148 11.3255 8.99507 10.9725 8.98762 10.8109C8.80493 7.34426 7.2738 1.01751 12.89 1.01751C14.5193 1.01751 16.0342 1.96714 17.4485 2.7266C18.6553 3.37543 19.6073 4.62835 20.8588 5.11809C20.993 5.17029 21.1595 4.97887 21.254 4.77751C24.0428 3.49849 28.3354 -0.588419 31.3007 1.88386C34.2598 4.35117 33.3849 7.68483 32.7498 11.0371C32.6156 11.2286 32.5236 11.4983 32.6479 11.5865C32.6529 11.5903 32.6591 11.5928 32.6641 11.5965C32.6728 11.6263 32.6926 11.6338 32.7175 11.63C33.7217 12.3124 35.0726 12.4815 36.083 13.2037C37.4824 14.203 40.1245 15.0532 40.5471 16.9512C41.5525 21.4694 35.9699 22.3544 32.9499 23.5253Z" fill="#1B708A"/>
</svg>
