<svg width="35" height="34" viewBox="0 0 35 34" fill="none" xmlns="http://www.w3.org/2000/svg">
<path d="M34.1381 0.998011C34.1282 0.974395 34.1133 0.95575 34.0884 0.949535C29.2589 -0.379207 24.0019 0.826481 19.1053 0.862527C16.2904 0.883658 13.473 1.01666 10.6581 1.01666C9.07102 1.01666 7.50262 0.785463 5.91433 0.785463C4.82067 0.785463 2.96021 1.07135 1.99207 0.564213C1.8156 0.470989 1.57947 0.814051 1.52478 1.08502C1.49123 1.13474 1.4614 1.18446 1.44897 1.22672C1.25261 1.85442 1.35328 2.51196 1.35328 3.16701C1.35328 4.96435 1.37068 6.76294 1.31972 8.55904C1.23521 11.5186 1.46389 14.3961 1.10099 17.3705C0.776623 20.0342 1.19917 22.9614 1.19917 25.6487C1.19917 28.0439 1.27622 30.4168 1.27622 32.8083C1.27622 32.9201 1.34458 32.9077 1.43033 32.8381C1.44276 32.8829 1.4701 32.9164 1.53348 32.9177C7.61571 33.0258 13.6955 32.9835 19.7752 33.1053C22.1614 33.1538 24.5463 32.9313 26.9337 33.2247C28.8836 33.4646 31.8638 33.8126 33.6907 32.899C33.9008 32.7946 34.1729 32.0538 33.9256 32.1296C34.4812 27.4336 33.8001 22.6507 33.9741 17.9547C34.0772 15.1505 33.9865 12.3277 33.9865 9.52235C33.9865 6.7965 33.7168 3.90658 34.2761 1.22175C34.3295 0.971909 34.2475 0.939592 34.1381 0.998011ZM26.7162 32.3571C24.2455 32.0538 21.7326 32.3372 19.2594 32.2875C13.5351 32.1719 7.80959 32.2166 2.0828 32.1197C2.07534 32.0501 2.04054 32.0165 1.95727 32.0575C1.90881 32.0811 1.86158 32.106 1.81311 32.1296C1.81062 29.9755 1.7373 27.8401 1.7373 25.6835C1.7373 22.7986 1.44152 19.8179 1.63788 16.9479C1.81435 14.3737 2.22945 11.7982 1.96473 9.2116C1.83548 7.94501 1.89016 6.66723 1.89016 5.39442C1.89016 4.25088 1.63291 2.67354 1.84045 1.45667C2.48174 1.65057 3.27339 1.51385 3.91965 1.5847C5.28672 1.73634 6.69729 1.56978 8.07554 1.70029C11.0048 1.97748 13.99 1.74007 16.928 1.74007C22.349 1.74007 28.3107 0.259683 33.6559 1.73012C33.682 1.73758 33.7081 1.73012 33.7342 1.72391C33.4099 3.46532 33.4484 5.203 33.4484 6.9643V16.8621C33.4484 18.0703 33.2868 19.3593 33.3713 20.5687C33.4832 22.1821 33.7591 23.7084 33.6323 25.3392C33.4521 27.6474 33.6361 30.0277 33.4037 32.3248C31.44 33.0208 28.6177 32.5907 26.7162 32.3571Z" fill="#1B708A"/>
<path d="M32.582 17.3693C32.5174 14.6161 32.6789 11.8704 32.6789 9.13208C32.6789 7.24275 33.1375 5.00912 32.5981 3.15584C32.7945 2.93086 32.9337 2.47718 32.7286 2.47966C28.1887 2.54181 23.655 2.70961 19.1051 2.70961H11.2544C8.91673 2.70961 5.58605 3.43551 3.3776 2.48836C3.17627 2.4026 2.89291 2.85877 2.88173 3.11358C2.85936 3.15336 2.84196 3.19313 2.8345 3.22794C2.43432 4.86742 2.73881 6.84127 2.73881 8.51929V16.5067C2.73881 21.3481 2.81586 26.2081 2.81586 31.0358C2.81586 31.1812 2.92771 31.1191 3.04951 30.9911C8.08779 30.9911 13.1211 31.0681 18.1606 31.0681H26.5308C28.3577 31.0681 30.4456 31.3677 32.2464 31.0681C32.3894 31.0445 32.536 30.8158 32.6106 30.6095C32.6603 30.5001 32.6876 30.392 32.6628 30.3161C32.0985 28.6232 32.4987 26.5201 32.6217 24.7986C32.8007 22.2828 32.6416 19.8913 32.582 17.3693ZM31.9096 26.5723C31.9096 27.773 31.7655 29.1229 31.9904 30.3422C30.3325 30.5051 28.492 30.2689 26.8589 30.2689H18.4887C13.4405 30.2689 8.39848 30.1918 3.3515 30.1918C3.34902 25.9918 3.27569 21.7831 3.27569 17.5793V10.3303C3.27569 8.19114 2.85812 5.52744 3.26327 3.37585C4.92488 3.93395 7.13829 3.58716 8.83595 3.58716C11.5639 3.58716 14.2968 3.51009 17.0272 3.51009C22.0394 3.51009 27.0317 3.35845 32.0327 3.28511C31.9954 3.38082 31.9792 3.4728 32.0041 3.53868C32.4391 4.72697 31.9941 5.77107 32.1408 6.94195C32.2961 8.18617 32.1408 9.63672 31.9879 10.866C31.6685 13.4266 32.0041 16.2233 32.0637 18.7975C32.0911 19.9683 32.1495 21.097 32.2949 22.2616C32.4739 23.6873 31.9096 25.1441 31.9096 26.5723Z" fill="#1B708A"/>
<path d="M16.5788 9.2739C15.0042 7.60831 11.5828 7.41192 9.40792 7.55984C9.22771 7.57227 9.03011 7.92527 8.99158 8.15895C8.88595 8.3367 8.82257 8.63004 8.89216 8.71208C8.87849 13.6156 8.43481 18.5167 8.43481 23.4165C8.43606 23.4588 8.4547 23.4911 8.48825 23.5159C9.21777 23.7272 10.2132 23.6825 10.9738 23.5743C11.2174 23.5395 11.3777 23.1729 11.4076 22.9628C11.5592 21.9038 11.415 20.9318 11.2932 19.8616C11.2311 19.3196 11.3218 18.7939 11.2162 18.2544C11.292 18.6422 12.5373 18.3775 12.7162 18.3451C14.8377 17.966 16.5403 17.3073 17.3866 15.2576C18.1311 13.4515 17.9235 10.6971 16.5788 9.2739ZM14.7954 17.0288C14.1964 17.1792 13.6446 17.4055 13.0456 17.5447C12.2912 17.7199 11.1031 17.2899 10.7216 18.2146C10.2182 19.434 10.8744 21.3444 10.9005 22.8C10.6308 22.8112 10.3562 22.8062 10.1138 22.754C9.15439 22.5489 8.92323 22.7316 9.01147 21.5558C9.10965 20.2631 9.2041 19.0089 9.2041 17.71C9.2041 14.5839 9.40916 11.474 9.42905 8.34416C11.1329 8.27579 13.6471 8.49829 15.0477 9.17198C16.4993 9.87053 17.02 11.5075 17.2002 12.9929C17.4214 14.8201 16.6422 16.5664 14.7954 17.0288Z" fill="#1B708A"/>
<path d="M15.1967 11.9599C14.8748 11.1731 14.1466 10.6896 13.3835 10.3652C12.7969 10.1153 11.8984 9.78346 11.2707 10.042C11.1005 10.1116 10.8855 10.5852 10.9277 10.758C10.4294 12.032 10.8979 13.7386 10.8979 15.0263C10.8979 15.3048 10.9215 16.1997 11.482 15.879C11.8176 15.6876 12.4663 15.6876 12.8628 15.5695C13.2965 15.4402 13.7365 15.2575 14.1391 15.0549C15.244 14.4968 15.6578 13.0848 15.1967 11.9599ZM13.3673 14.6969C13.0827 14.8113 12.7894 14.8946 12.4862 14.9505C12.3246 14.9853 11.9344 14.9741 11.8101 15.045C11.318 15.3259 11.436 14.1426 11.436 13.9785C11.436 13.4415 11.4037 12.9257 11.3304 12.3937C11.277 12.0109 11.2894 11.1122 11.364 10.7356C12.2289 10.6324 13.3959 11.3521 14.0173 11.7623C14.6226 12.1613 14.768 12.8238 14.8177 13.4925C14.8748 14.2843 13.8831 14.4931 13.3673 14.6969Z" fill="#1B708A"/>
<path d="M25.5045 17.6154C25.0894 16.8348 23.9013 16.4619 23.2364 15.961C21.4256 14.595 24.0678 13.5931 24.9241 14.7006C25.1205 14.9542 25.4274 14.2693 25.4448 14.1375C25.5194 13.5434 25.5219 12.9555 25.5206 12.3613C25.6698 12.1252 25.7493 11.7933 25.5716 11.7933H25.5256C25.5157 11.761 25.4983 11.7361 25.4684 11.7262C23.1904 10.9667 19.7305 12.7578 19.2321 15.0996C18.9351 16.4967 19.9691 17.7161 21.0342 18.4333C21.356 18.6496 23.9497 20.0032 22.2061 20.2455C21.3734 20.3611 20.5992 20.0951 19.7988 19.9534C19.544 19.9074 19.3651 20.4742 19.3651 20.6445C19.3651 22.5438 18.8506 23.4487 21.3548 23.4487C22.9294 23.4487 24.8234 23.1628 25.8152 21.7769C26.715 20.519 26.1507 18.8335 25.5045 17.6154ZM24.4493 22.207C23.3607 22.7414 21.6232 22.7874 20.4749 22.5152C19.8436 22.3648 19.8237 21.5457 19.8622 20.8285C21.1187 21.0634 23.5309 21.4562 23.7099 19.8192C23.8441 18.5949 22.3142 18.2182 21.4654 17.6564C19.6298 16.442 19.2309 14.2979 21.453 13.1171C22.2409 12.6982 24.0094 12.2097 24.9825 12.4981C24.9825 12.8871 24.98 13.2737 24.9676 13.659C24.2853 13.3271 23.2103 13.3085 22.697 13.6416C22.1576 13.9921 21.499 15.0387 21.8432 15.7049C22.1825 16.36 22.7654 16.7155 23.3507 17.158C23.951 17.6104 24.4953 17.7111 24.9987 18.3227C25.891 19.4016 26.0488 21.4201 24.4493 22.207Z" fill="#1B708A"/>
</svg>
