<svg width="308" height="30" viewBox="0 0 308 30" fill="none" xmlns="http://www.w3.org/2000/svg">
<path d="M39.1991 24.68C35.1356 22.6989 30.6908 20.609 26.1215 20.0001C30.2555 17.0175 37.8481 11.5698 34.5877 8.09005C32.968 6.36193 29.1387 7.28114 27.2113 7.84002C24.3366 8.67393 21.9304 9.65639 20.8 12.5302C20.1996 14.0568 21.5986 13.4303 21.9889 12.4434C23.1267 9.55491 31.5179 8.19594 33.606 10.4271C35.1236 12.0478 25.7837 18.525 23.9809 19.9898V14.1098C23.9809 13.5391 23.3204 13.9715 23.1493 14.1524C22.759 14.5657 22.4963 15.1158 22.4963 15.682V25.3168C22.4963 25.8875 23.1568 25.4551 23.3279 25.2742C23.7182 24.8609 23.9809 24.3109 23.9809 23.7446V22.0518C28.8475 22.4092 33.6975 24.6859 38.0072 26.7876C38.6812 27.1156 39.8386 24.9918 39.1991 24.68Z" fill="white"/>
<path d="M61.9277 23.1373C59.4388 20.9738 57.7201 18.3559 56.1799 15.4968C54.7704 12.8847 53.8277 9.78146 51.8763 7.50328C50.8 6.24579 49.4099 6.80468 48.5873 7.92979C47.4435 9.49613 47.3579 10.9448 48.0709 12.7082C48.173 12.9612 48.4582 12.8406 48.7645 12.5538C48.5393 13.2686 48.3396 13.9951 48.1985 14.7481C47.8953 16.3748 47.7032 18.2088 47.3174 19.9752C46.7305 20.5517 46.2546 21.5489 46.7229 22.0474C46.3492 23.0975 45.8643 24.0844 45.1588 24.9242C44.5914 25.5993 44.1786 28.0966 45.3689 26.6788C46.3597 25.4993 47.0562 24.2271 47.5861 22.9019L48.1865 23.4902C48.5663 23.8623 49.6126 22.5651 49.7387 21.6489C51.6811 21.4341 53.6371 21.3915 55.608 21.39C55.8662 21.39 56.1424 21.1518 56.3826 20.8311C57.5534 22.5828 58.8939 24.2094 60.5181 25.6213C61.0675 26.1008 62.6452 23.7623 61.9277 23.1373ZM48.6399 19.4339C49.2718 16.7086 49.6321 13.8922 50.5988 11.2537C50.7444 11.1595 50.9125 10.9948 51.0822 10.8036C51.48 11.414 51.7727 12.1449 52.0849 12.7656C52.915 14.4202 53.6911 16.0968 54.5407 17.7411C54.7374 18.122 54.958 18.4838 55.1667 18.8545C52.9721 18.8824 50.7985 19.0104 48.6399 19.4339Z" fill="white"/>
<path d="M84.6172 17.6793C83.6039 14.5642 82.8819 11.0771 83.1461 7.7547C83.8456 7.16935 84.4445 5.51624 83.733 5.51624H83.035C82.2709 5.51624 81.7846 6.83255 81.6765 7.3929C81.1556 10.1255 81.4814 12.8155 81.9227 15.5393C82.277 17.7293 83.4343 20.0472 83.8141 22.3209C78.224 18.5632 71.7857 14.976 69.3329 8.56802C69.489 8.11798 69.498 7.70911 69.2308 7.59881C69.0537 7.24436 68.8766 6.88991 68.6994 6.53399C68.4352 5.36622 66.9882 7.71205 67.0122 8.31947C67.0362 8.94306 67.0482 9.38134 67.3995 9.70491C67.5526 10.1814 67.7282 10.6403 67.9204 11.0889C67.5886 10.8536 66.3127 12.464 66.3127 13.1097C66.3112 18.294 66.2331 23.4475 65.6161 28.601C65.445 30.0364 67.2133 28.0186 67.2989 27.3023C67.8798 22.4533 67.9774 17.5969 67.9924 12.7243C67.9924 12.7155 67.9999 12.7008 67.9999 12.692V11.3242C67.9999 11.2477 67.9744 11.2198 67.9549 11.1786C70.8971 17.9381 78.0198 21.5473 83.9357 25.7286C84.5121 26.136 85.3287 24.5035 85.3978 24.1682C85.8601 21.9018 85.3242 19.853 84.6172 17.6793Z" fill="white"/>
<path d="M105.267 23.0446C101.843 28.751 94.623 23.8535 93.6382 19.1397C93.0393 16.2674 94.2612 13.2818 96.1166 11.0933C97.1734 9.84612 98.775 9.16075 100.263 8.57099C100.486 8.48274 105.893 7.3238 104.23 9.73287C103.643 10.5844 103.85 12.089 104.775 10.7506C106.956 7.59147 106.121 4.96326 101.758 6.25898C97.385 7.55765 93.8949 10.9095 92.652 15.279C91.4857 19.3824 92.0216 23.7373 95.8374 26.2831C99.9054 28.9981 103.867 27.345 106.157 23.5284C106.887 22.3107 105.991 21.8385 105.267 23.0446Z" fill="white"/>
<path d="M115.117 7.53562C115.117 7.52533 115.119 7.51503 115.12 7.50474L115.119 7.50621C115.119 7.42532 115.122 7.34443 115.123 7.26354C115.131 6.28843 113.486 8.16363 113.462 8.78428C112.914 9.55495 112.502 10.9727 113.282 10.6521C113.337 10.6286 113.382 10.5992 113.433 10.5727C113.325 15.9262 112.953 21.2988 114.148 26.5685C114.388 27.626 115.976 25.5301 115.811 24.808C114.521 19.1221 115.059 13.3112 115.117 7.53562Z" fill="white"/>
<path d="M129.149 14.1113C127.348 13.4657 125.531 13.2259 123.855 12.2553C121.818 11.0772 130.035 8.19747 129.212 9.5785C128.543 10.7021 129.368 11.139 130.033 10.0241C130.602 9.06815 130.763 8.72253 130.854 7.64006C130.869 7.45769 130.854 7.16648 130.595 7.17678C127.574 7.30326 121.105 9.31377 122.176 13.4554C122.685 15.4232 128.272 16.0189 129.895 16.7793C133.064 18.2632 133.24 21.7533 129.883 23.6344C127.621 24.9022 124.94 24.3786 122.904 23.0696C122.373 22.7284 121.24 24.6095 121.821 24.9845C126.129 27.7554 133.756 25.1507 134.008 19.4795C134.142 16.4689 131.836 15.0747 129.149 14.1113Z" fill="white"/>
<path d="M147.841 24.127C144.902 25.8389 141.229 21.5738 140.248 19.4589C139.094 16.9689 139.917 14.1318 141.346 11.9581C141.942 11.0521 146.275 6.65901 146.356 9.99906C146.376 10.7888 147.712 9.17103 147.697 8.57979C147.629 5.79862 145.397 6.78843 143.675 7.94885C141.473 9.43577 139.813 12.2331 138.915 14.6392C137.886 17.3984 138.361 20.3693 139.885 22.8327C141.19 24.9418 144.87 27.42 147.322 25.9919C147.841 25.6904 148.533 23.724 147.841 24.127Z" fill="white"/>
<path d="M166.593 8.34742C162.704 6.32368 157.626 7.71941 154.5 10.6271C154.67 9.97553 154.626 9.46371 154.039 9.97406C150.447 13.0876 150.671 20.3943 153.515 23.8887C157.328 28.5731 163.705 24.3491 166.722 21.1605C170.308 17.3675 172.17 11.2477 166.593 8.34742ZM165.937 20.0854C163.534 22.6254 159.966 24.3476 156.543 22.8092C154.82 22.0341 153.946 20.231 153.511 18.5352C153.29 17.6734 153.031 15.7129 153.14 14.1363C153.257 14.0362 153.389 13.8833 153.539 13.6539C158.415 6.19131 174.306 11.2389 165.937 20.0854Z" fill="white"/>
<path d="M212.822 22.0976C207.474 24.2081 202.037 24.7537 196.996 21.4401C192.871 18.7281 195.246 13.1687 198.304 10.7508C199.608 9.71832 201.235 9.25504 202.87 9.09914C204.271 8.9653 203.763 9.27857 203.202 9.6992C202.636 10.1228 201.843 12.5598 202.978 11.7097C204.659 10.4508 205.65 9.6242 205.919 7.44162C205.952 7.171 205.904 6.92833 205.605 6.88421C198.716 5.84439 193.11 12.801 193.183 19.0708C193.231 23.1153 197.119 24.867 200.546 25.717C204.848 26.7848 208.161 25.9509 212.195 24.3596C212.879 24.0889 213.806 21.7093 212.822 22.0976Z" fill="white"/>
<path d="M300.309 7.1002C296.333 7.74439 292.373 8.3621 288.33 8.19149C285.361 8.06501 282.467 6.76634 279.597 7.72086C279.094 7.88852 278.518 8.87686 278.611 9.41221C278.028 9.31514 277.004 11.0624 277.579 11.4404C279.486 12.6934 279.288 15.7114 279.258 17.6954C279.196 21.715 276.086 24.4152 272.091 24.5829C266.908 24.802 263.32 17.1189 264.754 12.617H264.794C265.495 12.617 266.389 10.552 265.664 10.552H265.077C264.71 10.552 264.349 11.08 264.21 11.3506C261.022 17.6175 265.297 28.5127 273.652 26.2787C276.547 25.5036 280.565 21.6958 280.616 18.519C280.655 16.1423 281.233 12.4125 279.63 10.2932C279.905 10.1946 280.203 9.84313 280.409 9.45045C283.048 9.22689 286.554 10.2196 288.869 10.3182C290.102 10.3711 291.346 10.3094 292.59 10.1888C292.331 10.5461 292.118 10.9477 292.118 11.1874V12.3375C292.118 12.3713 292.133 12.3772 292.137 12.4022C292.232 16.4438 292.532 20.834 290.213 24.3241C289.662 25.155 289.867 26.6272 290.743 25.3109C293.847 20.6369 293.586 15.4364 293.539 10.0829C295.527 9.84461 297.508 9.47839 299.438 9.16659C300.158 9.04893 300.935 6.99872 300.309 7.1002Z" fill="white"/>
<path d="M307.853 7.612C307.853 6.56042 306.04 8.73418 306.04 9.53132C306.038 15.0937 306.034 20.659 305.291 26.1831C305.085 27.717 306.998 25.5521 307.1 24.7873C307.832 19.3368 307.849 13.8435 307.85 8.3562C307.85 8.35326 307.852 8.35032 307.852 8.34737V7.612H307.853Z" fill="white"/>
<path d="M306.837 0.489236C306.36 0.9937 306.04 1.66583 306.04 2.35708V3.09245C306.04 3.78958 306.848 3.26158 307.056 3.04097C307.534 2.53651 307.853 1.86438 307.853 1.17313V0.43776C307.853 -0.259371 307.046 0.268625 306.837 0.489236Z" fill="white"/>
<path d="M7.0508 9.99189C10.0575 9.51243 13.0657 9.17122 16.113 9.12416C16.868 9.11239 17.8122 6.89893 17.0437 6.91069C14.3762 6.95334 11.7538 7.22837 9.11482 7.60635C8.08506 7.75343 7.07181 7.96668 6.05856 8.17112C6.04355 7.85049 6.02704 7.53281 6.01203 7.21366C6.00302 7.04159 5.89644 6.91069 5.71631 6.91069H4.45838C3.92999 6.91069 3.31154 7.9961 3.25599 8.64617C2.66456 8.71529 2.07012 8.76088 1.46968 8.76088C0.71762 8.76088 -0.238586 10.9743 0.538988 10.9743H1.01034C1.04486 10.9743 1.08239 10.9479 1.11842 10.9391C2.33431 10.8846 3.47666 10.689 4.6205 10.4552C5.0258 11.7391 5.20593 13.8144 5.27198 16.0455C4.8847 16.4749 4.48991 17.1118 4.48991 17.453V18.6854C4.49441 18.8016 4.54545 18.8928 4.64002 18.959C4.85618 19.0384 5.07834 19.0973 5.302 19.1443C5.27649 22.2814 5.11887 25.1685 5.11887 26.0847C5.11887 26.6642 5.79737 26.2348 5.97 26.0421C6.75057 25.167 7.11985 24.6155 7.26696 23.4624C7.34802 22.83 7.00426 22.9462 6.62298 23.3021C6.61247 21.9534 6.56143 20.6165 6.52241 19.2767C7.51013 19.2987 8.52188 19.1561 9.47509 19.0737C11.5451 18.8972 13.7112 18.484 15.6551 17.7045C16.2946 17.4486 17.1578 15.2219 16.2421 15.5881C14.4753 16.2955 12.3047 16.7132 10.4058 16.8588C9.43155 16.9338 8.46484 17.025 7.48612 17.0456C7.02077 17.0559 6.69353 17.0367 6.46386 16.9382C6.3768 14.6762 6.26872 12.4186 6.15614 10.1537C6.45335 10.1022 6.74457 10.0419 7.0508 9.99189Z" fill="white"/>
<path d="M235.352 23.1166C231.559 23.9873 227.738 24.2549 223.963 23.1431C221.955 22.5504 220.225 21.3208 218.813 19.8339C216.566 17.4689 218.266 13.3568 219.31 10.7903C224.079 10.2329 228.843 9.63578 233.615 9.10778C234.471 9.01365 235.44 6.55604 234.651 6.64429C228.809 7.28994 222.98 8.05767 217.137 8.70333C216.381 8.78716 215.165 11.1315 216.102 11.1668C216.468 11.3418 216.834 11.5154 217.201 11.6904C217.193 11.7786 217.181 11.861 217.178 11.9581C217.164 12.2758 217.238 12.4228 217.357 12.4611C215.851 16.6512 215.264 20.8311 219.409 23.9652C223.526 27.0788 229.579 26.6655 234.316 25.5786C235.166 25.3859 236.041 22.9578 235.352 23.1166Z" fill="white"/>
<path d="M231.848 14.1936C229.927 14.626 228.004 14.7922 226.036 14.854C224.207 14.9113 221.678 15.2967 220.1 14.2245C219.456 13.7877 218.015 16.132 218.742 16.6262C220.289 17.6778 222.425 17.3498 224.212 17.3336C226.439 17.313 228.637 17.1468 230.812 16.6586C231.663 16.4659 232.541 14.0377 231.848 14.1936Z" fill="white"/>
<path d="M244.312 11.9758C244.3 11.0022 242.637 13.0068 242.646 13.7392C242.697 18.0588 243.398 22.3151 244.025 26.5818C244.178 27.6201 245.799 25.5522 245.691 24.8183C245.065 20.5532 244.363 16.2954 244.312 11.9758Z" fill="white"/>
<path d="M261.234 23.1356C256.848 22.5781 252.952 20.7883 248.844 19.6117C252.311 17.485 255.546 15.2744 254.495 10.574C253.323 5.32635 243.453 6.91769 239.848 7.58982C239.006 7.74719 238.112 10.1504 238.827 10.0165C242.422 9.34588 246.292 8.93849 249.86 9.93565C252.389 10.6431 254.583 13.6743 251.697 15.9686C250.072 17.2614 248.072 18.0939 246.35 19.2631C246.083 19.444 244.818 21.3089 245.567 21.4766C250.542 22.5899 255.028 24.9049 260.213 25.5623C260.992 25.6608 262.147 23.2517 261.234 23.1356Z" fill="white"/>
</svg>
