<svg width="346" height="40" viewBox="0 0 346 40" fill="none" xmlns="http://www.w3.org/2000/svg">
<path d="M20.3658 0.123151C17.7718 1.67814 13.3021 3.15585 10.6228 0.826522C10.0718 0.347094 7.89777 2.6228 8.3509 3.01707C9.6787 4.17148 12.5238 4.66352 14.2131 4.17148C15.1178 3.90811 16.4029 3.81979 17.2287 3.32459C19.7217 1.82954 16.7061 6.47242 16.3619 8.07471C15.4162 12.4905 13.4332 17.0372 11.9112 21.3C10.8091 24.3879 7.76673 26.7409 5.13955 23.9069C3.91753 22.5884 2.95128 19.0921 2.30238 17.4456C2.18239 17.1413 -0.301113 18.7925 0.0304419 19.6362C1.22246 22.6657 2.03398 26.9932 5.70161 27.5988C7.8883 27.9599 10.3023 26.4538 11.6791 24.8988C14.0631 22.2005 14.7246 18.3335 15.7777 14.9917C17.3345 10.0508 19.3317 5.26754 20.9279 0.350248C21.0763 -0.103947 20.6421 -0.0424412 20.3658 0.123151Z" fill="white"/>
<path d="M22.501 16.255C21.8473 16.113 17.9823 15.8354 19.8043 14.7283C20.6032 14.2426 22.7678 14.1811 23.4072 14.8876C23.8382 15.3639 26.1433 13.2112 25.6792 12.6971C24.5424 11.4386 21.8142 12.194 20.5779 12.9463C19.5422 13.5755 16.3025 15.7251 16.9372 17.3258C17.3587 18.3887 18.5349 18.2389 19.5138 18.3572C21.099 18.5496 22.5325 19.1489 23.5619 20.4026C24.0798 21.0335 24.304 21.9198 24.5503 22.6752C25.0334 24.1545 23.4941 24.2112 22.5152 24.0393C21.3516 23.8359 18.7102 22.4859 19.3449 20.9262C19.6464 20.185 17.3303 21.8267 17.0619 22.4859C16.0309 25.0171 19.8264 26.3482 21.7226 26.4728C23.8288 26.61 27.0417 24.1545 27.0417 21.9103C27.0417 19.1299 25.1866 16.8416 22.501 16.255Z" fill="white"/>
<path d="M38.8498 24.8607C38.8292 24.9269 38.8087 25.0105 38.7898 25.0862C37.3151 24.9869 37.6293 21.9731 37.4935 20.8392C37.3909 19.9797 37.3041 19.1186 37.2378 18.2544C37.3341 17.3681 37.3136 16.4471 37.2725 15.5403C37.282 15.4945 37.2962 15.4409 37.3009 15.4031C37.8014 14.7959 38.1235 14.1761 37.6388 14.2628C37.4872 14.2896 37.3578 14.337 37.222 14.3795C37.2125 14.1209 37.2062 13.8654 37.2062 13.6147C37.2062 13.4901 36.9788 13.5516 36.6773 13.7061C36.9788 13.4002 37.2062 13.0832 37.2062 12.823V12.4287C37.192 12.3861 37.1762 12.3435 37.162 12.3025C34.7764 11.1103 32.4081 13.0879 31.2224 15.1949C30.1835 17.04 28.9742 18.9041 28.2684 20.9054C27.9969 21.675 27.6385 24.4901 28.019 25.2865C29.2678 27.8981 33.0112 25.5231 34.2569 24.1857C34.5901 23.8293 34.8853 23.4508 35.1632 23.0644C35.1758 23.1591 35.1884 23.2584 35.1979 23.3467C35.4032 25.1162 34.5995 26.9566 37.0325 27.2011C39.276 27.425 40.5738 25.1004 41.128 23.3057C41.3854 22.4825 39.0597 24.1826 38.8498 24.8607ZM30.7488 23.7205C29.5599 23.0487 30.7882 18.6565 31.1151 18.0289C31.6124 17.0716 32.1776 16.1458 32.7002 15.1996C32.896 14.3038 33.4944 14.0026 34.4985 14.2944C34.7858 14.3669 34.9027 14.5215 34.8506 14.7612C34.8506 14.8858 35.0779 14.8243 35.3795 14.6697C35.0779 14.9757 34.8506 15.2927 34.8506 15.5529C34.8506 16.097 34.8727 17.0085 34.8458 18.0352C34.8174 18.3522 34.8048 18.677 34.8032 19.0035C34.6153 22.052 33.8306 25.46 30.7488 23.7205Z" fill="white"/>
<path d="M53.4498 15.5941C52.692 11.4085 48.5933 14.3782 46.7445 15.7265C46.3624 16.0057 46.0387 16.3038 45.7435 16.6113C46.0214 15.132 46.315 13.6637 46.6624 12.2365C47.5655 8.52725 47.0618 4.34014 48.2617 0.746004C48.5286 -0.0535679 46.2045 1.63074 45.9788 2.30572C44.9209 5.47405 44.932 9.19119 44.6352 12.5046C44.201 17.3352 42.7295 22.2304 41.9796 27.0278C41.9401 27.277 42.4832 26.9458 43.0563 26.4963C45.0299 27.8841 47.6871 26.971 49.5027 25.4807C52.6446 22.899 54.184 19.644 53.4498 15.5941ZM44.752 23.8358C45.3441 21.3866 45.7546 17.6868 47.2323 16.6081C54.1619 11.5584 51.1605 30.5447 44.752 23.8358Z" fill="white"/>
<path d="M64.9419 24.6606C62.7695 26.5136 59.3955 25.4491 57.793 23.3973C56.8662 22.2114 56.7004 20.6264 56.8204 19.0636C57.4788 18.9752 58.1356 18.8948 58.8019 18.8948C60.1991 18.8948 61.5727 19.2355 62.9384 18.8633C63.6726 18.663 64.8772 17.5843 64.9388 16.7831C65.0935 14.7708 62.711 10.4969 60.2212 11.0994C58.0803 11.6182 56.6168 14.1463 55.6 15.9189C55.15 16.7027 54.839 17.6363 54.6401 18.622C54.4048 18.9957 54.2911 19.2907 54.4285 19.2907H54.5169C54.2075 21.5033 54.5169 23.9004 55.521 25.5879C57.5893 29.0653 62.4411 28.0181 64.9514 25.8781C65.8656 25.0974 66.6029 23.2444 64.9419 24.6606ZM59.7144 13.8119C60.7454 14.3797 61.6848 15.4931 62.1932 16.698C61.7306 16.6538 61.268 16.6065 60.8228 16.6065C59.5581 16.6065 58.3645 16.8714 57.122 16.9613C57.1851 16.6443 57.253 16.3368 57.3209 16.0451C57.613 14.7708 58.1861 12.9698 59.7144 13.8119Z" fill="white"/>
<path d="M72.024 24.7458C71.9956 24.7821 71.9687 24.8199 71.9403 24.8562C70.4104 24.5818 70.8809 23.3517 70.8888 21.6847C70.8999 19.1267 71.544 16.7012 71.8424 14.1779C72.3271 10.0586 71.8077 5.99921 72.826 1.93353C73.0423 1.07088 70.7151 2.80723 70.543 3.49325C69.741 6.701 69.7363 9.83148 69.6636 13.1291C69.561 17.6663 67.7232 22.4937 68.5253 27.0278C68.5269 27.1382 68.5837 27.1965 68.6942 27.2029C71.5456 27.2029 72.0224 26.4711 73.7212 24.208C74.9243 22.6026 72.4787 24.1386 72.024 24.7458Z" fill="white"/>
<path d="M106.138 0.557033C106.061 -0.054868 104.765 1.07904 104.64 1.19732C102.319 3.38471 100.931 6.60035 99.2942 9.30817C98.579 10.491 97.9348 11.71 97.2275 12.8944C97.9885 11.6201 97.4312 10.103 97.218 8.76408C96.8502 6.4521 94.8513 3.36106 95.4039 1.14212C95.5539 0.54284 94.4866 1.19732 93.7572 1.88335C93.7935 1.33926 93.792 0.801479 93.6846 0.317319C93.6814 0.205348 93.6262 0.148573 93.5157 0.142265C91.8973 -0.261464 90.6374 1.55847 89.5038 2.50155C88.5771 3.27274 87.8366 5.11318 89.5133 3.71905C92.8668 0.927644 90.8158 6.4868 90.3485 7.84781C89.5117 10.2781 89.7154 13.2414 89.1454 15.7473C88.1192 20.2593 87.2603 24.8486 86.3493 29.4047C86.3035 29.635 88.5329 28.3465 88.7081 27.4665C89.6791 22.6186 90.6264 17.7124 91.7221 12.8976C92.3236 10.2513 92.2573 7.59705 93.0973 4.96809C93.1888 5.34816 93.312 5.73927 93.4983 6.18085C94.7077 9.04953 95.0771 12.0964 95.4608 15.1591C95.5002 15.4761 95.9044 15.2821 96.0623 15.1969C100.204 12.9764 101.203 7.67275 103.636 3.88937C103.42 4.61482 103.061 5.28665 102.987 6.05626C102.701 8.98802 101.555 11.74 100.952 14.6103C100.104 18.6444 97.7485 23.6752 99.0258 27.8198C99.2168 28.4411 101.602 26.5881 101.385 25.8815C100.001 21.3932 102.641 15.8735 103.574 11.4293C104.268 8.13326 106.573 3.97138 106.138 0.557033Z" fill="white"/>
<path d="M118.109 24.9398C115.353 27.7801 115.667 21.6895 115.617 20.3726C115.561 18.9217 115.253 17.5134 115.245 16.0515C115.242 15.5027 115.178 15.0169 115.048 14.5501C114.979 13.2206 114.562 12.2539 113.496 12.2539C113.128 12.2539 112.645 12.6671 112.235 13.1402C109.598 13.8215 107.471 17.1176 106.41 19.3034C105.599 20.9735 105.24 22.7982 105.037 24.6276C104.795 26.796 104.972 27.7596 107.209 28.1507C109.923 28.6254 112.058 25.1086 113.163 22.8644C113.138 24.145 113.057 25.4397 113.409 26.6241C114.358 29.8193 117.607 26.7708 118.744 25.599C120.015 24.2901 119.393 23.6182 118.109 24.9398ZM112.408 19.9847C112.323 21.3268 111.758 22.4985 111.224 23.705C110.512 25.3183 107.427 27.1588 107.326 24.298C107.228 21.5397 107.958 17.7452 109.999 15.7408C110.545 15.2046 111.158 14.946 111.747 14.588C111.903 14.6447 112.029 14.7583 112.137 14.9065C112.093 15.0485 112.082 15.1794 112.141 15.2834C112.299 15.5531 112.418 15.8291 112.517 16.1098C112.699 17.4992 112.446 19.3901 112.408 19.9847Z" fill="white"/>
<path d="M132.078 12.7855C131.354 13.1782 130.351 13.0725 129.549 13.3359C128.835 13.5708 128.098 13.9998 127.49 14.4382C126.038 15.4886 124.768 16.6603 123.605 18.0134C123.619 17.1587 123.635 16.3039 123.808 15.4649C124.111 14.003 124.361 12.7397 124.361 11.2399C124.361 10.6328 122.954 11.7888 122.863 11.8802C122.732 12.0127 122.599 12.1436 122.466 12.2761C121.677 13.0646 121.609 13.6134 121.969 13.6308C121.879 15.8071 121.213 17.8699 121.205 20.0605C121.202 21.1613 120.857 22.2573 120.823 23.3266C120.456 24.5551 120.199 25.8136 120.019 27.0279C119.934 27.6115 121.454 26.4476 121.517 26.3877C122.675 25.2821 122.847 24.175 123 22.9228C123.221 22.2889 123.431 21.6549 123.499 20.9972C123.772 18.3651 126.532 15.3687 129.285 15.3167C129.953 15.304 130.356 15.1053 130.921 14.7994C131.461 14.5076 133.379 12.0805 132.078 12.7855Z" fill="white"/>
<path d="M140.957 13.4886C140.955 13.4839 140.941 13.4886 140.938 13.4855C140.701 12.6748 140.188 12.0724 139.247 11.8579C139.105 11.8248 138.921 11.8973 138.729 12.0077C136.293 11.9494 133.542 15.8432 132.308 17.4297C130.718 19.4736 126.723 26.512 130.689 27.996C132.781 28.7783 135.055 27.1192 136.702 25.263C136.702 25.2661 136.7 25.2693 136.698 25.2724C136.035 27.6128 135.255 29.9973 134.834 32.396C134.305 35.4082 130.449 38.6239 127.129 37.1966C124.999 36.2804 124.623 32.9717 124.361 31.0272C124.292 30.5067 121.894 32.1579 122.003 32.9654C122.435 36.17 123.259 39.4282 126.9 39.9675C129.325 40.3271 132.513 37.5956 134.177 36.151C136.811 33.8643 136.935 31.4403 137.793 28.0812C138.542 25.1431 139.266 22.1435 140.434 19.3443C141.22 17.4597 141.672 15.3937 140.957 13.4886ZM133.206 25.7803C130.374 25.8481 131.749 21.3503 132.222 19.9956C133.061 17.5953 134.793 15.8037 136.687 14.2283C136.957 14.3166 137.227 14.4049 137.497 14.4932C137.616 14.5626 137.77 14.5389 137.935 14.4822C139.439 15.6697 138.293 19.2039 137.854 20.4797C137.043 22.8422 136.136 25.7093 133.206 25.7803Z" fill="white"/>
<path d="M157.037 22.2825C156.391 22.6232 155.804 23.2083 155.431 23.8312C154.555 25.2963 152.689 24.4936 151.95 23.4795C151.237 22.5001 151.14 21.2006 151.128 20.0399C151.123 19.6141 151.156 19.1883 151.191 18.7609C151.758 17.3384 152.165 15.8575 152.361 14.3562C152.455 14.1527 152.512 13.9383 152.402 13.8657C152.436 13.5188 152.477 13.1718 152.49 12.8249C152.493 12.7239 152.327 12.7555 152.089 12.8659C152.088 12.8028 152.091 12.7365 152.05 12.6987C149.948 10.7479 145.567 15.4049 144.348 16.7722C143.115 18.1569 142.229 19.8034 141.52 21.5019C141.066 22.5948 139.818 24.8169 140.369 26.0675C141.68 29.0465 146.339 26.1526 147.643 24.6339C148.057 24.1513 148.445 23.6404 148.818 23.1152C148.821 23.1609 148.824 23.2098 148.829 23.254C149.029 25.629 150.569 27.2408 152.94 26.6888C154.86 26.2425 156.527 24.3532 157.487 22.7493C157.787 22.2478 157.539 22.0176 157.037 22.2825ZM142.782 24.1971C141.958 23.2303 143.876 19.704 144.298 18.8209C144.828 17.7074 147.983 13.2238 149.778 14.8892C149.855 14.9602 149.975 14.9586 150.114 14.9239C150.106 15.1037 150.07 15.2693 150.056 15.4459C149.099 16.8227 148.789 18.7799 148.74 20.5935C148.496 21.1596 148.227 21.7211 147.93 22.2857C147.032 23.9905 144.577 26.3025 142.782 24.1971Z" fill="white"/>
<path d="M169.082 11.1154C167.469 9.50363 163.597 13.2334 162.71 14.6322C162.377 15.1574 162.101 15.7173 161.842 16.2882C162.047 14.9303 162.232 13.5709 162.339 12.213C162.358 12.1531 162.391 12.0884 162.391 12.0317V11.6374C162.391 11.1927 160.08 12.765 160.032 13.5756C159.9 15.815 159.328 17.9804 159.199 20.2261C159.15 21.0888 159.123 22.1407 159.039 23.1973C158.558 24.5772 158.18 25.9934 158.051 27.4238C157.997 28.0215 160.092 26.2363 160.258 25.913C160.904 24.6545 161.063 23.4133 161.158 22.1249C161.603 20.7623 162.172 19.4297 162.748 18.157C163.259 17.0294 165.032 11.5302 166.81 13.3059C167.293 13.7885 169.546 11.5775 169.082 11.1154Z" fill="white"/>
<path d="M172.709 25.0501C172.685 25.181 171.139 24.4587 170.941 24.2553C170.296 23.5961 170.773 22.0916 170.952 21.3772C171.665 18.5148 172.507 15.8007 173.443 13.014C173.711 12.216 171.387 13.8987 171.16 14.5737C170.224 17.3619 169.4 20.0808 168.669 22.9369C168.337 24.2316 167.938 25.6983 168.973 26.7613C171.13 28.9691 174.709 25.0785 175.066 23.1135C175.113 22.8643 172.868 24.1686 172.709 25.0501Z" fill="white"/>
<path d="M175.816 8.74014C175.559 8.52093 175.25 8.31749 174.899 8.29541H174.107C173.502 8.29541 172.847 9.00667 172.487 9.41355C172.416 9.49398 171.55 10.5837 172.084 10.5837H172.708V10.8045C172.708 11.1026 173.049 10.9764 173.366 10.7966C173.426 10.8408 173.486 10.8818 173.544 10.9323C174.11 11.4101 176.268 9.12337 175.816 8.74014Z" fill="white"/>
<path d="M192.329 8.29689C189.732 8.33316 187.155 8.65015 184.572 8.87252C185.543 6.26878 187.425 2.82132 186.511 0.430485C186.397 0.133996 183.914 1.76941 184.239 2.62103C184.806 4.10347 183.781 6.77975 182.89 8.98764C182.208 9.03022 181.525 9.07753 180.84 9.087C179.966 9.09961 178.448 11.38 178.819 11.3753C179.895 11.3611 180.969 11.2917 182.041 11.2066C181.997 11.339 181.938 11.4904 181.907 11.6056C180.979 14.9631 179.978 18.398 179.291 21.8123C178.931 23.5976 177.668 26.553 179.537 27.6506C180.871 28.4344 183.661 26.9583 184.799 26.277C185.319 25.9648 187.209 23.5108 185.955 24.2631C179.67 28.0307 181.25 21.5647 182.027 18.3428C182.616 15.8999 183.29 13.4712 183.928 11.0394C186.05 10.836 188.172 10.6152 190.308 10.5868C191.181 10.5726 192.7 8.29216 192.329 8.29689Z" fill="white"/>
<path d="M203.25 24.8609C203.629 23.9493 203.334 24.5092 202.321 24.6369C201.874 24.6937 201.427 24.6543 200.983 24.6022C199.657 24.4445 199.981 22.8265 200.025 21.9244C200.093 20.5113 200.061 19.1456 200.257 17.7593C200.333 17.4234 200.407 17.0907 200.469 16.7327C200.491 16.5986 200.5 16.392 200.506 16.1618C200.54 15.8495 200.551 15.5262 200.514 15.2534C200.514 14.8812 200.516 14.4964 200.529 14.1447C201.206 13.3656 201.926 12.2633 201.007 12.7837C200.901 12.8436 200.824 12.9193 200.724 12.9808C200.732 12.9682 200.739 12.9414 200.748 12.932C202.041 11.6403 201.413 10.9748 200.112 12.2743C199.321 13.0644 198.795 13.6889 198.58 14.8386C198.511 15.2108 198.452 15.5751 198.394 15.9363C198.312 16.1886 198.219 16.4315 198.167 16.7074C198.015 17.5133 197.917 18.3366 197.843 19.1661C197.462 20.9955 196.872 22.7145 195.464 24.3988C194.485 25.569 192.906 26.9599 191.52 25.6321C190.85 24.9918 191.46 22.3817 191.61 21.8329C191.937 20.6296 192.87 19.7133 193.253 18.5495C193.987 16.3211 195.734 13.8971 198.231 13.7457C199.112 13.6921 200.581 11.4385 200.252 11.4574C196.643 11.675 194.346 14.5216 192.353 17.272C191.24 18.8081 190.403 20.7936 189.684 22.5315C189.011 24.1575 188.507 26.1462 189.249 27.821C190.648 30.983 196.386 24.8041 197.276 23.7364C197.409 23.5771 197.521 23.4179 197.644 23.2586C197.631 23.8957 197.62 24.5297 197.605 25.1558C197.551 27.329 200.039 27.0215 201.493 26.7218C203.236 26.3622 204.864 24.9113 205.533 23.2964C205.838 22.5662 203.524 24.2032 203.25 24.8609Z" fill="white"/>
<path d="M229.668 1.06786C229.686 0.746139 229.117 1.01582 228.561 1.41482C227.548 1.74915 226.601 2.09768 225.813 2.3926C225.145 2.64177 223.427 4.8954 224.172 4.61626C224.97 4.31819 225.955 3.87346 227.021 3.43188C225.649 6.38415 225.603 10.0477 225.001 13.1781C224.122 17.7516 223.225 22.292 222.267 26.8387C222.079 27.7297 224.404 25.9681 224.55 25.279C225.121 22.5648 225.941 19.887 226.452 17.1618C226.452 17.1602 226.452 17.1587 226.452 17.1571C230.904 18.9013 227.385 27.755 231.905 29.1806C232.624 29.4077 234.528 27.0831 233.926 26.8923C230.115 25.6906 232.4 18.0592 229.414 15.4491C233.991 13.7617 238.832 11.896 239.642 6.49139C240.774 -1.06749 234.694 -0.433506 229.668 1.06786ZM235.985 10.9781C233.118 12.8927 230.191 13.4352 227.153 14.7647C227.092 14.7915 226.953 14.9019 226.788 15.0438C227.065 13.2586 227.314 11.4702 227.655 9.69598C228.031 7.74358 228.082 4.7992 228.882 2.71905C231.411 1.84062 234.078 1.38485 235.758 3.01238C237.267 4.47274 237.997 9.63448 235.985 10.9781Z" fill="white"/>
<path d="M247.651 22.9605C245.486 25.0044 241.681 26.7471 239.201 24.1717C237.835 22.7539 238.228 19.8064 238.693 17.761C241.662 17.9329 244.992 18.2404 246.786 15.4222C247.892 13.6811 246.228 11.8454 244.629 11.2067C242.837 10.4907 240.728 12.1797 239.586 13.3704C236.643 16.4441 234.839 21.8503 236.643 25.927C237.461 27.7737 240.417 27.993 242.074 27.5451C244.457 26.9 246.52 25.2851 248.287 23.6182C249.623 22.3581 248.982 21.7052 247.651 22.9605ZM243.004 13.6559C243.429 13.8861 243.795 14.1873 244.103 14.5611C244.236 14.7582 244.368 14.9554 244.501 15.1525C244.507 15.3165 244.518 15.4569 244.531 15.5878C242.889 15.8007 241.058 15.4569 239.471 15.4206C239.458 15.4206 239.441 15.4316 239.428 15.4316C240.104 14.047 241.271 12.9635 243.004 13.6559Z" fill="white"/>
<path d="M274.298 23.2635C272.157 25.6764 269.288 23.9117 270.343 20.5683C270.551 19.9075 270.736 19.2357 270.919 18.5622C271.838 17.2233 272.506 15.7472 272.782 14.0692C272.932 13.8074 272.984 13.5913 272.873 13.492C272.883 13.3989 272.91 13.3138 272.916 13.2191C272.93 13.0299 272.754 13.0709 272.504 13.2113C269.316 10.8709 265.819 13.3832 263.334 15.7661C260.991 18.0119 258.604 20.9957 258.549 24.3816C258.438 24.0615 257.404 24.5788 256.866 25.2427C254.731 25.6606 253.875 25.0818 254.297 23.5079C254.303 22.3425 254.359 21.1802 254.461 20.0195C254.624 17.6129 254.943 15.1936 255.382 12.8233C255.547 11.9291 255.724 11.0286 255.899 10.1265C257.145 10.0272 258.377 9.83319 259.632 9.79219C260.51 9.7638 262.006 7.49282 261.653 7.50386C260.189 7.55275 258.759 7.85082 257.295 7.89971C256.973 7.91075 256.649 7.90286 256.327 7.90759C256.755 5.67447 257.151 3.4303 257.387 1.19402C257.684 0.752446 257.846 0.381836 257.691 0.381836H257.295C256.492 0.381836 255.175 1.71761 255.105 2.4951C254.94 4.31661 254.682 6.12235 254.39 7.92336C253.509 7.91548 252.628 7.90128 251.75 7.90128C250.88 7.90128 249.346 10.1896 249.729 10.1896H254.003C253.111 15.2315 252.072 20.256 251.937 25.4477C251.806 30.5006 256.072 27.7723 258.083 25.2963C258.397 24.9099 258.528 24.6592 258.558 24.4967C258.558 24.9399 258.587 25.3878 258.672 25.8436C259.46 30.0591 265.336 24.4479 266.325 23.5332C266.929 22.9733 267.529 22.404 268.115 21.8268C267.673 23.2619 267.291 24.9431 268.192 26.0013C270.605 28.8305 274.088 24.9257 275.515 23.3171C276.961 21.6848 275.098 22.3614 274.298 23.2635ZM261.607 24.7853C258.427 23.53 264.556 11.0586 270.325 15.4696C269.668 16.7534 269.231 18.0986 268.829 19.4833C268.475 19.9516 268.082 20.42 267.654 20.9247C266.437 22.3567 263.819 25.659 261.607 24.7853Z" fill="white"/>
<path d="M292.518 25.4495C290.183 26.8105 291.601 18.3369 291.734 17.2266C291.961 15.3105 292.581 12.6453 291.096 11.1155C290.903 10.9184 290.396 11.2716 290.259 11.3741C289.176 12.18 288.123 13.2335 287.207 14.3832C287.393 12.4371 287.243 10.6818 286.045 10.9862C283.784 11.5602 282.234 14.1088 281.173 16.0028C280.658 16.9207 280.036 17.6998 279.507 18.5766C279.558 18.3763 279.614 18.1792 279.651 17.971C280.104 15.4603 280.715 13.019 280.443 10.4531C280.379 9.83808 279.063 10.9862 278.945 11.0934C277.816 12.1154 275.311 13.3817 275.311 15.1607C275.311 15.5408 277.289 14.3106 277.606 13.4417C277.774 13.2997 277.938 13.1531 278.107 13.0127C278.266 15.5218 277.843 18.3006 277.001 20.6268C276.173 22.9198 275.183 24.9511 275.707 27.4271C275.863 28.1636 277.584 26.3894 277.734 26.1891C278.909 24.6262 279.048 22.7227 280.025 21.0684C280.552 20.1757 280.865 19.1349 281.196 18.1603C281.582 17.0295 282.818 15.6511 283.473 14.4825C284.228 13.1373 284.94 14.0394 284.891 15.1465C284.81 16.9696 284.498 18.739 284.064 20.5117C283.77 21.7087 283.269 22.893 282.879 24.0632C282.362 25.1088 281.834 26.2995 282.044 27.4287C282.156 28.0295 283.402 26.9335 283.543 26.7884C284.139 26.1702 284.763 25.5725 284.874 24.6704C285.025 23.4387 285.309 22.2937 285.649 21.1488C286.026 20.3855 286.396 19.66 286.612 19.0513C287.235 17.2929 287.666 15.0661 289.05 13.601C290.747 15.935 289.073 21.3901 288.829 23.8677C288.609 26.0787 288.33 29.2344 291.361 27.4681C291.888 27.1574 293.786 24.7098 292.518 25.4495Z" fill="white"/>
<path d="M309.133 25.4144C307.645 27.9929 306.121 24.6574 305.944 24.0029C305.647 22.91 305.796 21.5916 305.796 20.4734V12.8247C305.796 12.3736 303.492 13.9601 303.437 14.7629C303.208 18.0952 301.37 21.0207 299.509 23.7111C298.854 24.6574 298.067 26.5152 296.713 25.662C295.971 25.1936 295.983 24.0723 296.005 23.3153C296.081 20.7683 298.454 11.7333 302.291 14.0989C303.001 14.5373 304.954 12.1497 304.563 11.9084C301.932 10.2872 298.798 13.3277 297.36 15.3369C295.188 18.3696 294.114 21.601 293.647 25.2551C293.512 26.3117 293.872 27.862 295.049 28.2073C296.53 28.6426 297.824 27.5213 298.767 26.4552C300.401 24.6069 302.106 22.3691 303.434 19.9703V22.4148C303.434 24.3388 303.18 26.5025 304.667 27.9503C306.915 30.1377 310.277 25.9127 311.189 24.3341C311.931 23.0456 309.441 24.8813 309.133 25.4144Z" fill="white"/>
<path d="M317.682 24.2647C317.41 24.5013 315.478 26.7202 316.054 24.8845C316.589 23.1829 316.078 20.5618 316.194 18.7592C316.595 12.5802 316.829 6.36188 316.884 0.160857C316.888 -0.244449 314.532 1.23642 314.526 2.09907C314.48 7.24661 314.175 12.3847 314.129 17.5322C314.102 20.5034 312.58 25.2441 313.747 27.9913C313.788 28.0071 313.831 28.0229 313.872 28.0402C315.751 27.9393 316.379 26.6256 317.69 25.4822C318.594 24.6953 319.328 22.8312 317.682 24.2647Z" fill="white"/>
<path d="M332.287 12.8278C332.048 11.6435 331.183 11.3422 330.313 10.7193C330.102 10.5679 329.739 10.7319 329.361 11.0126C325.09 9.2274 321.753 14.2614 320.482 17.8271C319.557 20.4198 319.503 23.0866 321.011 25.4727C322.896 28.4597 326.603 27.2753 328.997 25.8796C329.522 25.5737 331.42 23.1261 330.152 23.8657C326.398 26.0547 323.002 24.6369 322.244 20.4908C322.667 20.1896 323.101 19.7874 323.385 19.3285C323.414 19.3112 323.425 19.308 323.458 19.2891C323.748 19.1582 324.044 19.0431 324.345 18.9421C324.985 18.7119 325.646 18.5447 326.305 18.3775C327.678 18.0274 328.768 18.4043 330.149 18.499C330.905 18.551 332.32 17.119 332.339 16.3857C332.369 15.1855 332.525 14.0169 332.287 12.8278ZM328.935 15.9126C327.808 16.1886 326.687 16.4645 325.593 16.8588C324.342 17.3083 323.019 18.0795 322.122 19.1456C322.17 15.8511 324.424 11.3785 328.04 13.7031C328.242 13.8324 328.553 13.7094 328.881 13.4839C329.432 13.8687 329.822 14.2582 330.015 15.2108C330.059 15.43 330.076 15.6555 330.088 15.8826C329.701 15.8369 329.315 15.8195 328.935 15.9126Z" fill="white"/>
<path d="M342.689 15.6492C341.937 15.113 340.561 15.2771 339.695 15.2219C337.905 15.1083 337.769 13.9334 338.203 12.7033C339.812 12.5913 341.12 13.4619 342.698 14.0974C343.551 14.4412 345.25 12.0188 344.97 11.9069C342.463 10.8975 339.95 9.19431 337.575 11.4858C336.411 12.6071 334.82 15.4505 335.89 16.9314C337.351 18.9516 341.402 16.0577 341.854 19.789C341.942 20.5208 342.158 21.1658 342.359 21.885C342.964 24.0503 340.557 24.8751 338.949 25.0296C336.805 25.2362 335.054 24.167 334.716 21.9244C334.635 21.3929 332.235 23.063 332.357 23.8626C333.385 30.6629 342.31 26.3386 344.233 22.4338C345.3 20.2637 344.598 17.0118 342.689 15.6492Z" fill="white"/>
</svg>
