<svg width="144" height="127" viewBox="0 0 144 127" fill="none" xmlns="http://www.w3.org/2000/svg">
<path d="M58.1823 22.148L45.9463 17.291V46.781L58.1823 53.845V22.148Z" fill="white"/>
<path d="M65.625 114.985L88.808 101.221V101.272L100.369 94.566V94.483L107.062 84.696L101.955 77.256L65.625 97.993V114.985Z" fill="white"/>
<path d="M21.627 59.389L29.364 70.045L47.71 80.606L58.182 86.635V83.0959V65.166L29.364 48.655L21.627 59.389Z" fill="white"/>
<path d="M88.4603 22.148H65.6254L65.6104 33.621L88.4603 33.322V22.148Z" fill="white"/>
<path d="M143.526 53.163L133.658 37.821L121.708 38.72C112.134 16.21 89.7975 0.387024 63.8345 0.387024C29.1755 0.387024 0.978516 28.584 0.978516 63.244C0.978516 97.903 29.1765 126.101 63.8345 126.101C96.8625 126.101 124.022 100.496 126.505 68.093C126.582 67.091 126.627 66.08 126.656 65.066L133.657 65.657L143.526 53.163ZM63.8345 119.877C61.9275 119.877 60.0425 119.781 58.1835 119.596V98.798L47.7115 92.835V117.535C24.3135 110.574 7.20044 88.871 7.20044 63.243C7.20044 32.015 32.6065 6.60901 63.8345 6.60901C86.4775 6.60901 106.056 19.968 115.111 39.217L65.6255 42.941V88.302L73.0775 83.984V60.5389L120.453 64.541C119.761 95.172 94.6295 119.877 63.8345 119.877Z" fill="white"/>
</svg>
