<svg width="144" height="127" viewBox="0 0 144 127" fill="none" xmlns="http://www.w3.org/2000/svg">
<path d="M58.0104 22.148L45.7744 17.291V46.781L58.0104 53.845V22.148Z" fill="black"/>
<path d="M65.4531 114.985L88.6361 101.221V101.272L100.197 94.566V94.483L106.89 84.696L101.783 77.256L65.4531 97.993V114.985Z" fill="black"/>
<path d="M21.4561 59.389L29.193 70.045L47.5389 80.606L58.011 86.635V83.0959V65.166L29.193 48.655L21.4561 59.389Z" fill="black"/>
<path d="M88.2885 22.148H65.4535L65.4385 33.621L88.2885 33.322V22.148Z" fill="black"/>
<path d="M143.355 53.163L133.487 37.821L121.537 38.72C111.963 16.21 89.6256 0.387024 63.6626 0.387024C29.0036 0.387024 0.806641 28.584 0.806641 63.244C0.806641 97.903 29.0046 126.101 63.6626 126.101C96.6906 126.101 123.851 100.496 126.334 68.093C126.411 67.091 126.455 66.08 126.484 65.066L133.486 65.657L143.355 53.163ZM63.6626 119.877C61.7556 119.877 59.8706 119.781 58.0116 119.596V98.798L47.5397 92.835V117.535C24.1417 110.574 7.02869 88.871 7.02869 63.243C7.02869 32.015 32.4346 6.60901 63.6626 6.60901C86.3056 6.60901 105.885 19.968 114.94 39.217L65.4536 42.941V88.302L72.9056 83.984V60.5389L120.281 64.541C119.589 95.172 94.4566 119.877 63.6626 119.877Z" fill="black"/>
</svg>
