<svg width="207" height="167" viewBox="0 0 207 167" fill="none" xmlns="http://www.w3.org/2000/svg">
<path d="M96.3187 100.19C123.182 100.19 144.96 78.4127 144.96 51.549C144.96 24.6853 123.182 2.908 96.3187 2.908C69.4551 2.908 47.6777 24.6853 47.6777 51.549C47.6777 78.4127 69.4551 100.19 96.3187 100.19Z" fill="#E5E5E5"/>
<path d="M81.7559 42.385L91.7179 48.136V16.187L81.7559 9.928V42.385Z" fill="#4FB0BB"/>
<path d="M127.354 59.513L96.3184 77.153V91.122L116.65 79.024V79.066L126.062 73.606V73.538L131.512 65.571L127.354 59.513Z" fill="#1B708A"/>
<path d="M61.9561 49.908L68.2551 58.583L83.192 67.182V98.397C85.943 99.166 88.793 99.699 91.718 99.973V72.09V69.209V54.61L68.2561 41.168L61.9561 49.908Z" fill="#4FB0BB"/>
<path d="M96.3185 102.723C68.1015 102.723 45.1445 79.766 45.1445 51.549C45.1445 23.332 68.1015 0.375 96.3185 0.375C124.537 0.375 147.493 23.332 147.493 51.549C147.493 52.877 147.442 54.194 147.342 55.496C145.321 81.877 123.208 102.723 96.3185 102.723ZM96.3185 5.441C70.8945 5.441 50.2105 26.125 50.2105 51.549C50.2105 76.973 70.8945 97.657 96.3185 97.657C121.743 97.657 142.427 76.973 142.427 51.549C142.427 26.125 121.743 5.441 96.3185 5.441Z" fill="#1B708A"/>
<path d="M96.3189 100.13C97.1259 100.17 95.5019 100.191 96.3189 100.191C98.8779 100.191 101.391 99.992 103.844 99.611V90.57L96.3189 94.736V100.13Z" fill="#1B708A"/>
<g opacity="0.1">
<path opacity="0.1" d="M147.463 52.835L110.297 17.001H96.3183V41.168V45.12V73.902L96.2793 102.721C96.2793 102.721 106.815 103.201 118.22 97.81C123.252 95.431 128.677 91.792 133.72 86.386C148.273 70.784 147.463 52.835 147.463 52.835Z" fill="#414042"/>
</g>
<path d="M110.297 17.001H96.3184V26.159L110.297 25.728V17.001Z" fill="#4FB0BB"/>
<path d="M153.165 26.625L96.3184 30.738V72.414L103.843 68.151V45.12L153.165 49.286L161.198 39.115L153.165 26.625Z" fill="#D83830"/>
<path d="M0.911133 152.793C0.911133 152.619 0.960129 152.469 1.05713 152.346C1.15513 152.223 1.29313 152.161 1.47413 152.161C1.65413 152.161 1.79413 152.222 1.89413 152.346C1.99413 152.469 2.04413 152.619 2.04413 152.793C2.04413 152.968 1.99413 153.116 1.89413 153.236C1.79413 153.357 1.65313 153.417 1.47413 153.417C1.29413 153.417 1.15513 153.356 1.05713 153.236C0.959129 153.116 0.911133 152.967 0.911133 152.793ZM1.89813 163.538H1.03413V155.197H1.89813V163.538Z" fill="#1B708A"/>
<path d="M5.94886 155.198L5.97186 156.524C6.21886 156.072 6.53286 155.712 6.91586 155.445C7.29886 155.178 7.73486 155.044 8.22286 155.044C8.57186 155.044 8.88386 155.101 9.15886 155.214C9.43386 155.327 9.66786 155.507 9.86086 155.753C10.0529 156 10.2019 156.317 10.3039 156.705C10.4069 157.093 10.4589 157.562 10.4589 158.112V163.539H9.61086V158.105C9.61086 157.678 9.57286 157.321 9.49886 157.033C9.42386 156.745 9.31786 156.516 9.17886 156.343C9.03986 156.171 8.87187 156.047 8.67387 155.973C8.47587 155.898 8.25387 155.861 8.00687 155.861C7.74987 155.861 7.51487 155.914 7.30087 156.019C7.08787 156.124 6.89686 156.264 6.72686 156.439C6.55786 156.614 6.41086 156.814 6.28786 157.04C6.16486 157.266 6.06386 157.503 5.98686 157.749V163.538H5.13086V155.197H5.94886V155.198Z" fill="#1B708A"/>
<path d="M13.293 158.983C13.293 158.284 13.356 157.687 13.482 157.19C13.608 156.694 13.789 156.287 14.026 155.968C14.263 155.649 14.549 155.415 14.885 155.267C15.221 155.118 15.598 155.043 16.014 155.043C16.513 155.043 16.935 155.155 17.282 155.378C17.629 155.601 17.913 155.914 18.134 156.314V151.697H18.99V163.537H18.188L18.149 162.466C17.929 162.852 17.642 163.152 17.29 163.368C16.938 163.584 16.51 163.692 16.006 163.692C15.59 163.692 15.215 163.613 14.881 163.456C14.547 163.299 14.263 163.059 14.029 162.735C13.795 162.411 13.614 162.003 13.486 161.509C13.357 161.016 13.293 160.433 13.293 159.759V158.983V158.983ZM14.164 159.761C14.164 160.83 14.324 161.616 14.645 162.12C14.966 162.623 15.476 162.875 16.175 162.875C16.427 162.875 16.654 162.843 16.857 162.778C17.06 162.714 17.243 162.624 17.404 162.508C17.566 162.393 17.706 162.257 17.824 162.099C17.942 161.942 18.045 161.772 18.133 161.587V157.262C18.056 157.077 17.96 156.9 17.848 156.731C17.735 156.561 17.6 156.413 17.443 156.288C17.286 156.163 17.104 156.06 16.896 155.984C16.688 155.907 16.45 155.868 16.183 155.868C15.479 155.868 14.967 156.121 14.645 156.628C14.324 157.134 14.164 157.919 14.164 158.983V159.761V159.761Z" fill="#1B708A"/>
<path d="M24.9225 163.693C24.4595 163.693 24.0355 163.617 23.6505 163.465C23.2645 163.313 22.9325 163.082 22.6525 162.771C22.3725 162.46 22.1555 162.068 22.0005 161.595C21.8465 161.122 21.7695 160.562 21.7695 159.915V158.967C21.7695 158.268 21.8515 157.671 22.0165 157.174C22.1805 156.678 22.4005 156.272 22.6755 155.956C22.9505 155.64 23.2695 155.409 23.6315 155.262C23.9935 155.116 24.3755 155.042 24.7765 155.042C25.6915 155.042 26.3865 155.344 26.8615 155.948C27.3375 156.552 27.5745 157.475 27.5745 158.719V159.444H22.6185V159.914C22.6185 160.423 22.6755 160.865 22.7875 161.24C22.9015 161.615 23.0605 161.926 23.2655 162.173C23.4715 162.419 23.7175 162.603 24.0055 162.724C24.2935 162.845 24.6125 162.906 24.9615 162.906C25.3935 162.906 25.7685 162.832 26.0875 162.686C26.4055 162.54 26.6965 162.312 26.9585 162.004L27.4055 162.574C27.2925 162.728 27.1605 162.872 27.0085 163.006C26.8565 163.14 26.6795 163.258 26.4765 163.361C26.2735 163.464 26.0435 163.545 25.7865 163.604C25.5285 163.663 25.2415 163.693 24.9225 163.693ZM24.7765 155.845C24.4735 155.845 24.1945 155.897 23.9405 155.999C23.6865 156.102 23.4655 156.265 23.2775 156.488C23.0895 156.712 22.9395 157.001 22.8265 157.355C22.7135 157.709 22.6465 158.138 22.6265 158.642H26.7195V158.418C26.7095 158.012 26.6635 157.65 26.5815 157.331C26.4995 157.012 26.3795 156.743 26.2235 156.522C26.0665 156.301 25.8675 156.133 25.6265 156.017C25.3825 155.903 25.1005 155.845 24.7765 155.845Z" fill="#1B708A"/>
<path d="M35.9497 159.761C35.9497 160.435 35.8897 161.018 35.7687 161.511C35.6477 162.005 35.4747 162.413 35.2487 162.737C35.0217 163.061 34.7427 163.301 34.4087 163.458C34.0747 163.615 33.6967 163.694 33.2757 163.694C32.7717 163.694 32.3417 163.592 31.9847 163.39C31.6277 163.187 31.3357 162.903 31.1097 162.538V166.747H30.2617V155.2H31.0477L31.0857 156.341C31.3167 155.935 31.6097 155.618 31.9647 155.389C32.3187 155.161 32.7487 155.046 33.2517 155.046C33.6837 155.046 34.0657 155.121 34.4007 155.27C34.7347 155.419 35.0167 155.653 35.2487 155.971C35.4807 156.289 35.6547 156.697 35.7727 157.193C35.8907 157.689 35.9497 158.287 35.9497 158.986V159.761V159.761ZM35.0947 158.983C35.0947 157.914 34.9287 157.128 34.5977 156.624C34.2667 156.12 33.7487 155.868 33.0447 155.868C32.7817 155.868 32.5477 155.906 32.3387 155.98C32.1307 156.054 31.9477 156.156 31.7917 156.284C31.6347 156.413 31.5017 156.559 31.3907 156.723C31.2807 156.888 31.1867 157.062 31.1097 157.247V161.641C31.1917 161.821 31.2927 161.988 31.4137 162.142C31.5347 162.296 31.6747 162.43 31.8337 162.543C31.9927 162.656 32.1737 162.744 32.3767 162.805C32.5797 162.866 32.8077 162.897 33.0587 162.897C33.7527 162.897 34.2657 162.641 34.5967 162.13C34.9287 161.619 35.0937 160.829 35.0937 159.76V158.983H35.0947Z" fill="#1B708A"/>
<path d="M41.5592 163.693C41.0962 163.693 40.6732 163.617 40.2882 163.465C39.9022 163.313 39.5692 163.082 39.2902 162.771C39.0092 162.46 38.7932 162.068 38.6382 161.595C38.4842 161.122 38.4072 160.562 38.4072 159.915V158.967C38.4072 158.268 38.4892 157.671 38.6542 157.174C38.8182 156.678 39.0382 156.272 39.3132 155.956C39.5882 155.64 39.9072 155.409 40.2692 155.262C40.6312 155.116 41.0132 155.042 41.4142 155.042C42.3292 155.042 43.0242 155.344 43.4992 155.948C43.9742 156.552 44.2122 157.475 44.2122 158.719V159.444H39.2562V159.914C39.2562 160.423 39.3122 160.865 39.4252 161.24C39.5382 161.615 39.6982 161.926 39.9032 162.173C40.1082 162.419 40.3552 162.603 40.6432 162.724C40.9312 162.845 41.2502 162.906 41.5992 162.906C42.0312 162.906 42.4052 162.832 42.7242 162.686C43.0432 162.54 43.3332 162.312 43.5952 162.004L44.0432 162.574C43.9292 162.728 43.7972 162.872 43.6462 163.006C43.4942 163.14 43.3172 163.258 43.1142 163.361C42.9112 163.464 42.6812 163.545 42.4242 163.604C42.1662 163.663 41.8782 163.693 41.5592 163.693ZM41.4132 155.845C41.1102 155.845 40.8312 155.897 40.5772 155.999C40.3232 156.102 40.1012 156.265 39.9142 156.488C39.7262 156.712 39.5762 157.001 39.4632 157.355C39.3502 157.709 39.2832 158.138 39.2632 158.642H43.3562V158.418C43.3462 158.012 43.2992 157.65 43.2182 157.331C43.1352 157.012 43.0162 156.743 42.8602 156.522C42.7032 156.301 42.5032 156.133 42.2622 156.017C42.0192 155.903 41.7372 155.845 41.4132 155.845Z" fill="#1B708A"/>
<path d="M47.7165 155.198L47.7395 156.524C47.9865 156.072 48.3005 155.712 48.6835 155.445C49.0665 155.178 49.5025 155.044 49.9905 155.044C50.3395 155.044 50.6515 155.101 50.9265 155.214C51.2015 155.327 51.4355 155.507 51.6285 155.753C51.8205 156 51.9685 156.317 52.0715 156.705C52.1745 157.093 52.2255 157.562 52.2255 158.112V163.539H51.3775V158.105C51.3775 157.678 51.3395 157.321 51.2655 157.033C51.1905 156.745 51.0845 156.516 50.9455 156.343C50.8075 156.171 50.6385 156.047 50.4405 155.973C50.2425 155.898 50.0205 155.861 49.7735 155.861C49.5165 155.861 49.2805 155.914 49.0675 156.019C48.8545 156.124 48.6635 156.264 48.4935 156.439C48.3235 156.614 48.1775 156.814 48.0535 157.04C47.9295 157.266 47.8295 157.503 47.7525 157.749V163.538H46.8965V155.197H47.7165V155.198Z" fill="#1B708A"/>
<path d="M55.0605 158.983C55.0605 158.284 55.1235 157.687 55.2495 157.19C55.3755 156.694 55.5566 156.287 55.7926 155.968C56.0286 155.649 56.3155 155.415 56.6525 155.267C56.9885 155.118 57.3656 155.043 57.7816 155.043C58.2796 155.043 58.7025 155.155 59.0495 155.378C59.3965 155.601 59.6806 155.914 59.9016 156.314V151.697H60.7576V163.537H59.9556L59.9176 162.466C59.6966 162.852 59.4095 163.152 59.0585 163.368C58.7065 163.584 58.2786 163.692 57.7746 163.692C57.3576 163.692 56.9825 163.613 56.6485 163.456C56.3145 163.299 56.0305 163.059 55.7975 162.735C55.5635 162.411 55.3826 162.003 55.2536 161.509C55.1246 161.016 55.0616 160.433 55.0616 159.759V158.983H55.0605ZM55.9305 159.761C55.9305 160.83 56.0906 161.616 56.4126 162.12C56.7336 162.623 57.2436 162.875 57.9426 162.875C58.1946 162.875 58.4215 162.843 58.6255 162.778C58.8285 162.714 59.0105 162.624 59.1725 162.508C59.3345 162.393 59.4745 162.257 59.5925 162.099C59.7105 161.942 59.8125 161.772 59.9005 161.587V157.262C59.8235 157.077 59.7286 156.9 59.6156 156.731C59.5026 156.561 59.3676 156.413 59.2106 156.288C59.0536 156.163 58.8715 156.06 58.6635 155.984C58.4555 155.907 58.2175 155.868 57.9505 155.868C57.2455 155.868 56.7336 156.121 56.4126 156.628C56.0906 157.134 55.9305 157.919 55.9305 158.983V159.761V159.761Z" fill="#1B708A"/>
<path d="M66.6891 163.693C66.2261 163.693 65.8021 163.617 65.4171 163.465C65.0311 163.313 64.6991 163.082 64.4191 162.771C64.1391 162.46 63.9221 162.068 63.7681 161.595C63.6141 161.122 63.5371 160.562 63.5371 159.915V158.967C63.5371 158.268 63.6191 157.671 63.7841 157.174C63.9481 156.678 64.1681 156.272 64.4431 155.956C64.7181 155.64 65.0361 155.409 65.3991 155.262C65.7611 155.116 66.1431 155.042 66.5441 155.042C67.4581 155.042 68.1541 155.344 68.6291 155.948C69.1051 156.552 69.3421 157.475 69.3421 158.719V159.444H64.3851V159.914C64.3851 160.423 64.4421 160.865 64.5551 161.24C64.6681 161.615 64.8271 161.926 65.0331 162.173C65.2391 162.419 65.4851 162.603 65.7731 162.724C66.0611 162.845 66.3791 162.906 66.7291 162.906C67.1611 162.906 67.5361 162.832 67.8541 162.686C68.1721 162.54 68.4631 162.312 68.7251 162.004L69.1721 162.574C69.0591 162.728 68.9271 162.872 68.7751 163.006C68.6231 163.14 68.4471 163.258 68.2431 163.361C68.0401 163.464 67.8101 163.545 67.5531 163.604C67.2951 163.663 67.0071 163.693 66.6891 163.693ZM66.5431 155.845C66.2391 155.845 65.9611 155.897 65.7061 155.999C65.4521 156.102 65.2311 156.265 65.0441 156.488C64.8561 156.712 64.7061 157.001 64.5931 157.355C64.4801 157.709 64.4131 158.138 64.3931 158.642H68.4861V158.418C68.4761 158.012 68.4301 157.65 68.3471 157.331C68.2651 157.012 68.1451 156.743 67.9891 156.522C67.8321 156.301 67.6331 156.133 67.3921 156.017C67.1491 155.903 66.8671 155.845 66.5431 155.845Z" fill="#1B708A"/>
<path d="M72.8454 155.198L72.8683 156.524C73.1153 156.072 73.4293 155.712 73.8123 155.445C74.1953 155.178 74.6314 155.044 75.1194 155.044C75.4684 155.044 75.7803 155.101 76.0553 155.214C76.3303 155.327 76.5644 155.507 76.7574 155.753C76.9494 156 77.0983 156.317 77.2003 156.705C77.3033 157.093 77.3553 157.562 77.3553 158.112V163.539H76.5074V158.105C76.5074 157.678 76.4694 157.321 76.3954 157.033C76.3204 156.745 76.2143 156.516 76.0753 156.343C75.9363 156.171 75.7684 156.047 75.5704 155.973C75.3724 155.898 75.1504 155.861 74.9034 155.861C74.6464 155.861 74.4114 155.914 74.1974 156.019C73.9844 156.124 73.7934 156.264 73.6234 156.439C73.4544 156.614 73.3074 156.814 73.1844 157.04C73.0614 157.266 72.9603 157.503 72.8833 157.749V163.538H72.0273V155.197H72.8454V155.198Z" fill="#1B708A"/>
<path d="M81.7856 153.07V155.198H83.2116V155.969H81.7856V161.511C81.7856 161.799 81.8096 162.032 81.8586 162.209C81.9076 162.386 81.9726 162.524 82.0546 162.622C82.1376 162.72 82.2306 162.785 82.3356 162.819C82.4416 162.852 82.5526 162.869 82.6706 162.869C82.7836 162.869 82.8946 162.86 83.0026 162.842C83.1106 162.824 83.2056 162.807 83.2876 162.792L83.3106 163.563C83.2186 163.604 83.0966 163.636 82.9446 163.66C82.7936 163.683 82.6346 163.695 82.4706 163.695C82.2496 163.695 82.0456 163.659 81.8576 163.587C81.6696 163.515 81.5066 163.394 81.3676 163.224C81.2286 163.055 81.1206 162.83 81.0436 162.55C80.9666 162.27 80.9286 161.921 80.9286 161.505V155.97H79.6416V155.199H80.9286V153.071H81.7856V153.07Z" fill="#1B708A"/>
<path d="M92.9946 162.899C93.2306 162.899 93.4596 162.868 93.6806 162.807C93.9016 162.746 94.0986 162.64 94.2706 162.491C94.4426 162.342 94.5837 162.143 94.6947 161.894C94.8047 161.645 94.8677 161.332 94.8837 160.957H95.7086C95.6876 161.404 95.6037 161.799 95.4547 162.141C95.3057 162.483 95.1076 162.768 94.8606 162.997C94.6146 163.225 94.3316 163.399 94.0126 163.517C93.6936 163.635 93.3546 163.694 92.9946 163.694C91.9926 163.694 91.2387 163.37 90.7327 162.722C90.2257 162.075 89.9727 161.114 89.9727 159.839V158.898C89.9727 157.623 90.2257 156.663 90.7327 156.015C91.2387 155.368 91.9897 155.044 92.9877 155.044C93.3677 155.044 93.7217 155.105 94.0477 155.225C94.3737 155.346 94.6566 155.528 94.8956 155.772C95.1346 156.016 95.3266 156.325 95.4706 156.697C95.6146 157.069 95.6947 157.508 95.7097 158.011H94.8846C94.8696 157.626 94.8096 157.296 94.7076 157.021C94.6046 156.746 94.4696 156.521 94.3036 156.346C94.1366 156.171 93.9407 156.044 93.7177 155.965C93.4947 155.885 93.2517 155.845 92.9897 155.845C92.5937 155.845 92.2597 155.913 91.9877 156.049C91.7147 156.186 91.4936 156.384 91.3246 156.647C91.1556 156.909 91.0317 157.229 90.9547 157.607C90.8777 157.985 90.8387 158.415 90.8387 158.898V159.839C90.8387 160.327 90.8757 160.761 90.9507 161.142C91.0247 161.522 91.1467 161.842 91.3167 162.101C91.4867 162.361 91.7086 162.559 91.9836 162.695C92.2556 162.831 92.5936 162.899 92.9946 162.899Z" fill="#1B708A"/>
<path d="M101.657 156C101.569 155.984 101.483 155.972 101.399 155.961C101.314 155.951 101.22 155.946 101.118 155.946C100.866 155.946 100.639 155.991 100.435 156.081C100.232 156.171 100.054 156.297 99.8987 156.459C99.7447 156.621 99.6117 156.815 99.5017 157.041C99.3907 157.267 99.3047 157.514 99.2437 157.781V163.539H98.3877V155.198H99.2287L99.2437 156.447C99.4337 156.01 99.6857 155.667 99.9987 155.418C100.312 155.169 100.698 155.044 101.156 155.044C101.248 155.044 101.346 155.054 101.449 155.075C101.552 155.096 101.626 155.119 101.672 155.144L101.657 156Z" fill="#1B708A"/>
<path d="M106.633 163.693C106.17 163.693 105.747 163.617 105.362 163.465C104.976 163.313 104.643 163.082 104.364 162.771C104.083 162.46 103.867 162.068 103.712 161.595C103.558 161.122 103.481 160.562 103.481 159.915V158.967C103.481 158.268 103.563 157.671 103.728 157.174C103.892 156.678 104.112 156.272 104.387 155.956C104.662 155.64 104.981 155.409 105.343 155.262C105.705 155.116 106.087 155.042 106.488 155.042C107.403 155.042 108.098 155.344 108.573 155.948C109.048 156.552 109.286 157.475 109.286 158.719V159.444H104.33V159.914C104.33 160.423 104.386 160.865 104.499 161.24C104.612 161.615 104.772 161.926 104.977 162.173C105.182 162.419 105.429 162.603 105.717 162.724C106.005 162.845 106.324 162.906 106.673 162.906C107.105 162.906 107.479 162.832 107.798 162.686C108.117 162.54 108.407 162.312 108.669 162.004L109.117 162.574C109.003 162.728 108.871 162.872 108.72 163.006C108.568 163.14 108.391 163.258 108.188 163.361C107.985 163.464 107.755 163.545 107.498 163.604C107.24 163.663 106.952 163.693 106.633 163.693ZM106.487 155.845C106.184 155.845 105.905 155.897 105.651 155.999C105.397 156.102 105.175 156.265 104.988 156.488C104.8 156.712 104.65 157.001 104.537 157.355C104.424 157.709 104.357 158.138 104.337 158.642H108.43V158.418C108.42 158.012 108.373 157.65 108.292 157.331C108.209 157.012 108.09 156.743 107.934 156.522C107.777 156.301 107.577 156.133 107.336 156.017C107.093 155.903 106.81 155.845 106.487 155.845Z" fill="#1B708A"/>
<path d="M116.382 163.538C116.341 163.399 116.307 163.226 116.282 163.018C116.256 162.81 116.238 162.598 116.228 162.382C116.12 162.557 115.992 162.723 115.842 162.879C115.693 163.036 115.523 163.175 115.329 163.295C115.137 163.416 114.922 163.512 114.685 163.584C114.449 163.656 114.194 163.692 113.922 163.692C113.578 163.692 113.265 163.643 112.985 163.545C112.705 163.447 112.465 163.301 112.264 163.106C112.063 162.911 111.909 162.666 111.801 162.374C111.693 162.081 111.639 161.739 111.639 161.349C111.639 160.964 111.706 160.608 111.839 160.282C111.973 159.955 112.172 159.674 112.436 159.438C112.7 159.202 113.031 159.017 113.427 158.883C113.823 158.749 114.283 158.683 114.807 158.683H116.217V157.519C116.217 156.923 116.07 156.495 115.774 156.235C115.478 155.975 115.045 155.846 114.475 155.846C114.208 155.846 113.962 155.887 113.739 155.969C113.515 156.051 113.324 156.166 113.165 156.312C113.005 156.458 112.882 156.633 112.794 156.836C112.707 157.039 112.664 157.261 112.664 157.503L111.808 157.495C111.808 157.171 111.872 156.862 112 156.566C112.129 156.271 112.311 156.01 112.547 155.784C112.783 155.558 113.068 155.378 113.403 155.244C113.737 155.111 114.107 155.044 114.513 155.044C114.888 155.044 115.231 155.089 115.542 155.179C115.854 155.269 116.122 155.413 116.348 155.611C116.574 155.809 116.75 156.066 116.876 156.382C117.002 156.698 117.065 157.082 117.065 157.535V161.79C117.065 161.934 117.07 162.083 117.08 162.237C117.09 162.391 117.104 162.541 117.122 162.688C117.14 162.835 117.163 162.973 117.191 163.105C117.219 163.236 117.252 163.35 117.287 163.448V163.54H116.382V163.538ZM114.031 162.868C114.298 162.868 114.548 162.831 114.783 162.756C115.017 162.681 115.226 162.579 115.411 162.448C115.596 162.317 115.757 162.164 115.893 161.989C116.029 161.815 116.138 161.627 116.22 161.427V159.399H114.933C114.126 159.399 113.52 159.569 113.114 159.908C112.708 160.247 112.505 160.705 112.505 161.28C112.505 161.83 112.64 162.232 112.91 162.487C113.179 162.741 113.553 162.868 114.031 162.868Z" fill="#1B708A"/>
<path d="M121.56 153.07V155.198H122.986V155.969H121.56V161.511C121.56 161.799 121.584 162.032 121.633 162.209C121.682 162.386 121.747 162.524 121.829 162.622C121.912 162.72 122.005 162.785 122.11 162.819C122.216 162.852 122.327 162.869 122.445 162.869C122.558 162.869 122.669 162.86 122.777 162.842C122.885 162.824 122.98 162.807 123.062 162.792L123.085 163.563C122.993 163.604 122.871 163.636 122.719 163.66C122.568 163.683 122.409 163.695 122.245 163.695C122.024 163.695 121.82 163.659 121.632 163.587C121.444 163.515 121.281 163.394 121.142 163.224C121.003 163.055 120.895 162.83 120.818 162.55C120.741 162.27 120.703 161.921 120.703 161.505V155.97H119.416V155.199H120.703V153.071H121.56V153.07Z" fill="#1B708A"/>
<path d="M125.688 152.793C125.688 152.619 125.737 152.469 125.835 152.346C125.933 152.223 126.071 152.161 126.251 152.161C126.431 152.161 126.571 152.222 126.671 152.346C126.771 152.469 126.821 152.619 126.821 152.793C126.821 152.968 126.771 153.116 126.671 153.236C126.571 153.357 126.431 153.417 126.251 153.417C126.071 153.417 125.933 153.356 125.835 153.236C125.737 153.116 125.688 152.967 125.688 152.793ZM126.675 163.538H125.812V155.197H126.675V163.538Z" fill="#1B708A"/>
<path d="M132.122 162.197L134.173 155.198H135.052L132.454 163.539H131.776L129.163 155.198H130.042L132.122 162.197Z" fill="#1B708A"/>
<path d="M140.129 163.693C139.666 163.693 139.243 163.617 138.858 163.465C138.472 163.313 138.139 163.082 137.86 162.771C137.579 162.46 137.363 162.068 137.208 161.595C137.054 161.122 136.977 160.562 136.977 159.915V158.967C136.977 158.268 137.059 157.671 137.224 157.174C137.388 156.678 137.608 156.272 137.883 155.956C138.158 155.64 138.477 155.409 138.839 155.262C139.201 155.116 139.583 155.042 139.984 155.042C140.899 155.042 141.594 155.344 142.069 155.948C142.544 156.552 142.782 157.475 142.782 158.719V159.444H137.826V159.914C137.826 160.423 137.882 160.865 137.995 161.24C138.108 161.615 138.268 161.926 138.473 162.173C138.678 162.419 138.925 162.603 139.213 162.724C139.501 162.845 139.82 162.906 140.169 162.906C140.601 162.906 140.975 162.832 141.294 162.686C141.613 162.54 141.903 162.312 142.165 162.004L142.613 162.574C142.499 162.728 142.367 162.872 142.216 163.006C142.064 163.14 141.887 163.258 141.684 163.361C141.481 163.464 141.251 163.545 140.994 163.604C140.736 163.663 140.448 163.693 140.129 163.693ZM139.983 155.845C139.68 155.845 139.401 155.897 139.147 155.999C138.893 156.102 138.671 156.265 138.484 156.488C138.296 156.712 138.146 157.001 138.033 157.355C137.92 157.709 137.853 158.138 137.833 158.642H141.926V158.418C141.916 158.012 141.869 157.65 141.788 157.331C141.705 157.012 141.586 156.743 141.43 156.522C141.273 156.301 141.073 156.133 140.832 156.017C140.59 155.903 140.307 155.845 139.983 155.845Z" fill="#1B708A"/>
<path d="M155.571 159.761C155.571 160.435 155.511 161.018 155.39 161.511C155.269 162.005 155.096 162.413 154.87 162.737C154.643 163.061 154.364 163.301 154.03 163.458C153.696 163.615 153.318 163.694 152.897 163.694C152.393 163.694 151.963 163.592 151.606 163.39C151.249 163.187 150.957 162.903 150.731 162.538V166.747H149.883V155.2H150.669L150.707 156.341C150.938 155.935 151.231 155.618 151.586 155.389C151.94 155.161 152.37 155.046 152.873 155.046C153.305 155.046 153.687 155.121 154.022 155.27C154.356 155.419 154.638 155.653 154.87 155.971C155.102 156.289 155.276 156.697 155.394 157.193C155.512 157.689 155.571 158.287 155.571 158.986V159.761ZM154.715 158.983C154.715 157.914 154.549 157.128 154.218 156.624C153.887 156.12 153.369 155.868 152.665 155.868C152.402 155.868 152.168 155.906 151.959 155.98C151.751 156.054 151.568 156.156 151.412 156.284C151.255 156.413 151.122 156.559 151.011 156.723C150.901 156.888 150.807 157.062 150.73 157.247V161.641C150.812 161.821 150.913 161.988 151.034 162.142C151.155 162.296 151.295 162.43 151.454 162.543C151.613 162.656 151.794 162.744 151.997 162.805C152.2 162.866 152.428 162.897 152.679 162.897C153.373 162.897 153.886 162.641 154.217 162.13C154.549 161.619 154.714 160.829 154.714 159.76V158.983H154.715Z" fill="#1B708A"/>
<path d="M162.838 163.538C162.797 163.399 162.763 163.226 162.738 163.018C162.712 162.81 162.694 162.598 162.684 162.382C162.576 162.557 162.448 162.723 162.298 162.879C162.149 163.036 161.979 163.175 161.785 163.295C161.593 163.416 161.378 163.512 161.141 163.584C160.905 163.656 160.65 163.692 160.378 163.692C160.034 163.692 159.721 163.643 159.441 163.545C159.161 163.447 158.921 163.301 158.72 163.106C158.519 162.911 158.365 162.666 158.257 162.374C158.149 162.081 158.095 161.739 158.095 161.349C158.095 160.964 158.162 160.608 158.295 160.282C158.429 159.955 158.628 159.674 158.892 159.438C159.156 159.202 159.487 159.017 159.883 158.883C160.279 158.749 160.739 158.683 161.263 158.683H162.673V157.519C162.673 156.923 162.526 156.495 162.23 156.235C161.934 155.976 161.501 155.846 160.931 155.846C160.664 155.846 160.418 155.887 160.195 155.969C159.971 156.051 159.78 156.166 159.621 156.312C159.461 156.458 159.338 156.633 159.25 156.836C159.163 157.039 159.12 157.261 159.12 157.503L158.264 157.495C158.264 157.171 158.328 156.862 158.456 156.566C158.585 156.271 158.767 156.01 159.003 155.784C159.239 155.558 159.524 155.378 159.859 155.244C160.193 155.111 160.563 155.044 160.969 155.044C161.344 155.044 161.687 155.089 161.998 155.179C162.309 155.269 162.578 155.413 162.804 155.611C163.03 155.809 163.206 156.066 163.332 156.382C163.458 156.698 163.521 157.082 163.521 157.535V161.79C163.521 161.934 163.526 162.083 163.537 162.237C163.547 162.391 163.561 162.541 163.579 162.688C163.597 162.834 163.62 162.973 163.648 163.105C163.676 163.236 163.709 163.35 163.744 163.448V163.54H162.838V163.538ZM160.486 162.868C160.753 162.868 161.003 162.831 161.238 162.756C161.472 162.681 161.681 162.579 161.866 162.448C162.051 162.317 162.212 162.164 162.348 161.989C162.484 161.815 162.593 161.627 162.675 161.427V159.399H161.388C160.581 159.399 159.975 159.569 159.569 159.908C159.163 160.247 158.96 160.705 158.96 161.28C158.96 161.83 159.095 162.232 159.365 162.487C159.635 162.742 160.008 162.868 160.486 162.868Z" fill="#1B708A"/>
<path d="M169.997 156C169.909 155.984 169.824 155.972 169.739 155.961C169.655 155.951 169.561 155.946 169.458 155.946C169.206 155.946 168.979 155.991 168.775 156.081C168.572 156.171 168.394 156.297 168.239 156.459C168.085 156.621 167.953 156.815 167.842 157.041C167.731 157.267 167.646 157.514 167.584 157.781V163.539H166.728V155.198H167.568L167.583 156.447C167.773 156.01 168.025 155.667 168.338 155.418C168.651 155.169 169.037 155.044 169.494 155.044C169.586 155.044 169.684 155.054 169.787 155.075C169.889 155.096 169.964 155.119 170.01 155.144L169.997 156Z" fill="#1B708A"/>
<path d="M174.04 153.07V155.198H175.466V155.969H174.04V161.511C174.04 161.799 174.064 162.032 174.113 162.209C174.162 162.386 174.227 162.524 174.309 162.622C174.392 162.72 174.485 162.785 174.59 162.819C174.696 162.852 174.807 162.869 174.925 162.869C175.038 162.869 175.149 162.86 175.257 162.842C175.365 162.824 175.46 162.807 175.542 162.792L175.565 163.563C175.473 163.604 175.351 163.636 175.199 163.66C175.048 163.683 174.889 163.695 174.725 163.695C174.504 163.695 174.3 163.659 174.112 163.587C173.924 163.515 173.761 163.394 173.622 163.224C173.483 163.055 173.375 162.83 173.298 162.55C173.221 162.27 173.184 161.921 173.184 161.505V155.97H171.896V155.199H173.184V153.071H174.04V153.07Z" fill="#1B708A"/>
<path d="M179.017 155.198L179.04 156.524C179.287 156.072 179.601 155.712 179.984 155.445C180.367 155.178 180.803 155.044 181.291 155.044C181.64 155.044 181.952 155.101 182.227 155.214C182.502 155.327 182.736 155.507 182.929 155.753C183.121 156 183.27 156.317 183.372 156.705C183.475 157.093 183.527 157.562 183.527 158.112V163.539H182.679V158.105C182.679 157.678 182.641 157.321 182.567 157.033C182.492 156.745 182.386 156.516 182.247 156.343C182.108 156.171 181.94 156.047 181.742 155.973C181.544 155.898 181.322 155.861 181.075 155.861C180.818 155.861 180.583 155.914 180.369 156.019C180.156 156.124 179.965 156.264 179.795 156.439C179.626 156.614 179.479 156.814 179.356 157.04C179.233 157.266 179.132 157.503 179.055 157.749V163.538H178.2V155.197H179.017V155.198Z" fill="#1B708A"/>
<path d="M189.422 163.693C188.959 163.693 188.535 163.617 188.15 163.465C187.764 163.313 187.432 163.082 187.152 162.771C186.872 162.46 186.655 162.068 186.5 161.595C186.346 161.122 186.269 160.562 186.269 159.915V158.967C186.269 158.268 186.351 157.671 186.516 157.174C186.68 156.678 186.9 156.272 187.175 155.956C187.45 155.64 187.769 155.409 188.131 155.262C188.493 155.116 188.875 155.042 189.276 155.042C190.191 155.042 190.886 155.344 191.361 155.948C191.837 156.552 192.074 157.475 192.074 158.719V159.444H187.118V159.914C187.118 160.423 187.175 160.865 187.287 161.24C187.401 161.615 187.56 161.926 187.765 162.173C187.971 162.419 188.217 162.603 188.505 162.724C188.793 162.845 189.112 162.906 189.461 162.906C189.893 162.906 190.268 162.832 190.587 162.686C190.905 162.54 191.196 162.312 191.458 162.004L191.905 162.574C191.792 162.728 191.66 162.872 191.508 163.006C191.356 163.14 191.179 163.258 190.976 163.361C190.773 163.464 190.543 163.545 190.286 163.604C190.028 163.663 189.74 163.693 189.422 163.693ZM189.276 155.845C188.973 155.845 188.694 155.897 188.44 155.999C188.186 156.102 187.965 156.265 187.777 156.488C187.589 156.712 187.439 157.001 187.326 157.355C187.213 157.709 187.146 158.138 187.126 158.642H191.219V158.418C191.209 158.012 191.163 157.65 191.081 157.331C190.999 157.012 190.879 156.743 190.723 156.522C190.566 156.301 190.367 156.133 190.126 156.017C189.882 155.903 189.599 155.845 189.276 155.845Z" fill="#1B708A"/>
<path d="M198.028 156C197.941 155.984 197.855 155.972 197.77 155.961C197.686 155.951 197.592 155.946 197.489 155.946C197.238 155.946 197.01 155.991 196.807 156.081C196.604 156.171 196.425 156.297 196.271 156.459C196.117 156.621 195.985 156.815 195.874 157.041C195.763 157.267 195.677 157.514 195.616 157.781V163.539H194.76V155.198H195.6L195.616 156.447C195.806 156.01 196.058 155.667 196.371 155.418C196.684 155.169 197.07 155.044 197.527 155.044C197.62 155.044 197.717 155.054 197.82 155.075C197.923 155.096 197.997 155.119 198.044 155.144L198.028 156Z" fill="#1B708A"/>
<path d="M204.57 161.488C204.57 161.319 204.538 161.159 204.474 161.01C204.409 160.861 204.304 160.717 204.158 160.578C204.012 160.439 203.819 160.298 203.58 160.154C203.341 160.01 203.044 159.856 202.69 159.691C202.31 159.522 201.97 159.358 201.672 159.202C201.374 159.045 201.124 158.876 200.92 158.693C200.717 158.511 200.562 158.305 200.454 158.076C200.346 157.848 200.293 157.576 200.293 157.263C200.293 156.955 200.35 156.666 200.466 156.396C200.582 156.126 200.747 155.891 200.963 155.69C201.179 155.49 201.441 155.332 201.749 155.216C202.057 155.1 202.402 155.042 202.782 155.042C203.188 155.042 203.553 155.103 203.876 155.223C204.2 155.344 204.474 155.512 204.697 155.728C204.92 155.944 205.092 156.202 205.21 156.503C205.328 156.804 205.387 157.131 205.387 157.486H204.531C204.531 157.27 204.493 157.063 204.415 156.865C204.338 156.668 204.225 156.493 204.076 156.341C203.927 156.189 203.744 156.068 203.529 155.979C203.313 155.889 203.064 155.844 202.781 155.844C202.488 155.844 202.239 155.884 202.033 155.964C201.827 156.044 201.658 156.149 201.524 156.28C201.391 156.411 201.293 156.561 201.231 156.727C201.169 156.894 201.139 157.062 201.139 157.232C201.139 157.401 201.165 157.552 201.216 157.683C201.267 157.814 201.361 157.941 201.497 158.064C201.633 158.187 201.817 158.315 202.048 158.446C202.279 158.577 202.577 158.73 202.942 158.904C203.328 159.074 203.674 159.238 203.983 159.397C204.292 159.557 204.553 159.732 204.765 159.925C204.978 160.117 205.143 160.335 205.259 160.576C205.374 160.818 205.433 161.106 205.433 161.44C205.433 161.784 205.371 162.095 205.248 162.373C205.125 162.65 204.949 162.887 204.72 163.082C204.491 163.277 204.216 163.427 203.895 163.533C203.573 163.638 203.218 163.691 202.827 163.691C202.375 163.691 201.976 163.625 201.632 163.494C201.288 163.363 200.999 163.187 200.765 162.966C200.531 162.745 200.354 162.488 200.233 162.195C200.112 161.902 200.052 161.591 200.052 161.262H200.915C200.931 161.591 200.999 161.861 201.12 162.071C201.241 162.282 201.391 162.449 201.571 162.572C201.751 162.695 201.951 162.78 202.172 162.826C202.393 162.872 202.612 162.895 202.827 162.895C203.109 162.895 203.36 162.858 203.579 162.783C203.797 162.708 203.98 162.609 204.126 162.482C204.272 162.356 204.383 162.207 204.458 162.035C204.533 161.867 204.57 161.684 204.57 161.488Z" fill="#1B708A"/>
<path d="M13.8729 145.063C6.27486 145.063 0.0478516 138.875 0.0478516 131.238C0.0478516 123.601 6.27486 117.413 13.8729 117.413C17.8679 117.413 21.6669 119.136 24.2909 122.113C24.7609 122.661 24.6819 123.445 24.1739 123.875C23.6649 124.345 22.8809 124.306 22.4109 123.757C20.2569 121.29 17.1629 119.88 13.8729 119.88C7.64586 119.88 2.55386 124.971 2.55386 131.237C2.55386 137.464 7.64486 142.556 13.8729 142.556C17.0059 142.556 19.9819 141.264 22.0969 139.031V133.47H14.8519C14.1469 133.47 13.5989 132.922 13.5989 132.217C13.5989 131.512 14.1479 130.964 14.8519 130.964H23.3509C24.0559 130.964 24.6039 131.512 24.6039 132.217V139.502C24.6039 139.815 24.4869 140.089 24.2909 140.324C21.6669 143.339 17.8679 145.063 13.8729 145.063Z" fill="#1B708A"/>
<path d="M40.3877 145.063C34.2787 145.063 29.3047 140.089 29.3047 133.94V118.666C29.3047 117.961 29.8537 117.413 30.5187 117.413C31.2247 117.413 31.7717 117.961 31.7717 118.666V133.94C31.7717 138.718 35.6487 142.556 40.3877 142.556C45.1657 142.556 49.0037 138.718 49.0037 133.94V118.666C49.0037 117.961 49.5517 117.413 50.2567 117.413C50.9627 117.413 51.5097 117.961 51.5097 118.666V133.94C51.5107 140.088 46.5377 145.063 40.3877 145.063Z" fill="#1B708A"/>
<path d="M57.2696 145.063C56.5636 145.063 56.0166 144.515 56.0166 143.81V118.667C56.0166 117.962 56.5646 117.414 57.2696 117.414C57.9746 117.414 58.5226 117.962 58.5226 118.667V143.81C58.5226 144.514 57.9746 145.063 57.2696 145.063Z" fill="#1B708A"/>
<path d="M70.6244 145.063H64.2794C63.5744 145.063 63.0264 144.515 63.0264 143.81V118.667C63.0264 117.962 63.5744 117.414 64.2794 117.414H70.6244C78.2614 117.414 84.4494 123.602 84.4494 131.239C84.4494 138.876 78.2614 145.063 70.6244 145.063ZM65.5324 142.556H70.6244C76.8904 142.556 81.9814 137.465 81.9814 131.237C81.9814 124.971 76.8904 119.88 70.6244 119.88H65.5324V142.556Z" fill="#1B708A"/>
<path d="M107.675 143.809C107.675 144.514 107.088 145.062 106.422 145.062H90.0118C89.3068 145.062 88.7588 144.514 88.7588 143.809V118.666C88.7588 117.961 89.3068 117.413 90.0118 117.413H106.422C107.088 117.413 107.675 117.961 107.675 118.666C107.675 119.332 107.088 119.88 106.422 119.88H91.2648V129.397H102.192C102.858 129.397 103.445 129.945 103.445 130.611C103.445 131.316 102.858 131.864 102.192 131.864H91.2648V142.556H106.422C107.088 142.556 107.675 143.143 107.675 143.809Z" fill="#1B708A"/>
<path d="M131.45 127.478C131.45 133 126.985 137.465 121.502 137.465H116.137V142.752C116.137 144.044 115.119 145.063 113.866 145.063C112.613 145.063 111.595 144.045 111.595 142.752V119.802C111.595 118.549 112.613 117.53 113.866 117.53H121.503C126.985 117.53 131.45 121.995 131.45 127.478ZM126.907 127.478C126.907 124.501 124.479 122.112 121.502 122.112H116.137V132.882H121.502C124.478 132.882 126.907 130.493 126.907 127.478Z" fill="#1B708A"/>
<path d="M148.331 145.063C140.733 145.063 134.584 138.914 134.584 131.316C134.584 123.757 140.733 117.569 148.331 117.569C155.89 117.569 162.078 123.757 162.078 131.316C162.078 138.914 155.89 145.063 148.331 145.063ZM148.331 122.112C143.24 122.112 139.127 126.264 139.127 131.316C139.127 136.407 143.239 140.52 148.331 140.52C153.383 140.52 157.535 136.408 157.535 131.316C157.535 126.264 153.383 122.112 148.331 122.112Z" fill="#1B708A"/>
<path d="M174.181 145.063C170.735 145.063 168.659 143.614 167.484 142.439C166.035 140.912 165.212 138.875 165.212 136.799C165.212 135.546 166.23 134.528 167.484 134.528C168.737 134.528 169.755 135.546 169.755 136.799C169.755 138.17 170.695 140.52 174.181 140.52C177.667 140.52 178.607 138.17 178.607 136.799C178.607 134.723 177.471 134.096 173.633 133C171.909 132.491 170.147 131.982 168.698 130.964C166.74 129.632 165.761 127.752 165.761 125.324C165.761 123.366 166.544 121.447 167.876 120.037C168.972 118.901 170.97 117.57 174.181 117.57C177.432 117.57 179.39 118.901 180.486 120.037C181.857 121.447 182.64 123.366 182.64 125.324C182.64 126.577 181.622 127.595 180.33 127.595C179.077 127.595 178.059 126.577 178.059 125.324C178.059 124.149 177.237 122.112 174.182 122.112C171.127 122.112 170.305 124.148 170.305 125.324C170.305 126.851 170.893 127.439 174.887 128.614C176.688 129.123 178.568 129.671 180.096 130.768C182.133 132.178 183.151 134.215 183.151 136.8C183.151 138.875 182.329 140.912 180.879 142.44C179.742 143.613 177.627 145.063 174.181 145.063Z" fill="#1B708A"/>
<path d="M206.297 119.841C206.297 121.094 205.279 122.112 204.026 122.112H197.799V142.791C197.799 144.044 196.781 145.062 195.489 145.062C194.236 145.062 193.218 144.044 193.218 142.791V122.112H186.991C185.737 122.112 184.719 121.094 184.719 119.841C184.719 118.588 185.737 117.57 186.991 117.57H204.027C205.278 117.569 206.297 118.588 206.297 119.841Z" fill="#1B708A"/>
</svg>
