<svg width="208" height="167" viewBox="0 0 208 167" fill="none" xmlns="http://www.w3.org/2000/svg">
<path d="M82.5264 42.385L92.4884 48.137V16.187L82.5264 9.928V42.385Z" fill="white"/>
<path d="M97.0889 91.122L117.421 79.024V79.066L126.833 73.606V73.538L132.282 65.571L128.125 59.513L97.0889 77.153V91.122Z" fill="white"/>
<path d="M111.067 17.001H97.0889V26.159L111.067 25.728V17.001Z" fill="white"/>
<path d="M161.969 39.115L153.935 26.624L142.233 27.471C133.605 11.36 116.607 0.375 97.089 0.375C68.872 0.375 45.915 23.332 45.915 51.549C45.915 79.766 68.871 102.723 97.089 102.723C123.979 102.723 146.091 81.877 148.112 55.496C148.212 54.193 148.263 52.877 148.263 51.549C148.263 50.627 148.237 49.711 148.189 48.801L153.936 49.287L161.969 39.115ZM143.197 51.549C143.197 74.411 126.471 93.436 104.614 97.04V90.57L97.089 94.736V97.657C95.536 97.657 94.002 97.579 92.488 97.428V72.089V69.208V54.61L69.026 41.168L62.7271 49.907L69.026 58.582L83.963 67.181V95.751C64.914 90.084 50.981 72.414 50.981 51.549C50.981 26.125 71.665 5.441 97.089 5.441C113.864 5.441 128.573 14.447 136.642 27.876L97.09 30.738V72.413L104.615 68.15V45.12L143.087 48.37C143.157 49.421 143.197 50.48 143.197 51.549Z" fill="white"/>
<path d="M1.68066 152.793C1.68066 152.619 1.72966 152.469 1.82666 152.346C1.92466 152.223 2.06265 152.161 2.24365 152.161C2.42365 152.161 2.56357 152.222 2.66357 152.346C2.76357 152.469 2.8136 152.619 2.8136 152.793C2.8136 152.968 2.76357 153.116 2.66357 153.236C2.56357 153.357 2.42265 153.417 2.24365 153.417C2.06365 153.417 1.92466 153.356 1.82666 153.236C1.72966 153.116 1.68066 152.967 1.68066 152.793ZM2.6676 163.538H1.80359V155.197H2.6676V163.538Z" fill="white"/>
<path d="M6.71936 155.198L6.74231 156.524C6.98931 156.072 7.3034 155.712 7.6864 155.445C8.0694 155.178 8.50541 155.044 8.99341 155.044C9.34241 155.044 9.65432 155.101 9.92932 155.214C10.2043 155.327 10.4383 155.507 10.6313 155.753C10.8233 156 10.9723 156.317 11.0743 156.705C11.1773 157.093 11.2294 157.562 11.2294 158.112V163.539H10.3813V158.105C10.3813 157.678 10.3444 157.321 10.2694 157.033C10.1944 156.745 10.0883 156.516 9.94934 156.343C9.81034 156.171 9.64234 156.047 9.44434 155.973C9.24634 155.898 9.02434 155.861 8.77734 155.861C8.52034 155.861 8.28541 155.914 8.07141 156.019C7.85841 156.124 7.66731 156.264 7.49731 156.439C7.32831 156.614 7.18135 156.814 7.05835 157.04C6.93535 157.266 6.83432 157.503 6.75732 157.749V163.538H5.90137V155.197H6.71936V155.198Z" fill="white"/>
<path d="M14.0625 158.983C14.0625 158.284 14.1255 157.687 14.2515 157.19C14.3775 156.694 14.5585 156.287 14.7955 155.968C15.0315 155.649 15.3185 155.415 15.6545 155.267C15.9905 155.118 16.3674 155.043 16.7834 155.043C17.2824 155.043 17.7045 155.155 18.0515 155.378C18.3985 155.601 18.6814 155.914 18.9034 156.314V151.697H19.7595V163.537H18.9575L18.9185 162.466C18.6985 162.852 18.4114 163.152 18.0594 163.368C17.7074 163.584 17.2795 163.692 16.7755 163.692C16.3595 163.692 15.9845 163.613 15.6505 163.456C15.3165 163.299 15.0325 163.059 14.7985 162.735C14.5645 162.411 14.3835 162.003 14.2555 161.509C14.1265 161.016 14.0625 160.433 14.0625 159.759V158.983V158.983ZM14.9344 159.761C14.9344 160.83 15.0945 161.616 15.4155 162.12C15.7365 162.623 16.2464 162.875 16.9454 162.875C17.1974 162.875 17.4244 162.843 17.6274 162.778C17.8304 162.714 18.0134 162.624 18.1744 162.508C18.3364 162.393 18.4765 162.257 18.5945 162.099C18.7125 161.942 18.8154 161.772 18.9034 161.587V157.262C18.8264 157.077 18.7305 156.9 18.6185 156.731C18.5055 156.561 18.3705 156.413 18.2135 156.288C18.0565 156.162 17.8745 156.06 17.6665 155.984C17.4585 155.907 17.2205 155.868 16.9535 155.868C16.2495 155.868 15.7375 156.121 15.4155 156.628C15.0945 157.134 14.9344 157.919 14.9344 158.983V159.761Z" fill="white"/>
<path d="M25.6921 163.693C25.2291 163.693 24.8052 163.617 24.4202 163.465C24.0342 163.313 23.7021 163.082 23.4221 162.771C23.1421 162.46 22.9251 162.068 22.7701 161.595C22.6161 161.122 22.5391 160.562 22.5391 159.915V158.967C22.5391 158.268 22.6211 157.671 22.7861 157.174C22.9501 156.678 23.1701 156.272 23.4451 155.956C23.7201 155.64 24.0391 155.409 24.4011 155.262C24.7631 155.116 25.1451 155.042 25.5461 155.042C26.4611 155.042 27.1561 155.344 27.6311 155.948C28.1071 156.552 28.3441 157.475 28.3441 158.719V159.444H23.3881V159.914C23.3881 160.423 23.4451 160.865 23.5571 161.24C23.6711 161.615 23.8302 161.926 24.0352 162.173C24.2412 162.419 24.4871 162.603 24.7751 162.724C25.0631 162.845 25.3821 162.906 25.7311 162.906C26.1631 162.906 26.5382 162.832 26.8572 162.686C27.1752 162.54 27.4661 162.312 27.7281 162.004L28.1752 162.574C28.0622 162.728 27.9301 162.872 27.7781 163.006C27.6271 163.14 27.4491 163.258 27.2461 163.361C27.0431 163.464 26.8132 163.545 26.5562 163.604C26.2982 163.663 26.0101 163.693 25.6921 163.693ZM25.5461 155.845C25.2431 155.845 24.9641 155.897 24.7101 155.999C24.4561 156.102 24.2351 156.265 24.0471 156.488C23.8591 156.712 23.7091 157.001 23.5961 157.355C23.4831 157.709 23.4161 158.138 23.3961 158.642H27.4891V158.418C27.4791 158.012 27.4331 157.65 27.3511 157.331C27.2691 157.012 27.1492 156.743 26.9932 156.522C26.8362 156.301 26.6371 156.133 26.3961 156.017C26.1521 155.903 25.8691 155.845 25.5461 155.845Z" fill="white"/>
<path d="M36.7202 159.761C36.7202 160.435 36.6602 161.018 36.5392 161.511C36.4182 162.005 36.2453 162.413 36.0193 162.737C35.7923 163.061 35.5132 163.301 35.1792 163.458C34.8452 163.615 34.4673 163.694 34.0463 163.694C33.5423 163.694 33.1122 163.592 32.7552 163.39C32.3982 163.187 32.1062 162.903 31.8802 162.538V166.747H31.0322V155.2H31.8182L31.8573 156.341C32.0883 155.935 32.3812 155.618 32.7362 155.389C33.0902 155.161 33.5202 155.046 34.0232 155.046C34.4552 155.046 34.8372 155.121 35.1722 155.27C35.5062 155.419 35.7883 155.653 36.0203 155.971C36.2523 156.289 36.4262 156.697 36.5442 157.193C36.6622 157.689 36.7212 158.287 36.7212 158.986V159.761H36.7202ZM35.8643 158.983C35.8643 157.914 35.6982 157.128 35.3672 156.624C35.0362 156.12 34.5182 155.868 33.8142 155.868C33.5512 155.868 33.3173 155.906 33.1093 155.98C32.9013 156.054 32.7183 156.156 32.5623 156.284C32.4053 156.413 32.2723 156.559 32.1613 156.723C32.0513 156.888 31.9572 157.062 31.8802 157.247V161.641C31.9622 161.821 32.0632 161.988 32.1842 162.142C32.3052 162.296 32.4452 162.43 32.6042 162.543C32.7632 162.656 32.9442 162.744 33.1472 162.805C33.3502 162.866 33.5782 162.897 33.8292 162.897C34.5232 162.897 35.0362 162.641 35.3672 162.13C35.6992 161.619 35.8643 160.829 35.8643 159.76V158.983Z" fill="white"/>
<path d="M42.3297 163.693C41.8667 163.693 41.4437 163.617 41.0587 163.465C40.6727 163.313 40.3398 163.082 40.0608 162.771C39.7798 162.46 39.5637 162.068 39.4087 161.595C39.2547 161.122 39.1777 160.562 39.1777 159.915V158.967C39.1777 158.268 39.2597 157.671 39.4247 157.174C39.5887 156.678 39.8087 156.272 40.0837 155.956C40.3587 155.64 40.6777 155.409 41.0397 155.262C41.4017 155.116 41.7837 155.042 42.1847 155.042C43.0997 155.042 43.7948 155.344 44.2698 155.948C44.7448 156.552 44.9828 157.475 44.9828 158.719V159.444H40.0267V159.914C40.0267 160.423 40.0827 160.865 40.1957 161.24C40.3087 161.615 40.4687 161.926 40.6737 162.173C40.8787 162.419 41.1257 162.603 41.4137 162.724C41.7007 162.845 42.0208 162.906 42.3698 162.906C42.8018 162.906 43.1758 162.832 43.4948 162.686C43.8138 162.54 44.1037 162.312 44.3657 162.004L44.8137 162.574C44.6997 162.728 44.5677 162.872 44.4167 163.006C44.2647 163.14 44.0878 163.258 43.8848 163.361C43.6818 163.464 43.4517 163.545 43.1947 163.604C42.9357 163.663 42.6487 163.693 42.3297 163.693ZM42.1827 155.845C41.8797 155.845 41.6007 155.897 41.3467 155.999C41.0927 156.102 40.8707 156.265 40.6837 156.488C40.4957 156.712 40.3458 157.001 40.2328 157.355C40.1198 157.709 40.0527 158.138 40.0327 158.642H44.1257V158.418C44.1157 158.012 44.0688 157.65 43.9878 157.331C43.9048 157.012 43.7858 156.743 43.6298 156.522C43.4728 156.301 43.2727 156.133 43.0317 156.017C42.7897 155.903 42.5067 155.845 42.1827 155.845Z" fill="white"/>
<path d="M48.4869 155.198L48.51 156.524C48.757 156.072 49.071 155.712 49.454 155.445C49.837 155.178 50.273 155.044 50.761 155.044C51.11 155.044 51.422 155.101 51.697 155.214C51.972 155.327 52.2059 155.507 52.3989 155.753C52.5909 156 52.7389 156.317 52.8419 156.705C52.9449 157.093 52.996 157.562 52.996 158.112V163.539H52.1479V158.105C52.1479 157.678 52.11 157.321 52.036 157.033C51.961 156.745 51.8549 156.516 51.7159 156.343C51.5779 156.171 51.4089 156.047 51.2109 155.973C51.0129 155.898 50.7909 155.861 50.5439 155.861C50.2869 155.861 50.051 155.914 49.838 156.019C49.625 156.124 49.4339 156.264 49.2639 156.439C49.0939 156.614 48.948 156.814 48.825 157.04C48.702 157.266 48.6009 157.503 48.5239 157.749V163.538H47.668V155.197H48.4869V155.198Z" fill="white"/>
<path d="M55.8301 158.983C55.8301 158.284 55.893 157.687 56.019 157.19C56.145 156.694 56.3261 156.287 56.5621 155.968C56.7981 155.649 57.0851 155.415 57.4221 155.267C57.7581 155.118 58.1351 155.043 58.5511 155.043C59.0491 155.043 59.4721 155.155 59.8191 155.378C60.1661 155.601 60.4501 155.914 60.6711 156.314V151.697H61.5271V163.537H60.7251L60.6871 162.466C60.4661 162.852 60.1791 163.152 59.8281 163.368C59.4761 163.584 59.0481 163.692 58.5441 163.692C58.1271 163.692 57.7521 163.613 57.4181 163.456C57.0841 163.299 56.8001 163.059 56.5671 162.735C56.3331 162.411 56.1521 162.003 56.0231 161.509C55.8941 161.016 55.8311 160.433 55.8311 159.759V158.983H55.8301ZM56.701 159.761C56.701 160.83 56.8611 161.616 57.1831 162.12C57.5041 162.623 58.0141 162.875 58.7131 162.875C58.9651 162.875 59.1921 162.843 59.3951 162.778C59.5981 162.714 59.7801 162.624 59.9421 162.508C60.1041 162.393 60.2441 162.257 60.3621 162.099C60.4801 161.942 60.582 161.772 60.67 161.587V157.262C60.592 157.077 60.4981 156.9 60.3851 156.731C60.2721 156.561 60.1371 156.413 59.9801 156.288C59.8231 156.162 59.6411 156.06 59.4331 155.984C59.2251 155.907 58.9871 155.868 58.7201 155.868C58.0151 155.868 57.5031 156.121 57.1821 156.628C56.8601 157.134 56.7001 157.919 56.7001 158.983V159.761H56.701Z" fill="white"/>
<path d="M67.4596 163.693C66.9966 163.693 66.5726 163.617 66.1876 163.465C65.8016 163.313 65.4696 163.082 65.1896 162.771C64.9096 162.46 64.6926 162.068 64.5386 161.595C64.3846 161.122 64.3076 160.562 64.3076 159.915V158.967C64.3076 158.268 64.3896 157.671 64.5546 157.174C64.7186 156.678 64.9386 156.272 65.2136 155.956C65.4886 155.64 65.8076 155.409 66.1696 155.262C66.5316 155.116 66.9136 155.042 67.3146 155.042C68.2286 155.042 68.9247 155.344 69.3997 155.948C69.8757 156.552 70.1127 157.475 70.1127 158.719V159.444H65.1556V159.914C65.1556 160.423 65.2126 160.865 65.3256 161.24C65.4386 161.615 65.5976 161.926 65.8036 162.173C66.0096 162.419 66.2556 162.603 66.5436 162.724C66.8316 162.845 67.1496 162.906 67.4996 162.906C67.9316 162.906 68.3066 162.832 68.6246 162.686C68.9426 162.54 69.2336 162.312 69.4956 162.004L69.9426 162.574C69.8296 162.728 69.6977 162.872 69.5457 163.006C69.3937 163.14 69.2175 163.258 69.0135 163.361C68.8105 163.464 68.5806 163.545 68.3236 163.604C68.0656 163.663 67.7776 163.693 67.4596 163.693ZM67.3126 155.845C67.0096 155.845 66.7306 155.897 66.4756 155.999C66.2216 156.102 66.0006 156.265 65.8136 156.488C65.6256 156.712 65.4757 157.001 65.3627 157.355C65.2497 157.709 65.1826 158.138 65.1626 158.642H69.2556V158.418C69.2456 158.012 69.1996 157.65 69.1166 157.331C69.0346 157.012 68.9147 156.743 68.7587 156.522C68.6017 156.301 68.4026 156.133 68.1616 156.017C67.9186 155.903 67.6366 155.845 67.3126 155.845Z" fill="white"/>
<path d="M73.6158 155.198L73.6388 156.524C73.8858 156.072 74.1999 155.712 74.5829 155.445C74.9659 155.178 75.4019 155.044 75.8899 155.044C76.2389 155.044 76.5508 155.101 76.8258 155.214C77.1008 155.327 77.3348 155.507 77.5278 155.753C77.7198 156 77.8688 156.317 77.9708 156.705C78.0738 157.093 78.1259 157.562 78.1259 158.112V163.539H77.2778V158.105C77.2778 157.678 77.2399 157.321 77.1659 157.033C77.0909 156.745 76.9848 156.516 76.8458 156.343C76.7068 156.171 76.5388 156.047 76.3408 155.973C76.1428 155.898 75.9208 155.861 75.6738 155.861C75.4168 155.861 75.1819 155.914 74.9679 156.019C74.7549 156.124 74.5638 156.264 74.3938 156.439C74.2248 156.614 74.0778 156.814 73.9548 157.04C73.8318 157.266 73.7308 157.503 73.6538 157.749V163.538H72.7979V155.197H73.6158V155.198Z" fill="white"/>
<path d="M82.5541 153.07V155.198H83.9801V155.969H82.5541V161.511C82.5541 161.799 82.5781 162.032 82.6271 162.209C82.6761 162.386 82.7421 162.524 82.8231 162.622C82.9061 162.72 82.9991 162.785 83.1041 162.819C83.2091 162.852 83.3211 162.869 83.4391 162.869C83.5521 162.869 83.6631 162.86 83.7711 162.842C83.8791 162.824 83.9742 162.807 84.0562 162.792L84.0791 163.563C83.9871 163.604 83.8651 163.636 83.7131 163.66C83.5621 163.683 83.4031 163.695 83.2391 163.695C83.0181 163.695 82.8141 163.659 82.6261 163.587C82.4381 163.515 82.2751 163.394 82.1361 163.224C81.9971 163.055 81.8891 162.83 81.8121 162.55C81.7351 162.27 81.6971 161.921 81.6971 161.505V155.97H80.4102V155.199H81.6971V153.071H82.5541V153.07Z" fill="white"/>
<path d="M93.7643 162.899C94.0003 162.899 94.2292 162.868 94.4502 162.807C94.6712 162.746 94.8673 162.64 95.0403 162.491C95.2123 162.342 95.3532 162.143 95.4642 161.894C95.5742 161.645 95.6372 161.332 95.6532 160.957H96.4783C96.4573 161.404 96.3732 161.799 96.2242 162.141C96.0752 162.483 95.8772 162.768 95.6302 162.997C95.3842 163.225 95.1012 163.399 94.7822 163.517C94.4642 163.635 94.1243 163.694 93.7643 163.694C92.7623 163.694 92.0082 163.37 91.5022 162.722C90.9952 162.075 90.7422 161.114 90.7422 159.839V158.898C90.7422 157.623 90.9952 156.663 91.5022 156.015C92.0082 155.368 92.7592 155.044 93.7572 155.044C94.1372 155.044 94.4913 155.105 94.8173 155.225C95.1433 155.346 95.4263 155.528 95.6653 155.772C95.9043 156.016 96.0962 156.325 96.2402 156.697C96.3842 157.069 96.4642 157.508 96.4792 158.011H95.6543C95.6383 157.626 95.5793 157.296 95.4773 157.021C95.3743 156.746 95.2392 156.521 95.0732 156.346C94.9062 156.171 94.7103 156.044 94.4873 155.965C94.2643 155.885 94.0213 155.845 93.7593 155.845C93.3633 155.845 93.0292 155.913 92.7572 156.049C92.4842 156.186 92.2632 156.384 92.0942 156.647C91.9252 156.909 91.8012 157.229 91.7242 157.607C91.6472 157.985 91.6083 158.415 91.6083 158.898V159.839C91.6083 160.327 91.6452 160.761 91.7202 161.142C91.7942 161.522 91.9163 161.842 92.0863 162.101C92.2563 162.361 92.4783 162.559 92.7533 162.695C93.0263 162.831 93.3643 162.899 93.7643 162.899Z" fill="white"/>
<path d="M102.426 156C102.338 155.984 102.253 155.972 102.168 155.961C102.083 155.951 101.989 155.946 101.887 155.946C101.635 155.946 101.408 155.991 101.204 156.081C101.001 156.171 100.823 156.297 100.668 156.459C100.514 156.621 100.381 156.815 100.271 157.041C100.16 157.267 100.074 157.514 100.013 157.781V163.539H99.1572V155.198H99.9983L100.013 156.447C100.203 156.01 100.455 155.667 100.768 155.418C101.081 155.169 101.467 155.044 101.925 155.044C102.017 155.044 102.115 155.054 102.218 155.075C102.321 155.096 102.395 155.119 102.441 155.144L102.426 156Z" fill="white"/>
<path d="M107.404 163.693C106.941 163.693 106.518 163.617 106.133 163.465C105.747 163.313 105.414 163.082 105.135 162.771C104.854 162.46 104.638 162.068 104.483 161.595C104.329 161.122 104.252 160.562 104.252 159.915V158.967C104.252 158.268 104.334 157.671 104.499 157.174C104.663 156.678 104.883 156.272 105.158 155.956C105.433 155.64 105.752 155.409 106.114 155.262C106.476 155.116 106.858 155.042 107.259 155.042C108.174 155.042 108.869 155.344 109.344 155.948C109.819 156.552 110.057 157.475 110.057 158.719V159.444H105.101V159.914C105.101 160.423 105.157 160.865 105.27 161.24C105.383 161.615 105.543 161.926 105.748 162.173C105.953 162.419 106.2 162.603 106.488 162.724C106.776 162.845 107.095 162.906 107.444 162.906C107.876 162.906 108.25 162.832 108.569 162.686C108.887 162.54 109.178 162.312 109.44 162.004L109.888 162.574C109.774 162.728 109.642 162.872 109.491 163.006C109.339 163.14 109.162 163.258 108.959 163.361C108.756 163.464 108.526 163.545 108.269 163.604C108.01 163.663 107.723 163.693 107.404 163.693ZM107.257 155.845C106.954 155.845 106.675 155.897 106.421 155.999C106.167 156.102 105.945 156.265 105.758 156.488C105.57 156.712 105.42 157.001 105.307 157.355C105.194 157.709 105.127 158.138 105.107 158.642H109.2V158.418C109.19 158.012 109.143 157.65 109.062 157.331C108.979 157.012 108.86 156.743 108.704 156.522C108.547 156.301 108.347 156.133 108.106 156.017C107.864 155.903 107.581 155.845 107.257 155.845Z" fill="white"/>
<path d="M117.153 163.538C117.112 163.399 117.078 163.226 117.053 163.018C117.027 162.81 117.009 162.598 116.999 162.382C116.891 162.557 116.763 162.723 116.613 162.879C116.464 163.036 116.294 163.175 116.1 163.295C115.908 163.416 115.693 163.512 115.456 163.584C115.22 163.656 114.965 163.692 114.693 163.692C114.349 163.692 114.036 163.643 113.756 163.545C113.476 163.447 113.236 163.301 113.035 163.106C112.834 162.911 112.68 162.666 112.572 162.374C112.464 162.081 112.41 161.739 112.41 161.349C112.41 160.964 112.477 160.608 112.61 160.282C112.744 159.955 112.943 159.674 113.207 159.438C113.472 159.202 113.802 159.017 114.198 158.883C114.594 158.749 115.054 158.683 115.578 158.683H116.988V157.519C116.988 156.923 116.841 156.495 116.545 156.235C116.249 155.975 115.816 155.846 115.246 155.846C114.979 155.846 114.733 155.887 114.51 155.969C114.286 156.051 114.095 156.166 113.936 156.312C113.777 156.458 113.653 156.633 113.565 156.836C113.478 157.039 113.435 157.261 113.435 157.503L112.579 157.495C112.579 157.171 112.643 156.862 112.771 156.566C112.9 156.271 113.082 156.01 113.318 155.784C113.554 155.558 113.839 155.378 114.174 155.244C114.508 155.111 114.878 155.044 115.284 155.044C115.659 155.044 116.002 155.089 116.313 155.179C116.625 155.269 116.893 155.413 117.119 155.611C117.345 155.809 117.521 156.066 117.647 156.382C117.773 156.698 117.836 157.082 117.836 157.535V161.79C117.836 161.934 117.841 162.083 117.852 162.237C117.862 162.391 117.876 162.541 117.894 162.688C117.912 162.835 117.935 162.973 117.963 163.105C117.991 163.236 118.024 163.35 118.059 163.448V163.54H117.153V163.538ZM114.802 162.868C115.069 162.868 115.319 162.831 115.554 162.756C115.788 162.681 115.997 162.579 116.182 162.448C116.367 162.317 116.528 162.164 116.664 161.989C116.8 161.815 116.909 161.627 116.991 161.427V159.399H115.704C114.897 159.399 114.291 159.569 113.885 159.908C113.479 160.247 113.276 160.705 113.276 161.28C113.276 161.83 113.411 162.232 113.681 162.487C113.95 162.741 114.324 162.868 114.802 162.868Z" fill="white"/>
<path d="M122.329 153.07V155.198H123.755V155.969H122.329V161.511C122.329 161.799 122.353 162.032 122.402 162.209C122.451 162.386 122.518 162.524 122.599 162.622C122.682 162.72 122.775 162.785 122.88 162.819C122.986 162.852 123.096 162.869 123.214 162.869C123.327 162.869 123.439 162.86 123.547 162.842C123.655 162.824 123.75 162.807 123.832 162.792L123.854 163.563C123.762 163.604 123.641 163.636 123.489 163.66C123.338 163.683 123.179 163.695 123.015 163.695C122.794 163.695 122.589 163.659 122.401 163.587C122.213 163.515 122.05 163.394 121.911 163.224C121.772 163.055 121.665 162.83 121.588 162.55C121.511 162.27 121.473 161.921 121.473 161.505V155.97H120.186V155.199H121.473V153.071H122.329V153.07Z" fill="white"/>
<path d="M126.459 152.793C126.459 152.619 126.508 152.469 126.606 152.346C126.704 152.223 126.842 152.161 127.022 152.161C127.202 152.161 127.342 152.222 127.442 152.346C127.542 152.469 127.592 152.619 127.592 152.793C127.592 152.968 127.542 153.116 127.442 153.236C127.342 153.357 127.202 153.417 127.022 153.417C126.842 153.417 126.704 153.356 126.606 153.236C126.508 153.116 126.459 152.967 126.459 152.793ZM127.445 163.538H126.582V155.197H127.445V163.538Z" fill="white"/>
<path d="M132.893 162.197L134.944 155.198H135.823L133.225 163.539H132.547L129.934 155.198H130.813L132.893 162.197Z" fill="white"/>
<path d="M140.898 163.693C140.435 163.693 140.012 163.617 139.627 163.465C139.241 163.313 138.908 163.082 138.629 162.771C138.348 162.46 138.132 162.068 137.977 161.595C137.823 161.122 137.746 160.562 137.746 159.915V158.967C137.746 158.268 137.828 157.671 137.993 157.174C138.157 156.678 138.377 156.272 138.652 155.956C138.927 155.64 139.246 155.409 139.608 155.262C139.97 155.116 140.352 155.042 140.753 155.042C141.668 155.042 142.363 155.344 142.838 155.948C143.313 156.552 143.551 157.475 143.551 158.719V159.444H138.595V159.914C138.595 160.423 138.651 160.865 138.764 161.24C138.877 161.615 139.036 161.926 139.242 162.173C139.447 162.419 139.694 162.603 139.982 162.724C140.27 162.845 140.589 162.906 140.938 162.906C141.37 162.906 141.744 162.832 142.063 162.686C142.381 162.54 142.672 162.312 142.934 162.004L143.382 162.574C143.268 162.728 143.136 162.872 142.985 163.006C142.833 163.14 142.656 163.258 142.453 163.361C142.25 163.464 142.02 163.545 141.763 163.604C141.505 163.663 141.217 163.693 140.898 163.693ZM140.752 155.845C140.449 155.845 140.17 155.897 139.916 155.999C139.662 156.102 139.44 156.265 139.253 156.488C139.065 156.712 138.915 157.001 138.802 157.355C138.689 157.709 138.622 158.138 138.602 158.642H142.695V158.418C142.685 158.012 142.638 157.65 142.557 157.331C142.474 157.012 142.355 156.743 142.199 156.522C142.042 156.301 141.842 156.133 141.601 156.017C141.358 155.903 141.075 155.845 140.752 155.845Z" fill="white"/>
<path d="M156.341 159.761C156.341 160.435 156.281 161.018 156.16 161.511C156.039 162.005 155.866 162.413 155.64 162.737C155.413 163.061 155.134 163.301 154.8 163.458C154.466 163.615 154.088 163.694 153.667 163.694C153.163 163.694 152.733 163.592 152.376 163.39C152.018 163.187 151.727 162.903 151.501 162.538V166.747H150.653V155.2H151.439L151.477 156.341C151.708 155.935 152.001 155.618 152.356 155.389C152.71 155.161 153.14 155.046 153.643 155.046C154.075 155.046 154.457 155.121 154.792 155.27C155.126 155.419 155.408 155.653 155.64 155.971C155.871 156.29 156.046 156.697 156.164 157.193C156.282 157.689 156.341 158.287 156.341 158.986V159.761V159.761ZM155.485 158.983C155.485 157.914 155.319 157.128 154.988 156.624C154.657 156.12 154.139 155.868 153.435 155.868C153.172 155.868 152.938 155.906 152.729 155.98C152.521 156.054 152.338 156.156 152.182 156.284C152.025 156.413 151.892 156.559 151.781 156.723C151.671 156.888 151.577 157.062 151.5 157.247V161.641C151.582 161.821 151.683 161.988 151.804 162.142C151.925 162.296 152.065 162.43 152.224 162.543C152.383 162.656 152.564 162.744 152.767 162.805C152.97 162.866 153.198 162.897 153.449 162.897C154.143 162.897 154.656 162.641 154.987 162.13C155.319 161.619 155.484 160.829 155.484 159.76V158.983H155.485Z" fill="white"/>
<path d="M163.607 163.538C163.566 163.399 163.532 163.226 163.507 163.018C163.481 162.81 163.463 162.598 163.453 162.382C163.345 162.557 163.217 162.723 163.067 162.879C162.918 163.036 162.748 163.175 162.554 163.295C162.362 163.416 162.147 163.512 161.91 163.584C161.674 163.656 161.419 163.692 161.147 163.692C160.803 163.692 160.49 163.643 160.21 163.545C159.93 163.447 159.69 163.301 159.489 163.106C159.288 162.911 159.134 162.666 159.026 162.374C158.918 162.081 158.864 161.739 158.864 161.349C158.864 160.964 158.931 160.608 159.064 160.282C159.198 159.955 159.397 159.674 159.661 159.438C159.926 159.202 160.256 159.017 160.652 158.883C161.048 158.749 161.508 158.683 162.032 158.683H163.442V157.519C163.442 156.923 163.295 156.495 162.999 156.235C162.703 155.975 162.27 155.846 161.7 155.846C161.433 155.846 161.187 155.887 160.964 155.969C160.74 156.051 160.549 156.166 160.39 156.312C160.23 156.458 160.107 156.633 160.019 156.836C159.932 157.039 159.889 157.261 159.889 157.503L159.033 157.495C159.033 157.171 159.097 156.862 159.225 156.566C159.354 156.271 159.536 156.01 159.772 155.784C160.008 155.558 160.293 155.378 160.628 155.244C160.962 155.111 161.332 155.044 161.738 155.044C162.113 155.044 162.456 155.089 162.767 155.179C163.078 155.269 163.347 155.413 163.573 155.611C163.799 155.809 163.975 156.066 164.101 156.382C164.227 156.698 164.29 157.082 164.29 157.535V161.79C164.29 161.934 164.295 162.083 164.306 162.237C164.316 162.391 164.33 162.541 164.348 162.688C164.366 162.835 164.389 162.973 164.417 163.105C164.445 163.236 164.477 163.35 164.513 163.448V163.54H163.607V163.538ZM161.256 162.868C161.523 162.868 161.773 162.831 162.008 162.756C162.242 162.681 162.451 162.579 162.636 162.448C162.821 162.317 162.982 162.164 163.118 161.989C163.254 161.815 163.363 161.627 163.446 161.427V159.399H162.159C161.352 159.399 160.746 159.569 160.34 159.908C159.934 160.247 159.731 160.705 159.731 161.28C159.731 161.83 159.866 162.232 160.136 162.487C160.404 162.741 160.778 162.868 161.256 162.868Z" fill="white"/>
<path d="M170.767 156C170.679 155.984 170.594 155.972 170.508 155.961C170.424 155.951 170.33 155.946 170.227 155.946C169.975 155.946 169.748 155.991 169.545 156.081C169.342 156.171 169.164 156.297 169.009 156.459C168.855 156.621 168.723 156.815 168.612 157.041C168.501 157.267 168.416 157.514 168.354 157.781V163.539H167.498V155.198H168.338L168.354 156.447C168.544 156.01 168.796 155.667 169.109 155.418C169.422 155.169 169.808 155.044 170.265 155.044C170.357 155.044 170.455 155.054 170.558 155.075C170.66 155.096 170.735 155.119 170.781 155.144L170.767 156Z" fill="white"/>
<path d="M174.811 153.07V155.198H176.237V155.969H174.811V161.511C174.811 161.799 174.835 162.032 174.884 162.209C174.933 162.386 174.999 162.524 175.08 162.622C175.163 162.72 175.256 162.785 175.361 162.819C175.467 162.852 175.578 162.869 175.696 162.869C175.809 162.869 175.92 162.86 176.028 162.842C176.136 162.824 176.231 162.807 176.313 162.792L176.336 163.563C176.244 163.604 176.122 163.636 175.97 163.66C175.819 163.683 175.66 163.695 175.496 163.695C175.275 163.695 175.071 163.659 174.883 163.587C174.695 163.515 174.532 163.394 174.393 163.224C174.254 163.055 174.146 162.83 174.069 162.55C173.992 162.27 173.954 161.921 173.954 161.505V155.97H172.667V155.199H173.954V153.071H174.811V153.07Z" fill="white"/>
<path d="M179.787 155.198L179.81 156.524C180.057 156.072 180.371 155.712 180.754 155.445C181.137 155.178 181.573 155.044 182.061 155.044C182.41 155.044 182.722 155.101 182.997 155.214C183.272 155.327 183.506 155.507 183.699 155.753C183.891 156 184.04 156.317 184.142 156.705C184.245 157.093 184.297 157.562 184.297 158.112V163.539H183.449V158.105C183.449 157.678 183.411 157.321 183.337 157.033C183.262 156.745 183.156 156.516 183.017 156.343C182.878 156.171 182.71 156.047 182.512 155.973C182.314 155.898 182.092 155.861 181.845 155.861C181.588 155.861 181.353 155.914 181.139 156.019C180.926 156.124 180.735 156.264 180.565 156.439C180.396 156.614 180.249 156.814 180.126 157.04C180.003 157.266 179.902 157.503 179.825 157.749V163.538H178.969V155.197H179.787V155.198Z" fill="white"/>
<path d="M190.192 163.693C189.729 163.693 189.305 163.617 188.92 163.465C188.534 163.313 188.202 163.082 187.922 162.771C187.642 162.46 187.425 162.068 187.27 161.595C187.116 161.122 187.039 160.562 187.039 159.915V158.967C187.039 158.268 187.121 157.671 187.286 157.174C187.45 156.678 187.67 156.272 187.945 155.956C188.22 155.64 188.539 155.409 188.901 155.262C189.263 155.116 189.645 155.042 190.046 155.042C190.961 155.042 191.656 155.344 192.131 155.948C192.607 156.552 192.844 157.475 192.844 158.719V159.444H187.888V159.914C187.888 160.423 187.945 160.865 188.057 161.24C188.171 161.615 188.33 161.926 188.535 162.173C188.741 162.419 188.987 162.603 189.275 162.724C189.563 162.845 189.882 162.906 190.231 162.906C190.663 162.906 191.038 162.832 191.357 162.686C191.675 162.54 191.966 162.312 192.228 162.004L192.675 162.574C192.562 162.728 192.43 162.872 192.278 163.006C192.126 163.14 191.949 163.258 191.746 163.361C191.543 163.464 191.313 163.545 191.056 163.604C190.798 163.663 190.51 163.693 190.192 163.693ZM190.045 155.845C189.742 155.845 189.463 155.897 189.209 155.999C188.955 156.102 188.734 156.265 188.546 156.488C188.358 156.712 188.208 157.001 188.095 157.355C187.982 157.709 187.915 158.138 187.895 158.642H191.988V158.418C191.978 158.012 191.932 157.65 191.85 157.331C191.768 157.012 191.648 156.743 191.492 156.522C191.335 156.301 191.136 156.133 190.895 156.017C190.651 155.903 190.369 155.845 190.045 155.845Z" fill="white"/>
<path d="M198.798 156C198.711 155.984 198.625 155.972 198.54 155.961C198.456 155.951 198.362 155.946 198.259 155.946C198.008 155.946 197.78 155.991 197.577 156.081C197.374 156.171 197.195 156.297 197.041 156.459C196.887 156.621 196.755 156.815 196.644 157.041C196.533 157.267 196.447 157.514 196.386 157.781V163.539H195.53V155.198H196.37L196.386 156.447C196.576 156.01 196.828 155.667 197.141 155.418C197.454 155.169 197.84 155.044 198.297 155.044C198.39 155.044 198.487 155.054 198.59 155.075C198.693 155.096 198.767 155.119 198.814 155.144L198.798 156Z" fill="white"/>
<path d="M205.34 161.488C205.34 161.319 205.308 161.159 205.244 161.01C205.179 160.861 205.074 160.717 204.928 160.578C204.782 160.439 204.589 160.298 204.35 160.154C204.111 160.01 203.814 159.856 203.46 159.691C203.08 159.522 202.74 159.358 202.442 159.202C202.144 159.045 201.894 158.876 201.691 158.693C201.488 158.511 201.333 158.305 201.225 158.076C201.117 157.848 201.064 157.576 201.064 157.263C201.064 156.955 201.121 156.666 201.237 156.396C201.353 156.126 201.518 155.891 201.734 155.69C201.95 155.49 202.212 155.332 202.52 155.216C202.828 155.1 203.173 155.042 203.553 155.042C203.959 155.042 204.324 155.103 204.647 155.223C204.971 155.344 205.245 155.512 205.468 155.728C205.691 155.944 205.863 156.202 205.981 156.503C206.099 156.804 206.158 157.131 206.158 157.486H205.302C205.302 157.27 205.264 157.063 205.186 156.865C205.109 156.668 204.996 156.493 204.847 156.341C204.698 156.189 204.515 156.068 204.3 155.979C204.084 155.889 203.835 155.844 203.552 155.844C203.259 155.844 203.01 155.884 202.804 155.964C202.598 156.044 202.429 156.149 202.295 156.28C202.162 156.411 202.064 156.561 202.002 156.727C201.94 156.894 201.91 157.062 201.91 157.232C201.91 157.401 201.936 157.552 201.987 157.683C202.038 157.814 202.132 157.941 202.268 158.064C202.404 158.187 202.588 158.315 202.819 158.446C203.05 158.577 203.348 158.73 203.713 158.904C204.099 159.074 204.445 159.238 204.753 159.397C205.062 159.557 205.323 159.732 205.536 159.925C205.749 160.117 205.914 160.335 206.03 160.576C206.145 160.818 206.203 161.106 206.203 161.44C206.203 161.784 206.141 162.095 206.018 162.373C205.895 162.65 205.719 162.887 205.49 163.082C205.261 163.277 204.986 163.427 204.665 163.533C204.343 163.638 203.988 163.691 203.597 163.691C203.145 163.691 202.746 163.625 202.402 163.494C202.058 163.363 201.769 163.187 201.535 162.966C201.301 162.745 201.124 162.488 201.003 162.195C200.882 161.902 200.822 161.591 200.822 161.262H201.685C201.701 161.591 201.768 161.861 201.889 162.071C202.01 162.282 202.16 162.449 202.34 162.572C202.52 162.695 202.72 162.78 202.941 162.826C203.162 162.872 203.381 162.895 203.596 162.895C203.878 162.895 204.129 162.858 204.348 162.783C204.566 162.708 204.749 162.609 204.895 162.482C205.041 162.356 205.152 162.207 205.227 162.035C205.303 161.867 205.34 161.684 205.34 161.488Z" fill="white"/>
<path d="M14.6433 145.063C7.04531 145.063 0.818359 138.875 0.818359 131.238C0.818359 123.601 7.04531 117.413 14.6433 117.413C18.6383 117.413 22.4364 119.136 25.0614 122.113C25.5314 122.661 25.4523 123.445 24.9443 123.875C24.4353 124.345 23.6514 124.306 23.1814 123.757C21.0274 121.29 17.9334 119.88 14.6444 119.88C8.41741 119.88 3.32532 124.971 3.32532 131.237C3.32532 137.464 8.41641 142.556 14.6444 142.556C17.7774 142.556 20.7534 141.264 22.8684 139.031V133.47H15.6234C14.9184 133.47 14.3694 132.922 14.3694 132.217C14.3694 131.512 14.9184 130.964 15.6234 130.964H24.1223C24.8273 130.964 25.3754 131.512 25.3754 132.217V139.502C25.3754 139.815 25.2584 140.089 25.0624 140.324C22.4364 143.339 18.6373 145.063 14.6433 145.063Z" fill="white"/>
<path d="M41.1582 145.063C35.0492 145.063 30.0752 140.089 30.0752 133.94V118.666C30.0752 117.961 30.6242 117.413 31.2892 117.413C31.9942 117.413 32.5422 117.961 32.5422 118.666V133.94C32.5422 138.718 36.4192 142.556 41.1582 142.556C45.9362 142.556 49.7743 138.718 49.7743 133.94V118.666C49.7743 117.961 50.3222 117.413 51.0272 117.413C51.7332 117.413 52.2803 117.961 52.2803 118.666V133.94C52.2813 140.088 47.3072 145.063 41.1582 145.063Z" fill="white"/>
<path d="M58.0402 145.063C57.3342 145.063 56.7861 144.515 56.7861 143.81V118.667C56.7861 117.962 57.3342 117.414 58.0402 117.414C58.7452 117.414 59.2931 117.962 59.2931 118.667V143.81C59.2931 144.514 58.7442 145.063 58.0402 145.063Z" fill="white"/>
<path d="M71.3949 145.063H65.0499C64.3449 145.063 63.7969 144.515 63.7969 143.81V118.667C63.7969 117.962 64.3449 117.414 65.0499 117.414H71.3949C79.0319 117.414 85.2198 123.602 85.2198 131.239C85.2198 138.876 79.0309 145.063 71.3949 145.063ZM66.3029 142.556H71.3949C77.6609 142.556 82.7529 137.465 82.7529 131.237C82.7529 124.971 77.6619 119.88 71.3949 119.88H66.3029V142.556Z" fill="white"/>
<path d="M108.445 143.809C108.445 144.514 107.858 145.062 107.192 145.062H90.7822C90.0772 145.062 89.5293 144.514 89.5293 143.809V118.666C89.5293 117.961 90.0772 117.413 90.7822 117.413H107.192C107.858 117.413 108.445 117.961 108.445 118.666C108.445 119.332 107.858 119.88 107.192 119.88H92.0353V129.397H102.962C103.628 129.397 104.216 129.945 104.216 130.611C104.216 131.316 103.629 131.864 102.962 131.864H92.0353V142.556H107.192C107.858 142.556 108.445 143.143 108.445 143.809Z" fill="white"/>
<path d="M132.219 127.478C132.219 133 127.754 137.465 122.271 137.465H116.906V142.752C116.906 144.044 115.888 145.063 114.635 145.063C113.382 145.063 112.364 144.045 112.364 142.752V119.802C112.364 118.549 113.382 117.53 114.635 117.53H122.272C127.755 117.53 132.219 121.995 132.219 127.478ZM127.676 127.478C127.676 124.501 125.248 122.112 122.271 122.112H116.906V132.882H122.271C125.248 132.882 127.676 130.493 127.676 127.478Z" fill="white"/>
<path d="M149.101 145.063C141.503 145.063 135.354 138.914 135.354 131.316C135.354 123.757 141.503 117.569 149.101 117.569C156.66 117.569 162.849 123.757 162.849 131.316C162.848 138.914 156.66 145.063 149.101 145.063ZM149.101 122.112C144.01 122.112 139.897 126.264 139.897 131.316C139.897 136.407 144.009 140.52 149.101 140.52C154.153 140.52 158.306 136.408 158.306 131.316C158.305 126.264 154.153 122.112 149.101 122.112Z" fill="white"/>
<path d="M174.951 145.063C171.505 145.063 169.429 143.614 168.254 142.439C166.805 140.912 165.983 138.875 165.983 136.799C165.983 135.546 167.001 134.528 168.254 134.528C169.508 134.528 170.525 135.546 170.525 136.799C170.525 138.17 171.465 140.52 174.951 140.52C178.436 140.52 179.377 138.17 179.377 136.799C179.377 134.723 178.241 134.096 174.403 133C172.679 132.491 170.917 131.982 169.468 130.964C167.51 129.632 166.531 127.752 166.531 125.324C166.531 123.366 167.314 121.447 168.646 120.037C169.742 118.901 171.74 117.57 174.952 117.57C178.203 117.57 180.161 118.901 181.257 120.037C182.628 121.447 183.411 123.366 183.411 125.324C183.411 126.577 182.393 127.595 181.101 127.595C179.848 127.595 178.83 126.577 178.83 125.324C178.83 124.149 178.008 122.112 174.953 122.112C171.898 122.112 171.076 124.148 171.076 125.324C171.076 126.851 171.664 127.439 175.658 128.614C177.459 129.123 179.339 129.671 180.867 130.768C182.904 132.178 183.922 134.215 183.922 136.8C183.922 138.875 183.1 140.912 181.651 142.44C180.512 143.613 178.397 145.063 174.951 145.063Z" fill="white"/>
<path d="M207.066 119.841C207.066 121.094 206.048 122.112 204.795 122.112H198.568V142.791C198.568 144.044 197.55 145.062 196.258 145.062C195.005 145.062 193.987 144.044 193.987 142.791V122.112H187.76C186.507 122.112 185.488 121.094 185.488 119.841C185.488 118.588 186.506 117.57 187.76 117.57H204.796C206.048 117.569 207.066 118.588 207.066 119.841Z" fill="white"/>
</svg>
