<svg width="216" height="54" viewBox="0 0 216 54" fill="none" xmlns="http://www.w3.org/2000/svg">
<path d="M69.0928 35.831C69.0928 35.707 69.1278 35.602 69.1968 35.514C69.2658 35.427 69.3647 35.383 69.4927 35.383C69.6207 35.383 69.7197 35.427 69.7917 35.514C69.8627 35.601 69.8987 35.707 69.8987 35.831C69.8987 35.955 69.8627 36.06 69.7917 36.145C69.7207 36.231 69.6207 36.273 69.4927 36.273C69.3647 36.273 69.2658 36.23 69.1968 36.145C69.1268 36.059 69.0928 35.955 69.0928 35.831ZM69.7937 43.447H69.1797V37.535H69.7937V43.447Z" fill="white"/>
<path d="M72.6758 37.535L72.6918 38.475C72.8678 38.155 73.0908 37.899 73.3638 37.71C73.6358 37.521 73.9457 37.426 74.2927 37.426C74.5417 37.426 74.7637 37.466 74.9587 37.546C75.1537 37.626 75.3208 37.754 75.4578 37.928C75.5948 38.102 75.6997 38.328 75.7727 38.603C75.8457 38.878 75.8827 39.21 75.8827 39.6V43.446H75.2798V39.594C75.2798 39.292 75.2537 39.039 75.2007 38.835C75.1477 38.631 75.0718 38.468 74.9738 38.346C74.8748 38.224 74.7547 38.137 74.6147 38.084C74.4747 38.031 74.3157 38.005 74.1407 38.005C73.9577 38.005 73.7907 38.042 73.6387 38.117C73.4867 38.192 73.3507 38.291 73.2307 38.415C73.1097 38.539 73.0057 38.681 72.9187 38.841C72.8307 39.001 72.7597 39.169 72.7047 39.344V43.447H72.0957V37.535H72.6758V37.535Z" fill="white"/>
<path d="M77.8984 40.218C77.8984 39.723 77.9435 39.299 78.0325 38.948C78.1215 38.597 78.2504 38.308 78.4194 38.082C78.5874 37.856 78.7915 37.69 79.0305 37.585C79.2695 37.479 79.5375 37.427 79.8335 37.427C80.1875 37.427 80.4885 37.506 80.7355 37.665C80.9825 37.823 81.1844 38.045 81.3414 38.329V35.056H81.9495V43.448H81.3795L81.3525 42.689C81.1955 42.962 80.9915 43.175 80.7415 43.328C80.4915 43.481 80.1865 43.557 79.8285 43.557C79.5325 43.557 79.2655 43.501 79.0275 43.39C78.7895 43.279 78.5875 43.109 78.4215 42.879C78.2555 42.65 78.1265 42.36 78.0345 42.01C77.9435 41.66 77.8975 41.247 77.8975 40.77V40.218H77.8984ZM78.5184 40.77C78.5184 41.528 78.6325 42.085 78.8615 42.442C79.0895 42.799 79.4525 42.977 79.9495 42.977C80.1285 42.977 80.2904 42.954 80.4344 42.909C80.5794 42.864 80.7085 42.8 80.8235 42.718C80.9385 42.636 81.0384 42.54 81.1224 42.428C81.2064 42.317 81.2794 42.196 81.3414 42.065V39C81.2864 38.869 81.2184 38.743 81.1384 38.623C81.0584 38.503 80.9625 38.398 80.8505 38.309C80.7395 38.22 80.6095 38.148 80.4615 38.093C80.3135 38.038 80.1445 38.011 79.9545 38.011C79.4535 38.011 79.0895 38.19 78.8605 38.549C78.6315 38.908 78.5175 39.464 78.5175 40.218V40.77H78.5184Z" fill="white"/>
<path d="M86.1697 43.556C85.8407 43.556 85.5398 43.502 85.2648 43.395C84.9908 43.288 84.7537 43.124 84.5547 42.903C84.3557 42.683 84.2007 42.405 84.0917 42.07C83.9817 41.735 83.9277 41.338 83.9277 40.879V40.207C83.9277 39.712 83.9858 39.288 84.1028 38.937C84.2198 38.586 84.3758 38.298 84.5718 38.074C84.7668 37.85 84.9937 37.686 85.2517 37.582C85.5097 37.478 85.7807 37.426 86.0657 37.426C86.7167 37.426 87.2107 37.64 87.5487 38.068C87.8867 38.496 88.0558 39.151 88.0558 40.032V40.546H84.5308V40.879C84.5308 41.24 84.5707 41.553 84.6517 41.819C84.7317 42.085 84.8457 42.305 84.9917 42.48C85.1377 42.655 85.3137 42.785 85.5177 42.871C85.7227 42.957 85.9488 42.999 86.1978 42.999C86.5048 42.999 86.7717 42.947 86.9977 42.843C87.2247 42.739 87.4307 42.578 87.6177 42.359L87.9358 42.763C87.8558 42.872 87.7607 42.974 87.6537 43.069C87.5457 43.164 87.4198 43.247 87.2758 43.32C87.1318 43.393 86.9678 43.45 86.7858 43.492C86.6018 43.535 86.3967 43.556 86.1697 43.556ZM86.0657 37.994C85.8497 37.994 85.6517 38.03 85.4707 38.103C85.2897 38.176 85.1328 38.292 84.9998 38.45C84.8658 38.608 84.7597 38.813 84.6787 39.065C84.5987 39.316 84.5508 39.621 84.5358 39.977H87.4468V39.819C87.4398 39.531 87.4068 39.274 87.3478 39.049C87.2898 38.823 87.2038 38.632 87.0928 38.475C86.9818 38.318 86.8397 38.199 86.6677 38.117C86.4967 38.035 86.2957 37.994 86.0657 37.994Z" fill="white"/>
<path d="M94.0137 40.77C94.0137 41.247 93.9708 41.661 93.8848 42.01C93.7988 42.36 93.6758 42.649 93.5148 42.879C93.3538 43.108 93.1547 43.279 92.9177 43.39C92.6797 43.501 92.4117 43.557 92.1117 43.557C91.7537 43.557 91.4477 43.485 91.1937 43.341C90.9397 43.197 90.7328 42.996 90.5718 42.737V45.72H89.9688V37.535H90.5277L90.5558 38.344C90.7208 38.056 90.9288 37.831 91.1808 37.669C91.4328 37.507 91.7377 37.426 92.0967 37.426C92.4037 37.426 92.6757 37.479 92.9137 37.584C93.1517 37.69 93.3517 37.855 93.5167 38.081C93.6807 38.307 93.8058 38.596 93.8898 38.947C93.9738 39.299 94.0157 39.722 94.0157 40.217V40.77H94.0137ZM93.4048 40.218C93.4048 39.46 93.2868 38.903 93.0518 38.546C92.8158 38.189 92.4478 38.011 91.9468 38.011C91.7598 38.011 91.5927 38.037 91.4447 38.09C91.2967 38.143 91.1668 38.215 91.0558 38.306C90.9448 38.397 90.8498 38.501 90.7708 38.617C90.6918 38.734 90.6257 38.857 90.5707 38.989V42.103C90.6287 42.231 90.7017 42.349 90.7877 42.458C90.8737 42.567 90.9738 42.662 91.0868 42.742C91.2008 42.822 91.3288 42.884 91.4738 42.928C91.6178 42.972 91.7797 42.994 91.9587 42.994C92.4517 42.994 92.8167 42.813 93.0527 42.45C93.2887 42.088 93.4058 41.528 93.4058 40.77V40.218H93.4048Z" fill="white"/>
<path d="M98.0027 43.556C97.6737 43.556 97.3728 43.502 97.0978 43.395C96.8238 43.288 96.5867 43.124 96.3877 42.903C96.1887 42.683 96.0337 42.405 95.9247 42.07C95.8147 41.735 95.7607 41.338 95.7607 40.879V40.207C95.7607 39.712 95.8188 39.288 95.9358 38.937C96.0528 38.586 96.2088 38.298 96.4048 38.074C96.6008 37.85 96.8267 37.686 97.0847 37.582C97.3427 37.478 97.6137 37.426 97.8987 37.426C98.5497 37.426 99.0437 37.64 99.3817 38.068C99.7197 38.496 99.8887 39.151 99.8887 40.032V40.546H96.3638V40.879C96.3638 41.24 96.4037 41.553 96.4847 41.819C96.5647 42.085 96.6787 42.305 96.8247 42.48C96.9707 42.655 97.1467 42.785 97.3507 42.871C97.5547 42.957 97.7818 42.999 98.0308 42.999C98.3378 42.999 98.6047 42.947 98.8307 42.843C99.0577 42.739 99.2637 42.578 99.4507 42.359L99.7687 42.763C99.6887 42.872 99.5937 42.974 99.4867 43.069C99.3787 43.164 99.2528 43.247 99.1088 43.32C98.9648 43.393 98.8008 43.45 98.6188 43.492C98.4338 43.535 98.2297 43.556 98.0027 43.556ZM97.8987 37.994C97.6827 37.994 97.4847 38.03 97.3037 38.103C97.1227 38.176 96.9658 38.292 96.8328 38.45C96.6988 38.608 96.5927 38.813 96.5117 39.065C96.4317 39.316 96.3838 39.621 96.3688 39.977H99.2798V39.819C99.2728 39.531 99.2398 39.274 99.1808 39.049C99.1228 38.823 99.0368 38.632 98.9258 38.475C98.8148 38.318 98.6727 38.199 98.5007 38.117C98.3297 38.035 98.1287 37.994 97.8987 37.994Z" fill="white"/>
<path d="M102.382 37.535L102.398 38.475C102.574 38.155 102.797 37.899 103.07 37.71C103.343 37.521 103.652 37.426 103.999 37.426C104.247 37.426 104.47 37.466 104.665 37.546C104.861 37.626 105.027 37.754 105.164 37.928C105.301 38.102 105.406 38.328 105.479 38.603C105.552 38.878 105.589 39.21 105.589 39.6V43.446H104.986V39.594C104.986 39.292 104.96 39.039 104.907 38.835C104.854 38.631 104.778 38.468 104.679 38.346C104.58 38.224 104.461 38.137 104.32 38.084C104.179 38.031 104.021 38.005 103.846 38.005C103.663 38.005 103.496 38.042 103.344 38.117C103.192 38.192 103.056 38.291 102.936 38.415C102.815 38.539 102.711 38.681 102.624 38.841C102.536 39.001 102.465 39.169 102.41 39.344V43.447H101.801V37.535H102.382V37.535Z" fill="white"/>
<path d="M107.604 40.218C107.604 39.723 107.65 39.299 107.739 38.948C107.828 38.597 107.956 38.308 108.125 38.082C108.293 37.856 108.497 37.69 108.736 37.585C108.975 37.479 109.243 37.427 109.539 37.427C109.893 37.427 110.195 37.506 110.442 37.665C110.689 37.823 110.89 38.045 111.047 38.329V35.056H111.656V43.448H111.087L111.059 42.689C110.902 42.962 110.698 43.175 110.448 43.328C110.198 43.481 109.894 43.557 109.536 43.557C109.24 43.557 108.972 43.501 108.735 43.39C108.497 43.279 108.296 43.109 108.13 42.879C107.963 42.65 107.834 42.36 107.742 42.01C107.651 41.66 107.605 41.247 107.605 40.77V40.218H107.604ZM108.224 40.77C108.224 41.528 108.338 42.085 108.567 42.442C108.795 42.799 109.158 42.977 109.655 42.977C109.834 42.977 109.996 42.954 110.14 42.909C110.285 42.864 110.413 42.8 110.528 42.718C110.643 42.636 110.744 42.54 110.828 42.428C110.912 42.317 110.985 42.196 111.047 42.065V39C110.992 38.869 110.924 38.743 110.844 38.623C110.764 38.503 110.668 38.398 110.556 38.309C110.444 38.22 110.315 38.148 110.167 38.093C110.019 38.038 109.85 38.011 109.66 38.011C109.159 38.011 108.794 38.19 108.565 38.549C108.337 38.908 108.223 39.464 108.223 40.218V40.77H108.224Z" fill="white"/>
<path d="M115.876 43.556C115.547 43.556 115.246 43.502 114.971 43.395C114.697 43.288 114.46 43.124 114.261 42.903C114.062 42.683 113.907 42.405 113.797 42.07C113.688 41.735 113.633 41.338 113.633 40.879V40.207C113.633 39.712 113.691 39.288 113.809 38.937C113.926 38.586 114.082 38.298 114.278 38.074C114.474 37.85 114.7 37.686 114.958 37.582C115.216 37.478 115.487 37.426 115.772 37.426C116.423 37.426 116.917 37.64 117.255 38.068C117.593 38.496 117.762 39.151 117.762 40.032V40.546H114.237V40.879C114.237 41.24 114.277 41.553 114.358 41.819C114.438 42.085 114.552 42.305 114.698 42.48C114.844 42.655 115.02 42.785 115.224 42.871C115.429 42.957 115.655 42.999 115.904 42.999C116.211 42.999 116.478 42.947 116.704 42.843C116.931 42.739 117.137 42.578 117.324 42.359L117.642 42.763C117.562 42.872 117.467 42.974 117.36 43.069C117.252 43.164 117.126 43.247 116.982 43.32C116.838 43.393 116.674 43.45 116.491 43.492C116.307 43.535 116.102 43.556 115.876 43.556ZM115.772 37.994C115.556 37.994 115.358 38.03 115.177 38.103C114.996 38.176 114.839 38.292 114.706 38.45C114.573 38.608 114.466 38.813 114.385 39.065C114.305 39.316 114.257 39.621 114.243 39.977H117.154V39.819C117.146 39.531 117.114 39.274 117.055 39.049C116.997 38.823 116.911 38.632 116.8 38.475C116.689 38.318 116.547 38.199 116.375 38.117C116.203 38.035 116.002 37.994 115.772 37.994Z" fill="white"/>
<path d="M120.254 37.535L120.271 38.475C120.446 38.155 120.67 37.899 120.943 37.71C121.216 37.521 121.525 37.426 121.872 37.426C122.121 37.426 122.342 37.466 122.538 37.546C122.734 37.626 122.9 37.754 123.037 37.928C123.174 38.102 123.279 38.328 123.352 38.603C123.425 38.878 123.462 39.21 123.462 39.6V43.446H122.859V39.594C122.859 39.292 122.833 39.039 122.78 38.835C122.727 38.631 122.651 38.468 122.552 38.346C122.453 38.224 122.334 38.137 122.193 38.084C122.052 38.031 121.894 38.005 121.719 38.005C121.536 38.005 121.369 38.042 121.217 38.117C121.066 38.192 120.929 38.291 120.809 38.415C120.689 38.539 120.584 38.681 120.497 38.841C120.409 39.001 120.338 39.169 120.283 39.344V43.447H119.674V37.535H120.254V37.535Z" fill="white"/>
<path d="M126.612 36.027V37.535H127.626V38.081H126.612V42.009C126.612 42.213 126.629 42.378 126.664 42.503C126.699 42.629 126.745 42.726 126.804 42.795C126.862 42.864 126.929 42.911 127.004 42.934C127.079 42.958 127.158 42.969 127.242 42.969C127.323 42.969 127.401 42.963 127.478 42.95C127.555 42.937 127.622 42.925 127.681 42.914L127.697 43.46C127.631 43.489 127.544 43.512 127.437 43.528C127.329 43.544 127.217 43.553 127.1 43.553C126.943 43.553 126.798 43.527 126.664 43.477C126.53 43.426 126.414 43.34 126.316 43.22C126.217 43.1 126.14 42.94 126.086 42.742C126.031 42.543 126.004 42.297 126.004 42.002V38.079H125.088V37.533H126.004V36.025H126.612V36.027Z" fill="white"/>
<path d="M134.584 42.994C134.752 42.994 134.916 42.972 135.073 42.928C135.23 42.884 135.369 42.81 135.492 42.704C135.614 42.598 135.715 42.457 135.794 42.281C135.873 42.104 135.917 41.883 135.928 41.617H136.516C136.501 41.934 136.44 42.214 136.334 42.456C136.228 42.698 136.087 42.9 135.912 43.062C135.736 43.224 135.535 43.347 135.309 43.431C135.082 43.515 134.841 43.557 134.585 43.557C133.872 43.557 133.336 43.328 132.976 42.869C132.616 42.41 132.437 41.729 132.437 40.826V40.159C132.437 39.256 132.616 38.575 132.976 38.116C133.336 37.657 133.87 37.428 134.58 37.428C134.851 37.428 135.102 37.471 135.334 37.556C135.566 37.642 135.767 37.771 135.938 37.944C136.108 38.117 136.243 38.336 136.345 38.6C136.447 38.864 136.505 39.175 136.516 39.532H135.928C135.917 39.259 135.875 39.025 135.802 38.83C135.729 38.635 135.634 38.476 135.515 38.352C135.396 38.228 135.257 38.138 135.098 38.082C134.939 38.026 134.765 37.997 134.579 37.997C134.298 37.997 134.06 38.045 133.866 38.142C133.672 38.239 133.516 38.38 133.395 38.565C133.274 38.751 133.186 38.978 133.131 39.245C133.076 39.513 133.049 39.818 133.049 40.16V40.827C133.049 41.173 133.076 41.481 133.129 41.75C133.182 42.02 133.268 42.246 133.388 42.43C133.509 42.614 133.668 42.754 133.863 42.851C134.06 42.945 134.299 42.994 134.584 42.994Z" fill="white"/>
<path d="M140.745 38.104C140.683 38.093 140.622 38.084 140.561 38.077C140.501 38.07 140.434 38.066 140.361 38.066C140.182 38.066 140.02 38.098 139.876 38.162C139.732 38.226 139.605 38.315 139.495 38.43C139.385 38.545 139.291 38.682 139.212 38.843C139.133 39.003 139.072 39.178 139.029 39.367V43.448H138.42V37.536H139.018L139.029 38.421C139.164 38.111 139.343 37.868 139.566 37.692C139.789 37.515 140.063 37.427 140.388 37.427C140.454 37.427 140.523 37.434 140.596 37.449C140.669 37.464 140.722 37.48 140.755 37.498L140.745 38.104Z" fill="white"/>
<path d="M144.285 43.556C143.956 43.556 143.655 43.502 143.38 43.395C143.106 43.288 142.869 43.124 142.67 42.903C142.471 42.683 142.316 42.405 142.207 42.07C142.097 41.735 142.043 41.338 142.043 40.879V40.207C142.043 39.712 142.101 39.288 142.218 38.937C142.335 38.586 142.491 38.298 142.687 38.074C142.883 37.85 143.109 37.686 143.367 37.582C143.625 37.478 143.896 37.426 144.181 37.426C144.831 37.426 145.326 37.64 145.664 38.068C146.002 38.496 146.171 39.151 146.171 40.032V40.546H142.646V40.879C142.646 41.24 142.686 41.553 142.766 41.819C142.846 42.085 142.96 42.305 143.106 42.48C143.252 42.655 143.428 42.785 143.632 42.871C143.836 42.957 144.063 42.999 144.312 42.999C144.619 42.999 144.886 42.947 145.113 42.843C145.339 42.739 145.546 42.578 145.733 42.359L146.051 42.763C145.971 42.872 145.876 42.974 145.769 43.069C145.661 43.164 145.535 43.247 145.391 43.32C145.246 43.393 145.083 43.45 144.9 43.492C144.716 43.535 144.512 43.556 144.285 43.556ZM144.181 37.994C143.965 37.994 143.767 38.03 143.586 38.103C143.405 38.176 143.248 38.292 143.115 38.45C142.981 38.608 142.875 38.813 142.794 39.065C142.714 39.316 142.666 39.621 142.652 39.977H145.563V39.819C145.556 39.531 145.523 39.274 145.464 39.049C145.405 38.823 145.32 38.632 145.209 38.475C145.097 38.318 144.956 38.199 144.784 38.117C144.612 38.035 144.411 37.994 144.181 37.994Z" fill="white"/>
<path d="M151.219 43.447C151.19 43.349 151.166 43.226 151.148 43.078C151.13 42.931 151.117 42.78 151.11 42.627C151.033 42.751 150.942 42.868 150.836 42.979C150.73 43.09 150.608 43.189 150.471 43.274C150.334 43.36 150.181 43.428 150.013 43.479C149.845 43.53 149.664 43.555 149.47 43.555C149.225 43.555 149.003 43.52 148.804 43.451C148.605 43.382 148.434 43.278 148.291 43.14C148.149 43.002 148.039 42.829 147.962 42.621C147.885 42.413 147.847 42.171 147.847 41.894C147.847 41.621 147.894 41.369 147.989 41.137C148.084 40.906 148.226 40.706 148.414 40.539C148.602 40.371 148.837 40.24 149.118 40.146C149.399 40.051 149.727 40.004 150.099 40.004H151.102V39.179C151.102 38.756 150.997 38.453 150.787 38.269C150.577 38.085 150.269 37.993 149.863 37.993C149.673 37.993 149.498 38.022 149.339 38.08C149.18 38.138 149.044 38.219 148.931 38.323C148.818 38.427 148.73 38.551 148.668 38.695C148.606 38.839 148.575 38.996 148.575 39.168L147.966 39.163C147.966 38.934 148.012 38.714 148.103 38.505C148.194 38.296 148.324 38.111 148.492 37.95C148.66 37.79 148.863 37.662 149.101 37.568C149.339 37.473 149.602 37.426 149.89 37.426C150.157 37.426 150.401 37.458 150.622 37.522C150.843 37.586 151.034 37.688 151.195 37.828C151.356 37.968 151.481 38.15 151.571 38.374C151.66 38.598 151.705 38.87 151.705 39.191V42.207C151.705 42.309 151.709 42.415 151.716 42.524C151.723 42.633 151.733 42.74 151.746 42.844C151.759 42.948 151.775 43.046 151.795 43.139C151.815 43.232 151.838 43.313 151.863 43.382V43.448H151.219V43.447ZM149.546 42.972C149.736 42.972 149.914 42.946 150.081 42.893C150.248 42.84 150.396 42.767 150.528 42.674C150.66 42.581 150.774 42.473 150.871 42.349C150.968 42.225 151.046 42.092 151.104 41.95V40.513H150.188C149.614 40.513 149.183 40.633 148.894 40.874C148.605 41.114 148.461 41.439 148.461 41.847C148.461 42.237 148.557 42.522 148.749 42.702C148.94 42.882 149.206 42.972 149.546 42.972Z" fill="white"/>
<path d="M154.901 36.027V37.535H155.915V38.081H154.901V42.009C154.901 42.213 154.918 42.378 154.953 42.503C154.988 42.629 155.034 42.726 155.093 42.795C155.151 42.864 155.218 42.911 155.293 42.934C155.368 42.958 155.447 42.969 155.531 42.969C155.611 42.969 155.69 42.963 155.767 42.95C155.844 42.937 155.911 42.925 155.97 42.914L155.986 43.46C155.92 43.489 155.833 43.512 155.726 43.528C155.618 43.544 155.506 43.553 155.389 43.553C155.232 43.553 155.087 43.527 154.953 43.477C154.82 43.426 154.703 43.34 154.605 43.22C154.506 43.1 154.429 42.94 154.375 42.742C154.32 42.543 154.293 42.297 154.293 42.002V38.079H153.378V37.533H154.293V36.025H154.901V36.027Z" fill="white"/>
<path d="M157.838 35.831C157.838 35.707 157.873 35.602 157.942 35.514C158.011 35.427 158.11 35.383 158.238 35.383C158.366 35.383 158.466 35.427 158.537 35.514C158.608 35.601 158.644 35.707 158.644 35.831C158.644 35.955 158.608 36.06 158.537 36.145C158.466 36.231 158.366 36.273 158.238 36.273C158.11 36.273 158.011 36.23 157.942 36.145C157.872 36.059 157.838 35.955 157.838 35.831ZM158.539 43.447H157.925V37.535H158.539V43.447Z" fill="white"/>
<path d="M162.413 42.496L163.871 37.535H164.496L162.648 43.447H162.166L160.307 37.535H160.932L162.413 42.496Z" fill="white"/>
<path d="M168.107 43.556C167.778 43.556 167.477 43.502 167.202 43.395C166.928 43.288 166.691 43.124 166.492 42.903C166.293 42.683 166.138 42.405 166.029 42.07C165.919 41.735 165.865 41.338 165.865 40.879V40.207C165.865 39.712 165.923 39.288 166.04 38.937C166.157 38.586 166.313 38.298 166.509 38.074C166.705 37.85 166.931 37.686 167.189 37.582C167.447 37.478 167.718 37.426 168.003 37.426C168.653 37.426 169.148 37.64 169.486 38.068C169.824 38.496 169.993 39.151 169.993 40.032V40.546H166.468V40.879C166.468 41.24 166.508 41.553 166.588 41.819C166.668 42.085 166.782 42.305 166.928 42.48C167.074 42.655 167.25 42.785 167.454 42.871C167.658 42.957 167.885 42.999 168.134 42.999C168.441 42.999 168.708 42.947 168.935 42.843C169.161 42.739 169.368 42.578 169.555 42.359L169.873 42.763C169.793 42.872 169.698 42.974 169.591 43.069C169.483 43.164 169.357 43.247 169.213 43.32C169.068 43.393 168.905 43.45 168.722 43.492C168.538 43.535 168.333 43.556 168.107 43.556ZM168.003 37.994C167.787 37.994 167.589 38.03 167.408 38.103C167.227 38.176 167.07 38.292 166.937 38.45C166.803 38.608 166.697 38.813 166.616 39.065C166.536 39.316 166.488 39.621 166.474 39.977H169.385V39.819C169.378 39.531 169.345 39.274 169.286 39.049C169.227 38.823 169.142 38.632 169.031 38.475C168.919 38.318 168.778 38.199 168.606 38.117C168.434 38.035 168.233 37.994 168.003 37.994Z" fill="white"/>
<path d="M179.091 40.77C179.091 41.247 179.048 41.661 178.962 42.01C178.876 42.36 178.753 42.649 178.592 42.879C178.431 43.108 178.232 43.279 177.994 43.39C177.756 43.501 177.488 43.557 177.188 43.557C176.83 43.557 176.524 43.485 176.27 43.341C176.016 43.197 175.809 42.996 175.648 42.737V45.72H175.045V37.535H175.604L175.631 38.344C175.796 38.056 176.004 37.831 176.256 37.669C176.508 37.507 176.813 37.426 177.172 37.426C177.479 37.426 177.751 37.479 177.989 37.584C178.227 37.69 178.427 37.855 178.592 38.081C178.756 38.307 178.881 38.596 178.965 38.947C179.049 39.299 179.091 39.722 179.091 40.217V40.77V40.77ZM178.482 40.218C178.482 39.46 178.364 38.903 178.128 38.546C177.892 38.189 177.524 38.011 177.023 38.011C176.837 38.011 176.669 38.037 176.521 38.09C176.373 38.143 176.243 38.215 176.132 38.306C176.02 38.397 175.925 38.501 175.847 38.617C175.768 38.734 175.701 38.857 175.647 38.989V42.103C175.705 42.231 175.778 42.349 175.864 42.458C175.95 42.567 176.049 42.662 176.163 42.742C176.276 42.822 176.405 42.884 176.55 42.928C176.694 42.972 176.856 42.994 177.035 42.994C177.528 42.994 177.893 42.813 178.129 42.45C178.365 42.088 178.483 41.528 178.483 40.77V40.218H178.482Z" fill="white"/>
<path d="M184.259 43.447C184.23 43.349 184.206 43.226 184.188 43.078C184.17 42.931 184.157 42.78 184.15 42.627C184.073 42.751 183.982 42.868 183.876 42.979C183.77 43.09 183.649 43.189 183.511 43.274C183.374 43.36 183.221 43.428 183.053 43.479C182.885 43.53 182.704 43.555 182.51 43.555C182.265 43.555 182.043 43.52 181.844 43.451C181.645 43.382 181.474 43.278 181.332 43.14C181.189 43.002 181.08 42.829 181.003 42.621C180.926 42.413 180.888 42.171 180.888 41.894C180.888 41.621 180.935 41.369 181.031 41.137C181.126 40.906 181.268 40.706 181.456 40.539C181.644 40.371 181.879 40.24 182.16 40.146C182.441 40.051 182.769 40.004 183.141 40.004H184.144V39.179C184.144 38.756 184.039 38.453 183.829 38.269C183.619 38.085 183.311 37.993 182.905 37.993C182.715 37.993 182.54 38.022 182.381 38.08C182.222 38.138 182.086 38.219 181.973 38.323C181.86 38.427 181.772 38.551 181.71 38.695C181.648 38.839 181.617 38.996 181.617 39.168L181.008 39.163C181.008 38.934 181.054 38.714 181.145 38.505C181.236 38.296 181.366 38.111 181.534 37.95C181.702 37.79 181.905 37.662 182.143 37.568C182.381 37.473 182.644 37.426 182.932 37.426C183.199 37.426 183.443 37.458 183.664 37.522C183.885 37.586 184.076 37.688 184.237 37.828C184.398 37.968 184.523 38.15 184.613 38.374C184.703 38.598 184.747 38.87 184.747 39.191V42.207C184.747 42.309 184.751 42.415 184.758 42.524C184.765 42.633 184.775 42.74 184.788 42.844C184.801 42.948 184.817 43.046 184.837 43.139C184.857 43.232 184.88 43.313 184.906 43.382V43.448H184.259V43.447ZM182.586 42.972C182.776 42.972 182.954 42.946 183.121 42.893C183.287 42.84 183.436 42.767 183.568 42.674C183.7 42.581 183.814 42.473 183.911 42.349C184.008 42.225 184.085 42.092 184.144 41.95V40.513H183.228C182.654 40.513 182.223 40.633 181.934 40.874C181.645 41.114 181.501 41.439 181.501 41.847C181.501 42.237 181.597 42.522 181.789 42.702C181.981 42.882 182.247 42.972 182.586 42.972Z" fill="white"/>
<path d="M189.349 38.104C189.287 38.093 189.226 38.084 189.165 38.077C189.105 38.07 189.038 38.066 188.965 38.066C188.786 38.066 188.624 38.098 188.48 38.162C188.336 38.226 188.209 38.315 188.099 38.43C187.989 38.545 187.895 38.682 187.817 38.843C187.738 39.003 187.677 39.178 187.633 39.367V43.448H187.024V37.536H187.622L187.633 38.421C187.768 38.111 187.947 37.868 188.17 37.692C188.393 37.515 188.667 37.427 188.992 37.427C189.058 37.427 189.127 37.434 189.2 37.449C189.273 37.464 189.326 37.48 189.359 37.498L189.349 38.104Z" fill="white"/>
<path d="M192.226 36.027V37.535H193.24V38.081H192.226V42.009C192.226 42.213 192.243 42.378 192.278 42.503C192.313 42.629 192.359 42.726 192.418 42.795C192.476 42.864 192.543 42.911 192.618 42.934C192.693 42.958 192.772 42.969 192.856 42.969C192.937 42.969 193.015 42.963 193.092 42.95C193.169 42.937 193.236 42.925 193.295 42.914L193.311 43.46C193.245 43.489 193.158 43.512 193.051 43.528C192.943 43.544 192.831 43.553 192.714 43.553C192.557 43.553 192.412 43.527 192.278 43.477C192.144 43.426 192.028 43.34 191.93 43.22C191.831 43.1 191.754 42.94 191.7 42.742C191.645 42.543 191.618 42.297 191.618 42.002V38.079H190.702V37.533H191.618V36.025H192.226V36.027Z" fill="white"/>
<path d="M195.766 37.535L195.783 38.475C195.958 38.155 196.182 37.899 196.454 37.71C196.726 37.521 197.036 37.426 197.383 37.426C197.631 37.426 197.853 37.466 198.049 37.546C198.245 37.626 198.411 37.754 198.548 37.928C198.685 38.103 198.79 38.328 198.863 38.603C198.936 38.878 198.972 39.21 198.972 39.6V43.446H198.369V39.594C198.369 39.292 198.343 39.039 198.29 38.835C198.237 38.631 198.161 38.468 198.063 38.346C197.964 38.224 197.845 38.137 197.704 38.084C197.563 38.031 197.405 38.005 197.23 38.005C197.047 38.005 196.88 38.042 196.728 38.117C196.576 38.192 196.44 38.291 196.32 38.415C196.2 38.539 196.095 38.681 196.008 38.841C195.92 39.001 195.849 39.169 195.794 39.344V43.447H195.185V37.535H195.766V37.535Z" fill="white"/>
<path d="M203.165 43.556C202.836 43.556 202.535 43.502 202.26 43.395C201.986 43.288 201.749 43.124 201.55 42.903C201.351 42.683 201.196 42.405 201.087 42.07C200.977 41.735 200.923 41.338 200.923 40.879V40.207C200.923 39.712 200.981 39.288 201.098 38.937C201.215 38.586 201.371 38.298 201.567 38.074C201.763 37.85 201.989 37.686 202.247 37.582C202.505 37.478 202.776 37.426 203.061 37.426C203.711 37.426 204.206 37.64 204.544 38.068C204.882 38.496 205.051 39.151 205.051 40.032V40.546H201.526V40.879C201.526 41.24 201.566 41.553 201.646 41.819C201.726 42.085 201.84 42.305 201.986 42.48C202.132 42.655 202.308 42.785 202.512 42.871C202.716 42.957 202.943 42.999 203.192 42.999C203.499 42.999 203.766 42.947 203.993 42.843C204.219 42.739 204.426 42.578 204.613 42.359L204.931 42.763C204.851 42.872 204.756 42.974 204.649 43.069C204.541 43.164 204.415 43.247 204.271 43.32C204.126 43.393 203.963 43.45 203.78 43.492C203.597 43.535 203.392 43.556 203.165 43.556ZM203.061 37.994C202.845 37.994 202.647 38.03 202.466 38.103C202.285 38.176 202.128 38.292 201.995 38.45C201.861 38.608 201.755 38.813 201.674 39.065C201.594 39.316 201.546 39.621 201.532 39.977H204.443V39.819C204.436 39.531 204.403 39.274 204.344 39.049C204.285 38.823 204.2 38.632 204.089 38.475C203.977 38.318 203.836 38.199 203.664 38.117C203.493 38.035 203.292 37.994 203.061 37.994Z" fill="white"/>
<path d="M209.287 38.104C209.225 38.093 209.164 38.084 209.103 38.077C209.043 38.07 208.976 38.066 208.903 38.066C208.724 38.066 208.562 38.098 208.418 38.162C208.274 38.226 208.147 38.315 208.037 38.43C207.927 38.545 207.833 38.682 207.755 38.843C207.676 39.003 207.615 39.178 207.571 39.367V43.448H206.962V37.536H207.56L207.571 38.421C207.706 38.111 207.885 37.868 208.108 37.692C208.331 37.515 208.605 37.427 208.93 37.427C208.996 37.427 209.065 37.434 209.138 37.449C209.211 37.464 209.264 37.48 209.297 37.498L209.287 38.104Z" fill="white"/>
<path d="M213.94 41.994C213.94 41.874 213.917 41.761 213.872 41.655C213.826 41.549 213.751 41.447 213.647 41.349C213.543 41.251 213.406 41.151 213.236 41.049C213.066 40.947 212.855 40.838 212.603 40.721C212.332 40.601 212.091 40.485 211.879 40.374C211.667 40.263 211.489 40.143 211.344 40.013C211.2 39.884 211.089 39.738 211.012 39.576C210.935 39.414 210.897 39.222 210.897 39C210.897 38.781 210.938 38.577 211.02 38.385C211.102 38.194 211.22 38.027 211.374 37.885C211.527 37.743 211.714 37.631 211.933 37.549C212.152 37.467 212.397 37.426 212.668 37.426C212.957 37.426 213.216 37.469 213.446 37.554C213.676 37.64 213.871 37.759 214.03 37.912C214.189 38.065 214.31 38.248 214.395 38.461C214.479 38.674 214.521 38.906 214.521 39.158H213.912C213.912 39.005 213.885 38.858 213.83 38.718C213.775 38.578 213.695 38.454 213.589 38.347C213.483 38.24 213.353 38.154 213.2 38.09C213.046 38.026 212.869 37.994 212.668 37.994C212.46 37.994 212.282 38.022 212.136 38.079C211.99 38.135 211.869 38.21 211.774 38.303C211.679 38.396 211.609 38.502 211.566 38.62C211.522 38.738 211.5 38.858 211.5 38.978C211.5 39.098 211.518 39.205 211.555 39.298C211.591 39.391 211.658 39.481 211.755 39.568C211.852 39.655 211.983 39.746 212.147 39.838C212.311 39.931 212.523 40.039 212.783 40.163C213.057 40.283 213.304 40.4 213.523 40.513C213.742 40.626 213.928 40.751 214.079 40.887C214.231 41.024 214.348 41.178 214.43 41.349C214.512 41.52 214.553 41.724 214.553 41.961C214.553 42.205 214.509 42.425 214.421 42.622C214.333 42.819 214.208 42.986 214.046 43.125C213.883 43.263 213.688 43.37 213.459 43.445C213.23 43.52 212.977 43.557 212.7 43.557C212.378 43.557 212.095 43.511 211.85 43.418C211.605 43.325 211.4 43.2 211.233 43.044C211.067 42.887 210.94 42.705 210.855 42.498C210.769 42.29 210.726 42.07 210.726 41.837H211.34C211.351 42.07 211.4 42.261 211.485 42.411C211.571 42.56 211.678 42.679 211.806 42.766C211.934 42.853 212.076 42.913 212.234 42.946C212.391 42.979 212.547 42.995 212.7 42.995C212.901 42.995 213.079 42.969 213.235 42.916C213.39 42.863 213.52 42.792 213.624 42.703C213.728 42.614 213.807 42.508 213.86 42.386C213.914 42.262 213.94 42.132 213.94 41.994Z" fill="white"/>
<path d="M78.4014 29.828C72.9974 29.828 68.5684 25.442 68.5684 20.028C68.5684 14.615 72.9974 10.228 78.4014 10.228C81.2424 10.228 83.9444 11.449 85.8114 13.559C86.1454 13.948 86.0904 14.503 85.7274 14.808C85.3654 15.141 84.8084 15.113 84.4734 14.725C82.9414 12.976 80.7404 11.977 78.4004 11.977C73.9714 11.977 70.3494 15.586 70.3494 20.028C70.3494 24.442 73.9704 28.051 78.4004 28.051C80.6294 28.051 82.7464 27.135 84.2504 25.552V21.61H79.0963C78.5953 21.61 78.2053 21.221 78.2053 20.722C78.2053 20.222 78.5953 19.834 79.0963 19.834H85.1414C85.6424 19.834 86.0323 20.223 86.0323 20.722V25.886C86.0323 26.108 85.9483 26.302 85.8093 26.469C83.9453 28.606 81.2434 29.828 78.4014 29.828Z" fill="white"/>
<path d="M97.26 29.828C92.914 29.828 89.376 26.302 89.376 21.944V11.117C89.376 10.617 89.766 10.229 90.24 10.229C90.741 10.229 91.131 10.618 91.131 11.117V21.944C91.131 25.331 93.889 28.052 97.26 28.052C100.659 28.052 103.388 25.331 103.388 21.944V11.117C103.388 10.617 103.778 10.229 104.279 10.229C104.78 10.229 105.17 10.618 105.17 11.117V21.944C105.171 26.302 101.633 29.828 97.26 29.828Z" fill="white"/>
<path d="M109.266 29.828C108.765 29.828 108.375 29.439 108.375 28.94V11.117C108.375 10.617 108.765 10.229 109.266 10.229C109.767 10.229 110.157 10.618 110.157 11.117V28.94C110.157 29.439 109.767 29.828 109.266 29.828Z" fill="white"/>
<path d="M118.764 29.828H114.251C113.75 29.828 113.36 29.439 113.36 28.94V11.117C113.36 10.617 113.75 10.229 114.251 10.229H118.764C124.196 10.229 128.597 14.615 128.597 20.029C128.598 25.442 124.196 29.828 118.764 29.828ZM115.143 28.051H118.764C123.221 28.051 126.842 24.442 126.842 20.028C126.842 15.586 123.221 11.977 118.764 11.977H115.143V28.051Z" fill="white"/>
<path d="M145.116 28.94C145.116 29.44 144.698 29.828 144.225 29.828H132.553C132.052 29.828 131.662 29.439 131.662 28.94V11.117C131.662 10.617 132.052 10.229 132.553 10.229H144.225C144.699 10.229 145.116 10.618 145.116 11.117C145.116 11.589 144.698 11.978 144.225 11.978H133.444V18.724H141.216C141.69 18.724 142.107 19.113 142.107 19.585C142.107 20.085 141.689 20.473 141.216 20.473H133.444V28.052H144.225C144.698 28.051 145.116 28.468 145.116 28.94Z" fill="white"/>
<path d="M162.025 17.363C162.025 21.277 158.849 24.442 154.949 24.442H151.133V28.19C151.133 29.106 150.409 29.828 149.517 29.828C148.626 29.828 147.901 29.106 147.901 28.19V11.922C147.901 11.034 148.625 10.312 149.517 10.312H154.949C158.849 10.312 162.025 13.476 162.025 17.363ZM158.793 17.363C158.793 15.253 157.066 13.56 154.949 13.56H151.133V21.194H154.949C157.066 21.194 158.793 19.501 158.793 17.363Z" fill="white"/>
<path d="M174.032 29.828C168.628 29.828 164.254 25.469 164.254 20.084C164.254 14.726 168.628 10.34 174.032 10.34C179.408 10.34 183.81 14.726 183.81 20.084C183.81 25.469 179.408 29.828 174.032 29.828ZM174.032 13.56C170.411 13.56 167.486 16.503 167.486 20.084C167.486 23.693 170.411 26.608 174.032 26.608C177.626 26.608 180.578 23.693 180.578 20.084C180.578 16.502 177.625 13.56 174.032 13.56Z" fill="white"/>
<path d="M192.416 29.828C189.965 29.828 188.488 28.801 187.653 27.968C186.622 26.885 186.037 25.442 186.037 23.97C186.037 23.082 186.761 22.36 187.653 22.36C188.544 22.36 189.269 23.082 189.269 23.97C189.269 24.942 189.938 26.607 192.417 26.607C194.896 26.607 195.565 24.941 195.565 23.97C195.565 22.499 194.757 22.054 192.027 21.277C190.801 20.916 189.548 20.555 188.517 19.833C187.124 18.889 186.428 17.557 186.428 15.835C186.428 14.447 186.985 13.087 187.932 12.087C188.712 11.282 190.133 10.338 192.417 10.338C194.729 10.338 196.122 11.282 196.902 12.087C197.877 13.086 198.434 14.447 198.434 15.835C198.434 16.723 197.71 17.445 196.79 17.445C195.899 17.445 195.174 16.723 195.174 15.835C195.174 15.002 194.589 13.559 192.416 13.559C190.243 13.559 189.658 15.003 189.658 15.835C189.658 16.918 190.076 17.334 192.917 18.167C194.198 18.528 195.536 18.917 196.622 19.694C198.071 20.693 198.795 22.137 198.795 23.969C198.795 25.44 198.21 26.884 197.179 27.967C196.371 28.801 194.867 29.828 192.416 29.828Z" fill="white"/>
<path d="M215.258 11.95C215.258 12.838 214.534 13.56 213.642 13.56H209.213V28.218C209.213 29.106 208.489 29.828 207.569 29.828C206.678 29.828 205.953 29.106 205.953 28.218V13.56H201.524C200.633 13.56 199.908 12.838 199.908 11.95C199.908 11.062 200.632 10.34 201.524 10.34H213.642C214.534 10.339 215.258 11.061 215.258 11.95Z" fill="white"/>
<path d="M19.5713 22.156L24.7262 25.132V8.599L19.5713 5.35999V22.156Z" fill="white"/>
<path d="M27.1074 47.375L37.6284 41.115V41.137L42.4984 38.311V38.276L45.3184 34.153L43.1674 31.019L27.1074 40.147V47.375Z" fill="white"/>
<path d="M34.3403 9.01999H27.1074V13.759L34.3403 13.536V9.01999Z" fill="white"/>
<path d="M60.6801 20.464L56.5229 14L50.465 14.438C46 6.10099 37.206 0.415985 27.106 0.415985C12.504 0.415985 0.625 12.295 0.625 26.897C0.625 41.499 12.504 53.378 27.106 53.378C41.02 53.378 52.463 42.591 53.509 28.94C53.561 28.266 53.587 27.585 53.587 26.897C53.587 26.42 53.573 25.946 53.548 25.475L56.5229 25.726L60.6801 20.464ZM50.9659 26.898C50.9659 38.728 42.31 48.569 31.001 50.435V47.09L27.1071 49.246V50.758C26.3031 50.758 25.509 50.717 24.726 50.639V37.527V36.036V28.482L12.585 21.526L9.32605 26.048L12.585 30.537L20.314 34.987V49.767C10.458 46.834 3.24695 37.695 3.24695 26.898C3.24695 13.742 13.95 3.039 27.106 3.039C35.786 3.039 43.396 7.69999 47.571 14.649L27.106 16.13V37.695L31 35.489V23.571L50.902 25.252C50.94 25.796 50.9659 26.344 50.9659 26.898Z" fill="white"/>
</svg>
