<svg width="216" height="54" viewBox="0 0 216 54" fill="none" xmlns="http://www.w3.org/2000/svg">
<path d="M69.1543 35.756C69.1543 35.632 69.1883 35.527 69.2583 35.439C69.3273 35.352 69.4263 35.308 69.5543 35.308C69.6823 35.308 69.7814 35.352 69.8534 35.439C69.9244 35.526 69.9603 35.632 69.9603 35.756C69.9603 35.88 69.9244 35.985 69.8534 36.07C69.7814 36.156 69.6823 36.198 69.5543 36.198C69.4263 36.198 69.3273 36.155 69.2583 36.07C69.1893 35.984 69.1543 35.879 69.1543 35.756ZM69.8563 43.372H69.2423V37.46H69.8563V43.372Z" fill="black"/>
<path d="M72.7372 37.46L72.7532 38.4C72.9282 38.08 73.1522 37.824 73.4252 37.635C73.6982 37.446 74.0072 37.351 74.3542 37.351C74.6032 37.351 74.8253 37.391 75.0203 37.471C75.2163 37.551 75.3822 37.679 75.5192 37.853C75.6562 38.027 75.7612 38.253 75.8342 38.528C75.9072 38.803 75.9432 39.135 75.9432 39.525V43.371H75.3402V39.519C75.3402 39.217 75.3142 38.964 75.2612 38.76C75.2082 38.556 75.1322 38.393 75.0332 38.271C74.9342 38.149 74.8152 38.062 74.6742 38.009C74.5332 37.956 74.3752 37.93 74.2002 37.93C74.0172 37.93 73.8502 37.967 73.6982 38.042C73.5462 38.117 73.4102 38.216 73.2902 38.34C73.1692 38.464 73.0653 38.606 72.9783 38.766C72.8903 38.926 72.8192 39.094 72.7642 39.269V43.372H72.1553V37.46H72.7372V37.46Z" fill="black"/>
<path d="M77.96 40.143C77.96 39.648 78.005 39.224 78.094 38.873C78.183 38.522 78.312 38.233 78.48 38.007C78.648 37.781 78.8519 37.615 79.0909 37.51C79.3299 37.404 79.5979 37.352 79.8939 37.352C80.2479 37.352 80.549 37.431 80.796 37.59C81.043 37.748 81.245 37.97 81.402 38.254V34.981H82.01V43.373H81.4399L81.413 42.614C81.256 42.887 81.052 43.1 80.802 43.253C80.552 43.406 80.2469 43.482 79.8889 43.482C79.5929 43.482 79.326 43.426 79.088 43.315C78.85 43.204 78.6479 43.034 78.4819 42.804C78.3159 42.575 78.187 42.285 78.095 41.935C78.004 41.585 77.958 41.172 77.958 40.695V40.143H77.96ZM78.58 40.695C78.58 41.453 78.694 42.01 78.923 42.367C79.152 42.724 79.514 42.902 80.011 42.902C80.19 42.902 80.352 42.879 80.496 42.834C80.64 42.789 80.77 42.725 80.885 42.643C81 42.561 81.1 42.465 81.184 42.353C81.268 42.242 81.341 42.121 81.403 41.99V38.925C81.348 38.794 81.28 38.668 81.2 38.548C81.12 38.428 81.024 38.323 80.912 38.234C80.801 38.145 80.6709 38.073 80.5229 38.018C80.3749 37.963 80.206 37.936 80.016 37.936C79.515 37.936 79.151 38.115 78.922 38.474C78.693 38.833 78.579 39.389 78.579 40.143V40.695H78.58Z" fill="black"/>
<path d="M86.2312 43.481C85.9022 43.481 85.6012 43.427 85.3262 43.32C85.0522 43.213 84.8152 43.049 84.6162 42.828C84.4172 42.608 84.2622 42.33 84.1532 41.995C84.0432 41.66 83.9893 41.263 83.9893 40.804V40.132C83.9893 39.637 84.0472 39.213 84.1642 38.862C84.2812 38.511 84.4372 38.223 84.6332 37.999C84.8292 37.775 85.0552 37.611 85.3132 37.507C85.5712 37.403 85.8422 37.351 86.1272 37.351C86.7782 37.351 87.2722 37.565 87.6102 37.993C87.9482 38.421 88.1172 39.076 88.1172 39.957V40.471H84.5922V40.804C84.5922 41.165 84.6323 41.478 84.7133 41.744C84.7933 42.01 84.9072 42.23 85.0532 42.405C85.1992 42.58 85.3752 42.71 85.5792 42.796C85.7842 42.882 86.0103 42.924 86.2593 42.924C86.5663 42.924 86.8332 42.872 87.0592 42.768C87.2862 42.664 87.4922 42.503 87.6792 42.284L87.9972 42.688C87.9172 42.797 87.8222 42.899 87.7152 42.994C87.6072 43.089 87.4813 43.172 87.3373 43.245C87.1933 43.318 87.0292 43.375 86.8472 43.417C86.6632 43.46 86.4582 43.481 86.2312 43.481ZM86.1272 37.919C85.9112 37.919 85.7132 37.955 85.5322 38.028C85.3512 38.101 85.1943 38.217 85.0613 38.375C84.9273 38.533 84.8212 38.738 84.7402 38.99C84.6602 39.241 84.6123 39.546 84.5983 39.902H87.5093V39.744C87.5023 39.456 87.4693 39.2 87.4103 38.974C87.3523 38.748 87.2663 38.557 87.1553 38.4C87.0443 38.243 86.9022 38.124 86.7302 38.042C86.5582 37.96 86.3582 37.919 86.1272 37.919Z" fill="black"/>
<path d="M94.0753 40.695C94.0753 41.172 94.0323 41.586 93.9463 41.935C93.8603 42.285 93.7373 42.574 93.5763 42.804C93.4153 43.033 93.2164 43.204 92.9784 43.315C92.7404 43.426 92.4724 43.482 92.1724 43.482C91.8144 43.482 91.5084 43.41 91.2544 43.266C91.0004 43.122 90.7933 42.921 90.6323 42.662V45.645H90.0293V37.46H90.5884L90.6154 38.269C90.7804 37.981 90.9884 37.756 91.2404 37.594C91.4924 37.432 91.7974 37.351 92.1564 37.351C92.4634 37.351 92.7354 37.404 92.9734 37.509C93.2114 37.615 93.4113 37.78 93.5763 38.006C93.7403 38.232 93.8653 38.52 93.9493 38.872C94.0333 39.224 94.0753 39.647 94.0753 40.142V40.695V40.695ZM93.4663 40.143C93.4663 39.385 93.3484 38.828 93.1134 38.471C92.8774 38.114 92.5093 37.936 92.0083 37.936C91.8213 37.936 91.6543 37.962 91.5063 38.015C91.3583 38.068 91.2283 38.14 91.1173 38.231C91.0063 38.322 90.9114 38.426 90.8324 38.542C90.7534 38.659 90.6873 38.782 90.6323 38.914V42.028C90.6903 42.156 90.7634 42.274 90.8494 42.383C90.9354 42.492 91.0353 42.587 91.1483 42.667C91.2613 42.747 91.3904 42.809 91.5354 42.853C91.6794 42.897 91.8414 42.919 92.0204 42.919C92.5134 42.919 92.8784 42.738 93.1144 42.375C93.3504 42.013 93.4673 41.453 93.4673 40.695V40.143H93.4663Z" fill="black"/>
<path d="M98.0642 43.481C97.7352 43.481 97.4342 43.427 97.1592 43.32C96.8842 43.213 96.6482 43.049 96.4492 42.828C96.2502 42.608 96.0952 42.33 95.9862 41.995C95.8762 41.66 95.8223 41.263 95.8223 40.804V40.132C95.8223 39.637 95.8802 39.213 95.9972 38.862C96.1142 38.511 96.2702 38.223 96.4662 37.999C96.6612 37.775 96.8882 37.611 97.1462 37.507C97.4042 37.403 97.6752 37.351 97.9602 37.351C98.6112 37.351 99.1052 37.565 99.4432 37.993C99.7812 38.421 99.9502 39.076 99.9502 39.957V40.471H96.4252V40.804C96.4252 41.165 96.4653 41.478 96.5463 41.744C96.6263 42.01 96.7402 42.23 96.8862 42.405C97.0322 42.58 97.2082 42.71 97.4122 42.796C97.6172 42.882 97.8432 42.924 98.0922 42.924C98.3992 42.924 98.6662 42.872 98.8922 42.768C99.1192 42.664 99.3252 42.503 99.5122 42.284L99.8302 42.688C99.7502 42.797 99.6552 42.899 99.5482 42.994C99.4402 43.089 99.3142 43.172 99.1702 43.245C99.0262 43.318 98.8622 43.375 98.6802 43.417C98.4962 43.46 98.2912 43.481 98.0642 43.481ZM97.9602 37.919C97.7442 37.919 97.5462 37.955 97.3652 38.028C97.1842 38.101 97.0272 38.217 96.8942 38.375C96.7602 38.533 96.6542 38.738 96.5732 38.99C96.4932 39.241 96.4452 39.546 96.4302 39.902H99.3412V39.744C99.3342 39.456 99.3012 39.2 99.2422 38.974C99.1842 38.748 99.0982 38.557 98.9872 38.4C98.8762 38.243 98.7343 38.124 98.5623 38.042C98.3913 37.96 98.1902 37.919 97.9602 37.919Z" fill="black"/>
<path d="M102.443 37.46L102.459 38.4C102.635 38.08 102.858 37.824 103.131 37.635C103.403 37.446 103.713 37.351 104.06 37.351C104.309 37.351 104.531 37.391 104.726 37.471C104.921 37.551 105.088 37.679 105.225 37.853C105.362 38.027 105.467 38.253 105.54 38.528C105.613 38.803 105.65 39.135 105.65 39.525V43.371H105.047V39.519C105.047 39.217 105.021 38.964 104.968 38.76C104.915 38.556 104.839 38.393 104.74 38.271C104.641 38.149 104.521 38.062 104.381 38.009C104.241 37.956 104.082 37.93 103.907 37.93C103.724 37.93 103.557 37.967 103.405 38.042C103.253 38.117 103.117 38.216 102.997 38.34C102.876 38.464 102.772 38.606 102.684 38.766C102.596 38.926 102.525 39.094 102.47 39.269V43.372H101.861V37.46H102.443V37.46Z" fill="black"/>
<path d="M107.666 40.143C107.666 39.648 107.711 39.224 107.8 38.873C107.89 38.522 108.019 38.233 108.187 38.007C108.355 37.781 108.559 37.615 108.798 37.51C109.037 37.404 109.305 37.352 109.601 37.352C109.955 37.352 110.256 37.431 110.503 37.59C110.75 37.748 110.952 37.97 111.109 38.254V34.981H111.718V43.373H111.148L111.121 42.614C110.964 42.887 110.76 43.1 110.51 43.253C110.26 43.406 109.955 43.482 109.597 43.482C109.301 43.482 109.034 43.426 108.796 43.315C108.558 43.204 108.356 43.034 108.19 42.804C108.023 42.575 107.895 42.285 107.803 41.935C107.712 41.585 107.666 41.172 107.666 40.695V40.143V40.143ZM108.285 40.695C108.285 41.453 108.399 42.01 108.628 42.367C108.856 42.724 109.219 42.902 109.716 42.902C109.895 42.902 110.057 42.879 110.201 42.834C110.346 42.789 110.475 42.725 110.59 42.643C110.705 42.561 110.805 42.465 110.889 42.353C110.973 42.242 111.046 42.121 111.108 41.99V38.925C111.053 38.794 110.985 38.668 110.905 38.548C110.824 38.428 110.729 38.323 110.617 38.234C110.505 38.145 110.376 38.073 110.228 38.018C110.08 37.963 109.911 37.936 109.721 37.936C109.22 37.936 108.856 38.115 108.627 38.474C108.398 38.833 108.284 39.389 108.284 40.143V40.695H108.285Z" fill="black"/>
<path d="M115.937 43.481C115.608 43.481 115.307 43.427 115.032 43.32C114.758 43.213 114.521 43.049 114.322 42.828C114.123 42.608 113.968 42.33 113.858 41.995C113.748 41.66 113.694 41.263 113.694 40.804V40.132C113.694 39.637 113.752 39.213 113.87 38.862C113.987 38.511 114.143 38.223 114.339 37.999C114.535 37.775 114.761 37.611 115.019 37.507C115.277 37.403 115.548 37.351 115.833 37.351C116.483 37.351 116.978 37.565 117.316 37.993C117.654 38.421 117.823 39.076 117.823 39.957V40.471H114.298V40.804C114.298 41.165 114.338 41.478 114.419 41.744C114.499 42.01 114.613 42.23 114.759 42.405C114.905 42.58 115.081 42.71 115.285 42.796C115.49 42.882 115.716 42.924 115.965 42.924C116.272 42.924 116.538 42.872 116.765 42.768C116.992 42.664 117.198 42.503 117.385 42.284L117.703 42.688C117.622 42.797 117.528 42.899 117.421 42.994C117.313 43.089 117.187 43.172 117.043 43.245C116.899 43.318 116.735 43.375 116.552 43.417C116.368 43.46 116.163 43.481 115.937 43.481ZM115.833 37.919C115.617 37.919 115.419 37.955 115.238 38.028C115.057 38.101 114.9 38.217 114.767 38.375C114.633 38.533 114.527 38.738 114.446 38.99C114.365 39.242 114.318 39.546 114.303 39.902H117.214V39.744C117.206 39.456 117.174 39.2 117.115 38.974C117.057 38.748 116.971 38.557 116.86 38.4C116.749 38.243 116.607 38.124 116.435 38.042C116.264 37.96 116.063 37.919 115.833 37.919Z" fill="black"/>
<path d="M120.315 37.46L120.332 38.4C120.507 38.08 120.731 37.824 121.004 37.635C121.276 37.446 121.586 37.351 121.933 37.351C122.181 37.351 122.403 37.391 122.599 37.471C122.795 37.551 122.961 37.679 123.098 37.853C123.235 38.027 123.34 38.253 123.413 38.528C123.486 38.803 123.522 39.135 123.522 39.525V43.371H122.919V39.519C122.919 39.217 122.893 38.964 122.84 38.76C122.787 38.556 122.711 38.393 122.612 38.271C122.513 38.149 122.394 38.062 122.253 38.009C122.112 37.956 121.954 37.93 121.779 37.93C121.596 37.93 121.429 37.967 121.277 38.042C121.125 38.117 120.989 38.216 120.869 38.34C120.749 38.464 120.644 38.606 120.557 38.766C120.469 38.926 120.398 39.094 120.343 39.269V43.372H119.734V37.46H120.315V37.46Z" fill="black"/>
<path d="M126.673 35.952V37.46H127.688V38.006H126.673V41.934C126.673 42.138 126.69 42.303 126.725 42.428C126.76 42.554 126.806 42.651 126.865 42.72C126.923 42.789 126.99 42.836 127.065 42.859C127.14 42.883 127.219 42.894 127.303 42.894C127.384 42.894 127.462 42.888 127.539 42.875C127.616 42.862 127.683 42.85 127.742 42.839L127.758 43.385C127.692 43.414 127.605 43.437 127.498 43.453C127.39 43.469 127.278 43.478 127.161 43.478C127.004 43.478 126.859 43.452 126.725 43.402C126.591 43.351 126.475 43.265 126.377 43.145C126.278 43.025 126.201 42.865 126.147 42.667C126.092 42.468 126.065 42.222 126.065 41.927V38.004H125.149V37.458H126.065V35.95H126.673V35.952Z" fill="black"/>
<path d="M134.646 42.919C134.814 42.919 134.977 42.897 135.134 42.853C135.291 42.809 135.431 42.735 135.554 42.629C135.676 42.523 135.777 42.382 135.855 42.206C135.934 42.029 135.978 41.808 135.989 41.542H136.576C136.561 41.859 136.501 42.139 136.395 42.381C136.289 42.623 136.148 42.825 135.973 42.987C135.797 43.149 135.597 43.272 135.37 43.356C135.143 43.44 134.902 43.482 134.646 43.482C133.933 43.482 133.397 43.253 133.037 42.794C132.677 42.335 132.497 41.654 132.497 40.751V40.084C132.497 39.181 132.677 38.5 133.037 38.041C133.397 37.582 133.932 37.353 134.641 37.353C134.912 37.353 135.163 37.396 135.395 37.481C135.627 37.567 135.828 37.696 135.998 37.869C136.168 38.042 136.304 38.261 136.406 38.525C136.508 38.789 136.565 39.1 136.576 39.457H135.989C135.978 39.184 135.936 38.95 135.863 38.755C135.79 38.56 135.694 38.401 135.575 38.277C135.456 38.153 135.317 38.063 135.158 38.007C134.999 37.951 134.826 37.922 134.64 37.922C134.359 37.922 134.121 37.97 133.927 38.067C133.733 38.164 133.576 38.305 133.455 38.49C133.334 38.676 133.247 38.903 133.192 39.17C133.137 39.438 133.11 39.743 133.11 40.085V40.752C133.11 41.098 133.136 41.406 133.189 41.675C133.242 41.945 133.329 42.171 133.449 42.355C133.57 42.539 133.728 42.679 133.923 42.776C134.121 42.87 134.361 42.919 134.646 42.919Z" fill="black"/>
<path d="M140.807 38.028C140.745 38.017 140.684 38.008 140.623 38.001C140.563 37.994 140.496 37.99 140.423 37.99C140.244 37.99 140.082 38.022 139.938 38.086C139.794 38.15 139.667 38.239 139.557 38.354C139.447 38.469 139.354 38.606 139.276 38.767C139.197 38.927 139.135 39.102 139.091 39.291V43.372H138.482V37.46H139.08L139.091 38.345C139.226 38.035 139.405 37.792 139.628 37.616C139.851 37.439 140.125 37.351 140.45 37.351C140.516 37.351 140.585 37.358 140.658 37.373C140.731 37.388 140.785 37.404 140.818 37.422L140.807 38.028Z" fill="black"/>
<path d="M144.346 43.481C144.017 43.481 143.716 43.427 143.441 43.32C143.167 43.213 142.93 43.049 142.731 42.828C142.532 42.608 142.377 42.33 142.268 41.995C142.158 41.66 142.104 41.263 142.104 40.804V40.132C142.104 39.637 142.162 39.213 142.279 38.862C142.396 38.511 142.552 38.223 142.748 37.999C142.943 37.775 143.17 37.611 143.428 37.507C143.686 37.403 143.957 37.351 144.242 37.351C144.892 37.351 145.387 37.565 145.725 37.993C146.063 38.421 146.232 39.076 146.232 39.957V40.471H142.708V40.804C142.708 41.165 142.748 41.478 142.828 41.744C142.908 42.01 143.021 42.23 143.167 42.405C143.313 42.58 143.489 42.71 143.693 42.796C143.898 42.882 144.124 42.924 144.373 42.924C144.68 42.924 144.947 42.872 145.173 42.768C145.399 42.664 145.606 42.503 145.793 42.284L146.111 42.688C146.031 42.797 145.937 42.899 145.829 42.994C145.721 43.089 145.595 43.172 145.451 43.245C145.306 43.318 145.143 43.375 144.96 43.417C144.778 43.46 144.573 43.481 144.346 43.481ZM144.242 37.919C144.026 37.919 143.828 37.955 143.647 38.028C143.466 38.101 143.309 38.217 143.175 38.375C143.042 38.533 142.935 38.738 142.854 38.99C142.774 39.241 142.726 39.546 142.711 39.902H145.622V39.744C145.615 39.456 145.582 39.2 145.523 38.974C145.464 38.748 145.379 38.557 145.268 38.4C145.156 38.243 145.016 38.124 144.844 38.042C144.674 37.96 144.472 37.919 144.242 37.919Z" fill="black"/>
<path d="M151.28 43.372C151.251 43.274 151.227 43.151 151.209 43.003C151.191 42.856 151.178 42.705 151.171 42.552C151.094 42.676 151.003 42.793 150.897 42.904C150.791 43.015 150.67 43.114 150.532 43.199C150.395 43.285 150.242 43.353 150.074 43.404C149.906 43.455 149.725 43.48 149.531 43.48C149.286 43.48 149.064 43.445 148.865 43.376C148.666 43.307 148.495 43.203 148.352 43.065C148.21 42.927 148.1 42.754 148.023 42.546C147.946 42.338 147.908 42.096 147.908 41.819C147.908 41.546 147.956 41.294 148.051 41.062C148.146 40.831 148.288 40.631 148.476 40.464C148.664 40.297 148.899 40.165 149.18 40.071C149.461 39.976 149.789 39.929 150.161 39.929H151.164V39.104C151.164 38.681 151.059 38.378 150.849 38.194C150.639 38.01 150.331 37.918 149.925 37.918C149.735 37.918 149.56 37.947 149.401 38.005C149.242 38.063 149.106 38.144 148.993 38.248C148.88 38.352 148.792 38.476 148.73 38.62C148.668 38.764 148.637 38.921 148.637 39.093L148.028 39.088C148.028 38.859 148.074 38.639 148.165 38.43C148.256 38.221 148.386 38.036 148.554 37.875C148.722 37.715 148.925 37.587 149.163 37.493C149.401 37.398 149.664 37.351 149.952 37.351C150.219 37.351 150.463 37.383 150.684 37.447C150.905 37.511 151.096 37.613 151.257 37.753C151.418 37.893 151.543 38.075 151.633 38.299C151.723 38.523 151.767 38.795 151.767 39.116V42.132C151.767 42.234 151.771 42.34 151.778 42.449C151.785 42.558 151.795 42.665 151.808 42.769C151.821 42.873 151.837 42.971 151.857 43.064C151.877 43.157 151.9 43.238 151.926 43.307V43.373H151.28V43.372ZM149.608 42.897C149.798 42.897 149.976 42.871 150.143 42.818C150.31 42.765 150.458 42.692 150.59 42.599C150.722 42.506 150.836 42.398 150.933 42.274C151.03 42.15 151.107 42.017 151.166 41.875V40.438H150.25C149.676 40.438 149.245 40.558 148.956 40.799C148.667 41.039 148.523 41.364 148.523 41.772C148.523 42.162 148.619 42.447 148.811 42.627C149.002 42.807 149.268 42.897 149.608 42.897Z" fill="black"/>
<path d="M154.963 35.952V37.46H155.976V38.006H154.963V41.934C154.963 42.138 154.979 42.303 155.014 42.428C155.049 42.554 155.095 42.651 155.154 42.72C155.212 42.789 155.279 42.836 155.354 42.859C155.429 42.883 155.508 42.894 155.592 42.894C155.673 42.894 155.751 42.888 155.828 42.875C155.905 42.862 155.972 42.85 156.031 42.839L156.047 43.385C155.981 43.414 155.894 43.437 155.787 43.453C155.679 43.469 155.567 43.478 155.45 43.478C155.293 43.478 155.148 43.452 155.014 43.402C154.88 43.351 154.765 43.265 154.667 43.145C154.568 43.025 154.491 42.865 154.437 42.667C154.382 42.468 154.354 42.222 154.354 41.927V38.004H153.438V37.458H154.354V35.95H154.963V35.952Z" fill="black"/>
<path d="M157.899 35.756C157.899 35.632 157.934 35.527 158.003 35.439C158.072 35.352 158.171 35.308 158.299 35.308C158.427 35.308 158.528 35.352 158.599 35.439C158.67 35.526 158.705 35.632 158.705 35.756C158.705 35.88 158.67 35.985 158.599 36.07C158.528 36.156 158.427 36.198 158.299 36.198C158.171 36.198 158.072 36.155 158.003 36.07C157.933 35.984 157.899 35.879 157.899 35.756ZM158.6 43.372H157.986V37.46H158.6V43.372Z" fill="black"/>
<path d="M162.475 42.421L163.933 37.46H164.558L162.71 43.372H162.227L160.368 37.46H160.993L162.475 42.421Z" fill="black"/>
<path d="M168.17 43.481C167.841 43.481 167.54 43.427 167.265 43.32C166.991 43.213 166.754 43.049 166.555 42.828C166.356 42.608 166.201 42.33 166.092 41.995C165.982 41.66 165.928 41.263 165.928 40.804V40.132C165.928 39.637 165.986 39.213 166.103 38.862C166.22 38.511 166.376 38.223 166.572 37.999C166.767 37.775 166.994 37.611 167.252 37.507C167.51 37.403 167.781 37.351 168.066 37.351C168.716 37.351 169.211 37.565 169.549 37.993C169.887 38.421 170.056 39.076 170.056 39.957V40.471H166.531V40.804C166.531 41.165 166.571 41.478 166.651 41.744C166.731 42.01 166.845 42.23 166.991 42.405C167.137 42.58 167.313 42.71 167.517 42.796C167.722 42.882 167.948 42.924 168.197 42.924C168.504 42.924 168.771 42.872 168.997 42.768C169.223 42.664 169.43 42.503 169.617 42.284L169.935 42.688C169.855 42.797 169.761 42.899 169.653 42.994C169.545 43.089 169.419 43.172 169.275 43.245C169.13 43.318 168.967 43.375 168.784 43.417C168.601 43.46 168.397 43.481 168.17 43.481ZM168.066 37.919C167.85 37.919 167.652 37.955 167.471 38.028C167.29 38.101 167.133 38.217 166.999 38.375C166.866 38.533 166.759 38.738 166.678 38.99C166.598 39.241 166.55 39.546 166.535 39.902H169.446V39.744C169.439 39.456 169.406 39.2 169.347 38.974C169.288 38.748 169.203 38.557 169.092 38.4C168.98 38.243 168.839 38.124 168.667 38.042C168.497 37.96 168.296 37.919 168.066 37.919Z" fill="black"/>
<path d="M179.152 40.695C179.152 41.172 179.109 41.586 179.023 41.935C178.937 42.285 178.814 42.574 178.653 42.804C178.492 43.033 178.293 43.204 178.055 43.315C177.817 43.426 177.55 43.482 177.25 43.482C176.892 43.482 176.585 43.41 176.331 43.266C176.077 43.122 175.87 42.921 175.709 42.662V45.645H175.106V37.46H175.665L175.693 38.269C175.858 37.981 176.066 37.756 176.318 37.594C176.57 37.432 176.875 37.351 177.234 37.351C177.541 37.351 177.812 37.404 178.05 37.509C178.288 37.615 178.489 37.78 178.653 38.006C178.817 38.232 178.942 38.52 179.026 38.872C179.11 39.224 179.152 39.647 179.152 40.142V40.695V40.695ZM178.543 40.143C178.543 39.385 178.425 38.828 178.189 38.471C177.953 38.114 177.585 37.936 177.084 37.936C176.897 37.936 176.731 37.962 176.583 38.015C176.435 38.068 176.304 38.14 176.193 38.231C176.081 38.322 175.986 38.426 175.908 38.542C175.829 38.659 175.763 38.782 175.708 38.914V42.028C175.766 42.156 175.839 42.274 175.925 42.383C176.011 42.492 176.11 42.587 176.224 42.667C176.337 42.747 176.466 42.809 176.611 42.853C176.755 42.897 176.917 42.919 177.096 42.919C177.589 42.919 177.954 42.738 178.19 42.375C178.426 42.013 178.544 41.453 178.544 40.695V40.143H178.543Z" fill="black"/>
<path d="M184.32 43.372C184.291 43.274 184.267 43.151 184.249 43.003C184.231 42.856 184.218 42.705 184.211 42.552C184.134 42.676 184.043 42.793 183.937 42.904C183.831 43.015 183.709 43.114 183.572 43.199C183.435 43.285 183.282 43.353 183.114 43.404C182.946 43.455 182.765 43.48 182.571 43.48C182.326 43.48 182.104 43.445 181.905 43.376C181.706 43.307 181.535 43.203 181.393 43.065C181.25 42.927 181.141 42.754 181.064 42.546C180.987 42.338 180.949 42.096 180.949 41.819C180.949 41.546 180.996 41.294 181.091 41.062C181.186 40.831 181.328 40.631 181.516 40.464C181.704 40.297 181.939 40.165 182.22 40.071C182.501 39.976 182.829 39.929 183.201 39.929H184.204V39.104C184.204 38.681 184.099 38.378 183.889 38.194C183.679 38.01 183.371 37.918 182.965 37.918C182.775 37.918 182.6 37.947 182.441 38.005C182.282 38.063 182.146 38.144 182.033 38.248C181.92 38.352 181.832 38.476 181.77 38.62C181.708 38.764 181.677 38.921 181.677 39.093L181.068 39.088C181.068 38.859 181.114 38.639 181.205 38.43C181.296 38.221 181.426 38.036 181.594 37.875C181.762 37.715 181.965 37.587 182.203 37.493C182.441 37.398 182.704 37.351 182.992 37.351C183.259 37.351 183.503 37.383 183.724 37.447C183.945 37.511 184.136 37.613 184.297 37.753C184.458 37.893 184.583 38.075 184.673 38.299C184.762 38.523 184.807 38.795 184.807 39.116V42.132C184.807 42.234 184.811 42.34 184.818 42.449C184.825 42.558 184.835 42.665 184.848 42.769C184.861 42.873 184.877 42.971 184.897 43.064C184.917 43.157 184.94 43.238 184.965 43.307V43.373H184.32V43.372ZM182.648 42.897C182.838 42.897 183.016 42.871 183.183 42.818C183.349 42.765 183.498 42.692 183.63 42.599C183.762 42.506 183.876 42.398 183.973 42.274C184.07 42.15 184.148 42.017 184.206 41.875V40.438H183.29C182.716 40.438 182.285 40.558 181.996 40.799C181.707 41.039 181.563 41.364 181.563 41.772C181.563 42.162 181.659 42.447 181.851 42.627C182.042 42.807 182.308 42.897 182.648 42.897Z" fill="black"/>
<path d="M189.412 38.028C189.35 38.017 189.289 38.008 189.228 38.001C189.168 37.994 189.101 37.99 189.028 37.99C188.849 37.99 188.687 38.022 188.543 38.086C188.399 38.15 188.272 38.239 188.162 38.354C188.052 38.469 187.958 38.606 187.88 38.767C187.801 38.927 187.74 39.102 187.697 39.291V43.372H187.088V37.46H187.686L187.697 38.345C187.832 38.035 188.011 37.792 188.234 37.616C188.457 37.439 188.731 37.351 189.056 37.351C189.122 37.351 189.191 37.358 189.264 37.373C189.337 37.388 189.39 37.404 189.423 37.422L189.412 38.028Z" fill="black"/>
<path d="M192.288 35.952V37.46H193.302V38.006H192.288V41.934C192.288 42.138 192.305 42.303 192.34 42.428C192.375 42.554 192.421 42.651 192.48 42.72C192.538 42.789 192.605 42.836 192.68 42.859C192.755 42.883 192.834 42.894 192.918 42.894C192.999 42.894 193.077 42.888 193.154 42.875C193.231 42.862 193.298 42.85 193.357 42.839L193.373 43.385C193.307 43.414 193.22 43.437 193.113 43.453C193.005 43.469 192.893 43.478 192.776 43.478C192.619 43.478 192.474 43.452 192.34 43.402C192.207 43.351 192.09 43.265 191.992 43.145C191.893 43.025 191.816 42.865 191.762 42.667C191.707 42.468 191.68 42.222 191.68 41.927V38.004H190.764V37.458H191.68V35.95H192.288V35.952Z" fill="black"/>
<path d="M195.827 37.46L195.843 38.4C196.018 38.08 196.242 37.824 196.515 37.635C196.788 37.446 197.097 37.351 197.444 37.351C197.693 37.351 197.915 37.391 198.11 37.471C198.305 37.551 198.472 37.679 198.609 37.853C198.746 38.027 198.851 38.253 198.924 38.528C198.997 38.803 199.034 39.135 199.034 39.525V43.371H198.431V39.519C198.431 39.217 198.405 38.964 198.352 38.76C198.299 38.556 198.223 38.393 198.125 38.271C198.026 38.149 197.906 38.062 197.766 38.009C197.625 37.956 197.467 37.93 197.292 37.93C197.109 37.93 196.942 37.967 196.79 38.042C196.638 38.117 196.502 38.216 196.382 38.34C196.262 38.464 196.157 38.606 196.07 38.766C195.982 38.926 195.911 39.094 195.856 39.269V43.372H195.247V37.46H195.827V37.46Z" fill="black"/>
<path d="M203.227 43.481C202.898 43.481 202.597 43.427 202.322 43.32C202.048 43.213 201.811 43.049 201.612 42.828C201.413 42.608 201.258 42.33 201.149 41.995C201.039 41.66 200.985 41.263 200.985 40.804V40.132C200.985 39.637 201.043 39.213 201.16 38.862C201.277 38.511 201.433 38.223 201.629 37.999C201.824 37.775 202.051 37.611 202.309 37.507C202.567 37.403 202.838 37.351 203.123 37.351C203.773 37.351 204.268 37.565 204.606 37.993C204.944 38.421 205.113 39.076 205.113 39.957V40.471H201.588V40.804C201.588 41.165 201.628 41.478 201.708 41.744C201.788 42.01 201.902 42.23 202.048 42.405C202.194 42.58 202.37 42.71 202.574 42.796C202.779 42.882 203.005 42.924 203.254 42.924C203.561 42.924 203.828 42.872 204.054 42.768C204.28 42.664 204.487 42.503 204.674 42.284L204.992 42.688C204.912 42.797 204.818 42.899 204.71 42.994C204.602 43.089 204.476 43.172 204.332 43.245C204.187 43.318 204.024 43.375 203.841 43.417C203.658 43.46 203.453 43.481 203.227 43.481ZM203.123 37.919C202.907 37.919 202.709 37.955 202.528 38.028C202.347 38.101 202.19 38.217 202.056 38.375C201.923 38.533 201.816 38.738 201.735 38.99C201.655 39.241 201.607 39.546 201.592 39.902H204.503V39.744C204.496 39.456 204.463 39.2 204.404 38.974C204.345 38.748 204.26 38.557 204.149 38.4C204.037 38.243 203.896 38.124 203.724 38.042C203.554 37.96 203.353 37.919 203.123 37.919Z" fill="black"/>
<path d="M209.349 38.028C209.287 38.017 209.226 38.008 209.165 38.001C209.105 37.994 209.038 37.99 208.965 37.99C208.786 37.99 208.624 38.022 208.48 38.086C208.336 38.15 208.209 38.239 208.099 38.354C207.989 38.469 207.896 38.606 207.818 38.767C207.739 38.927 207.677 39.102 207.633 39.291V43.372H207.024V37.46H207.622L207.633 38.345C207.768 38.035 207.947 37.792 208.17 37.616C208.393 37.439 208.667 37.351 208.992 37.351C209.058 37.351 209.127 37.358 209.2 37.373C209.273 37.388 209.326 37.404 209.359 37.422L209.349 38.028Z" fill="black"/>
<path d="M214.001 41.919C214.001 41.799 213.978 41.686 213.932 41.58C213.886 41.474 213.811 41.372 213.707 41.274C213.603 41.176 213.466 41.076 213.296 40.974C213.126 40.872 212.915 40.763 212.663 40.646C212.392 40.526 212.151 40.41 211.939 40.299C211.727 40.188 211.549 40.068 211.404 39.938C211.26 39.809 211.149 39.663 211.072 39.501C210.995 39.339 210.957 39.147 210.957 38.925C210.957 38.706 210.998 38.502 211.08 38.31C211.162 38.119 211.28 37.952 211.434 37.81C211.587 37.668 211.774 37.556 211.993 37.474C212.212 37.392 212.457 37.351 212.728 37.351C213.017 37.351 213.276 37.394 213.506 37.479C213.736 37.565 213.931 37.684 214.09 37.837C214.249 37.99 214.37 38.173 214.455 38.386C214.539 38.599 214.581 38.831 214.581 39.083H213.972C213.972 38.93 213.944 38.783 213.89 38.643C213.835 38.503 213.755 38.379 213.649 38.272C213.543 38.165 213.413 38.079 213.26 38.015C213.107 37.951 212.929 37.919 212.728 37.919C212.52 37.919 212.342 37.947 212.196 38.004C212.05 38.06 211.929 38.135 211.834 38.228C211.739 38.321 211.669 38.427 211.626 38.545C211.582 38.663 211.56 38.783 211.56 38.903C211.56 39.023 211.578 39.13 211.615 39.223C211.652 39.316 211.718 39.406 211.815 39.493C211.912 39.58 212.043 39.671 212.207 39.763C212.371 39.856 212.584 39.964 212.843 40.088C213.117 40.208 213.364 40.325 213.583 40.438C213.802 40.551 213.988 40.676 214.14 40.812C214.292 40.948 214.409 41.102 214.491 41.274C214.573 41.445 214.614 41.649 214.614 41.886C214.614 42.13 214.57 42.35 214.482 42.547C214.394 42.744 214.269 42.911 214.107 43.05C213.944 43.188 213.749 43.295 213.52 43.37C213.291 43.445 213.038 43.482 212.761 43.482C212.439 43.482 212.156 43.436 211.911 43.343C211.666 43.25 211.46 43.125 211.294 42.969C211.127 42.812 211.001 42.63 210.916 42.423C210.83 42.215 210.787 41.995 210.787 41.762H211.401C211.412 41.995 211.46 42.186 211.546 42.336C211.632 42.485 211.739 42.604 211.867 42.691C211.995 42.778 212.137 42.838 212.295 42.871C212.452 42.904 212.607 42.92 212.761 42.92C212.962 42.92 213.14 42.894 213.296 42.841C213.451 42.788 213.581 42.717 213.685 42.628C213.789 42.539 213.868 42.433 213.921 42.311C213.975 42.187 214.001 42.057 214.001 41.919Z" fill="black"/>
<path d="M78.4639 29.753C73.0599 29.753 68.6309 25.367 68.6309 19.953C68.6309 14.54 73.0599 10.153 78.4639 10.153C81.3049 10.153 84.0069 11.374 85.8739 13.484C86.2079 13.873 86.1528 14.428 85.7898 14.733C85.4278 15.066 84.8709 15.038 84.5359 14.65C83.0039 12.901 80.8029 11.902 78.4629 11.902C74.0339 11.902 70.4119 15.511 70.4119 19.953C70.4119 24.367 74.0329 27.976 78.4629 27.976C80.6919 27.976 82.8089 27.06 84.3129 25.477V21.535H79.1599C78.6589 21.535 78.2688 21.146 78.2688 20.647C78.2688 20.148 78.6589 19.759 79.1599 19.759H85.2048C85.7058 19.759 86.0958 20.148 86.0958 20.647V25.811C86.0958 26.033 86.0128 26.227 85.8728 26.394C84.0068 28.531 81.3049 29.753 78.4639 29.753Z" fill="black"/>
<path d="M97.3215 29.753C92.9755 29.753 89.4385 26.227 89.4385 21.869V11.042C89.4385 10.542 89.8285 10.154 90.3025 10.154C90.8035 10.154 91.1935 10.543 91.1935 11.042V21.869C91.1935 25.256 93.9515 27.977 97.3215 27.977C100.721 27.977 103.45 25.256 103.45 21.869V11.042C103.45 10.542 103.84 10.154 104.341 10.154C104.842 10.154 105.233 10.543 105.233 11.042V21.869C105.233 26.227 101.695 29.753 97.3215 29.753Z" fill="black"/>
<path d="M109.328 29.753C108.827 29.753 108.437 29.364 108.437 28.865V11.042C108.437 10.542 108.827 10.154 109.328 10.154C109.829 10.154 110.219 10.543 110.219 11.042V28.865C110.219 29.364 109.829 29.753 109.328 29.753Z" fill="black"/>
<path d="M118.826 29.753H114.313C113.812 29.753 113.422 29.364 113.422 28.865V11.042C113.422 10.542 113.812 10.154 114.313 10.154H118.826C124.258 10.154 128.659 14.54 128.659 19.954C128.66 25.366 124.258 29.753 118.826 29.753ZM115.205 27.976H118.826C123.283 27.976 126.904 24.367 126.904 19.953C126.904 15.511 123.283 11.902 118.826 11.902H115.205V27.976Z" fill="black"/>
<path d="M145.178 28.864C145.178 29.364 144.76 29.752 144.287 29.752H132.615C132.114 29.752 131.724 29.363 131.724 28.864V11.041C131.724 10.541 132.114 10.153 132.615 10.153H144.287C144.761 10.153 145.178 10.542 145.178 11.041C145.178 11.513 144.76 11.902 144.287 11.902H133.506V18.648H141.278C141.752 18.648 142.169 19.037 142.169 19.509C142.169 20.009 141.751 20.397 141.278 20.397H133.506V27.976H144.287C144.761 27.976 145.178 28.392 145.178 28.864Z" fill="black"/>
<path d="M162.087 17.288C162.087 21.202 158.911 24.367 155.011 24.367H151.195V28.115C151.195 29.031 150.471 29.753 149.579 29.753C148.688 29.753 147.963 29.031 147.963 28.115V11.847C147.963 10.959 148.687 10.237 149.579 10.237H155.011C158.911 10.237 162.087 13.401 162.087 17.288ZM158.856 17.288C158.856 15.178 157.129 13.485 155.012 13.485H151.196V21.119H155.012C157.129 21.119 158.856 19.426 158.856 17.288Z" fill="black"/>
<path d="M174.093 29.753C168.689 29.753 164.314 25.394 164.314 20.009C164.314 14.651 168.688 10.265 174.093 10.265C179.469 10.265 183.87 14.651 183.87 20.009C183.87 25.394 179.47 29.753 174.093 29.753ZM174.093 13.485C170.472 13.485 167.547 16.428 167.547 20.009C167.547 23.618 170.472 26.533 174.093 26.533C177.687 26.533 180.638 23.618 180.638 20.009C180.638 16.427 177.687 13.485 174.093 13.485Z" fill="black"/>
<path d="M192.478 29.753C190.027 29.753 188.55 28.726 187.714 27.893C186.683 26.81 186.098 25.367 186.098 23.895C186.098 23.007 186.822 22.285 187.714 22.285C188.605 22.285 189.33 23.007 189.33 23.895C189.33 24.867 189.999 26.532 192.478 26.532C194.957 26.532 195.626 24.866 195.626 23.895C195.626 22.424 194.818 21.979 192.088 21.202C190.862 20.841 189.609 20.48 188.578 19.758C187.185 18.814 186.489 17.482 186.489 15.76C186.489 14.372 187.046 13.012 187.993 12.012C188.773 11.207 190.194 10.263 192.478 10.263C194.79 10.263 196.183 11.207 196.963 12.012C197.938 13.011 198.495 14.372 198.495 15.76C198.495 16.648 197.771 17.37 196.851 17.37C195.96 17.37 195.235 16.648 195.235 15.76C195.235 14.927 194.65 13.484 192.477 13.484C190.304 13.484 189.719 14.928 189.719 15.76C189.719 16.843 190.137 17.259 192.978 18.092C194.259 18.453 195.597 18.842 196.683 19.619C198.131 20.618 198.856 22.062 198.856 23.894C198.856 25.365 198.271 26.809 197.24 27.892C196.434 28.726 194.929 29.753 192.478 29.753Z" fill="black"/>
<path d="M215.32 11.874C215.32 12.762 214.596 13.484 213.704 13.484H209.275V28.142C209.275 29.03 208.551 29.752 207.631 29.752C206.74 29.752 206.015 29.03 206.015 28.142V13.484H201.586C200.695 13.484 199.97 12.762 199.97 11.874C199.97 10.986 200.694 10.264 201.586 10.264H213.704C214.596 10.264 215.32 10.986 215.32 11.874Z" fill="black"/>
<path d="M19.6328 22.08L24.7878 25.057V8.52399L19.6328 5.285V22.08Z" fill="black"/>
<path d="M27.168 47.3L37.689 41.04V41.061L42.5601 38.236V38.201L45.379 34.078L43.228 30.944L27.168 40.072V47.3Z" fill="black"/>
<path d="M34.401 8.94501H27.168V13.684L34.401 13.461V8.94501Z" fill="black"/>
<path d="M60.7415 20.389L56.5845 13.925L50.5265 14.363C46.0615 6.02601 37.2675 0.341003 27.1685 0.341003C12.5665 0.341003 0.6875 12.22 0.6875 26.822C0.6875 41.424 12.5665 53.303 27.1685 53.303C41.0825 53.303 52.5255 42.516 53.5715 28.865C53.6235 28.191 53.6495 27.51 53.6495 26.822C53.6495 26.345 53.6355 25.871 53.6105 25.4L56.5845 25.651L60.7415 20.389ZM51.0284 26.823C51.0284 38.653 42.3725 48.494 31.0625 50.36V47.015L27.1685 49.171V50.683C26.3645 50.683 25.5705 50.642 24.7875 50.564V37.452V35.961V28.407L12.6465 21.451L9.38745 25.973L12.6465 30.462L20.3755 34.912V49.692C10.5185 46.759 3.30847 37.62 3.30847 26.823C3.30847 13.667 14.0115 2.96399 27.1675 2.96399C35.8475 2.96399 43.4574 7.62501 47.6324 14.574L27.1675 16.055V37.62L31.0615 35.414V23.496L50.9635 25.177C51.0025 25.721 51.0284 26.269 51.0284 26.823Z" fill="black"/>
</svg>
