<svg width="207" height="167" viewBox="0 0 207 167" fill="none" xmlns="http://www.w3.org/2000/svg">
<path d="M96.3647 100.19C123.228 100.19 145.006 78.4127 145.006 51.549C145.006 24.6853 123.228 2.908 96.3647 2.908C69.501 2.908 47.7236 24.6853 47.7236 51.549C47.7236 78.4127 69.501 100.19 96.3647 100.19Z" fill="#E5E5E5"/>
<path d="M81.8018 42.385L91.7638 48.136V16.187L81.8018 9.928V42.385Z" fill="#4FB0BB"/>
<path d="M127.4 59.513L96.3643 77.153V91.122L116.696 79.024V79.066L126.108 73.606V73.538L131.557 65.571L127.4 59.513Z" fill="#1B708A"/>
<path d="M62.002 49.908L68.3009 58.583L83.2379 67.182V98.397C85.9889 99.166 88.8389 99.699 91.7639 99.973V72.09V69.209V54.61L68.3019 41.168L62.002 49.908Z" fill="#4FB0BB"/>
<path d="M96.3644 102.723C68.1474 102.723 45.1904 79.766 45.1904 51.549C45.1904 23.332 68.1474 0.375 96.3644 0.375C124.582 0.375 147.538 23.332 147.538 51.549C147.538 52.877 147.487 54.194 147.387 55.496C145.365 81.877 123.253 102.723 96.3644 102.723ZM96.3644 5.441C70.9404 5.441 50.2564 26.125 50.2564 51.549C50.2564 76.973 70.9404 97.657 96.3644 97.657C121.788 97.657 142.472 76.973 142.472 51.549C142.472 26.125 121.788 5.441 96.3644 5.441Z" fill="#1B708A"/>
<path d="M96.3648 100.13C97.1718 100.17 95.5478 100.191 96.3648 100.191C98.9248 100.191 101.437 99.992 103.89 99.611V90.57L96.3648 94.736V100.13Z" fill="#1B708A"/>
<g opacity="0.1">
<path opacity="0.1" d="M147.509 52.835L110.343 17.001H96.3642V41.168V45.12V73.902L96.3252 102.721C96.3252 102.721 106.861 103.201 118.266 97.81C123.298 95.431 128.723 91.792 133.766 86.386C148.319 70.784 147.509 52.835 147.509 52.835Z" fill="#414042"/>
</g>
<path d="M110.343 17.001H96.3643V26.159L110.343 25.728V17.001Z" fill="#4FB0BB"/>
<path d="M153.211 26.625L96.3643 30.738V72.414L103.889 68.151V45.12L153.211 49.286L161.244 39.115L153.211 26.625Z" fill="#D83830"/>
<path d="M0.957031 152.793C0.957031 152.619 1.00603 152.469 1.10303 152.346C1.20103 152.223 1.33905 152.161 1.52005 152.161C1.70005 152.161 1.84003 152.222 1.94003 152.346C2.04003 152.469 2.09003 152.619 2.09003 152.793C2.09003 152.968 2.04003 153.116 1.94003 153.236C1.84003 153.357 1.69905 153.417 1.52005 153.417C1.34005 153.417 1.20103 153.356 1.10303 153.236C1.00503 153.116 0.957031 152.967 0.957031 152.793ZM1.94403 163.538H1.08005V155.197H1.94403V163.538Z" fill="#E5E5E5"/>
<path d="M5.99475 155.198L6.01776 156.524C6.26476 156.072 6.57876 155.712 6.96176 155.445C7.34476 155.178 7.78077 155.044 8.26877 155.044C8.61777 155.044 8.92977 155.101 9.20477 155.214C9.47977 155.327 9.71377 155.507 9.90677 155.753C10.0988 156 10.2478 156.317 10.3498 156.705C10.4528 157.093 10.5048 157.562 10.5048 158.112V163.539H9.65677V158.105C9.65677 157.678 9.61877 157.321 9.54477 157.033C9.46977 156.745 9.36376 156.516 9.22476 156.343C9.08576 156.171 8.91776 156.047 8.71976 155.973C8.52176 155.898 8.29976 155.861 8.05276 155.861C7.79576 155.861 7.56077 155.914 7.34677 156.019C7.13377 156.124 6.94277 156.264 6.77277 156.439C6.60377 156.614 6.45677 156.814 6.33377 157.04C6.21077 157.266 6.10978 157.503 6.03278 157.749V163.538H5.17676V155.197H5.99475V155.198Z" fill="#E5E5E5"/>
<path d="M13.3389 158.983C13.3389 158.284 13.4019 157.687 13.5279 157.19C13.6539 156.694 13.8349 156.287 14.0719 155.968C14.3079 155.649 14.5948 155.415 14.9308 155.267C15.2668 155.118 15.6438 155.043 16.0598 155.043C16.5588 155.043 16.9809 155.155 17.3279 155.378C17.6749 155.601 17.9578 155.914 18.1798 156.314V151.697H19.0359V163.537H18.2339L18.1949 162.466C17.9749 162.852 17.6878 163.152 17.3358 163.368C16.9838 163.584 16.5558 163.692 16.0518 163.692C15.6358 163.692 15.2608 163.613 14.9268 163.456C14.5928 163.299 14.3089 163.059 14.0749 162.735C13.8409 162.411 13.6599 162.003 13.5319 161.509C13.4029 161.016 13.3389 160.433 13.3389 159.759V158.983ZM14.2099 159.761C14.2099 160.83 14.3699 161.616 14.6909 162.12C15.0119 162.623 15.5219 162.875 16.2209 162.875C16.4729 162.875 16.6999 162.843 16.9029 162.778C17.1059 162.714 17.2889 162.624 17.4499 162.508C17.6119 162.393 17.7518 162.257 17.8698 162.099C17.9878 161.942 18.0909 161.772 18.1789 161.587V157.262C18.1019 157.077 18.0059 156.9 17.8939 156.731C17.7809 156.561 17.6459 156.413 17.4889 156.288C17.3319 156.162 17.1499 156.06 16.9419 155.984C16.7339 155.907 16.4959 155.868 16.2289 155.868C15.5249 155.868 15.0129 156.121 14.6909 156.628C14.3699 157.134 14.2099 157.919 14.2099 158.983V159.761Z" fill="#E5E5E5"/>
<path d="M24.9684 163.693C24.5054 163.693 24.0814 163.617 23.6964 163.465C23.3104 163.313 22.9784 163.082 22.6984 162.771C22.4184 162.46 22.2014 162.068 22.0464 161.595C21.8924 161.122 21.8154 160.562 21.8154 159.915V158.967C21.8154 158.268 21.8974 157.671 22.0624 157.174C22.2264 156.678 22.4464 156.272 22.7214 155.956C22.9964 155.64 23.3154 155.409 23.6774 155.262C24.0394 155.116 24.4214 155.042 24.8224 155.042C25.7374 155.042 26.4324 155.344 26.9074 155.948C27.3834 156.552 27.6204 157.475 27.6204 158.719V159.444H22.6644V159.914C22.6644 160.423 22.7214 160.865 22.8334 161.24C22.9474 161.615 23.1064 161.926 23.3114 162.173C23.5174 162.419 23.7634 162.603 24.0514 162.724C24.3394 162.845 24.6584 162.906 25.0074 162.906C25.4394 162.906 25.8144 162.832 26.1334 162.686C26.4514 162.54 26.7424 162.312 27.0044 162.004L27.4514 162.574C27.3384 162.728 27.2064 162.872 27.0544 163.006C26.9024 163.14 26.7254 163.258 26.5224 163.361C26.3194 163.464 26.0894 163.545 25.8324 163.604C25.5744 163.663 25.2874 163.693 24.9684 163.693ZM24.8224 155.845C24.5194 155.845 24.2404 155.897 23.9864 155.999C23.7324 156.102 23.5114 156.265 23.3234 156.488C23.1354 156.712 22.9854 157.001 22.8724 157.355C22.7594 157.709 22.6924 158.138 22.6724 158.642H26.7654V158.418C26.7554 158.012 26.7094 157.65 26.6274 157.331C26.5454 157.012 26.4254 156.743 26.2694 156.522C26.1124 156.301 25.9134 156.133 25.6724 156.017C25.4284 155.903 25.1464 155.845 24.8224 155.845Z" fill="#E5E5E5"/>
<path d="M35.9956 159.761C35.9956 160.435 35.9356 161.018 35.8146 161.511C35.6936 162.005 35.5206 162.413 35.2946 162.737C35.0676 163.061 34.7886 163.301 34.4546 163.458C34.1206 163.615 33.7426 163.694 33.3216 163.694C32.8176 163.694 32.3876 163.592 32.0306 163.39C31.6736 163.187 31.3816 162.903 31.1556 162.538V166.747H30.3076V155.2H31.0936L31.1316 156.341C31.3626 155.935 31.6556 155.618 32.0106 155.389C32.3646 155.161 32.7946 155.046 33.2976 155.046C33.7296 155.046 34.1116 155.121 34.4466 155.27C34.7806 155.419 35.0626 155.653 35.2946 155.971C35.5256 156.29 35.7006 156.697 35.8186 157.193C35.9366 157.689 35.9956 158.287 35.9956 158.986V159.761V159.761ZM35.1406 158.983C35.1406 157.914 34.9746 157.128 34.6436 156.624C34.3126 156.12 33.7946 155.868 33.0906 155.868C32.8276 155.868 32.5936 155.906 32.3846 155.98C32.1766 156.054 31.9936 156.156 31.8376 156.284C31.6806 156.413 31.5476 156.559 31.4366 156.723C31.3266 156.888 31.2326 157.062 31.1556 157.247V161.641C31.2376 161.821 31.3386 161.988 31.4596 162.142C31.5806 162.296 31.7206 162.43 31.8796 162.543C32.0386 162.656 32.2196 162.744 32.4226 162.805C32.6256 162.866 32.8536 162.897 33.1046 162.897C33.7986 162.897 34.3116 162.641 34.6426 162.13C34.9746 161.619 35.1396 160.829 35.1396 159.76V158.983H35.1406Z" fill="#E5E5E5"/>
<path d="M41.6051 163.693C41.1421 163.693 40.7191 163.617 40.3341 163.465C39.9481 163.313 39.6151 163.082 39.3361 162.771C39.0551 162.46 38.8391 162.068 38.6841 161.595C38.5301 161.122 38.4531 160.562 38.4531 159.915V158.967C38.4531 158.268 38.5351 157.671 38.7001 157.174C38.8641 156.678 39.0841 156.272 39.3591 155.956C39.6341 155.64 39.9531 155.409 40.3151 155.262C40.6771 155.116 41.0591 155.042 41.4601 155.042C42.3751 155.042 43.0701 155.344 43.5451 155.948C44.0201 156.552 44.2581 157.475 44.2581 158.719V159.444H39.3011V159.914C39.3011 160.423 39.3571 160.865 39.4701 161.24C39.5831 161.615 39.7431 161.926 39.9481 162.173C40.1531 162.419 40.4001 162.603 40.6881 162.724C40.9761 162.845 41.2951 162.906 41.6441 162.906C42.0761 162.906 42.4501 162.832 42.7691 162.686C43.0881 162.54 43.3781 162.312 43.6401 162.004L44.0881 162.574C43.9741 162.728 43.8421 162.872 43.6911 163.006C43.5391 163.14 43.3621 163.258 43.1591 163.361C42.9561 163.464 42.7261 163.545 42.4691 163.604C42.2121 163.663 41.9241 163.693 41.6051 163.693ZM41.4591 155.845C41.1561 155.845 40.8771 155.897 40.6231 155.999C40.3691 156.102 40.1471 156.265 39.9601 156.488C39.7721 156.712 39.6221 157.001 39.5091 157.355C39.3961 157.709 39.3291 158.138 39.3091 158.642H43.4021V158.418C43.3921 158.012 43.3451 157.65 43.2641 157.331C43.1811 157.012 43.0621 156.743 42.9061 156.522C42.7491 156.301 42.5491 156.133 42.3081 156.017C42.0651 155.903 41.7821 155.845 41.4591 155.845Z" fill="#E5E5E5"/>
<path d="M47.7624 155.198L47.7854 156.524C48.0324 156.072 48.3464 155.712 48.7294 155.445C49.1124 155.178 49.5484 155.044 50.0364 155.044C50.3854 155.044 50.6974 155.101 50.9724 155.214C51.2474 155.327 51.4814 155.507 51.6744 155.753C51.8664 156 52.0144 156.317 52.1174 156.705C52.2204 157.093 52.2714 157.562 52.2714 158.112V163.539H51.4234V158.105C51.4234 157.678 51.3854 157.321 51.3114 157.033C51.2364 156.745 51.1304 156.516 50.9914 156.343C50.8534 156.171 50.6844 156.047 50.4864 155.973C50.2884 155.898 50.0664 155.861 49.8194 155.861C49.5624 155.861 49.3264 155.914 49.1134 156.019C48.9004 156.124 48.7094 156.264 48.5394 156.439C48.3694 156.614 48.2234 156.814 48.0994 157.04C47.9754 157.266 47.8754 157.503 47.7984 157.749V163.538H46.9424V155.197H47.7624V155.198Z" fill="#E5E5E5"/>
<path d="M55.1064 158.983C55.1064 158.284 55.1694 157.687 55.2954 157.19C55.4214 156.694 55.6024 156.287 55.8384 155.968C56.0744 155.649 56.3614 155.415 56.6984 155.267C57.0344 155.118 57.4114 155.043 57.8274 155.043C58.3254 155.043 58.7484 155.155 59.0954 155.378C59.4424 155.601 59.7264 155.914 59.9474 156.314V151.697H60.8034V163.537H60.0014L59.9634 162.466C59.7424 162.852 59.4554 163.152 59.1044 163.368C58.7524 163.584 58.3244 163.692 57.8204 163.692C57.4034 163.692 57.0284 163.613 56.6944 163.456C56.3604 163.299 56.0764 163.059 55.8434 162.735C55.6094 162.411 55.4284 162.003 55.2994 161.509C55.1704 161.016 55.1074 160.433 55.1074 159.759V158.983H55.1064ZM55.9764 159.761C55.9764 160.83 56.1364 161.616 56.4584 162.12C56.7794 162.623 57.2894 162.875 57.9884 162.875C58.2404 162.875 58.4674 162.843 58.6714 162.778C58.8744 162.714 59.0564 162.624 59.2184 162.508C59.3804 162.393 59.5204 162.257 59.6384 162.099C59.7564 161.942 59.8584 161.772 59.9464 161.587V157.262C59.8694 157.077 59.7744 156.9 59.6614 156.731C59.5484 156.561 59.4134 156.413 59.2564 156.288C59.0994 156.162 58.9174 156.06 58.7094 155.984C58.5014 155.907 58.2634 155.868 57.9964 155.868C57.2914 155.868 56.7794 156.121 56.4584 156.628C56.1364 157.134 55.9764 157.919 55.9764 158.983V159.761V159.761Z" fill="#E5E5E5"/>
<path d="M66.735 163.693C66.272 163.693 65.848 163.617 65.463 163.465C65.077 163.313 64.745 163.082 64.465 162.771C64.185 162.46 63.968 162.068 63.814 161.595C63.66 161.122 63.583 160.562 63.583 159.915V158.967C63.583 158.268 63.665 157.671 63.83 157.174C63.994 156.678 64.214 156.272 64.489 155.956C64.764 155.64 65.082 155.409 65.445 155.262C65.807 155.116 66.189 155.042 66.59 155.042C67.504 155.042 68.2 155.344 68.675 155.948C69.151 156.552 69.388 157.475 69.388 158.719V159.444H64.431V159.914C64.431 160.423 64.488 160.865 64.601 161.24C64.714 161.615 64.873 161.926 65.079 162.173C65.285 162.419 65.531 162.603 65.819 162.724C66.107 162.845 66.425 162.906 66.775 162.906C67.207 162.906 67.582 162.832 67.9 162.686C68.219 162.54 68.509 162.312 68.771 162.004L69.218 162.574C69.105 162.728 68.973 162.872 68.821 163.006C68.669 163.14 68.493 163.258 68.289 163.361C68.086 163.464 67.856 163.545 67.599 163.604C67.341 163.663 67.053 163.693 66.735 163.693ZM66.589 155.845C66.285 155.845 66.007 155.897 65.752 155.999C65.498 156.102 65.277 156.265 65.09 156.488C64.902 156.712 64.752 157.001 64.639 157.355C64.526 157.709 64.459 158.138 64.439 158.642H68.532V158.418C68.522 158.012 68.476 157.65 68.393 157.331C68.311 157.012 68.191 156.743 68.035 156.522C67.878 156.301 67.679 156.133 67.438 156.017C67.195 155.903 66.912 155.845 66.589 155.845Z" fill="#E5E5E5"/>
<path d="M72.8913 155.198L72.9142 156.524C73.1612 156.072 73.4752 155.712 73.8582 155.445C74.2412 155.178 74.6772 155.044 75.1642 155.044C75.5142 155.044 75.8253 155.101 76.1003 155.214C76.3753 155.327 76.6092 155.507 76.8022 155.753C76.9942 156 77.1432 156.317 77.2452 156.705C77.3482 157.093 77.4002 157.562 77.4002 158.112V163.539H76.5522V158.105C76.5522 157.678 76.5142 157.321 76.4402 157.033C76.3652 156.745 76.2592 156.516 76.1202 156.343C75.9812 156.171 75.8133 156.047 75.6153 155.973C75.4173 155.898 75.1952 155.861 74.9482 155.861C74.6912 155.861 74.4562 155.914 74.2422 156.019C74.0292 156.124 73.8382 156.264 73.6682 156.439C73.4992 156.614 73.3522 156.814 73.2292 157.04C73.1062 157.266 73.0053 157.503 72.9283 157.749V163.538H72.0723V155.197H72.8913V155.198Z" fill="#E5E5E5"/>
<path d="M81.8315 153.07V155.198H83.2575V155.969H81.8315V161.511C81.8315 161.799 81.8555 162.032 81.9045 162.209C81.9535 162.386 82.0185 162.524 82.1005 162.622C82.1835 162.72 82.2765 162.785 82.3815 162.819C82.4875 162.852 82.5985 162.869 82.7165 162.869C82.8295 162.869 82.9405 162.86 83.0485 162.842C83.1565 162.824 83.2515 162.807 83.3335 162.792L83.3565 163.563C83.2645 163.604 83.1425 163.636 82.9905 163.66C82.8395 163.683 82.6805 163.695 82.5165 163.695C82.2955 163.695 82.0915 163.659 81.9035 163.587C81.7155 163.515 81.5525 163.394 81.4135 163.224C81.2745 163.055 81.1665 162.83 81.0895 162.55C81.0125 162.27 80.9745 161.921 80.9745 161.505V155.97H79.6875V155.199H80.9745V153.071H81.8315V153.07Z" fill="#E5E5E5"/>
<path d="M93.0415 162.899C93.2775 162.899 93.5065 162.868 93.7275 162.807C93.9485 162.746 94.1445 162.64 94.3175 162.491C94.4895 162.342 94.6305 162.143 94.7415 161.894C94.8515 161.645 94.9145 161.332 94.9305 160.957H95.7556C95.7346 161.404 95.6505 161.799 95.5015 162.141C95.3525 162.483 95.1545 162.768 94.9075 162.997C94.6615 163.225 94.3785 163.399 94.0595 163.517C93.7405 163.635 93.4015 163.694 93.0415 163.694C92.0395 163.694 91.2855 163.37 90.7795 162.722C90.2725 162.075 90.0195 161.114 90.0195 159.839V158.898C90.0195 157.623 90.2725 156.663 90.7795 156.015C91.2855 155.368 92.0365 155.044 93.0345 155.044C93.4145 155.044 93.7685 155.105 94.0945 155.225C94.4205 155.346 94.7035 155.528 94.9425 155.772C95.1815 156.016 95.3735 156.325 95.5175 156.697C95.6615 157.069 95.7415 157.508 95.7565 158.011H94.9315C94.9155 157.626 94.8565 157.296 94.7545 157.021C94.6515 156.746 94.5165 156.521 94.3505 156.346C94.1835 156.171 93.9875 156.044 93.7645 155.965C93.5415 155.885 93.2985 155.845 93.0365 155.845C92.6405 155.845 92.3065 155.913 92.0345 156.049C91.7615 156.186 91.5415 156.384 91.3715 156.647C91.2025 156.909 91.0785 157.229 91.0015 157.607C90.9245 157.985 90.8855 158.415 90.8855 158.898V159.839C90.8855 160.327 90.9225 160.761 90.9975 161.142C91.0715 161.522 91.1935 161.842 91.3635 162.101C91.5335 162.361 91.7555 162.559 92.0305 162.695C92.3025 162.831 92.6405 162.899 93.0415 162.899Z" fill="#E5E5E5"/>
<path d="M101.703 156C101.615 155.984 101.529 155.972 101.445 155.961C101.36 155.951 101.266 155.946 101.164 155.946C100.912 155.946 100.685 155.991 100.481 156.081C100.278 156.171 100.1 156.297 99.9446 156.459C99.7906 156.621 99.6576 156.815 99.5476 157.041C99.4366 157.267 99.3506 157.514 99.2896 157.781V163.539H98.4336V155.198H99.2746L99.2896 156.447C99.4796 156.01 99.7316 155.667 100.045 155.418C100.358 155.169 100.744 155.044 101.202 155.044C101.294 155.044 101.392 155.054 101.495 155.075C101.598 155.096 101.672 155.119 101.718 155.144L101.703 156Z" fill="#E5E5E5"/>
<path d="M106.679 163.693C106.216 163.693 105.793 163.617 105.408 163.465C105.022 163.313 104.689 163.082 104.41 162.771C104.129 162.46 103.913 162.068 103.758 161.595C103.604 161.122 103.527 160.562 103.527 159.915V158.967C103.527 158.268 103.609 157.671 103.774 157.174C103.938 156.678 104.158 156.272 104.433 155.956C104.708 155.64 105.027 155.409 105.389 155.262C105.751 155.116 106.133 155.042 106.534 155.042C107.449 155.042 108.144 155.344 108.619 155.948C109.094 156.552 109.332 157.475 109.332 158.719V159.444H104.376V159.914C104.376 160.423 104.432 160.865 104.545 161.24C104.658 161.615 104.818 161.926 105.023 162.173C105.228 162.419 105.475 162.603 105.763 162.724C106.051 162.845 106.37 162.906 106.719 162.906C107.151 162.906 107.525 162.832 107.844 162.686C108.163 162.54 108.453 162.312 108.715 162.004L109.163 162.574C109.049 162.728 108.917 162.872 108.766 163.006C108.614 163.14 108.437 163.258 108.234 163.361C108.031 163.464 107.801 163.545 107.544 163.604C107.286 163.663 106.998 163.693 106.679 163.693ZM106.533 155.845C106.23 155.845 105.951 155.897 105.697 155.999C105.443 156.102 105.221 156.265 105.034 156.488C104.846 156.712 104.696 157.001 104.583 157.355C104.47 157.709 104.403 158.138 104.383 158.642H108.476V158.418C108.466 158.012 108.419 157.65 108.338 157.331C108.255 157.012 108.136 156.743 107.98 156.522C107.823 156.301 107.623 156.133 107.382 156.017C107.139 155.903 106.856 155.845 106.533 155.845Z" fill="#E5E5E5"/>
<path d="M116.429 163.538C116.388 163.399 116.354 163.226 116.329 163.018C116.303 162.81 116.285 162.598 116.275 162.382C116.167 162.557 116.039 162.723 115.889 162.879C115.74 163.036 115.57 163.175 115.376 163.295C115.184 163.416 114.969 163.512 114.732 163.584C114.496 163.656 114.241 163.692 113.969 163.692C113.625 163.692 113.312 163.643 113.032 163.545C112.752 163.447 112.512 163.301 112.311 163.106C112.11 162.911 111.956 162.666 111.848 162.374C111.74 162.081 111.686 161.739 111.686 161.349C111.686 160.964 111.752 160.608 111.885 160.282C112.019 159.955 112.219 159.674 112.483 159.438C112.747 159.202 113.078 159.017 113.474 158.883C113.87 158.749 114.33 158.683 114.854 158.683H116.264V157.519C116.264 156.923 116.116 156.495 115.82 156.235C115.524 155.976 115.092 155.846 114.522 155.846C114.255 155.846 114.009 155.887 113.786 155.969C113.562 156.051 113.371 156.166 113.212 156.312C113.053 156.458 112.929 156.633 112.841 156.836C112.754 157.039 112.711 157.261 112.711 157.503L111.855 157.495C111.855 157.171 111.919 156.862 112.047 156.566C112.176 156.271 112.358 156.01 112.594 155.784C112.83 155.558 113.115 155.378 113.45 155.244C113.783 155.111 114.154 155.044 114.56 155.044C114.935 155.044 115.278 155.089 115.589 155.179C115.9 155.269 116.169 155.413 116.395 155.611C116.621 155.809 116.797 156.066 116.923 156.382C117.049 156.698 117.112 157.082 117.112 157.535V161.79C117.112 161.934 117.117 162.083 117.127 162.237C117.137 162.391 117.151 162.541 117.169 162.688C117.187 162.835 117.21 162.973 117.238 163.105C117.266 163.236 117.297 163.35 117.333 163.448V163.54H116.429V163.538ZM114.078 162.868C114.345 162.868 114.595 162.831 114.83 162.756C115.064 162.681 115.273 162.579 115.458 162.448C115.643 162.317 115.804 162.164 115.94 161.989C116.076 161.815 116.185 161.627 116.267 161.427V159.399H114.98C114.173 159.399 113.567 159.569 113.161 159.908C112.755 160.247 112.552 160.705 112.552 161.28C112.552 161.83 112.687 162.232 112.957 162.487C113.226 162.741 113.6 162.868 114.078 162.868Z" fill="#E5E5E5"/>
<path d="M121.605 153.07V155.198H123.031V155.969H121.605V161.511C121.605 161.799 121.629 162.032 121.678 162.209C121.727 162.386 121.793 162.524 121.874 162.622C121.957 162.72 122.05 162.785 122.155 162.819C122.261 162.852 122.372 162.869 122.49 162.869C122.603 162.869 122.714 162.86 122.822 162.842C122.93 162.824 123.025 162.807 123.107 162.792L123.13 163.563C123.038 163.604 122.916 163.636 122.764 163.66C122.613 163.683 122.454 163.695 122.29 163.695C122.069 163.695 121.865 163.659 121.677 163.587C121.489 163.515 121.326 163.394 121.187 163.224C121.048 163.055 120.94 162.83 120.863 162.55C120.786 162.27 120.748 161.921 120.748 161.505V155.97H119.461V155.199H120.748V153.071H121.605V153.07Z" fill="#E5E5E5"/>
<path d="M125.734 152.793C125.734 152.619 125.783 152.469 125.881 152.346C125.979 152.223 126.117 152.161 126.297 152.161C126.477 152.161 126.617 152.222 126.717 152.346C126.817 152.469 126.867 152.619 126.867 152.793C126.867 152.968 126.817 153.116 126.717 153.236C126.617 153.356 126.477 153.417 126.297 153.417C126.117 153.417 125.979 153.356 125.881 153.236C125.783 153.116 125.734 152.967 125.734 152.793ZM126.721 163.538H125.858V155.197H126.721V163.538Z" fill="#E5E5E5"/>
<path d="M132.168 162.197L134.219 155.198H135.098L132.5 163.539H131.822L129.209 155.198H130.088L132.168 162.197Z" fill="#E5E5E5"/>
<path d="M140.174 163.693C139.711 163.693 139.288 163.617 138.903 163.465C138.517 163.313 138.184 163.082 137.905 162.771C137.624 162.46 137.408 162.068 137.253 161.595C137.099 161.122 137.022 160.562 137.022 159.915V158.967C137.022 158.268 137.104 157.671 137.269 157.174C137.433 156.678 137.653 156.272 137.928 155.956C138.203 155.64 138.522 155.409 138.884 155.262C139.246 155.116 139.628 155.042 140.029 155.042C140.944 155.042 141.639 155.344 142.114 155.948C142.589 156.552 142.827 157.475 142.827 158.719V159.444H137.871V159.914C137.871 160.423 137.927 160.865 138.04 161.24C138.153 161.615 138.313 161.926 138.518 162.173C138.724 162.419 138.97 162.603 139.258 162.724C139.546 162.845 139.865 162.906 140.214 162.906C140.646 162.906 141.02 162.832 141.339 162.686C141.658 162.54 141.948 162.312 142.21 162.004L142.658 162.574C142.544 162.728 142.412 162.872 142.261 163.006C142.109 163.14 141.932 163.258 141.729 163.361C141.526 163.464 141.296 163.545 141.039 163.604C140.781 163.663 140.493 163.693 140.174 163.693ZM140.028 155.845C139.725 155.845 139.446 155.897 139.192 155.999C138.938 156.102 138.716 156.265 138.529 156.488C138.341 156.712 138.191 157.001 138.078 157.355C137.965 157.709 137.898 158.138 137.878 158.642H141.971V158.418C141.961 158.012 141.914 157.65 141.833 157.331C141.75 157.012 141.631 156.743 141.475 156.522C141.318 156.301 141.118 156.133 140.877 156.017C140.635 155.903 140.352 155.845 140.028 155.845Z" fill="#E5E5E5"/>
<path d="M155.617 159.761C155.617 160.435 155.557 161.018 155.436 161.511C155.315 162.005 155.142 162.413 154.916 162.737C154.689 163.061 154.41 163.301 154.076 163.458C153.742 163.615 153.364 163.694 152.943 163.694C152.439 163.694 152.009 163.592 151.652 163.39C151.295 163.187 151.003 162.903 150.777 162.538V166.747H149.929V155.2H150.715L150.753 156.341C150.984 155.935 151.277 155.618 151.632 155.389C151.986 155.161 152.416 155.046 152.919 155.046C153.351 155.046 153.733 155.121 154.068 155.27C154.402 155.419 154.684 155.653 154.916 155.971C155.147 156.29 155.322 156.697 155.44 157.193C155.558 157.689 155.617 158.287 155.617 158.986V159.761V159.761ZM154.761 158.983C154.761 157.914 154.595 157.128 154.264 156.624C153.933 156.12 153.415 155.868 152.711 155.868C152.448 155.868 152.214 155.906 152.005 155.98C151.797 156.054 151.614 156.156 151.458 156.284C151.302 156.412 151.168 156.559 151.057 156.723C150.947 156.888 150.853 157.062 150.776 157.247V161.641C150.858 161.821 150.959 161.988 151.08 162.142C151.201 162.296 151.341 162.43 151.5 162.543C151.659 162.656 151.84 162.744 152.043 162.805C152.246 162.866 152.474 162.897 152.725 162.897C153.419 162.897 153.932 162.641 154.263 162.13C154.595 161.619 154.76 160.829 154.76 159.76V158.983H154.761Z" fill="#E5E5E5"/>
<path d="M162.884 163.538C162.843 163.399 162.809 163.226 162.784 163.018C162.758 162.81 162.74 162.598 162.73 162.382C162.622 162.557 162.494 162.723 162.344 162.879C162.195 163.036 162.025 163.175 161.831 163.295C161.639 163.416 161.424 163.512 161.187 163.584C160.951 163.656 160.696 163.692 160.424 163.692C160.08 163.692 159.767 163.643 159.487 163.545C159.207 163.447 158.967 163.301 158.766 163.106C158.565 162.911 158.411 162.666 158.303 162.374C158.195 162.081 158.141 161.739 158.141 161.349C158.141 160.964 158.208 160.608 158.341 160.282C158.475 159.955 158.674 159.674 158.938 159.438C159.202 159.202 159.533 159.017 159.929 158.883C160.325 158.749 160.785 158.683 161.309 158.683H162.719V157.519C162.719 156.923 162.572 156.495 162.276 156.235C161.98 155.975 161.547 155.846 160.977 155.846C160.71 155.846 160.464 155.887 160.241 155.969C160.017 156.051 159.826 156.166 159.667 156.312C159.508 156.458 159.384 156.633 159.296 156.836C159.209 157.039 159.166 157.261 159.166 157.503L158.31 157.495C158.31 157.171 158.374 156.862 158.502 156.566C158.631 156.271 158.813 156.01 159.049 155.784C159.285 155.558 159.57 155.378 159.905 155.244C160.239 155.111 160.609 155.044 161.015 155.044C161.39 155.044 161.733 155.089 162.044 155.179C162.356 155.269 162.624 155.413 162.85 155.611C163.076 155.809 163.252 156.066 163.378 156.382C163.504 156.698 163.567 157.082 163.567 157.535V161.79C163.567 161.934 163.572 162.083 163.583 162.237C163.593 162.391 163.607 162.541 163.625 162.688C163.643 162.834 163.666 162.973 163.694 163.105C163.722 163.236 163.755 163.35 163.79 163.448V163.54H162.884V163.538ZM160.532 162.868C160.799 162.868 161.049 162.831 161.284 162.756C161.518 162.681 161.727 162.579 161.912 162.448C162.097 162.317 162.258 162.164 162.394 161.989C162.53 161.815 162.639 161.627 162.721 161.427V159.399H161.434C160.627 159.399 160.021 159.569 159.615 159.908C159.209 160.247 159.006 160.705 159.006 161.28C159.006 161.83 159.141 162.232 159.411 162.487C159.68 162.741 160.054 162.868 160.532 162.868Z" fill="#E5E5E5"/>
<path d="M170.042 156C169.954 155.984 169.869 155.972 169.784 155.961C169.7 155.951 169.606 155.946 169.503 155.946C169.251 155.946 169.024 155.991 168.82 156.081C168.617 156.171 168.439 156.297 168.284 156.459C168.13 156.621 167.998 156.815 167.887 157.041C167.776 157.267 167.691 157.514 167.629 157.781V163.539H166.773V155.198H167.613L167.629 156.447C167.819 156.01 168.071 155.667 168.384 155.418C168.697 155.169 169.083 155.044 169.54 155.044C169.632 155.044 169.73 155.054 169.833 155.075C169.935 155.096 170.01 155.119 170.056 155.144L170.042 156Z" fill="#E5E5E5"/>
<path d="M174.086 153.07V155.198H175.512V155.969H174.086V161.511C174.086 161.799 174.11 162.032 174.159 162.209C174.208 162.386 174.274 162.524 174.355 162.622C174.438 162.72 174.531 162.785 174.636 162.819C174.742 162.852 174.853 162.869 174.971 162.869C175.084 162.869 175.195 162.86 175.303 162.842C175.411 162.824 175.506 162.807 175.588 162.792L175.611 163.563C175.519 163.604 175.397 163.636 175.245 163.66C175.094 163.683 174.935 163.695 174.771 163.695C174.55 163.695 174.346 163.659 174.158 163.587C173.97 163.515 173.807 163.394 173.668 163.224C173.529 163.055 173.421 162.83 173.344 162.55C173.267 162.27 173.229 161.921 173.229 161.505V155.97H171.942V155.199H173.229V153.071H174.086V153.07Z" fill="#E5E5E5"/>
<path d="M179.063 155.198L179.086 156.524C179.333 156.072 179.647 155.712 180.03 155.445C180.413 155.178 180.849 155.044 181.336 155.044C181.686 155.044 181.997 155.101 182.272 155.214C182.547 155.327 182.781 155.507 182.974 155.753C183.166 156 183.315 156.317 183.417 156.705C183.52 157.093 183.572 157.562 183.572 158.112V163.539H182.724V158.105C182.724 157.678 182.686 157.321 182.612 157.033C182.537 156.745 182.431 156.516 182.292 156.343C182.153 156.171 181.985 156.047 181.787 155.973C181.589 155.898 181.367 155.861 181.12 155.861C180.863 155.861 180.628 155.914 180.414 156.019C180.201 156.124 180.01 156.264 179.84 156.439C179.671 156.614 179.524 156.814 179.401 157.04C179.278 157.266 179.177 157.503 179.1 157.749V163.538H178.244V155.197H179.063V155.198Z" fill="#E5E5E5"/>
<path d="M189.467 163.693C189.004 163.693 188.58 163.617 188.195 163.465C187.809 163.313 187.477 163.082 187.197 162.771C186.917 162.46 186.7 162.068 186.545 161.595C186.391 161.122 186.314 160.562 186.314 159.915V158.967C186.314 158.268 186.396 157.671 186.561 157.174C186.725 156.678 186.945 156.272 187.22 155.956C187.495 155.64 187.814 155.409 188.176 155.262C188.538 155.116 188.92 155.042 189.321 155.042C190.236 155.042 190.931 155.344 191.406 155.948C191.882 156.552 192.119 157.475 192.119 158.719V159.444H187.163V159.914C187.163 160.423 187.22 160.865 187.332 161.24C187.446 161.615 187.605 161.926 187.81 162.173C188.016 162.419 188.262 162.603 188.55 162.724C188.838 162.845 189.157 162.906 189.506 162.906C189.938 162.906 190.313 162.832 190.632 162.686C190.95 162.54 191.241 162.312 191.503 162.004L191.95 162.574C191.837 162.728 191.705 162.872 191.553 163.006C191.402 163.14 191.224 163.258 191.021 163.361C190.818 163.464 190.588 163.545 190.331 163.604C190.073 163.663 189.785 163.693 189.467 163.693ZM189.32 155.845C189.017 155.845 188.738 155.897 188.484 155.999C188.23 156.102 188.009 156.265 187.821 156.488C187.633 156.712 187.483 157.001 187.37 157.355C187.257 157.709 187.19 158.138 187.17 158.642H191.263V158.418C191.253 158.012 191.207 157.65 191.125 157.331C191.043 157.012 190.923 156.743 190.767 156.522C190.61 156.301 190.411 156.133 190.17 156.017C189.927 155.903 189.644 155.845 189.32 155.845Z" fill="#E5E5E5"/>
<path d="M198.074 156C197.987 155.984 197.901 155.972 197.816 155.961C197.732 155.951 197.638 155.946 197.535 155.946C197.284 155.946 197.056 155.991 196.853 156.081C196.65 156.171 196.471 156.297 196.317 156.459C196.163 156.621 196.031 156.815 195.92 157.041C195.809 157.267 195.723 157.514 195.662 157.781V163.539H194.806V155.198H195.646L195.662 156.447C195.852 156.01 196.104 155.667 196.417 155.418C196.73 155.169 197.116 155.044 197.573 155.044C197.666 155.044 197.763 155.054 197.866 155.075C197.969 155.096 198.043 155.119 198.09 155.144L198.074 156Z" fill="#E5E5E5"/>
<path d="M204.616 161.488C204.616 161.319 204.584 161.159 204.52 161.01C204.455 160.861 204.35 160.717 204.204 160.578C204.058 160.439 203.865 160.298 203.626 160.154C203.387 160.01 203.09 159.856 202.736 159.691C202.356 159.522 202.016 159.358 201.718 159.202C201.42 159.045 201.17 158.876 200.966 158.693C200.763 158.511 200.608 158.305 200.5 158.076C200.392 157.848 200.339 157.576 200.339 157.263C200.339 156.955 200.396 156.666 200.512 156.396C200.628 156.126 200.793 155.891 201.009 155.69C201.225 155.49 201.487 155.332 201.795 155.216C202.103 155.1 202.448 155.042 202.828 155.042C203.234 155.042 203.599 155.103 203.922 155.223C204.246 155.344 204.52 155.512 204.743 155.728C204.966 155.944 205.138 156.202 205.256 156.503C205.374 156.804 205.433 157.131 205.433 157.486H204.577C204.577 157.27 204.539 157.063 204.461 156.865C204.384 156.668 204.271 156.493 204.122 156.341C203.973 156.189 203.79 156.068 203.575 155.979C203.359 155.889 203.11 155.844 202.827 155.844C202.534 155.844 202.285 155.884 202.079 155.964C201.873 156.044 201.704 156.149 201.57 156.28C201.437 156.411 201.339 156.561 201.277 156.727C201.215 156.894 201.185 157.062 201.185 157.232C201.185 157.401 201.211 157.552 201.262 157.683C201.313 157.814 201.407 157.941 201.543 158.064C201.679 158.187 201.863 158.315 202.094 158.446C202.325 158.577 202.623 158.73 202.988 158.904C203.374 159.074 203.72 159.238 204.029 159.397C204.338 159.557 204.599 159.732 204.811 159.925C205.024 160.117 205.189 160.335 205.305 160.576C205.42 160.818 205.479 161.106 205.479 161.44C205.479 161.784 205.417 162.095 205.294 162.373C205.171 162.65 204.995 162.887 204.766 163.082C204.537 163.277 204.262 163.427 203.941 163.533C203.619 163.638 203.264 163.691 202.873 163.691C202.421 163.691 202.022 163.625 201.678 163.494C201.334 163.363 201.045 163.187 200.811 162.966C200.577 162.745 200.4 162.488 200.279 162.195C200.158 161.902 200.098 161.591 200.098 161.262H200.961C200.976 161.591 201.044 161.861 201.166 162.071C201.287 162.282 201.437 162.449 201.617 162.572C201.797 162.695 201.997 162.78 202.218 162.826C202.439 162.872 202.658 162.895 202.873 162.895C203.155 162.895 203.406 162.858 203.625 162.783C203.843 162.708 204.026 162.609 204.172 162.482C204.318 162.356 204.429 162.207 204.504 162.035C204.579 161.867 204.616 161.684 204.616 161.488Z" fill="#E5E5E5"/>
<path d="M13.9188 145.063C6.32076 145.063 0.09375 138.875 0.09375 131.238C0.09375 123.601 6.32076 117.413 13.9188 117.413C17.9138 117.413 21.7128 119.136 24.3368 122.113C24.8068 122.661 24.7278 123.445 24.2198 123.875C23.7108 124.345 22.9268 124.306 22.4568 123.757C20.3028 121.29 17.2088 119.88 13.9188 119.88C7.69176 119.88 2.59976 124.971 2.59976 131.237C2.59976 137.464 7.69076 142.556 13.9188 142.556C17.0518 142.556 20.0278 141.264 22.1428 139.031V133.47H14.8978C14.1928 133.47 13.6438 132.922 13.6438 132.217C13.6438 131.512 14.1928 130.964 14.8978 130.964H23.3968C24.1018 130.964 24.6497 131.512 24.6497 132.217V139.502C24.6497 139.815 24.5328 140.089 24.3368 140.324C21.7128 143.339 17.9138 145.063 13.9188 145.063Z" fill="#E5E5E5"/>
<path d="M40.4336 145.063C34.3246 145.063 29.3506 140.089 29.3506 133.94V118.666C29.3506 117.961 29.8996 117.413 30.5646 117.413C31.2706 117.413 31.8176 117.961 31.8176 118.666V133.94C31.8176 138.718 35.6946 142.556 40.4336 142.556C45.2116 142.556 49.0496 138.718 49.0496 133.94V118.666C49.0496 117.961 49.5976 117.413 50.3026 117.413C51.0086 117.413 51.5566 117.961 51.5566 118.666V133.94C51.5566 140.088 46.5826 145.063 40.4336 145.063Z" fill="#E5E5E5"/>
<path d="M57.3155 145.063C56.6095 145.063 56.0615 144.515 56.0615 143.81V118.667C56.0615 117.962 56.6095 117.414 57.3155 117.414C58.0205 117.414 58.5685 117.962 58.5685 118.667V143.81C58.5685 144.514 58.0205 145.063 57.3155 145.063Z" fill="#E5E5E5"/>
<path d="M70.6703 145.063H64.3253C63.6203 145.063 63.0723 144.515 63.0723 143.81V118.667C63.0723 117.962 63.6203 117.414 64.3253 117.414H70.6703C78.3073 117.414 84.4953 123.602 84.4953 131.239C84.4953 138.876 78.3073 145.063 70.6703 145.063ZM65.5783 142.556H70.6703C76.9363 142.556 82.0273 137.465 82.0273 131.237C82.0273 124.971 76.9363 119.88 70.6703 119.88H65.5783V142.556Z" fill="#E5E5E5"/>
<path d="M107.721 143.809C107.721 144.514 107.134 145.062 106.468 145.062H90.0577C89.3527 145.062 88.8047 144.514 88.8047 143.809V118.666C88.8047 117.961 89.3527 117.413 90.0577 117.413H106.468C107.134 117.413 107.721 117.961 107.721 118.666C107.721 119.332 107.134 119.88 106.468 119.88H91.3107V129.397H102.238C102.904 129.397 103.492 129.945 103.492 130.611C103.492 131.316 102.905 131.864 102.238 131.864H91.3107V142.556H106.468C107.134 142.556 107.721 143.143 107.721 143.809Z" fill="#E5E5E5"/>
<path d="M131.496 127.478C131.496 133 127.031 137.465 121.548 137.465H116.183V142.752C116.183 144.044 115.165 145.063 113.912 145.063C112.659 145.063 111.641 144.045 111.641 142.752V119.802C111.641 118.549 112.659 117.53 113.912 117.53H121.549C127.031 117.53 131.496 121.995 131.496 127.478ZM126.953 127.478C126.953 124.501 124.525 122.112 121.548 122.112H116.183V132.882H121.548C124.524 132.882 126.953 130.493 126.953 127.478Z" fill="#E5E5E5"/>
<path d="M148.377 145.063C140.779 145.063 134.63 138.914 134.63 131.316C134.63 123.757 140.779 117.569 148.377 117.569C155.936 117.569 162.124 123.757 162.124 131.316C162.124 138.914 155.936 145.063 148.377 145.063ZM148.377 122.112C143.286 122.112 139.173 126.264 139.173 131.316C139.173 136.407 143.285 140.52 148.377 140.52C153.429 140.52 157.581 136.408 157.581 131.316C157.581 126.264 153.429 122.112 148.377 122.112Z" fill="#E5E5E5"/>
<path d="M174.227 145.063C170.781 145.063 168.705 143.614 167.53 142.439C166.081 140.912 165.259 138.875 165.259 136.799C165.259 135.546 166.277 134.528 167.53 134.528C168.783 134.528 169.801 135.546 169.801 136.799C169.801 138.17 170.741 140.52 174.227 140.52C177.713 140.52 178.653 138.17 178.653 136.799C178.653 134.723 177.517 134.096 173.679 133C171.955 132.491 170.193 131.982 168.744 130.964C166.786 129.632 165.807 127.752 165.807 125.324C165.807 123.366 166.59 121.447 167.922 120.037C169.018 118.901 171.016 117.57 174.227 117.57C177.478 117.57 179.436 118.901 180.532 120.037C181.903 121.447 182.686 123.366 182.686 125.324C182.686 126.577 181.668 127.595 180.376 127.595C179.123 127.595 178.105 126.577 178.105 125.324C178.105 124.149 177.283 122.112 174.228 122.112C171.173 122.112 170.351 124.148 170.351 125.324C170.351 126.851 170.939 127.439 174.933 128.614C176.734 129.123 178.614 129.671 180.142 130.768C182.179 132.178 183.197 134.215 183.197 136.8C183.197 138.875 182.375 140.912 180.926 142.44C179.788 143.613 177.673 145.063 174.227 145.063Z" fill="#E5E5E5"/>
<path d="M206.343 119.841C206.343 121.094 205.325 122.112 204.071 122.112H197.844V142.791C197.844 144.044 196.826 145.062 195.534 145.062C194.281 145.062 193.263 144.044 193.263 142.791V122.112H187.036C185.783 122.112 184.764 121.094 184.764 119.841C184.764 118.588 185.782 117.57 187.036 117.57H204.072C205.324 117.569 206.343 118.588 206.343 119.841Z" fill="#E5E5E5"/>
</svg>
