<svg width="215" height="54" viewBox="0 0 215 54" fill="none" xmlns="http://www.w3.org/2000/svg">
<path d="M68.7412 35.756C68.7412 35.632 68.7762 35.527 68.8452 35.439C68.9142 35.352 69.0132 35.308 69.1412 35.308C69.2692 35.308 69.3682 35.352 69.4402 35.439C69.5112 35.526 69.5472 35.632 69.5472 35.756C69.5472 35.88 69.5112 35.985 69.4402 36.07C69.3692 36.156 69.2692 36.198 69.1412 36.198C69.0132 36.198 68.9142 36.155 68.8452 36.07C68.7762 35.984 68.7412 35.879 68.7412 35.756ZM69.4432 43.372H68.8292V37.46H69.4432V43.372Z" fill="#4F4F4F"/>
<path d="M72.3242 37.46L72.3401 38.4C72.5151 38.08 72.7391 37.824 73.0121 37.635C73.2841 37.446 73.5942 37.351 73.9412 37.351C74.1892 37.351 74.4122 37.391 74.6072 37.471C74.8022 37.551 74.9691 37.679 75.1061 37.853C75.2431 38.028 75.3481 38.253 75.4211 38.528C75.4941 38.803 75.5312 39.135 75.5312 39.525V43.371H74.9282V39.519C74.9282 39.217 74.9022 38.964 74.8492 38.76C74.7962 38.556 74.7201 38.393 74.6221 38.271C74.5231 38.149 74.4042 38.062 74.2632 38.009C74.1222 37.956 73.9642 37.93 73.7892 37.93C73.6062 37.93 73.4392 37.967 73.2872 38.042C73.1352 38.117 72.9992 38.216 72.8792 38.34C72.7582 38.464 72.6541 38.606 72.5671 38.766C72.4791 38.926 72.4081 39.094 72.3531 39.269V43.372H71.7441V37.46H72.3242V37.46Z" fill="#4F4F4F"/>
<path d="M77.5469 40.143C77.5469 39.648 77.5919 39.224 77.6809 38.873C77.7709 38.522 77.8989 38.233 78.0679 38.007C78.2359 37.781 78.4399 37.615 78.6789 37.51C78.9179 37.404 79.1859 37.352 79.4819 37.352C79.8359 37.352 80.1369 37.431 80.3839 37.59C80.6309 37.748 80.8329 37.97 80.9899 38.254V34.981H81.5979V43.373H81.0279L81.0009 42.613C80.8439 42.886 80.6399 43.099 80.3899 43.252C80.1399 43.405 79.8349 43.481 79.4769 43.481C79.1809 43.481 78.9139 43.425 78.6759 43.314C78.4379 43.203 78.2359 43.033 78.0699 42.803C77.9039 42.574 77.7749 42.284 77.6829 41.934C77.5919 41.584 77.5459 41.171 77.5459 40.694V40.143H77.5469ZM78.1669 40.695C78.1669 41.453 78.2809 42.01 78.5099 42.367C78.7389 42.724 79.1009 42.902 79.5979 42.902C79.7769 42.902 79.9389 42.879 80.0829 42.834C80.2269 42.788 80.3569 42.725 80.4719 42.643C80.5869 42.561 80.6869 42.465 80.7709 42.353C80.8549 42.242 80.9279 42.121 80.9899 41.99V38.925C80.9349 38.794 80.8669 38.668 80.7869 38.548C80.7069 38.428 80.6109 38.323 80.4989 38.234C80.3879 38.145 80.2579 38.073 80.1099 38.018C79.9619 37.963 79.7929 37.936 79.6029 37.936C79.1019 37.936 78.7379 38.115 78.5089 38.474C78.2799 38.833 78.1659 39.389 78.1659 40.143V40.695H78.1669Z" fill="#4F4F4F"/>
<path d="M85.8182 43.481C85.4892 43.481 85.1881 43.427 84.9131 43.32C84.6391 43.213 84.4022 43.049 84.2032 42.828C84.0042 42.608 83.8492 42.33 83.7402 41.995C83.6302 41.66 83.5762 41.263 83.5762 40.804V40.132C83.5762 39.637 83.6342 39.213 83.7512 38.862C83.8682 38.51 84.0242 38.223 84.2202 37.999C84.4152 37.775 84.6421 37.611 84.9001 37.507C85.1581 37.403 85.4292 37.351 85.7142 37.351C86.3652 37.351 86.8591 37.565 87.1971 37.993C87.5351 38.421 87.7042 39.076 87.7042 39.957V40.471H84.1791V40.804C84.1791 41.165 84.2192 41.478 84.3002 41.744C84.3802 42.01 84.4941 42.23 84.6401 42.405C84.7861 42.58 84.9621 42.71 85.1661 42.796C85.3711 42.882 85.5971 42.924 85.8461 42.924C86.1531 42.924 86.4202 42.872 86.6462 42.768C86.8732 42.664 87.0792 42.503 87.2662 42.284L87.5842 42.688C87.5042 42.797 87.4092 42.899 87.3022 42.994C87.1942 43.089 87.0681 43.172 86.9241 43.245C86.7801 43.318 86.6161 43.375 86.4341 43.417C86.2501 43.46 86.0452 43.481 85.8182 43.481ZM85.7142 37.919C85.4982 37.919 85.3001 37.955 85.1191 38.028C84.9381 38.101 84.7811 38.217 84.6481 38.375C84.5141 38.533 84.4081 38.738 84.3271 38.99C84.2471 39.241 84.1991 39.546 84.1841 39.902H87.0952V39.744C87.0882 39.456 87.0552 39.2 86.9962 38.974C86.9382 38.748 86.8521 38.557 86.7411 38.4C86.6301 38.243 86.4882 38.124 86.3162 38.042C86.1462 37.96 85.9452 37.919 85.7142 37.919Z" fill="#4F4F4F"/>
<path d="M93.6622 40.695C93.6622 41.172 93.6191 41.586 93.5331 41.935C93.4471 42.285 93.3241 42.574 93.1631 42.804C93.0021 43.033 92.8032 43.204 92.5662 43.315C92.3282 43.426 92.0601 43.482 91.7601 43.482C91.4021 43.482 91.0962 43.41 90.8422 43.266C90.5882 43.122 90.3812 42.921 90.2202 42.662V45.645H89.6172V37.46H90.1761L90.2042 38.269C90.3692 37.981 90.5772 37.756 90.8292 37.594C91.0812 37.432 91.3862 37.351 91.7452 37.351C92.0522 37.351 92.3241 37.404 92.5621 37.509C92.8001 37.615 93.0012 37.78 93.1652 38.006C93.3292 38.232 93.4541 38.521 93.5381 38.872C93.6221 39.224 93.6642 39.647 93.6642 40.142V40.695H93.6622ZM93.0532 40.143C93.0532 39.385 92.9351 38.828 92.7001 38.471C92.4641 38.114 92.0962 37.936 91.5952 37.936C91.4082 37.936 91.2411 37.962 91.0931 38.015C90.9451 38.068 90.8152 38.14 90.7042 38.231C90.5932 38.322 90.4982 38.426 90.4192 38.542C90.3402 38.659 90.2742 38.782 90.2192 38.914V42.028C90.2772 42.156 90.3502 42.274 90.4362 42.383C90.5222 42.492 90.6222 42.587 90.7352 42.667C90.8492 42.747 90.9771 42.809 91.1221 42.853C91.2671 42.897 91.4282 42.919 91.6072 42.919C92.1002 42.919 92.4652 42.738 92.7012 42.375C92.9372 42.013 93.0541 41.453 93.0541 40.695V40.143H93.0532Z" fill="#4F4F4F"/>
<path d="M97.6512 43.481C97.3222 43.481 97.0212 43.427 96.7462 43.32C96.4722 43.213 96.2351 43.049 96.0361 42.828C95.8371 42.608 95.6822 42.33 95.5732 41.995C95.4632 41.66 95.4092 41.263 95.4092 40.804V40.132C95.4092 39.637 95.4672 39.213 95.5842 38.862C95.7012 38.51 95.8572 38.223 96.0532 37.999C96.2482 37.775 96.4752 37.611 96.7332 37.507C96.9912 37.403 97.2622 37.351 97.5472 37.351C98.1982 37.351 98.6922 37.565 99.0302 37.993C99.3682 38.421 99.5372 39.076 99.5372 39.957V40.471H96.0121V40.804C96.0121 41.165 96.0522 41.478 96.1332 41.744C96.2132 42.01 96.3271 42.23 96.4731 42.405C96.6191 42.58 96.7951 42.71 96.9991 42.796C97.2041 42.882 97.4301 42.924 97.6791 42.924C97.9861 42.924 98.2532 42.872 98.4792 42.768C98.7062 42.664 98.9122 42.503 99.0992 42.284L99.4172 42.688C99.3372 42.797 99.2421 42.899 99.1351 42.994C99.0271 43.089 98.9011 43.172 98.7571 43.245C98.6131 43.318 98.4492 43.375 98.2672 43.417C98.0832 43.46 97.8782 43.481 97.6512 43.481ZM97.5472 37.919C97.3312 37.919 97.1331 37.955 96.9521 38.028C96.7711 38.101 96.6141 38.217 96.4811 38.375C96.3471 38.533 96.2412 38.738 96.1602 38.99C96.0802 39.241 96.0322 39.546 96.0172 39.902H98.9282V39.744C98.9212 39.456 98.8882 39.2 98.8292 38.974C98.7712 38.748 98.6852 38.557 98.5742 38.4C98.4632 38.243 98.3212 38.124 98.1492 38.042C97.9782 37.96 97.7772 37.919 97.5472 37.919Z" fill="#4F4F4F"/>
<path d="M102.03 37.46L102.046 38.4C102.221 38.08 102.445 37.824 102.718 37.635C102.99 37.446 103.3 37.351 103.647 37.351C103.896 37.351 104.118 37.391 104.313 37.471C104.508 37.551 104.675 37.679 104.812 37.853C104.949 38.027 105.054 38.253 105.127 38.528C105.2 38.803 105.237 39.135 105.237 39.525V43.371H104.634V39.519C104.634 39.217 104.608 38.964 104.555 38.76C104.502 38.556 104.426 38.393 104.327 38.271C104.228 38.149 104.109 38.062 103.968 38.009C103.827 37.956 103.669 37.93 103.494 37.93C103.311 37.93 103.144 37.967 102.992 38.042C102.84 38.117 102.704 38.216 102.584 38.34C102.463 38.464 102.359 38.606 102.271 38.766C102.183 38.926 102.112 39.094 102.057 39.269V43.372H101.448V37.46H102.03V37.46Z" fill="#4F4F4F"/>
<path d="M107.253 40.143C107.253 39.648 107.298 39.224 107.387 38.873C107.477 38.522 107.605 38.233 107.774 38.007C107.942 37.781 108.146 37.615 108.385 37.51C108.624 37.404 108.892 37.352 109.188 37.352C109.542 37.352 109.843 37.431 110.09 37.59C110.337 37.748 110.539 37.97 110.696 38.254V34.981H111.305V43.373H110.735L110.708 42.614C110.551 42.887 110.347 43.1 110.097 43.253C109.847 43.406 109.542 43.482 109.184 43.482C108.888 43.482 108.621 43.426 108.383 43.315C108.145 43.204 107.943 43.034 107.777 42.804C107.611 42.575 107.482 42.285 107.39 41.935C107.299 41.585 107.253 41.172 107.253 40.695V40.143ZM107.872 40.695C107.872 41.453 107.986 42.01 108.215 42.367C108.443 42.724 108.806 42.902 109.303 42.902C109.482 42.902 109.644 42.879 109.788 42.834C109.933 42.788 110.062 42.725 110.177 42.643C110.292 42.561 110.392 42.465 110.476 42.353C110.56 42.242 110.633 42.121 110.695 41.99V38.925C110.64 38.794 110.572 38.668 110.492 38.548C110.412 38.428 110.316 38.323 110.204 38.234C110.092 38.145 109.963 38.073 109.815 38.018C109.667 37.963 109.498 37.936 109.308 37.936C108.807 37.936 108.443 38.115 108.214 38.474C107.985 38.833 107.871 39.389 107.871 40.143V40.695H107.872Z" fill="#4F4F4F"/>
<path d="M115.524 43.481C115.195 43.481 114.894 43.427 114.619 43.32C114.345 43.213 114.108 43.049 113.909 42.828C113.71 42.608 113.555 42.33 113.445 41.995C113.335 41.66 113.281 41.263 113.281 40.804V40.132C113.281 39.637 113.339 39.213 113.456 38.862C113.573 38.51 113.729 38.223 113.925 37.999C114.12 37.775 114.347 37.611 114.605 37.507C114.863 37.403 115.134 37.351 115.419 37.351C116.069 37.351 116.564 37.565 116.902 37.993C117.24 38.421 117.409 39.076 117.409 39.957V40.471H113.884V40.804C113.884 41.165 113.924 41.478 114.005 41.744C114.085 42.01 114.199 42.23 114.345 42.405C114.491 42.58 114.667 42.71 114.871 42.796C115.076 42.882 115.302 42.924 115.551 42.924C115.858 42.924 116.125 42.872 116.351 42.768C116.578 42.664 116.784 42.503 116.971 42.284L117.289 42.688C117.208 42.797 117.114 42.899 117.007 42.994C116.899 43.089 116.773 43.172 116.629 43.245C116.485 43.318 116.321 43.375 116.138 43.417C115.955 43.46 115.751 43.481 115.524 43.481ZM115.42 37.919C115.204 37.919 115.006 37.955 114.825 38.028C114.644 38.101 114.487 38.217 114.354 38.375C114.221 38.533 114.114 38.738 114.033 38.99C113.952 39.242 113.905 39.546 113.89 39.902H116.801V39.744C116.793 39.456 116.761 39.2 116.702 38.974C116.644 38.748 116.558 38.557 116.447 38.4C116.336 38.243 116.194 38.124 116.022 38.042C115.851 37.96 115.65 37.919 115.42 37.919Z" fill="#4F4F4F"/>
<path d="M119.902 37.46L119.919 38.4C120.094 38.08 120.318 37.824 120.591 37.635C120.863 37.446 121.173 37.351 121.52 37.351C121.769 37.351 121.991 37.391 122.186 37.471C122.381 37.551 122.548 37.679 122.685 37.853C122.822 38.028 122.927 38.253 123 38.528C123.073 38.803 123.11 39.135 123.11 39.525V43.371H122.507V39.519C122.507 39.217 122.481 38.964 122.428 38.76C122.375 38.556 122.299 38.393 122.201 38.271C122.102 38.149 121.983 38.062 121.842 38.009C121.701 37.956 121.543 37.93 121.368 37.93C121.185 37.93 121.018 37.967 120.866 38.042C120.714 38.117 120.578 38.216 120.458 38.34C120.338 38.464 120.233 38.606 120.146 38.766C120.058 38.926 119.987 39.094 119.932 39.269V43.372H119.323V37.46H119.902V37.46Z" fill="#4F4F4F"/>
<path d="M126.26 35.952V37.46H127.274V38.006H126.26V41.934C126.26 42.138 126.277 42.303 126.312 42.428C126.347 42.554 126.393 42.651 126.452 42.72C126.51 42.789 126.577 42.836 126.652 42.859C126.727 42.883 126.806 42.895 126.89 42.895C126.971 42.895 127.049 42.889 127.126 42.876C127.203 42.863 127.27 42.851 127.329 42.841L127.345 43.387C127.279 43.416 127.192 43.439 127.085 43.455C126.978 43.471 126.865 43.48 126.748 43.48C126.591 43.48 126.446 43.455 126.312 43.404C126.179 43.353 126.062 43.267 125.964 43.147C125.865 43.027 125.788 42.867 125.734 42.669C125.679 42.471 125.652 42.224 125.652 41.929V38.006H124.736V37.46H125.652V35.952H126.26V35.952Z" fill="#4F4F4F"/>
<path d="M134.233 42.919C134.401 42.919 134.564 42.897 134.721 42.853C134.878 42.809 135.018 42.735 135.141 42.629C135.263 42.523 135.364 42.382 135.442 42.206C135.521 42.029 135.565 41.808 135.576 41.542H136.163C136.148 41.859 136.088 42.139 135.982 42.381C135.876 42.623 135.735 42.825 135.56 42.988C135.385 43.15 135.184 43.273 134.957 43.357C134.73 43.441 134.489 43.483 134.233 43.483C133.52 43.483 132.984 43.254 132.624 42.795C132.264 42.336 132.084 41.655 132.084 40.752V40.085C132.084 39.182 132.264 38.5 132.624 38.042C132.984 37.583 133.519 37.354 134.228 37.354C134.499 37.354 134.75 37.397 134.982 37.482C135.214 37.568 135.415 37.697 135.585 37.87C135.755 38.043 135.891 38.262 135.993 38.526C136.095 38.79 136.152 39.101 136.163 39.458H135.576C135.565 39.185 135.523 38.951 135.45 38.756C135.377 38.561 135.281 38.402 135.162 38.278C135.043 38.154 134.904 38.064 134.745 38.008C134.586 37.952 134.413 37.923 134.227 37.923C133.946 37.923 133.708 37.971 133.514 38.068C133.32 38.165 133.163 38.306 133.043 38.491C132.922 38.677 132.835 38.904 132.78 39.171C132.725 39.439 132.698 39.744 132.698 40.086V40.753C132.698 41.099 132.724 41.407 132.777 41.676C132.83 41.946 132.917 42.172 133.037 42.356C133.158 42.54 133.316 42.68 133.511 42.777C133.708 42.87 133.948 42.919 134.233 42.919Z" fill="#4F4F4F"/>
<path d="M140.394 38.029C140.332 38.018 140.271 38.009 140.21 38.002C140.15 37.995 140.083 37.991 140.01 37.991C139.831 37.991 139.669 38.023 139.525 38.087C139.381 38.151 139.254 38.24 139.144 38.355C139.034 38.47 138.94 38.607 138.862 38.768C138.783 38.928 138.722 39.103 138.678 39.293V43.374H138.069V37.462H138.667L138.678 38.347C138.813 38.037 138.992 37.794 139.215 37.618C139.438 37.441 139.712 37.353 140.037 37.353C140.103 37.353 140.172 37.36 140.245 37.375C140.318 37.39 140.371 37.406 140.404 37.424L140.394 38.029Z" fill="#4F4F4F"/>
<path d="M143.933 43.481C143.604 43.481 143.303 43.427 143.028 43.32C142.754 43.213 142.517 43.049 142.318 42.828C142.119 42.608 141.964 42.33 141.855 41.995C141.745 41.66 141.691 41.263 141.691 40.804V40.132C141.691 39.637 141.749 39.213 141.866 38.862C141.983 38.51 142.139 38.223 142.335 37.999C142.531 37.775 142.757 37.611 143.015 37.507C143.273 37.403 143.544 37.351 143.829 37.351C144.479 37.351 144.974 37.565 145.312 37.993C145.65 38.421 145.819 39.076 145.819 39.957V40.471H142.294V40.804C142.294 41.165 142.334 41.478 142.414 41.744C142.494 42.01 142.608 42.23 142.754 42.405C142.9 42.58 143.076 42.71 143.28 42.796C143.485 42.882 143.711 42.924 143.96 42.924C144.267 42.924 144.534 42.872 144.76 42.768C144.986 42.664 145.193 42.503 145.38 42.284L145.698 42.688C145.618 42.797 145.524 42.899 145.416 42.994C145.308 43.089 145.182 43.172 145.038 43.245C144.893 43.318 144.73 43.375 144.547 43.417C144.365 43.46 144.16 43.481 143.933 43.481ZM143.829 37.919C143.613 37.919 143.415 37.955 143.234 38.028C143.053 38.101 142.896 38.217 142.762 38.375C142.629 38.533 142.522 38.738 142.441 38.99C142.36 39.241 142.313 39.546 142.298 39.902H145.209V39.744C145.202 39.456 145.169 39.2 145.11 38.974C145.051 38.748 144.966 38.557 144.855 38.4C144.743 38.243 144.602 38.124 144.43 38.042C144.26 37.96 144.059 37.919 143.829 37.919Z" fill="#4F4F4F"/>
<path d="M150.867 43.372C150.838 43.274 150.814 43.151 150.796 43.003C150.778 42.856 150.765 42.705 150.758 42.552C150.681 42.676 150.59 42.793 150.484 42.904C150.378 43.015 150.257 43.114 150.119 43.199C149.982 43.285 149.829 43.353 149.661 43.404C149.493 43.455 149.312 43.48 149.118 43.48C148.873 43.48 148.651 43.445 148.452 43.376C148.253 43.307 148.082 43.203 147.939 43.065C147.796 42.927 147.687 42.754 147.61 42.546C147.533 42.338 147.495 42.096 147.495 41.819C147.495 41.546 147.542 41.294 147.638 41.062C147.733 40.831 147.875 40.631 148.063 40.464C148.251 40.296 148.486 40.165 148.767 40.071C149.048 39.976 149.376 39.929 149.748 39.929H150.751V39.104C150.751 38.681 150.646 38.378 150.436 38.194C150.226 38.01 149.918 37.918 149.512 37.918C149.322 37.918 149.147 37.947 148.988 38.005C148.829 38.063 148.693 38.144 148.579 38.248C148.466 38.352 148.378 38.476 148.316 38.62C148.254 38.764 148.223 38.921 148.223 39.093L147.614 39.088C147.614 38.859 147.66 38.639 147.751 38.43C147.842 38.221 147.972 38.036 148.14 37.875C148.308 37.715 148.511 37.587 148.749 37.493C148.987 37.398 149.25 37.351 149.538 37.351C149.805 37.351 150.049 37.383 150.27 37.447C150.491 37.511 150.682 37.613 150.843 37.753C151.004 37.893 151.129 38.075 151.219 38.299C151.309 38.523 151.353 38.795 151.353 39.116V42.132C151.353 42.234 151.357 42.34 151.364 42.449C151.371 42.558 151.381 42.665 151.394 42.769C151.407 42.873 151.423 42.971 151.443 43.064C151.463 43.157 151.486 43.238 151.511 43.307V43.373H150.867V43.372ZM149.195 42.897C149.385 42.897 149.563 42.871 149.73 42.818C149.896 42.765 150.045 42.692 150.177 42.599C150.309 42.506 150.423 42.398 150.52 42.274C150.617 42.15 150.694 42.017 150.753 41.875V40.438H149.837C149.263 40.438 148.832 40.558 148.543 40.799C148.254 41.039 148.11 41.364 148.11 41.772C148.11 42.162 148.206 42.447 148.398 42.627C148.589 42.807 148.855 42.897 149.195 42.897Z" fill="#4F4F4F"/>
<path d="M154.549 35.952V37.46H155.563V38.006H154.549V41.934C154.549 42.138 154.566 42.303 154.601 42.428C154.636 42.554 154.682 42.651 154.741 42.72C154.799 42.789 154.866 42.836 154.941 42.859C155.016 42.883 155.095 42.895 155.179 42.895C155.26 42.895 155.338 42.889 155.415 42.876C155.492 42.863 155.559 42.851 155.618 42.841L155.634 43.387C155.568 43.416 155.481 43.439 155.374 43.455C155.266 43.471 155.154 43.48 155.037 43.48C154.88 43.48 154.735 43.455 154.601 43.404C154.468 43.353 154.351 43.267 154.253 43.147C154.154 43.027 154.078 42.867 154.023 42.669C153.968 42.471 153.941 42.224 153.941 41.929V38.006H153.025V37.46H153.941V35.952H154.549V35.952Z" fill="#4F4F4F"/>
<path d="M157.486 35.756C157.486 35.632 157.521 35.527 157.59 35.439C157.659 35.352 157.758 35.308 157.886 35.308C158.014 35.308 158.114 35.352 158.185 35.439C158.256 35.526 158.292 35.632 158.292 35.756C158.292 35.88 158.256 35.985 158.185 36.07C158.114 36.156 158.014 36.198 157.886 36.198C157.758 36.198 157.659 36.155 157.59 36.07C157.52 35.984 157.486 35.879 157.486 35.756ZM158.188 43.372H157.574V37.46H158.188V43.372Z" fill="#4F4F4F"/>
<path d="M162.062 42.421L163.52 37.46H164.145L162.297 43.372H161.815L159.956 37.46H160.581L162.062 42.421Z" fill="#4F4F4F"/>
<path d="M167.757 43.481C167.428 43.481 167.127 43.427 166.852 43.32C166.578 43.213 166.341 43.049 166.142 42.828C165.943 42.608 165.788 42.33 165.679 41.995C165.569 41.66 165.515 41.263 165.515 40.804V40.132C165.515 39.637 165.573 39.213 165.69 38.862C165.807 38.51 165.963 38.223 166.159 37.999C166.355 37.775 166.581 37.611 166.839 37.507C167.097 37.403 167.368 37.351 167.653 37.351C168.303 37.351 168.798 37.565 169.136 37.993C169.474 38.421 169.643 39.076 169.643 39.957V40.471H166.118V40.804C166.118 41.165 166.158 41.478 166.238 41.744C166.318 42.01 166.432 42.23 166.578 42.405C166.724 42.58 166.9 42.71 167.104 42.796C167.309 42.882 167.535 42.924 167.784 42.924C168.091 42.924 168.358 42.872 168.584 42.768C168.81 42.664 169.017 42.503 169.204 42.284L169.522 42.688C169.442 42.797 169.348 42.899 169.24 42.994C169.132 43.089 169.006 43.172 168.862 43.245C168.717 43.318 168.554 43.375 168.371 43.417C168.188 43.46 167.984 43.481 167.757 43.481ZM167.653 37.919C167.437 37.919 167.239 37.955 167.058 38.028C166.877 38.101 166.72 38.217 166.587 38.375C166.454 38.533 166.347 38.738 166.266 38.99C166.185 39.241 166.138 39.546 166.123 39.902H169.034V39.744C169.027 39.456 168.994 39.2 168.935 38.974C168.876 38.748 168.791 38.557 168.68 38.4C168.568 38.243 168.427 38.124 168.255 38.042C168.084 37.96 167.883 37.919 167.653 37.919Z" fill="#4F4F4F"/>
<path d="M178.739 40.695C178.739 41.172 178.696 41.586 178.61 41.935C178.524 42.285 178.401 42.574 178.24 42.804C178.079 43.033 177.88 43.204 177.642 43.315C177.404 43.426 177.136 43.482 176.836 43.482C176.478 43.482 176.172 43.41 175.918 43.266C175.664 43.122 175.457 42.921 175.296 42.662V45.645H174.693V37.46H175.252L175.279 38.269C175.444 37.981 175.652 37.756 175.904 37.594C176.156 37.432 176.461 37.351 176.82 37.351C177.127 37.351 177.399 37.404 177.637 37.509C177.875 37.615 178.076 37.78 178.24 38.006C178.404 38.232 178.529 38.521 178.613 38.872C178.697 39.224 178.739 39.647 178.739 40.142V40.695V40.695ZM178.13 40.143C178.13 39.385 178.012 38.828 177.776 38.471C177.54 38.114 177.172 37.936 176.671 37.936C176.485 37.936 176.317 37.962 176.169 38.015C176.021 38.068 175.891 38.14 175.78 38.231C175.668 38.322 175.573 38.426 175.495 38.542C175.416 38.659 175.35 38.782 175.295 38.914V42.028C175.353 42.156 175.426 42.274 175.511 42.383C175.597 42.492 175.696 42.587 175.81 42.667C175.923 42.747 176.052 42.809 176.197 42.853C176.341 42.897 176.503 42.919 176.682 42.919C177.175 42.919 177.54 42.738 177.776 42.375C178.012 42.013 178.13 41.453 178.13 40.695V40.143Z" fill="#4F4F4F"/>
<path d="M183.907 43.372C183.878 43.274 183.854 43.151 183.836 43.003C183.818 42.856 183.805 42.705 183.797 42.552C183.72 42.676 183.629 42.793 183.523 42.904C183.417 43.015 183.296 43.114 183.158 43.199C183.021 43.285 182.868 43.353 182.7 43.404C182.532 43.455 182.351 43.48 182.157 43.48C181.912 43.48 181.69 43.445 181.491 43.376C181.292 43.307 181.121 43.203 180.978 43.065C180.835 42.927 180.726 42.754 180.649 42.546C180.572 42.338 180.534 42.096 180.534 41.819C180.534 41.546 180.582 41.294 180.677 41.062C180.772 40.831 180.914 40.631 181.102 40.464C181.29 40.296 181.525 40.165 181.806 40.071C182.087 39.976 182.415 39.929 182.787 39.929H183.79V39.104C183.79 38.681 183.685 38.378 183.475 38.194C183.265 38.01 182.957 37.918 182.551 37.918C182.361 37.918 182.186 37.947 182.027 38.005C181.868 38.063 181.732 38.144 181.619 38.248C181.506 38.352 181.418 38.476 181.356 38.62C181.294 38.764 181.263 38.921 181.263 39.093L180.654 39.088C180.654 38.859 180.7 38.639 180.791 38.43C180.882 38.221 181.012 38.036 181.18 37.875C181.348 37.715 181.551 37.587 181.789 37.493C182.027 37.398 182.29 37.351 182.578 37.351C182.845 37.351 183.089 37.383 183.31 37.447C183.531 37.511 183.722 37.613 183.883 37.753C184.044 37.893 184.169 38.075 184.259 38.299C184.349 38.523 184.393 38.795 184.393 39.116V42.132C184.393 42.234 184.397 42.34 184.404 42.449C184.411 42.558 184.421 42.665 184.434 42.769C184.447 42.873 184.463 42.971 184.483 43.064C184.503 43.157 184.526 43.238 184.552 43.307V43.373H183.907V43.372ZM182.235 42.897C182.425 42.897 182.603 42.871 182.77 42.818C182.936 42.765 183.085 42.692 183.217 42.599C183.349 42.506 183.463 42.398 183.56 42.274C183.657 42.15 183.734 42.017 183.793 41.875V40.438H182.877C182.303 40.438 181.872 40.558 181.583 40.799C181.294 41.039 181.15 41.364 181.15 41.772C181.15 42.162 181.246 42.447 181.438 42.627C181.629 42.807 181.895 42.897 182.235 42.897Z" fill="#4F4F4F"/>
<path d="M188.998 38.029C188.936 38.018 188.875 38.009 188.814 38.002C188.754 37.995 188.687 37.991 188.614 37.991C188.435 37.991 188.273 38.023 188.129 38.087C187.985 38.151 187.858 38.24 187.748 38.355C187.638 38.47 187.544 38.607 187.465 38.768C187.386 38.928 187.325 39.103 187.281 39.293V43.374H186.672V37.462H187.27L187.281 38.347C187.416 38.037 187.595 37.794 187.818 37.618C188.041 37.441 188.315 37.353 188.64 37.353C188.706 37.353 188.775 37.36 188.848 37.375C188.921 37.39 188.974 37.406 189.007 37.424L188.998 38.029Z" fill="#4F4F4F"/>
<path d="M191.876 35.952V37.46H192.89V38.006H191.876V41.934C191.876 42.138 191.893 42.303 191.928 42.428C191.963 42.554 192.009 42.651 192.068 42.72C192.126 42.789 192.193 42.836 192.268 42.859C192.343 42.883 192.422 42.895 192.506 42.895C192.587 42.895 192.665 42.889 192.742 42.876C192.819 42.863 192.886 42.851 192.945 42.841L192.961 43.387C192.895 43.416 192.808 43.439 192.701 43.455C192.594 43.471 192.481 43.48 192.364 43.48C192.207 43.48 192.062 43.455 191.928 43.404C191.795 43.353 191.678 43.267 191.58 43.147C191.481 43.027 191.404 42.867 191.35 42.669C191.295 42.471 191.268 42.224 191.268 41.929V38.006H190.352V37.46H191.268V35.952H191.876V35.952Z" fill="#4F4F4F"/>
<path d="M195.414 37.46L195.431 38.4C195.606 38.08 195.83 37.824 196.103 37.635C196.375 37.446 196.685 37.351 197.032 37.351C197.281 37.351 197.503 37.391 197.698 37.471C197.893 37.551 198.06 37.679 198.197 37.853C198.334 38.028 198.439 38.253 198.512 38.528C198.585 38.803 198.622 39.135 198.622 39.525V43.371H198.019V39.519C198.019 39.217 197.993 38.964 197.94 38.76C197.887 38.556 197.811 38.393 197.713 38.271C197.614 38.149 197.495 38.062 197.354 38.009C197.213 37.956 197.055 37.93 196.88 37.93C196.697 37.93 196.53 37.967 196.378 38.042C196.226 38.117 196.09 38.216 195.97 38.34C195.85 38.464 195.745 38.606 195.658 38.766C195.57 38.926 195.499 39.094 195.444 39.269V43.372H194.835V37.46H195.414V37.46Z" fill="#4F4F4F"/>
<path d="M202.814 43.481C202.485 43.481 202.184 43.427 201.909 43.32C201.635 43.213 201.398 43.049 201.199 42.828C201 42.608 200.845 42.33 200.736 41.995C200.626 41.66 200.572 41.263 200.572 40.804V40.132C200.572 39.637 200.63 39.213 200.747 38.862C200.864 38.51 201.02 38.223 201.216 37.999C201.412 37.775 201.638 37.611 201.896 37.507C202.154 37.403 202.425 37.351 202.71 37.351C203.36 37.351 203.855 37.565 204.193 37.993C204.531 38.421 204.7 39.076 204.7 39.957V40.471H201.175V40.804C201.175 41.165 201.215 41.478 201.295 41.744C201.375 42.01 201.489 42.23 201.635 42.405C201.781 42.58 201.957 42.71 202.161 42.796C202.366 42.882 202.592 42.924 202.841 42.924C203.148 42.924 203.415 42.872 203.641 42.768C203.867 42.664 204.074 42.503 204.261 42.284L204.579 42.688C204.499 42.797 204.405 42.899 204.297 42.994C204.189 43.089 204.063 43.172 203.919 43.245C203.774 43.318 203.611 43.375 203.428 43.417C203.245 43.46 203.04 43.481 202.814 43.481ZM202.71 37.919C202.494 37.919 202.296 37.955 202.115 38.028C201.934 38.101 201.777 38.217 201.644 38.375C201.511 38.533 201.404 38.738 201.323 38.99C201.242 39.241 201.195 39.546 201.18 39.902H204.091V39.744C204.084 39.456 204.051 39.2 203.992 38.974C203.933 38.748 203.848 38.557 203.737 38.4C203.625 38.243 203.484 38.124 203.312 38.042C203.141 37.96 202.94 37.919 202.71 37.919Z" fill="#4F4F4F"/>
<path d="M208.936 38.029C208.874 38.018 208.813 38.009 208.752 38.002C208.692 37.995 208.625 37.991 208.552 37.991C208.373 37.991 208.211 38.023 208.067 38.087C207.923 38.151 207.796 38.24 207.686 38.355C207.576 38.47 207.482 38.607 207.404 38.768C207.325 38.928 207.264 39.103 207.22 39.293V43.374H206.611V37.462H207.209L207.22 38.347C207.355 38.037 207.534 37.794 207.757 37.618C207.98 37.441 208.254 37.353 208.579 37.353C208.645 37.353 208.714 37.36 208.787 37.375C208.86 37.39 208.913 37.406 208.946 37.424L208.936 38.029Z" fill="#4F4F4F"/>
<path d="M213.588 41.919C213.588 41.799 213.565 41.686 213.519 41.58C213.473 41.474 213.398 41.372 213.294 41.274C213.19 41.176 213.053 41.076 212.883 40.974C212.713 40.872 212.502 40.763 212.25 40.646C211.979 40.526 211.738 40.41 211.526 40.299C211.314 40.188 211.136 40.068 210.991 39.938C210.847 39.809 210.736 39.663 210.659 39.501C210.582 39.339 210.544 39.147 210.544 38.925C210.544 38.706 210.585 38.502 210.667 38.31C210.749 38.119 210.867 37.952 211.021 37.81C211.175 37.668 211.361 37.556 211.58 37.474C211.799 37.392 212.044 37.351 212.315 37.351C212.604 37.351 212.863 37.394 213.093 37.479C213.323 37.565 213.518 37.684 213.677 37.837C213.836 37.99 213.957 38.173 214.042 38.386C214.126 38.599 214.168 38.831 214.168 39.083H213.559C213.559 38.93 213.531 38.783 213.477 38.643C213.422 38.503 213.342 38.379 213.236 38.272C213.13 38.165 213 38.079 212.847 38.015C212.694 37.951 212.516 37.919 212.315 37.919C212.107 37.919 211.929 37.947 211.783 38.004C211.637 38.061 211.516 38.135 211.421 38.228C211.326 38.321 211.256 38.427 211.213 38.545C211.169 38.663 211.147 38.783 211.147 38.903C211.147 39.023 211.165 39.13 211.202 39.223C211.239 39.316 211.305 39.406 211.402 39.493C211.499 39.58 211.63 39.671 211.794 39.763C211.958 39.856 212.17 39.964 212.43 40.088C212.704 40.208 212.951 40.325 213.17 40.438C213.389 40.551 213.575 40.676 213.726 40.812C213.878 40.949 213.995 41.103 214.077 41.274C214.159 41.445 214.2 41.649 214.2 41.886C214.2 42.13 214.156 42.35 214.068 42.547C213.98 42.744 213.855 42.911 213.693 43.05C213.53 43.188 213.335 43.295 213.106 43.37C212.878 43.445 212.624 43.482 212.347 43.482C212.025 43.482 211.742 43.436 211.497 43.343C211.252 43.25 211.046 43.125 210.88 42.969C210.713 42.812 210.587 42.63 210.502 42.423C210.416 42.215 210.373 41.995 210.373 41.762H210.987C210.998 41.995 211.046 42.186 211.132 42.336C211.218 42.485 211.325 42.604 211.453 42.691C211.581 42.778 211.723 42.838 211.881 42.871C212.038 42.904 212.194 42.92 212.347 42.92C212.548 42.92 212.726 42.894 212.882 42.841C213.037 42.788 213.167 42.717 213.271 42.628C213.375 42.539 213.454 42.433 213.507 42.311C213.562 42.187 213.588 42.057 213.588 41.919Z" fill="#4F4F4F"/>
<path d="M78.0498 29.753C72.6458 29.753 68.2168 25.367 68.2168 19.953C68.2168 14.54 72.6458 10.153 78.0498 10.153C80.8908 10.153 83.5938 11.375 85.4598 13.484C85.7938 13.873 85.7388 14.428 85.3758 14.733C85.0138 15.066 84.4568 15.038 84.1218 14.65C82.5898 12.901 80.3888 11.902 78.0488 11.902C73.6198 11.902 69.9978 15.511 69.9978 19.953C69.9978 24.367 73.6188 27.976 78.0488 27.976C80.2778 27.976 82.3948 27.06 83.8988 25.477V21.535H78.7448C78.2438 21.535 77.8538 21.146 77.8538 20.647C77.8538 20.147 78.2438 19.759 78.7448 19.759H84.7898C85.2908 19.759 85.6808 20.148 85.6808 20.647V25.811C85.6808 26.033 85.5968 26.227 85.4578 26.394C83.5938 28.531 80.8918 29.753 78.0498 29.753Z" fill="#4F4F4F"/>
<path d="M96.9084 29.753C92.5624 29.753 89.0254 26.227 89.0254 21.869V11.042C89.0254 10.542 89.4153 10.154 89.8893 10.154C90.3903 10.154 90.7804 10.543 90.7804 11.042V21.869C90.7804 25.256 93.5384 27.976 96.9094 27.976C100.307 27.976 103.037 25.255 103.037 21.869V11.042C103.037 10.542 103.427 10.154 103.928 10.154C104.429 10.154 104.819 10.543 104.819 11.042V21.869C104.819 26.227 101.281 29.753 96.9084 29.753Z" fill="#4F4F4F"/>
<path d="M108.914 29.753C108.413 29.753 108.023 29.364 108.023 28.865V11.042C108.023 10.542 108.413 10.154 108.914 10.154C109.415 10.154 109.805 10.543 109.805 11.042V28.865C109.805 29.364 109.415 29.753 108.914 29.753Z" fill="#4F4F4F"/>
<path d="M118.413 29.753H113.901C113.4 29.753 113.01 29.364 113.01 28.865V11.042C113.01 10.542 113.4 10.154 113.901 10.154H118.414C123.846 10.154 128.247 14.54 128.247 19.954C128.247 25.367 123.845 29.753 118.413 29.753ZM114.792 27.976H118.413C122.87 27.976 126.491 24.367 126.491 19.953C126.491 15.511 122.87 11.902 118.413 11.902H114.792V27.976Z" fill="#4F4F4F"/>
<path d="M144.765 28.864C144.765 29.364 144.347 29.752 143.874 29.752H132.202C131.701 29.752 131.311 29.363 131.311 28.864V11.041C131.311 10.541 131.701 10.153 132.202 10.153H143.874C144.348 10.153 144.765 10.542 144.765 11.041C144.765 11.513 144.347 11.902 143.874 11.902H133.093V18.648H140.865C141.339 18.648 141.756 19.037 141.756 19.509C141.756 20.009 141.338 20.397 140.865 20.397H133.093V27.976H143.874C144.348 27.976 144.765 28.393 144.765 28.864Z" fill="#4F4F4F"/>
<path d="M161.674 17.288C161.674 21.202 158.498 24.367 154.598 24.367H150.782V28.115C150.782 29.031 150.058 29.753 149.166 29.753C148.274 29.753 147.55 29.031 147.55 28.115V11.847C147.55 10.959 148.274 10.237 149.166 10.237H154.598C158.498 10.237 161.674 13.401 161.674 17.288ZM158.443 17.288C158.443 15.178 156.716 13.485 154.599 13.485H150.783V21.119H154.599C156.716 21.119 158.443 19.426 158.443 17.288Z" fill="#4F4F4F"/>
<path d="M173.679 29.753C168.275 29.753 163.901 25.394 163.901 20.009C163.901 14.651 168.275 10.265 173.679 10.265C179.055 10.265 183.457 14.651 183.457 20.009C183.457 25.394 179.056 29.753 173.679 29.753ZM173.679 13.485C170.058 13.485 167.133 16.428 167.133 20.009C167.133 23.618 170.058 26.533 173.679 26.533C177.273 26.533 180.225 23.618 180.225 20.009C180.226 16.427 177.273 13.485 173.679 13.485Z" fill="#4F4F4F"/>
<path d="M192.065 29.753C189.614 29.753 188.137 28.726 187.301 27.893C186.27 26.81 185.685 25.367 185.685 23.895C185.685 23.007 186.409 22.285 187.301 22.285C188.193 22.285 188.917 23.007 188.917 23.895C188.917 24.867 189.586 26.532 192.065 26.532C194.544 26.532 195.213 24.866 195.213 23.895C195.213 22.424 194.405 21.979 191.675 21.202C190.449 20.841 189.196 20.48 188.165 19.758C186.772 18.814 186.076 17.482 186.076 15.76C186.076 14.372 186.633 13.012 187.58 12.012C188.36 11.207 189.781 10.263 192.065 10.263C194.377 10.263 195.77 11.207 196.55 12.012C197.525 13.011 198.082 14.372 198.082 15.76C198.082 16.648 197.358 17.37 196.438 17.37C195.547 17.37 194.822 16.648 194.822 15.76C194.822 14.927 194.237 13.484 192.064 13.484C189.891 13.484 189.306 14.928 189.306 15.76C189.306 16.843 189.724 17.259 192.565 18.092C193.846 18.453 195.184 18.842 196.27 19.619C197.719 20.618 198.443 22.062 198.443 23.894C198.443 25.365 197.858 26.809 196.827 27.892C196.021 28.726 194.516 29.753 192.065 29.753Z" fill="#4F4F4F"/>
<path d="M214.907 11.874C214.907 12.762 214.183 13.484 213.291 13.484H208.862V28.142C208.862 29.03 208.138 29.752 207.218 29.752C206.327 29.752 205.602 29.03 205.602 28.142V13.484H201.173C200.282 13.484 199.557 12.762 199.557 11.874C199.557 10.986 200.281 10.264 201.173 10.264H213.291C214.183 10.264 214.907 10.986 214.907 11.874Z" fill="#4F4F4F"/>
<path d="M26.7559 51.992C40.6569 51.992 51.9259 40.723 51.9259 26.822C51.9259 12.921 40.6569 1.65201 26.7559 1.65201C12.8549 1.65201 1.58594 12.921 1.58594 26.822C1.58594 40.723 12.8549 51.992 26.7559 51.992Z" fill="#E5E5E5"/>
<path d="M19.2197 22.081L24.3748 25.057V8.52399L19.2197 5.285V22.081Z" fill="#4FB0BB"/>
<path d="M42.8159 30.944L26.7559 40.072V47.3L37.2769 41.04V41.062L42.1478 38.236V38.201L44.9669 34.078L42.8159 30.944Z" fill="#1B708A"/>
<path d="M8.97461 25.973L12.2336 30.462L19.9626 34.912V51.065C21.3866 51.463 22.8606 51.738 24.3746 51.881V37.452V35.961V28.407L12.2336 21.451L8.97461 25.973Z" fill="#4FB0BB"/>
<path d="M26.7554 53.303C12.1544 53.303 0.274414 41.424 0.274414 26.822C0.274414 12.22 12.1534 0.341003 26.7554 0.341003C41.3574 0.341003 53.2365 12.22 53.2365 26.822C53.2365 27.509 53.2104 28.19 53.1584 28.865C52.1124 42.516 40.6694 53.303 26.7554 53.303ZM26.7554 2.96301C13.5994 2.96301 2.89642 13.666 2.89642 26.822C2.89642 39.978 13.5994 50.681 26.7554 50.681C39.9114 50.681 50.6154 39.978 50.6154 26.822C50.6154 13.667 39.9114 2.96301 26.7554 2.96301Z" fill="#1B708A"/>
<path d="M26.7555 51.961C27.1735 51.982 26.3325 51.992 26.7555 51.992C28.0795 51.992 29.3804 51.889 30.6494 51.692V47.014L26.7555 49.17V51.961Z" fill="#1B708A"/>
<g opacity="0.1">
<path opacity="0.1" d="M53.2213 27.488L33.9893 8.94501H26.7563V21.451V23.496V38.39L26.7363 53.303C26.7363 53.303 32.1883 53.552 38.0903 50.762C40.6943 49.531 43.5013 47.648 46.1113 44.85C53.6403 36.776 53.2213 27.488 53.2213 27.488Z" fill="#414042"/>
</g>
<path d="M33.9888 8.94501H26.7559V13.684L33.9888 13.461V8.94501Z" fill="#4FB0BB"/>
<path d="M56.1719 13.925L26.7559 16.054V37.619L30.6498 35.413V23.496L56.1719 25.652L60.3289 20.389L56.1719 13.925Z" fill="#D83830"/>
</svg>
