<svg width="105" height="43" viewBox="0 0 105 43" fill="none" xmlns="http://www.w3.org/2000/svg">
<path d="M65.7286 35.843C57.9196 35.843 51.5195 29.483 51.5195 21.634C51.5195 13.785 57.9196 7.42499 65.7286 7.42499C69.8346 7.42499 73.7385 9.196 76.4355 12.255C76.9185 12.819 76.8386 13.624 76.3146 14.066C75.7916 14.549 74.9865 14.509 74.5035 13.945C72.2895 11.409 69.1096 9.96002 65.7286 9.96002C59.3286 9.96002 54.0955 15.193 54.0955 21.633C54.0955 28.033 59.3286 33.266 65.7286 33.266C68.9486 33.266 72.0076 31.938 74.1816 29.643V23.927H66.7346C66.0106 23.927 65.4465 23.363 65.4465 22.639C65.4465 21.915 66.0106 21.351 66.7346 21.351H75.4695C76.1945 21.351 76.7576 21.915 76.7576 22.639V30.126C76.7576 30.448 76.6365 30.73 76.4355 30.971C73.7395 34.072 69.8346 35.843 65.7286 35.843Z" fill="#E5E5E5"/>
<path d="M104.371 17.77C104.371 23.446 99.7819 28.034 94.1469 28.034H88.6319V33.468C88.6319 34.796 87.5849 35.843 86.2969 35.843C85.0089 35.843 83.9619 34.796 83.9619 33.468V9.88C83.9619 8.592 85.0089 7.54498 86.2969 7.54498H94.1459C99.7829 7.54598 104.371 12.134 104.371 17.77ZM99.7019 17.77C99.7019 14.711 97.2059 12.255 94.1469 12.255H88.6319V23.324H94.1469C97.2069 23.325 99.7019 20.869 99.7019 17.77Z" fill="#E5E5E5"/>
<path d="M21.0006 41.709C31.991 41.709 40.9006 32.7995 40.9006 21.809C40.9006 10.8186 31.991 1.909 21.0006 1.909C10.0101 1.909 1.10059 10.8186 1.10059 21.809C1.10059 32.7995 10.0101 41.709 21.0006 41.709Z" fill="#E5E5E5"/>
<path d="M15.042 18.06L19.117 20.412V7.34198L15.042 4.78101V18.06Z" fill="#4FB0BB"/>
<path d="M33.697 25.067L21 32.283V37.998L29.318 33.049V33.066L33.168 30.832V30.805L35.398 27.545L33.697 25.067Z" fill="#1B708A"/>
<path d="M6.94238 21.137L9.51941 24.686L15.6304 28.204V40.974C16.7554 41.289 17.9214 41.506 19.1184 41.619V30.212V29.033V23.061L9.51941 17.562L6.94238 21.137Z" fill="#4FB0BB"/>
<path d="M21.0005 42.744C9.45646 42.744 0.0644531 33.352 0.0644531 21.808C0.0644531 10.264 9.45646 0.872009 21.0005 0.872009C32.5445 0.872009 41.9364 10.264 41.9364 21.808C41.9364 22.351 41.9155 22.89 41.8745 23.423C41.0475 34.216 32.0005 42.744 21.0005 42.744ZM21.0005 2.94501C10.5995 2.94501 2.13745 11.407 2.13745 21.808C2.13745 32.209 10.5995 40.671 21.0005 40.671C31.4015 40.671 39.8635 32.209 39.8635 21.808C39.8635 11.407 31.4015 2.94501 21.0005 2.94501Z" fill="#1B708A"/>
<path d="M21.0002 41.683C21.3302 41.699 20.6662 41.708 21.0002 41.708C22.0472 41.708 23.0752 41.627 24.0792 41.471V37.772L21.0002 39.477V41.683Z" fill="#1B708A"/>
<g opacity="0.1">
<path opacity="0.1" d="M41.9233 22.335L26.7184 7.67499H21.0004V17.562V19.179V30.954L20.9844 42.744C20.9844 42.744 25.2944 42.941 29.9604 40.735C32.0194 39.762 34.2384 38.273 36.3014 36.061C42.2554 29.678 41.9233 22.335 41.9233 22.335Z" fill="#414042"/>
</g>
<path d="M26.719 7.67499H21V11.421L26.719 11.245V7.67499Z" fill="#4FB0BB"/>
<path d="M44.256 11.612L21 13.295V30.344L24.078 28.601V19.178L44.256 20.883L47.543 16.722L44.256 11.612Z" fill="#D83830"/>
</svg>
