<svg width="214" height="52" viewBox="0 0 214 52" fill="none" xmlns="http://www.w3.org/2000/svg">
<path d="M1.45703 36.753C1.45703 36.573 1.50703 36.419 1.60803 36.292C1.70903 36.165 1.85196 36.101 2.03796 36.101C2.22296 36.101 2.36805 36.164 2.47205 36.292C2.57505 36.419 2.62695 36.573 2.62695 36.753C2.62695 36.933 2.57505 37.086 2.47205 37.211C2.36805 37.335 2.22396 37.398 2.03796 37.398C1.85196 37.398 1.70903 37.336 1.60803 37.211C1.50703 37.086 1.45703 36.933 1.45703 36.753ZM2.47498 47.844H1.58398V39.236H2.47498V47.844Z" fill="black"/>
<path d="M6.65735 39.235L6.6814 40.603C6.9364 40.136 7.26037 39.765 7.65637 39.489C8.05137 39.213 8.50137 39.075 9.00537 39.075C9.36637 39.075 9.68831 39.134 9.97131 39.25C10.2553 39.367 10.4963 39.552 10.6953 39.807C10.8933 40.062 11.0463 40.389 11.1523 40.789C11.2593 41.189 11.3124 41.674 11.3124 42.241V47.842H10.4374V42.233C10.4374 41.792 10.3984 41.424 10.3224 41.127C10.2454 40.83 10.1353 40.593 9.99231 40.415C9.84931 40.237 9.67531 40.11 9.47131 40.033C9.26731 39.956 9.03733 39.918 8.78333 39.918C8.51833 39.918 8.27542 39.972 8.05542 40.081C7.83542 40.189 7.6384 40.334 7.4624 40.514C7.2874 40.695 7.1364 40.901 7.0094 41.135C6.8824 41.368 6.77834 41.612 6.69934 41.867V47.842H5.81641V39.234H6.65735V39.235Z" fill="black"/>
<path d="M14.2363 43.142C14.2363 42.421 14.3014 41.804 14.4314 41.292C14.5614 40.78 14.7483 40.36 14.9923 40.031C15.2363 39.702 15.5314 39.461 15.8794 39.307C16.2264 39.153 16.6153 39.076 17.0443 39.076C17.5593 39.076 17.9944 39.191 18.3534 39.422C18.7114 39.652 19.0044 39.975 19.2324 40.388V35.623H20.1154V47.843H19.2874L19.2473 46.737C19.0193 47.135 18.7244 47.445 18.3604 47.668C17.9974 47.891 17.5554 48.003 17.0354 48.003C16.6064 48.003 16.2194 47.922 15.8744 47.76C15.5294 47.598 15.2364 47.35 14.9954 47.016C14.7544 46.682 14.5673 46.26 14.4343 45.751C14.3013 45.242 14.2344 44.64 14.2344 43.945V43.142H14.2363ZM15.1364 43.945C15.1364 45.048 15.3024 45.86 15.6334 46.38C15.9654 46.9 16.4914 47.16 17.2124 47.16C17.4724 47.16 17.7074 47.127 17.9164 47.06C18.1264 46.994 18.3143 46.901 18.4813 46.782C18.6483 46.663 18.7923 46.522 18.9143 46.36C19.0363 46.198 19.1434 46.022 19.2334 45.831V41.367C19.1544 41.176 19.0553 40.993 18.9393 40.818C18.8223 40.643 18.6834 40.49 18.5214 40.36C18.3594 40.23 18.1714 40.125 17.9564 40.046C17.7424 39.966 17.4963 39.926 17.2203 39.926C16.4943 39.926 15.9654 40.187 15.6334 40.71C15.3024 41.232 15.1364 42.043 15.1364 43.141V43.945V43.945Z" fill="black"/>
<path d="M26.2402 48.003C25.7632 48.003 25.3252 47.925 24.9272 47.768C24.5292 47.612 24.1862 47.373 23.8972 47.052C23.6082 46.731 23.3842 46.327 23.2252 45.839C23.0662 45.351 22.9873 44.773 22.9873 44.105V43.126C22.9873 42.405 23.0712 41.788 23.2422 41.276C23.4122 40.764 23.6382 40.345 23.9222 40.019C24.2062 39.693 24.5353 39.454 24.9093 39.303C25.2833 39.152 25.6772 39.076 26.0902 39.076C27.0342 39.076 27.7522 39.388 28.2422 40.011C28.7332 40.634 28.9783 41.588 28.9783 42.871V43.619H23.8633V44.104C23.8633 44.629 23.9222 45.085 24.0382 45.472C24.1552 45.859 24.3193 46.18 24.5312 46.435C24.7442 46.689 24.9983 46.879 25.2953 47.003C25.5923 47.128 25.9212 47.19 26.2822 47.19C26.7272 47.19 27.1152 47.114 27.4442 46.963C27.7722 46.812 28.0723 46.577 28.3433 46.259L28.8053 46.848C28.6883 47.007 28.5523 47.155 28.3953 47.293C28.2383 47.431 28.0562 47.553 27.8462 47.659C27.6362 47.765 27.3993 47.849 27.1343 47.91C26.8653 47.972 26.5682 48.003 26.2402 48.003ZM26.0892 39.904C25.7762 39.904 25.4892 39.957 25.2262 40.063C24.9642 40.169 24.7362 40.338 24.5422 40.568C24.3482 40.799 24.1933 41.097 24.0763 41.463C23.9603 41.829 23.8902 42.272 23.8702 42.792H28.0942V42.561C28.0832 42.142 28.0363 41.768 27.9513 41.439C27.8663 41.11 27.7433 40.832 27.5813 40.604C27.4193 40.376 27.2142 40.202 26.9652 40.083C26.7142 39.963 26.4232 39.904 26.0892 39.904Z" fill="black"/>
<path d="M37.6219 43.945C37.6219 44.64 37.5601 45.242 37.4351 45.751C37.3101 46.26 37.1309 46.682 36.8979 47.016C36.6639 47.35 36.376 47.598 36.031 47.76C35.686 47.922 35.296 48.003 34.861 48.003C34.341 48.003 33.897 47.898 33.528 47.689C33.159 47.479 32.858 47.186 32.625 46.81V51.154H31.75V39.236H32.562L32.6021 40.414C32.8401 39.995 33.143 39.667 33.509 39.431C33.875 39.195 34.318 39.077 34.838 39.077C35.283 39.077 35.679 39.154 36.024 39.308C36.369 39.461 36.66 39.703 36.899 40.032C37.138 40.361 37.3179 40.781 37.4399 41.293C37.5619 41.805 37.623 42.422 37.623 43.143V43.945H37.6219ZM36.739 43.142C36.739 42.039 36.568 41.227 36.226 40.707C35.884 40.187 35.35 39.927 34.623 39.927C34.352 39.927 34.11 39.966 33.895 40.043C33.68 40.119 33.492 40.225 33.33 40.357C33.168 40.49 33.03 40.641 32.916 40.81C32.802 40.98 32.705 41.16 32.626 41.351V45.886C32.711 46.071 32.8149 46.244 32.9399 46.403C33.0649 46.562 33.209 46.7 33.374 46.816C33.538 46.933 33.7251 47.023 33.9351 47.087C34.1441 47.15 34.38 47.182 34.639 47.182C35.355 47.182 35.884 46.918 36.226 46.39C36.568 45.862 36.739 45.047 36.739 43.943V43.142V43.142Z" fill="black"/>
<path d="M43.4113 48.003C42.9343 48.003 42.4962 47.925 42.0992 47.768C41.7012 47.612 41.3572 47.373 41.0692 47.052C40.7792 46.731 40.5562 46.327 40.3962 45.839C40.2372 45.351 40.1572 44.773 40.1572 44.105V43.126C40.1572 42.405 40.2422 41.788 40.4122 41.276C40.5812 40.764 40.8083 40.345 41.0923 40.019C41.3763 39.693 41.7052 39.454 42.0792 39.303C42.4532 39.152 42.8473 39.076 43.2603 39.076C44.2043 39.076 44.9222 39.388 45.4122 40.011C45.9022 40.634 46.1482 41.588 46.1482 42.871V43.619H41.0332V44.104C41.0332 44.629 41.0913 45.085 41.2083 45.472C41.3253 45.859 41.4893 46.18 41.7013 46.435C41.9133 46.689 42.1682 46.879 42.4652 47.003C42.7622 47.128 43.0913 47.19 43.4523 47.19C43.8973 47.19 44.2843 47.114 44.6133 46.963C44.9423 46.812 45.2422 46.577 45.5122 46.259L45.9742 46.848C45.8572 47.007 45.7202 47.155 45.5642 47.293C45.4072 47.431 45.2243 47.553 45.0153 47.659C44.8053 47.765 44.5682 47.849 44.3032 47.91C44.0372 47.972 43.7403 48.003 43.4113 48.003ZM43.2603 39.904C42.9473 39.904 42.6602 39.957 42.3972 40.063C42.1342 40.169 41.9063 40.338 41.7123 40.568C41.5183 40.799 41.3632 41.097 41.2472 41.463C41.1302 41.829 41.0623 42.272 41.0403 42.792H45.2643V42.561C45.2533 42.142 45.2052 41.768 45.1212 41.439C45.0362 41.11 44.9132 40.832 44.7512 40.604C44.5892 40.376 44.3833 40.202 44.1343 40.083C43.8863 39.963 43.5943 39.904 43.2603 39.904Z" fill="black"/>
<path d="M49.7659 39.235L49.7899 40.603C50.0449 40.136 50.3689 39.765 50.7639 39.489C51.1589 39.213 51.6089 39.075 52.1129 39.075C52.4729 39.075 52.7958 39.134 53.0798 39.25C53.3638 39.367 53.6048 39.552 53.8038 39.807C54.0028 40.062 54.1549 40.389 54.2609 40.789C54.3669 41.189 54.4199 41.674 54.4199 42.241V47.842H53.5449V42.233C53.5449 41.792 53.5058 41.424 53.4288 41.127C53.3518 40.83 53.2419 40.593 53.0989 40.415C52.9559 40.237 52.7819 40.11 52.5779 40.033C52.3739 39.956 52.1449 39.918 51.8899 39.918C51.6249 39.918 51.3819 39.972 51.1619 40.081C50.9419 40.189 50.7448 40.334 50.5688 40.514C50.3938 40.695 50.2429 40.901 50.1149 41.135C49.9879 41.368 49.8839 41.612 49.8049 41.867V47.842H48.9219V39.234H49.7659V39.235Z" fill="black"/>
<path d="M57.3447 43.142C57.3447 42.421 57.4098 41.804 57.5398 41.292C57.6698 40.78 57.8567 40.36 58.1007 40.031C58.3447 39.702 58.6408 39.461 58.9888 39.307C59.3358 39.153 59.7248 39.076 60.1538 39.076C60.6678 39.076 61.1048 39.191 61.4628 39.422C61.8208 39.652 62.1138 39.975 62.3418 40.388V35.623H63.2247V47.843H62.3967L62.3568 46.737C62.1278 47.135 61.8327 47.445 61.4697 47.668C61.1057 47.891 60.6648 48.003 60.1448 48.003C59.7148 48.003 59.3278 47.922 58.9828 47.76C58.6378 47.598 58.3448 47.35 58.1038 47.016C57.8618 46.682 57.6747 46.26 57.5427 45.751C57.4097 45.242 57.3438 44.64 57.3438 43.945V43.142H57.3447ZM58.2438 43.945C58.2438 45.048 58.4097 45.86 58.7417 46.38C59.0727 46.9 59.5998 47.16 60.3208 47.16C60.5808 47.16 60.8148 47.127 61.0258 47.06C61.2348 46.994 61.4227 46.901 61.5907 46.782C61.7577 46.663 61.9028 46.522 62.0248 46.36C62.1468 46.198 62.2528 46.022 62.3428 45.831V41.367C62.2628 41.176 62.1647 40.993 62.0487 40.818C61.9317 40.643 61.7927 40.49 61.6307 40.36C61.4687 40.23 61.2808 40.125 61.0658 40.046C60.8508 39.966 60.6057 39.926 60.3297 39.926C59.6027 39.926 59.0738 40.187 58.7428 40.71C58.4108 41.232 58.2448 42.043 58.2448 43.141V43.945H58.2438Z" fill="black"/>
<path d="M69.3478 48.003C68.8708 48.003 68.4328 47.925 68.0348 47.768C67.6368 47.612 67.2938 47.373 67.0048 47.052C66.7158 46.731 66.4918 46.327 66.3328 45.839C66.1738 45.351 66.0938 44.773 66.0938 44.105V43.126C66.0938 42.405 66.1788 41.788 66.3488 41.276C66.5188 40.764 66.7458 40.345 67.0288 40.019C67.3128 39.693 67.6417 39.454 68.0157 39.303C68.3897 39.152 68.7828 39.076 69.1968 39.076C70.1408 39.076 70.8578 39.388 71.3488 40.011C71.8398 40.634 72.0847 41.588 72.0847 42.871V43.619H66.9688V44.104C66.9688 44.629 67.0278 45.085 67.1438 45.472C67.2608 45.859 67.4247 46.18 67.6367 46.435C67.8497 46.689 68.1038 46.879 68.4008 47.003C68.6978 47.128 69.0267 47.19 69.3877 47.19C69.8327 47.19 70.2208 47.114 70.5498 46.963C70.8788 46.812 71.1777 46.577 71.4487 46.259L71.9098 46.848C71.7938 47.007 71.6568 47.155 71.4998 47.293C71.3438 47.431 71.1608 47.553 70.9508 47.659C70.7418 47.765 70.5048 47.849 70.2388 47.91C69.9738 47.972 69.6758 48.003 69.3478 48.003ZM69.1968 39.904C68.8838 39.904 68.5958 39.957 68.3328 40.063C68.0708 40.169 67.8428 40.338 67.6488 40.568C67.4548 40.799 67.2997 41.097 67.1827 41.463C67.0657 41.829 66.9967 42.272 66.9757 42.792H71.2008V42.561C71.1898 42.142 71.1427 41.768 71.0577 41.439C70.9727 41.11 70.8497 40.832 70.6877 40.604C70.5257 40.376 70.3208 40.202 70.0718 40.083C69.8228 39.963 69.5308 39.904 69.1968 39.904Z" fill="black"/>
<path d="M75.7024 39.235L75.7263 40.603C75.9813 40.136 76.3054 39.765 76.7014 39.489C77.0964 39.213 77.5464 39.075 78.0504 39.075C78.4114 39.075 78.7334 39.134 79.0164 39.25C79.3004 39.367 79.5414 39.552 79.7404 39.807C79.9384 40.062 80.0914 40.389 80.1974 40.789C80.3044 41.189 80.3574 41.674 80.3574 42.241V47.842H79.4824V42.233C79.4824 41.792 79.4433 41.424 79.3673 41.127C79.2893 40.83 79.1804 40.593 79.0374 40.415C78.8944 40.237 78.7204 40.11 78.5164 40.033C78.3124 39.956 78.0824 39.918 77.8284 39.918C77.5634 39.918 77.3203 39.972 77.1003 40.081C76.8803 40.189 76.6833 40.334 76.5073 40.514C76.3323 40.695 76.1813 40.901 76.0543 41.135C75.9273 41.368 75.8234 41.612 75.7444 41.867V47.842H74.8613V39.234H75.7024V39.235Z" fill="black"/>
<path d="M84.9279 37.039V39.235H86.3999V40.031H84.9279V45.751C84.9279 46.048 84.9529 46.288 85.0029 46.471C85.0529 46.654 85.1208 46.796 85.2048 46.897C85.2898 46.998 85.3868 47.065 85.4958 47.1C85.6048 47.134 85.7199 47.151 85.8419 47.151C85.9589 47.151 86.0728 47.142 86.1838 47.123C86.2948 47.105 86.3929 47.087 86.4779 47.071L86.5018 47.867C86.4068 47.91 86.2809 47.943 86.1239 47.967C85.9679 47.991 85.8039 48.003 85.6349 48.003C85.4069 48.003 85.1959 47.966 85.0029 47.892C84.8089 47.817 84.6409 47.693 84.4979 47.518C84.3549 47.343 84.2428 47.111 84.1638 46.822C84.0848 46.533 84.0449 46.173 84.0449 45.744V40.032H82.7158V39.236H84.0449V37.04H84.9279V37.039Z" fill="black"/>
<path d="M96.4989 47.183C96.7429 47.183 96.9789 47.151 97.2069 47.088C97.4359 47.025 97.6379 46.916 97.8159 46.762C97.9929 46.608 98.1389 46.403 98.2539 46.146C98.3679 45.889 98.4329 45.566 98.4489 45.179H99.2999C99.2789 45.64 99.1918 46.048 99.0378 46.401C98.8838 46.753 98.6799 47.048 98.4249 47.284C98.1709 47.52 97.8789 47.699 97.5499 47.821C97.2209 47.943 96.8709 48.004 96.4999 48.004C95.4659 48.004 94.6869 47.669 94.1649 47.001C93.6419 46.333 93.3809 45.341 93.3809 44.026V43.055C93.3809 41.739 93.6419 40.748 94.1649 40.079C94.6869 39.411 95.4628 39.077 96.4918 39.077C96.8838 39.077 97.2489 39.139 97.5859 39.264C97.9229 39.389 98.2139 39.577 98.4609 39.829C98.7079 40.081 98.9058 40.399 99.0538 40.784C99.2028 41.168 99.2849 41.621 99.2999 42.14H98.4489C98.4329 41.742 98.3719 41.402 98.2659 41.118C98.1589 40.834 98.0209 40.602 97.8489 40.422C97.6759 40.242 97.4749 40.111 97.2439 40.028C97.0129 39.946 96.7629 39.905 96.4929 39.905C96.0839 39.905 95.7399 39.975 95.4589 40.116C95.1779 40.257 94.9499 40.462 94.7739 40.733C94.5989 41.004 94.4718 41.333 94.3928 41.724C94.3138 42.114 94.2728 42.558 94.2728 43.056V44.027C94.2728 44.531 94.3109 44.979 94.3889 45.372C94.4659 45.764 94.5908 46.094 94.7668 46.362C94.9418 46.63 95.1708 46.835 95.4548 46.975C95.7358 47.113 96.0849 47.183 96.4989 47.183Z" fill="black"/>
<path d="M105.438 40.063C105.348 40.047 105.26 40.034 105.172 40.023C105.084 40.013 104.987 40.007 104.881 40.007C104.621 40.007 104.386 40.053 104.177 40.146C103.967 40.239 103.784 40.369 103.625 40.536C103.466 40.703 103.328 40.903 103.214 41.137C103.1 41.37 103.012 41.625 102.948 41.901V47.844H102.064V39.236H102.932L102.948 40.525C103.145 40.074 103.405 39.72 103.729 39.463C104.052 39.206 104.449 39.077 104.922 39.077C105.017 39.077 105.118 39.088 105.224 39.109C105.33 39.13 105.407 39.154 105.454 39.181L105.438 40.063Z" fill="black"/>
<path d="M110.575 48.003C110.098 48.003 109.66 47.925 109.263 47.768C108.865 47.612 108.521 47.373 108.233 47.052C107.943 46.731 107.72 46.327 107.561 45.839C107.402 45.351 107.322 44.773 107.322 44.105V43.126C107.322 42.405 107.407 41.788 107.577 41.276C107.747 40.764 107.973 40.345 108.257 40.019C108.541 39.693 108.87 39.454 109.244 39.303C109.618 39.152 110.012 39.076 110.425 39.076C111.369 39.076 112.087 39.388 112.577 40.011C113.067 40.634 113.313 41.588 113.313 42.871V43.619H108.198V44.104C108.198 44.629 108.256 45.085 108.373 45.472C108.49 45.859 108.654 46.18 108.866 46.435C109.078 46.689 109.333 46.879 109.63 47.003C109.927 47.128 110.256 47.19 110.617 47.19C111.062 47.19 111.449 47.114 111.779 46.963C112.108 46.812 112.407 46.577 112.678 46.259L113.14 46.848C113.023 47.007 112.886 47.155 112.73 47.293C112.573 47.431 112.39 47.553 112.181 47.659C111.971 47.765 111.734 47.849 111.469 47.91C111.201 47.972 110.904 48.003 110.575 48.003ZM110.424 39.904C110.111 39.904 109.824 39.957 109.561 40.063C109.298 40.169 109.07 40.338 108.876 40.568C108.682 40.799 108.527 41.097 108.411 41.463C108.294 41.829 108.225 42.272 108.204 42.792H112.429V42.561C112.418 42.142 112.37 41.768 112.286 41.439C112.201 41.11 112.078 40.832 111.916 40.604C111.754 40.376 111.548 40.202 111.299 40.083C111.05 39.963 110.758 39.904 110.424 39.904Z" fill="black"/>
<path d="M120.638 47.844C120.595 47.701 120.56 47.522 120.534 47.307C120.507 47.092 120.488 46.873 120.478 46.65C120.367 46.831 120.234 47.002 120.08 47.163C119.927 47.325 119.75 47.468 119.551 47.593C119.352 47.718 119.131 47.817 118.887 47.892C118.643 47.966 118.381 48.003 118.1 48.003C117.745 48.003 117.422 47.952 117.133 47.851C116.844 47.75 116.596 47.599 116.389 47.398C116.182 47.197 116.023 46.944 115.912 46.642C115.801 46.339 115.745 45.987 115.745 45.584C115.745 45.186 115.814 44.819 115.952 44.482C116.09 44.145 116.295 43.854 116.568 43.61C116.841 43.366 117.182 43.175 117.591 43.037C118 42.899 118.474 42.83 119.016 42.83H120.471V41.629C120.471 41.014 120.319 40.572 120.014 40.304C119.709 40.036 119.262 39.902 118.673 39.902C118.397 39.902 118.144 39.945 117.913 40.029C117.682 40.114 117.485 40.232 117.32 40.383C117.155 40.534 117.028 40.715 116.938 40.924C116.848 41.134 116.803 41.363 116.803 41.612L115.92 41.604C115.92 41.27 115.986 40.95 116.118 40.645C116.251 40.34 116.439 40.071 116.683 39.838C116.927 39.605 117.221 39.419 117.566 39.281C117.91 39.143 118.293 39.074 118.712 39.074C119.099 39.074 119.453 39.12 119.774 39.213C120.096 39.306 120.373 39.454 120.606 39.658C120.839 39.862 121.021 40.127 121.151 40.454C121.281 40.78 121.346 41.177 121.346 41.644V46.036C121.346 46.185 121.351 46.338 121.362 46.497C121.372 46.656 121.387 46.811 121.406 46.962C121.425 47.113 121.448 47.256 121.478 47.392C121.507 47.527 121.54 47.645 121.577 47.746V47.841H120.638V47.844ZM118.211 47.151C118.486 47.151 118.745 47.113 118.987 47.036C119.228 46.959 119.444 46.853 119.635 46.718C119.826 46.583 119.992 46.425 120.132 46.244C120.272 46.064 120.385 45.87 120.47 45.663V43.57H119.141C118.308 43.57 117.683 43.745 117.263 44.095C116.844 44.445 116.635 44.917 116.635 45.511C116.635 46.079 116.774 46.494 117.053 46.756C117.331 47.02 117.717 47.151 118.211 47.151Z" fill="black"/>
<path d="M125.981 37.039V39.235H127.453V40.031H125.981V45.751C125.981 46.048 126.006 46.288 126.057 46.471C126.107 46.654 126.176 46.796 126.26 46.897C126.345 46.998 126.441 47.065 126.549 47.1C126.658 47.134 126.774 47.151 126.896 47.151C127.013 47.151 127.127 47.142 127.238 47.123C127.349 47.105 127.446 47.087 127.531 47.071L127.556 47.867C127.461 47.91 127.334 47.943 127.177 47.967C127.021 47.991 126.857 48.003 126.688 48.003C126.46 48.003 126.25 47.966 126.057 47.892C125.863 47.817 125.695 47.693 125.552 47.518C125.409 47.343 125.297 47.111 125.218 46.822C125.139 46.533 125.099 46.173 125.099 45.744V40.032H123.77V39.236H125.099V37.04H125.981V37.039Z" fill="black"/>
<path d="M130.242 36.753C130.242 36.573 130.292 36.419 130.393 36.292C130.494 36.165 130.637 36.101 130.822 36.101C131.008 36.101 131.152 36.164 131.256 36.292C131.36 36.42 131.411 36.573 131.411 36.753C131.411 36.933 131.36 37.086 131.256 37.211C131.152 37.336 131.008 37.398 130.822 37.398C130.637 37.398 130.494 37.336 130.393 37.211C130.293 37.086 130.242 36.933 130.242 36.753ZM131.261 47.844H130.37V39.236H131.261V47.844Z" fill="black"/>
<path d="M136.883 46.46L138.999 39.236H139.906L137.225 47.844H136.525L133.828 39.236H134.735L136.883 46.46Z" fill="black"/>
<path d="M145.146 48.003C144.669 48.003 144.231 47.925 143.834 47.768C143.436 47.612 143.092 47.373 142.804 47.052C142.514 46.731 142.291 46.327 142.131 45.839C141.972 45.351 141.892 44.773 141.892 44.105V43.126C141.892 42.405 141.977 41.788 142.147 41.276C142.316 40.764 142.543 40.345 142.827 40.019C143.111 39.693 143.44 39.454 143.814 39.303C144.188 39.152 144.582 39.076 144.995 39.076C145.939 39.076 146.657 39.388 147.147 40.011C147.637 40.634 147.883 41.588 147.883 42.871V43.619H142.768V44.104C142.768 44.629 142.826 45.085 142.943 45.472C143.06 45.859 143.224 46.18 143.436 46.435C143.648 46.689 143.903 46.879 144.2 47.003C144.497 47.128 144.826 47.19 145.187 47.19C145.632 47.19 146.019 47.114 146.348 46.963C146.677 46.812 146.977 46.577 147.247 46.259L147.709 46.848C147.592 47.007 147.455 47.155 147.299 47.293C147.142 47.431 146.959 47.553 146.75 47.659C146.54 47.765 146.303 47.849 146.038 47.91C145.772 47.972 145.476 48.003 145.146 48.003ZM144.995 39.904C144.682 39.904 144.395 39.957 144.132 40.063C143.869 40.169 143.641 40.338 143.447 40.568C143.253 40.799 143.098 41.097 142.982 41.463C142.865 41.829 142.797 42.272 142.775 42.792H147V42.561C146.989 42.142 146.941 41.768 146.857 41.439C146.772 41.11 146.649 40.832 146.487 40.604C146.325 40.376 146.119 40.202 145.87 40.083C145.621 39.963 145.329 39.904 144.995 39.904Z" fill="black"/>
<path d="M161.085 43.945C161.085 44.64 161.023 45.242 160.898 45.751C160.773 46.26 160.594 46.682 160.361 47.016C160.127 47.35 159.839 47.598 159.494 47.76C159.149 47.922 158.759 48.003 158.324 48.003C157.804 48.003 157.36 47.898 156.991 47.689C156.622 47.479 156.321 47.186 156.088 46.81V51.154H155.213V39.236H156.025L156.065 40.414C156.303 39.995 156.606 39.667 156.972 39.431C157.338 39.195 157.781 39.077 158.301 39.077C158.747 39.077 159.142 39.154 159.487 39.308C159.832 39.461 160.123 39.703 160.362 40.032C160.601 40.361 160.781 40.781 160.903 41.293C161.025 41.805 161.086 42.422 161.086 43.143V43.945H161.085ZM160.202 43.142C160.202 42.039 160.031 41.227 159.689 40.707C159.347 40.187 158.813 39.927 158.086 39.927C157.815 39.927 157.573 39.966 157.358 40.043C157.143 40.119 156.955 40.225 156.793 40.357C156.631 40.49 156.493 40.641 156.379 40.81C156.265 40.98 156.168 41.16 156.089 41.351V45.886C156.174 46.071 156.278 46.244 156.403 46.403C156.527 46.562 156.672 46.7 156.837 46.816C157.001 46.933 157.188 47.023 157.398 47.087C157.607 47.15 157.842 47.182 158.102 47.182C158.818 47.182 159.347 46.918 159.689 46.39C160.031 45.862 160.202 45.047 160.202 43.943V43.142V43.142Z" fill="black"/>
<path d="M168.585 47.844C168.542 47.701 168.507 47.522 168.481 47.307C168.454 47.092 168.435 46.873 168.425 46.65C168.314 46.831 168.181 47.002 168.027 47.163C167.874 47.325 167.697 47.468 167.498 47.593C167.3 47.718 167.078 47.817 166.834 47.892C166.59 47.966 166.328 48.003 166.047 48.003C165.692 48.003 165.369 47.952 165.08 47.851C164.791 47.75 164.543 47.599 164.336 47.398C164.129 47.197 163.97 46.944 163.859 46.642C163.748 46.339 163.692 45.987 163.692 45.584C163.692 45.186 163.761 44.819 163.899 44.482C164.037 44.145 164.242 43.854 164.515 43.61C164.788 43.366 165.129 43.175 165.538 43.037C165.947 42.899 166.421 42.83 166.962 42.83H168.417V41.629C168.417 41.014 168.265 40.572 167.96 40.304C167.655 40.036 167.208 39.902 166.619 39.902C166.343 39.902 166.09 39.945 165.859 40.029C165.628 40.114 165.431 40.232 165.266 40.383C165.101 40.534 164.974 40.715 164.884 40.924C164.794 41.134 164.749 41.363 164.749 41.612L163.866 41.604C163.866 41.27 163.932 40.95 164.064 40.645C164.197 40.34 164.385 40.071 164.629 39.838C164.873 39.605 165.167 39.419 165.512 39.281C165.856 39.143 166.239 39.074 166.658 39.074C167.045 39.074 167.399 39.12 167.72 39.213C168.042 39.306 168.319 39.454 168.552 39.658C168.785 39.862 168.967 40.127 169.097 40.454C169.227 40.78 169.292 41.177 169.292 41.644V46.036C169.292 46.185 169.297 46.338 169.308 46.497C169.318 46.656 169.333 46.811 169.352 46.962C169.371 47.113 169.394 47.256 169.424 47.392C169.453 47.527 169.486 47.645 169.523 47.746V47.841H168.585V47.844ZM166.158 47.151C166.434 47.151 166.692 47.113 166.934 47.036C167.175 46.959 167.391 46.853 167.582 46.718C167.773 46.583 167.939 46.425 168.079 46.244C168.219 46.064 168.332 45.87 168.417 45.663V43.57H167.088C166.255 43.57 165.63 43.745 165.21 44.095C164.791 44.445 164.582 44.917 164.582 45.511C164.582 46.079 164.721 46.494 165 46.756C165.279 47.02 165.665 47.151 166.158 47.151Z" fill="black"/>
<path d="M175.973 40.063C175.883 40.047 175.794 40.034 175.706 40.023C175.619 40.013 175.522 40.007 175.416 40.007C175.156 40.007 174.921 40.053 174.712 40.146C174.503 40.239 174.318 40.369 174.159 40.536C174 40.703 173.864 40.903 173.749 41.137C173.635 41.37 173.547 41.625 173.483 41.901V47.844H172.6V39.236H173.467L173.483 40.525C173.679 40.074 173.939 39.72 174.263 39.463C174.586 39.206 174.984 39.077 175.456 39.077C175.551 39.077 175.652 39.088 175.759 39.109C175.865 39.13 175.942 39.154 175.989 39.181L175.973 40.063Z" fill="black"/>
<path d="M180.147 37.039V39.235H181.62V40.031H180.147V45.751C180.147 46.048 180.173 46.288 180.223 46.471C180.273 46.654 180.341 46.796 180.425 46.897C180.51 46.998 180.606 47.065 180.715 47.1C180.824 47.134 180.94 47.151 181.062 47.151C181.179 47.151 181.293 47.142 181.404 47.123C181.515 47.105 181.613 47.087 181.698 47.071L181.722 47.867C181.627 47.91 181.501 47.943 181.344 47.967C181.188 47.991 181.023 48.003 180.854 48.003C180.626 48.003 180.416 47.966 180.223 47.892C180.029 47.817 179.861 47.693 179.718 47.518C179.575 47.343 179.463 47.111 179.384 46.822C179.305 46.533 179.265 46.173 179.265 45.744V40.032H177.936V39.236H179.265V37.04H180.147V37.039Z" fill="black"/>
<path d="M185.284 39.235L185.308 40.603C185.563 40.136 185.887 39.765 186.283 39.489C186.678 39.213 187.128 39.075 187.632 39.075C187.993 39.075 188.315 39.134 188.598 39.25C188.882 39.367 189.123 39.552 189.322 39.807C189.52 40.062 189.673 40.389 189.779 40.789C189.886 41.189 189.939 41.674 189.939 42.241V47.842H189.064V42.233C189.064 41.792 189.025 41.424 188.949 41.127C188.871 40.83 188.762 40.593 188.619 40.415C188.476 40.237 188.302 40.11 188.098 40.033C187.894 39.956 187.664 39.918 187.41 39.918C187.145 39.918 186.902 39.972 186.682 40.081C186.462 40.189 186.265 40.334 186.089 40.514C185.914 40.695 185.763 40.901 185.636 41.135C185.509 41.368 185.405 41.612 185.326 41.867V47.842H184.443V39.234H185.284V39.235Z" fill="black"/>
<path d="M196.022 48.003C195.545 48.003 195.107 47.925 194.709 47.768C194.311 47.612 193.968 47.373 193.679 47.052C193.39 46.731 193.166 46.327 193.007 45.839C192.848 45.351 192.77 44.773 192.77 44.105V43.126C192.77 42.405 192.854 41.788 193.025 41.276C193.194 40.764 193.42 40.345 193.704 40.019C193.988 39.693 194.318 39.454 194.692 39.303C195.066 39.152 195.459 39.076 195.872 39.076C196.816 39.076 197.535 39.388 198.025 40.011C198.516 40.634 198.76 41.588 198.76 42.871V43.619H193.646V44.104C193.646 44.629 193.704 45.085 193.82 45.472C193.937 45.859 194.101 46.18 194.313 46.435C194.526 46.689 194.781 46.879 195.078 47.003C195.375 47.128 195.703 47.19 196.064 47.19C196.509 47.19 196.897 47.114 197.226 46.963C197.554 46.812 197.854 46.577 198.125 46.259L198.587 46.848C198.47 47.007 198.334 47.155 198.177 47.293C198.02 47.431 197.837 47.553 197.627 47.659C197.417 47.765 197.181 47.849 196.916 47.91C196.649 47.972 196.351 48.003 196.022 48.003ZM195.871 39.904C195.558 39.904 195.272 39.957 195.009 40.063C194.747 40.169 194.518 40.338 194.324 40.568C194.13 40.799 193.976 41.097 193.859 41.463C193.743 41.829 193.673 42.272 193.652 42.792H197.876V42.561C197.865 42.142 197.819 41.768 197.734 41.439C197.649 41.11 197.526 40.832 197.364 40.604C197.202 40.376 196.996 40.202 196.747 40.083C196.497 39.963 196.205 39.904 195.871 39.904Z" fill="black"/>
<path d="M204.906 40.063C204.816 40.047 204.727 40.034 204.64 40.023C204.553 40.013 204.456 40.007 204.349 40.007C204.089 40.007 203.854 40.053 203.645 40.146C203.435 40.239 203.251 40.369 203.092 40.536C202.933 40.703 202.797 40.903 202.682 41.137C202.568 41.37 202.479 41.625 202.416 41.901V47.844H201.533V39.236H202.4L202.416 40.525C202.612 40.074 202.872 39.72 203.196 39.463C203.519 39.206 203.917 39.077 204.389 39.077C204.485 39.077 204.586 39.088 204.692 39.109C204.798 39.13 204.875 39.154 204.923 39.181L204.906 40.063Z" fill="black"/>
<path d="M211.658 45.727C211.658 45.552 211.625 45.388 211.559 45.234C211.492 45.081 211.384 44.932 211.233 44.789C211.082 44.646 210.883 44.5 210.637 44.351C210.39 44.203 210.084 44.044 209.718 43.874C209.325 43.699 208.975 43.531 208.667 43.369C208.36 43.207 208.101 43.032 207.891 42.844C207.682 42.656 207.521 42.444 207.41 42.207C207.299 41.971 207.243 41.691 207.243 41.367C207.243 41.049 207.302 40.751 207.422 40.472C207.542 40.194 207.713 39.951 207.935 39.744C208.158 39.537 208.428 39.374 208.747 39.255C209.065 39.135 209.42 39.076 209.813 39.076C210.232 39.076 210.609 39.138 210.943 39.263C211.277 39.388 211.56 39.561 211.79 39.784C212.02 40.007 212.197 40.274 212.319 40.584C212.441 40.894 212.502 41.232 212.502 41.598H211.619C211.619 41.375 211.579 41.162 211.499 40.957C211.42 40.753 211.303 40.573 211.149 40.416C210.995 40.26 210.807 40.135 210.584 40.042C210.361 39.949 210.104 39.903 209.812 39.903C209.509 39.903 209.252 39.944 209.04 40.026C208.827 40.108 208.653 40.217 208.515 40.352C208.378 40.488 208.277 40.642 208.213 40.813C208.149 40.986 208.118 41.159 208.118 41.334C208.118 41.509 208.145 41.664 208.197 41.799C208.25 41.934 208.347 42.065 208.488 42.193C208.629 42.32 208.818 42.452 209.057 42.587C209.296 42.722 209.603 42.88 209.98 43.06C210.378 43.235 210.736 43.405 211.054 43.569C211.373 43.734 211.642 43.915 211.862 44.114C212.082 44.313 212.252 44.537 212.371 44.786C212.49 45.035 212.55 45.333 212.55 45.677C212.55 46.032 212.486 46.353 212.359 46.64C212.232 46.926 212.05 47.17 211.814 47.372C211.578 47.573 211.294 47.728 210.963 47.837C210.631 47.945 210.264 48 209.861 48C209.394 48 208.983 47.932 208.627 47.797C208.272 47.661 207.973 47.48 207.732 47.252C207.491 47.024 207.308 46.759 207.183 46.456C207.058 46.153 206.996 45.833 206.996 45.493H207.887C207.903 45.832 207.973 46.111 208.098 46.328C208.223 46.545 208.378 46.718 208.563 46.845C208.748 46.972 208.956 47.06 209.184 47.107C209.412 47.155 209.638 47.179 209.86 47.179C210.152 47.179 210.41 47.141 210.636 47.064C210.861 46.987 211.049 46.884 211.201 46.754C211.352 46.624 211.466 46.47 211.543 46.293C211.62 46.119 211.658 45.929 211.658 45.727Z" fill="black"/>
<path d="M14.8353 28.774C6.99333 28.774 0.566406 22.387 0.566406 14.505C0.566406 6.623 6.99333 0.236023 14.8353 0.236023C18.9583 0.236023 22.8794 2.01398 25.5874 5.08698C26.0724 5.65298 25.9913 6.46201 25.4663 6.90601C24.9403 7.39101 24.1324 7.35 23.6464 6.784C21.4234 4.238 18.2304 2.78302 14.8344 2.78302C8.40735 2.78302 3.15234 8.038 3.15234 14.505C3.15234 20.932 8.40735 26.187 14.8344 26.187C18.0684 26.187 21.1404 24.853 23.3224 22.549V16.809H15.8444C15.1174 16.809 14.5504 16.243 14.5504 15.515C14.5504 14.787 15.1164 14.222 15.8444 14.222H24.6163C25.3443 14.222 25.9104 14.788 25.9104 15.515V23.034C25.9104 23.357 25.7894 23.64 25.5874 23.883C22.8794 26.996 18.9583 28.774 14.8353 28.774Z" fill="black"/>
<path d="M42.2028 28.774C35.8968 28.774 30.7637 23.64 30.7637 17.294V1.53003C30.7637 0.802029 31.3307 0.236023 32.0167 0.236023C32.7447 0.236023 33.3108 0.802029 33.3108 1.53003V17.294C33.3108 22.226 37.3127 26.187 42.2037 26.187C47.1357 26.187 51.0967 22.226 51.0967 17.294V1.53003C51.0967 0.802029 51.6628 0.236023 52.3898 0.236023C53.1178 0.236023 53.6837 0.802029 53.6837 1.53003V17.294C53.6837 23.641 48.5498 28.774 42.2028 28.774Z" fill="black"/>
<path d="M59.626 28.774C58.898 28.774 58.332 28.208 58.332 27.48V1.53003C58.332 0.802029 58.898 0.236023 59.626 0.236023C60.353 0.236023 60.9189 0.802029 60.9189 1.53003V27.481C60.9199 28.208 60.354 28.774 59.626 28.774Z" fill="black"/>
<path d="M73.4114 28.774H66.8624C66.1344 28.774 65.5693 28.208 65.5693 27.48V1.53003C65.5693 0.802029 66.1354 0.236023 66.8624 0.236023H73.4114C81.2934 0.236023 87.6804 6.623 87.6804 14.505C87.6804 22.387 81.2934 28.774 73.4114 28.774ZM68.1554 26.187H73.4104C79.8774 26.187 85.1323 20.932 85.1323 14.505C85.1323 8.038 79.8774 2.78302 73.4104 2.78302H68.1554V26.187Z" fill="black"/>
<path d="M111.652 27.481C111.652 28.209 111.046 28.775 110.359 28.775H93.4219C92.6939 28.775 92.1289 28.209 92.1289 27.481V1.53003C92.1289 0.802029 92.6949 0.236023 93.4219 0.236023H110.359C111.046 0.236023 111.652 0.802029 111.652 1.53003C111.652 2.21703 111.046 2.78302 110.359 2.78302H94.7148V12.605H105.993C106.681 12.605 107.287 13.171 107.287 13.858C107.287 14.586 106.681 15.152 105.993 15.152H94.7148V26.187H110.359C111.046 26.187 111.652 26.794 111.652 27.481Z" fill="black"/>
<path d="M136.189 10.625C136.189 16.324 131.581 20.932 125.922 20.932H120.384V26.389C120.384 27.723 119.333 28.774 118.04 28.774C116.746 28.774 115.696 27.723 115.696 26.389V2.70203C115.696 1.40803 116.747 0.356995 118.04 0.356995H125.922C131.581 0.356995 136.189 4.966 136.189 10.625ZM131.5 10.625C131.5 7.553 128.994 5.08698 125.922 5.08698H120.384V16.203H125.922C128.994 16.203 131.5 13.737 131.5 10.625Z" fill="black"/>
<path d="M153.612 28.774C145.77 28.774 139.424 22.428 139.424 14.586C139.424 6.784 145.77 0.39801 153.612 0.39801C161.414 0.39801 167.8 6.784 167.8 14.586C167.801 22.428 161.414 28.774 153.612 28.774ZM153.612 5.08698C148.357 5.08698 144.113 9.372 144.113 14.586C144.113 19.841 148.357 24.085 153.612 24.085C158.826 24.085 163.111 19.841 163.111 14.586C163.112 9.372 158.827 5.08698 153.612 5.08698Z" fill="black"/>
<path d="M180.293 28.774C176.736 28.774 174.594 27.278 173.381 26.066C171.886 24.489 171.037 22.387 171.037 20.245C171.037 18.951 172.088 17.901 173.381 17.901C174.675 17.901 175.725 18.952 175.725 20.245C175.725 21.66 176.695 24.085 180.293 24.085C183.891 24.085 184.861 21.66 184.861 20.245C184.861 18.102 183.689 17.456 179.728 16.324C177.949 15.799 176.13 15.273 174.634 14.222C172.613 12.847 171.603 10.907 171.603 8.401C171.603 6.38 172.411 4.39897 173.786 2.94397C174.918 1.77197 176.979 0.39801 180.294 0.39801C183.649 0.39801 185.67 1.77197 186.802 2.94397C188.217 4.39997 189.025 6.38 189.025 8.401C189.025 9.694 187.974 10.745 186.64 10.745C185.347 10.745 184.296 9.694 184.296 8.401C184.296 7.188 183.447 5.086 180.294 5.086C177.141 5.086 176.292 7.188 176.292 8.401C176.292 9.978 176.899 10.584 181.022 11.797C182.881 12.322 184.821 12.888 186.398 14.02C188.5 15.476 189.551 17.577 189.551 20.245C189.551 22.387 188.702 24.489 187.207 26.066C186.033 27.279 183.85 28.774 180.293 28.774Z" fill="black"/>
<path d="M213.44 2.742C213.44 4.036 212.389 5.086 211.096 5.086H204.669V26.429C204.669 27.722 203.618 28.773 202.284 28.773C200.99 28.773 199.94 27.722 199.94 26.429V5.086H193.513C192.219 5.086 191.168 4.035 191.168 2.742C191.168 1.449 192.219 0.39801 193.513 0.39801H211.096C212.389 0.39801 213.44 1.449 213.44 2.742Z" fill="black"/>
</svg>
