<svg width="214" height="52" viewBox="0 0 214 52" fill="none" xmlns="http://www.w3.org/2000/svg">
<path d="M1.62598 36.753C1.62598 36.573 1.67598 36.419 1.77698 36.292C1.87798 36.165 2.02098 36.101 2.20698 36.101C2.39198 36.101 2.53698 36.164 2.64098 36.292C2.74398 36.419 2.79597 36.573 2.79597 36.753C2.79597 36.933 2.74398 37.086 2.64098 37.211C2.53698 37.335 2.39298 37.398 2.20698 37.398C2.02098 37.398 1.87798 37.336 1.77698 37.211C1.67598 37.086 1.62598 36.933 1.62598 36.753ZM2.64497 47.844H1.75397V39.236H2.64497V47.844Z" fill="#1B708A"/>
<path d="M6.82639 39.235L6.8504 40.603C7.1054 40.136 7.42939 39.765 7.82539 39.489C8.22039 39.213 8.67039 39.075 9.17339 39.075C9.53439 39.075 9.8564 39.134 10.1394 39.25C10.4224 39.366 10.6644 39.552 10.8634 39.807C11.0624 40.062 11.2154 40.389 11.3204 40.789C11.4274 41.189 11.4804 41.674 11.4804 42.241V47.842H10.6054V42.233C10.6054 41.792 10.5664 41.424 10.4904 41.127C10.4134 40.83 10.3034 40.593 10.1604 40.415C10.0174 40.237 9.8434 40.11 9.6394 40.033C9.4354 39.956 9.20539 39.918 8.95039 39.918C8.68539 39.918 8.4424 39.972 8.2224 40.081C8.0024 40.189 7.80539 40.334 7.62939 40.514C7.45439 40.695 7.3034 40.901 7.1764 41.135C7.0494 41.368 6.94539 41.612 6.86639 41.867V47.842H5.9834V39.234H6.82639V39.235Z" fill="#1B708A"/>
<path d="M14.4062 43.142C14.4062 42.421 14.4712 41.804 14.6012 41.292C14.7312 40.78 14.9183 40.36 15.1623 40.031C15.4063 39.702 15.7013 39.461 16.0493 39.307C16.3963 39.153 16.7852 39.076 17.2142 39.076C17.7292 39.076 18.1643 39.191 18.5233 39.422C18.8813 39.652 19.1743 39.975 19.4023 40.388V35.623H20.2853V47.844H19.4583L19.4183 46.738C19.1903 47.136 18.8952 47.446 18.5312 47.669C18.1682 47.892 17.7263 48.004 17.2063 48.004C16.7773 48.004 16.3902 47.923 16.0452 47.761C15.7002 47.599 15.4073 47.351 15.1663 47.017C14.9253 46.683 14.7373 46.261 14.6053 45.752C14.4723 45.243 14.4062 44.641 14.4062 43.946V43.142V43.142ZM15.3053 43.945C15.3053 45.048 15.4713 45.86 15.8023 46.38C16.1343 46.9 16.6602 47.16 17.3812 47.16C17.6412 47.16 17.8763 47.127 18.0853 47.06C18.2953 46.994 18.4833 46.901 18.6503 46.782C18.8173 46.663 18.9613 46.522 19.0833 46.36C19.2053 46.198 19.3123 46.022 19.4023 45.831V41.367C19.3233 41.176 19.2243 40.993 19.1083 40.818C18.9913 40.643 18.8523 40.49 18.6903 40.36C18.5283 40.23 18.3403 40.125 18.1253 40.046C17.9103 39.966 17.6653 39.926 17.3893 39.926C16.6633 39.926 16.1333 40.187 15.8023 40.71C15.4713 41.232 15.3053 42.043 15.3053 43.141V43.945V43.945Z" fill="#1B708A"/>
<path d="M26.4093 48.003C25.9323 48.003 25.4943 47.925 25.0963 47.768C24.6983 47.612 24.3553 47.373 24.0663 47.052C23.7773 46.731 23.5533 46.327 23.3933 45.839C23.2343 45.351 23.1553 44.773 23.1553 44.105V43.126C23.1553 42.405 23.2393 41.788 23.4103 41.276C23.5793 40.764 23.8063 40.345 24.0903 40.019C24.3743 39.693 24.7033 39.454 25.0773 39.303C25.4513 39.152 25.8453 39.076 26.2583 39.076C27.2023 39.076 27.9203 39.388 28.4103 40.011C28.9013 40.634 29.1463 41.588 29.1463 42.871V43.619H24.0313V44.104C24.0313 44.629 24.0903 45.085 24.2063 45.472C24.3233 45.859 24.4873 46.18 24.6993 46.435C24.9123 46.689 25.1663 46.879 25.4633 47.003C25.7603 47.128 26.0893 47.19 26.4503 47.19C26.8953 47.19 27.2833 47.114 27.6123 46.963C27.9403 46.812 28.2403 46.577 28.5113 46.259L28.9723 46.848C28.8553 47.007 28.7193 47.155 28.5623 47.293C28.4063 47.431 28.2233 47.553 28.0133 47.659C27.8033 47.765 27.5663 47.849 27.3013 47.91C27.0343 47.972 26.7383 48.003 26.4093 48.003ZM26.2583 39.904C25.9453 39.904 25.6583 39.957 25.3953 40.063C25.1333 40.169 24.9053 40.338 24.7113 40.568C24.5173 40.799 24.3623 41.097 24.2453 41.463C24.1293 41.829 24.0603 42.272 24.0393 42.792H28.2633V42.561C28.2523 42.142 28.2053 41.768 28.1203 41.439C28.0353 41.11 27.9123 40.832 27.7503 40.604C27.5883 40.376 27.3823 40.202 27.1343 40.083C26.8833 39.963 26.5923 39.904 26.2583 39.904Z" fill="#1B708A"/>
<path d="M37.7909 43.945C37.7909 44.64 37.7289 45.242 37.6039 45.751C37.4789 46.26 37.2999 46.682 37.0669 47.016C36.8329 47.35 36.5449 47.598 36.1999 47.76C35.8549 47.922 35.4649 48.003 35.0299 48.003C34.5099 48.003 34.0659 47.898 33.6979 47.689C33.3289 47.479 33.0279 47.186 32.7949 46.81V51.154H31.9199V39.236H32.7319L32.7719 40.414C33.0099 39.995 33.3129 39.667 33.6789 39.431C34.0449 39.195 34.4879 39.077 35.0079 39.077C35.4529 39.077 35.8489 39.154 36.1939 39.308C36.5389 39.461 36.8299 39.703 37.0689 40.032C37.3079 40.361 37.4879 40.781 37.6099 41.293C37.7319 41.805 37.7929 42.422 37.7929 43.143V43.945H37.7909ZM36.9079 43.142C36.9079 42.039 36.7369 41.227 36.3949 40.707C36.0529 40.187 35.5189 39.927 34.7919 39.927C34.5209 39.927 34.2789 39.966 34.0639 40.043C33.8489 40.119 33.6609 40.225 33.4989 40.357C33.3369 40.49 33.1989 40.641 33.0849 40.81C32.9709 40.98 32.8739 41.16 32.7949 41.351V45.886C32.8799 46.071 32.9839 46.244 33.1089 46.403C33.2329 46.562 33.3779 46.7 33.5429 46.817C33.7069 46.934 33.8939 47.024 34.1039 47.088C34.3129 47.151 34.5479 47.183 34.8079 47.183C35.5239 47.183 36.0529 46.919 36.3949 46.391C36.7369 45.863 36.9079 45.048 36.9079 43.944V43.142Z" fill="#1B708A"/>
<path d="M43.5802 48.003C43.1032 48.003 42.6652 47.925 42.2682 47.768C41.8702 47.612 41.5262 47.373 41.2382 47.052C40.9482 46.731 40.7252 46.327 40.5652 45.839C40.4062 45.351 40.3262 44.773 40.3262 44.105V43.126C40.3262 42.405 40.4112 41.788 40.5812 41.276C40.7502 40.764 40.9772 40.345 41.2612 40.019C41.5452 39.693 41.8742 39.454 42.2482 39.303C42.6222 39.152 43.0162 39.076 43.4292 39.076C44.3732 39.076 45.0912 39.388 45.5812 40.011C46.0712 40.634 46.3172 41.588 46.3172 42.871V43.619H41.2022V44.104C41.2022 44.629 41.2602 45.085 41.3772 45.472C41.4942 45.859 41.6582 46.18 41.8702 46.435C42.0822 46.689 42.3372 46.879 42.6342 47.003C42.9312 47.128 43.2602 47.19 43.6212 47.19C44.0662 47.19 44.4532 47.114 44.7832 46.963C45.1122 46.812 45.4112 46.577 45.6822 46.259L46.1442 46.848C46.0272 47.007 45.8902 47.155 45.7342 47.293C45.5772 47.431 45.3942 47.553 45.1852 47.659C44.9752 47.765 44.7382 47.849 44.4732 47.91C44.2062 47.972 43.9092 48.003 43.5802 48.003ZM43.4292 39.904C43.1162 39.904 42.8292 39.957 42.5662 40.063C42.3042 40.169 42.0752 40.338 41.8812 40.568C41.6872 40.799 41.5322 41.097 41.4162 41.463C41.2992 41.829 41.2312 42.272 41.2092 42.792H45.4342V42.561C45.4232 42.142 45.3752 41.768 45.2912 41.439C45.2062 41.11 45.0832 40.832 44.9212 40.604C44.7592 40.376 44.5532 40.202 44.3042 40.083C44.0552 39.963 43.7632 39.904 43.4292 39.904Z" fill="#1B708A"/>
<path d="M49.9348 39.235L49.9588 40.603C50.2138 40.136 50.5378 39.765 50.9328 39.489C51.3278 39.213 51.7778 39.075 52.2818 39.075C52.6418 39.075 52.9648 39.134 53.2478 39.25C53.5308 39.366 53.7728 39.552 53.9718 39.807C54.1708 40.062 54.3228 40.389 54.4288 40.789C54.5348 41.189 54.5878 41.674 54.5878 42.241V47.842H53.7128V42.233C53.7128 41.792 53.6738 41.424 53.5968 41.127C53.5198 40.83 53.4098 40.593 53.2668 40.415C53.1238 40.237 52.9498 40.11 52.7458 40.033C52.5418 39.956 52.3128 39.918 52.0578 39.918C51.7928 39.918 51.5498 39.972 51.3298 40.081C51.1098 40.189 50.9128 40.334 50.7368 40.514C50.5618 40.695 50.4109 40.901 50.2829 41.135C50.1559 41.368 50.0519 41.612 49.9729 41.867V47.842H49.0898V39.234H49.9348V39.235Z" fill="#1B708A"/>
<path d="M57.5137 43.142C57.5137 42.421 57.5787 41.804 57.7087 41.292C57.8387 40.78 58.0257 40.36 58.2697 40.031C58.5137 39.702 58.8097 39.461 59.1577 39.307C59.5047 39.153 59.8937 39.076 60.3227 39.076C60.8367 39.076 61.2737 39.191 61.6317 39.422C61.9897 39.652 62.2827 39.975 62.5107 40.388V35.623H63.3937V47.844H62.5667L62.5267 46.738C62.2977 47.136 62.0027 47.446 61.6397 47.669C61.2757 47.892 60.8347 48.004 60.3147 48.004C59.8847 48.004 59.4977 47.923 59.1527 47.761C58.8077 47.599 58.5147 47.351 58.2737 47.017C58.0317 46.683 57.8447 46.261 57.7127 45.752C57.5797 45.243 57.5137 44.641 57.5137 43.946V43.142ZM58.4127 43.945C58.4127 45.048 58.5787 45.86 58.9107 46.38C59.2417 46.9 59.7687 47.16 60.4897 47.16C60.7497 47.16 60.9837 47.127 61.1937 47.06C61.4027 46.994 61.5917 46.901 61.7587 46.782C61.9257 46.663 62.0707 46.522 62.1927 46.36C62.3147 46.198 62.4207 46.022 62.5107 45.831V41.367C62.4307 41.176 62.3327 40.993 62.2167 40.818C62.0997 40.643 61.9607 40.49 61.7987 40.36C61.6367 40.23 61.4487 40.125 61.2337 40.046C61.0187 39.966 60.7737 39.926 60.4977 39.926C59.7707 39.926 59.2417 40.187 58.9107 40.71C58.5787 41.232 58.4127 42.043 58.4127 43.141V43.945V43.945Z" fill="#1B708A"/>
<path d="M69.5167 48.003C69.0397 48.003 68.6017 47.925 68.2037 47.768C67.8057 47.612 67.4627 47.373 67.1737 47.052C66.8847 46.731 66.6607 46.327 66.5017 45.839C66.3427 45.351 66.2627 44.773 66.2627 44.105V43.126C66.2627 42.405 66.3477 41.788 66.5177 41.276C66.6867 40.764 66.9147 40.345 67.1977 40.019C67.4817 39.693 67.8107 39.454 68.1847 39.303C68.5587 39.152 68.9517 39.076 69.3657 39.076C70.3097 39.076 71.0267 39.388 71.5177 40.011C72.0087 40.634 72.2537 41.588 72.2537 42.871V43.619H67.1377V44.104C67.1377 44.629 67.1967 45.085 67.3127 45.472C67.4297 45.859 67.5937 46.18 67.8057 46.435C68.0187 46.689 68.2727 46.879 68.5697 47.003C68.8667 47.128 69.1957 47.19 69.5567 47.19C70.0017 47.19 70.3897 47.114 70.7187 46.963C71.0477 46.812 71.3467 46.577 71.6177 46.259L72.0787 46.848C71.9627 47.007 71.8257 47.155 71.6687 47.293C71.5127 47.431 71.3297 47.553 71.1197 47.659C70.9107 47.765 70.6737 47.849 70.4077 47.91C70.1427 47.972 69.8457 48.003 69.5167 48.003ZM69.3657 39.904C69.0527 39.904 68.7647 39.957 68.5017 40.063C68.2397 40.169 68.0117 40.338 67.8177 40.568C67.6237 40.799 67.4687 41.097 67.3517 41.463C67.2347 41.829 67.1657 42.272 67.1447 42.792H71.3697V42.561C71.3587 42.142 71.3117 41.768 71.2267 41.439C71.1417 41.11 71.0187 40.832 70.8567 40.604C70.6947 40.376 70.4897 40.202 70.2407 40.083C69.9917 39.963 69.6997 39.904 69.3657 39.904Z" fill="#1B708A"/>
<path d="M75.8713 39.235L75.8953 40.603C76.1503 40.136 76.4743 39.765 76.8703 39.489C77.2653 39.213 77.7153 39.075 78.2183 39.075C78.5793 39.075 78.9013 39.134 79.1843 39.25C79.4673 39.366 79.7093 39.552 79.9083 39.807C80.1073 40.062 80.2603 40.389 80.3653 40.789C80.4723 41.189 80.5253 41.674 80.5253 42.241V47.842H79.6503V42.233C79.6503 41.792 79.6113 41.424 79.5353 41.127C79.4583 40.83 79.3483 40.593 79.2053 40.415C79.0623 40.237 78.8883 40.11 78.6843 40.033C78.4803 39.956 78.2503 39.918 77.9953 39.918C77.7303 39.918 77.4873 39.972 77.2673 40.081C77.0473 40.189 76.8503 40.334 76.6743 40.514C76.4993 40.695 76.3483 40.901 76.2213 41.135C76.0943 41.368 75.9903 41.612 75.9113 41.867V47.842H75.0283V39.234H75.8713V39.235Z" fill="#1B708A"/>
<path d="M85.0977 37.039V39.235H86.5697V40.031H85.0977V45.751C85.0977 46.048 85.1227 46.288 85.1737 46.471C85.2237 46.654 85.2917 46.796 85.3757 46.897C85.4607 46.998 85.5577 47.065 85.6667 47.1C85.7757 47.134 85.8907 47.151 86.0127 47.151C86.1297 47.151 86.2437 47.142 86.3547 47.123C86.4657 47.105 86.5637 47.087 86.6487 47.071L86.6727 47.867C86.5777 47.91 86.4517 47.943 86.2947 47.967C86.1387 47.991 85.9747 48.003 85.8057 48.003C85.5777 48.003 85.3667 47.966 85.1737 47.892C84.9797 47.817 84.8117 47.693 84.6677 47.518C84.5247 47.343 84.4127 47.111 84.3337 46.822C84.2547 46.533 84.2147 46.173 84.2147 45.744V40.031H82.8857V39.235H84.2147V37.039H85.0977V37.039Z" fill="#1B708A"/>
<path d="M96.6678 47.183C96.9118 47.183 97.1478 47.151 97.3758 47.088C97.6048 47.025 97.8068 46.916 97.9848 46.762C98.1618 46.608 98.3078 46.403 98.4228 46.146C98.5368 45.889 98.6018 45.566 98.6178 45.179H99.4688C99.4478 45.64 99.3608 46.048 99.2068 46.401C99.0528 46.753 98.8488 47.048 98.5938 47.284C98.3398 47.52 98.0478 47.699 97.7188 47.821C97.3898 47.943 97.0398 48.004 96.6688 48.004C95.6348 48.004 94.8558 47.669 94.3338 47.001C93.8108 46.333 93.5498 45.341 93.5498 44.026V43.055C93.5498 41.739 93.8108 40.748 94.3338 40.079C94.8558 39.411 95.6318 39.077 96.6608 39.077C97.0528 39.077 97.4178 39.139 97.7548 39.264C98.0918 39.389 98.3828 39.577 98.6298 39.829C98.8768 40.081 99.0738 40.399 99.2228 40.784C99.3718 41.169 99.4538 41.621 99.4688 42.14H98.6178C98.6018 41.742 98.5408 41.402 98.4348 41.118C98.3278 40.834 98.1898 40.602 98.0178 40.422C97.8448 40.242 97.6438 40.111 97.4128 40.028C97.1828 39.946 96.9318 39.905 96.6618 39.905C96.2528 39.905 95.9088 39.975 95.6278 40.116C95.3468 40.257 95.1188 40.462 94.9428 40.733C94.7678 41.004 94.6408 41.333 94.5608 41.724C94.4818 42.114 94.4408 42.558 94.4408 43.057V44.028C94.4408 44.532 94.4788 44.98 94.5568 45.373C94.6338 45.765 94.7588 46.095 94.9348 46.363C95.1098 46.631 95.3388 46.836 95.6238 46.976C95.9048 47.113 96.2538 47.183 96.6678 47.183Z" fill="#1B708A"/>
<path d="M105.608 40.063C105.517 40.047 105.429 40.034 105.341 40.023C105.253 40.013 105.157 40.008 105.051 40.008C104.791 40.008 104.556 40.054 104.347 40.147C104.137 40.24 103.953 40.37 103.794 40.537C103.635 40.704 103.498 40.905 103.384 41.138C103.27 41.371 103.181 41.626 103.117 41.902V47.845H102.234V39.237H103.102L103.118 40.526C103.315 40.075 103.574 39.721 103.898 39.464C104.222 39.207 104.619 39.078 105.092 39.078C105.187 39.078 105.288 39.089 105.394 39.11C105.5 39.131 105.577 39.155 105.624 39.182L105.608 40.063Z" fill="#1B708A"/>
<path d="M110.744 48.003C110.267 48.003 109.829 47.925 109.432 47.768C109.034 47.612 108.69 47.373 108.402 47.052C108.112 46.731 107.889 46.327 107.729 45.839C107.57 45.351 107.49 44.773 107.49 44.105V43.126C107.49 42.405 107.575 41.788 107.745 41.276C107.914 40.764 108.141 40.345 108.425 40.019C108.709 39.693 109.038 39.454 109.412 39.303C109.786 39.152 110.18 39.076 110.593 39.076C111.537 39.076 112.255 39.388 112.745 40.011C113.235 40.634 113.481 41.588 113.481 42.871V43.619H108.366V44.104C108.366 44.629 108.424 45.085 108.541 45.472C108.658 45.859 108.822 46.18 109.034 46.435C109.246 46.689 109.501 46.879 109.798 47.003C110.095 47.128 110.424 47.19 110.785 47.19C111.23 47.19 111.617 47.114 111.947 46.963C112.276 46.812 112.575 46.577 112.846 46.259L113.308 46.848C113.191 47.007 113.054 47.155 112.898 47.293C112.741 47.431 112.558 47.553 112.349 47.659C112.139 47.765 111.902 47.849 111.637 47.91C111.37 47.972 111.073 48.003 110.744 48.003ZM110.593 39.904C110.28 39.904 109.993 39.957 109.73 40.063C109.468 40.169 109.239 40.338 109.045 40.568C108.851 40.799 108.696 41.097 108.58 41.463C108.463 41.829 108.395 42.272 108.373 42.792H112.598V42.561C112.587 42.142 112.539 41.768 112.455 41.439C112.37 41.11 112.247 40.832 112.085 40.604C111.923 40.376 111.717 40.202 111.468 40.083C111.219 39.963 110.927 39.904 110.593 39.904Z" fill="#1B708A"/>
<path d="M120.807 47.844C120.764 47.701 120.73 47.522 120.703 47.307C120.676 47.092 120.657 46.873 120.647 46.65C120.536 46.831 120.403 47.002 120.249 47.163C120.096 47.325 119.919 47.468 119.72 47.593C119.521 47.718 119.3 47.817 119.056 47.892C118.812 47.966 118.55 48.003 118.269 48.003C117.914 48.003 117.591 47.952 117.302 47.851C117.013 47.75 116.765 47.599 116.558 47.398C116.351 47.197 116.192 46.944 116.081 46.642C115.97 46.339 115.914 45.987 115.914 45.584C115.914 45.186 115.983 44.819 116.121 44.482C116.259 44.145 116.464 43.854 116.737 43.61C117.01 43.366 117.351 43.175 117.76 43.037C118.169 42.899 118.643 42.83 119.184 42.83H120.639V41.629C120.639 41.014 120.487 40.572 120.182 40.304C119.877 40.036 119.43 39.902 118.841 39.902C118.565 39.902 118.312 39.945 118.081 40.029C117.85 40.114 117.652 40.232 117.488 40.383C117.323 40.534 117.196 40.715 117.105 40.924C117.015 41.134 116.97 41.363 116.97 41.613L116.087 41.605C116.087 41.271 116.153 40.951 116.286 40.646C116.419 40.341 116.607 40.072 116.851 39.839C117.095 39.606 117.389 39.42 117.734 39.282C118.078 39.144 118.461 39.075 118.88 39.075C119.267 39.075 119.621 39.122 119.942 39.214C120.264 39.306 120.54 39.455 120.774 39.659C121.007 39.863 121.189 40.128 121.319 40.454C121.449 40.78 121.514 41.177 121.514 41.644V46.036C121.514 46.185 121.519 46.338 121.53 46.497C121.54 46.656 121.555 46.811 121.574 46.962C121.593 47.113 121.616 47.256 121.646 47.392C121.675 47.527 121.708 47.645 121.745 47.746V47.841H120.807V47.844ZM118.38 47.152C118.656 47.152 118.914 47.114 119.156 47.037C119.397 46.96 119.613 46.854 119.804 46.719C119.995 46.584 120.161 46.426 120.301 46.245C120.441 46.065 120.554 45.871 120.639 45.664V43.571H119.31C118.477 43.571 117.852 43.746 117.432 44.096C117.013 44.446 116.804 44.918 116.804 45.512C116.804 46.08 116.943 46.495 117.222 46.757C117.501 47.02 117.887 47.152 118.38 47.152Z" fill="#1B708A"/>
<path d="M126.15 37.039V39.235H127.622V40.031H126.15V45.751C126.15 46.048 126.175 46.288 126.226 46.471C126.276 46.654 126.344 46.796 126.428 46.897C126.513 46.998 126.61 47.065 126.719 47.1C126.828 47.134 126.943 47.151 127.065 47.151C127.182 47.151 127.296 47.142 127.407 47.123C127.518 47.105 127.616 47.087 127.701 47.071L127.725 47.867C127.63 47.91 127.504 47.943 127.347 47.967C127.191 47.991 127.027 48.003 126.858 48.003C126.63 48.003 126.419 47.966 126.226 47.892C126.032 47.817 125.864 47.693 125.721 47.518C125.578 47.343 125.466 47.111 125.387 46.822C125.308 46.533 125.268 46.173 125.268 45.744V40.031H123.939V39.235H125.268V37.039H126.15V37.039Z" fill="#1B708A"/>
<path d="M130.412 36.753C130.412 36.573 130.462 36.419 130.564 36.292C130.665 36.165 130.808 36.101 130.993 36.101C131.179 36.101 131.323 36.164 131.427 36.292C131.531 36.419 131.582 36.573 131.582 36.753C131.582 36.933 131.531 37.086 131.427 37.211C131.323 37.335 131.179 37.398 130.993 37.398C130.808 37.398 130.665 37.336 130.564 37.211C130.462 37.086 130.412 36.933 130.412 36.753ZM131.43 47.844H130.539V39.236H131.43V47.844Z" fill="#1B708A"/>
<path d="M137.052 46.46L139.168 39.236H140.075L137.394 47.844H136.694L133.997 39.236H134.904L137.052 46.46Z" fill="#1B708A"/>
<path d="M145.315 48.003C144.838 48.003 144.4 47.925 144.003 47.768C143.605 47.612 143.261 47.373 142.973 47.052C142.683 46.731 142.46 46.327 142.3 45.839C142.141 45.351 142.061 44.773 142.061 44.105V43.126C142.061 42.405 142.146 41.788 142.316 41.276C142.485 40.764 142.712 40.345 142.996 40.019C143.28 39.693 143.609 39.454 143.983 39.303C144.357 39.152 144.751 39.076 145.164 39.076C146.108 39.076 146.826 39.388 147.316 40.011C147.806 40.634 148.052 41.588 148.052 42.871V43.619H142.937V44.104C142.937 44.629 142.995 45.085 143.112 45.472C143.229 45.859 143.393 46.18 143.605 46.435C143.817 46.689 144.072 46.879 144.369 47.003C144.666 47.128 144.995 47.19 145.356 47.19C145.801 47.19 146.188 47.114 146.518 46.963C146.847 46.812 147.146 46.577 147.417 46.259L147.879 46.848C147.762 47.007 147.625 47.155 147.469 47.293C147.312 47.431 147.129 47.553 146.92 47.659C146.71 47.765 146.473 47.849 146.208 47.91C145.942 47.972 145.645 48.003 145.315 48.003ZM145.164 39.904C144.851 39.904 144.564 39.957 144.301 40.063C144.039 40.169 143.81 40.338 143.616 40.568C143.422 40.799 143.267 41.097 143.151 41.463C143.034 41.829 142.966 42.272 142.944 42.792H147.169V42.561C147.158 42.142 147.11 41.768 147.026 41.439C146.941 41.11 146.818 40.832 146.656 40.604C146.494 40.376 146.288 40.202 146.039 40.083C145.79 39.963 145.499 39.904 145.164 39.904Z" fill="#1B708A"/>
<path d="M161.254 43.945C161.254 44.64 161.192 45.242 161.067 45.751C160.942 46.26 160.763 46.682 160.53 47.016C160.296 47.35 160.008 47.598 159.663 47.76C159.318 47.922 158.928 48.003 158.493 48.003C157.973 48.003 157.529 47.898 157.161 47.689C156.792 47.479 156.491 47.186 156.258 46.81V51.154H155.383V39.236H156.195L156.235 40.414C156.473 39.995 156.776 39.667 157.142 39.431C157.508 39.195 157.951 39.077 158.471 39.077C158.916 39.077 159.312 39.154 159.657 39.308C160.002 39.461 160.293 39.703 160.532 40.032C160.771 40.361 160.951 40.781 161.073 41.293C161.195 41.805 161.256 42.422 161.256 43.143V43.945H161.254ZM160.371 43.142C160.371 42.039 160.2 41.227 159.858 40.707C159.516 40.187 158.982 39.927 158.255 39.927C157.984 39.927 157.742 39.966 157.527 40.043C157.312 40.119 157.124 40.225 156.962 40.357C156.8 40.49 156.662 40.641 156.548 40.81C156.434 40.98 156.337 41.16 156.258 41.351V45.886C156.343 46.071 156.447 46.244 156.572 46.403C156.696 46.562 156.841 46.7 157.006 46.817C157.17 46.934 157.357 47.024 157.567 47.088C157.776 47.151 158.011 47.183 158.271 47.183C158.987 47.183 159.516 46.919 159.858 46.391C160.2 45.863 160.371 45.048 160.371 43.944V43.142Z" fill="#1B708A"/>
<path d="M168.754 47.844C168.711 47.701 168.677 47.522 168.65 47.307C168.623 47.092 168.604 46.873 168.594 46.65C168.483 46.831 168.35 47.002 168.196 47.163C168.042 47.325 167.866 47.468 167.667 47.593C167.468 47.718 167.247 47.817 167.003 47.892C166.759 47.966 166.497 48.003 166.216 48.003C165.861 48.003 165.538 47.952 165.249 47.851C164.96 47.75 164.712 47.599 164.505 47.398C164.298 47.197 164.139 46.944 164.028 46.642C163.917 46.339 163.861 45.987 163.861 45.584C163.861 45.186 163.93 44.819 164.068 44.482C164.206 44.145 164.411 43.854 164.684 43.61C164.957 43.366 165.298 43.175 165.707 43.037C166.116 42.899 166.59 42.83 167.131 42.83H168.586V41.629C168.586 41.014 168.434 40.572 168.129 40.304C167.824 40.036 167.377 39.902 166.788 39.902C166.512 39.902 166.259 39.945 166.028 40.029C165.797 40.114 165.6 40.232 165.435 40.383C165.27 40.534 165.143 40.715 165.052 40.924C164.962 41.134 164.917 41.363 164.917 41.613L164.034 41.605C164.034 41.271 164.1 40.951 164.233 40.646C164.366 40.341 164.554 40.072 164.798 39.839C165.042 39.606 165.336 39.42 165.681 39.282C166.025 39.144 166.408 39.075 166.827 39.075C167.214 39.075 167.568 39.122 167.889 39.214C168.211 39.306 168.487 39.455 168.721 39.659C168.954 39.863 169.136 40.128 169.266 40.454C169.396 40.78 169.461 41.177 169.461 41.644V46.036C169.461 46.185 169.466 46.338 169.477 46.497C169.487 46.656 169.502 46.811 169.521 46.962C169.54 47.113 169.563 47.256 169.593 47.392C169.622 47.527 169.655 47.645 169.692 47.746V47.841H168.754V47.844ZM166.327 47.152C166.603 47.152 166.861 47.114 167.103 47.037C167.344 46.96 167.56 46.854 167.751 46.719C167.942 46.584 168.108 46.426 168.248 46.245C168.388 46.065 168.501 45.871 168.586 45.664V43.571H167.257C166.424 43.571 165.799 43.746 165.379 44.096C164.96 44.446 164.751 44.918 164.751 45.512C164.751 46.08 164.89 46.495 165.169 46.757C165.448 47.02 165.834 47.152 166.327 47.152Z" fill="#1B708A"/>
<path d="M176.142 40.063C176.051 40.047 175.963 40.034 175.875 40.023C175.788 40.013 175.691 40.008 175.585 40.008C175.325 40.008 175.09 40.054 174.881 40.147C174.672 40.24 174.487 40.37 174.328 40.537C174.169 40.704 174.033 40.905 173.918 41.138C173.804 41.371 173.716 41.626 173.652 41.902V47.845H172.769V39.237H173.636L173.652 40.526C173.848 40.075 174.108 39.721 174.432 39.464C174.755 39.207 175.153 39.078 175.626 39.078C175.721 39.078 175.822 39.089 175.929 39.11C176.035 39.131 176.112 39.155 176.159 39.182L176.142 40.063Z" fill="#1B708A"/>
<path d="M180.316 37.039V39.235H181.788V40.031H180.316V45.751C180.316 46.048 180.341 46.288 180.392 46.471C180.442 46.654 180.51 46.796 180.594 46.897C180.679 46.998 180.776 47.065 180.885 47.1C180.994 47.134 181.109 47.151 181.231 47.151C181.348 47.151 181.462 47.142 181.573 47.123C181.684 47.105 181.782 47.087 181.867 47.071L181.891 47.867C181.796 47.91 181.67 47.943 181.513 47.967C181.357 47.991 181.193 48.003 181.024 48.003C180.796 48.003 180.585 47.966 180.392 47.892C180.198 47.817 180.03 47.693 179.887 47.518C179.744 47.343 179.632 47.111 179.553 46.822C179.474 46.533 179.434 46.173 179.434 45.744V40.031H178.105V39.235H179.434V37.039H180.316V37.039Z" fill="#1B708A"/>
<path d="M185.453 39.235L185.477 40.603C185.732 40.136 186.056 39.765 186.452 39.489C186.847 39.213 187.297 39.075 187.8 39.075C188.161 39.075 188.483 39.134 188.766 39.25C189.05 39.367 189.291 39.552 189.49 39.807C189.689 40.062 189.842 40.389 189.947 40.789C190.054 41.189 190.107 41.674 190.107 42.241V47.842H189.232V42.233C189.232 41.792 189.193 41.424 189.117 41.127C189.04 40.83 188.93 40.593 188.787 40.415C188.644 40.237 188.47 40.11 188.266 40.033C188.062 39.956 187.832 39.918 187.577 39.918C187.312 39.918 187.069 39.972 186.849 40.081C186.629 40.189 186.432 40.334 186.256 40.514C186.081 40.695 185.93 40.901 185.803 41.135C185.676 41.368 185.572 41.612 185.493 41.867V47.842H184.61V39.234H185.453V39.235Z" fill="#1B708A"/>
<path d="M196.191 48.003C195.714 48.003 195.276 47.925 194.878 47.768C194.48 47.612 194.137 47.373 193.848 47.052C193.559 46.731 193.334 46.327 193.174 45.839C193.015 45.351 192.937 44.773 192.937 44.105V43.126C192.937 42.405 193.02 41.788 193.191 41.276C193.36 40.764 193.588 40.345 193.872 40.019C194.156 39.693 194.485 39.454 194.859 39.303C195.233 39.152 195.627 39.076 196.04 39.076C196.984 39.076 197.701 39.388 198.191 40.011C198.682 40.634 198.928 41.588 198.928 42.871V43.619H193.812V44.104C193.812 44.629 193.872 45.085 193.988 45.472C194.105 45.859 194.268 46.18 194.48 46.435C194.693 46.689 194.948 46.879 195.245 47.003C195.542 47.128 195.871 47.19 196.232 47.19C196.677 47.19 197.065 47.114 197.394 46.963C197.722 46.812 198.022 46.577 198.293 46.259L198.754 46.848C198.637 47.007 198.501 47.155 198.344 47.293C198.188 47.431 198.005 47.553 197.795 47.659C197.585 47.765 197.348 47.849 197.083 47.91C196.817 47.972 196.52 48.003 196.191 48.003ZM196.04 39.904C195.727 39.904 195.44 39.957 195.177 40.063C194.915 40.169 194.687 40.338 194.493 40.568C194.299 40.799 194.144 41.097 194.027 41.463C193.911 41.829 193.842 42.272 193.821 42.792H198.045V42.561C198.034 42.142 197.987 41.768 197.902 41.439C197.817 41.11 197.694 40.832 197.532 40.604C197.37 40.376 197.164 40.202 196.915 40.083C196.665 39.963 196.374 39.904 196.04 39.904Z" fill="#1B708A"/>
<path d="M205.075 40.063C204.985 40.047 204.896 40.034 204.809 40.023C204.722 40.013 204.625 40.008 204.518 40.008C204.258 40.008 204.023 40.054 203.814 40.147C203.604 40.24 203.42 40.37 203.261 40.537C203.102 40.704 202.966 40.905 202.851 41.138C202.737 41.371 202.648 41.626 202.585 41.902V47.845H201.702V39.237H202.569L202.585 40.526C202.781 40.075 203.041 39.721 203.365 39.464C203.688 39.207 204.086 39.078 204.558 39.078C204.654 39.078 204.755 39.089 204.861 39.11C204.967 39.131 205.044 39.155 205.092 39.182L205.075 40.063Z" fill="#1B708A"/>
<path d="M211.827 45.728C211.827 45.553 211.794 45.389 211.728 45.235C211.661 45.081 211.553 44.933 211.402 44.79C211.251 44.647 211.052 44.501 210.805 44.352C210.558 44.204 210.252 44.045 209.886 43.875C209.493 43.7 209.143 43.532 208.835 43.37C208.528 43.208 208.269 43.034 208.059 42.845C207.85 42.657 207.689 42.445 207.578 42.208C207.467 41.972 207.411 41.692 207.411 41.368C207.411 41.05 207.47 40.752 207.59 40.473C207.71 40.195 207.88 39.952 208.103 39.745C208.326 39.538 208.596 39.375 208.914 39.256C209.232 39.136 209.588 39.077 209.98 39.077C210.399 39.077 210.776 39.139 211.11 39.264C211.444 39.389 211.727 39.562 211.957 39.785C212.187 40.008 212.364 40.275 212.486 40.585C212.608 40.895 212.669 41.233 212.669 41.599H211.786C211.786 41.376 211.746 41.163 211.666 40.958C211.587 40.754 211.47 40.574 211.316 40.417C211.162 40.261 210.974 40.136 210.751 40.043C210.528 39.95 210.271 39.904 209.979 39.904C209.676 39.904 209.419 39.945 209.207 40.027C208.994 40.109 208.82 40.218 208.682 40.353C208.544 40.489 208.444 40.643 208.38 40.814C208.316 40.987 208.285 41.16 208.285 41.335C208.285 41.51 208.312 41.665 208.364 41.8C208.417 41.935 208.514 42.066 208.655 42.194C208.795 42.321 208.985 42.453 209.224 42.588C209.463 42.723 209.77 42.881 210.147 43.061C210.545 43.236 210.903 43.406 211.221 43.57C211.54 43.735 211.809 43.916 212.029 44.115C212.249 44.313 212.419 44.538 212.538 44.787C212.657 45.036 212.717 45.334 212.717 45.678C212.717 46.033 212.653 46.354 212.526 46.641C212.399 46.927 212.217 47.171 211.981 47.373C211.745 47.574 211.461 47.729 211.13 47.838C210.798 47.946 210.431 48.001 210.028 48.001C209.561 48.001 209.15 47.933 208.794 47.798C208.439 47.662 208.14 47.481 207.899 47.253C207.658 47.025 207.475 46.76 207.35 46.457C207.225 46.154 207.163 45.834 207.163 45.494H208.054C208.07 45.833 208.14 46.112 208.265 46.329C208.389 46.546 208.545 46.719 208.73 46.846C208.915 46.973 209.123 47.061 209.351 47.108C209.579 47.156 209.805 47.18 210.027 47.18C210.318 47.18 210.577 47.142 210.803 47.065C211.028 46.988 211.217 46.885 211.368 46.755C211.519 46.625 211.633 46.471 211.71 46.294C211.789 46.119 211.827 45.929 211.827 45.728Z" fill="#1B708A"/>
<path d="M15.0053 28.775C7.16333 28.775 0.736328 22.388 0.736328 14.506C0.736328 6.62398 7.16333 0.237 15.0053 0.237C19.1283 0.237 23.0493 2.01501 25.7573 5.08801C26.2423 5.65401 26.1613 6.46298 25.6363 6.90698C25.1103 7.39198 24.3023 7.35097 23.8163 6.78497C21.5933 4.23897 18.4003 2.784 15.0043 2.784C8.57733 2.784 3.32233 8.03898 3.32233 14.506C3.32233 20.933 8.57733 26.188 15.0043 26.188C18.2383 26.188 21.3103 24.854 23.4923 22.55V16.81H16.0143C15.2873 16.81 14.7203 16.244 14.7203 15.516C14.7203 14.788 15.2873 14.223 16.0143 14.223H24.7863C25.5143 14.223 26.0803 14.789 26.0803 15.516V23.035C26.0803 23.358 25.9593 23.641 25.7573 23.884C23.0483 26.996 19.1283 28.775 15.0053 28.775Z" fill="#1B708A"/>
<path d="M42.3726 28.775C36.0666 28.775 30.9336 23.641 30.9336 17.295V1.53003C30.9336 0.802029 31.4996 0.236023 32.1866 0.236023C32.9146 0.236023 33.4806 0.802029 33.4806 1.53003V17.294C33.4806 22.226 37.4826 26.187 42.3736 26.187C47.3056 26.187 51.2666 22.226 51.2666 17.294V1.53003C51.2666 0.802029 51.8326 0.236023 52.5596 0.236023C53.2876 0.236023 53.8536 0.802029 53.8536 1.53003V17.294C53.8526 23.641 48.7186 28.775 42.3726 28.775Z" fill="#1B708A"/>
<path d="M59.796 28.775C59.068 28.775 58.502 28.209 58.502 27.481V1.53003C58.502 0.802029 59.068 0.236023 59.796 0.236023C60.523 0.236023 61.089 0.802029 61.089 1.53003V27.481C61.089 28.209 60.523 28.775 59.796 28.775Z" fill="#1B708A"/>
<path d="M73.5803 28.775H67.0313C66.3033 28.775 65.7383 28.209 65.7383 27.481V1.53003C65.7383 0.802029 66.3043 0.236023 67.0313 0.236023H73.5803C81.4623 0.236023 87.8493 6.623 87.8493 14.505C87.8493 22.387 81.4623 28.775 73.5803 28.775ZM68.3243 26.188H73.5793C80.0463 26.188 85.3013 20.933 85.3013 14.506C85.3013 8.03898 80.0463 2.784 73.5793 2.784H68.3243V26.188Z" fill="#1B708A"/>
<path d="M111.82 27.481C111.82 28.209 111.214 28.775 110.527 28.775H93.5899C92.8619 28.775 92.2969 28.209 92.2969 27.481V1.53003C92.2969 0.802029 92.8629 0.236023 93.5899 0.236023H110.527C111.214 0.236023 111.82 0.802029 111.82 1.53003C111.82 2.21703 111.214 2.78302 110.527 2.78302H94.8829V12.605H106.161C106.849 12.605 107.455 13.171 107.455 13.858C107.455 14.586 106.849 15.152 106.161 15.152H94.8829V26.187H110.527C111.214 26.188 111.82 26.794 111.82 27.481Z" fill="#1B708A"/>
<path d="M136.358 10.625C136.358 16.324 131.75 20.932 126.091 20.932H120.553V26.389C120.553 27.723 119.502 28.774 118.209 28.774C116.915 28.774 115.865 27.723 115.865 26.389V2.70203C115.865 1.40803 116.916 0.356995 118.209 0.356995H126.091C131.75 0.356995 136.358 4.966 136.358 10.625ZM131.669 10.625C131.669 7.553 129.163 5.08698 126.091 5.08698H120.553V16.203H126.091C129.163 16.203 131.669 13.737 131.669 10.625Z" fill="#1B708A"/>
<path d="M153.783 28.775C145.941 28.775 139.595 22.429 139.595 14.587C139.595 6.78498 145.941 0.398987 153.783 0.398987C161.585 0.398987 167.971 6.78597 167.971 14.587C167.971 22.428 161.584 28.775 153.783 28.775ZM153.783 5.08698C148.528 5.08698 144.284 9.372 144.284 14.586C144.284 19.841 148.528 24.085 153.783 24.085C158.997 24.085 163.282 19.841 163.282 14.586C163.282 9.372 158.997 5.08698 153.783 5.08698Z" fill="#1B708A"/>
<path d="M180.462 28.775C176.905 28.775 174.763 27.279 173.55 26.067C172.055 24.49 171.206 22.388 171.206 20.246C171.206 18.952 172.257 17.902 173.55 17.902C174.844 17.902 175.894 18.953 175.894 20.246C175.894 21.661 176.864 24.086 180.462 24.086C184.06 24.086 185.03 21.661 185.03 20.246C185.03 18.103 183.858 17.457 179.897 16.325C178.118 15.8 176.299 15.274 174.803 14.223C172.782 12.848 171.771 10.908 171.771 8.40198C171.771 6.38098 172.579 4.40001 173.954 2.94501C175.086 1.77301 177.147 0.398987 180.462 0.398987C183.817 0.398987 185.838 1.77301 186.97 2.94501C188.385 4.40101 189.193 6.38098 189.193 8.40198C189.193 9.69498 188.142 10.746 186.808 10.746C185.515 10.746 184.464 9.69498 184.464 8.40198C184.464 7.18898 183.615 5.08698 180.462 5.08698C177.309 5.08698 176.46 7.18898 176.46 8.40198C176.46 9.97898 177.067 10.585 181.19 11.798C183.049 12.323 184.989 12.889 186.566 14.021C188.668 15.477 189.719 17.578 189.719 20.246C189.719 22.388 188.87 24.49 187.375 26.067C186.202 27.279 184.019 28.775 180.462 28.775Z" fill="#1B708A"/>
<path d="M213.609 2.742C213.609 4.036 212.558 5.086 211.265 5.086H204.838V26.429C204.838 27.722 203.787 28.773 202.453 28.773C201.159 28.773 200.109 27.722 200.109 26.429V5.086H193.682C192.388 5.086 191.337 4.035 191.337 2.742C191.337 1.449 192.388 0.39801 193.682 0.39801H211.265C212.558 0.39801 213.609 1.449 213.609 2.742Z" fill="#1B708A"/>
</svg>
