<svg width="214" height="52" viewBox="0 0 214 52" fill="none" xmlns="http://www.w3.org/2000/svg">
<path d="M1.6709 36.753C1.6709 36.573 1.7209 36.419 1.8219 36.292C1.9229 36.165 2.06592 36.101 2.25192 36.101C2.43692 36.101 2.58191 36.164 2.68591 36.292C2.78891 36.419 2.84091 36.573 2.84091 36.753C2.84091 36.933 2.78891 37.086 2.68591 37.211C2.58191 37.335 2.43792 37.398 2.25192 37.398C2.06592 37.398 1.9229 37.336 1.8219 37.211C1.7209 37.086 1.6709 36.933 1.6709 36.753ZM2.68991 47.844H1.79892V39.236H2.68991V47.844Z" fill="#E5E5E5"/>
<path d="M6.87131 39.235L6.89529 40.603C7.15029 40.136 7.4743 39.765 7.8703 39.489C8.2653 39.213 8.71529 39.075 9.21829 39.075C9.57929 39.075 9.9013 39.134 10.1843 39.25C10.4683 39.367 10.7093 39.552 10.9083 39.807C11.1073 40.062 11.2603 40.389 11.3653 40.789C11.4723 41.189 11.5253 41.674 11.5253 42.241V47.842H10.6503V42.233C10.6503 41.792 10.6113 41.424 10.5353 41.127C10.4583 40.83 10.3483 40.593 10.2053 40.415C10.0623 40.237 9.8883 40.11 9.6843 40.033C9.4803 39.956 9.2503 39.918 8.9953 39.918C8.7303 39.918 8.4873 39.972 8.2673 40.081C8.0473 40.189 7.85032 40.334 7.67432 40.514C7.49932 40.695 7.34831 40.901 7.22131 41.135C7.09431 41.368 6.99032 41.612 6.91132 41.867V47.842H6.02832V39.234H6.87131V39.235Z" fill="#E5E5E5"/>
<path d="M14.4512 43.142C14.4512 42.421 14.5162 41.804 14.6462 41.292C14.7762 40.78 14.9632 40.36 15.2072 40.031C15.4512 39.702 15.7462 39.461 16.0942 39.307C16.4412 39.153 16.8302 39.076 17.2592 39.076C17.7742 39.076 18.2092 39.191 18.5682 39.422C18.9262 39.652 19.2192 39.975 19.4472 40.388V35.623H20.3302V47.844H19.5032L19.4632 46.738C19.2352 47.136 18.9402 47.446 18.5762 47.669C18.2132 47.892 17.7712 48.004 17.2512 48.004C16.8222 48.004 16.4352 47.923 16.0902 47.761C15.7452 47.599 15.4522 47.351 15.2112 47.017C14.9702 46.683 14.7822 46.261 14.6502 45.752C14.5172 45.243 14.4512 44.641 14.4512 43.946V43.142ZM15.3502 43.945C15.3502 45.048 15.5162 45.86 15.8472 46.38C16.1792 46.9 16.7052 47.16 17.4262 47.16C17.6862 47.16 17.9212 47.127 18.1302 47.06C18.3402 46.994 18.5282 46.901 18.6952 46.782C18.8622 46.663 19.0062 46.522 19.1282 46.36C19.2502 46.198 19.3572 46.022 19.4472 45.831V41.367C19.3682 41.176 19.2692 40.993 19.1532 40.818C19.0362 40.643 18.8972 40.49 18.7352 40.36C18.5732 40.23 18.3852 40.125 18.1702 40.046C17.9562 39.966 17.7102 39.926 17.4342 39.926C16.7082 39.926 16.1792 40.187 15.8472 40.71C15.5162 41.232 15.3502 42.043 15.3502 43.141V43.945V43.945Z" fill="#E5E5E5"/>
<path d="M26.4542 48.003C25.9772 48.003 25.5392 47.925 25.1412 47.768C24.7432 47.612 24.4002 47.373 24.1112 47.052C23.8222 46.731 23.5982 46.327 23.4382 45.839C23.2792 45.351 23.2002 44.773 23.2002 44.105V43.126C23.2002 42.405 23.2842 41.788 23.4552 41.276C23.6242 40.764 23.8512 40.345 24.1352 40.019C24.4192 39.693 24.7482 39.454 25.1222 39.303C25.4962 39.152 25.8902 39.076 26.3032 39.076C27.2472 39.076 27.9652 39.388 28.4552 40.011C28.9462 40.634 29.1912 41.588 29.1912 42.871V43.619H24.0762V44.104C24.0762 44.629 24.1352 45.085 24.2512 45.472C24.3682 45.859 24.5322 46.18 24.7442 46.435C24.9572 46.689 25.2112 46.879 25.5082 47.003C25.8052 47.128 26.1342 47.19 26.4952 47.19C26.9402 47.19 27.3282 47.114 27.6572 46.963C27.9852 46.812 28.2852 46.577 28.5562 46.259L29.0172 46.848C28.9002 47.007 28.7642 47.155 28.6072 47.293C28.4512 47.431 28.2682 47.553 28.0582 47.659C27.8482 47.765 27.6112 47.849 27.3462 47.91C27.0792 47.972 26.7822 48.003 26.4542 48.003ZM26.3032 39.904C25.9902 39.904 25.7032 39.957 25.4402 40.063C25.1782 40.169 24.9502 40.338 24.7562 40.568C24.5622 40.799 24.4072 41.097 24.2902 41.463C24.1742 41.829 24.1052 42.272 24.0842 42.792H28.3082V42.561C28.2972 42.142 28.2502 41.768 28.1652 41.439C28.0802 41.11 27.9572 40.832 27.7952 40.604C27.6332 40.376 27.4282 40.202 27.1792 40.083C26.9282 39.963 26.6372 39.904 26.3032 39.904Z" fill="#E5E5E5"/>
<path d="M37.8358 43.945C37.8358 44.64 37.7738 45.242 37.6488 45.751C37.5238 46.26 37.3448 46.682 37.1118 47.016C36.8778 47.35 36.5898 47.598 36.2448 47.76C35.8998 47.922 35.5099 48.003 35.0749 48.003C34.5549 48.003 34.1109 47.898 33.7429 47.689C33.3739 47.479 33.0728 47.186 32.8398 46.81V51.154H31.9648V39.236H32.7758L32.8159 40.414C33.0539 39.995 33.3568 39.667 33.7228 39.431C34.0888 39.195 34.5318 39.077 35.0518 39.077C35.4968 39.077 35.8929 39.154 36.2379 39.308C36.5829 39.461 36.8739 39.703 37.1129 40.032C37.3519 40.361 37.5318 40.781 37.6538 41.293C37.7758 41.805 37.8369 42.422 37.8369 43.143V43.945H37.8358ZM36.9529 43.142C36.9529 42.039 36.7818 41.227 36.4398 40.707C36.0978 40.187 35.5639 39.927 34.8369 39.927C34.5659 39.927 34.3239 39.966 34.1089 40.043C33.8939 40.119 33.7059 40.225 33.5439 40.357C33.3819 40.49 33.2439 40.641 33.1299 40.81C33.0159 40.98 32.9188 41.16 32.8398 41.351V45.886C32.9248 46.071 33.0288 46.244 33.1538 46.403C33.2778 46.562 33.4229 46.7 33.5879 46.817C33.7519 46.934 33.9388 47.024 34.1488 47.088C34.3578 47.151 34.5928 47.183 34.8528 47.183C35.5688 47.183 36.0978 46.919 36.4398 46.391C36.7818 45.863 36.9529 45.048 36.9529 43.944V43.142Z" fill="#E5E5E5"/>
<path d="M43.6251 48.003C43.1481 48.003 42.7101 47.925 42.3131 47.768C41.9151 47.612 41.5711 47.373 41.2831 47.052C40.9931 46.731 40.7701 46.327 40.6101 45.839C40.4511 45.351 40.3711 44.773 40.3711 44.105V43.126C40.3711 42.405 40.4561 41.788 40.6261 41.276C40.7951 40.764 41.0221 40.345 41.3061 40.019C41.5901 39.693 41.9191 39.454 42.2931 39.303C42.6671 39.152 43.0611 39.076 43.4741 39.076C44.4181 39.076 45.1361 39.388 45.6261 40.011C46.1161 40.634 46.3621 41.588 46.3621 42.871V43.619H41.2471V44.104C41.2471 44.629 41.3051 45.085 41.4221 45.472C41.5391 45.859 41.7031 46.18 41.9151 46.435C42.1271 46.689 42.3821 46.879 42.6791 47.003C42.9761 47.128 43.3051 47.19 43.6661 47.19C44.1111 47.19 44.4981 47.114 44.8281 46.963C45.1571 46.812 45.4561 46.577 45.7271 46.259L46.1891 46.848C46.0721 47.007 45.9351 47.155 45.7791 47.293C45.6221 47.431 45.4391 47.553 45.2301 47.659C45.0201 47.765 44.7831 47.849 44.5181 47.91C44.2511 47.972 43.9541 48.003 43.6251 48.003ZM43.4741 39.904C43.1611 39.904 42.8741 39.957 42.6111 40.063C42.3491 40.169 42.1201 40.338 41.9261 40.568C41.7321 40.799 41.5771 41.097 41.4611 41.463C41.3441 41.829 41.2761 42.272 41.2541 42.792H45.4791V42.561C45.4681 42.142 45.4201 41.768 45.3361 41.439C45.2511 41.11 45.1281 40.832 44.9661 40.604C44.8041 40.376 44.5981 40.202 44.3491 40.083C44.1001 39.963 43.8081 39.904 43.4741 39.904Z" fill="#E5E5E5"/>
<path d="M49.9798 39.235L50.0038 40.603C50.2588 40.136 50.5828 39.765 50.9778 39.489C51.3728 39.213 51.8228 39.075 52.3268 39.075C52.6868 39.075 53.0098 39.134 53.2928 39.25C53.5768 39.367 53.8178 39.552 54.0168 39.807C54.2158 40.062 54.3678 40.389 54.4738 40.789C54.5798 41.189 54.6328 41.674 54.6328 42.241V47.842H53.7578V42.233C53.7578 41.792 53.7188 41.424 53.6418 41.127C53.5648 40.83 53.4548 40.593 53.3118 40.415C53.1688 40.237 52.9947 40.11 52.7907 40.033C52.5867 39.956 52.3578 39.918 52.1028 39.918C51.8378 39.918 51.5948 39.972 51.3748 40.081C51.1548 40.189 50.9578 40.334 50.7818 40.514C50.6068 40.695 50.4558 40.901 50.3278 41.135C50.2008 41.368 50.0968 41.612 50.0178 41.867V47.842H49.1348V39.234H49.9798V39.235Z" fill="#E5E5E5"/>
<path d="M57.5586 43.142C57.5586 42.421 57.6236 41.804 57.7536 41.292C57.8836 40.78 58.0706 40.36 58.3146 40.031C58.5586 39.702 58.8546 39.461 59.2026 39.307C59.5496 39.153 59.9386 39.076 60.3676 39.076C60.8816 39.076 61.3186 39.191 61.6766 39.422C62.0346 39.652 62.3276 39.975 62.5556 40.388V35.623H63.4386V47.844H62.6116L62.5716 46.738C62.3426 47.136 62.0476 47.446 61.6846 47.669C61.3206 47.892 60.8796 48.004 60.3596 48.004C59.9296 48.004 59.5426 47.923 59.1976 47.761C58.8526 47.599 58.5596 47.351 58.3186 47.017C58.0766 46.683 57.8906 46.261 57.7576 45.752C57.6246 45.243 57.5586 44.641 57.5586 43.946V43.142ZM58.4576 43.945C58.4576 45.048 58.6236 45.86 58.9556 46.38C59.2866 46.9 59.8136 47.16 60.5346 47.16C60.7946 47.16 61.0286 47.127 61.2386 47.06C61.4476 46.994 61.6366 46.901 61.8036 46.782C61.9706 46.663 62.1156 46.522 62.2376 46.36C62.3596 46.198 62.4656 46.022 62.5556 45.831V41.367C62.4756 41.176 62.3776 40.993 62.2616 40.818C62.1446 40.643 62.0056 40.49 61.8436 40.36C61.6816 40.23 61.4936 40.125 61.2786 40.046C61.0636 39.966 60.8186 39.926 60.5426 39.926C59.8156 39.926 59.2866 40.187 58.9556 40.71C58.6236 41.232 58.4576 42.043 58.4576 43.141V43.945V43.945Z" fill="#E5E5E5"/>
<path d="M69.5616 48.003C69.0846 48.003 68.6466 47.925 68.2486 47.768C67.8506 47.612 67.5076 47.373 67.2186 47.052C66.9296 46.731 66.7056 46.327 66.5466 45.839C66.3876 45.351 66.3076 44.773 66.3076 44.105V43.126C66.3076 42.405 66.3926 41.788 66.5626 41.276C66.7316 40.764 66.9596 40.345 67.2426 40.019C67.5266 39.693 67.8556 39.454 68.2296 39.303C68.6036 39.152 68.9966 39.076 69.4106 39.076C70.3546 39.076 71.0716 39.388 71.5626 40.011C72.0536 40.634 72.2986 41.588 72.2986 42.871V43.619H67.1826V44.104C67.1826 44.629 67.2416 45.085 67.3576 45.472C67.4746 45.859 67.6386 46.18 67.8506 46.435C68.0636 46.689 68.3176 46.879 68.6146 47.003C68.9116 47.128 69.2406 47.19 69.6016 47.19C70.0466 47.19 70.4346 47.114 70.7636 46.963C71.0926 46.812 71.3916 46.577 71.6626 46.259L72.1236 46.848C72.0076 47.007 71.8706 47.155 71.7136 47.293C71.5576 47.431 71.3746 47.553 71.1646 47.659C70.9556 47.765 70.7186 47.849 70.4526 47.91C70.1876 47.972 69.8896 48.003 69.5616 48.003ZM69.4106 39.904C69.0976 39.904 68.8096 39.957 68.5466 40.063C68.2846 40.169 68.0566 40.338 67.8626 40.568C67.6686 40.799 67.5136 41.097 67.3966 41.463C67.2796 41.829 67.2106 42.272 67.1896 42.792H71.4146V42.561C71.4036 42.142 71.3566 41.768 71.2716 41.439C71.1866 41.11 71.0636 40.832 70.9016 40.604C70.7396 40.376 70.5346 40.202 70.2856 40.083C70.0366 39.963 69.7446 39.904 69.4106 39.904Z" fill="#E5E5E5"/>
<path d="M75.9162 39.235L75.9402 40.603C76.1952 40.136 76.5193 39.765 76.9153 39.489C77.3103 39.213 77.7602 39.075 78.2632 39.075C78.6242 39.075 78.9462 39.134 79.2292 39.25C79.5132 39.367 79.7542 39.552 79.9532 39.807C80.1522 40.062 80.3052 40.389 80.4102 40.789C80.5172 41.189 80.5703 41.674 80.5703 42.241V47.842H79.6953V42.233C79.6953 41.792 79.6562 41.424 79.5802 41.127C79.5032 40.83 79.3932 40.593 79.2502 40.415C79.1072 40.237 78.9332 40.11 78.7292 40.033C78.5252 39.956 78.2953 39.918 78.0403 39.918C77.7753 39.918 77.5323 39.972 77.3123 40.081C77.0923 40.189 76.8952 40.334 76.7192 40.514C76.5442 40.695 76.3932 40.901 76.2662 41.135C76.1392 41.368 76.0352 41.612 75.9562 41.867V47.842H75.0732V39.234H75.9162V39.235Z" fill="#E5E5E5"/>
<path d="M85.1427 37.039V39.235H86.6147V40.031H85.1427V45.751C85.1427 46.048 85.1677 46.288 85.2187 46.471C85.2687 46.654 85.3367 46.796 85.4207 46.897C85.5057 46.998 85.6027 47.065 85.7107 47.1C85.8197 47.134 85.9347 47.151 86.0567 47.151C86.1737 47.151 86.2877 47.142 86.3987 47.123C86.5097 47.105 86.6077 47.087 86.6927 47.071L86.7167 47.867C86.6217 47.91 86.4957 47.943 86.3387 47.967C86.1827 47.991 86.0187 48.003 85.8497 48.003C85.6217 48.003 85.4107 47.966 85.2177 47.892C85.0237 47.817 84.8557 47.693 84.7127 47.518C84.5697 47.343 84.4577 47.111 84.3787 46.822C84.2997 46.533 84.2597 46.173 84.2597 45.744V40.031H82.9307V39.235H84.2597V37.039H85.1427V37.039Z" fill="#E5E5E5"/>
<path d="M96.7127 47.183C96.9567 47.183 97.1927 47.151 97.4207 47.088C97.6497 47.025 97.8518 46.916 98.0298 46.762C98.2068 46.608 98.3527 46.403 98.4677 46.146C98.5817 45.889 98.6468 45.566 98.6628 45.179H99.5137C99.4927 45.64 99.4057 46.048 99.2517 46.401C99.0977 46.753 98.8937 47.048 98.6387 47.284C98.3847 47.52 98.0927 47.699 97.7637 47.821C97.4347 47.943 97.0847 48.004 96.7137 48.004C95.6797 48.004 94.9007 47.669 94.3787 47.001C93.8557 46.333 93.5947 45.341 93.5947 44.026V43.055C93.5947 41.739 93.8557 40.748 94.3787 40.079C94.9007 39.411 95.6767 39.077 96.7057 39.077C97.0977 39.077 97.4627 39.139 97.7997 39.264C98.1367 39.389 98.4277 39.577 98.6747 39.829C98.9217 40.081 99.1197 40.399 99.2677 40.784C99.4157 41.169 99.4987 41.621 99.5137 42.14H98.6628C98.6468 41.742 98.5857 41.402 98.4797 41.118C98.3727 40.834 98.2347 40.602 98.0627 40.422C97.8897 40.242 97.6887 40.111 97.4577 40.028C97.2267 39.946 96.9767 39.905 96.7067 39.905C96.2977 39.905 95.9537 39.975 95.6727 40.116C95.3917 40.257 95.1637 40.462 94.9877 40.733C94.8127 41.004 94.6857 41.333 94.6057 41.724C94.5267 42.114 94.4857 42.558 94.4857 43.057V44.028C94.4857 44.532 94.5237 44.98 94.6017 45.373C94.6777 45.765 94.8037 46.095 94.9797 46.363C95.1547 46.631 95.3837 46.836 95.6687 46.976C95.9497 47.113 96.2987 47.183 96.7127 47.183Z" fill="#E5E5E5"/>
<path d="M105.653 40.063C105.562 40.047 105.474 40.034 105.386 40.023C105.298 40.013 105.202 40.008 105.096 40.008C104.836 40.008 104.601 40.054 104.392 40.147C104.182 40.24 103.998 40.37 103.839 40.537C103.68 40.704 103.543 40.905 103.429 41.138C103.315 41.371 103.226 41.626 103.162 41.902V47.845H102.279V39.237H103.147L103.163 40.526C103.36 40.075 103.619 39.721 103.943 39.464C104.267 39.207 104.664 39.078 105.137 39.078C105.232 39.078 105.333 39.089 105.439 39.11C105.545 39.131 105.622 39.155 105.669 39.182L105.653 40.063Z" fill="#E5E5E5"/>
<path d="M110.789 48.003C110.312 48.003 109.874 47.925 109.477 47.768C109.079 47.612 108.735 47.373 108.447 47.052C108.157 46.731 107.934 46.327 107.774 45.839C107.615 45.351 107.535 44.773 107.535 44.105V43.126C107.535 42.405 107.62 41.788 107.79 41.276C107.959 40.764 108.186 40.345 108.47 40.019C108.754 39.693 109.083 39.454 109.457 39.303C109.831 39.152 110.225 39.076 110.638 39.076C111.582 39.076 112.3 39.388 112.79 40.011C113.28 40.634 113.526 41.588 113.526 42.871V43.619H108.41V44.104C108.41 44.629 108.468 45.085 108.585 45.472C108.702 45.859 108.866 46.18 109.078 46.435C109.29 46.689 109.545 46.879 109.842 47.003C110.139 47.128 110.468 47.19 110.829 47.19C111.274 47.19 111.661 47.114 111.991 46.963C112.32 46.812 112.619 46.577 112.89 46.259L113.352 46.848C113.235 47.007 113.098 47.155 112.942 47.293C112.785 47.431 112.602 47.553 112.393 47.659C112.183 47.765 111.946 47.849 111.681 47.91C111.415 47.972 111.118 48.003 110.789 48.003ZM110.638 39.904C110.325 39.904 110.038 39.957 109.775 40.063C109.513 40.169 109.284 40.338 109.09 40.568C108.896 40.799 108.741 41.097 108.625 41.463C108.508 41.829 108.44 42.272 108.418 42.792H112.643V42.561C112.632 42.142 112.584 41.768 112.5 41.439C112.415 41.11 112.292 40.832 112.13 40.604C111.968 40.376 111.762 40.202 111.513 40.083C111.264 39.963 110.972 39.904 110.638 39.904Z" fill="#E5E5E5"/>
<path d="M120.852 47.844C120.809 47.701 120.774 47.522 120.748 47.307C120.721 47.092 120.702 46.873 120.692 46.65C120.581 46.831 120.448 47.002 120.294 47.163C120.14 47.325 119.964 47.468 119.765 47.593C119.567 47.718 119.345 47.817 119.101 47.892C118.857 47.966 118.595 48.003 118.314 48.003C117.959 48.003 117.636 47.952 117.347 47.851C117.058 47.75 116.81 47.599 116.603 47.398C116.396 47.197 116.237 46.944 116.126 46.642C116.015 46.339 115.959 45.987 115.959 45.584C115.959 45.186 116.028 44.819 116.166 44.482C116.304 44.145 116.509 43.854 116.782 43.61C117.055 43.366 117.396 43.175 117.805 43.037C118.214 42.899 118.688 42.83 119.229 42.83H120.685V41.629C120.685 41.014 120.533 40.572 120.228 40.304C119.923 40.036 119.476 39.902 118.887 39.902C118.611 39.902 118.358 39.945 118.127 40.029C117.896 40.114 117.698 40.232 117.534 40.383C117.369 40.534 117.242 40.715 117.151 40.924C117.061 41.134 117.016 41.363 117.016 41.613L116.133 41.605C116.133 41.271 116.199 40.951 116.331 40.646C116.464 40.341 116.652 40.072 116.896 39.839C117.14 39.606 117.434 39.42 117.779 39.282C118.123 39.144 118.506 39.075 118.925 39.075C119.312 39.075 119.666 39.122 119.987 39.214C120.309 39.306 120.585 39.455 120.819 39.659C121.052 39.863 121.234 40.128 121.364 40.454C121.494 40.78 121.559 41.177 121.559 41.644V46.036C121.559 46.185 121.564 46.338 121.575 46.497C121.585 46.656 121.6 46.811 121.619 46.962C121.638 47.113 121.661 47.256 121.691 47.392C121.72 47.527 121.753 47.645 121.79 47.746V47.841H120.852V47.844ZM118.425 47.152C118.7 47.152 118.959 47.114 119.201 47.037C119.442 46.96 119.658 46.854 119.849 46.719C120.04 46.584 120.206 46.426 120.346 46.245C120.486 46.065 120.599 45.871 120.684 45.664V43.571H119.355C118.522 43.571 117.897 43.746 117.477 44.096C117.058 44.446 116.849 44.918 116.849 45.512C116.849 46.08 116.988 46.495 117.267 46.757C117.546 47.02 117.931 47.152 118.425 47.152Z" fill="#E5E5E5"/>
<path d="M126.194 37.039V39.235H127.666V40.031H126.194V45.751C126.194 46.048 126.219 46.288 126.27 46.471C126.32 46.654 126.388 46.796 126.472 46.897C126.557 46.998 126.654 47.065 126.762 47.1C126.871 47.134 126.986 47.151 127.108 47.151C127.225 47.151 127.339 47.142 127.45 47.123C127.561 47.105 127.659 47.087 127.744 47.071L127.768 47.867C127.673 47.91 127.547 47.943 127.39 47.967C127.234 47.991 127.07 48.003 126.901 48.003C126.673 48.003 126.462 47.966 126.269 47.892C126.075 47.817 125.907 47.693 125.764 47.518C125.621 47.343 125.509 47.111 125.43 46.822C125.351 46.533 125.311 46.173 125.311 45.744V40.031H123.982V39.235H125.311V37.039H126.194V37.039Z" fill="#E5E5E5"/>
<path d="M130.456 36.753C130.456 36.573 130.506 36.419 130.608 36.292C130.709 36.165 130.852 36.101 131.037 36.101C131.223 36.101 131.367 36.164 131.471 36.292C131.575 36.419 131.626 36.573 131.626 36.753C131.626 36.933 131.575 37.086 131.471 37.211C131.367 37.335 131.223 37.398 131.037 37.398C130.852 37.398 130.709 37.336 130.608 37.211C130.507 37.086 130.456 36.933 130.456 36.753ZM131.475 47.844H130.584V39.236H131.475V47.844Z" fill="#E5E5E5"/>
<path d="M137.097 46.46L139.213 39.236H140.12L137.439 47.844H136.739L134.042 39.236H134.949L137.097 46.46Z" fill="#E5E5E5"/>
<path d="M145.359 48.003C144.882 48.003 144.444 47.925 144.047 47.768C143.649 47.612 143.305 47.373 143.017 47.052C142.727 46.731 142.504 46.327 142.344 45.839C142.185 45.351 142.105 44.773 142.105 44.105V43.126C142.105 42.405 142.19 41.788 142.36 41.276C142.529 40.764 142.756 40.345 143.04 40.019C143.324 39.693 143.653 39.454 144.027 39.303C144.401 39.152 144.795 39.076 145.208 39.076C146.152 39.076 146.87 39.388 147.36 40.011C147.85 40.634 148.096 41.588 148.096 42.871V43.619H142.981V44.104C142.981 44.629 143.039 45.085 143.156 45.472C143.273 45.859 143.437 46.18 143.649 46.435C143.861 46.689 144.116 46.879 144.413 47.003C144.71 47.128 145.039 47.19 145.4 47.19C145.845 47.19 146.232 47.114 146.562 46.963C146.891 46.812 147.19 46.577 147.461 46.259L147.923 46.848C147.806 47.007 147.669 47.155 147.513 47.293C147.356 47.431 147.173 47.553 146.964 47.659C146.754 47.765 146.517 47.849 146.252 47.91C145.985 47.972 145.689 48.003 145.359 48.003ZM145.208 39.904C144.895 39.904 144.608 39.957 144.345 40.063C144.082 40.169 143.854 40.338 143.66 40.568C143.466 40.799 143.311 41.097 143.195 41.463C143.078 41.829 143.01 42.272 142.988 42.792H147.213V42.561C147.202 42.142 147.154 41.768 147.07 41.439C146.985 41.11 146.862 40.832 146.7 40.604C146.538 40.376 146.332 40.202 146.083 40.083C145.834 39.963 145.542 39.904 145.208 39.904Z" fill="#E5E5E5"/>
<path d="M161.299 43.945C161.299 44.64 161.237 45.242 161.112 45.751C160.987 46.26 160.808 46.682 160.575 47.016C160.341 47.35 160.053 47.598 159.708 47.76C159.363 47.922 158.973 48.003 158.538 48.003C158.018 48.003 157.574 47.898 157.205 47.689C156.836 47.479 156.535 47.186 156.302 46.81V51.154H155.427V39.236H156.239L156.279 40.414C156.517 39.995 156.82 39.667 157.186 39.431C157.552 39.195 157.995 39.077 158.515 39.077C158.96 39.077 159.356 39.154 159.701 39.308C160.046 39.461 160.337 39.703 160.576 40.032C160.815 40.361 160.995 40.781 161.117 41.293C161.239 41.805 161.3 42.422 161.3 43.143V43.945H161.299ZM160.416 43.142C160.416 42.039 160.245 41.227 159.903 40.707C159.561 40.187 159.027 39.927 158.3 39.927C158.029 39.927 157.787 39.966 157.572 40.043C157.357 40.119 157.169 40.225 157.007 40.357C156.845 40.49 156.707 40.641 156.593 40.81C156.479 40.98 156.382 41.16 156.303 41.351V45.886C156.388 46.071 156.492 46.244 156.617 46.403C156.741 46.562 156.886 46.7 157.051 46.817C157.215 46.934 157.402 47.024 157.612 47.088C157.821 47.151 158.057 47.183 158.316 47.183C159.032 47.183 159.561 46.919 159.903 46.391C160.245 45.863 160.416 45.048 160.416 43.944V43.142Z" fill="#E5E5E5"/>
<path d="M168.799 47.844C168.756 47.701 168.722 47.522 168.695 47.307C168.668 47.092 168.649 46.873 168.639 46.65C168.528 46.831 168.395 47.002 168.241 47.163C168.087 47.325 167.911 47.468 167.712 47.593C167.514 47.718 167.292 47.817 167.048 47.892C166.804 47.966 166.542 48.003 166.261 48.003C165.906 48.003 165.583 47.952 165.294 47.851C165.005 47.75 164.757 47.599 164.55 47.398C164.343 47.197 164.184 46.944 164.073 46.642C163.962 46.339 163.906 45.987 163.906 45.584C163.906 45.186 163.975 44.819 164.113 44.482C164.251 44.145 164.456 43.854 164.729 43.61C165.002 43.366 165.343 43.175 165.752 43.037C166.161 42.899 166.635 42.83 167.176 42.83H168.632V41.629C168.632 41.014 168.48 40.572 168.175 40.304C167.87 40.036 167.423 39.902 166.834 39.902C166.558 39.902 166.305 39.945 166.074 40.029C165.843 40.114 165.645 40.232 165.481 40.383C165.316 40.534 165.189 40.715 165.098 40.924C165.008 41.134 164.963 41.363 164.963 41.613L164.08 41.605C164.08 41.271 164.146 40.951 164.278 40.646C164.411 40.341 164.599 40.072 164.843 39.839C165.087 39.606 165.381 39.42 165.726 39.282C166.07 39.144 166.453 39.075 166.872 39.075C167.259 39.075 167.613 39.122 167.934 39.214C168.256 39.306 168.533 39.455 168.766 39.659C168.999 39.863 169.181 40.128 169.311 40.454C169.441 40.78 169.506 41.177 169.506 41.644V46.036C169.506 46.185 169.511 46.338 169.522 46.497C169.532 46.656 169.547 46.811 169.566 46.962C169.585 47.113 169.608 47.256 169.638 47.392C169.667 47.527 169.7 47.645 169.737 47.746V47.841H168.799V47.844ZM166.372 47.152C166.648 47.152 166.906 47.114 167.148 47.037C167.389 46.96 167.605 46.854 167.796 46.719C167.987 46.584 168.153 46.426 168.293 46.245C168.433 46.065 168.546 45.871 168.631 45.664V43.571H167.302C166.469 43.571 165.844 43.746 165.424 44.096C165.005 44.446 164.796 44.918 164.796 45.512C164.796 46.08 164.935 46.495 165.214 46.757C165.493 47.02 165.879 47.152 166.372 47.152Z" fill="#E5E5E5"/>
<path d="M176.186 40.063C176.095 40.047 176.007 40.034 175.919 40.023C175.832 40.013 175.735 40.008 175.629 40.008C175.369 40.008 175.134 40.054 174.925 40.147C174.716 40.24 174.531 40.37 174.372 40.537C174.213 40.704 174.077 40.905 173.962 41.138C173.848 41.371 173.76 41.626 173.696 41.902V47.845H172.813V39.237H173.68L173.696 40.526C173.892 40.075 174.152 39.721 174.476 39.464C174.8 39.207 175.197 39.078 175.67 39.078C175.765 39.078 175.866 39.089 175.973 39.11C176.079 39.131 176.156 39.155 176.203 39.182L176.186 40.063Z" fill="#E5E5E5"/>
<path d="M180.362 37.039V39.235H181.834V40.031H180.362V45.751C180.362 46.048 180.387 46.288 180.438 46.471C180.488 46.654 180.556 46.796 180.64 46.897C180.725 46.998 180.822 47.065 180.931 47.1C181.04 47.134 181.155 47.151 181.277 47.151C181.394 47.151 181.508 47.142 181.619 47.123C181.73 47.105 181.828 47.087 181.913 47.071L181.937 47.867C181.842 47.91 181.716 47.943 181.559 47.967C181.403 47.991 181.239 48.003 181.07 48.003C180.842 48.003 180.631 47.966 180.438 47.892C180.244 47.817 180.076 47.693 179.933 47.518C179.79 47.343 179.678 47.111 179.599 46.822C179.52 46.533 179.48 46.173 179.48 45.744V40.031H178.151V39.235H179.48V37.039H180.362V37.039Z" fill="#E5E5E5"/>
<path d="M185.498 39.235L185.522 40.603C185.777 40.136 186.101 39.765 186.497 39.489C186.892 39.213 187.342 39.075 187.846 39.075C188.207 39.075 188.529 39.134 188.812 39.25C189.095 39.366 189.337 39.552 189.536 39.807C189.734 40.062 189.888 40.389 189.993 40.789C190.1 41.189 190.153 41.674 190.153 42.241V47.842H189.278V42.233C189.278 41.792 189.239 41.424 189.163 41.127C189.085 40.83 188.976 40.593 188.833 40.415C188.69 40.237 188.516 40.11 188.312 40.033C188.108 39.956 187.878 39.918 187.624 39.918C187.359 39.918 187.116 39.972 186.896 40.081C186.676 40.189 186.479 40.334 186.303 40.514C186.128 40.695 185.977 40.901 185.85 41.135C185.723 41.368 185.619 41.612 185.54 41.867V47.842H184.657V39.234H185.498V39.235Z" fill="#E5E5E5"/>
<path d="M196.235 48.003C195.758 48.003 195.32 47.925 194.922 47.768C194.524 47.612 194.181 47.373 193.892 47.052C193.603 46.731 193.379 46.327 193.219 45.839C193.06 45.351 192.981 44.773 192.981 44.105V43.126C192.981 42.405 193.065 41.788 193.236 41.276C193.405 40.764 193.632 40.345 193.916 40.019C194.2 39.693 194.529 39.454 194.903 39.303C195.277 39.152 195.671 39.076 196.084 39.076C197.028 39.076 197.746 39.388 198.236 40.011C198.727 40.634 198.972 41.588 198.972 42.871V43.619H193.857V44.104C193.857 44.629 193.916 45.085 194.032 45.472C194.149 45.859 194.313 46.18 194.525 46.435C194.738 46.689 194.992 46.879 195.289 47.003C195.586 47.128 195.915 47.19 196.276 47.19C196.721 47.19 197.109 47.114 197.438 46.963C197.766 46.812 198.066 46.577 198.337 46.259L198.798 46.848C198.681 47.007 198.545 47.155 198.388 47.293C198.232 47.431 198.049 47.553 197.839 47.659C197.629 47.765 197.392 47.849 197.127 47.91C196.861 47.972 196.564 48.003 196.235 48.003ZM196.084 39.904C195.771 39.904 195.484 39.957 195.221 40.063C194.959 40.169 194.731 40.338 194.537 40.568C194.343 40.799 194.188 41.097 194.071 41.463C193.955 41.829 193.886 42.272 193.865 42.792H198.089V42.561C198.078 42.142 198.031 41.768 197.946 41.439C197.861 41.11 197.738 40.832 197.576 40.604C197.414 40.376 197.209 40.202 196.96 40.083C196.71 39.963 196.418 39.904 196.084 39.904Z" fill="#E5E5E5"/>
<path d="M205.12 40.063C205.03 40.047 204.941 40.034 204.854 40.023C204.767 40.013 204.67 40.008 204.563 40.008C204.303 40.008 204.068 40.054 203.859 40.147C203.649 40.24 203.465 40.37 203.306 40.537C203.147 40.704 203.011 40.905 202.896 41.138C202.782 41.371 202.693 41.626 202.63 41.902V47.845H201.747V39.237H202.614L202.63 40.526C202.826 40.075 203.086 39.721 203.41 39.464C203.733 39.207 204.131 39.078 204.603 39.078C204.699 39.078 204.8 39.089 204.906 39.11C205.012 39.131 205.089 39.155 205.137 39.182L205.12 40.063Z" fill="#E5E5E5"/>
<path d="M211.872 45.728C211.872 45.553 211.839 45.389 211.773 45.235C211.706 45.081 211.598 44.933 211.447 44.79C211.296 44.647 211.097 44.501 210.851 44.352C210.604 44.204 210.298 44.045 209.932 43.875C209.539 43.7 209.189 43.532 208.881 43.37C208.574 43.208 208.315 43.034 208.105 42.845C207.896 42.657 207.735 42.445 207.624 42.208C207.513 41.972 207.457 41.692 207.457 41.368C207.457 41.05 207.516 40.752 207.636 40.473C207.756 40.195 207.927 39.952 208.149 39.745C208.372 39.538 208.642 39.375 208.961 39.256C209.279 39.136 209.634 39.077 210.027 39.077C210.446 39.077 210.823 39.139 211.157 39.264C211.491 39.389 211.774 39.562 212.004 39.785C212.234 40.008 212.411 40.275 212.533 40.585C212.655 40.895 212.716 41.233 212.716 41.599H211.833C211.833 41.376 211.793 41.163 211.713 40.958C211.634 40.754 211.517 40.574 211.363 40.417C211.209 40.261 211.021 40.136 210.798 40.043C210.575 39.95 210.318 39.904 210.026 39.904C209.723 39.904 209.466 39.945 209.254 40.027C209.041 40.109 208.867 40.218 208.729 40.353C208.591 40.489 208.491 40.643 208.427 40.814C208.363 40.987 208.332 41.16 208.332 41.335C208.332 41.51 208.359 41.665 208.411 41.8C208.464 41.935 208.561 42.066 208.701 42.194C208.841 42.321 209.031 42.453 209.27 42.588C209.509 42.723 209.816 42.881 210.193 43.061C210.591 43.236 210.949 43.406 211.267 43.57C211.586 43.735 211.855 43.916 212.075 44.115C212.295 44.313 212.465 44.538 212.584 44.787C212.703 45.036 212.763 45.334 212.763 45.678C212.763 46.033 212.699 46.354 212.572 46.641C212.445 46.927 212.263 47.171 212.027 47.373C211.791 47.574 211.507 47.729 211.176 47.838C210.844 47.946 210.477 48.001 210.074 48.001C209.607 48.001 209.196 47.933 208.84 47.798C208.485 47.662 208.186 47.481 207.945 47.253C207.704 47.025 207.521 46.76 207.396 46.457C207.271 46.154 207.209 45.834 207.209 45.494H208.1C208.116 45.833 208.186 46.112 208.311 46.329C208.435 46.546 208.591 46.719 208.776 46.846C208.961 46.973 209.169 47.061 209.397 47.108C209.625 47.156 209.851 47.18 210.073 47.18C210.365 47.18 210.623 47.142 210.849 47.065C211.074 46.988 211.263 46.885 211.414 46.755C211.565 46.625 211.679 46.471 211.756 46.294C211.834 46.119 211.872 45.929 211.872 45.728Z" fill="#E5E5E5"/>
<path d="M15.0502 28.775C7.20823 28.775 0.78125 22.388 0.78125 14.506C0.78125 6.62398 7.20823 0.237 15.0502 0.237C19.1732 0.237 23.0942 2.01501 25.8022 5.08801C26.2872 5.65401 26.2062 6.46298 25.6812 6.90698C25.1552 7.39198 24.3472 7.35097 23.8612 6.78497C21.6382 4.23897 18.4453 2.784 15.0493 2.784C8.62226 2.784 3.36725 8.03898 3.36725 14.506C3.36725 20.933 8.62226 26.188 15.0493 26.188C18.2833 26.188 21.3552 24.854 23.5372 22.55V16.81H16.0592C15.3322 16.81 14.7653 16.244 14.7653 15.516C14.7653 14.788 15.3312 14.223 16.0592 14.223H24.8312C25.5592 14.223 26.1252 14.789 26.1252 15.516V23.035C26.1252 23.358 26.0042 23.641 25.8022 23.884C23.0932 26.996 19.1722 28.775 15.0502 28.775Z" fill="#E5E5E5"/>
<path d="M42.4175 28.775C36.1115 28.775 30.9775 23.641 30.9775 17.295V1.53003C30.9775 0.802029 31.5446 0.236023 32.2306 0.236023C32.9586 0.236023 33.5245 0.802029 33.5245 1.53003V17.294C33.5245 22.226 37.5265 26.187 42.4175 26.187C47.3495 26.187 51.3105 22.226 51.3105 17.294V1.53003C51.3105 0.802029 51.8765 0.236023 52.6035 0.236023C53.3315 0.236023 53.8976 0.802029 53.8976 1.53003V17.294C53.8976 23.641 48.7635 28.775 42.4175 28.775Z" fill="#E5E5E5"/>
<path d="M59.8409 28.775C59.1129 28.775 58.5469 28.209 58.5469 27.481V1.53003C58.5469 0.802029 59.1129 0.236023 59.8409 0.236023C60.5679 0.236023 61.1339 0.802029 61.1339 1.53003V27.481C61.1339 28.209 60.5679 28.775 59.8409 28.775Z" fill="#E5E5E5"/>
<path d="M73.6252 28.775H67.0762C66.3482 28.775 65.7832 28.209 65.7832 27.481V1.53003C65.7832 0.802029 66.3492 0.236023 67.0762 0.236023H73.6252C81.5072 0.236023 87.8942 6.623 87.8942 14.505C87.8942 22.387 81.5072 28.775 73.6252 28.775ZM68.3692 26.188H73.6242C80.0912 26.188 85.3462 20.933 85.3462 14.506C85.3462 8.03898 80.0912 2.784 73.6242 2.784H68.3692V26.188Z" fill="#E5E5E5"/>
<path d="M111.865 27.481C111.865 28.209 111.259 28.775 110.572 28.775H93.6348C92.9068 28.775 92.3418 28.209 92.3418 27.481V1.53003C92.3418 0.802029 92.9078 0.236023 93.6348 0.236023H110.572C111.259 0.236023 111.865 0.802029 111.865 1.53003C111.865 2.21703 111.259 2.78302 110.572 2.78302H94.9278V12.605H106.206C106.894 12.605 107.5 13.171 107.5 13.858C107.5 14.586 106.894 15.152 106.206 15.152H94.9278V26.187H110.572C111.259 26.188 111.865 26.794 111.865 27.481Z" fill="#E5E5E5"/>
<path d="M136.403 10.625C136.403 16.324 131.795 20.932 126.136 20.932H120.598V26.389C120.598 27.723 119.547 28.774 118.254 28.774C116.961 28.774 115.91 27.723 115.91 26.389V2.70203C115.91 1.40803 116.961 0.356995 118.254 0.356995H126.136C131.795 0.356995 136.403 4.966 136.403 10.625ZM131.714 10.625C131.714 7.553 129.208 5.08698 126.136 5.08698H120.598V16.203H126.136C129.208 16.203 131.714 13.737 131.714 10.625Z" fill="#E5E5E5"/>
<path d="M153.827 28.775C145.985 28.775 139.639 22.429 139.639 14.587C139.639 6.78498 145.985 0.398987 153.827 0.398987C161.629 0.398987 168.015 6.78597 168.015 14.587C168.016 22.428 161.629 28.775 153.827 28.775ZM153.827 5.08698C148.572 5.08698 144.328 9.372 144.328 14.586C144.328 19.841 148.572 24.085 153.827 24.085C159.041 24.085 163.326 19.841 163.326 14.586C163.327 9.372 159.042 5.08698 153.827 5.08698Z" fill="#E5E5E5"/>
<path d="M180.507 28.775C176.95 28.775 174.808 27.279 173.595 26.067C172.1 24.49 171.251 22.388 171.251 20.246C171.251 18.952 172.302 17.902 173.595 17.902C174.889 17.902 175.939 18.953 175.939 20.246C175.939 21.661 176.909 24.086 180.507 24.086C184.105 24.086 185.075 21.661 185.075 20.246C185.075 18.103 183.903 17.457 179.942 16.325C178.163 15.8 176.344 15.274 174.848 14.223C172.827 12.848 171.816 10.908 171.816 8.40198C171.816 6.38098 172.624 4.40001 173.999 2.94501C175.131 1.77301 177.192 0.398987 180.507 0.398987C183.862 0.398987 185.883 1.77301 187.015 2.94501C188.43 4.40101 189.238 6.38098 189.238 8.40198C189.238 9.69498 188.187 10.746 186.853 10.746C185.56 10.746 184.509 9.69498 184.509 8.40198C184.509 7.18898 183.66 5.08698 180.507 5.08698C177.354 5.08698 176.505 7.18898 176.505 8.40198C176.505 9.97898 177.112 10.585 181.235 11.798C183.094 12.323 185.034 12.889 186.611 14.021C188.713 15.477 189.764 17.578 189.764 20.246C189.764 22.388 188.915 24.49 187.42 26.067C186.247 27.279 184.064 28.775 180.507 28.775Z" fill="#E5E5E5"/>
<path d="M213.654 2.742C213.654 4.036 212.603 5.086 211.31 5.086H204.883V26.429C204.883 27.722 203.832 28.773 202.498 28.773C201.204 28.773 200.154 27.722 200.154 26.429V5.086H193.727C192.433 5.086 191.382 4.035 191.382 2.742C191.382 1.449 192.433 0.39801 193.727 0.39801H211.31C212.603 0.39801 213.654 1.449 213.654 2.742Z" fill="#E5E5E5"/>
</svg>
