<svg width="144" height="127" viewBox="0 0 144 127" fill="none" xmlns="http://www.w3.org/2000/svg">
<path d="M63.4706 122.988C96.4668 122.988 123.216 96.2393 123.216 63.243C123.216 30.2468 96.4668 3.49799 63.4706 3.49799C30.4743 3.49799 3.72559 30.2468 3.72559 63.243C3.72559 96.2393 30.4743 122.988 63.4706 122.988Z" fill="#E5E5E5"/>
<path d="M45.583 46.781L57.818 53.845V22.148L45.583 17.291V46.781Z" fill="#4FB0BB"/>
<path d="M101.592 77.256L65.2627 97.993V114.985L88.4447 101.221V101.272L100.006 94.566V94.483L106.699 84.696L101.592 77.256Z" fill="#1B708A"/>
<path d="M21.2646 59.389L29.0006 70.045L47.3476 80.606L57.8186 86.635V83.0959V65.166L29.0006 48.655L21.2646 59.389Z" fill="#4FB0BB"/>
<path d="M88.0961 22.148H65.2621L65.2461 33.621L88.0961 33.322V22.148Z" fill="#4FB0BB"/>
<path d="M47.3477 92.8361V120.785C50.7267 121.73 54.2267 122.384 57.8197 122.721V98.799L47.3477 92.8361Z" fill="#4FB0BB"/>
<path d="M63.4703 126.1C28.8113 126.1 0.614258 97.903 0.614258 63.243C0.614258 28.584 28.8113 0.385986 63.4703 0.385986C98.1293 0.385986 126.327 28.583 126.327 63.243C126.327 64.874 126.265 66.491 126.142 68.092C123.658 100.494 96.4983 126.1 63.4703 126.1ZM63.4703 6.60901C32.2423 6.60901 6.83626 32.015 6.83626 63.243C6.83626 94.471 32.2423 119.877 63.4703 119.877C94.6983 119.877 120.105 94.471 120.105 63.243C120.105 32.015 94.6983 6.60901 63.4703 6.60901Z" fill="#1B708A"/>
<path d="M133.295 37.821L65.2627 42.9399V88.302L72.7137 83.984V60.5389L133.295 65.656L143.163 53.163L133.295 37.821Z" fill="#D83830"/>
</svg>
