<svg width="216" height="54" viewBox="0 0 216 54" fill="none" xmlns="http://www.w3.org/2000/svg">
<path d="M69.3682 35.756C69.3682 35.632 69.4032 35.527 69.4722 35.439C69.5412 35.352 69.6402 35.308 69.7682 35.308C69.8962 35.308 69.9952 35.352 70.0672 35.439C70.1382 35.526 70.1742 35.632 70.1742 35.756C70.1742 35.88 70.1382 35.985 70.0672 36.07C69.9962 36.156 69.8962 36.198 69.7682 36.198C69.6402 36.198 69.5412 36.155 69.4722 36.07C69.4032 35.984 69.3682 35.879 69.3682 35.756ZM70.0702 43.372H69.4561V37.46H70.0702V43.372Z" fill="#E5E5E5"/>
<path d="M72.9521 37.46L72.9681 38.4C73.1441 38.08 73.3671 37.824 73.6401 37.635C73.9121 37.446 74.2221 37.351 74.5691 37.351C74.8181 37.351 75.0401 37.391 75.2351 37.471C75.4311 37.551 75.5971 37.679 75.7341 37.853C75.8711 38.027 75.9761 38.253 76.0491 38.528C76.1221 38.803 76.1591 39.135 76.1591 39.525V43.371H75.5561V39.519C75.5561 39.217 75.5301 38.964 75.4771 38.76C75.4241 38.556 75.3481 38.393 75.2501 38.271C75.1511 38.149 75.0321 38.062 74.8911 38.009C74.7501 37.956 74.5921 37.93 74.4171 37.93C74.2341 37.93 74.0671 37.967 73.9151 38.042C73.7631 38.117 73.6271 38.216 73.5071 38.34C73.3861 38.464 73.2821 38.606 73.1951 38.766C73.1071 38.926 73.0361 39.094 72.9811 39.269V43.372H72.3721V37.46H72.9521V37.46Z" fill="#E5E5E5"/>
<path d="M78.1739 40.143C78.1739 39.648 78.2189 39.224 78.3079 38.873C78.3979 38.522 78.5259 38.233 78.6949 38.007C78.8629 37.781 79.0668 37.615 79.3058 37.51C79.5448 37.404 79.8129 37.352 80.1089 37.352C80.4629 37.352 80.7639 37.431 81.0109 37.59C81.2579 37.748 81.4599 37.97 81.6169 38.254V34.981H82.2249V43.373H81.6548L81.6279 42.614C81.4709 42.887 81.2668 43.1 81.0168 43.253C80.7668 43.406 80.4619 43.482 80.1039 43.482C79.8079 43.482 79.5409 43.426 79.3029 43.315C79.0649 43.204 78.8629 43.034 78.6969 42.804C78.5309 42.575 78.4018 42.285 78.3098 41.935C78.2188 41.585 78.1729 41.172 78.1729 40.695V40.143H78.1739ZM78.7939 40.695C78.7939 41.453 78.9078 42.01 79.1368 42.367C79.3658 42.724 79.7279 42.902 80.2249 42.902C80.4039 42.902 80.5659 42.879 80.7099 42.834C80.8539 42.788 80.9838 42.725 81.0988 42.643C81.2138 42.561 81.3139 42.465 81.3979 42.353C81.4819 42.242 81.5549 42.121 81.6169 41.99V38.925C81.5619 38.794 81.4938 38.668 81.4138 38.548C81.3338 38.428 81.2379 38.323 81.1259 38.234C81.0149 38.145 80.8848 38.073 80.7368 38.018C80.5888 37.963 80.4199 37.936 80.2299 37.936C79.7289 37.936 79.3649 38.115 79.1359 38.474C78.9079 38.833 78.7928 39.389 78.7928 40.143V40.695H78.7939Z" fill="#E5E5E5"/>
<path d="M86.4451 43.481C86.1161 43.481 85.8151 43.427 85.5401 43.32C85.2661 43.213 85.0291 43.049 84.8301 42.828C84.6311 42.608 84.4761 42.33 84.3671 41.995C84.2571 41.66 84.2031 41.263 84.2031 40.804V40.132C84.2031 39.637 84.2611 39.213 84.3781 38.862C84.4951 38.51 84.6511 38.223 84.8471 37.999C85.0431 37.775 85.2691 37.611 85.5271 37.507C85.7851 37.403 86.0561 37.351 86.3411 37.351C86.9921 37.351 87.4861 37.565 87.8241 37.993C88.1621 38.421 88.3311 39.076 88.3311 39.957V40.471H84.8061V40.804C84.8061 41.165 84.8461 41.478 84.9271 41.744C85.0071 42.01 85.1211 42.23 85.2671 42.405C85.4131 42.58 85.5891 42.71 85.7931 42.796C85.9981 42.882 86.2241 42.924 86.4731 42.924C86.7801 42.924 87.0471 42.872 87.2731 42.768C87.5001 42.664 87.7061 42.503 87.8931 42.284L88.2111 42.688C88.1311 42.797 88.0361 42.899 87.9291 42.994C87.8211 43.089 87.6951 43.172 87.5511 43.245C87.4071 43.318 87.2431 43.375 87.0611 43.417C86.8771 43.46 86.6721 43.481 86.4451 43.481ZM86.3411 37.919C86.1251 37.919 85.9271 37.955 85.7461 38.028C85.5651 38.101 85.4081 38.217 85.2751 38.375C85.1411 38.533 85.0351 38.738 84.9541 38.99C84.8741 39.241 84.8261 39.546 84.8111 39.902H87.7221V39.744C87.7151 39.456 87.6821 39.2 87.6231 38.974C87.5651 38.748 87.4791 38.557 87.3681 38.4C87.2571 38.243 87.1151 38.124 86.9431 38.042C86.7731 37.96 86.5721 37.919 86.3411 37.919Z" fill="#E5E5E5"/>
<path d="M94.2891 40.695C94.2891 41.172 94.2461 41.586 94.1601 41.935C94.0741 42.285 93.9511 42.574 93.7901 42.804C93.6291 43.033 93.4301 43.204 93.1931 43.315C92.9551 43.426 92.6871 43.482 92.3871 43.482C92.0291 43.482 91.7231 43.41 91.4691 43.266C91.2151 43.122 91.0081 42.921 90.8471 42.662V45.645H90.2441V37.46H90.8031L90.8301 38.269C90.9951 37.981 91.2031 37.756 91.4551 37.594C91.7071 37.432 92.0121 37.351 92.3711 37.351C92.6781 37.351 92.9501 37.404 93.1881 37.509C93.4261 37.615 93.6271 37.78 93.7911 38.006C93.9551 38.232 94.0801 38.521 94.1641 38.872C94.2481 39.224 94.2901 39.647 94.2901 40.142V40.695H94.2891ZM93.6801 40.143C93.6801 39.385 93.5621 38.828 93.3271 38.471C93.0911 38.114 92.7231 37.936 92.2221 37.936C92.0351 37.936 91.8681 37.962 91.7201 38.015C91.5721 38.068 91.4421 38.14 91.3311 38.231C91.2201 38.322 91.1251 38.426 91.0461 38.542C90.9671 38.659 90.9011 38.782 90.8461 38.914V42.028C90.9041 42.156 90.9771 42.274 91.0631 42.383C91.1491 42.492 91.2491 42.587 91.3621 42.667C91.4751 42.747 91.6041 42.809 91.7491 42.853C91.8941 42.897 92.0551 42.919 92.2341 42.919C92.7271 42.919 93.0921 42.738 93.3281 42.375C93.5641 42.013 93.6811 41.453 93.6811 40.695V40.143H93.6801Z" fill="#E5E5E5"/>
<path d="M98.2781 43.481C97.9491 43.481 97.6481 43.427 97.3731 43.32C97.0991 43.213 96.8621 43.049 96.6631 42.828C96.4641 42.608 96.3091 42.33 96.2001 41.995C96.0901 41.66 96.0361 41.263 96.0361 40.804V40.132C96.0361 39.637 96.0941 39.213 96.2111 38.862C96.3281 38.51 96.4841 38.223 96.6801 37.999C96.8751 37.775 97.1021 37.611 97.3601 37.507C97.6181 37.403 97.8891 37.351 98.1741 37.351C98.8251 37.351 99.3191 37.565 99.6571 37.993C99.9951 38.421 100.164 39.076 100.164 39.957V40.471H96.6391V40.804C96.6391 41.165 96.6791 41.478 96.7601 41.744C96.8401 42.01 96.9541 42.23 97.1001 42.405C97.2461 42.58 97.4221 42.71 97.6261 42.796C97.8311 42.882 98.0571 42.924 98.3061 42.924C98.6131 42.924 98.8801 42.872 99.1061 42.768C99.3331 42.664 99.5391 42.503 99.7261 42.284L100.044 42.688C99.9642 42.797 99.8691 42.899 99.7621 42.994C99.6541 43.089 99.5281 43.172 99.3841 43.245C99.2401 43.318 99.0762 43.375 98.8932 43.417C98.7102 43.46 98.5051 43.481 98.2781 43.481ZM98.1741 37.919C97.9581 37.919 97.7601 37.955 97.5791 38.028C97.3981 38.101 97.2411 38.217 97.1081 38.375C96.9741 38.533 96.8681 38.738 96.7871 38.99C96.7071 39.241 96.6591 39.546 96.6441 39.902H99.5551V39.744C99.5481 39.456 99.5151 39.2 99.4561 38.974C99.3981 38.748 99.3121 38.557 99.2011 38.4C99.0901 38.243 98.9482 38.124 98.7762 38.042C98.6052 37.96 98.4041 37.919 98.1741 37.919Z" fill="#E5E5E5"/>
<path d="M102.657 37.46L102.673 38.4C102.848 38.08 103.072 37.824 103.345 37.635C103.617 37.446 103.927 37.351 104.274 37.351C104.522 37.351 104.745 37.391 104.94 37.471C105.135 37.551 105.302 37.679 105.439 37.853C105.576 38.028 105.681 38.253 105.754 38.528C105.827 38.803 105.864 39.135 105.864 39.525V43.371H105.261V39.519C105.261 39.217 105.235 38.964 105.182 38.76C105.129 38.556 105.053 38.393 104.954 38.271C104.855 38.149 104.736 38.062 104.595 38.009C104.454 37.956 104.296 37.93 104.121 37.93C103.938 37.93 103.771 37.967 103.619 38.042C103.467 38.117 103.331 38.216 103.211 38.34C103.09 38.464 102.986 38.606 102.898 38.766C102.81 38.926 102.739 39.094 102.684 39.269V43.372H102.075V37.46H102.657V37.46Z" fill="#E5E5E5"/>
<path d="M107.88 40.143C107.88 39.648 107.925 39.224 108.014 38.873C108.104 38.522 108.232 38.233 108.401 38.007C108.569 37.781 108.773 37.615 109.012 37.51C109.251 37.404 109.519 37.352 109.815 37.352C110.169 37.352 110.47 37.431 110.717 37.59C110.964 37.748 111.166 37.97 111.323 38.254V34.981H111.932V43.373H111.362L111.335 42.614C111.178 42.887 110.974 43.1 110.724 43.253C110.474 43.406 110.169 43.482 109.811 43.482C109.515 43.482 109.248 43.426 109.01 43.315C108.772 43.204 108.57 43.034 108.404 42.804C108.238 42.575 108.109 42.285 108.017 41.935C107.926 41.585 107.88 41.172 107.88 40.695V40.143ZM108.499 40.695C108.499 41.453 108.613 42.01 108.842 42.367C109.07 42.724 109.433 42.902 109.93 42.902C110.109 42.902 110.271 42.879 110.415 42.834C110.56 42.788 110.689 42.725 110.804 42.643C110.919 42.561 111.019 42.465 111.103 42.353C111.187 42.242 111.26 42.121 111.322 41.99V38.925C111.267 38.794 111.2 38.668 111.119 38.548C111.038 38.428 110.943 38.323 110.831 38.234C110.719 38.145 110.59 38.073 110.442 38.018C110.294 37.963 110.125 37.936 109.935 37.936C109.434 37.936 109.07 38.115 108.841 38.474C108.612 38.833 108.498 39.389 108.498 40.143V40.695H108.499Z" fill="#E5E5E5"/>
<path d="M116.151 43.481C115.822 43.481 115.521 43.427 115.246 43.32C114.972 43.213 114.735 43.049 114.536 42.828C114.337 42.608 114.182 42.33 114.072 41.995C113.963 41.66 113.908 41.263 113.908 40.804V40.132C113.908 39.637 113.966 39.213 114.083 38.862C114.2 38.51 114.356 38.223 114.552 37.999C114.747 37.775 114.974 37.611 115.232 37.507C115.49 37.403 115.761 37.351 116.046 37.351C116.696 37.351 117.191 37.565 117.529 37.993C117.867 38.421 118.036 39.076 118.036 39.957V40.471H114.511V40.804C114.511 41.165 114.551 41.478 114.632 41.744C114.712 42.01 114.826 42.23 114.972 42.405C115.118 42.58 115.294 42.71 115.498 42.796C115.703 42.882 115.929 42.924 116.178 42.924C116.485 42.924 116.752 42.872 116.978 42.768C117.205 42.664 117.411 42.503 117.598 42.284L117.916 42.688C117.836 42.797 117.741 42.899 117.634 42.994C117.526 43.089 117.4 43.172 117.256 43.245C117.112 43.318 116.948 43.375 116.765 43.417C116.582 43.46 116.378 43.481 116.151 43.481ZM116.047 37.919C115.831 37.919 115.633 37.955 115.452 38.028C115.271 38.101 115.114 38.217 114.981 38.375C114.848 38.533 114.741 38.738 114.66 38.99C114.579 39.242 114.532 39.546 114.517 39.902H117.428V39.744C117.42 39.456 117.388 39.2 117.329 38.974C117.271 38.748 117.185 38.557 117.074 38.4C116.963 38.243 116.821 38.124 116.649 38.042C116.478 37.96 116.277 37.919 116.047 37.919Z" fill="#E5E5E5"/>
<path d="M120.529 37.46L120.546 38.4C120.721 38.08 120.945 37.824 121.218 37.635C121.49 37.446 121.8 37.351 122.147 37.351C122.396 37.351 122.618 37.391 122.813 37.471C123.008 37.551 123.175 37.679 123.312 37.853C123.449 38.028 123.554 38.253 123.627 38.528C123.7 38.803 123.737 39.135 123.737 39.525V43.371H123.134V39.519C123.134 39.217 123.108 38.964 123.055 38.76C123.002 38.556 122.926 38.393 122.828 38.271C122.729 38.149 122.61 38.062 122.469 38.009C122.328 37.956 122.17 37.93 121.995 37.93C121.812 37.93 121.645 37.967 121.493 38.042C121.341 38.117 121.205 38.216 121.085 38.34C120.965 38.464 120.86 38.606 120.773 38.766C120.685 38.926 120.614 39.094 120.559 39.269V43.372H119.95V37.46H120.529V37.46Z" fill="#E5E5E5"/>
<path d="M126.887 35.952V37.46H127.901V38.006H126.887V41.934C126.887 42.138 126.904 42.303 126.939 42.428C126.974 42.554 127.02 42.651 127.079 42.72C127.137 42.789 127.204 42.836 127.279 42.859C127.354 42.883 127.433 42.895 127.517 42.895C127.598 42.895 127.676 42.889 127.753 42.876C127.83 42.863 127.897 42.851 127.956 42.841L127.972 43.387C127.906 43.416 127.819 43.439 127.712 43.455C127.604 43.471 127.492 43.48 127.375 43.48C127.218 43.48 127.073 43.455 126.939 43.404C126.806 43.353 126.689 43.267 126.591 43.147C126.492 43.027 126.415 42.867 126.361 42.669C126.306 42.471 126.279 42.224 126.279 41.929V38.006H125.363V37.46H126.279V35.952H126.887V35.952Z" fill="#E5E5E5"/>
<path d="M134.86 42.919C135.028 42.919 135.191 42.897 135.348 42.853C135.505 42.809 135.645 42.735 135.768 42.629C135.89 42.523 135.991 42.382 136.069 42.206C136.148 42.029 136.192 41.808 136.203 41.542H136.79C136.775 41.859 136.715 42.139 136.609 42.381C136.503 42.623 136.362 42.825 136.187 42.988C136.012 43.15 135.811 43.273 135.584 43.357C135.357 43.441 135.116 43.483 134.86 43.483C134.147 43.483 133.611 43.254 133.251 42.795C132.891 42.336 132.711 41.655 132.711 40.752V40.085C132.711 39.182 132.891 38.5 133.251 38.042C133.611 37.583 134.146 37.354 134.855 37.354C135.126 37.354 135.377 37.397 135.609 37.482C135.841 37.568 136.042 37.697 136.212 37.87C136.382 38.043 136.518 38.262 136.62 38.526C136.722 38.79 136.779 39.101 136.79 39.458H136.203C136.192 39.185 136.15 38.951 136.077 38.756C136.004 38.561 135.908 38.402 135.789 38.278C135.67 38.154 135.531 38.064 135.372 38.008C135.213 37.952 135.04 37.923 134.854 37.923C134.573 37.923 134.335 37.971 134.141 38.068C133.947 38.165 133.79 38.306 133.67 38.491C133.549 38.677 133.462 38.904 133.407 39.171C133.352 39.439 133.325 39.744 133.325 40.086V40.753C133.325 41.099 133.351 41.407 133.404 41.676C133.457 41.946 133.544 42.172 133.664 42.356C133.785 42.54 133.943 42.68 134.138 42.777C134.335 42.87 134.575 42.919 134.86 42.919Z" fill="#E5E5E5"/>
<path d="M141.021 38.029C140.959 38.018 140.898 38.009 140.837 38.002C140.777 37.995 140.71 37.991 140.637 37.991C140.458 37.991 140.296 38.023 140.152 38.087C140.008 38.151 139.881 38.24 139.771 38.355C139.661 38.47 139.567 38.607 139.489 38.768C139.41 38.928 139.349 39.103 139.305 39.293V43.374H138.696V37.462H139.294L139.305 38.347C139.44 38.037 139.619 37.794 139.842 37.618C140.065 37.441 140.339 37.353 140.664 37.353C140.73 37.353 140.799 37.36 140.872 37.375C140.945 37.39 140.998 37.406 141.031 37.424L141.021 38.029Z" fill="#E5E5E5"/>
<path d="M144.56 43.481C144.231 43.481 143.93 43.427 143.655 43.32C143.381 43.213 143.144 43.049 142.945 42.828C142.746 42.608 142.591 42.33 142.482 41.995C142.372 41.66 142.318 41.263 142.318 40.804V40.132C142.318 39.637 142.376 39.213 142.493 38.862C142.61 38.51 142.766 38.223 142.962 37.999C143.158 37.775 143.384 37.611 143.642 37.507C143.9 37.403 144.171 37.351 144.456 37.351C145.106 37.351 145.601 37.565 145.939 37.993C146.277 38.421 146.446 39.076 146.446 39.957V40.471H142.921V40.804C142.921 41.165 142.961 41.478 143.041 41.744C143.121 42.01 143.235 42.23 143.381 42.405C143.527 42.58 143.703 42.71 143.907 42.796C144.112 42.882 144.338 42.924 144.587 42.924C144.894 42.924 145.161 42.872 145.387 42.768C145.613 42.664 145.82 42.503 146.007 42.284L146.325 42.688C146.245 42.797 146.151 42.899 146.043 42.994C145.935 43.089 145.809 43.172 145.665 43.245C145.52 43.318 145.357 43.375 145.174 43.417C144.992 43.46 144.787 43.481 144.56 43.481ZM144.456 37.919C144.24 37.919 144.042 37.955 143.861 38.028C143.68 38.101 143.523 38.217 143.39 38.375C143.257 38.533 143.15 38.738 143.069 38.99C142.988 39.241 142.941 39.546 142.926 39.902H145.837V39.744C145.83 39.456 145.797 39.2 145.738 38.974C145.679 38.748 145.594 38.557 145.483 38.4C145.371 38.243 145.23 38.124 145.058 38.042C144.887 37.96 144.686 37.919 144.456 37.919Z" fill="#E5E5E5"/>
<path d="M151.494 43.372C151.465 43.274 151.441 43.151 151.423 43.003C151.405 42.856 151.392 42.705 151.385 42.552C151.308 42.676 151.217 42.793 151.111 42.904C151.005 43.015 150.884 43.114 150.746 43.199C150.609 43.285 150.456 43.353 150.288 43.404C150.12 43.455 149.939 43.48 149.745 43.48C149.5 43.48 149.278 43.445 149.079 43.376C148.88 43.307 148.709 43.203 148.566 43.065C148.423 42.927 148.314 42.754 148.237 42.546C148.16 42.338 148.122 42.096 148.122 41.819C148.122 41.546 148.169 41.294 148.265 41.062C148.36 40.831 148.502 40.631 148.69 40.464C148.878 40.296 149.113 40.165 149.394 40.071C149.675 39.976 150.003 39.929 150.375 39.929H151.378V39.104C151.378 38.681 151.273 38.378 151.063 38.194C150.853 38.01 150.545 37.918 150.139 37.918C149.949 37.918 149.774 37.947 149.615 38.005C149.456 38.063 149.32 38.144 149.207 38.248C149.094 38.352 149.006 38.476 148.944 38.62C148.882 38.764 148.851 38.921 148.851 39.093L148.242 39.088C148.242 38.859 148.288 38.639 148.379 38.43C148.47 38.221 148.6 38.036 148.768 37.875C148.936 37.715 149.139 37.587 149.377 37.493C149.615 37.398 149.878 37.351 150.166 37.351C150.433 37.351 150.677 37.383 150.898 37.447C151.119 37.511 151.31 37.613 151.471 37.753C151.632 37.893 151.757 38.075 151.847 38.299C151.937 38.523 151.981 38.795 151.981 39.116V42.132C151.981 42.234 151.985 42.34 151.992 42.449C151.999 42.558 152.009 42.665 152.022 42.769C152.035 42.873 152.051 42.971 152.071 43.064C152.091 43.157 152.114 43.238 152.14 43.307V43.373H151.494V43.372ZM149.822 42.897C150.012 42.897 150.19 42.871 150.357 42.818C150.523 42.765 150.672 42.692 150.804 42.599C150.936 42.506 151.05 42.398 151.147 42.274C151.244 42.15 151.321 42.017 151.38 41.875V40.438H150.464C149.89 40.438 149.459 40.558 149.17 40.799C148.881 41.039 148.737 41.364 148.737 41.772C148.737 42.162 148.833 42.447 149.025 42.627C149.216 42.807 149.482 42.897 149.822 42.897Z" fill="#E5E5E5"/>
<path d="M155.176 35.952V37.46H156.19V38.006H155.176V41.934C155.176 42.138 155.193 42.303 155.228 42.428C155.263 42.554 155.309 42.651 155.368 42.72C155.426 42.789 155.493 42.836 155.568 42.859C155.643 42.883 155.722 42.895 155.806 42.895C155.887 42.895 155.965 42.889 156.042 42.876C156.119 42.863 156.186 42.851 156.245 42.841L156.261 43.387C156.195 43.416 156.108 43.439 156.001 43.455C155.893 43.471 155.781 43.48 155.664 43.48C155.507 43.48 155.362 43.455 155.228 43.404C155.095 43.353 154.978 43.267 154.88 43.147C154.781 43.027 154.705 42.867 154.65 42.669C154.595 42.471 154.568 42.224 154.568 41.929V38.006H153.652V37.46H154.568V35.952H155.176V35.952Z" fill="#E5E5E5"/>
<path d="M158.113 35.756C158.113 35.632 158.148 35.527 158.217 35.439C158.286 35.352 158.385 35.308 158.513 35.308C158.641 35.308 158.741 35.352 158.812 35.439C158.883 35.526 158.919 35.632 158.919 35.756C158.919 35.88 158.883 35.985 158.812 36.07C158.741 36.156 158.641 36.198 158.513 36.198C158.385 36.198 158.286 36.155 158.217 36.07C158.147 35.984 158.113 35.879 158.113 35.756ZM158.815 43.372H158.201V37.46H158.815V43.372Z" fill="#E5E5E5"/>
<path d="M162.689 42.421L164.147 37.46H164.772L162.924 43.372H162.442L160.583 37.46H161.208L162.689 42.421Z" fill="#E5E5E5"/>
<path d="M168.384 43.481C168.055 43.481 167.754 43.427 167.479 43.32C167.205 43.213 166.968 43.049 166.769 42.828C166.57 42.608 166.415 42.33 166.306 41.995C166.196 41.66 166.142 41.263 166.142 40.804V40.132C166.142 39.637 166.2 39.213 166.317 38.862C166.434 38.51 166.59 38.223 166.786 37.999C166.982 37.775 167.208 37.611 167.466 37.507C167.724 37.403 167.995 37.351 168.28 37.351C168.93 37.351 169.425 37.565 169.763 37.993C170.101 38.421 170.27 39.076 170.27 39.957V40.471H166.745V40.804C166.745 41.165 166.785 41.478 166.865 41.744C166.945 42.01 167.059 42.23 167.205 42.405C167.351 42.58 167.527 42.71 167.731 42.796C167.936 42.882 168.162 42.924 168.411 42.924C168.718 42.924 168.985 42.872 169.211 42.768C169.437 42.664 169.644 42.503 169.831 42.284L170.149 42.688C170.069 42.797 169.975 42.899 169.867 42.994C169.759 43.089 169.633 43.172 169.489 43.245C169.344 43.318 169.181 43.375 168.998 43.417C168.815 43.46 168.611 43.481 168.384 43.481ZM168.28 37.919C168.064 37.919 167.866 37.955 167.685 38.028C167.504 38.101 167.347 38.217 167.214 38.375C167.081 38.533 166.974 38.738 166.893 38.99C166.812 39.241 166.765 39.546 166.75 39.902H169.661V39.744C169.654 39.456 169.621 39.2 169.562 38.974C169.503 38.748 169.418 38.557 169.307 38.4C169.195 38.243 169.054 38.124 168.882 38.042C168.711 37.96 168.51 37.919 168.28 37.919Z" fill="#E5E5E5"/>
<path d="M179.366 40.695C179.366 41.172 179.323 41.586 179.237 41.935C179.151 42.285 179.028 42.574 178.867 42.804C178.706 43.033 178.507 43.204 178.269 43.315C178.031 43.426 177.763 43.482 177.463 43.482C177.105 43.482 176.799 43.41 176.545 43.266C176.291 43.122 176.084 42.921 175.923 42.662V45.645H175.32V37.46H175.879L175.906 38.269C176.071 37.981 176.279 37.756 176.531 37.594C176.783 37.432 177.088 37.351 177.446 37.351C177.753 37.351 178.025 37.404 178.263 37.509C178.501 37.615 178.701 37.78 178.866 38.006C179.03 38.232 179.155 38.521 179.239 38.872C179.323 39.224 179.365 39.647 179.365 40.142V40.695H179.366ZM178.757 40.143C178.757 39.385 178.639 38.828 178.403 38.471C178.167 38.114 177.799 37.936 177.298 37.936C177.112 37.936 176.944 37.962 176.796 38.015C176.648 38.068 176.518 38.14 176.407 38.231C176.295 38.322 176.2 38.426 176.122 38.542C176.043 38.659 175.977 38.782 175.922 38.914V42.028C175.98 42.156 176.053 42.274 176.138 42.383C176.224 42.492 176.323 42.587 176.437 42.667C176.55 42.747 176.679 42.809 176.824 42.853C176.968 42.897 177.13 42.919 177.309 42.919C177.802 42.919 178.167 42.738 178.403 42.375C178.639 42.013 178.757 41.453 178.757 40.695V40.143Z" fill="#E5E5E5"/>
<path d="M184.534 43.372C184.505 43.274 184.481 43.151 184.463 43.003C184.445 42.856 184.432 42.705 184.425 42.552C184.348 42.676 184.257 42.793 184.151 42.904C184.045 43.015 183.924 43.114 183.786 43.199C183.649 43.285 183.496 43.353 183.328 43.404C183.16 43.455 182.979 43.48 182.785 43.48C182.54 43.48 182.318 43.445 182.119 43.376C181.92 43.307 181.749 43.203 181.606 43.065C181.463 42.927 181.354 42.754 181.277 42.546C181.2 42.338 181.162 42.096 181.162 41.819C181.162 41.546 181.209 41.294 181.305 41.062C181.4 40.831 181.542 40.631 181.73 40.464C181.918 40.296 182.153 40.165 182.434 40.071C182.715 39.976 183.043 39.929 183.415 39.929H184.418V39.104C184.418 38.681 184.313 38.378 184.103 38.194C183.893 38.01 183.585 37.918 183.179 37.918C182.989 37.918 182.814 37.947 182.655 38.005C182.496 38.063 182.36 38.144 182.247 38.248C182.134 38.352 182.046 38.476 181.984 38.62C181.922 38.764 181.891 38.921 181.891 39.093L181.282 39.088C181.282 38.859 181.328 38.639 181.419 38.43C181.51 38.221 181.64 38.036 181.808 37.875C181.976 37.715 182.179 37.587 182.417 37.493C182.655 37.398 182.918 37.351 183.206 37.351C183.473 37.351 183.717 37.383 183.938 37.447C184.159 37.511 184.35 37.613 184.511 37.753C184.672 37.893 184.797 38.075 184.887 38.299C184.977 38.523 185.021 38.795 185.021 39.116V42.132C185.021 42.234 185.025 42.34 185.032 42.449C185.039 42.558 185.049 42.665 185.062 42.769C185.075 42.873 185.091 42.971 185.111 43.064C185.131 43.157 185.154 43.238 185.179 43.307V43.373H184.534V43.372ZM182.862 42.897C183.052 42.897 183.23 42.871 183.397 42.818C183.563 42.765 183.712 42.692 183.844 42.599C183.976 42.506 184.09 42.398 184.187 42.274C184.284 42.15 184.361 42.017 184.42 41.875V40.438H183.504C182.93 40.438 182.499 40.558 182.21 40.799C181.921 41.039 181.777 41.364 181.777 41.772C181.777 42.162 181.873 42.447 182.065 42.627C182.256 42.807 182.522 42.897 182.862 42.897Z" fill="#E5E5E5"/>
<path d="M189.625 38.029C189.563 38.018 189.502 38.009 189.441 38.002C189.381 37.995 189.314 37.991 189.241 37.991C189.062 37.991 188.9 38.023 188.756 38.087C188.612 38.151 188.485 38.24 188.375 38.355C188.265 38.47 188.171 38.607 188.092 38.768C188.013 38.928 187.952 39.103 187.908 39.293V43.374H187.301V37.462H187.899L187.91 38.347C188.045 38.037 188.224 37.794 188.447 37.618C188.67 37.441 188.944 37.353 189.269 37.353C189.335 37.353 189.404 37.36 189.477 37.375C189.55 37.39 189.603 37.406 189.636 37.424L189.625 38.029Z" fill="#E5E5E5"/>
<path d="M192.503 35.952V37.46H193.517V38.006H192.503V41.934C192.503 42.138 192.52 42.303 192.555 42.428C192.59 42.554 192.636 42.651 192.695 42.72C192.753 42.789 192.82 42.836 192.895 42.859C192.97 42.883 193.049 42.895 193.133 42.895C193.214 42.895 193.292 42.889 193.369 42.876C193.446 42.863 193.513 42.851 193.572 42.841L193.588 43.387C193.522 43.416 193.435 43.439 193.328 43.455C193.221 43.471 193.108 43.48 192.991 43.48C192.834 43.48 192.689 43.455 192.555 43.404C192.422 43.353 192.305 43.267 192.207 43.147C192.108 43.027 192.031 42.867 191.977 42.669C191.922 42.471 191.895 42.224 191.895 41.929V38.006H190.979V37.46H191.895V35.952H192.503V35.952Z" fill="#E5E5E5"/>
<path d="M196.041 37.46L196.058 38.4C196.233 38.08 196.457 37.824 196.729 37.635C197.001 37.446 197.311 37.351 197.658 37.351C197.906 37.351 198.128 37.391 198.324 37.471C198.519 37.551 198.686 37.679 198.823 37.853C198.96 38.028 199.065 38.253 199.138 38.528C199.211 38.803 199.248 39.135 199.248 39.525V43.371H198.645V39.519C198.645 39.217 198.619 38.964 198.566 38.76C198.513 38.556 198.437 38.393 198.339 38.271C198.24 38.149 198.121 38.062 197.98 38.009C197.839 37.956 197.681 37.93 197.506 37.93C197.323 37.93 197.156 37.967 197.004 38.042C196.852 38.117 196.716 38.216 196.596 38.34C196.476 38.464 196.371 38.606 196.284 38.766C196.196 38.926 196.125 39.094 196.07 39.269V43.372H195.461V37.46H196.041V37.46Z" fill="#E5E5E5"/>
<path d="M203.441 43.481C203.112 43.481 202.811 43.427 202.536 43.32C202.262 43.213 202.025 43.049 201.826 42.828C201.627 42.608 201.472 42.33 201.363 41.995C201.253 41.66 201.199 41.263 201.199 40.804V40.132C201.199 39.637 201.257 39.213 201.374 38.862C201.491 38.51 201.647 38.223 201.843 37.999C202.039 37.775 202.265 37.611 202.523 37.507C202.781 37.403 203.052 37.351 203.337 37.351C203.987 37.351 204.482 37.565 204.82 37.993C205.158 38.421 205.327 39.076 205.327 39.957V40.471H201.802V40.804C201.802 41.165 201.842 41.478 201.922 41.744C202.002 42.01 202.116 42.23 202.262 42.405C202.408 42.58 202.584 42.71 202.788 42.796C202.993 42.882 203.219 42.924 203.468 42.924C203.775 42.924 204.042 42.872 204.268 42.768C204.494 42.664 204.701 42.503 204.888 42.284L205.206 42.688C205.126 42.797 205.032 42.899 204.924 42.994C204.816 43.089 204.69 43.172 204.546 43.245C204.401 43.318 204.238 43.375 204.055 43.417C203.872 43.46 203.667 43.481 203.441 43.481ZM203.337 37.919C203.121 37.919 202.923 37.955 202.742 38.028C202.561 38.101 202.404 38.217 202.271 38.375C202.138 38.533 202.031 38.738 201.95 38.99C201.869 39.241 201.822 39.546 201.807 39.902H204.718V39.744C204.711 39.456 204.678 39.2 204.619 38.974C204.56 38.748 204.475 38.557 204.364 38.4C204.252 38.243 204.111 38.124 203.939 38.042C203.768 37.96 203.567 37.919 203.337 37.919Z" fill="#E5E5E5"/>
<path d="M209.563 38.029C209.501 38.018 209.44 38.009 209.379 38.002C209.319 37.995 209.252 37.991 209.179 37.991C209 37.991 208.838 38.023 208.694 38.087C208.55 38.151 208.423 38.24 208.313 38.355C208.203 38.47 208.109 38.607 208.031 38.768C207.952 38.928 207.891 39.103 207.847 39.293V43.374H207.238V37.462H207.836L207.847 38.347C207.982 38.037 208.161 37.794 208.384 37.618C208.607 37.441 208.881 37.353 209.206 37.353C209.272 37.353 209.341 37.36 209.414 37.375C209.487 37.39 209.54 37.406 209.573 37.424L209.563 38.029Z" fill="#E5E5E5"/>
<path d="M214.215 41.919C214.215 41.799 214.192 41.686 214.146 41.58C214.1 41.474 214.025 41.372 213.921 41.274C213.817 41.176 213.68 41.076 213.51 40.974C213.34 40.872 213.129 40.763 212.877 40.646C212.606 40.526 212.365 40.41 212.153 40.299C211.941 40.188 211.763 40.068 211.618 39.938C211.474 39.809 211.363 39.663 211.286 39.501C211.209 39.339 211.171 39.147 211.171 38.925C211.171 38.706 211.212 38.502 211.294 38.31C211.376 38.119 211.494 37.952 211.648 37.81C211.802 37.668 211.988 37.556 212.207 37.474C212.426 37.392 212.671 37.351 212.942 37.351C213.231 37.351 213.49 37.394 213.72 37.479C213.95 37.565 214.145 37.684 214.304 37.837C214.463 37.99 214.584 38.173 214.669 38.386C214.753 38.599 214.795 38.831 214.795 39.083H214.186C214.186 38.93 214.158 38.783 214.104 38.643C214.049 38.503 213.969 38.379 213.863 38.272C213.757 38.165 213.627 38.079 213.474 38.015C213.321 37.951 213.143 37.919 212.942 37.919C212.734 37.919 212.556 37.947 212.41 38.004C212.264 38.061 212.143 38.135 212.048 38.228C211.953 38.321 211.883 38.427 211.84 38.545C211.796 38.663 211.774 38.783 211.774 38.903C211.774 39.023 211.792 39.13 211.829 39.223C211.866 39.316 211.932 39.406 212.029 39.493C212.126 39.58 212.257 39.671 212.421 39.763C212.585 39.856 212.797 39.964 213.057 40.088C213.331 40.208 213.578 40.325 213.797 40.438C214.016 40.551 214.202 40.676 214.353 40.812C214.505 40.949 214.622 41.103 214.704 41.274C214.786 41.445 214.827 41.649 214.827 41.886C214.827 42.13 214.783 42.35 214.695 42.547C214.607 42.744 214.482 42.911 214.32 43.05C214.157 43.188 213.962 43.295 213.733 43.37C213.505 43.445 213.251 43.482 212.974 43.482C212.652 43.482 212.369 43.436 212.124 43.343C211.879 43.25 211.673 43.125 211.507 42.969C211.341 42.812 211.214 42.63 211.129 42.423C211.043 42.215 211 41.995 211 41.762H211.614C211.625 41.995 211.673 42.186 211.759 42.336C211.845 42.485 211.952 42.604 212.08 42.691C212.208 42.778 212.35 42.838 212.508 42.871C212.665 42.904 212.821 42.92 212.974 42.92C213.175 42.92 213.353 42.894 213.509 42.841C213.664 42.788 213.794 42.717 213.898 42.628C214.002 42.539 214.081 42.433 214.134 42.311C214.189 42.187 214.215 42.057 214.215 41.919Z" fill="#E5E5E5"/>
<path d="M78.6777 29.753C73.2737 29.753 68.8447 25.367 68.8447 19.953C68.8447 14.54 73.2737 10.153 78.6777 10.153C81.5187 10.153 84.2207 11.375 86.0877 13.484C86.4217 13.873 86.3667 14.428 86.0037 14.733C85.6417 15.066 85.0847 15.038 84.7497 14.65C83.2177 12.901 81.0167 11.902 78.6767 11.902C74.2477 11.902 70.6257 15.511 70.6257 19.953C70.6257 24.367 74.2467 27.976 78.6767 27.976C80.9057 27.976 83.0227 27.06 84.5267 25.477V21.535H79.3727C78.8717 21.535 78.4817 21.146 78.4817 20.647C78.4817 20.147 78.8717 19.759 79.3727 19.759H85.4177C85.9187 19.759 86.3087 20.148 86.3087 20.647V25.811C86.3087 26.033 86.2247 26.227 86.0857 26.394C84.2207 28.531 81.5187 29.753 78.6777 29.753Z" fill="#E5E5E5"/>
<path d="M97.5353 29.753C93.1893 29.753 89.6523 26.227 89.6523 21.869V11.042C89.6523 10.542 90.0423 10.154 90.5163 10.154C91.0173 10.154 91.4073 10.543 91.4073 11.042V21.869C91.4073 25.256 94.1653 27.976 97.5363 27.976C100.934 27.976 103.664 25.255 103.664 21.869V11.042C103.664 10.542 104.054 10.154 104.555 10.154C105.056 10.154 105.446 10.543 105.446 11.042V21.869C105.446 26.227 101.908 29.753 97.5353 29.753Z" fill="#E5E5E5"/>
<path d="M109.541 29.753C109.04 29.753 108.65 29.364 108.65 28.865V11.042C108.65 10.542 109.04 10.154 109.541 10.154C110.042 10.154 110.432 10.543 110.432 11.042V28.865C110.432 29.364 110.042 29.753 109.541 29.753Z" fill="#E5E5E5"/>
<path d="M119.04 29.753H114.527C114.026 29.753 113.636 29.364 113.636 28.865V11.042C113.636 10.542 114.026 10.154 114.527 10.154H119.04C124.472 10.154 128.873 14.54 128.873 19.954C128.874 25.367 124.472 29.753 119.04 29.753ZM115.419 27.976H119.04C123.497 27.976 127.118 24.367 127.118 19.953C127.118 15.511 123.497 11.902 119.04 11.902H115.419V27.976Z" fill="#E5E5E5"/>
<path d="M145.391 28.864C145.391 29.364 144.973 29.752 144.5 29.752H132.828C132.327 29.752 131.938 29.363 131.938 28.864V11.041C131.938 10.541 132.327 10.153 132.828 10.153H144.5C144.974 10.153 145.391 10.542 145.391 11.041C145.391 11.513 144.973 11.902 144.5 11.902H133.719V18.648H141.492C141.966 18.648 142.383 19.037 142.383 19.509C142.383 20.009 141.965 20.397 141.492 20.397H133.719V27.976H144.5C144.974 27.976 145.391 28.393 145.391 28.864Z" fill="#E5E5E5"/>
<path d="M162.301 17.288C162.301 21.202 159.125 24.367 155.225 24.367H151.409V28.115C151.409 29.031 150.685 29.753 149.793 29.753C148.901 29.753 148.177 29.031 148.177 28.115V11.847C148.177 10.959 148.901 10.237 149.793 10.237H155.225C159.125 10.237 162.301 13.401 162.301 17.288ZM159.07 17.288C159.07 15.178 157.343 13.485 155.226 13.485H151.41V21.119H155.226C157.343 21.119 159.07 19.426 159.07 17.288Z" fill="#E5E5E5"/>
<path d="M174.306 29.753C168.902 29.753 164.528 25.394 164.528 20.009C164.528 14.651 168.902 10.265 174.306 10.265C179.682 10.265 184.084 14.651 184.084 20.009C184.084 25.394 179.683 29.753 174.306 29.753ZM174.306 13.485C170.685 13.485 167.76 16.428 167.76 20.009C167.76 23.618 170.685 26.533 174.306 26.533C177.9 26.533 180.852 23.618 180.852 20.009C180.853 16.427 177.9 13.485 174.306 13.485Z" fill="#E5E5E5"/>
<path d="M192.691 29.753C190.24 29.753 188.763 28.726 187.928 27.893C186.897 26.81 186.312 25.367 186.312 23.895C186.312 23.007 187.036 22.285 187.928 22.285C188.819 22.285 189.544 23.007 189.544 23.895C189.544 24.867 190.214 26.532 192.693 26.532C195.172 26.532 195.841 24.866 195.841 23.895C195.841 22.424 195.032 21.979 192.302 21.202C191.076 20.841 189.823 20.48 188.792 19.758C187.399 18.814 186.703 17.482 186.703 15.76C186.703 14.372 187.26 13.012 188.207 12.012C188.987 11.207 190.409 10.263 192.693 10.263C195.005 10.263 196.397 11.207 197.177 12.012C198.152 13.011 198.709 14.372 198.709 15.76C198.709 16.648 197.985 17.37 197.065 17.37C196.174 17.37 195.449 16.648 195.449 15.76C195.449 14.927 194.864 13.484 192.691 13.484C190.518 13.484 189.933 14.928 189.933 15.76C189.933 16.843 190.352 17.259 193.193 18.092C194.474 18.453 195.811 18.842 196.897 19.619C198.346 20.618 199.07 22.062 199.07 23.894C199.07 25.365 198.485 26.809 197.454 27.892C196.647 28.726 195.142 29.753 192.691 29.753Z" fill="#E5E5E5"/>
<path d="M215.534 11.874C215.534 12.762 214.81 13.484 213.918 13.484H209.489V28.142C209.489 29.03 208.765 29.752 207.845 29.752C206.954 29.752 206.229 29.03 206.229 28.142V13.484H201.801C200.91 13.484 200.185 12.762 200.185 11.874C200.185 10.986 200.909 10.264 201.801 10.264H213.919C214.81 10.264 215.534 10.986 215.534 11.874Z" fill="#E5E5E5"/>
<path d="M27.3819 51.992C41.2829 51.992 52.5519 40.723 52.5519 26.822C52.5519 12.921 41.2829 1.65201 27.3819 1.65201C13.4809 1.65201 2.21191 12.921 2.21191 26.822C2.21191 40.723 13.4809 51.992 27.3819 51.992Z" fill="#E5E5E5"/>
<path d="M19.8467 22.081L25.0017 25.057V8.52399L19.8467 5.285V22.081Z" fill="#4FB0BB"/>
<path d="M43.4428 30.944L27.3828 40.072V47.3L37.9038 41.04V41.062L42.7748 38.236V38.201L45.5938 34.078L43.4428 30.944Z" fill="#1B708A"/>
<path d="M9.60156 25.973L12.8605 30.462L20.5895 34.912V51.065C22.0135 51.463 23.4876 51.738 25.0016 51.881V37.452V35.961V28.407L12.8605 21.451L9.60156 25.973Z" fill="#4FB0BB"/>
<path d="M27.3824 53.303C12.7814 53.303 0.901367 41.424 0.901367 26.822C0.901367 12.22 12.7804 0.341003 27.3824 0.341003C41.9844 0.341003 53.8634 12.22 53.8634 26.822C53.8634 27.509 53.8374 28.19 53.7854 28.865C52.7394 42.516 41.2964 53.303 27.3824 53.303ZM27.3824 2.96301C14.2264 2.96301 3.52338 13.666 3.52338 26.822C3.52338 39.978 14.2264 50.681 27.3824 50.681C40.5384 50.681 51.2424 39.978 51.2424 26.822C51.2424 13.667 40.5384 2.96301 27.3824 2.96301Z" fill="#1B708A"/>
<path d="M27.3824 51.961C27.8004 51.982 26.9594 51.992 27.3824 51.992C28.7064 51.992 30.0074 51.889 31.2764 51.692V47.014L27.3824 49.17V51.961Z" fill="#1B708A"/>
<g opacity="0.1">
<path opacity="0.1" d="M53.8483 27.488L34.6163 8.94501H27.3833V21.451V23.496V38.39L27.3633 53.303C27.3633 53.303 32.8153 53.552 38.7173 50.762C41.3213 49.531 44.1283 47.648 46.7383 44.85C54.2673 36.776 53.8483 27.488 53.8483 27.488Z" fill="#414042"/>
</g>
<path d="M34.6158 8.94501H27.3828V13.684L34.6158 13.461V8.94501Z" fill="#4FB0BB"/>
<path d="M56.7988 13.925L27.3828 16.054V37.619L31.2768 35.413V23.496L56.7988 25.652L60.9558 20.389L56.7988 13.925Z" fill="#D83830"/>
</svg>
