<?xml version="1.0" encoding="utf-8"?>
<!-- Generator: Adobe Illustrator 17.0.0, SVG Export Plug-In . SVG Version: 6.00 Build 0)  -->
<!DOCTYPE svg PUBLIC "-//W3C//DTD SVG 1.1//EN" "http://www.w3.org/Graphics/SVG/1.1/DTD/svg11.dtd">
<svg version="1.1" id="Layer_1" xmlns="http://www.w3.org/2000/svg" xmlns:xlink="http://www.w3.org/1999/xlink" x="0px" y="0px"
	 width="216px" height="54px" viewBox="0 0 216 54" enable-background="new 0 0 216 54" xml:space="preserve">
<path fill="#1B708A" d="M69.323,35.756c0-0.124,0.035-0.229,0.104-0.317c0.069-0.087,0.168-0.131,0.296-0.131
	s0.227,0.044,0.299,0.131c0.071,0.087,0.107,0.193,0.107,0.317s-0.036,0.229-0.107,0.314c-0.071,0.086-0.171,0.128-0.299,0.128
	s-0.227-0.043-0.296-0.128C69.358,35.984,69.323,35.879,69.323,35.756z M70.025,43.372h-0.614V37.46h0.614V43.372z"/>
<path fill="#1B708A" d="M72.907,37.46l0.016,0.94c0.176-0.32,0.399-0.576,0.672-0.765c0.272-0.189,0.582-0.284,0.929-0.284
	c0.248,0,0.471,0.04,0.666,0.12c0.196,0.08,0.362,0.208,0.499,0.382c0.137,0.175,0.242,0.4,0.315,0.675
	c0.073,0.275,0.11,0.607,0.11,0.997v3.846h-0.603v-3.852c0-0.302-0.026-0.555-0.079-0.759c-0.053-0.204-0.129-0.367-0.227-0.489
	c-0.099-0.122-0.218-0.209-0.359-0.262c-0.141-0.053-0.299-0.079-0.474-0.079c-0.183,0-0.35,0.037-0.502,0.112
	s-0.288,0.174-0.408,0.298c-0.121,0.124-0.225,0.266-0.312,0.426c-0.088,0.16-0.159,0.328-0.214,0.503v4.103h-0.609V37.46H72.907
	L72.907,37.46z"/>
<path fill="#1B708A" d="M78.129,40.143c0-0.495,0.045-0.919,0.134-1.27c0.09-0.351,0.218-0.64,0.387-0.866
	c0.168-0.226,0.372-0.392,0.611-0.497c0.239-0.106,0.507-0.158,0.803-0.158c0.354,0,0.655,0.079,0.902,0.238
	c0.247,0.158,0.449,0.38,0.606,0.664v-3.273h0.608v8.392h-0.57l-0.027-0.759c-0.157,0.273-0.361,0.486-0.611,0.639
	s-0.555,0.229-0.913,0.229c-0.296,0-0.563-0.056-0.8-0.167c-0.238-0.111-0.44-0.281-0.606-0.511
	c-0.166-0.229-0.295-0.519-0.387-0.869c-0.091-0.35-0.137-0.763-0.137-1.24V40.143L78.129,40.143z M78.749,40.695
	c0,0.758,0.114,1.315,0.343,1.672c0.228,0.357,0.591,0.535,1.088,0.535c0.179,0,0.341-0.023,0.485-0.068
	c0.144-0.046,0.274-0.109,0.389-0.191c0.115-0.082,0.215-0.178,0.299-0.29c0.084-0.111,0.157-0.232,0.219-0.363v-3.065
	c-0.055-0.131-0.123-0.257-0.203-0.377c-0.08-0.12-0.176-0.225-0.288-0.314c-0.111-0.089-0.241-0.161-0.389-0.216
	c-0.148-0.055-0.317-0.082-0.507-0.082c-0.501,0-0.865,0.179-1.094,0.538c-0.229,0.359-0.343,0.915-0.343,1.669L78.749,40.695
	L78.749,40.695z"/>
<path fill="#1B708A" d="M86.401,43.481c-0.329,0-0.63-0.054-0.905-0.161c-0.274-0.107-0.511-0.271-0.71-0.492
	c-0.199-0.22-0.354-0.498-0.463-0.833c-0.11-0.335-0.164-0.732-0.164-1.191v-0.672c0-0.495,0.058-0.919,0.175-1.27
	c0.117-0.352,0.273-0.639,0.469-0.863s0.422-0.388,0.68-0.492s0.529-0.156,0.814-0.156c0.651,0,1.145,0.214,1.483,0.642
	c0.338,0.428,0.507,1.083,0.507,1.964v0.514h-3.525v0.333c0,0.361,0.04,0.674,0.121,0.94c0.08,0.266,0.194,0.486,0.34,0.661
	c0.146,0.175,0.322,0.305,0.526,0.391c0.205,0.086,0.431,0.128,0.68,0.128c0.307,0,0.574-0.052,0.8-0.156
	c0.227-0.104,0.433-0.265,0.62-0.484l0.318,0.404c-0.08,0.109-0.175,0.211-0.282,0.306c-0.108,0.095-0.234,0.178-0.378,0.251
	c-0.144,0.073-0.308,0.13-0.49,0.172C86.832,43.46,86.627,43.481,86.401,43.481z M86.296,37.919c-0.216,0-0.414,0.036-0.595,0.109
	c-0.181,0.073-0.338,0.189-0.471,0.347c-0.134,0.158-0.24,0.363-0.321,0.615c-0.08,0.251-0.128,0.556-0.143,0.912h2.911v-0.158
	c-0.007-0.288-0.04-0.544-0.099-0.77c-0.058-0.226-0.144-0.417-0.255-0.574c-0.111-0.157-0.253-0.276-0.425-0.358
	C86.728,37.96,86.527,37.919,86.296,37.919z"/>
<path fill="#1B708A" d="M94.244,40.695c0,0.477-0.043,0.891-0.129,1.24c-0.086,0.35-0.209,0.639-0.37,0.869
	c-0.161,0.229-0.36,0.4-0.597,0.511c-0.238,0.111-0.506,0.167-0.806,0.167c-0.358,0-0.664-0.072-0.918-0.216
	c-0.254-0.144-0.461-0.345-0.622-0.604v2.983h-0.603V37.46h0.559l0.028,0.809c0.165-0.288,0.373-0.513,0.625-0.675
	c0.252-0.162,0.557-0.243,0.916-0.243c0.307,0,0.579,0.053,0.817,0.158c0.238,0.106,0.439,0.271,0.603,0.497
	c0.164,0.226,0.289,0.515,0.373,0.866c0.084,0.352,0.126,0.775,0.126,1.27v0.553H94.244z M93.635,40.143
	c0-0.758-0.118-1.315-0.353-1.672c-0.236-0.357-0.604-0.535-1.105-0.535c-0.187,0-0.354,0.026-0.502,0.079
	c-0.148,0.053-0.278,0.125-0.389,0.216s-0.206,0.195-0.285,0.311c-0.079,0.117-0.145,0.24-0.2,0.372v3.114
	c0.058,0.128,0.131,0.246,0.217,0.355c0.086,0.109,0.186,0.204,0.299,0.284c0.113,0.08,0.242,0.142,0.387,0.186
	c0.145,0.044,0.306,0.066,0.485,0.066c0.493,0,0.858-0.181,1.094-0.544c0.236-0.362,0.353-0.922,0.353-1.68L93.635,40.143
	L93.635,40.143z"/>
<path fill="#1B708A" d="M98.233,43.481c-0.329,0-0.63-0.054-0.905-0.161c-0.274-0.107-0.511-0.271-0.71-0.492
	c-0.199-0.22-0.354-0.498-0.463-0.833c-0.11-0.335-0.164-0.732-0.164-1.191v-0.672c0-0.495,0.058-0.919,0.175-1.27
	c0.117-0.352,0.273-0.639,0.469-0.863s0.422-0.388,0.68-0.492c0.258-0.104,0.529-0.156,0.814-0.156c0.651,0,1.145,0.214,1.483,0.642
	c0.338,0.428,0.507,1.083,0.507,1.964v0.514h-3.525v0.333c0,0.361,0.04,0.674,0.121,0.94c0.08,0.266,0.194,0.486,0.34,0.661
	c0.146,0.175,0.322,0.305,0.526,0.391c0.205,0.086,0.431,0.128,0.68,0.128c0.307,0,0.574-0.052,0.8-0.156
	c0.226-0.104,0.433-0.265,0.62-0.484l0.318,0.404c-0.08,0.109-0.175,0.211-0.282,0.306c-0.108,0.095-0.234,0.178-0.378,0.251
	c-0.144,0.073-0.308,0.13-0.49,0.172C98.665,43.46,98.46,43.481,98.233,43.481z M98.129,37.919c-0.216,0-0.414,0.036-0.595,0.109
	c-0.181,0.073-0.338,0.189-0.471,0.347c-0.134,0.158-0.24,0.363-0.321,0.615c-0.08,0.251-0.128,0.556-0.143,0.912h2.911v-0.158
	c-0.007-0.288-0.04-0.544-0.099-0.77c-0.058-0.226-0.144-0.417-0.255-0.574c-0.111-0.157-0.253-0.276-0.425-0.358
	C98.56,37.96,98.36,37.919,98.129,37.919z"/>
<path fill="#1B708A" d="M102.612,37.46l0.016,0.94c0.176-0.32,0.399-0.576,0.672-0.765c0.272-0.189,0.582-0.284,0.929-0.284
	c0.248,0,0.471,0.04,0.666,0.12c0.196,0.08,0.362,0.208,0.499,0.382c0.137,0.175,0.242,0.4,0.315,0.675s0.11,0.607,0.11,0.997v3.846
	h-0.603v-3.852c0-0.302-0.026-0.555-0.079-0.759c-0.053-0.204-0.129-0.367-0.228-0.489c-0.099-0.122-0.218-0.209-0.359-0.262
	c-0.141-0.053-0.299-0.079-0.474-0.079c-0.183,0-0.35,0.037-0.502,0.112s-0.288,0.174-0.408,0.298
	c-0.121,0.124-0.225,0.266-0.313,0.426c-0.088,0.16-0.159,0.328-0.214,0.503v4.103h-0.609V37.46H102.612L102.612,37.46z"/>
<path fill="#1B708A" d="M107.835,40.143c0-0.495,0.045-0.919,0.134-1.27c0.09-0.351,0.218-0.64,0.387-0.866
	c0.168-0.226,0.372-0.392,0.611-0.497c0.239-0.106,0.507-0.158,0.803-0.158c0.354,0,0.655,0.079,0.902,0.238
	c0.247,0.158,0.449,0.38,0.606,0.664v-3.273h0.609v8.392h-0.57l-0.027-0.759c-0.157,0.273-0.361,0.486-0.611,0.639
	s-0.555,0.229-0.913,0.229c-0.296,0-0.563-0.056-0.801-0.167c-0.238-0.111-0.44-0.281-0.606-0.511
	c-0.166-0.229-0.295-0.519-0.387-0.869c-0.091-0.35-0.137-0.763-0.137-1.24V40.143z M108.454,40.695
	c0,0.758,0.114,1.315,0.343,1.672c0.228,0.357,0.591,0.535,1.088,0.535c0.179,0,0.341-0.023,0.485-0.068
	c0.145-0.046,0.274-0.109,0.389-0.191c0.115-0.082,0.215-0.178,0.299-0.29c0.084-0.111,0.157-0.232,0.219-0.363v-3.065
	c-0.055-0.131-0.123-0.257-0.203-0.377c-0.08-0.12-0.176-0.225-0.288-0.314s-0.241-0.161-0.389-0.216
	c-0.148-0.055-0.317-0.082-0.507-0.082c-0.501,0-0.865,0.179-1.094,0.538c-0.229,0.359-0.343,0.915-0.343,1.669L108.454,40.695
	L108.454,40.695z"/>
<path fill="#1B708A" d="M116.106,43.481c-0.329,0-0.63-0.054-0.905-0.161c-0.274-0.107-0.511-0.271-0.71-0.492
	c-0.199-0.22-0.354-0.498-0.463-0.833c-0.11-0.335-0.164-0.732-0.164-1.191v-0.672c0-0.495,0.058-0.919,0.176-1.27
	c0.117-0.352,0.273-0.639,0.469-0.863s0.422-0.388,0.68-0.492c0.258-0.104,0.529-0.156,0.814-0.156c0.65,0,1.145,0.214,1.483,0.642
	s0.507,1.083,0.507,1.964v0.514h-3.525v0.333c0,0.361,0.04,0.674,0.121,0.94c0.08,0.266,0.194,0.486,0.34,0.661
	c0.146,0.175,0.322,0.305,0.526,0.391c0.205,0.086,0.431,0.128,0.68,0.128c0.307,0,0.574-0.052,0.8-0.156
	c0.227-0.104,0.433-0.265,0.62-0.484l0.318,0.404c-0.08,0.109-0.175,0.211-0.282,0.306c-0.108,0.095-0.234,0.178-0.378,0.251
	c-0.144,0.073-0.308,0.13-0.491,0.172C116.537,43.46,116.333,43.481,116.106,43.481z M116.002,37.919
	c-0.216,0-0.414,0.036-0.595,0.109c-0.181,0.073-0.338,0.189-0.471,0.347c-0.133,0.158-0.24,0.363-0.321,0.615
	c-0.08,0.251-0.128,0.556-0.143,0.912h2.911v-0.158c-0.008-0.288-0.04-0.544-0.099-0.77c-0.058-0.226-0.144-0.417-0.255-0.574
	c-0.111-0.157-0.253-0.276-0.425-0.358C116.433,37.96,116.232,37.919,116.002,37.919z"/>
<path fill="#1B708A" d="M120.484,37.46l0.017,0.94c0.175-0.32,0.399-0.576,0.671-0.765c0.272-0.189,0.582-0.284,0.929-0.284
	c0.248,0,0.47,0.04,0.666,0.12c0.196,0.08,0.362,0.208,0.499,0.382c0.137,0.175,0.242,0.4,0.315,0.675s0.11,0.607,0.11,0.997v3.846
	h-0.603v-3.852c0-0.302-0.026-0.555-0.079-0.759c-0.053-0.204-0.129-0.367-0.227-0.489c-0.099-0.122-0.218-0.209-0.359-0.262
	c-0.141-0.053-0.299-0.079-0.474-0.079c-0.183,0-0.35,0.037-0.502,0.112s-0.288,0.174-0.408,0.298
	c-0.12,0.124-0.225,0.266-0.312,0.426c-0.088,0.16-0.159,0.328-0.214,0.503v4.103h-0.609V37.46H120.484L120.484,37.46z"/>
<path fill="#1B708A" d="M126.842,35.952v1.508h1.014v0.546h-1.014v3.928c0,0.204,0.017,0.369,0.052,0.494
	c0.035,0.126,0.081,0.223,0.14,0.292c0.058,0.069,0.125,0.116,0.2,0.139c0.075,0.024,0.154,0.036,0.238,0.036
	c0.081,0,0.159-0.006,0.236-0.019s0.144-0.025,0.203-0.035l0.016,0.546c-0.066,0.029-0.153,0.052-0.26,0.068
	c-0.108,0.016-0.22,0.025-0.337,0.025c-0.157,0-0.303-0.025-0.436-0.076c-0.133-0.051-0.25-0.137-0.348-0.257
	c-0.099-0.12-0.176-0.28-0.23-0.478c-0.055-0.198-0.082-0.445-0.082-0.74v-3.923h-0.916V37.46h0.916v-1.508H126.842L126.842,35.952z
	"/>
<path fill="#1B708A" d="M134.815,42.919c0.168,0,0.331-0.022,0.488-0.066c0.157-0.044,0.297-0.118,0.42-0.224
	c0.122-0.106,0.223-0.247,0.301-0.423c0.079-0.177,0.123-0.398,0.134-0.664h0.587c-0.015,0.317-0.075,0.597-0.181,0.839
	s-0.247,0.444-0.422,0.607c-0.176,0.162-0.376,0.285-0.603,0.369c-0.227,0.084-0.468,0.126-0.724,0.126
	c-0.713,0-1.249-0.229-1.609-0.688c-0.36-0.459-0.54-1.14-0.54-2.043v-0.667c0-0.903,0.18-1.585,0.54-2.043
	c0.36-0.459,0.894-0.688,1.604-0.688c0.271,0,0.522,0.043,0.754,0.128c0.232,0.086,0.433,0.215,0.603,0.388
	c0.17,0.173,0.306,0.392,0.408,0.656c0.102,0.264,0.159,0.575,0.17,0.932h-0.587c-0.011-0.273-0.053-0.507-0.126-0.702
	s-0.169-0.354-0.288-0.478s-0.258-0.214-0.417-0.27s-0.332-0.085-0.518-0.085c-0.281,0-0.519,0.048-0.713,0.145
	s-0.351,0.238-0.472,0.423c-0.121,0.186-0.208,0.413-0.263,0.68c-0.055,0.268-0.082,0.573-0.082,0.915v0.667
	c0,0.346,0.026,0.654,0.079,0.923c0.053,0.27,0.14,0.496,0.26,0.68c0.121,0.184,0.279,0.324,0.474,0.421
	C134.29,42.87,134.53,42.919,134.815,42.919z"/>
<path fill="#1B708A" d="M140.976,38.029c-0.062-0.011-0.123-0.02-0.184-0.027c-0.06-0.007-0.127-0.011-0.2-0.011
	c-0.179,0-0.341,0.032-0.485,0.096c-0.144,0.064-0.271,0.153-0.381,0.268c-0.11,0.115-0.204,0.252-0.283,0.413
	c-0.079,0.16-0.14,0.335-0.184,0.525v4.081h-0.609v-5.912h0.598l0.011,0.885c0.135-0.31,0.314-0.553,0.537-0.729
	c0.223-0.177,0.497-0.265,0.822-0.265c0.066,0,0.135,0.007,0.208,0.022s0.126,0.031,0.159,0.049L140.976,38.029z"/>
<path fill="#1B708A" d="M144.515,43.481c-0.329,0-0.63-0.054-0.905-0.161c-0.274-0.107-0.511-0.271-0.71-0.492
	c-0.199-0.22-0.354-0.498-0.463-0.833c-0.11-0.335-0.164-0.732-0.164-1.191v-0.672c0-0.495,0.058-0.919,0.175-1.27
	c0.117-0.352,0.273-0.639,0.469-0.863c0.196-0.224,0.422-0.388,0.68-0.492s0.529-0.156,0.814-0.156c0.65,0,1.145,0.214,1.483,0.642
	s0.507,1.083,0.507,1.964v0.514h-3.525v0.333c0,0.361,0.04,0.674,0.12,0.94s0.194,0.486,0.34,0.661
	c0.146,0.175,0.322,0.305,0.526,0.391c0.205,0.086,0.431,0.128,0.68,0.128c0.307,0,0.574-0.052,0.801-0.156
	c0.226-0.104,0.433-0.265,0.62-0.484l0.318,0.404c-0.08,0.109-0.174,0.211-0.282,0.306c-0.108,0.095-0.234,0.178-0.378,0.251
	c-0.145,0.073-0.308,0.13-0.491,0.172C144.947,43.46,144.742,43.481,144.515,43.481z M144.411,37.919
	c-0.216,0-0.414,0.036-0.595,0.109c-0.181,0.073-0.338,0.189-0.472,0.347c-0.133,0.158-0.24,0.363-0.321,0.615
	c-0.08,0.251-0.128,0.556-0.143,0.912h2.911v-0.158c-0.007-0.288-0.04-0.544-0.099-0.77c-0.059-0.226-0.144-0.417-0.255-0.574
	c-0.112-0.157-0.253-0.276-0.425-0.358C144.843,37.96,144.642,37.919,144.411,37.919z"/>
<path fill="#1B708A" d="M151.449,43.372c-0.029-0.098-0.053-0.221-0.071-0.369c-0.018-0.147-0.031-0.298-0.038-0.451
	c-0.077,0.124-0.168,0.241-0.274,0.352c-0.106,0.111-0.227,0.21-0.365,0.295c-0.137,0.086-0.29,0.154-0.458,0.205
	c-0.168,0.051-0.349,0.076-0.543,0.076c-0.245,0-0.467-0.035-0.666-0.104c-0.199-0.069-0.37-0.173-0.513-0.311
	c-0.143-0.138-0.252-0.311-0.329-0.519s-0.115-0.45-0.115-0.727c0-0.273,0.048-0.525,0.143-0.757
	c0.095-0.231,0.237-0.431,0.425-0.598c0.188-0.168,0.423-0.299,0.704-0.393c0.281-0.095,0.609-0.142,0.981-0.142h1.003v-0.825
	c0-0.423-0.105-0.726-0.315-0.91c-0.21-0.184-0.518-0.276-0.924-0.276c-0.19,0-0.365,0.029-0.524,0.087
	c-0.159,0.058-0.295,0.139-0.408,0.243c-0.113,0.104-0.201,0.228-0.263,0.372c-0.062,0.144-0.093,0.301-0.093,0.473l-0.609-0.005
	c0-0.229,0.046-0.449,0.137-0.658s0.221-0.394,0.389-0.555c0.168-0.16,0.371-0.288,0.609-0.382c0.238-0.095,0.501-0.142,0.789-0.142
	c0.267,0,0.511,0.032,0.732,0.096c0.221,0.064,0.412,0.166,0.573,0.306c0.161,0.14,0.286,0.322,0.376,0.546s0.134,0.496,0.134,0.817
	v3.016c0,0.102,0.004,0.208,0.011,0.317c0.007,0.109,0.017,0.216,0.03,0.32s0.029,0.202,0.049,0.295
	c0.02,0.093,0.043,0.174,0.069,0.243v0.066L151.449,43.372L151.449,43.372z M149.777,42.897c0.19,0,0.368-0.026,0.535-0.079
	c0.166-0.053,0.315-0.126,0.447-0.219c0.132-0.093,0.246-0.201,0.343-0.325c0.097-0.124,0.174-0.257,0.233-0.399v-1.437h-0.916
	c-0.574,0-1.005,0.12-1.294,0.361c-0.289,0.24-0.433,0.565-0.433,0.973c0,0.39,0.096,0.675,0.288,0.855
	C149.171,42.807,149.437,42.897,149.777,42.897z"/>
<path fill="#1B708A" d="M155.131,35.952v1.508h1.014v0.546h-1.014v3.928c0,0.204,0.017,0.369,0.052,0.494
	c0.035,0.126,0.081,0.223,0.14,0.292c0.058,0.069,0.125,0.116,0.2,0.139c0.075,0.024,0.154,0.036,0.238,0.036
	c0.081,0,0.159-0.006,0.236-0.019c0.077-0.013,0.144-0.025,0.203-0.035l0.016,0.546c-0.066,0.029-0.153,0.052-0.26,0.068
	c-0.107,0.016-0.22,0.025-0.337,0.025c-0.157,0-0.302-0.025-0.436-0.076c-0.133-0.051-0.25-0.137-0.348-0.257
	c-0.099-0.12-0.176-0.28-0.23-0.478c-0.055-0.198-0.082-0.445-0.082-0.74v-3.923h-0.916V37.46h0.916v-1.508H155.131L155.131,35.952z
	"/>
<path fill="#1B708A" d="M158.068,35.756c0-0.124,0.035-0.229,0.104-0.317c0.069-0.087,0.168-0.131,0.296-0.131
	c0.128,0,0.228,0.044,0.299,0.131c0.071,0.087,0.107,0.193,0.107,0.317s-0.036,0.229-0.107,0.314
	c-0.071,0.086-0.171,0.128-0.299,0.128c-0.128,0-0.227-0.043-0.296-0.128C158.103,35.984,158.068,35.879,158.068,35.756z
	 M158.77,43.372h-0.614V37.46h0.614V43.372z"/>
<path fill="#1B708A" d="M162.644,42.421l1.458-4.961h0.625l-1.848,5.912h-0.482l-1.859-5.912h0.625L162.644,42.421z"/>
<path fill="#1B708A" d="M168.339,43.481c-0.329,0-0.63-0.054-0.905-0.161c-0.274-0.107-0.511-0.271-0.71-0.492
	c-0.199-0.22-0.354-0.498-0.463-0.833c-0.11-0.335-0.164-0.732-0.164-1.191v-0.672c0-0.495,0.058-0.919,0.175-1.27
	c0.117-0.352,0.273-0.639,0.469-0.863s0.422-0.388,0.68-0.492c0.258-0.104,0.529-0.156,0.814-0.156c0.65,0,1.145,0.214,1.483,0.642
	s0.507,1.083,0.507,1.964v0.514H166.7v0.333c0,0.361,0.04,0.674,0.12,0.94c0.08,0.266,0.194,0.486,0.34,0.661
	c0.146,0.175,0.322,0.305,0.526,0.391c0.205,0.086,0.431,0.128,0.68,0.128c0.307,0,0.574-0.052,0.801-0.156
	c0.226-0.104,0.433-0.265,0.62-0.484l0.318,0.404c-0.08,0.109-0.174,0.211-0.282,0.306s-0.234,0.178-0.378,0.251
	c-0.145,0.073-0.308,0.13-0.491,0.172C168.77,43.46,168.566,43.481,168.339,43.481z M168.235,37.919
	c-0.216,0-0.414,0.036-0.595,0.109c-0.181,0.073-0.338,0.189-0.471,0.347c-0.133,0.158-0.24,0.363-0.321,0.615
	c-0.081,0.251-0.128,0.556-0.143,0.912h2.911v-0.158c-0.007-0.288-0.04-0.544-0.099-0.77c-0.059-0.226-0.144-0.417-0.255-0.574
	c-0.112-0.157-0.253-0.276-0.425-0.358C168.666,37.96,168.465,37.919,168.235,37.919z"/>
<path fill="#1B708A" d="M179.321,40.695c0,0.477-0.043,0.891-0.129,1.24c-0.086,0.35-0.209,0.639-0.37,0.869
	c-0.161,0.229-0.36,0.4-0.598,0.511s-0.506,0.167-0.806,0.167c-0.358,0-0.664-0.072-0.918-0.216
	c-0.254-0.144-0.461-0.345-0.622-0.604v2.983h-0.603V37.46h0.559l0.027,0.809c0.165-0.288,0.373-0.513,0.625-0.675
	c0.252-0.162,0.557-0.243,0.915-0.243c0.307,0,0.579,0.053,0.817,0.158c0.238,0.106,0.439,0.271,0.603,0.497
	c0.164,0.226,0.289,0.515,0.373,0.866c0.084,0.352,0.126,0.775,0.126,1.27L179.321,40.695L179.321,40.695z M178.713,40.143
	c0-0.758-0.118-1.315-0.354-1.672c-0.236-0.357-0.604-0.535-1.105-0.535c-0.186,0-0.354,0.026-0.502,0.079
	c-0.148,0.053-0.278,0.125-0.389,0.216c-0.112,0.091-0.207,0.195-0.285,0.311c-0.079,0.117-0.145,0.24-0.2,0.372v3.114
	c0.058,0.128,0.131,0.246,0.217,0.355s0.185,0.204,0.299,0.284c0.113,0.08,0.242,0.142,0.387,0.186
	c0.144,0.044,0.306,0.066,0.485,0.066c0.493,0,0.858-0.181,1.094-0.544c0.236-0.362,0.354-0.922,0.354-1.68v-0.552H178.713z"/>
<path fill="#1B708A" d="M184.489,43.372c-0.029-0.098-0.053-0.221-0.071-0.369c-0.018-0.147-0.031-0.298-0.038-0.451
	c-0.077,0.124-0.168,0.241-0.274,0.352s-0.227,0.21-0.365,0.295c-0.137,0.086-0.29,0.154-0.458,0.205
	c-0.168,0.051-0.349,0.076-0.543,0.076c-0.245,0-0.467-0.035-0.666-0.104c-0.199-0.069-0.37-0.173-0.513-0.311
	c-0.143-0.138-0.252-0.311-0.329-0.519c-0.077-0.208-0.115-0.45-0.115-0.727c0-0.273,0.047-0.525,0.143-0.757
	c0.095-0.231,0.237-0.431,0.425-0.598c0.188-0.168,0.423-0.299,0.704-0.393c0.281-0.095,0.609-0.142,0.981-0.142h1.003v-0.825
	c0-0.423-0.105-0.726-0.315-0.91c-0.21-0.184-0.518-0.276-0.924-0.276c-0.19,0-0.365,0.029-0.524,0.087
	c-0.159,0.058-0.295,0.139-0.408,0.243c-0.113,0.104-0.201,0.228-0.263,0.372c-0.062,0.144-0.093,0.301-0.093,0.473l-0.609-0.005
	c0-0.229,0.046-0.449,0.137-0.658c0.091-0.209,0.221-0.394,0.389-0.555c0.168-0.16,0.371-0.288,0.609-0.382
	c0.238-0.095,0.501-0.142,0.789-0.142c0.267,0,0.511,0.032,0.732,0.096c0.221,0.064,0.412,0.166,0.573,0.306
	c0.161,0.14,0.286,0.322,0.376,0.546c0.09,0.224,0.134,0.496,0.134,0.817v3.016c0,0.102,0.004,0.208,0.011,0.317
	c0.007,0.109,0.017,0.216,0.03,0.32s0.029,0.202,0.049,0.295c0.02,0.093,0.043,0.174,0.069,0.243v0.066L184.489,43.372
	L184.489,43.372z M182.817,42.897c0.19,0,0.368-0.026,0.535-0.079c0.167-0.053,0.315-0.126,0.447-0.219
	c0.132-0.093,0.246-0.201,0.343-0.325c0.097-0.124,0.174-0.257,0.233-0.399v-1.437h-0.915c-0.574,0-1.005,0.12-1.294,0.361
	c-0.289,0.24-0.433,0.565-0.433,0.973c0,0.39,0.096,0.675,0.288,0.855C182.211,42.807,182.477,42.897,182.817,42.897z"/>
<path fill="#1B708A" d="M189.58,38.029c-0.062-0.011-0.123-0.02-0.184-0.027c-0.06-0.007-0.127-0.011-0.2-0.011
	c-0.179,0-0.341,0.032-0.485,0.096c-0.144,0.064-0.271,0.153-0.381,0.268c-0.11,0.115-0.204,0.252-0.283,0.413
	c-0.079,0.16-0.14,0.335-0.184,0.525v4.081h-0.609v-5.912h0.598l0.011,0.885c0.135-0.31,0.314-0.553,0.537-0.729
	c0.223-0.177,0.497-0.265,0.822-0.265c0.066,0,0.135,0.007,0.208,0.022c0.073,0.015,0.126,0.031,0.159,0.049L189.58,38.029z"/>
<path fill="#1B708A" d="M192.458,35.952v1.508h1.014v0.546h-1.014v3.928c0,0.204,0.017,0.369,0.052,0.494
	c0.035,0.126,0.081,0.223,0.14,0.292c0.058,0.069,0.125,0.116,0.2,0.139c0.075,0.024,0.154,0.036,0.238,0.036
	c0.081,0,0.159-0.006,0.236-0.019c0.077-0.013,0.144-0.025,0.203-0.035l0.016,0.546c-0.066,0.029-0.153,0.052-0.26,0.068
	c-0.107,0.016-0.22,0.025-0.337,0.025c-0.157,0-0.302-0.025-0.436-0.076c-0.133-0.051-0.25-0.137-0.348-0.257
	c-0.099-0.12-0.176-0.28-0.23-0.478c-0.055-0.198-0.082-0.445-0.082-0.74v-3.923h-0.916V37.46h0.916v-1.508H192.458L192.458,35.952z
	"/>
<path fill="#1B708A" d="M195.996,37.46l0.017,0.94c0.175-0.32,0.399-0.576,0.671-0.765c0.272-0.189,0.582-0.284,0.929-0.284
	c0.249,0,0.47,0.04,0.666,0.12c0.195,0.08,0.362,0.208,0.499,0.382s0.242,0.4,0.315,0.675s0.11,0.607,0.11,0.997v3.846h-0.602
	v-3.852c0-0.302-0.026-0.555-0.079-0.759c-0.053-0.204-0.129-0.367-0.227-0.489c-0.099-0.122-0.218-0.209-0.359-0.262
	c-0.141-0.053-0.299-0.079-0.474-0.079c-0.183,0-0.35,0.037-0.502,0.112c-0.152,0.075-0.288,0.174-0.408,0.298
	s-0.225,0.266-0.312,0.426c-0.088,0.16-0.159,0.328-0.214,0.503v4.103h-0.609V37.46H195.996L195.996,37.46z"/>
<path fill="#1B708A" d="M203.396,43.481c-0.329,0-0.63-0.054-0.905-0.161c-0.274-0.107-0.511-0.271-0.71-0.492
	c-0.199-0.22-0.354-0.498-0.463-0.833c-0.11-0.335-0.164-0.732-0.164-1.191v-0.672c0-0.495,0.058-0.919,0.175-1.27
	c0.117-0.352,0.273-0.639,0.469-0.863s0.422-0.388,0.68-0.492s0.529-0.156,0.814-0.156c0.65,0,1.145,0.214,1.483,0.642
	c0.338,0.428,0.507,1.083,0.507,1.964v0.514h-3.525v0.333c0,0.361,0.04,0.674,0.12,0.94s0.194,0.486,0.34,0.661
	c0.146,0.175,0.322,0.305,0.526,0.391c0.205,0.086,0.431,0.128,0.68,0.128c0.307,0,0.574-0.052,0.801-0.156
	c0.226-0.104,0.433-0.265,0.62-0.484l0.318,0.404c-0.08,0.109-0.174,0.211-0.282,0.306s-0.234,0.178-0.378,0.251
	c-0.145,0.073-0.308,0.13-0.491,0.172C203.827,43.46,203.622,43.481,203.396,43.481z M203.292,37.919
	c-0.216,0-0.414,0.036-0.595,0.109c-0.181,0.073-0.338,0.189-0.471,0.347s-0.24,0.363-0.321,0.615
	c-0.081,0.251-0.128,0.556-0.143,0.912h2.911v-0.158c-0.007-0.288-0.04-0.544-0.099-0.77c-0.059-0.226-0.144-0.417-0.255-0.574
	c-0.112-0.157-0.253-0.276-0.425-0.358C203.723,37.96,203.522,37.919,203.292,37.919z"/>
<path fill="#1B708A" d="M209.518,38.029c-0.062-0.011-0.123-0.02-0.184-0.027c-0.06-0.007-0.127-0.011-0.2-0.011
	c-0.179,0-0.341,0.032-0.485,0.096c-0.144,0.064-0.271,0.153-0.381,0.268c-0.11,0.115-0.204,0.252-0.282,0.413
	c-0.079,0.16-0.14,0.335-0.184,0.525v4.081h-0.609v-5.912h0.598l0.011,0.885c0.135-0.31,0.314-0.553,0.537-0.729
	c0.223-0.177,0.497-0.265,0.822-0.265c0.066,0,0.135,0.007,0.208,0.022s0.126,0.031,0.159,0.049L209.518,38.029z"/>
<path fill="#1B708A" d="M214.17,41.919c0-0.12-0.023-0.233-0.069-0.339c-0.046-0.106-0.121-0.208-0.225-0.306
	c-0.104-0.098-0.241-0.198-0.411-0.3c-0.17-0.102-0.381-0.211-0.633-0.328c-0.271-0.12-0.512-0.236-0.724-0.347
	s-0.39-0.231-0.535-0.361c-0.144-0.129-0.255-0.275-0.332-0.437s-0.115-0.354-0.115-0.576c0-0.219,0.041-0.423,0.123-0.615
	c0.082-0.191,0.2-0.358,0.354-0.5c0.153-0.142,0.34-0.254,0.559-0.336c0.219-0.082,0.464-0.123,0.735-0.123
	c0.289,0,0.548,0.043,0.778,0.128c0.23,0.086,0.425,0.205,0.584,0.358c0.159,0.153,0.28,0.336,0.365,0.549
	c0.084,0.213,0.126,0.445,0.126,0.697h-0.609c0-0.153-0.028-0.3-0.082-0.44c-0.055-0.14-0.135-0.264-0.241-0.371
	c-0.106-0.107-0.236-0.193-0.389-0.257s-0.331-0.096-0.532-0.096c-0.208,0-0.386,0.028-0.532,0.085
	c-0.146,0.057-0.267,0.131-0.362,0.224c-0.095,0.093-0.165,0.199-0.208,0.317c-0.044,0.118-0.066,0.238-0.066,0.358
	s0.018,0.227,0.055,0.32c0.037,0.093,0.103,0.183,0.2,0.27s0.228,0.178,0.392,0.27c0.164,0.093,0.376,0.201,0.636,0.325
	c0.274,0.12,0.521,0.237,0.74,0.35s0.405,0.238,0.556,0.374c0.152,0.137,0.269,0.291,0.351,0.462
	c0.082,0.171,0.123,0.375,0.123,0.612c0,0.244-0.044,0.464-0.132,0.661c-0.088,0.197-0.213,0.364-0.375,0.503
	c-0.163,0.138-0.358,0.245-0.587,0.32c-0.228,0.075-0.482,0.112-0.759,0.112c-0.322,0-0.605-0.046-0.85-0.139
	c-0.245-0.093-0.451-0.218-0.617-0.374c-0.166-0.157-0.293-0.339-0.378-0.546c-0.086-0.208-0.129-0.428-0.129-0.661h0.614
	c0.011,0.233,0.059,0.424,0.145,0.574c0.086,0.149,0.193,0.268,0.321,0.355c0.128,0.087,0.27,0.147,0.428,0.18
	c0.157,0.033,0.313,0.049,0.466,0.049c0.201,0,0.379-0.026,0.535-0.079c0.155-0.053,0.285-0.124,0.389-0.213
	c0.104-0.089,0.183-0.195,0.236-0.317C214.144,42.187,214.17,42.057,214.17,41.919z"/>
<path fill="#1B708A" d="M78.633,29.753c-5.404,0-9.833-4.386-9.833-9.8c0-5.413,4.429-9.8,9.833-9.8c2.841,0,5.544,1.222,7.41,3.331
	c0.334,0.389,0.279,0.944-0.084,1.249c-0.362,0.333-0.919,0.305-1.254-0.083c-1.532-1.749-3.733-2.748-6.073-2.748
	c-4.429,0-8.051,3.609-8.051,8.051c0,4.414,3.621,8.023,8.051,8.023c2.229,0,4.346-0.916,5.85-2.499v-3.942h-5.154
	c-0.501,0-0.891-0.389-0.891-0.888c0-0.5,0.39-0.888,0.891-0.888h6.045c0.501,0,0.891,0.389,0.891,0.888v5.164
	c0,0.222-0.084,0.416-0.223,0.583C84.176,28.531,81.474,29.753,78.633,29.753z"/>
<path fill="#1B708A" d="M97.49,29.753c-4.346,0-7.883-3.526-7.883-7.884V11.042c0-0.5,0.39-0.888,0.864-0.888
	c0.501,0,0.891,0.389,0.891,0.888v10.827c0,3.387,2.758,6.107,6.128,6.107c3.399,0,6.128-2.721,6.128-6.107V11.042
	c0-0.5,0.39-0.888,0.891-0.888s0.891,0.389,0.891,0.888v10.827C105.401,26.227,101.864,29.753,97.49,29.753z"/>
<path fill="#1B708A" d="M109.496,29.753c-0.501,0-0.891-0.389-0.891-0.888V11.042c0-0.5,0.39-0.888,0.891-0.888
	s0.891,0.389,0.891,0.888v17.823C110.387,29.364,109.997,29.753,109.496,29.753z"/>
<path fill="#1B708A" d="M118.996,29.753h-4.513c-0.501,0-0.891-0.389-0.891-0.888V11.042c0-0.5,0.39-0.888,0.891-0.888h4.513
	c5.432,0,9.833,4.386,9.833,9.8C128.829,25.367,124.427,29.753,118.996,29.753z M115.374,27.976h3.621
	c4.457,0,8.078-3.609,8.078-8.023c0-4.442-3.621-8.051-8.078-8.051h-3.621V27.976z"/>
<path fill="#1B708A" d="M145.348,28.864c0,0.5-0.418,0.888-0.891,0.888h-11.672c-0.501,0-0.891-0.389-0.891-0.888V11.041
	c0-0.5,0.39-0.888,0.891-0.888h11.672c0.474,0,0.891,0.389,0.891,0.888c0,0.472-0.418,0.861-0.891,0.861h-10.781v6.746h7.772
	c0.474,0,0.891,0.389,0.891,0.861c0,0.5-0.418,0.888-0.891,0.888h-7.772v7.579h10.781C144.93,27.976,145.348,28.393,145.348,28.864z
	"/>
<path fill="#1B708A" d="M162.256,17.288c0,3.914-3.176,7.079-7.076,7.079h-3.816v3.748c0,0.916-0.724,1.638-1.616,1.638
	s-1.616-0.722-1.616-1.638V11.847c0-0.888,0.724-1.61,1.616-1.61h5.432C159.08,10.237,162.256,13.401,162.256,17.288z
	 M159.025,17.288c0-2.11-1.727-3.803-3.844-3.803h-3.816v7.634h3.816C157.298,21.119,159.025,19.426,159.025,17.288z"/>
<path fill="#1B708A" d="M174.261,29.753c-5.404,0-9.778-4.359-9.778-9.744c0-5.358,4.374-9.744,9.778-9.744
	c5.376,0,9.778,4.386,9.778,9.744C184.039,25.394,179.638,29.753,174.261,29.753z M174.261,13.485c-3.621,0-6.546,2.943-6.546,6.524
	c0,3.609,2.925,6.524,6.546,6.524c3.594,0,6.546-2.915,6.546-6.524C180.808,16.427,177.855,13.485,174.261,13.485z"/>
<path fill="#1B708A" d="M192.647,29.753c-2.451,0-3.928-1.027-4.764-1.86c-1.031-1.083-1.616-2.526-1.616-3.998
	c0-0.888,0.724-1.61,1.616-1.61c0.891,0,1.616,0.722,1.616,1.61c0,0.972,0.669,2.637,3.148,2.637s3.148-1.666,3.148-2.637
	c0-1.471-0.808-1.916-3.538-2.693c-1.226-0.361-2.479-0.722-3.51-1.444c-1.393-0.944-2.089-2.276-2.089-3.998
	c0-1.388,0.557-2.748,1.504-3.748c0.78-0.805,2.201-1.749,4.485-1.749c2.312,0,3.705,0.944,4.485,1.749
	c0.975,0.999,1.532,2.36,1.532,3.748c0,0.888-0.724,1.61-1.644,1.61c-0.891,0-1.616-0.722-1.616-1.61
	c0-0.833-0.585-2.276-2.758-2.276c-2.173,0-2.758,1.444-2.758,2.276c0,1.083,0.418,1.499,3.259,2.332
	c1.281,0.361,2.619,0.75,3.705,1.527c1.449,0.999,2.173,2.443,2.173,4.275c0,1.471-0.585,2.915-1.616,3.998
	C196.603,28.726,195.098,29.753,192.647,29.753z"/>
<path fill="#1B708A" d="M215.489,11.874c0,0.888-0.724,1.61-1.616,1.61h-4.429v14.658c0,0.888-0.724,1.61-1.644,1.61
	c-0.891,0-1.616-0.722-1.616-1.61V13.484h-4.429c-0.891,0-1.616-0.722-1.616-1.61c0-0.888,0.724-1.61,1.616-1.61h12.118
	C214.765,10.264,215.489,10.986,215.489,11.874z"/>
<path fill="#E5E5E5" d="M27.337,51.992c13.901,0,25.17-11.269,25.17-25.17s-11.269-25.17-25.17-25.17s-25.17,11.269-25.17,25.17
	S13.436,51.992,27.337,51.992z"/>
<path fill="#4FB0BB" d="M19.802,22.081l5.155,2.976V8.524l-5.155-3.239V22.081z"/>
<path fill="#1B708A" d="M43.398,30.944l-16.06,9.128V47.3l10.521-6.26v0.022l4.871-2.826v-0.035l2.819-4.123L43.398,30.944z"/>
<path fill="#4FB0BB" d="M9.557,25.973l3.259,4.489l7.729,4.45v16.153c1.424,0.398,2.898,0.673,4.412,0.816V37.452v-1.491v-7.554
	l-12.141-6.956L9.557,25.973z"/>
<path fill="#1B708A" d="M27.337,53.303c-14.601,0-26.481-11.879-26.481-26.481S12.735,0.341,27.337,0.341
	S53.818,12.22,53.818,26.822c0,0.687-0.026,1.368-0.078,2.043C52.694,42.516,41.251,53.303,27.337,53.303z M27.337,2.963
	c-13.156,0-23.859,10.703-23.859,23.859s10.703,23.859,23.859,23.859s23.86-10.703,23.86-23.859
	C51.197,13.667,40.493,2.963,27.337,2.963z"/>
<path fill="#1B708A" d="M27.338,51.961c0.418,0.021-0.423,0.031,0,0.031c1.324,0,2.625-0.103,3.894-0.3v-4.678l-3.894,2.156V51.961z
	"/>
<g opacity="0.6">
	<path opacity="0.1" fill="#414042" enable-background="new    " d="M53.803,27.488L34.571,8.945h-7.233v12.506v2.045V38.39
		l-0.02,14.913c0,0,5.452,0.249,11.354-2.541c2.604-1.231,5.411-3.114,8.021-5.912C54.222,36.776,53.803,27.488,53.803,27.488z"/>
</g>
<path fill="#4FB0BB" d="M34.572,8.945h-7.234v4.739l7.234-0.223V8.945z"/>
<path fill="#D83830" d="M56.754,13.925l-29.416,2.129v21.565l3.894-2.206V23.496l25.522,2.156l4.157-5.263L56.754,13.925z"/>
</svg>
