<svg width="208" height="167" viewBox="0 0 208 167" fill="none" xmlns="http://www.w3.org/2000/svg">
<path d="M82.5869 42.385L92.5488 48.137V16.187L82.5869 9.928V42.385Z" fill="black"/>
<path d="M97.1494 91.122L117.481 79.024V79.066L126.893 73.606V73.538L132.342 65.57L128.185 59.513L97.1494 77.153V91.122Z" fill="black"/>
<path d="M111.128 17.001H97.1494V26.159L111.128 25.728V17.001Z" fill="black"/>
<path d="M162.03 39.115L153.996 26.624L142.294 27.471C133.666 11.36 116.668 0.374001 97.1497 0.374001C68.9327 0.374001 45.9756 23.331 45.9756 51.548C45.9756 79.765 68.9327 102.722 97.1497 102.722C124.039 102.722 146.151 81.876 148.173 55.495C148.273 54.192 148.324 52.876 148.324 51.548C148.324 50.626 148.298 49.71 148.25 48.8L153.997 49.286L162.03 39.115ZM143.258 51.549C143.258 74.411 126.532 93.436 104.675 97.04V90.57L97.1497 94.736V97.657C95.5967 97.657 94.0616 97.579 92.5486 97.428V72.089V69.208V54.61L69.0867 41.168L62.7886 49.907L69.0867 58.582L84.0237 67.181V95.751C64.9747 90.084 51.0426 72.414 51.0426 51.549C51.0426 26.125 71.7266 5.441 97.1506 5.441C113.926 5.441 128.635 14.447 136.704 27.876L97.1506 30.738V72.413L104.676 68.15V45.12L143.148 48.37C143.219 49.421 143.258 50.48 143.258 51.549Z" fill="black"/>
<path d="M1.74219 152.793C1.74219 152.618 1.79118 152.469 1.88818 152.346C1.98518 152.223 2.1243 152.161 2.3053 152.161C2.4853 152.161 2.62522 152.222 2.72522 152.346C2.82522 152.469 2.87524 152.619 2.87524 152.793C2.87524 152.967 2.82522 153.116 2.72522 153.236C2.62522 153.357 2.4843 153.417 2.3053 153.417C2.1253 153.417 1.98618 153.356 1.88818 153.236C1.79018 153.115 1.74219 152.967 1.74219 152.793ZM2.72925 163.538H1.86523V155.197H2.72925V163.538Z" fill="black"/>
<path d="M6.77991 155.198L6.80286 156.524C7.04986 156.072 7.36383 155.712 7.74683 155.445C8.12983 155.178 8.56586 155.044 9.05286 155.044C9.40286 155.044 9.71389 155.101 9.98889 155.214C10.2639 155.327 10.4979 155.507 10.6909 155.753C10.8829 156 11.0319 156.317 11.1339 156.705C11.2369 157.093 11.2888 157.562 11.2888 158.112V163.539H10.4409V158.105C10.4409 157.678 10.4039 157.321 10.3289 157.033C10.2539 156.745 10.1479 156.516 10.0089 156.343C9.86991 156.171 9.70191 156.047 9.50391 155.973C9.30591 155.898 9.08391 155.861 8.83691 155.861C8.57991 155.861 8.34486 155.914 8.13086 156.019C7.91786 156.124 7.72688 156.264 7.55688 156.439C7.38788 156.614 7.24092 156.814 7.11792 157.04C6.99492 157.266 6.89389 157.503 6.81689 157.749V163.538H5.96094V155.197H6.77991V155.198Z" fill="black"/>
<path d="M14.124 158.983C14.124 158.284 14.187 157.687 14.313 157.19C14.439 156.694 14.6201 156.287 14.8571 155.968C15.0931 155.649 15.3799 155.415 15.7159 155.267C16.0519 155.118 16.429 155.043 16.845 155.043C17.344 155.043 17.766 155.155 18.113 155.378C18.46 155.601 18.743 155.914 18.965 156.314V151.697H19.821V163.537H19.019L18.98 162.466C18.759 162.852 18.473 163.152 18.121 163.368C17.769 163.584 17.341 163.692 16.838 163.692C16.422 163.692 16.047 163.613 15.713 163.456C15.379 163.299 15.095 163.059 14.861 162.735C14.627 162.411 14.446 162.003 14.318 161.509C14.189 161.016 14.125 160.433 14.125 159.759V158.983H14.124ZM14.995 159.761C14.995 160.83 15.155 161.616 15.476 162.12C15.797 162.623 16.307 162.875 17.006 162.875C17.258 162.875 17.485 162.843 17.688 162.778C17.891 162.714 18.074 162.624 18.235 162.508C18.397 162.393 18.537 162.257 18.655 162.099C18.773 161.942 18.876 161.772 18.964 161.587V157.262C18.887 157.077 18.791 156.9 18.679 156.73C18.566 156.56 18.431 156.412 18.274 156.287C18.117 156.161 17.9351 156.059 17.7271 155.983C17.5191 155.906 17.281 155.867 17.014 155.867C16.31 155.867 15.798 156.12 15.476 156.626C15.155 157.132 14.995 157.917 14.995 158.981V159.761Z" fill="black"/>
<path d="M25.7537 163.693C25.2907 163.693 24.8666 163.617 24.4816 163.465C24.0956 163.313 23.7636 163.082 23.4836 162.771C23.2036 162.46 22.9867 162.068 22.8317 161.595C22.6777 161.122 22.6006 160.562 22.6006 159.915V158.967C22.6006 158.268 22.6827 157.671 22.8477 157.174C23.0117 156.678 23.2316 156.272 23.5066 155.956C23.7816 155.64 24.1006 155.409 24.4626 155.262C24.8246 155.116 25.2067 155.042 25.6077 155.042C26.5227 155.042 27.2176 155.344 27.6926 155.948C28.1686 156.552 28.4056 157.475 28.4056 158.719V159.444H23.4496V159.914C23.4496 160.423 23.5067 160.865 23.6187 161.24C23.7327 161.615 23.8916 161.926 24.0966 162.173C24.3026 162.419 24.5487 162.603 24.8367 162.724C25.1247 162.845 25.4436 162.906 25.7926 162.906C26.2246 162.906 26.5996 162.832 26.9186 162.686C27.2366 162.54 27.5276 162.312 27.7896 162.004L28.2366 162.574C28.1236 162.728 27.9916 162.872 27.8396 163.006C27.6876 163.14 27.5106 163.258 27.3076 163.361C27.1046 163.464 26.8746 163.545 26.6176 163.604C26.3596 163.663 26.0727 163.693 25.7537 163.693ZM25.6077 155.845C25.3047 155.845 25.0256 155.897 24.7706 155.999C24.5166 156.102 24.2957 156.265 24.1077 156.488C23.9197 156.712 23.7696 157.001 23.6566 157.355C23.5436 157.709 23.4767 158.138 23.4567 158.642H27.5496V158.418C27.5396 158.012 27.4936 157.65 27.4116 157.331C27.3296 157.012 27.2096 156.743 27.0536 156.522C26.8966 156.301 26.6977 156.133 26.4567 156.017C26.2137 155.903 25.9307 155.845 25.6077 155.845Z" fill="black"/>
<path d="M36.7817 159.761C36.7817 160.435 36.7217 161.018 36.6007 161.511C36.4797 162.004 36.3067 162.413 36.0807 162.737C35.8537 163.061 35.5747 163.301 35.2407 163.458C34.9067 163.615 34.5288 163.694 34.1078 163.694C33.6038 163.694 33.1738 163.592 32.8168 163.39C32.4588 163.187 32.1678 162.903 31.9418 162.538V166.747H31.0938V155.2H31.8798L31.9177 156.341C32.1487 155.935 32.4418 155.618 32.7968 155.389C33.1508 155.161 33.5807 155.046 34.0837 155.046C34.5157 155.046 34.8978 155.121 35.2328 155.27C35.5668 155.419 35.8487 155.653 36.0807 155.971C36.3117 156.29 36.4867 156.697 36.6047 157.193C36.7227 157.689 36.7817 158.287 36.7817 158.986V159.761V159.761ZM35.9268 158.983C35.9268 157.914 35.7607 157.128 35.4297 156.624C35.0987 156.12 34.5807 155.868 33.8767 155.868C33.6137 155.868 33.3798 155.906 33.1708 155.98C32.9628 156.054 32.7798 156.156 32.6238 156.284C32.4668 156.413 32.3338 156.559 32.2228 156.723C32.1128 156.888 32.0188 157.062 31.9418 157.247V161.641C32.0238 161.821 32.1247 161.988 32.2457 162.142C32.3657 162.296 32.5068 162.43 32.6658 162.543C32.8248 162.656 33.0057 162.744 33.2087 162.805C33.4117 162.866 33.6397 162.897 33.8907 162.897C34.5847 162.897 35.0977 162.641 35.4287 162.13C35.7607 161.619 35.9258 160.829 35.9258 159.76V158.983H35.9268Z" fill="black"/>
<path d="M42.3903 163.693C41.9273 163.693 41.5043 163.617 41.1193 163.465C40.7333 163.313 40.4002 163.082 40.1212 162.771C39.8402 162.46 39.6242 162.068 39.4692 161.595C39.3152 161.122 39.2383 160.562 39.2383 159.915V158.967C39.2383 158.268 39.3202 157.671 39.4852 157.174C39.6492 156.678 39.8693 156.272 40.1443 155.956C40.4193 155.64 40.7382 155.409 41.1002 155.262C41.4622 155.116 41.8442 155.042 42.2452 155.042C43.1602 155.042 43.8552 155.344 44.3302 155.948C44.8052 156.552 45.0432 157.475 45.0432 158.719V159.444H40.0873V159.914C40.0873 160.423 40.1432 160.865 40.2562 161.24C40.3692 161.615 40.5293 161.926 40.7343 162.173C40.9393 162.419 41.1862 162.603 41.4742 162.724C41.7622 162.845 42.0813 162.906 42.4303 162.906C42.8623 162.906 43.2373 162.832 43.5553 162.686C43.8733 162.54 44.1643 162.312 44.4263 162.004L44.8743 162.574C44.7603 162.728 44.6283 162.872 44.4773 163.006C44.3253 163.14 44.1482 163.258 43.9452 163.361C43.7422 163.464 43.5122 163.545 43.2552 163.604C42.9972 163.663 42.7093 163.693 42.3903 163.693ZM42.2443 155.845C41.9413 155.845 41.6622 155.897 41.4082 155.999C41.1542 156.102 40.9322 156.265 40.7452 156.488C40.5572 156.712 40.4072 157.001 40.2942 157.355C40.1812 157.709 40.1142 158.138 40.0942 158.642H44.1873V158.418C44.1773 158.012 44.1302 157.65 44.0492 157.331C43.9662 157.012 43.8473 156.743 43.6913 156.522C43.5343 156.301 43.3343 156.133 43.0933 156.017C42.8503 155.903 42.5673 155.845 42.2443 155.845Z" fill="black"/>
<path d="M48.5475 155.198L48.5704 156.524C48.8174 156.072 49.1315 155.712 49.5145 155.445C49.8975 155.178 50.3335 155.044 50.8215 155.044C51.1705 155.044 51.4824 155.101 51.7574 155.214C52.0324 155.327 52.2655 155.507 52.4595 155.753C52.6515 156 52.7995 156.317 52.9025 156.705C53.0055 157.093 53.0565 157.562 53.0565 158.112V163.539H52.2085V158.105C52.2085 157.678 52.1704 157.321 52.0964 157.033C52.0214 156.745 51.9155 156.516 51.7765 156.343C51.6385 156.171 51.4695 156.047 51.2715 155.973C51.0735 155.898 50.8515 155.861 50.6045 155.861C50.3475 155.861 50.1114 155.914 49.8984 156.019C49.6854 156.124 49.4945 156.264 49.3245 156.439C49.1545 156.614 49.0085 156.814 48.8845 157.04C48.7615 157.266 48.6605 157.503 48.5835 157.749V163.538H47.7275V155.197H48.5475V155.198Z" fill="black"/>
<path d="M55.8916 158.983C55.8916 158.284 55.9546 157.687 56.0806 157.19C56.2066 156.694 56.3877 156.287 56.6237 155.968C56.8597 155.649 57.1466 155.415 57.4836 155.267C57.8196 155.118 58.1967 155.043 58.6127 155.043C59.1107 155.043 59.5336 155.155 59.8806 155.378C60.2276 155.601 60.5117 155.914 60.7327 156.314V151.697H61.5886V163.537H60.7866L60.7487 162.466C60.5277 162.852 60.2406 163.152 59.8896 163.368C59.5376 163.584 59.1096 163.692 58.6056 163.692C58.1886 163.692 57.8136 163.613 57.4796 163.456C57.1456 163.299 56.8617 163.059 56.6287 162.735C56.3947 162.411 56.2136 162.003 56.0846 161.509C55.9556 161.016 55.8926 160.433 55.8926 159.759V158.983H55.8916ZM56.7616 159.761C56.7616 160.83 56.9227 161.616 57.2437 162.12C57.5647 162.623 58.0746 162.875 58.7736 162.875C59.0256 162.875 59.2527 162.843 59.4567 162.778C59.6597 162.714 59.8417 162.624 60.0037 162.508C60.1657 162.393 60.3056 162.257 60.4236 162.099C60.5416 161.942 60.6446 161.772 60.7316 161.587V157.262C60.6546 157.077 60.5597 156.9 60.4467 156.73C60.3337 156.56 60.1986 156.412 60.0416 156.287C59.8846 156.162 59.7026 156.059 59.4946 155.983C59.2866 155.906 59.0486 155.867 58.7816 155.867C58.0766 155.867 57.5647 156.12 57.2437 156.626C56.9217 157.132 56.7616 157.917 56.7616 158.981V159.761Z" fill="black"/>
<path d="M67.5201 163.693C67.0571 163.693 66.6332 163.617 66.2482 163.465C65.8632 163.313 65.5301 163.082 65.2501 162.771C64.9701 162.46 64.7531 162.068 64.5991 161.595C64.4451 161.122 64.3682 160.562 64.3682 159.915V158.967C64.3682 158.268 64.4501 157.671 64.6151 157.174C64.7791 156.678 64.9992 156.272 65.2742 155.956C65.5492 155.64 65.8671 155.409 66.2301 155.262C66.5921 155.116 66.9741 155.042 67.3751 155.042C68.2891 155.042 68.9841 155.344 69.4601 155.948C69.9361 156.552 70.1731 157.475 70.1731 158.719V159.444H65.2161V159.914C65.2161 160.423 65.2731 160.865 65.3861 161.24C65.4991 161.615 65.6581 161.926 65.8641 162.173C66.0701 162.419 66.3161 162.603 66.6041 162.724C66.8921 162.845 67.2102 162.906 67.5602 162.906C67.9922 162.906 68.3672 162.832 68.6852 162.686C69.0032 162.54 69.2942 162.312 69.5562 162.004L70.0032 162.574C69.8902 162.728 69.7581 162.872 69.6061 163.006C69.4551 163.14 69.2781 163.258 69.0741 163.361C68.8711 163.464 68.6422 163.545 68.3842 163.604C68.1262 163.663 67.8381 163.693 67.5201 163.693ZM67.3741 155.845C67.0701 155.845 66.7921 155.897 66.5371 155.999C66.2831 156.102 66.0621 156.265 65.8751 156.488C65.6871 156.712 65.5371 157.001 65.4241 157.355C65.3111 157.709 65.2441 158.138 65.2241 158.642H69.3171V158.418C69.3071 158.012 69.2611 157.65 69.1781 157.331C69.0961 157.012 68.9761 156.743 68.8201 156.522C68.6631 156.301 68.4641 156.133 68.2231 156.017C67.9801 155.903 67.6971 155.845 67.3741 155.845Z" fill="black"/>
<path d="M73.6764 155.198L73.7003 156.524C73.9473 156.072 74.2614 155.712 74.6444 155.445C75.0274 155.178 75.4634 155.044 75.9514 155.044C76.3004 155.044 76.6123 155.101 76.8873 155.214C77.1623 155.327 77.3964 155.507 77.5894 155.753C77.7814 156 77.9303 156.317 78.0323 156.705C78.1353 157.093 78.1874 157.562 78.1874 158.112V163.539H77.3394V158.105C77.3394 157.678 77.3024 157.321 77.2274 157.033C77.1524 156.745 77.0463 156.516 76.9073 156.343C76.7683 156.171 76.6003 156.047 76.4023 155.973C76.2043 155.898 75.9824 155.861 75.7354 155.861C75.4784 155.861 75.2434 155.914 75.0294 156.019C74.8164 156.124 74.6253 156.264 74.4553 156.439C74.2863 156.614 74.1394 156.814 74.0164 157.04C73.8934 157.266 73.7923 157.503 73.7153 157.749V163.538H72.8594V155.197H73.6764V155.198Z" fill="black"/>
<path d="M82.6147 153.07V155.198H84.0408V155.969H82.6147V161.511C82.6147 161.799 82.6387 162.032 82.6877 162.209C82.7367 162.386 82.8028 162.524 82.8838 162.622C82.9668 162.72 83.0598 162.785 83.1648 162.819C83.2708 162.852 83.3818 162.869 83.4998 162.869C83.6128 162.869 83.7238 162.86 83.8318 162.842C83.9398 162.824 84.0347 162.807 84.1167 162.792L84.1398 163.563C84.0478 163.604 83.9258 163.636 83.7738 163.66C83.6228 163.683 83.4638 163.695 83.2998 163.695C83.0788 163.695 82.8748 163.659 82.6868 163.587C82.4988 163.515 82.3358 163.394 82.1968 163.224C82.0578 163.055 81.9498 162.83 81.8728 162.55C81.7958 162.27 81.7578 161.921 81.7578 161.505V155.97H80.4707V155.199H81.7578V153.071H82.6147V153.07Z" fill="black"/>
<path d="M93.8268 162.899C94.0628 162.899 94.2917 162.868 94.5127 162.807C94.7337 162.746 94.9298 162.64 95.1028 162.491C95.2748 162.342 95.4157 162.143 95.5267 161.894C95.6367 161.645 95.6997 161.332 95.7157 160.957H96.5408C96.5198 161.404 96.4357 161.799 96.2867 162.141C96.1377 162.483 95.9397 162.768 95.6927 162.997C95.4467 163.225 95.1637 163.399 94.8447 163.517C94.5257 163.635 94.1868 163.694 93.8268 163.694C92.8248 163.694 92.0707 163.37 91.5647 162.722C91.0577 162.075 90.8047 161.114 90.8047 159.839V158.898C90.8047 157.623 91.0577 156.663 91.5647 156.015C92.0707 155.368 92.8217 155.044 93.8197 155.044C94.1997 155.044 94.5538 155.105 94.8798 155.225C95.2058 155.346 95.4888 155.529 95.7278 155.772C95.9668 156.016 96.1587 156.325 96.3027 156.697C96.4467 157.069 96.5267 157.508 96.5417 158.011H95.7167C95.7007 157.626 95.6417 157.296 95.5397 157.021C95.4367 156.746 95.3017 156.521 95.1357 156.346C94.9687 156.172 94.7727 156.044 94.5497 155.965C94.3267 155.885 94.0838 155.845 93.8218 155.845C93.4258 155.845 93.0917 155.913 92.8197 156.049C92.5467 156.186 92.3257 156.384 92.1567 156.647C91.9877 156.909 91.8637 157.229 91.7867 157.607C91.7097 157.985 91.6708 158.415 91.6708 158.898V159.839C91.6708 160.327 91.7077 160.761 91.7827 161.142C91.8567 161.522 91.9787 161.842 92.1487 162.101C92.3187 162.361 92.5407 162.559 92.8157 162.695C93.0877 162.831 93.4258 162.899 93.8268 162.899Z" fill="black"/>
<path d="M102.488 156C102.4 155.985 102.314 155.972 102.23 155.961C102.145 155.951 102.051 155.946 101.949 155.946C101.697 155.946 101.47 155.991 101.266 156.081C101.063 156.171 100.885 156.297 100.73 156.459C100.576 156.621 100.443 156.815 100.333 157.041C100.222 157.267 100.136 157.514 100.075 157.781V163.539H99.2188V155.198H100.06L100.075 156.447C100.265 156.01 100.517 155.667 100.83 155.418C101.143 155.169 101.529 155.044 101.987 155.044C102.079 155.044 102.176 155.054 102.28 155.075C102.383 155.096 102.457 155.119 102.503 155.144L102.488 156Z" fill="black"/>
<path d="M107.464 163.693C107.001 163.693 106.578 163.617 106.193 163.465C105.807 163.313 105.474 163.082 105.195 162.771C104.914 162.46 104.698 162.068 104.543 161.595C104.389 161.122 104.312 160.562 104.312 159.915V158.967C104.312 158.268 104.394 157.671 104.559 157.174C104.723 156.678 104.944 156.272 105.219 155.956C105.494 155.64 105.812 155.409 106.174 155.262C106.536 155.116 106.918 155.042 107.319 155.042C108.234 155.042 108.93 155.344 109.405 155.948C109.88 156.552 110.117 157.475 110.117 158.719V159.444H105.161V159.914C105.161 160.423 105.217 160.865 105.33 161.24C105.443 161.615 105.602 161.926 105.808 162.173C106.013 162.419 106.26 162.603 106.548 162.724C106.836 162.845 107.156 162.906 107.505 162.906C107.937 162.906 108.311 162.832 108.63 162.686C108.948 162.54 109.238 162.312 109.5 162.004L109.948 162.574C109.834 162.728 109.703 162.872 109.552 163.006C109.4 163.14 109.223 163.258 109.02 163.361C108.817 163.464 108.586 163.545 108.329 163.604C108.07 163.663 107.783 163.693 107.464 163.693ZM107.318 155.845C107.015 155.845 106.737 155.897 106.483 155.999C106.229 156.102 106.006 156.265 105.819 156.488C105.631 156.712 105.482 157.001 105.369 157.355C105.256 157.709 105.188 158.138 105.168 158.642H109.261V158.418C109.251 158.012 109.205 157.65 109.124 157.331C109.041 157.012 108.922 156.743 108.765 156.522C108.608 156.301 108.409 156.133 108.167 156.017C107.925 155.903 107.641 155.845 107.318 155.845Z" fill="black"/>
<path d="M117.214 163.538C117.173 163.399 117.139 163.226 117.114 163.018C117.088 162.81 117.07 162.598 117.06 162.382C116.952 162.557 116.824 162.723 116.674 162.879C116.525 163.036 116.355 163.175 116.161 163.295C115.969 163.416 115.754 163.512 115.517 163.584C115.281 163.656 115.026 163.692 114.754 163.692C114.41 163.692 114.097 163.643 113.817 163.545C113.537 163.447 113.297 163.301 113.096 163.106C112.895 162.911 112.741 162.666 112.633 162.374C112.525 162.081 112.471 161.739 112.471 161.348C112.471 160.963 112.538 160.607 112.671 160.281C112.805 159.954 113.004 159.673 113.268 159.437C113.533 159.201 113.863 159.016 114.259 158.882C114.655 158.748 115.115 158.682 115.639 158.682H117.049V157.518C117.049 156.922 116.902 156.494 116.606 156.234C116.31 155.975 115.877 155.845 115.307 155.845C115.04 155.845 114.794 155.886 114.571 155.968C114.347 156.05 114.156 156.165 113.997 156.311C113.837 156.457 113.714 156.632 113.626 156.835C113.539 157.038 113.496 157.261 113.496 157.502L112.64 157.494C112.64 157.17 112.704 156.861 112.832 156.565C112.961 156.27 113.143 156.009 113.379 155.783C113.615 155.557 113.9 155.377 114.235 155.243C114.568 155.11 114.939 155.043 115.345 155.043C115.72 155.043 116.063 155.088 116.374 155.178C116.686 155.268 116.954 155.412 117.18 155.61C117.406 155.808 117.582 156.065 117.708 156.381C117.834 156.697 117.897 157.081 117.897 157.534V161.789C117.897 161.933 117.902 162.082 117.913 162.236C117.923 162.39 117.937 162.54 117.955 162.687C117.973 162.834 117.996 162.972 118.024 163.104C118.052 163.235 118.085 163.349 118.12 163.447V163.539H117.214V163.538ZM114.863 162.868C115.13 162.868 115.38 162.831 115.615 162.756C115.849 162.681 116.058 162.579 116.243 162.448C116.428 162.317 116.589 162.164 116.725 161.989C116.861 161.814 116.97 161.627 117.053 161.427V159.399H115.766C114.959 159.399 114.353 159.569 113.947 159.908C113.541 160.247 113.338 160.705 113.338 161.28C113.338 161.83 113.473 162.232 113.743 162.487C114.011 162.74 114.385 162.868 114.863 162.868Z" fill="black"/>
<path d="M122.39 153.07V155.198H123.816V155.969H122.39V161.511C122.39 161.799 122.414 162.032 122.463 162.209C122.512 162.386 122.578 162.524 122.659 162.622C122.742 162.72 122.835 162.785 122.94 162.819C123.046 162.852 123.157 162.869 123.275 162.869C123.388 162.869 123.499 162.86 123.607 162.842C123.715 162.824 123.81 162.807 123.892 162.792L123.915 163.563C123.823 163.604 123.701 163.636 123.549 163.66C123.398 163.683 123.239 163.695 123.075 163.695C122.854 163.695 122.65 163.659 122.462 163.587C122.274 163.515 122.111 163.394 121.972 163.224C121.833 163.055 121.725 162.83 121.648 162.55C121.571 162.27 121.533 161.921 121.533 161.505V155.97H120.246V155.199H121.533V153.071H122.39V153.07Z" fill="black"/>
<path d="M126.52 152.793C126.52 152.618 126.569 152.469 126.667 152.346C126.765 152.223 126.903 152.161 127.083 152.161C127.263 152.161 127.402 152.222 127.502 152.346C127.602 152.469 127.652 152.619 127.652 152.793C127.652 152.967 127.602 153.116 127.502 153.236C127.402 153.357 127.263 153.417 127.083 153.417C126.903 153.417 126.765 153.356 126.667 153.236C126.569 153.115 126.52 152.967 126.52 152.793ZM127.506 163.538H126.643V155.197H127.506V163.538Z" fill="black"/>
<path d="M132.953 162.197L135.004 155.198H135.883L133.285 163.539H132.607L129.994 155.198H130.873L132.953 162.197Z" fill="black"/>
<path d="M140.96 163.693C140.497 163.693 140.074 163.617 139.689 163.465C139.303 163.313 138.97 163.082 138.691 162.771C138.41 162.46 138.194 162.068 138.039 161.595C137.885 161.122 137.808 160.562 137.808 159.915V158.967C137.808 158.268 137.89 157.671 138.055 157.174C138.219 156.678 138.439 156.272 138.714 155.956C138.989 155.64 139.308 155.409 139.67 155.262C140.032 155.116 140.414 155.042 140.815 155.042C141.73 155.042 142.425 155.344 142.9 155.948C143.375 156.552 143.613 157.475 143.613 158.719V159.444H138.657V159.914C138.657 160.423 138.713 160.865 138.826 161.24C138.939 161.615 139.099 161.926 139.304 162.173C139.51 162.419 139.756 162.603 140.044 162.724C140.332 162.845 140.651 162.906 141 162.906C141.432 162.906 141.806 162.832 142.125 162.686C142.444 162.54 142.734 162.312 142.996 162.004L143.444 162.574C143.33 162.728 143.198 162.872 143.047 163.006C142.895 163.14 142.718 163.258 142.515 163.361C142.312 163.464 142.082 163.545 141.825 163.604C141.567 163.663 141.279 163.693 140.96 163.693ZM140.814 155.845C140.511 155.845 140.232 155.897 139.978 155.999C139.724 156.102 139.502 156.265 139.315 156.488C139.127 156.712 138.977 157.001 138.864 157.355C138.751 157.709 138.684 158.138 138.664 158.642H142.757V158.418C142.747 158.012 142.7 157.65 142.619 157.331C142.536 157.012 142.417 156.743 142.261 156.522C142.104 156.301 141.904 156.133 141.663 156.017C141.42 155.903 141.138 155.845 140.814 155.845Z" fill="black"/>
<path d="M156.402 159.761C156.402 160.435 156.342 161.018 156.221 161.511C156.1 162.004 155.927 162.413 155.701 162.737C155.474 163.061 155.195 163.301 154.861 163.458C154.527 163.615 154.149 163.694 153.728 163.694C153.224 163.694 152.794 163.592 152.437 163.39C152.08 163.187 151.788 162.903 151.562 162.538V166.747H150.714V155.2H151.5L151.538 156.341C151.769 155.935 152.062 155.618 152.417 155.389C152.771 155.161 153.201 155.046 153.704 155.046C154.136 155.046 154.518 155.121 154.853 155.27C155.187 155.419 155.469 155.653 155.701 155.971C155.932 156.29 156.107 156.697 156.225 157.193C156.343 157.689 156.402 158.287 156.402 158.986V159.761V159.761ZM155.546 158.983C155.546 157.914 155.38 157.128 155.049 156.624C154.718 156.12 154.2 155.868 153.496 155.868C153.233 155.868 152.999 155.906 152.79 155.98C152.582 156.054 152.399 156.156 152.243 156.284C152.086 156.413 151.953 156.559 151.842 156.723C151.732 156.888 151.638 157.062 151.561 157.247V161.641C151.643 161.821 151.744 161.988 151.865 162.142C151.986 162.296 152.126 162.43 152.285 162.543C152.444 162.656 152.625 162.744 152.828 162.805C153.031 162.866 153.259 162.897 153.51 162.897C154.204 162.897 154.717 162.641 155.048 162.13C155.38 161.619 155.545 160.829 155.545 159.76V158.983H155.546Z" fill="black"/>
<path d="M163.668 163.538C163.627 163.399 163.593 163.226 163.568 163.018C163.542 162.81 163.524 162.598 163.514 162.382C163.406 162.557 163.278 162.723 163.128 162.879C162.979 163.036 162.809 163.175 162.615 163.295C162.423 163.416 162.208 163.512 161.971 163.584C161.735 163.656 161.48 163.692 161.208 163.692C160.864 163.692 160.551 163.643 160.271 163.545C159.991 163.447 159.751 163.301 159.551 163.106C159.351 162.911 159.196 162.666 159.088 162.374C158.98 162.081 158.926 161.739 158.926 161.348C158.926 160.963 158.993 160.607 159.126 160.281C159.26 159.954 159.459 159.673 159.723 159.437C159.988 159.201 160.318 159.016 160.714 158.882C161.11 158.748 161.57 158.682 162.094 158.682H163.504V157.518C163.504 156.922 163.357 156.494 163.061 156.234C162.765 155.975 162.332 155.845 161.762 155.845C161.495 155.845 161.249 155.886 161.026 155.968C160.802 156.05 160.611 156.165 160.452 156.311C160.292 156.457 160.169 156.632 160.081 156.835C159.994 157.038 159.951 157.261 159.951 157.502L159.095 157.494C159.095 157.17 159.159 156.861 159.287 156.565C159.416 156.27 159.598 156.009 159.834 155.783C160.07 155.557 160.355 155.377 160.69 155.243C161.023 155.11 161.394 155.043 161.8 155.043C162.175 155.043 162.518 155.088 162.829 155.178C163.141 155.268 163.409 155.412 163.635 155.61C163.861 155.808 164.037 156.065 164.163 156.381C164.289 156.697 164.352 157.081 164.352 157.534V161.789C164.352 161.933 164.357 162.082 164.368 162.236C164.378 162.39 164.392 162.54 164.41 162.687C164.428 162.833 164.451 162.972 164.479 163.104C164.507 163.235 164.54 163.349 164.575 163.447V163.539H163.668V163.538ZM161.317 162.868C161.584 162.868 161.834 162.831 162.068 162.756C162.302 162.681 162.511 162.579 162.696 162.448C162.881 162.317 163.042 162.164 163.178 161.989C163.314 161.814 163.423 161.627 163.506 161.427V159.399H162.219C161.412 159.399 160.806 159.569 160.4 159.908C159.994 160.247 159.791 160.705 159.791 161.28C159.791 161.83 159.926 162.232 160.196 162.487C160.465 162.74 160.839 162.868 161.317 162.868Z" fill="black"/>
<path d="M170.828 156C170.74 155.985 170.655 155.972 170.57 155.961C170.486 155.951 170.392 155.946 170.289 155.946C170.037 155.946 169.81 155.991 169.606 156.081C169.403 156.171 169.225 156.297 169.07 156.459C168.916 156.621 168.784 156.815 168.673 157.041C168.562 157.267 168.477 157.514 168.415 157.781V163.539H167.559V155.198H168.399L168.415 156.447C168.605 156.01 168.857 155.667 169.17 155.418C169.483 155.169 169.869 155.044 170.326 155.044C170.418 155.044 170.516 155.054 170.619 155.075C170.721 155.096 170.796 155.119 170.842 155.144L170.828 156Z" fill="black"/>
<path d="M174.871 153.07V155.198H176.297V155.969H174.871V161.511C174.871 161.799 174.895 162.032 174.944 162.209C174.993 162.386 175.06 162.524 175.141 162.622C175.224 162.72 175.317 162.785 175.422 162.819C175.528 162.852 175.638 162.869 175.756 162.869C175.869 162.869 175.981 162.86 176.089 162.842C176.197 162.824 176.292 162.807 176.374 162.792L176.396 163.563C176.304 163.604 176.183 163.636 176.031 163.66C175.88 163.683 175.721 163.695 175.557 163.695C175.336 163.695 175.131 163.659 174.943 163.587C174.755 163.515 174.592 163.394 174.453 163.224C174.314 163.055 174.207 162.83 174.13 162.55C174.053 162.27 174.015 161.921 174.015 161.505V155.97H172.728V155.199H174.015V153.071H174.871V153.07Z" fill="black"/>
<path d="M179.848 155.198L179.872 156.524C180.119 156.072 180.433 155.712 180.816 155.445C181.199 155.178 181.635 155.044 182.122 155.044C182.472 155.044 182.783 155.101 183.058 155.214C183.333 155.327 183.567 155.507 183.76 155.753C183.952 156 184.101 156.317 184.203 156.705C184.306 157.093 184.358 157.562 184.358 158.112V163.539H183.51V158.105C183.51 157.678 183.473 157.321 183.398 157.033C183.323 156.745 183.217 156.516 183.078 156.343C182.939 156.171 182.771 156.047 182.573 155.973C182.375 155.898 182.153 155.861 181.906 155.861C181.649 155.861 181.414 155.914 181.2 156.019C180.987 156.124 180.796 156.264 180.626 156.439C180.457 156.614 180.31 156.814 180.187 157.04C180.064 157.266 179.963 157.503 179.886 157.749V163.538H179.03V155.197H179.848V155.198Z" fill="black"/>
<path d="M190.253 163.693C189.79 163.693 189.366 163.617 188.981 163.465C188.595 163.313 188.263 163.082 187.983 162.771C187.703 162.46 187.486 162.068 187.331 161.595C187.177 161.122 187.1 160.562 187.1 159.915V158.967C187.1 158.268 187.182 157.671 187.347 157.174C187.511 156.678 187.731 156.272 188.006 155.956C188.281 155.64 188.6 155.409 188.962 155.262C189.324 155.116 189.706 155.042 190.107 155.042C191.022 155.042 191.717 155.344 192.192 155.948C192.668 156.552 192.905 157.475 192.905 158.719V159.444H187.949V159.914C187.949 160.423 188.006 160.865 188.118 161.24C188.232 161.615 188.391 161.926 188.596 162.173C188.802 162.419 189.048 162.603 189.336 162.724C189.624 162.845 189.943 162.906 190.292 162.906C190.724 162.906 191.099 162.832 191.418 162.686C191.736 162.54 192.027 162.312 192.289 162.004L192.736 162.574C192.623 162.728 192.491 162.872 192.339 163.006C192.187 163.14 192.01 163.258 191.807 163.361C191.604 163.464 191.374 163.545 191.117 163.604C190.859 163.663 190.571 163.693 190.253 163.693ZM190.106 155.845C189.803 155.845 189.524 155.897 189.27 155.999C189.016 156.102 188.795 156.265 188.607 156.488C188.419 156.712 188.269 157.001 188.156 157.355C188.043 157.709 187.976 158.138 187.956 158.642H192.049V158.418C192.039 158.012 191.993 157.65 191.911 157.331C191.829 157.012 191.709 156.743 191.553 156.522C191.396 156.301 191.197 156.133 190.956 156.017C190.713 155.903 190.43 155.845 190.106 155.845Z" fill="black"/>
<path d="M198.859 156C198.772 155.985 198.686 155.972 198.601 155.961C198.517 155.951 198.423 155.946 198.32 155.946C198.069 155.946 197.841 155.991 197.638 156.081C197.435 156.171 197.256 156.297 197.102 156.459C196.948 156.621 196.816 156.815 196.705 157.041C196.594 157.267 196.508 157.514 196.447 157.781V163.539H195.591V155.198H196.431L196.447 156.447C196.636 156.01 196.889 155.667 197.202 155.418C197.515 155.169 197.901 155.044 198.358 155.044C198.451 155.044 198.549 155.054 198.651 155.075C198.754 155.096 198.828 155.119 198.875 155.144L198.859 156Z" fill="black"/>
<path d="M205.401 161.488C205.401 161.319 205.369 161.159 205.305 161.01C205.24 160.861 205.135 160.717 204.989 160.578C204.843 160.439 204.65 160.298 204.411 160.154C204.172 160.01 203.875 159.856 203.521 159.691C203.141 159.522 202.801 159.358 202.503 159.202C202.205 159.045 201.955 158.876 201.751 158.693C201.548 158.511 201.393 158.305 201.285 158.076C201.177 157.848 201.124 157.576 201.124 157.263C201.124 156.955 201.181 156.666 201.297 156.396C201.413 156.126 201.578 155.891 201.794 155.69C202.01 155.49 202.272 155.332 202.58 155.216C202.888 155.1 203.233 155.042 203.613 155.042C204.019 155.042 204.384 155.103 204.707 155.223C205.031 155.344 205.305 155.512 205.528 155.728C205.751 155.944 205.923 156.202 206.041 156.503C206.159 156.804 206.218 157.131 206.218 157.486H205.362C205.362 157.27 205.324 157.063 205.246 156.865C205.169 156.667 205.056 156.493 204.907 156.341C204.758 156.189 204.575 156.068 204.36 155.979C204.144 155.889 203.895 155.844 203.612 155.844C203.319 155.844 203.07 155.884 202.864 155.964C202.658 156.044 202.489 156.149 202.355 156.28C202.222 156.411 202.124 156.561 202.062 156.727C202 156.894 201.97 157.062 201.97 157.232C201.97 157.401 201.996 157.552 202.047 157.683C202.098 157.814 202.192 157.941 202.328 158.064C202.464 158.187 202.648 158.314 202.879 158.446C203.11 158.577 203.408 158.73 203.773 158.904C204.159 159.074 204.505 159.239 204.814 159.398C205.123 159.557 205.384 159.733 205.596 159.926C205.809 160.118 205.974 160.336 206.09 160.577C206.205 160.819 206.264 161.107 206.264 161.441C206.264 161.785 206.202 162.096 206.079 162.374C205.956 162.651 205.78 162.888 205.551 163.083C205.322 163.278 205.047 163.428 204.726 163.534C204.404 163.639 204.049 163.692 203.658 163.692C203.206 163.692 202.807 163.626 202.463 163.495C202.119 163.364 201.83 163.188 201.596 162.967C201.362 162.746 201.185 162.489 201.064 162.196C200.943 161.903 200.883 161.592 200.883 161.263H201.746C201.761 161.592 201.829 161.862 201.95 162.072C202.071 162.283 202.221 162.45 202.401 162.573C202.581 162.696 202.781 162.781 203.002 162.827C203.223 162.873 203.442 162.896 203.657 162.896C203.939 162.896 204.19 162.859 204.408 162.784C204.626 162.709 204.809 162.609 204.955 162.483C205.101 162.357 205.212 162.208 205.287 162.036C205.364 161.867 205.401 161.684 205.401 161.488Z" fill="black"/>
<path d="M14.7039 145.063C7.10586 145.063 0.878906 138.875 0.878906 131.238C0.878906 123.601 7.10586 117.413 14.7039 117.413C18.6989 117.413 22.4978 119.136 25.1218 122.113C25.5918 122.661 25.5129 123.445 25.0049 123.875C24.4959 124.345 23.7118 124.306 23.2418 123.757C21.0878 121.29 17.9939 119.88 14.7039 119.88C8.47686 119.88 3.38586 124.971 3.38586 131.237C3.38586 137.464 8.47686 142.556 14.7039 142.556C17.8369 142.556 20.8129 141.264 22.9279 139.031V133.47H15.6829C14.9779 133.47 14.4288 132.922 14.4288 132.217C14.4288 131.512 14.9779 130.964 15.6829 130.964H24.1819C24.8869 130.964 25.4359 131.512 25.4359 132.217V139.502C25.4359 139.815 25.3189 140.089 25.1229 140.324C22.4969 143.339 18.6979 145.063 14.7039 145.063Z" fill="black"/>
<path d="M41.2188 145.063C35.1097 145.063 30.1357 140.089 30.1357 133.94V118.666C30.1357 117.961 30.6847 117.413 31.3497 117.413C32.0557 117.413 32.6038 117.961 32.6038 118.666V133.94C32.6038 138.718 36.4807 142.556 41.2197 142.556C45.9987 142.556 49.8358 138.718 49.8358 133.94V118.666C49.8358 117.961 50.3837 117.413 51.0887 117.413C51.7947 117.413 52.3428 117.961 52.3428 118.666V133.94C52.3418 140.088 47.3678 145.063 41.2188 145.063Z" fill="black"/>
<path d="M58.1006 145.063C57.3946 145.063 56.8477 144.515 56.8477 143.809V118.666C56.8477 117.961 57.3956 117.413 58.1006 117.413C58.8056 117.413 59.3536 117.961 59.3536 118.666V143.809C59.3536 144.514 58.8056 145.063 58.1006 145.063Z" fill="black"/>
<path d="M71.4554 145.063H65.1104C64.4054 145.063 63.8574 144.515 63.8574 143.809V118.666C63.8574 117.961 64.4054 117.413 65.1104 117.413H71.4554C79.0924 117.413 85.2804 123.601 85.2804 131.238C85.2804 138.875 79.0924 145.063 71.4554 145.063ZM66.3634 142.556H71.4554C77.7214 142.556 82.8124 137.465 82.8124 131.237C82.8124 124.971 77.7214 119.88 71.4554 119.88H66.3634V142.556Z" fill="black"/>
<path d="M108.506 143.809C108.506 144.514 107.919 145.063 107.253 145.063H90.8429C90.1379 145.063 89.5898 144.515 89.5898 143.809V118.666C89.5898 117.961 90.1379 117.413 90.8429 117.413H107.253C107.919 117.413 108.506 117.961 108.506 118.666C108.506 119.332 107.919 119.88 107.253 119.88H92.0958V129.397H103.023C103.689 129.397 104.277 129.945 104.277 130.611C104.277 131.316 103.69 131.864 103.023 131.864H92.0958V142.556H107.253C107.919 142.556 108.506 143.143 108.506 143.809Z" fill="black"/>
<path d="M132.281 127.478C132.281 133 127.816 137.465 122.333 137.465H116.968V142.752C116.968 144.044 115.95 145.063 114.697 145.063C113.443 145.063 112.426 144.045 112.426 142.752V119.802C112.426 118.549 113.444 117.53 114.697 117.53H122.334C127.816 117.53 132.281 121.995 132.281 127.478ZM127.737 127.478C127.737 124.501 125.309 122.112 122.332 122.112H116.967V132.882H122.332C125.309 132.882 127.737 130.493 127.737 127.478Z" fill="black"/>
<path d="M149.162 145.063C141.564 145.063 135.415 138.914 135.415 131.316C135.415 123.757 141.564 117.569 149.162 117.569C156.721 117.569 162.909 123.757 162.909 131.316C162.909 138.914 156.721 145.063 149.162 145.063ZM149.162 122.112C144.071 122.112 139.958 126.264 139.958 131.316C139.958 136.407 144.07 140.52 149.162 140.52C154.214 140.52 158.366 136.408 158.366 131.316C158.365 126.264 154.214 122.112 149.162 122.112Z" fill="black"/>
<path d="M175.012 145.063C171.566 145.063 169.49 143.614 168.315 142.439C166.866 140.912 166.044 138.875 166.044 136.799C166.044 135.546 167.062 134.528 168.315 134.528C169.568 134.528 170.586 135.546 170.586 136.799C170.586 138.17 171.526 140.52 175.012 140.52C178.498 140.52 179.438 138.17 179.438 136.799C179.438 134.723 178.302 134.096 174.464 133C172.74 132.491 170.978 131.982 169.529 130.964C167.571 129.632 166.592 127.752 166.592 125.324C166.592 123.366 167.375 121.447 168.707 120.037C169.803 118.901 171.801 117.57 175.012 117.57C178.263 117.57 180.221 118.901 181.318 120.037C182.689 121.447 183.472 123.366 183.472 125.324C183.472 126.577 182.454 127.595 181.162 127.595C179.909 127.595 178.891 126.577 178.891 125.324C178.891 124.149 178.069 122.112 175.014 122.112C171.959 122.112 171.137 124.148 171.137 125.324C171.137 126.851 171.725 127.439 175.719 128.614C177.521 129.123 179.4 129.671 180.928 130.768C182.965 132.178 183.983 134.215 183.983 136.8C183.983 138.875 183.161 140.912 181.712 142.44C180.573 143.613 178.458 145.063 175.012 145.063Z" fill="black"/>
<path d="M207.128 119.841C207.128 121.094 206.109 122.112 204.856 122.112H198.629V142.791C198.629 144.044 197.611 145.062 196.319 145.062C195.065 145.062 194.048 144.044 194.048 142.791V122.112H187.821C186.568 122.112 185.549 121.094 185.549 119.841C185.549 118.588 186.568 117.57 187.821 117.57H204.857C206.109 117.569 207.128 118.588 207.128 119.841Z" fill="black"/>
</svg>
