<svg width="216" height="54" viewBox="0 0 216 54" fill="none" xmlns="http://www.w3.org/2000/svg">
<path d="M69.3232 35.756C69.3232 35.632 69.3582 35.527 69.4272 35.439C69.4962 35.352 69.5952 35.308 69.7232 35.308C69.8512 35.308 69.9502 35.352 70.0222 35.439C70.0932 35.526 70.1292 35.632 70.1292 35.756C70.1292 35.88 70.0932 35.985 70.0222 36.07C69.9512 36.156 69.8512 36.198 69.7232 36.198C69.5952 36.198 69.4962 36.155 69.4272 36.07C69.3582 35.984 69.3232 35.879 69.3232 35.756ZM70.0252 43.372H69.4112V37.46H70.0252V43.372Z" fill="#1B708A"/>
<path d="M72.9072 37.46L72.9231 38.4C73.0991 38.08 73.3221 37.824 73.5951 37.635C73.8671 37.446 74.1771 37.351 74.5241 37.351C74.7721 37.351 74.9951 37.391 75.1901 37.471C75.3861 37.551 75.5521 37.679 75.6891 37.853C75.8261 38.028 75.9312 38.253 76.0042 38.528C76.0772 38.803 76.1142 39.135 76.1142 39.525V43.371H75.5111V39.519C75.5111 39.217 75.4851 38.964 75.4321 38.76C75.3791 38.556 75.3031 38.393 75.2051 38.271C75.1061 38.149 74.9871 38.062 74.8461 38.009C74.7051 37.956 74.5471 37.93 74.3721 37.93C74.1891 37.93 74.0221 37.967 73.8701 38.042C73.7181 38.117 73.5821 38.216 73.4621 38.34C73.3411 38.464 73.2371 38.606 73.1501 38.766C73.0621 38.926 72.9911 39.094 72.9361 39.269V43.372H72.3271V37.46H72.9072V37.46Z" fill="#1B708A"/>
<path d="M78.1289 40.143C78.1289 39.648 78.1739 39.224 78.2629 38.873C78.3529 38.522 78.4809 38.233 78.6499 38.007C78.8179 37.781 79.0219 37.615 79.2609 37.51C79.4999 37.404 79.7679 37.352 80.0639 37.352C80.4179 37.352 80.7189 37.431 80.9659 37.59C81.2129 37.748 81.4149 37.97 81.5719 38.254V34.981H82.1799V43.373H81.6099L81.5829 42.614C81.4259 42.887 81.2219 43.1 80.9719 43.253C80.7219 43.406 80.4169 43.482 80.0589 43.482C79.7629 43.482 79.4959 43.426 79.2589 43.315C79.0209 43.204 78.8189 43.034 78.6529 42.804C78.4869 42.575 78.3579 42.285 78.2659 41.935C78.1749 41.585 78.1289 41.172 78.1289 40.695V40.143V40.143ZM78.7489 40.695C78.7489 41.453 78.8629 42.01 79.0919 42.367C79.3199 42.724 79.6829 42.902 80.1799 42.902C80.3589 42.902 80.5209 42.879 80.6649 42.834C80.8089 42.788 80.9389 42.725 81.0539 42.643C81.1689 42.561 81.2689 42.465 81.3529 42.353C81.4369 42.242 81.5099 42.121 81.5719 41.99V38.925C81.5169 38.794 81.4489 38.668 81.3689 38.548C81.2889 38.428 81.1929 38.323 81.0809 38.234C80.9699 38.145 80.8399 38.073 80.6919 38.018C80.5439 37.963 80.3749 37.936 80.1849 37.936C79.6839 37.936 79.3199 38.115 79.0909 38.474C78.8619 38.833 78.7479 39.389 78.7479 40.143V40.695H78.7489Z" fill="#1B708A"/>
<path d="M86.4012 43.481C86.0722 43.481 85.7712 43.427 85.4962 43.32C85.2222 43.213 84.9852 43.049 84.7862 42.828C84.5872 42.608 84.4322 42.33 84.3232 41.995C84.2132 41.66 84.1592 41.263 84.1592 40.804V40.132C84.1592 39.637 84.2172 39.213 84.3342 38.862C84.4512 38.51 84.6072 38.223 84.8032 37.999C84.9992 37.775 85.2252 37.611 85.4832 37.507C85.7412 37.403 86.0122 37.351 86.2972 37.351C86.9482 37.351 87.4422 37.565 87.7802 37.993C88.1182 38.421 88.2872 39.076 88.2872 39.957V40.471H84.7622V40.804C84.7622 41.165 84.8022 41.478 84.8832 41.744C84.9632 42.01 85.0772 42.23 85.2232 42.405C85.3692 42.58 85.5452 42.71 85.7492 42.796C85.9542 42.882 86.1802 42.924 86.4292 42.924C86.7362 42.924 87.0032 42.872 87.2292 42.768C87.4562 42.664 87.6622 42.503 87.8492 42.284L88.1672 42.688C88.0872 42.797 87.9922 42.899 87.8852 42.994C87.7772 43.089 87.6512 43.172 87.5072 43.245C87.3632 43.318 87.1992 43.375 87.0172 43.417C86.8322 43.46 86.6272 43.481 86.4012 43.481ZM86.2962 37.919C86.0802 37.919 85.8822 37.955 85.7012 38.028C85.5202 38.101 85.3632 38.217 85.2302 38.375C85.0962 38.533 84.9902 38.738 84.9092 38.99C84.8292 39.241 84.7812 39.546 84.7662 39.902H87.6772V39.744C87.6702 39.456 87.6372 39.2 87.5782 38.974C87.5202 38.748 87.4342 38.557 87.3232 38.4C87.2122 38.243 87.0702 38.124 86.8982 38.042C86.7282 37.96 86.5272 37.919 86.2962 37.919Z" fill="#1B708A"/>
<path d="M94.2442 40.695C94.2442 41.172 94.2012 41.586 94.1152 41.935C94.0292 42.285 93.9062 42.574 93.7452 42.804C93.5842 43.033 93.3852 43.204 93.1482 43.315C92.9102 43.426 92.6422 43.482 92.3422 43.482C91.9842 43.482 91.6782 43.41 91.4242 43.266C91.1702 43.122 90.9632 42.921 90.8022 42.662V45.645H90.1992V37.46H90.7582L90.7862 38.269C90.9512 37.981 91.1592 37.756 91.4112 37.594C91.6632 37.432 91.9682 37.351 92.3272 37.351C92.6342 37.351 92.9062 37.404 93.1442 37.509C93.3822 37.615 93.5832 37.78 93.7472 38.006C93.9112 38.232 94.0362 38.521 94.1202 38.872C94.2042 39.224 94.2462 39.647 94.2462 40.142V40.695H94.2442ZM93.6352 40.143C93.6352 39.385 93.5172 38.828 93.2822 38.471C93.0462 38.114 92.6782 37.936 92.1772 37.936C91.9902 37.936 91.8232 37.962 91.6752 38.015C91.5272 38.068 91.3972 38.14 91.2862 38.231C91.1752 38.322 91.0802 38.426 91.0012 38.542C90.9222 38.659 90.8562 38.782 90.8012 38.914V42.028C90.8592 42.156 90.9322 42.274 91.0182 42.383C91.1042 42.492 91.2042 42.587 91.3172 42.667C91.4302 42.747 91.5592 42.809 91.7042 42.853C91.8492 42.897 92.0102 42.919 92.1892 42.919C92.6822 42.919 93.0472 42.738 93.2832 42.375C93.5192 42.013 93.6362 41.453 93.6362 40.695V40.143H93.6352Z" fill="#1B708A"/>
<path d="M98.2332 43.481C97.9042 43.481 97.6032 43.427 97.3282 43.32C97.0542 43.213 96.8172 43.049 96.6182 42.828C96.4192 42.608 96.2642 42.33 96.1552 41.995C96.0452 41.66 95.9912 41.263 95.9912 40.804V40.132C95.9912 39.637 96.0492 39.213 96.1662 38.862C96.2832 38.51 96.4392 38.223 96.6352 37.999C96.8312 37.775 97.0572 37.611 97.3152 37.507C97.5732 37.403 97.8442 37.351 98.1292 37.351C98.7802 37.351 99.2742 37.565 99.6122 37.993C99.9502 38.421 100.119 39.076 100.119 39.957V40.471H96.5942V40.804C96.5942 41.165 96.6342 41.478 96.7152 41.744C96.7952 42.01 96.9092 42.23 97.0552 42.405C97.2012 42.58 97.3772 42.71 97.5812 42.796C97.7862 42.882 98.0122 42.924 98.2612 42.924C98.5682 42.924 98.8352 42.872 99.0612 42.768C99.2872 42.664 99.4942 42.503 99.6812 42.284L99.9992 42.688C99.9192 42.797 99.8242 42.899 99.7172 42.994C99.6092 43.089 99.4832 43.172 99.3392 43.245C99.1952 43.318 99.0312 43.375 98.8492 43.417C98.6652 43.46 98.4602 43.481 98.2332 43.481ZM98.1292 37.919C97.9132 37.919 97.7152 37.955 97.5342 38.028C97.3532 38.101 97.1962 38.217 97.0632 38.375C96.9292 38.533 96.8232 38.738 96.7422 38.99C96.6622 39.241 96.6142 39.546 96.5992 39.902H99.5102V39.744C99.5032 39.456 99.4702 39.2 99.4112 38.974C99.3532 38.748 99.2672 38.557 99.1562 38.4C99.0452 38.243 98.9032 38.124 98.7312 38.042C98.5602 37.96 98.3602 37.919 98.1292 37.919Z" fill="#1B708A"/>
<path d="M102.612 37.46L102.628 38.4C102.804 38.08 103.027 37.824 103.3 37.635C103.572 37.446 103.882 37.351 104.229 37.351C104.477 37.351 104.7 37.391 104.895 37.471C105.091 37.551 105.257 37.679 105.394 37.853C105.531 38.028 105.636 38.253 105.709 38.528C105.782 38.803 105.819 39.135 105.819 39.525V43.371H105.216V39.519C105.216 39.217 105.19 38.964 105.137 38.76C105.084 38.556 105.008 38.393 104.909 38.271C104.81 38.149 104.691 38.062 104.55 38.009C104.409 37.956 104.251 37.93 104.076 37.93C103.893 37.93 103.726 37.967 103.574 38.042C103.422 38.117 103.286 38.216 103.166 38.34C103.045 38.464 102.941 38.606 102.853 38.766C102.765 38.926 102.694 39.094 102.639 39.269V43.372H102.03V37.46H102.612V37.46Z" fill="#1B708A"/>
<path d="M107.835 40.143C107.835 39.648 107.88 39.224 107.969 38.873C108.059 38.522 108.187 38.233 108.356 38.007C108.524 37.781 108.728 37.615 108.967 37.51C109.206 37.404 109.474 37.352 109.77 37.352C110.124 37.352 110.425 37.431 110.672 37.59C110.919 37.748 111.121 37.97 111.278 38.254V34.981H111.887V43.373H111.317L111.29 42.614C111.133 42.887 110.929 43.1 110.679 43.253C110.429 43.406 110.124 43.482 109.766 43.482C109.47 43.482 109.203 43.426 108.965 43.315C108.727 43.204 108.525 43.034 108.359 42.804C108.193 42.575 108.064 42.285 107.972 41.935C107.881 41.585 107.835 41.172 107.835 40.695V40.143ZM108.454 40.695C108.454 41.453 108.568 42.01 108.797 42.367C109.025 42.724 109.388 42.902 109.885 42.902C110.064 42.902 110.226 42.879 110.37 42.834C110.515 42.788 110.644 42.725 110.759 42.643C110.874 42.561 110.974 42.465 111.058 42.353C111.142 42.242 111.215 42.121 111.277 41.99V38.925C111.222 38.794 111.154 38.668 111.074 38.548C110.994 38.428 110.898 38.323 110.786 38.234C110.674 38.145 110.545 38.073 110.397 38.018C110.249 37.963 110.08 37.936 109.89 37.936C109.389 37.936 109.025 38.115 108.796 38.474C108.567 38.833 108.453 39.389 108.453 40.143V40.695H108.454Z" fill="#1B708A"/>
<path d="M116.106 43.481C115.777 43.481 115.476 43.427 115.201 43.32C114.927 43.213 114.69 43.049 114.491 42.828C114.292 42.608 114.137 42.33 114.028 41.995C113.918 41.66 113.864 41.263 113.864 40.804V40.132C113.864 39.637 113.922 39.213 114.04 38.862C114.157 38.51 114.313 38.223 114.509 37.999C114.705 37.775 114.931 37.611 115.189 37.507C115.447 37.403 115.718 37.351 116.003 37.351C116.653 37.351 117.148 37.565 117.486 37.993C117.824 38.421 117.993 39.076 117.993 39.957V40.471H114.468V40.804C114.468 41.165 114.508 41.478 114.589 41.744C114.669 42.01 114.783 42.23 114.929 42.405C115.075 42.58 115.251 42.71 115.455 42.796C115.66 42.882 115.886 42.924 116.135 42.924C116.442 42.924 116.709 42.872 116.935 42.768C117.162 42.664 117.368 42.503 117.555 42.284L117.873 42.688C117.793 42.797 117.698 42.899 117.591 42.994C117.483 43.089 117.357 43.172 117.213 43.245C117.069 43.318 116.905 43.375 116.722 43.417C116.537 43.46 116.333 43.481 116.106 43.481ZM116.002 37.919C115.786 37.919 115.588 37.955 115.407 38.028C115.226 38.101 115.069 38.217 114.936 38.375C114.803 38.533 114.696 38.738 114.615 38.99C114.535 39.241 114.487 39.546 114.472 39.902H117.383V39.744C117.375 39.456 117.343 39.2 117.284 38.974C117.226 38.748 117.14 38.557 117.029 38.4C116.918 38.243 116.776 38.124 116.604 38.042C116.433 37.96 116.232 37.919 116.002 37.919Z" fill="#1B708A"/>
<path d="M120.484 37.46L120.501 38.4C120.676 38.08 120.9 37.824 121.172 37.635C121.444 37.446 121.754 37.351 122.101 37.351C122.349 37.351 122.571 37.391 122.767 37.471C122.963 37.551 123.129 37.679 123.266 37.853C123.403 38.028 123.508 38.253 123.581 38.528C123.654 38.803 123.691 39.135 123.691 39.525V43.371H123.088V39.519C123.088 39.217 123.062 38.964 123.009 38.76C122.956 38.556 122.88 38.393 122.782 38.271C122.683 38.149 122.564 38.062 122.423 38.009C122.282 37.956 122.124 37.93 121.949 37.93C121.766 37.93 121.599 37.967 121.447 38.042C121.295 38.117 121.159 38.216 121.039 38.34C120.919 38.464 120.814 38.606 120.727 38.766C120.639 38.926 120.568 39.094 120.513 39.269V43.372H119.904V37.46H120.484V37.46Z" fill="#1B708A"/>
<path d="M126.842 35.952V37.46H127.856V38.006H126.842V41.934C126.842 42.138 126.859 42.303 126.894 42.428C126.929 42.554 126.975 42.651 127.034 42.72C127.092 42.789 127.159 42.836 127.234 42.859C127.309 42.883 127.388 42.895 127.472 42.895C127.553 42.895 127.631 42.889 127.708 42.876C127.785 42.863 127.852 42.851 127.911 42.841L127.927 43.387C127.861 43.416 127.774 43.439 127.667 43.455C127.559 43.471 127.447 43.48 127.33 43.48C127.173 43.48 127.027 43.455 126.894 43.404C126.761 43.353 126.644 43.267 126.546 43.147C126.447 43.027 126.37 42.867 126.316 42.669C126.261 42.471 126.234 42.224 126.234 41.929V38.006H125.318V37.46H126.234V35.952H126.842V35.952Z" fill="#1B708A"/>
<path d="M134.815 42.919C134.983 42.919 135.146 42.897 135.303 42.853C135.46 42.809 135.6 42.735 135.723 42.629C135.845 42.523 135.946 42.382 136.024 42.206C136.103 42.029 136.147 41.808 136.158 41.542H136.745C136.73 41.859 136.67 42.139 136.564 42.381C136.458 42.623 136.317 42.825 136.142 42.988C135.966 43.15 135.766 43.273 135.539 43.357C135.312 43.441 135.071 43.483 134.815 43.483C134.102 43.483 133.566 43.254 133.206 42.795C132.846 42.336 132.666 41.655 132.666 40.752V40.085C132.666 39.182 132.846 38.5 133.206 38.042C133.566 37.583 134.1 37.354 134.81 37.354C135.081 37.354 135.332 37.397 135.564 37.482C135.796 37.568 135.997 37.697 136.167 37.87C136.337 38.043 136.473 38.262 136.575 38.526C136.677 38.79 136.734 39.101 136.745 39.458H136.158C136.147 39.185 136.105 38.951 136.032 38.756C135.959 38.561 135.863 38.402 135.744 38.278C135.625 38.154 135.486 38.064 135.327 38.008C135.168 37.952 134.995 37.923 134.809 37.923C134.528 37.923 134.29 37.971 134.096 38.068C133.902 38.165 133.745 38.306 133.624 38.491C133.503 38.677 133.416 38.904 133.361 39.171C133.306 39.439 133.279 39.744 133.279 40.086V40.753C133.279 41.099 133.305 41.407 133.358 41.676C133.411 41.946 133.498 42.172 133.618 42.356C133.739 42.54 133.897 42.68 134.092 42.777C134.29 42.87 134.53 42.919 134.815 42.919Z" fill="#1B708A"/>
<path d="M140.976 38.029C140.914 38.018 140.853 38.009 140.792 38.002C140.732 37.995 140.665 37.991 140.592 37.991C140.413 37.991 140.251 38.023 140.107 38.087C139.963 38.151 139.836 38.24 139.726 38.355C139.616 38.47 139.522 38.607 139.443 38.768C139.364 38.928 139.303 39.103 139.259 39.293V43.374H138.65V37.462H139.248L139.259 38.347C139.394 38.037 139.573 37.794 139.796 37.618C140.019 37.441 140.293 37.353 140.618 37.353C140.684 37.353 140.753 37.36 140.826 37.375C140.899 37.39 140.952 37.406 140.985 37.424L140.976 38.029Z" fill="#1B708A"/>
<path d="M144.515 43.481C144.186 43.481 143.885 43.427 143.61 43.32C143.336 43.213 143.099 43.049 142.9 42.828C142.701 42.608 142.546 42.33 142.437 41.995C142.327 41.66 142.273 41.263 142.273 40.804V40.132C142.273 39.637 142.331 39.213 142.448 38.862C142.565 38.51 142.721 38.223 142.917 37.999C143.113 37.775 143.339 37.611 143.597 37.507C143.855 37.403 144.126 37.351 144.411 37.351C145.061 37.351 145.556 37.565 145.894 37.993C146.232 38.421 146.401 39.076 146.401 39.957V40.471H142.876V40.804C142.876 41.165 142.916 41.478 142.996 41.744C143.076 42.01 143.19 42.23 143.336 42.405C143.482 42.58 143.658 42.71 143.862 42.796C144.067 42.882 144.293 42.924 144.542 42.924C144.849 42.924 145.116 42.872 145.343 42.768C145.569 42.664 145.776 42.503 145.963 42.284L146.281 42.688C146.201 42.797 146.107 42.899 145.999 42.994C145.891 43.089 145.765 43.172 145.621 43.245C145.476 43.318 145.313 43.375 145.13 43.417C144.947 43.46 144.742 43.481 144.515 43.481ZM144.411 37.919C144.195 37.919 143.997 37.955 143.816 38.028C143.635 38.101 143.478 38.217 143.344 38.375C143.211 38.533 143.104 38.738 143.023 38.99C142.943 39.241 142.895 39.546 142.88 39.902H145.791V39.744C145.784 39.456 145.751 39.2 145.692 38.974C145.633 38.748 145.548 38.557 145.437 38.4C145.325 38.243 145.184 38.124 145.012 38.042C144.843 37.96 144.642 37.919 144.411 37.919Z" fill="#1B708A"/>
<path d="M151.449 43.372C151.42 43.274 151.396 43.151 151.378 43.003C151.36 42.856 151.347 42.705 151.34 42.552C151.263 42.676 151.172 42.793 151.066 42.904C150.96 43.015 150.839 43.114 150.701 43.199C150.564 43.285 150.411 43.353 150.243 43.404C150.075 43.455 149.894 43.48 149.7 43.48C149.455 43.48 149.233 43.445 149.034 43.376C148.835 43.307 148.664 43.203 148.521 43.065C148.378 42.927 148.269 42.754 148.192 42.546C148.115 42.338 148.077 42.096 148.077 41.819C148.077 41.546 148.125 41.294 148.22 41.062C148.315 40.831 148.457 40.631 148.645 40.464C148.833 40.296 149.068 40.165 149.349 40.071C149.63 39.976 149.958 39.929 150.33 39.929H151.333V39.104C151.333 38.681 151.228 38.378 151.018 38.194C150.808 38.01 150.5 37.918 150.094 37.918C149.904 37.918 149.729 37.947 149.57 38.005C149.411 38.063 149.275 38.144 149.162 38.248C149.049 38.352 148.961 38.476 148.899 38.62C148.837 38.764 148.806 38.921 148.806 39.093L148.197 39.088C148.197 38.859 148.243 38.639 148.334 38.43C148.425 38.221 148.555 38.036 148.723 37.875C148.891 37.715 149.094 37.587 149.332 37.493C149.57 37.398 149.833 37.351 150.121 37.351C150.388 37.351 150.632 37.383 150.853 37.447C151.074 37.511 151.265 37.613 151.426 37.753C151.587 37.893 151.712 38.075 151.802 38.299C151.892 38.523 151.936 38.795 151.936 39.116V42.132C151.936 42.234 151.94 42.34 151.947 42.449C151.954 42.558 151.964 42.665 151.977 42.769C151.99 42.873 152.006 42.971 152.026 43.064C152.046 43.157 152.069 43.238 152.095 43.307V43.373H151.449V43.372ZM149.777 42.897C149.967 42.897 150.145 42.871 150.312 42.818C150.478 42.765 150.627 42.692 150.759 42.599C150.891 42.506 151.005 42.398 151.102 42.274C151.199 42.15 151.276 42.017 151.335 41.875V40.438H150.419C149.845 40.438 149.414 40.558 149.125 40.799C148.836 41.039 148.692 41.364 148.692 41.772C148.692 42.162 148.788 42.447 148.98 42.627C149.171 42.807 149.437 42.897 149.777 42.897Z" fill="#1B708A"/>
<path d="M155.131 35.952V37.46H156.145V38.006H155.131V41.934C155.131 42.138 155.148 42.303 155.183 42.428C155.218 42.554 155.264 42.651 155.323 42.72C155.381 42.789 155.448 42.836 155.523 42.859C155.598 42.883 155.677 42.895 155.761 42.895C155.842 42.895 155.92 42.889 155.997 42.876C156.074 42.863 156.141 42.851 156.2 42.841L156.216 43.387C156.15 43.416 156.063 43.439 155.956 43.455C155.849 43.471 155.736 43.48 155.619 43.48C155.462 43.48 155.317 43.455 155.183 43.404C155.05 43.353 154.933 43.267 154.835 43.147C154.736 43.027 154.659 42.867 154.605 42.669C154.55 42.471 154.523 42.224 154.523 41.929V38.006H153.607V37.46H154.523V35.952H155.131V35.952Z" fill="#1B708A"/>
<path d="M158.068 35.756C158.068 35.632 158.103 35.527 158.172 35.439C158.241 35.352 158.34 35.308 158.468 35.308C158.596 35.308 158.696 35.352 158.767 35.439C158.838 35.526 158.874 35.632 158.874 35.756C158.874 35.88 158.838 35.985 158.767 36.07C158.696 36.156 158.596 36.198 158.468 36.198C158.34 36.198 158.241 36.155 158.172 36.07C158.103 35.984 158.068 35.879 158.068 35.756ZM158.77 43.372H158.156V37.46H158.77V43.372Z" fill="#1B708A"/>
<path d="M162.644 42.421L164.102 37.46H164.727L162.879 43.372H162.397L160.538 37.46H161.163L162.644 42.421Z" fill="#1B708A"/>
<path d="M168.339 43.481C168.01 43.481 167.709 43.427 167.434 43.32C167.16 43.213 166.923 43.049 166.724 42.828C166.525 42.608 166.37 42.33 166.261 41.995C166.151 41.66 166.097 41.263 166.097 40.804V40.132C166.097 39.637 166.155 39.213 166.272 38.862C166.389 38.51 166.545 38.223 166.741 37.999C166.937 37.775 167.163 37.611 167.421 37.507C167.679 37.403 167.95 37.351 168.235 37.351C168.885 37.351 169.38 37.565 169.718 37.993C170.056 38.421 170.225 39.076 170.225 39.957V40.471H166.7V40.804C166.7 41.165 166.74 41.478 166.82 41.744C166.9 42.01 167.014 42.23 167.16 42.405C167.306 42.58 167.482 42.71 167.686 42.796C167.891 42.882 168.117 42.924 168.366 42.924C168.673 42.924 168.94 42.872 169.167 42.768C169.393 42.664 169.6 42.503 169.787 42.284L170.105 42.688C170.025 42.797 169.931 42.899 169.823 42.994C169.715 43.089 169.589 43.172 169.445 43.245C169.3 43.318 169.137 43.375 168.954 43.417C168.77 43.46 168.566 43.481 168.339 43.481ZM168.235 37.919C168.019 37.919 167.821 37.955 167.64 38.028C167.459 38.101 167.302 38.217 167.169 38.375C167.036 38.533 166.929 38.738 166.848 38.99C166.767 39.241 166.72 39.546 166.705 39.902H169.616V39.744C169.609 39.456 169.576 39.2 169.517 38.974C169.458 38.748 169.373 38.557 169.262 38.4C169.15 38.243 169.009 38.124 168.837 38.042C168.666 37.96 168.465 37.919 168.235 37.919Z" fill="#1B708A"/>
<path d="M179.321 40.695C179.321 41.172 179.278 41.586 179.192 41.935C179.106 42.285 178.983 42.574 178.822 42.804C178.661 43.033 178.462 43.204 178.224 43.315C177.986 43.426 177.718 43.482 177.418 43.482C177.06 43.482 176.754 43.41 176.5 43.266C176.246 43.122 176.039 42.921 175.878 42.662V45.645H175.275V37.46H175.834L175.861 38.269C176.026 37.981 176.234 37.756 176.486 37.594C176.738 37.432 177.043 37.351 177.401 37.351C177.708 37.351 177.98 37.404 178.218 37.509C178.456 37.615 178.657 37.78 178.821 38.006C178.985 38.232 179.11 38.521 179.194 38.872C179.278 39.224 179.32 39.647 179.32 40.142V40.695H179.321ZM178.713 40.143C178.713 39.385 178.595 38.828 178.359 38.471C178.123 38.114 177.755 37.936 177.254 37.936C177.068 37.936 176.9 37.962 176.752 38.015C176.604 38.068 176.474 38.14 176.363 38.231C176.251 38.322 176.156 38.426 176.078 38.542C175.999 38.659 175.933 38.782 175.878 38.914V42.028C175.936 42.156 176.009 42.274 176.095 42.383C176.181 42.492 176.28 42.587 176.394 42.667C176.507 42.747 176.636 42.809 176.781 42.853C176.925 42.897 177.087 42.919 177.266 42.919C177.759 42.919 178.124 42.738 178.36 42.375C178.596 42.013 178.714 41.453 178.714 40.695V40.143H178.713Z" fill="#1B708A"/>
<path d="M184.489 43.372C184.46 43.274 184.436 43.151 184.418 43.003C184.4 42.856 184.387 42.705 184.38 42.552C184.303 42.676 184.212 42.793 184.106 42.904C184 43.015 183.879 43.114 183.741 43.199C183.604 43.285 183.451 43.353 183.283 43.404C183.115 43.455 182.934 43.48 182.74 43.48C182.495 43.48 182.273 43.445 182.074 43.376C181.875 43.307 181.704 43.203 181.561 43.065C181.418 42.927 181.309 42.754 181.232 42.546C181.155 42.338 181.117 42.096 181.117 41.819C181.117 41.546 181.164 41.294 181.26 41.062C181.355 40.831 181.497 40.631 181.685 40.464C181.873 40.296 182.108 40.165 182.389 40.071C182.67 39.976 182.998 39.929 183.37 39.929H184.373V39.104C184.373 38.681 184.268 38.378 184.058 38.194C183.848 38.01 183.54 37.918 183.134 37.918C182.944 37.918 182.769 37.947 182.61 38.005C182.451 38.063 182.315 38.144 182.202 38.248C182.089 38.352 182.001 38.476 181.939 38.62C181.877 38.764 181.846 38.921 181.846 39.093L181.237 39.088C181.237 38.859 181.283 38.639 181.374 38.43C181.465 38.221 181.595 38.036 181.763 37.875C181.931 37.715 182.134 37.587 182.372 37.493C182.61 37.398 182.873 37.351 183.161 37.351C183.428 37.351 183.672 37.383 183.893 37.447C184.114 37.511 184.305 37.613 184.466 37.753C184.627 37.893 184.752 38.075 184.842 38.299C184.932 38.523 184.976 38.795 184.976 39.116V42.132C184.976 42.234 184.98 42.34 184.987 42.449C184.994 42.558 185.004 42.665 185.017 42.769C185.03 42.873 185.046 42.971 185.066 43.064C185.086 43.157 185.109 43.238 185.135 43.307V43.373H184.489V43.372ZM182.817 42.897C183.007 42.897 183.185 42.871 183.352 42.818C183.519 42.765 183.667 42.692 183.799 42.599C183.931 42.506 184.045 42.398 184.142 42.274C184.239 42.15 184.316 42.017 184.375 41.875V40.438H183.46C182.886 40.438 182.455 40.558 182.166 40.799C181.877 41.039 181.733 41.364 181.733 41.772C181.733 42.162 181.829 42.447 182.021 42.627C182.211 42.807 182.477 42.897 182.817 42.897Z" fill="#1B708A"/>
<path d="M189.58 38.029C189.518 38.018 189.457 38.009 189.396 38.002C189.336 37.995 189.269 37.991 189.196 37.991C189.017 37.991 188.855 38.023 188.711 38.087C188.567 38.151 188.44 38.24 188.33 38.355C188.22 38.47 188.126 38.607 188.047 38.768C187.968 38.928 187.907 39.103 187.863 39.293V43.374H187.254V37.462H187.852L187.863 38.347C187.998 38.037 188.177 37.794 188.4 37.618C188.623 37.441 188.897 37.353 189.222 37.353C189.288 37.353 189.357 37.36 189.43 37.375C189.503 37.39 189.556 37.406 189.589 37.424L189.58 38.029Z" fill="#1B708A"/>
<path d="M192.458 35.952V37.46H193.472V38.006H192.458V41.934C192.458 42.138 192.475 42.303 192.51 42.428C192.545 42.554 192.591 42.651 192.65 42.72C192.708 42.789 192.775 42.836 192.85 42.859C192.925 42.883 193.004 42.895 193.088 42.895C193.169 42.895 193.247 42.889 193.324 42.876C193.401 42.863 193.468 42.851 193.527 42.841L193.543 43.387C193.477 43.416 193.39 43.439 193.283 43.455C193.176 43.471 193.063 43.48 192.946 43.48C192.789 43.48 192.644 43.455 192.51 43.404C192.377 43.353 192.26 43.267 192.162 43.147C192.063 43.027 191.986 42.867 191.932 42.669C191.877 42.471 191.85 42.224 191.85 41.929V38.006H190.934V37.46H191.85V35.952H192.458V35.952Z" fill="#1B708A"/>
<path d="M195.996 37.46L196.013 38.4C196.188 38.08 196.412 37.824 196.684 37.635C196.956 37.446 197.266 37.351 197.613 37.351C197.862 37.351 198.083 37.391 198.279 37.471C198.474 37.551 198.641 37.679 198.778 37.853C198.915 38.027 199.02 38.253 199.093 38.528C199.166 38.803 199.203 39.135 199.203 39.525V43.371H198.601V39.519C198.601 39.217 198.575 38.964 198.522 38.76C198.469 38.556 198.393 38.393 198.295 38.271C198.196 38.149 198.077 38.062 197.936 38.009C197.795 37.956 197.637 37.93 197.462 37.93C197.279 37.93 197.112 37.967 196.96 38.042C196.808 38.117 196.672 38.216 196.552 38.34C196.432 38.464 196.327 38.606 196.24 38.766C196.152 38.926 196.081 39.094 196.026 39.269V43.372H195.417V37.46H195.996V37.46Z" fill="#1B708A"/>
<path d="M203.396 43.481C203.067 43.481 202.766 43.427 202.491 43.32C202.217 43.213 201.98 43.049 201.781 42.828C201.582 42.608 201.427 42.33 201.318 41.995C201.208 41.66 201.154 41.263 201.154 40.804V40.132C201.154 39.637 201.212 39.213 201.329 38.862C201.446 38.51 201.602 38.223 201.798 37.999C201.994 37.775 202.22 37.611 202.478 37.507C202.736 37.403 203.007 37.351 203.292 37.351C203.942 37.351 204.437 37.565 204.775 37.993C205.113 38.421 205.282 39.076 205.282 39.957V40.471H201.757V40.804C201.757 41.165 201.797 41.478 201.877 41.744C201.957 42.01 202.071 42.23 202.217 42.405C202.363 42.58 202.539 42.71 202.743 42.796C202.948 42.882 203.174 42.924 203.423 42.924C203.73 42.924 203.997 42.872 204.224 42.768C204.45 42.664 204.657 42.503 204.844 42.284L205.162 42.688C205.082 42.797 204.988 42.899 204.88 42.994C204.772 43.089 204.646 43.172 204.502 43.245C204.357 43.318 204.194 43.375 204.011 43.417C203.827 43.46 203.622 43.481 203.396 43.481ZM203.292 37.919C203.076 37.919 202.878 37.955 202.697 38.028C202.516 38.101 202.359 38.217 202.226 38.375C202.093 38.533 201.986 38.738 201.905 38.99C201.824 39.241 201.777 39.546 201.762 39.902H204.673V39.744C204.666 39.456 204.633 39.2 204.574 38.974C204.515 38.748 204.43 38.557 204.319 38.4C204.207 38.243 204.066 38.124 203.894 38.042C203.723 37.96 203.522 37.919 203.292 37.919Z" fill="#1B708A"/>
<path d="M209.518 38.029C209.456 38.018 209.395 38.009 209.334 38.002C209.274 37.995 209.207 37.991 209.134 37.991C208.955 37.991 208.793 38.023 208.649 38.087C208.505 38.151 208.378 38.24 208.268 38.355C208.158 38.47 208.064 38.607 207.986 38.768C207.907 38.928 207.846 39.103 207.802 39.293V43.374H207.193V37.462H207.791L207.802 38.347C207.937 38.037 208.116 37.794 208.339 37.618C208.562 37.441 208.836 37.353 209.161 37.353C209.227 37.353 209.296 37.36 209.369 37.375C209.442 37.39 209.495 37.406 209.528 37.424L209.518 38.029Z" fill="#1B708A"/>
<path d="M214.17 41.919C214.17 41.799 214.147 41.686 214.101 41.58C214.055 41.474 213.98 41.372 213.876 41.274C213.772 41.176 213.635 41.076 213.465 40.974C213.295 40.872 213.084 40.763 212.832 40.646C212.561 40.526 212.32 40.41 212.108 40.299C211.896 40.188 211.718 40.068 211.573 39.938C211.429 39.809 211.318 39.663 211.241 39.501C211.164 39.339 211.126 39.147 211.126 38.925C211.126 38.706 211.167 38.502 211.249 38.31C211.331 38.119 211.449 37.952 211.603 37.81C211.756 37.668 211.943 37.556 212.162 37.474C212.381 37.392 212.626 37.351 212.897 37.351C213.186 37.351 213.445 37.394 213.675 37.479C213.905 37.565 214.1 37.684 214.259 37.837C214.418 37.99 214.539 38.173 214.624 38.386C214.708 38.599 214.75 38.831 214.75 39.083H214.141C214.141 38.93 214.113 38.783 214.059 38.643C214.004 38.503 213.924 38.379 213.818 38.272C213.712 38.165 213.582 38.079 213.429 38.015C213.276 37.951 213.098 37.919 212.897 37.919C212.689 37.919 212.511 37.947 212.365 38.004C212.219 38.061 212.098 38.135 212.003 38.228C211.908 38.321 211.838 38.427 211.795 38.545C211.751 38.663 211.729 38.783 211.729 38.903C211.729 39.023 211.747 39.13 211.784 39.223C211.821 39.316 211.887 39.406 211.984 39.493C212.081 39.58 212.212 39.671 212.376 39.763C212.54 39.856 212.752 39.964 213.012 40.088C213.286 40.208 213.533 40.325 213.752 40.438C213.971 40.551 214.157 40.676 214.308 40.812C214.46 40.949 214.577 41.103 214.659 41.274C214.741 41.445 214.782 41.649 214.782 41.886C214.782 42.13 214.738 42.35 214.65 42.547C214.562 42.744 214.437 42.911 214.275 43.05C214.112 43.188 213.917 43.295 213.688 43.37C213.46 43.445 213.206 43.482 212.929 43.482C212.607 43.482 212.324 43.436 212.079 43.343C211.834 43.25 211.628 43.125 211.462 42.969C211.296 42.812 211.169 42.63 211.084 42.423C210.998 42.215 210.955 41.995 210.955 41.762H211.569C211.58 41.995 211.628 42.186 211.714 42.336C211.8 42.485 211.907 42.604 212.035 42.691C212.163 42.778 212.305 42.838 212.463 42.871C212.62 42.904 212.776 42.92 212.929 42.92C213.13 42.92 213.308 42.894 213.464 42.841C213.619 42.788 213.749 42.717 213.853 42.628C213.957 42.539 214.036 42.433 214.089 42.311C214.144 42.187 214.17 42.057 214.17 41.919Z" fill="#1B708A"/>
<path d="M78.6328 29.753C73.2288 29.753 68.7998 25.367 68.7998 19.953C68.7998 14.54 73.2288 10.153 78.6328 10.153C81.4738 10.153 84.1768 11.375 86.0428 13.484C86.3768 13.873 86.3218 14.428 85.9588 14.733C85.5968 15.066 85.0398 15.038 84.7048 14.65C83.1728 12.901 80.9718 11.902 78.6318 11.902C74.2028 11.902 70.5808 15.511 70.5808 19.953C70.5808 24.367 74.2018 27.976 78.6318 27.976C80.8608 27.976 82.9778 27.06 84.4818 25.477V21.535H79.3278C78.8268 21.535 78.4368 21.146 78.4368 20.647C78.4368 20.147 78.8268 19.759 79.3278 19.759H85.3728C85.8738 19.759 86.2638 20.148 86.2638 20.647V25.811C86.2638 26.033 86.1798 26.227 86.0408 26.394C84.1758 28.531 81.4738 29.753 78.6328 29.753Z" fill="#1B708A"/>
<path d="M97.4904 29.753C93.1444 29.753 89.6074 26.227 89.6074 21.869V11.042C89.6074 10.542 89.9974 10.154 90.4714 10.154C90.9724 10.154 91.3624 10.543 91.3624 11.042V21.869C91.3624 25.256 94.1204 27.976 97.4904 27.976C100.889 27.976 103.618 25.255 103.618 21.869V11.042C103.618 10.542 104.008 10.154 104.509 10.154C105.01 10.154 105.4 10.543 105.4 11.042V21.869C105.401 26.227 101.864 29.753 97.4904 29.753Z" fill="#1B708A"/>
<path d="M109.496 29.753C108.995 29.753 108.605 29.364 108.605 28.865V11.042C108.605 10.542 108.995 10.154 109.496 10.154C109.997 10.154 110.387 10.543 110.387 11.042V28.865C110.387 29.364 109.997 29.753 109.496 29.753Z" fill="#1B708A"/>
<path d="M118.996 29.753H114.483C113.982 29.753 113.592 29.364 113.592 28.865V11.042C113.592 10.542 113.982 10.154 114.483 10.154H118.996C124.428 10.154 128.829 14.54 128.829 19.954C128.829 25.367 124.427 29.753 118.996 29.753ZM115.374 27.976H118.995C123.452 27.976 127.073 24.367 127.073 19.953C127.073 15.511 123.452 11.902 118.995 11.902H115.374V27.976Z" fill="#1B708A"/>
<path d="M145.348 28.864C145.348 29.364 144.93 29.752 144.457 29.752H132.785C132.284 29.752 131.894 29.363 131.894 28.864V11.041C131.894 10.541 132.284 10.153 132.785 10.153H144.457C144.931 10.153 145.348 10.542 145.348 11.041C145.348 11.513 144.93 11.902 144.457 11.902H133.676V18.648H141.448C141.922 18.648 142.339 19.037 142.339 19.509C142.339 20.009 141.921 20.397 141.448 20.397H133.676V27.976H144.457C144.93 27.976 145.348 28.393 145.348 28.864Z" fill="#1B708A"/>
<path d="M162.256 17.288C162.256 21.202 159.08 24.367 155.18 24.367H151.364V28.115C151.364 29.031 150.64 29.753 149.748 29.753C148.856 29.753 148.132 29.031 148.132 28.115V11.847C148.132 10.959 148.856 10.237 149.748 10.237H155.18C159.08 10.237 162.256 13.401 162.256 17.288ZM159.025 17.288C159.025 15.178 157.298 13.485 155.181 13.485H151.365V21.119H155.181C157.298 21.119 159.025 19.426 159.025 17.288Z" fill="#1B708A"/>
<path d="M174.261 29.753C168.857 29.753 164.483 25.394 164.483 20.009C164.483 14.651 168.857 10.265 174.261 10.265C179.637 10.265 184.039 14.651 184.039 20.009C184.039 25.394 179.638 29.753 174.261 29.753ZM174.261 13.485C170.64 13.485 167.715 16.428 167.715 20.009C167.715 23.618 170.64 26.533 174.261 26.533C177.855 26.533 180.807 23.618 180.807 20.009C180.808 16.427 177.855 13.485 174.261 13.485Z" fill="#1B708A"/>
<path d="M192.647 29.753C190.196 29.753 188.719 28.726 187.883 27.893C186.852 26.81 186.267 25.367 186.267 23.895C186.267 23.007 186.991 22.285 187.883 22.285C188.774 22.285 189.499 23.007 189.499 23.895C189.499 24.867 190.168 26.532 192.647 26.532C195.126 26.532 195.795 24.866 195.795 23.895C195.795 22.424 194.987 21.979 192.257 21.202C191.031 20.841 189.778 20.48 188.747 19.758C187.354 18.814 186.658 17.482 186.658 15.76C186.658 14.372 187.215 13.012 188.162 12.012C188.942 11.207 190.363 10.263 192.647 10.263C194.959 10.263 196.352 11.207 197.132 12.012C198.107 13.011 198.664 14.372 198.664 15.76C198.664 16.648 197.94 17.37 197.02 17.37C196.129 17.37 195.404 16.648 195.404 15.76C195.404 14.927 194.819 13.484 192.646 13.484C190.473 13.484 189.888 14.928 189.888 15.76C189.888 16.843 190.306 17.259 193.147 18.092C194.428 18.453 195.766 18.842 196.852 19.619C198.301 20.618 199.025 22.062 199.025 23.894C199.025 25.365 198.44 26.809 197.409 27.892C196.603 28.726 195.098 29.753 192.647 29.753Z" fill="#1B708A"/>
<path d="M215.489 11.874C215.489 12.762 214.765 13.484 213.873 13.484H209.444V28.142C209.444 29.03 208.72 29.752 207.8 29.752C206.909 29.752 206.184 29.03 206.184 28.142V13.484H201.755C200.864 13.484 200.139 12.762 200.139 11.874C200.139 10.986 200.863 10.264 201.755 10.264H213.873C214.765 10.264 215.489 10.986 215.489 11.874Z" fill="#1B708A"/>
<path d="M27.337 51.992C41.238 51.992 52.507 40.723 52.507 26.822C52.507 12.921 41.238 1.65201 27.337 1.65201C13.436 1.65201 2.16699 12.921 2.16699 26.822C2.16699 40.723 13.436 51.992 27.337 51.992Z" fill="#E5E5E5"/>
<path d="M19.8018 22.081L24.9568 25.057V8.52399L19.8018 5.285V22.081Z" fill="#4AB1BA"/>
<path d="M43.3979 30.944L27.3379 40.072V47.3L37.8589 41.04V41.062L42.7299 38.236V38.201L45.5489 34.078L43.3979 30.944Z" fill="#1B708A"/>
<path d="M9.55664 25.973L12.8156 30.462L20.5446 34.912V51.065C21.9686 51.463 23.4426 51.738 24.9566 51.881V37.452V35.961V28.407L12.8156 21.451L9.55664 25.973Z" fill="#4AB1BA"/>
<path d="M27.3374 53.303C12.7364 53.303 0.856445 41.424 0.856445 26.822C0.856445 12.22 12.7354 0.341003 27.3374 0.341003C41.9394 0.341003 53.8184 12.22 53.8184 26.822C53.8184 27.509 53.7924 28.19 53.7404 28.865C52.6944 42.516 41.2514 53.303 27.3374 53.303ZM27.3374 2.96301C14.1814 2.96301 3.47844 13.666 3.47844 26.822C3.47844 39.978 14.1814 50.681 27.3374 50.681C40.4934 50.681 51.1974 39.978 51.1974 26.822C51.1974 13.667 40.4934 2.96301 27.3374 2.96301Z" fill="#1B708A"/>
<path d="M27.3375 51.961C27.7555 51.982 26.9145 51.992 27.3375 51.992C28.6615 51.992 29.9625 51.889 31.2315 51.692V47.014L27.3375 49.17V51.961Z" fill="#1B708A"/>
<g opacity="0.1">
<path opacity="0.1" d="M53.8034 27.488L34.5714 8.94501H27.3384V21.451V23.496V38.39L27.3184 53.303C27.3184 53.303 32.7704 53.552 38.6724 50.762C41.2764 49.531 44.0834 47.648 46.6934 44.85C54.2224 36.776 53.8034 27.488 53.8034 27.488Z" fill="#414042"/>
</g>
<path d="M34.5719 8.94501H27.3379V13.684L34.5719 13.461V8.94501Z" fill="#4AB1BA"/>
<path d="M56.7539 13.925L27.3379 16.054V37.619L31.2319 35.413V23.496L56.7539 25.652L60.9109 20.389L56.7539 13.925Z" fill="#DB3134"/>
</svg>
