<svg width="207" height="167" viewBox="0 0 207 167" fill="none" xmlns="http://www.w3.org/2000/svg">
<path d="M96.7377 100.19C123.601 100.19 145.379 78.4127 145.379 51.549C145.379 24.6853 123.601 2.908 96.7377 2.908C69.874 2.908 48.0967 24.6853 48.0967 51.549C48.0967 78.4127 69.874 100.19 96.7377 100.19Z" fill="#E5E5E5"/>
<path d="M82.1748 42.385L92.1368 48.136V16.187L82.1748 9.928V42.385Z" fill="#4FB0BB"/>
<path d="M127.773 59.513L96.7373 77.153V91.122L117.069 79.024V79.066L126.481 73.606V73.538L131.93 65.571L127.773 59.513Z" fill="#1B708A"/>
<path d="M62.375 49.908L68.674 58.583L83.611 67.182V98.397C86.362 99.166 89.212 99.699 92.137 99.973V72.09V69.209V54.61L68.675 41.168L62.375 49.908Z" fill="#4FB0BB"/>
<path d="M96.7375 102.723C68.5205 102.723 45.5635 79.766 45.5635 51.549C45.5635 23.332 68.5205 0.375 96.7375 0.375C124.955 0.375 147.911 23.332 147.911 51.549C147.911 52.877 147.86 54.194 147.76 55.496C145.738 81.877 123.626 102.723 96.7375 102.723ZM96.7375 5.441C71.3135 5.441 50.6295 26.125 50.6295 51.549C50.6295 76.973 71.3135 97.657 96.7375 97.657C122.161 97.657 142.846 76.973 142.846 51.549C142.845 26.125 122.161 5.441 96.7375 5.441Z" fill="#1B708A"/>
<path d="M96.7379 100.13C97.5449 100.17 95.9209 100.191 96.7379 100.191C99.2969 100.191 101.81 99.992 104.263 99.611V90.57L96.7379 94.736V100.13Z" fill="#1B708A"/>
<g opacity="0.1">
<path opacity="0.1" d="M147.882 52.835L110.716 17.001H96.7372V41.168V45.12V73.902L96.6982 102.721C96.6982 102.721 107.234 103.201 118.639 97.81C123.671 95.431 129.096 91.792 134.139 86.386C148.692 70.784 147.882 52.835 147.882 52.835Z" fill="#414042"/>
</g>
<path d="M110.716 17.001H96.7373V26.159L110.716 25.728V17.001Z" fill="#4FB0BB"/>
<path d="M153.584 26.625L96.7373 30.738V72.414L104.262 68.151V45.12L153.584 49.286L161.617 39.115L153.584 26.625Z" fill="#D83830"/>
<path d="M1.33008 152.793C1.33008 152.619 1.37907 152.469 1.47607 152.346C1.57407 152.223 1.71213 152.161 1.89313 152.161C2.07313 152.161 2.21311 152.222 2.31311 152.346C2.41311 152.469 2.46307 152.619 2.46307 152.793C2.46307 152.968 2.41311 153.116 2.31311 153.236C2.21311 153.357 2.07213 153.417 1.89313 153.417C1.71313 153.417 1.57407 153.356 1.47607 153.236C1.37807 153.116 1.33008 152.967 1.33008 152.793ZM2.31708 163.538H1.45312V155.197H2.31708V163.538Z" fill="#4F4F4F"/>
<path d="M6.3678 155.198L6.39081 156.524C6.63781 156.072 6.95178 155.712 7.33478 155.445C7.71778 155.178 8.15378 155.044 8.64178 155.044C8.99078 155.044 9.30282 155.101 9.57782 155.214C9.85282 155.327 10.0868 155.507 10.2798 155.753C10.4718 156 10.6208 156.317 10.7228 156.705C10.8258 157.093 10.8778 157.562 10.8778 158.112V163.539H10.0298V158.105C10.0298 157.678 9.99179 157.321 9.91779 157.033C9.84279 156.745 9.73678 156.516 9.59778 156.343C9.45878 156.171 9.29077 156.047 9.09277 155.973C8.89477 155.898 8.67278 155.861 8.42578 155.861C8.16878 155.861 7.93379 155.914 7.71979 156.019C7.50679 156.124 7.31581 156.264 7.14581 156.439C6.97681 156.614 6.82979 156.814 6.70679 157.04C6.58379 157.266 6.48282 157.503 6.40582 157.749V163.538H5.5498V155.197H6.3678V155.198Z" fill="#4F4F4F"/>
<path d="M13.7119 158.983C13.7119 158.284 13.7749 157.687 13.9009 157.19C14.0269 156.694 14.2079 156.287 14.4449 155.968C14.6819 155.649 14.9679 155.415 15.3039 155.267C15.6399 155.118 16.0169 155.043 16.4329 155.043C16.9319 155.043 17.3539 155.155 17.7009 155.378C18.0479 155.601 18.3309 155.914 18.5529 156.314V151.697H19.4089V163.537H18.6069L18.5679 162.466C18.3469 162.852 18.0609 163.152 17.7089 163.368C17.3569 163.584 16.9289 163.692 16.4249 163.692C16.0089 163.692 15.6339 163.613 15.2999 163.456C14.9659 163.299 14.6819 163.059 14.4479 162.735C14.2139 162.411 14.0329 162.003 13.9049 161.509C13.7759 161.016 13.7119 160.433 13.7119 159.759V158.983ZM14.5829 159.761C14.5829 160.83 14.7429 161.616 15.0639 162.12C15.3849 162.623 15.8949 162.875 16.5939 162.875C16.8459 162.875 17.0729 162.843 17.2759 162.778C17.4789 162.714 17.6619 162.624 17.8229 162.508C17.9849 162.393 18.1249 162.257 18.2429 162.099C18.3609 161.942 18.4639 161.772 18.5519 161.587V157.262C18.4749 157.077 18.3789 156.9 18.2669 156.731C18.1539 156.561 18.0189 156.413 17.8619 156.288C17.7049 156.162 17.5229 156.06 17.3149 155.984C17.1069 155.907 16.8689 155.868 16.6019 155.868C15.8979 155.868 15.3859 156.121 15.0639 156.628C14.7429 157.134 14.5829 157.919 14.5829 158.983V159.761Z" fill="#4F4F4F"/>
<path d="M25.3415 163.693C24.8785 163.693 24.4545 163.617 24.0695 163.465C23.6835 163.313 23.3515 163.082 23.0715 162.771C22.7915 162.46 22.5745 162.068 22.4195 161.595C22.2655 161.122 22.1885 160.562 22.1885 159.915V158.967C22.1885 158.268 22.2705 157.671 22.4355 157.174C22.5995 156.678 22.8195 156.272 23.0945 155.956C23.3695 155.64 23.6885 155.409 24.0505 155.262C24.4125 155.116 24.7944 155.042 25.1954 155.042C26.1104 155.042 26.8055 155.344 27.2805 155.948C27.7565 156.552 27.9935 157.475 27.9935 158.719V159.444H23.0375V159.914C23.0375 160.423 23.0945 160.865 23.2065 161.24C23.3205 161.615 23.4794 161.926 23.6844 162.173C23.8904 162.419 24.1364 162.603 24.4244 162.724C24.7124 162.845 25.0315 162.906 25.3805 162.906C25.8125 162.906 26.1875 162.832 26.5065 162.686C26.8245 162.54 27.1154 162.312 27.3774 162.004L27.8245 162.574C27.7115 162.728 27.5795 162.872 27.4275 163.006C27.2765 163.14 27.0984 163.258 26.8954 163.361C26.6924 163.464 26.4624 163.545 26.2054 163.604C25.9474 163.663 25.6605 163.693 25.3415 163.693ZM25.1954 155.845C24.8924 155.845 24.6134 155.897 24.3594 155.999C24.1054 156.102 23.8845 156.265 23.6965 156.488C23.5085 156.712 23.3585 157.001 23.2455 157.355C23.1325 157.709 23.0655 158.138 23.0455 158.642H27.1385V158.418C27.1285 158.012 27.0825 157.65 27.0005 157.331C26.9185 157.012 26.7985 156.743 26.6425 156.522C26.4855 156.301 26.2865 156.133 26.0455 156.017C25.8015 155.903 25.5194 155.845 25.1954 155.845Z" fill="#4F4F4F"/>
<path d="M36.3687 159.761C36.3687 160.435 36.3087 161.018 36.1877 161.511C36.0667 162.005 35.8937 162.413 35.6677 162.737C35.4407 163.061 35.1617 163.301 34.8277 163.458C34.4937 163.615 34.1156 163.694 33.6946 163.694C33.1906 163.694 32.7607 163.592 32.4037 163.39C32.0467 163.187 31.7547 162.903 31.5287 162.538V166.747H30.6807V155.2H31.4667L31.5047 156.341C31.7357 155.935 32.0287 155.618 32.3837 155.389C32.7377 155.161 33.1677 155.046 33.6707 155.046C34.1027 155.046 34.4846 155.121 34.8196 155.27C35.1536 155.419 35.4357 155.653 35.6677 155.971C35.8987 156.29 36.0737 156.697 36.1917 157.193C36.3097 157.689 36.3687 158.287 36.3687 158.986V159.761V159.761ZM35.5137 158.983C35.5137 157.914 35.3477 157.128 35.0167 156.624C34.6857 156.12 34.1677 155.868 33.4637 155.868C33.2007 155.868 32.9667 155.906 32.7577 155.98C32.5497 156.054 32.3667 156.156 32.2107 156.284C32.0547 156.412 31.9207 156.559 31.8097 156.723C31.6997 156.888 31.6057 157.062 31.5287 157.247V161.641C31.6107 161.821 31.7117 161.988 31.8337 162.142C31.9547 162.296 32.0947 162.43 32.2537 162.543C32.4127 162.656 32.5937 162.744 32.7967 162.805C32.9997 162.866 33.2277 162.897 33.4787 162.897C34.1727 162.897 34.6857 162.641 35.0167 162.13C35.3487 161.619 35.5137 160.829 35.5137 159.76V158.983Z" fill="#4F4F4F"/>
<path d="M41.9781 163.693C41.5151 163.693 41.0922 163.617 40.7072 163.465C40.3212 163.313 39.9882 163.082 39.7092 162.771C39.4282 162.46 39.2122 162.068 39.0572 161.595C38.9032 161.122 38.8262 160.562 38.8262 159.915V158.967C38.8262 158.268 38.9082 157.671 39.0732 157.174C39.2372 156.678 39.4572 156.272 39.7322 155.956C40.0072 155.64 40.3262 155.409 40.6882 155.262C41.0502 155.116 41.4321 155.042 41.8331 155.042C42.7481 155.042 43.4432 155.344 43.9182 155.948C44.3932 156.552 44.6312 157.475 44.6312 158.719V159.444H39.6752V159.914C39.6752 160.423 39.7312 160.865 39.8442 161.24C39.9572 161.615 40.1171 161.926 40.3221 162.173C40.5271 162.419 40.7741 162.603 41.0621 162.724C41.3501 162.845 41.6692 162.906 42.0182 162.906C42.4502 162.906 42.8242 162.832 43.1432 162.686C43.4622 162.54 43.7522 162.312 44.0142 162.004L44.4622 162.574C44.3482 162.728 44.2162 162.872 44.0652 163.006C43.9132 163.14 43.7361 163.258 43.5331 163.361C43.3301 163.464 43.1001 163.545 42.8431 163.604C42.5851 163.663 42.2971 163.693 41.9781 163.693ZM41.8322 155.845C41.5292 155.845 41.2502 155.897 40.9962 155.999C40.7422 156.102 40.5201 156.265 40.3331 156.488C40.1451 156.712 39.9951 157.001 39.8821 157.355C39.7691 157.709 39.7022 158.138 39.6822 158.642H43.7751V158.418C43.7651 158.012 43.7181 157.65 43.6371 157.331C43.5541 157.012 43.4352 156.743 43.2792 156.522C43.1222 156.301 42.9222 156.133 42.6812 156.017C42.4382 155.903 42.1552 155.845 41.8322 155.845Z" fill="#4F4F4F"/>
<path d="M48.1354 155.198L48.1584 156.524C48.4054 156.072 48.7194 155.712 49.1024 155.445C49.4854 155.178 49.9214 155.044 50.4094 155.044C50.7584 155.044 51.0704 155.101 51.3454 155.214C51.6204 155.327 51.8544 155.507 52.0474 155.753C52.2394 156 52.3874 156.317 52.4904 156.705C52.5934 157.093 52.6444 157.562 52.6444 158.112V163.539H51.7964V158.105C51.7964 157.678 51.7584 157.321 51.6844 157.033C51.6094 156.745 51.5034 156.516 51.3644 156.343C51.2264 156.171 51.0574 156.047 50.8594 155.973C50.6614 155.898 50.4394 155.861 50.1924 155.861C49.9354 155.861 49.6994 155.914 49.4864 156.019C49.2734 156.124 49.0824 156.264 48.9124 156.439C48.7424 156.614 48.5964 156.814 48.4724 157.04C48.3494 157.266 48.2484 157.503 48.1714 157.749V163.538H47.3154V155.197H48.1354V155.198Z" fill="#4F4F4F"/>
<path d="M55.4796 158.983C55.4796 158.284 55.5425 157.687 55.6685 157.19C55.7945 156.694 55.9755 156.287 56.2115 155.968C56.4475 155.649 56.7345 155.415 57.0715 155.267C57.4075 155.118 57.7845 155.043 58.2005 155.043C58.6985 155.043 59.1215 155.155 59.4685 155.378C59.8155 155.601 60.0995 155.914 60.3205 156.314V151.697H61.1765V163.537H60.3745L60.3355 162.466C60.1145 162.852 59.8275 163.152 59.4765 163.368C59.1245 163.584 58.6965 163.692 58.1925 163.692C57.7755 163.692 57.4005 163.613 57.0665 163.456C56.7325 163.299 56.4485 163.059 56.2145 162.735C55.9805 162.411 55.7995 162.003 55.6705 161.509C55.5415 161.016 55.4785 160.433 55.4785 159.759V158.983H55.4796ZM56.3495 159.761C56.3495 160.83 56.5095 161.616 56.8315 162.12C57.1525 162.623 57.6625 162.875 58.3615 162.875C58.6135 162.875 58.8406 162.843 59.0446 162.778C59.2476 162.714 59.4296 162.624 59.5916 162.508C59.7536 162.393 59.8935 162.257 60.0115 162.099C60.1295 161.942 60.2315 161.772 60.3195 161.587V157.262C60.2425 157.077 60.1475 156.9 60.0345 156.731C59.9215 156.561 59.7865 156.413 59.6295 156.288C59.4725 156.162 59.2905 156.06 59.0825 155.984C58.8745 155.907 58.6365 155.868 58.3695 155.868C57.6645 155.868 57.1525 156.121 56.8315 156.628C56.5095 157.134 56.3495 157.919 56.3495 158.983V159.761Z" fill="#4F4F4F"/>
<path d="M67.108 163.693C66.645 163.693 66.2211 163.617 65.8361 163.465C65.4501 163.313 65.118 163.082 64.838 162.771C64.558 162.46 64.341 162.068 64.187 161.595C64.033 161.122 63.9561 160.562 63.9561 159.915V158.967C63.9561 158.268 64.0381 157.671 64.2031 157.174C64.3671 156.678 64.5871 156.272 64.8621 155.956C65.1371 155.64 65.4551 155.409 65.8181 155.262C66.1801 155.116 66.562 155.042 66.963 155.042C67.877 155.042 68.573 155.344 69.048 155.948C69.524 156.552 69.761 157.475 69.761 158.719V159.444H64.804V159.914C64.804 160.423 64.8611 160.865 64.9741 161.24C65.0871 161.615 65.246 161.926 65.452 162.173C65.658 162.419 65.904 162.603 66.192 162.724C66.48 162.845 66.798 162.906 67.148 162.906C67.58 162.906 67.955 162.832 68.273 162.686C68.592 162.54 68.882 162.312 69.144 162.004L69.5911 162.574C69.4781 162.728 69.346 162.872 69.194 163.006C69.043 163.14 68.866 163.258 68.662 163.361C68.459 163.464 68.23 163.545 67.972 163.604C67.714 163.663 67.426 163.693 67.108 163.693ZM66.962 155.845C66.658 155.845 66.3801 155.897 66.1251 155.999C65.8711 156.102 65.65 156.265 65.463 156.488C65.275 156.712 65.125 157.001 65.012 157.355C64.899 157.709 64.832 158.138 64.812 158.642H68.905V158.418C68.895 158.012 68.8491 157.65 68.7661 157.331C68.6841 157.012 68.564 156.743 68.408 156.522C68.251 156.301 68.052 156.133 67.811 156.017C67.568 155.903 67.285 155.845 66.962 155.845Z" fill="#4F4F4F"/>
<path d="M73.2643 155.198L73.2874 156.524C73.5344 156.072 73.8483 155.712 74.2313 155.445C74.6143 155.178 75.0504 155.044 75.5374 155.044C75.8874 155.044 76.1983 155.101 76.4733 155.214C76.7483 155.327 76.9824 155.507 77.1754 155.753C77.3674 156 77.5163 156.317 77.6183 156.705C77.7213 157.093 77.7733 157.562 77.7733 158.112V163.539H76.9254V158.105C76.9254 157.678 76.8874 157.321 76.8134 157.033C76.7384 156.745 76.6323 156.516 76.4933 156.343C76.3543 156.171 76.1863 156.047 75.9883 155.973C75.7903 155.898 75.5684 155.861 75.3214 155.861C75.0644 155.861 74.8294 155.914 74.6154 156.019C74.4024 156.124 74.2113 156.264 74.0413 156.439C73.8723 156.614 73.7254 156.814 73.6024 157.04C73.4794 157.266 73.3783 157.503 73.3013 157.749V163.538H72.4453V155.197H73.2643V155.198Z" fill="#4F4F4F"/>
<path d="M82.2026 153.07V155.198H83.6286V155.969H82.2026V161.511C82.2026 161.799 82.2266 162.032 82.2756 162.209C82.3246 162.386 82.3896 162.524 82.4716 162.622C82.5546 162.72 82.6476 162.785 82.7526 162.819C82.8586 162.852 82.9696 162.869 83.0876 162.869C83.2006 162.869 83.3116 162.86 83.4196 162.842C83.5276 162.824 83.6226 162.807 83.7046 162.792L83.7276 163.563C83.6356 163.604 83.5136 163.636 83.3616 163.66C83.2106 163.683 83.0516 163.695 82.8876 163.695C82.6666 163.695 82.4626 163.659 82.2746 163.587C82.0866 163.515 81.9236 163.394 81.7846 163.224C81.6456 163.055 81.5376 162.83 81.4606 162.55C81.3836 162.27 81.3456 161.921 81.3456 161.505V155.97H80.0586V155.199H81.3456V153.071H82.2026V153.07Z" fill="#4F4F4F"/>
<path d="M93.4146 162.899C93.6506 162.899 93.8796 162.868 94.1006 162.807C94.3216 162.746 94.5176 162.64 94.6906 162.491C94.8626 162.342 95.0036 162.143 95.1146 161.894C95.2246 161.645 95.2876 161.332 95.3036 160.957H96.1286C96.1076 161.404 96.0236 161.799 95.8746 162.141C95.7256 162.483 95.5276 162.768 95.2806 162.997C95.0346 163.225 94.7516 163.399 94.4326 163.517C94.1136 163.635 93.7746 163.694 93.4146 163.694C92.4126 163.694 91.6586 163.37 91.1526 162.722C90.6456 162.075 90.3926 161.114 90.3926 159.839V158.898C90.3926 157.623 90.6456 156.663 91.1526 156.015C91.6586 155.368 92.4096 155.044 93.4076 155.044C93.7876 155.044 94.1416 155.105 94.4676 155.225C94.7936 155.346 95.0766 155.528 95.3156 155.772C95.5546 156.016 95.7466 156.325 95.8906 156.697C96.0346 157.069 96.1146 157.508 96.1296 158.011H95.3046C95.2886 157.626 95.2296 157.296 95.1276 157.021C95.0246 156.746 94.8896 156.521 94.7236 156.346C94.5566 156.171 94.3606 156.044 94.1376 155.965C93.9146 155.885 93.6716 155.845 93.4096 155.845C93.0136 155.845 92.6796 155.913 92.4076 156.049C92.1346 156.186 91.9136 156.384 91.7446 156.647C91.5756 156.909 91.4516 157.229 91.3746 157.607C91.2976 157.985 91.2586 158.415 91.2586 158.898V159.839C91.2586 160.327 91.2956 160.761 91.3706 161.142C91.4446 161.522 91.5666 161.842 91.7366 162.101C91.9066 162.361 92.1286 162.559 92.4036 162.695C92.6756 162.831 93.0136 162.899 93.4146 162.899Z" fill="#4F4F4F"/>
<path d="M102.076 156C101.988 155.984 101.902 155.972 101.818 155.961C101.733 155.951 101.639 155.946 101.537 155.946C101.285 155.946 101.058 155.991 100.854 156.081C100.651 156.171 100.473 156.297 100.318 156.459C100.164 156.621 100.031 156.815 99.9206 157.041C99.8096 157.267 99.7236 157.514 99.6626 157.781V163.539H98.8066V155.198H99.6476L99.6626 156.447C99.8526 156.01 100.105 155.667 100.418 155.418C100.731 155.169 101.117 155.044 101.575 155.044C101.667 155.044 101.765 155.054 101.868 155.075C101.971 155.096 102.045 155.119 102.091 155.144L102.076 156Z" fill="#4F4F4F"/>
<path d="M107.052 163.693C106.589 163.693 106.166 163.617 105.781 163.465C105.395 163.313 105.062 163.082 104.783 162.771C104.502 162.46 104.286 162.068 104.131 161.595C103.977 161.122 103.9 160.562 103.9 159.915V158.967C103.9 158.268 103.982 157.671 104.147 157.174C104.311 156.678 104.531 156.272 104.806 155.956C105.081 155.64 105.4 155.409 105.762 155.262C106.124 155.116 106.506 155.042 106.907 155.042C107.822 155.042 108.517 155.344 108.992 155.948C109.467 156.552 109.705 157.475 109.705 158.719V159.444H104.749V159.914C104.749 160.423 104.805 160.865 104.918 161.24C105.031 161.615 105.191 161.926 105.396 162.173C105.602 162.419 105.848 162.603 106.136 162.724C106.424 162.845 106.743 162.906 107.092 162.906C107.524 162.906 107.898 162.832 108.217 162.686C108.535 162.54 108.826 162.312 109.088 162.004L109.536 162.574C109.422 162.728 109.29 162.872 109.139 163.006C108.987 163.14 108.81 163.258 108.607 163.361C108.404 163.464 108.174 163.545 107.917 163.604C107.659 163.663 107.371 163.693 107.052 163.693ZM106.906 155.845C106.603 155.845 106.324 155.897 106.07 155.999C105.816 156.102 105.594 156.265 105.407 156.488C105.219 156.712 105.069 157.001 104.956 157.355C104.843 157.709 104.776 158.138 104.756 158.642H108.849V158.418C108.839 158.012 108.792 157.65 108.711 157.331C108.628 157.012 108.509 156.743 108.353 156.522C108.196 156.301 107.996 156.133 107.755 156.017C107.512 155.903 107.229 155.845 106.906 155.845Z" fill="#4F4F4F"/>
<path d="M116.802 163.538C116.761 163.399 116.727 163.226 116.702 163.018C116.676 162.81 116.658 162.598 116.648 162.382C116.54 162.557 116.412 162.723 116.262 162.879C116.113 163.036 115.942 163.175 115.749 163.295C115.557 163.416 115.342 163.512 115.105 163.584C114.869 163.656 114.614 163.692 114.342 163.692C113.998 163.692 113.685 163.643 113.405 163.545C113.125 163.447 112.885 163.301 112.684 163.106C112.483 162.911 112.329 162.666 112.221 162.374C112.113 162.081 112.059 161.739 112.059 161.349C112.059 160.964 112.126 160.608 112.259 160.282C112.393 159.955 112.592 159.674 112.856 159.438C113.12 159.202 113.451 159.017 113.847 158.883C114.243 158.749 114.703 158.683 115.227 158.683H116.637V157.519C116.637 156.923 116.49 156.495 116.194 156.235C115.898 155.975 115.465 155.846 114.895 155.846C114.628 155.846 114.382 155.887 114.159 155.969C113.935 156.051 113.744 156.166 113.585 156.312C113.426 156.458 113.302 156.633 113.214 156.836C113.127 157.039 113.084 157.261 113.084 157.503L112.228 157.495C112.228 157.171 112.292 156.862 112.42 156.566C112.549 156.271 112.731 156.01 112.967 155.784C113.203 155.558 113.488 155.378 113.823 155.244C114.157 155.111 114.527 155.044 114.933 155.044C115.308 155.044 115.651 155.089 115.962 155.179C116.274 155.269 116.542 155.413 116.768 155.611C116.994 155.809 117.17 156.066 117.296 156.382C117.422 156.698 117.485 157.082 117.485 157.535V161.79C117.485 161.934 117.49 162.083 117.501 162.237C117.511 162.391 117.525 162.541 117.543 162.688C117.561 162.834 117.584 162.973 117.612 163.105C117.64 163.236 117.673 163.35 117.708 163.448V163.54H116.802V163.538ZM114.451 162.868C114.718 162.868 114.968 162.831 115.203 162.756C115.437 162.681 115.646 162.579 115.831 162.448C116.016 162.317 116.177 162.164 116.313 161.989C116.449 161.815 116.558 161.627 116.64 161.427V159.399H115.353C114.546 159.399 113.94 159.569 113.534 159.908C113.128 160.247 112.925 160.705 112.925 161.28C112.925 161.83 113.06 162.232 113.33 162.487C113.599 162.741 113.973 162.868 114.451 162.868Z" fill="#4F4F4F"/>
<path d="M121.978 153.07V155.198H123.404V155.969H121.978V161.511C121.978 161.799 122.002 162.032 122.051 162.209C122.1 162.386 122.165 162.524 122.247 162.622C122.33 162.72 122.423 162.785 122.528 162.819C122.634 162.852 122.745 162.869 122.863 162.869C122.976 162.869 123.087 162.86 123.195 162.842C123.303 162.824 123.398 162.807 123.48 162.792L123.503 163.563C123.411 163.604 123.289 163.636 123.137 163.66C122.986 163.683 122.827 163.695 122.663 163.695C122.442 163.695 122.238 163.659 122.05 163.587C121.862 163.515 121.699 163.394 121.56 163.224C121.421 163.055 121.313 162.83 121.236 162.55C121.159 162.27 121.121 161.921 121.121 161.505V155.97H119.834V155.199H121.121V153.071H121.978V153.07Z" fill="#4F4F4F"/>
<path d="M126.107 152.793C126.107 152.619 126.156 152.469 126.254 152.346C126.352 152.223 126.49 152.161 126.67 152.161C126.85 152.161 126.99 152.222 127.09 152.346C127.19 152.469 127.24 152.619 127.24 152.793C127.24 152.968 127.19 153.116 127.09 153.236C126.99 153.356 126.85 153.417 126.67 153.417C126.49 153.417 126.352 153.356 126.254 153.236C126.156 153.116 126.107 152.967 126.107 152.793ZM127.094 163.538H126.231V155.197H127.094V163.538Z" fill="#4F4F4F"/>
<path d="M132.541 162.197L134.592 155.198H135.471L132.873 163.539H132.195L129.582 155.198H130.461L132.541 162.197Z" fill="#4F4F4F"/>
<path d="M140.548 163.693C140.085 163.693 139.662 163.617 139.277 163.465C138.891 163.313 138.558 163.082 138.279 162.771C137.998 162.46 137.782 162.068 137.627 161.595C137.473 161.122 137.396 160.562 137.396 159.915V158.967C137.396 158.268 137.478 157.671 137.643 157.174C137.807 156.678 138.027 156.272 138.302 155.956C138.577 155.64 138.896 155.409 139.258 155.262C139.62 155.116 140.002 155.042 140.403 155.042C141.318 155.042 142.013 155.344 142.488 155.948C142.963 156.552 143.201 157.475 143.201 158.719V159.444H138.245V159.914C138.245 160.423 138.301 160.865 138.414 161.24C138.527 161.615 138.687 161.926 138.892 162.173C139.097 162.419 139.344 162.603 139.632 162.724C139.92 162.845 140.239 162.906 140.588 162.906C141.02 162.906 141.394 162.832 141.713 162.686C142.032 162.54 142.321 162.312 142.583 162.004L143.032 162.574C142.918 162.728 142.786 162.872 142.635 163.006C142.483 163.14 142.306 163.258 142.103 163.361C141.9 163.464 141.67 163.545 141.413 163.604C141.155 163.663 140.867 163.693 140.548 163.693ZM140.402 155.845C140.099 155.845 139.82 155.897 139.566 155.999C139.312 156.102 139.09 156.265 138.903 156.488C138.715 156.712 138.565 157.001 138.452 157.355C138.339 157.709 138.272 158.138 138.252 158.642H142.345V158.418C142.335 158.012 142.288 157.65 142.207 157.331C142.124 157.012 142.005 156.743 141.849 156.522C141.692 156.301 141.492 156.133 141.251 156.017C141.008 155.903 140.726 155.845 140.402 155.845Z" fill="#4F4F4F"/>
<path d="M155.99 159.761C155.99 160.435 155.93 161.018 155.809 161.511C155.688 162.005 155.515 162.413 155.289 162.737C155.062 163.061 154.783 163.301 154.449 163.458C154.115 163.615 153.737 163.694 153.316 163.694C152.812 163.694 152.382 163.592 152.025 163.39C151.668 163.187 151.376 162.903 151.15 162.538V166.747H150.301V155.2H151.087L151.126 156.341C151.357 155.935 151.65 155.618 152.005 155.389C152.359 155.161 152.789 155.046 153.292 155.046C153.724 155.046 154.106 155.121 154.441 155.27C154.775 155.419 155.057 155.653 155.289 155.971C155.52 156.29 155.695 156.697 155.813 157.193C155.931 157.689 155.99 158.287 155.99 158.986V159.761V159.761ZM155.134 158.983C155.134 157.914 154.968 157.128 154.637 156.624C154.306 156.12 153.788 155.868 153.084 155.868C152.821 155.868 152.587 155.906 152.378 155.98C152.17 156.054 151.987 156.156 151.831 156.284C151.675 156.412 151.541 156.559 151.43 156.723C151.32 156.888 151.226 157.062 151.149 157.247V161.641C151.231 161.821 151.332 161.988 151.454 162.142C151.575 162.296 151.715 162.43 151.874 162.543C152.033 162.656 152.214 162.744 152.417 162.805C152.62 162.866 152.848 162.897 153.099 162.897C153.793 162.897 154.306 162.641 154.637 162.13C154.969 161.619 155.134 160.829 155.134 159.76V158.983Z" fill="#4F4F4F"/>
<path d="M163.257 163.538C163.216 163.399 163.182 163.226 163.157 163.018C163.131 162.81 163.113 162.598 163.103 162.382C162.995 162.557 162.867 162.723 162.717 162.879C162.568 163.036 162.398 163.175 162.204 163.295C162.012 163.416 161.797 163.512 161.56 163.584C161.324 163.656 161.069 163.692 160.797 163.692C160.453 163.692 160.14 163.643 159.86 163.545C159.58 163.447 159.34 163.301 159.139 163.106C158.938 162.911 158.784 162.666 158.676 162.374C158.568 162.081 158.514 161.739 158.514 161.349C158.514 160.964 158.581 160.608 158.714 160.282C158.848 159.955 159.047 159.674 159.311 159.438C159.576 159.202 159.906 159.017 160.302 158.883C160.698 158.749 161.158 158.683 161.682 158.683H163.092V157.519C163.092 156.923 162.945 156.495 162.649 156.235C162.353 155.976 161.92 155.846 161.35 155.846C161.083 155.846 160.837 155.887 160.614 155.969C160.39 156.051 160.199 156.166 160.04 156.312C159.88 156.458 159.757 156.633 159.669 156.836C159.582 157.039 159.539 157.261 159.539 157.503L158.683 157.495C158.683 157.171 158.747 156.862 158.875 156.566C159.004 156.271 159.186 156.01 159.422 155.784C159.658 155.558 159.943 155.378 160.278 155.244C160.612 155.111 160.982 155.044 161.388 155.044C161.763 155.044 162.106 155.089 162.417 155.179C162.728 155.269 162.997 155.413 163.223 155.611C163.449 155.809 163.625 156.066 163.751 156.382C163.877 156.698 163.94 157.082 163.94 157.535V161.79C163.94 161.934 163.945 162.083 163.956 162.237C163.966 162.391 163.98 162.541 163.998 162.688C164.016 162.834 164.039 162.973 164.067 163.105C164.095 163.236 164.127 163.35 164.163 163.448V163.54H163.257V163.538ZM160.905 162.868C161.172 162.868 161.422 162.831 161.657 162.756C161.891 162.681 162.1 162.579 162.285 162.448C162.47 162.317 162.631 162.164 162.767 161.989C162.903 161.815 163.012 161.627 163.094 161.427V159.399H161.807C161 159.399 160.394 159.569 159.988 159.908C159.582 160.247 159.379 160.705 159.379 161.28C159.379 161.83 159.514 162.232 159.784 162.487C160.053 162.741 160.427 162.868 160.905 162.868Z" fill="#4F4F4F"/>
<path d="M170.415 156C170.327 155.984 170.242 155.972 170.157 155.961C170.073 155.951 169.979 155.946 169.876 155.946C169.624 155.946 169.397 155.991 169.193 156.081C168.99 156.171 168.812 156.297 168.657 156.459C168.503 156.621 168.371 156.815 168.26 157.041C168.149 157.267 168.064 157.514 168.002 157.781V163.539H167.146V155.198H167.986L168.001 156.447C168.191 156.01 168.443 155.667 168.756 155.418C169.069 155.169 169.455 155.044 169.912 155.044C170.004 155.044 170.102 155.054 170.205 155.075C170.307 155.096 170.382 155.119 170.428 155.144L170.415 156Z" fill="#4F4F4F"/>
<path d="M174.459 153.07V155.198H175.885V155.969H174.459V161.511C174.459 161.799 174.483 162.032 174.532 162.209C174.581 162.386 174.646 162.524 174.728 162.622C174.811 162.72 174.904 162.785 175.009 162.819C175.115 162.852 175.226 162.869 175.344 162.869C175.457 162.869 175.568 162.86 175.676 162.842C175.784 162.824 175.879 162.807 175.961 162.792L175.984 163.563C175.892 163.604 175.77 163.636 175.618 163.66C175.467 163.683 175.308 163.695 175.144 163.695C174.923 163.695 174.719 163.659 174.531 163.587C174.343 163.515 174.18 163.394 174.041 163.224C173.902 163.055 173.794 162.83 173.717 162.55C173.64 162.27 173.602 161.921 173.602 161.505V155.97H172.315V155.199H173.602V153.071H174.459V153.07Z" fill="#4F4F4F"/>
<path d="M179.436 155.198L179.459 156.524C179.706 156.072 180.02 155.712 180.403 155.445C180.786 155.178 181.222 155.044 181.71 155.044C182.059 155.044 182.371 155.101 182.646 155.214C182.921 155.327 183.155 155.507 183.348 155.753C183.54 156 183.689 156.317 183.791 156.705C183.894 157.093 183.946 157.562 183.946 158.112V163.539H183.098V158.105C183.098 157.678 183.06 157.321 182.986 157.033C182.911 156.745 182.805 156.516 182.666 156.343C182.527 156.171 182.359 156.047 182.161 155.973C181.963 155.898 181.741 155.861 181.494 155.861C181.237 155.861 181.002 155.914 180.788 156.019C180.575 156.124 180.384 156.264 180.214 156.439C180.045 156.614 179.898 156.814 179.775 157.04C179.652 157.266 179.551 157.503 179.474 157.749V163.538H178.618V155.197H179.436V155.198Z" fill="#4F4F4F"/>
<path d="M189.841 163.693C189.378 163.693 188.954 163.617 188.569 163.465C188.183 163.313 187.85 163.082 187.57 162.771C187.29 162.46 187.074 162.068 186.919 161.595C186.765 161.122 186.688 160.562 186.688 159.915V158.967C186.688 158.268 186.77 157.671 186.935 157.174C187.099 156.678 187.319 156.272 187.594 155.956C187.869 155.64 188.187 155.409 188.549 155.262C188.911 155.116 189.294 155.042 189.695 155.042C190.61 155.042 191.305 155.344 191.78 155.948C192.256 156.552 192.493 157.475 192.493 158.719V159.444H187.536V159.914C187.536 160.423 187.594 160.865 187.706 161.24C187.82 161.615 187.979 161.926 188.184 162.173C188.39 162.419 188.636 162.603 188.924 162.724C189.212 162.845 189.531 162.906 189.88 162.906C190.312 162.906 190.687 162.832 191.006 162.686C191.324 162.54 191.615 162.312 191.877 162.004L192.324 162.574C192.211 162.728 192.079 162.872 191.927 163.006C191.775 163.14 191.598 163.258 191.395 163.361C191.192 163.464 190.962 163.545 190.705 163.604C190.447 163.663 190.159 163.693 189.841 163.693ZM189.694 155.845C189.391 155.845 189.112 155.897 188.858 155.999C188.604 156.102 188.383 156.265 188.195 156.488C188.007 156.712 187.857 157.001 187.744 157.355C187.631 157.709 187.564 158.138 187.544 158.642H191.637V158.418C191.627 158.012 191.581 157.65 191.499 157.331C191.417 157.012 191.297 156.743 191.141 156.522C190.984 156.301 190.785 156.133 190.544 156.017C190.301 155.903 190.018 155.845 189.694 155.845Z" fill="#4F4F4F"/>
<path d="M198.447 156C198.36 155.984 198.274 155.972 198.189 155.961C198.105 155.951 198.011 155.946 197.908 155.946C197.657 155.946 197.429 155.991 197.226 156.081C197.023 156.171 196.844 156.297 196.69 156.459C196.536 156.621 196.404 156.815 196.293 157.041C196.182 157.267 196.096 157.514 196.035 157.781V163.539H195.179V155.198H196.019L196.035 156.447C196.225 156.01 196.477 155.667 196.79 155.418C197.103 155.169 197.489 155.044 197.946 155.044C198.039 155.044 198.136 155.054 198.239 155.075C198.342 155.096 198.416 155.119 198.463 155.144L198.447 156Z" fill="#4F4F4F"/>
<path d="M204.989 161.488C204.989 161.319 204.957 161.159 204.893 161.01C204.828 160.861 204.723 160.717 204.577 160.578C204.431 160.439 204.238 160.298 203.999 160.154C203.76 160.01 203.463 159.856 203.109 159.691C202.729 159.522 202.389 159.358 202.091 159.202C201.793 159.045 201.543 158.876 201.339 158.693C201.136 158.511 200.981 158.305 200.873 158.076C200.765 157.848 200.712 157.576 200.712 157.263C200.712 156.955 200.769 156.666 200.885 156.396C201.001 156.126 201.166 155.891 201.382 155.69C201.598 155.49 201.86 155.332 202.168 155.216C202.476 155.1 202.821 155.042 203.201 155.042C203.607 155.042 203.972 155.103 204.295 155.223C204.619 155.344 204.893 155.512 205.116 155.728C205.339 155.944 205.511 156.202 205.629 156.503C205.747 156.804 205.806 157.131 205.806 157.486H204.95C204.95 157.27 204.912 157.063 204.834 156.865C204.757 156.668 204.644 156.493 204.495 156.341C204.346 156.189 204.163 156.068 203.948 155.979C203.732 155.889 203.483 155.844 203.2 155.844C202.907 155.844 202.658 155.884 202.452 155.964C202.246 156.044 202.077 156.149 201.943 156.28C201.81 156.411 201.712 156.561 201.65 156.727C201.588 156.894 201.558 157.062 201.558 157.232C201.558 157.401 201.584 157.552 201.635 157.683C201.686 157.814 201.78 157.941 201.916 158.064C202.052 158.187 202.236 158.315 202.467 158.446C202.698 158.577 202.996 158.73 203.361 158.904C203.747 159.074 204.093 159.238 204.401 159.397C204.71 159.557 204.971 159.732 205.184 159.925C205.397 160.117 205.562 160.335 205.678 160.576C205.793 160.818 205.852 161.106 205.852 161.44C205.852 161.784 205.79 162.095 205.667 162.373C205.544 162.65 205.368 162.887 205.139 163.082C204.91 163.277 204.635 163.427 204.314 163.533C203.992 163.638 203.637 163.691 203.246 163.691C202.794 163.691 202.395 163.625 202.051 163.494C201.707 163.363 201.418 163.187 201.184 162.966C200.95 162.745 200.773 162.488 200.652 162.195C200.531 161.902 200.471 161.591 200.471 161.262H201.334C201.35 161.591 201.418 161.861 201.539 162.071C201.66 162.282 201.81 162.449 201.99 162.572C202.17 162.695 202.37 162.78 202.591 162.826C202.812 162.872 203.031 162.895 203.246 162.895C203.528 162.895 203.779 162.858 203.998 162.783C204.216 162.708 204.399 162.609 204.545 162.482C204.691 162.356 204.802 162.207 204.877 162.035C204.952 161.867 204.989 161.684 204.989 161.488Z" fill="#4F4F4F"/>
<path d="M14.2918 145.063C6.69381 145.063 0.466797 138.875 0.466797 131.238C0.466797 123.601 6.69381 117.413 14.2918 117.413C18.2868 117.413 22.0858 119.136 24.7098 122.113C25.1798 122.661 25.1008 123.445 24.5928 123.875C24.0838 124.345 23.2998 124.306 22.8298 123.757C20.6758 121.29 17.5818 119.88 14.2918 119.88C8.06481 119.88 2.97278 124.971 2.97278 131.237C2.97278 137.464 8.06381 142.556 14.2918 142.556C17.4248 142.556 20.4008 141.264 22.5158 139.031V133.47H15.2708C14.5658 133.47 14.0168 132.922 14.0168 132.217C14.0168 131.512 14.5658 130.964 15.2708 130.964H23.7698C24.4748 130.964 25.0228 131.512 25.0228 132.217V139.502C25.0228 139.815 24.9058 140.089 24.7098 140.324C22.0848 143.339 18.2868 145.063 14.2918 145.063Z" fill="#4F4F4F"/>
<path d="M40.8066 145.063C34.6976 145.063 29.7236 140.089 29.7236 133.94V118.666C29.7236 117.961 30.2726 117.413 30.9376 117.413C31.6436 117.413 32.1906 117.961 32.1906 118.666V133.94C32.1906 138.718 36.0676 142.556 40.8066 142.556C45.5846 142.556 49.4226 138.718 49.4226 133.94V118.666C49.4226 117.961 49.9706 117.413 50.6756 117.413C51.3816 117.413 51.9286 117.961 51.9286 118.666V133.94C51.9296 140.088 46.9556 145.063 40.8066 145.063Z" fill="#4F4F4F"/>
<path d="M57.6885 145.063C56.9825 145.063 56.4346 144.515 56.4346 143.81V118.667C56.4346 117.962 56.9825 117.414 57.6885 117.414C58.3935 117.414 58.9415 117.962 58.9415 118.667V143.81C58.9415 144.514 58.3935 145.063 57.6885 145.063Z" fill="#4F4F4F"/>
<path d="M71.0433 145.063H64.6983C63.9933 145.063 63.4453 144.515 63.4453 143.81V118.667C63.4453 117.962 63.9933 117.414 64.6983 117.414H71.0433C78.6803 117.414 84.8683 123.602 84.8683 131.239C84.8683 138.876 78.6803 145.063 71.0433 145.063ZM65.9513 142.556H71.0433C77.3093 142.556 82.4003 137.465 82.4003 131.237C82.4003 124.971 77.3093 119.88 71.0433 119.88H65.9513V142.556Z" fill="#4F4F4F"/>
<path d="M108.094 143.809C108.094 144.514 107.507 145.062 106.841 145.062H90.4307C89.7257 145.062 89.1777 144.514 89.1777 143.809V118.666C89.1777 117.961 89.7257 117.413 90.4307 117.413H106.841C107.507 117.413 108.094 117.961 108.094 118.666C108.094 119.332 107.507 119.88 106.841 119.88H91.6837V129.397H102.611C103.277 129.397 103.864 129.945 103.864 130.611C103.864 131.316 103.277 131.864 102.611 131.864H91.6837V142.556H106.841C107.507 142.556 108.094 143.143 108.094 143.809Z" fill="#4F4F4F"/>
<path d="M131.868 127.478C131.868 133 127.403 137.465 121.92 137.465H116.555V142.752C116.555 144.044 115.537 145.063 114.284 145.063C113.03 145.063 112.013 144.045 112.013 142.752V119.802C112.013 118.549 113.031 117.53 114.284 117.53H121.921C127.404 117.53 131.868 121.995 131.868 127.478ZM127.326 127.478C127.326 124.501 124.898 122.112 121.921 122.112H116.556V132.882H121.921C124.897 132.882 127.326 130.493 127.326 127.478Z" fill="#4F4F4F"/>
<path d="M148.75 145.063C141.152 145.063 135.003 138.914 135.003 131.316C135.003 123.757 141.152 117.569 148.75 117.569C156.309 117.569 162.497 123.757 162.497 131.316C162.497 138.914 156.309 145.063 148.75 145.063ZM148.75 122.112C143.659 122.112 139.546 126.264 139.546 131.316C139.546 136.407 143.658 140.52 148.75 140.52C153.802 140.52 157.954 136.408 157.954 131.316C157.954 126.264 153.802 122.112 148.75 122.112Z" fill="#4F4F4F"/>
<path d="M174.6 145.063C171.154 145.063 169.078 143.614 167.903 142.439C166.454 140.912 165.632 138.875 165.632 136.799C165.632 135.546 166.65 134.528 167.903 134.528C169.156 134.528 170.174 135.546 170.174 136.799C170.174 138.17 171.114 140.52 174.6 140.52C178.086 140.52 179.026 138.17 179.026 136.799C179.026 134.723 177.89 134.096 174.052 133C172.328 132.491 170.566 131.982 169.117 130.964C167.159 129.632 166.18 127.752 166.18 125.324C166.18 123.366 166.963 121.447 168.295 120.037C169.391 118.901 171.389 117.57 174.6 117.57C177.851 117.57 179.809 118.901 180.905 120.037C182.276 121.447 183.059 123.366 183.059 125.324C183.059 126.577 182.041 127.595 180.749 127.595C179.496 127.595 178.478 126.577 178.478 125.324C178.478 124.149 177.656 122.112 174.601 122.112C171.546 122.112 170.724 124.148 170.724 125.324C170.724 126.851 171.312 127.439 175.306 128.614C177.107 129.123 178.987 129.671 180.515 130.768C182.552 132.178 183.57 134.215 183.57 136.8C183.57 138.875 182.748 140.912 181.299 142.44C180.161 143.613 178.046 145.063 174.6 145.063Z" fill="#4F4F4F"/>
<path d="M206.716 119.841C206.716 121.094 205.698 122.112 204.445 122.112H198.218V142.791C198.218 144.044 197.2 145.062 195.908 145.062C194.655 145.062 193.637 144.044 193.637 142.791V122.112H187.41C186.156 122.112 185.138 121.094 185.138 119.841C185.138 118.588 186.156 117.57 187.41 117.57H204.446C205.697 117.569 206.716 118.588 206.716 119.841Z" fill="#4F4F4F"/>
</svg>
