<svg width="105" height="43" viewBox="0 0 105 43" fill="none" xmlns="http://www.w3.org/2000/svg">
<path d="M65.6777 35.843C57.8687 35.843 51.4688 29.483 51.4688 21.634C51.4688 13.785 57.8687 7.42499 65.6777 7.42499C69.7837 7.42499 73.6878 9.196 76.3848 12.255C76.8678 12.819 76.7878 13.624 76.2638 14.066C75.7408 14.549 74.9358 14.509 74.4528 13.945C72.2388 11.409 69.0587 9.96002 65.6777 9.96002C59.2777 9.96002 54.0448 15.193 54.0448 21.633C54.0448 28.033 59.2777 33.266 65.6777 33.266C68.8977 33.266 71.9567 31.938 74.1307 29.643V23.927H66.6837C65.9587 23.927 65.3958 23.363 65.3958 22.639C65.3958 21.914 65.9587 21.351 66.6837 21.351H75.4187C76.1437 21.351 76.7068 21.915 76.7068 22.639V30.126C76.7068 30.448 76.5858 30.73 76.3848 30.971C73.6888 34.072 69.7837 35.843 65.6777 35.843Z" fill="black"/>
<path d="M104.32 17.77C104.32 23.446 99.7311 28.034 94.0961 28.034H88.5812V33.468C88.5812 34.796 87.5341 35.843 86.2461 35.843C84.9581 35.843 83.9111 34.796 83.9111 33.468V9.88C83.9111 8.592 84.9581 7.54498 86.2461 7.54498H94.0951C99.7321 7.54598 104.32 12.134 104.32 17.77ZM99.6511 17.77C99.6511 14.711 97.1551 12.255 94.0961 12.255H88.5812V23.324H94.0961C97.1561 23.324 99.6511 20.869 99.6511 17.77Z" fill="black"/>
<path d="M14.9912 18.059L19.0673 20.412V7.34198L14.9912 4.78101V18.059Z" fill="black"/>
<path d="M20.9492 37.998L29.2672 33.049V33.066L33.1173 30.832V30.805L35.3473 27.545L33.6462 25.067L20.9492 32.283V37.998Z" fill="black"/>
<path d="M26.6682 7.67499H20.9492V11.421L26.6682 11.245V7.67499Z" fill="black"/>
<path d="M47.4927 16.722L44.2057 11.612L39.4166 11.959C35.8866 5.36798 28.9346 0.874023 20.9496 0.874023C9.40559 0.874023 0.0136719 10.266 0.0136719 21.81C0.0136719 33.354 9.40559 42.746 20.9496 42.746C31.9506 42.746 40.9966 34.217 41.8236 23.425C41.8646 22.892 41.8856 22.353 41.8856 21.81C41.8856 21.433 41.8746 21.058 41.8546 20.686L44.2067 20.885L47.4927 16.722ZM39.8126 21.809C39.8126 31.162 32.9696 38.942 24.0276 40.417V37.773L20.9486 39.477V40.672C20.3136 40.672 19.6857 40.639 19.0667 40.578V30.212V29.034V23.062L9.46765 17.563L6.89062 21.138L9.46765 24.687L15.5786 28.205V39.89C7.78561 37.571 2.08569 30.346 2.08569 21.81C2.08569 11.409 10.5476 2.94702 20.9486 2.94702C27.8116 2.94702 33.8277 6.63198 37.1287 12.126L20.9486 13.297V30.347L24.0276 28.603V19.181L39.7626 20.51C39.7926 20.938 39.8126 21.371 39.8126 21.809Z" fill="black"/>
</svg>
