<svg width="106" height="43" viewBox="0 0 106 43" fill="none" xmlns="http://www.w3.org/2000/svg">
<path d="M66.4844 35.901C58.6754 35.901 52.2754 29.541 52.2754 21.692C52.2754 13.843 58.6754 7.48297 66.4844 7.48297C70.5904 7.48297 74.4944 9.25399 77.1914 12.313C77.6744 12.877 77.5943 13.682 77.0703 14.124C76.5473 14.607 75.7424 14.567 75.2594 14.003C73.0454 11.467 69.8654 10.018 66.4844 10.018C60.0844 10.018 54.8513 15.251 54.8513 21.691C54.8513 28.091 60.0844 33.324 66.4844 33.324C69.7044 33.324 72.7634 31.996 74.9374 29.701V23.985H67.4904C66.7664 23.985 66.2024 23.421 66.2024 22.697C66.2024 21.972 66.7664 21.409 67.4904 21.409H76.2253C76.9503 21.409 77.5133 21.973 77.5133 22.697V30.184C77.5133 30.506 77.3924 30.788 77.1914 31.029C74.4944 34.13 70.5904 35.901 66.4844 35.901Z" fill="white"/>
<path d="M105.127 17.828C105.127 23.504 100.538 28.092 94.9027 28.092H89.3877V33.526C89.3877 34.854 88.3407 35.901 87.0527 35.901C85.7647 35.901 84.7178 34.854 84.7178 33.526V9.93799C84.7178 8.64999 85.7647 7.60303 87.0527 7.60303H94.9017C100.538 7.60403 105.127 12.192 105.127 17.828ZM100.458 17.828C100.458 14.769 97.9617 12.313 94.9027 12.313H89.3877V23.382H94.9027C97.9617 23.382 100.458 20.927 100.458 17.828Z" fill="white"/>
<path d="M15.7969 18.117L19.8729 20.47V7.40002L15.7969 4.83899V18.117Z" fill="white"/>
<path d="M21.7559 38.056L30.0739 33.107V33.124L33.9248 30.89V30.863L36.1538 27.603L34.4529 25.125L21.7559 32.341V38.056Z" fill="white"/>
<path d="M27.4749 7.73297H21.7559V11.479L27.4749 11.303V7.73297Z" fill="white"/>
<path d="M48.2983 16.78L45.0114 11.67L40.2224 12.017C36.6924 5.42603 29.7404 0.932007 21.7554 0.932007C10.2114 0.932007 0.819336 10.324 0.819336 21.868C0.819336 33.412 10.2114 42.804 21.7554 42.804C32.7564 42.804 41.8024 34.275 42.6294 23.483C42.6704 22.95 42.6914 22.411 42.6914 21.868C42.6914 21.491 42.6804 21.116 42.6604 20.744L45.0123 20.943L48.2983 16.78ZM40.6194 21.867C40.6194 31.22 33.7764 39 24.8344 40.475V37.831L21.7554 39.535V40.73C21.1204 40.73 20.4924 40.697 19.8734 40.636V30.27V29.092V23.12L10.2744 17.621L7.69739 21.196L10.2744 24.745L16.3854 28.263V39.948C8.59238 37.629 2.89233 30.404 2.89233 21.868C2.89233 11.467 11.3544 3.005 21.7554 3.005C28.6184 3.005 34.6344 6.69002 37.9354 12.184L21.7554 13.355V30.405L24.8344 28.661V19.239L40.5693 20.568C40.5983 20.996 40.6194 21.429 40.6194 21.867Z" fill="white"/>
</svg>
