<svg width="214" height="52" viewBox="0 0 214 52" fill="none" xmlns="http://www.w3.org/2000/svg">
<path d="M1.04395 36.753C1.04395 36.573 1.09395 36.419 1.19495 36.292C1.29595 36.165 1.43894 36.101 1.62494 36.101C1.80994 36.101 1.95496 36.164 2.05896 36.292C2.16196 36.419 2.21393 36.573 2.21393 36.753C2.21393 36.933 2.16196 37.086 2.05896 37.211C1.95496 37.335 1.81094 37.398 1.62494 37.398C1.43894 37.398 1.29595 37.336 1.19495 37.211C1.09395 37.086 1.04395 36.933 1.04395 36.753ZM2.06293 47.844H1.17194V39.236H2.06293V47.844Z" fill="#4F4F4F"/>
<path d="M6.24438 39.235L6.26837 40.603C6.52337 40.136 6.84735 39.765 7.24335 39.489C7.63835 39.213 8.08837 39.075 8.59137 39.075C8.95237 39.075 9.27437 39.134 9.55737 39.25C9.84137 39.367 10.0824 39.552 10.2814 39.807C10.4804 40.062 10.6333 40.389 10.7383 40.789C10.8453 41.189 10.8984 41.674 10.8984 42.241V47.842H10.0234V42.233C10.0234 41.792 9.98439 41.424 9.90839 41.127C9.83139 40.83 9.72137 40.593 9.57837 40.415C9.43537 40.237 9.26137 40.11 9.05737 40.033C8.85337 39.956 8.62335 39.918 8.36835 39.918C8.10335 39.918 7.86038 39.972 7.64038 40.081C7.42038 40.189 7.22336 40.334 7.04736 40.514C6.87236 40.695 6.72136 40.901 6.59436 41.135C6.46736 41.368 6.36336 41.612 6.28436 41.867V47.842H5.40137V39.234H6.24438V39.235Z" fill="#4F4F4F"/>
<path d="M13.8242 43.142C13.8242 42.421 13.8892 41.804 14.0192 41.292C14.1492 40.78 14.3363 40.36 14.5803 40.031C14.8243 39.702 15.1192 39.461 15.4672 39.307C15.8142 39.153 16.2033 39.076 16.6323 39.076C17.1473 39.076 17.5832 39.191 17.9412 39.422C18.2992 39.652 18.5923 39.975 18.8203 40.388V35.623H19.7032V47.844H18.8762L18.8362 46.738C18.6082 47.136 18.3132 47.446 17.9492 47.669C17.5862 47.892 17.1443 48.004 16.6243 48.004C16.1953 48.004 15.8083 47.923 15.4633 47.761C15.1183 47.599 14.8252 47.351 14.5842 47.017C14.3432 46.683 14.1553 46.261 14.0233 45.752C13.8903 45.243 13.8232 44.641 13.8232 43.946V43.142H13.8242ZM14.7233 43.945C14.7233 45.048 14.8892 45.86 15.2202 46.38C15.5522 46.9 16.0783 47.16 16.7993 47.16C17.0593 47.16 17.2942 47.127 17.5032 47.06C17.7132 46.994 17.9012 46.901 18.0682 46.782C18.2352 46.663 18.3792 46.522 18.5012 46.36C18.6232 46.198 18.7303 46.022 18.8203 45.831V41.367C18.7413 41.176 18.6422 40.993 18.5262 40.818C18.4092 40.643 18.2702 40.49 18.1082 40.36C17.9462 40.23 17.7583 40.125 17.5433 40.046C17.3293 39.966 17.0833 39.926 16.8073 39.926C16.0813 39.926 15.5522 40.187 15.2202 40.71C14.8892 41.232 14.7233 42.043 14.7233 43.141V43.945V43.945Z" fill="#4F4F4F"/>
<path d="M25.8273 48.003C25.3503 48.003 24.9122 47.925 24.5142 47.768C24.1162 47.612 23.7733 47.373 23.4843 47.052C23.1953 46.731 22.9712 46.327 22.8112 45.839C22.6522 45.351 22.5732 44.773 22.5732 44.105V43.126C22.5732 42.405 22.6572 41.788 22.8282 41.276C22.9972 40.764 23.2242 40.345 23.5082 40.019C23.7922 39.693 24.1212 39.454 24.4952 39.303C24.8692 39.152 25.2633 39.076 25.6763 39.076C26.6203 39.076 27.3382 39.388 27.8282 40.011C28.3192 40.634 28.5643 41.588 28.5643 42.871V43.619H23.4492V44.104C23.4492 44.629 23.5083 45.085 23.6243 45.472C23.7413 45.859 23.9052 46.18 24.1172 46.435C24.3302 46.689 24.5842 46.879 24.8812 47.003C25.1782 47.128 25.5072 47.19 25.8682 47.19C26.3132 47.19 26.7013 47.114 27.0303 46.963C27.3583 46.812 27.6583 46.577 27.9293 46.259L28.3903 46.848C28.2733 47.007 28.1372 47.155 27.9802 47.293C27.8232 47.431 27.6413 47.553 27.4313 47.659C27.2213 47.765 26.9842 47.849 26.7192 47.91C26.4522 47.972 26.1553 48.003 25.8273 48.003ZM25.6763 39.904C25.3633 39.904 25.0762 39.957 24.8132 40.063C24.5512 40.169 24.3233 40.338 24.1293 40.568C23.9353 40.799 23.7803 41.097 23.6633 41.463C23.5473 41.829 23.4782 42.272 23.4572 42.792H27.6813V42.561C27.6703 42.142 27.6233 41.768 27.5383 41.439C27.4533 41.11 27.3303 40.832 27.1683 40.604C27.0063 40.376 26.8012 40.202 26.5522 40.083C26.3012 39.963 26.0103 39.904 25.6763 39.904Z" fill="#4F4F4F"/>
<path d="M37.2089 43.945C37.2089 44.64 37.1469 45.242 37.0219 45.751C36.8969 46.26 36.7179 46.682 36.4849 47.016C36.2509 47.35 35.9629 47.598 35.6179 47.76C35.2729 47.922 34.8829 48.003 34.4479 48.003C33.9279 48.003 33.4839 47.898 33.1149 47.689C32.7459 47.479 32.4449 47.186 32.2119 46.81V51.154H31.3369V39.236H32.1489L32.189 40.414C32.427 39.995 32.7299 39.667 33.0959 39.431C33.4619 39.195 33.9049 39.077 34.4249 39.077C34.8699 39.077 35.266 39.154 35.611 39.308C35.956 39.461 36.247 39.703 36.486 40.032C36.725 40.361 36.9049 40.781 37.0269 41.293C37.1489 41.805 37.21 42.422 37.21 43.143V43.945H37.2089ZM36.3259 43.142C36.3259 42.039 36.1549 41.227 35.8129 40.707C35.4709 40.187 34.937 39.927 34.21 39.927C33.939 39.927 33.6969 39.966 33.4819 40.043C33.2669 40.119 33.0789 40.225 32.9169 40.357C32.7549 40.49 32.6169 40.641 32.5029 40.81C32.3889 40.98 32.292 41.16 32.213 41.351V45.886C32.298 46.071 32.4019 46.244 32.5269 46.403C32.6509 46.562 32.7959 46.7 32.9609 46.817C33.1249 46.934 33.3119 47.024 33.5219 47.088C33.7309 47.151 33.966 47.183 34.226 47.183C34.942 47.183 35.4709 46.919 35.8129 46.391C36.1549 45.863 36.3259 45.048 36.3259 43.944V43.142Z" fill="#4F4F4F"/>
<path d="M42.9981 48.003C42.5211 48.003 42.0831 47.925 41.6861 47.768C41.2881 47.612 40.9441 47.373 40.6561 47.052C40.3661 46.731 40.1431 46.327 39.9831 45.839C39.8241 45.351 39.7441 44.773 39.7441 44.105V43.126C39.7441 42.405 39.8291 41.788 39.9991 41.276C40.1681 40.764 40.3951 40.345 40.6791 40.019C40.9631 39.693 41.2921 39.454 41.6661 39.303C42.0401 39.152 42.4341 39.076 42.8471 39.076C43.7911 39.076 44.5091 39.388 44.9991 40.011C45.4891 40.634 45.7351 41.588 45.7351 42.871V43.619H40.6201V44.104C40.6201 44.629 40.6781 45.085 40.7951 45.472C40.9121 45.859 41.0761 46.18 41.2881 46.435C41.5001 46.689 41.7551 46.879 42.0521 47.003C42.3491 47.128 42.6781 47.19 43.0391 47.19C43.4841 47.19 43.8711 47.114 44.2011 46.963C44.5301 46.812 44.8291 46.577 45.1001 46.259L45.5621 46.848C45.4451 47.007 45.3081 47.155 45.1521 47.293C44.9951 47.431 44.8121 47.553 44.6031 47.659C44.3931 47.765 44.1561 47.849 43.8911 47.91C43.6241 47.972 43.3271 48.003 42.9981 48.003ZM42.8471 39.904C42.5341 39.904 42.2471 39.957 41.9841 40.063C41.7221 40.169 41.4931 40.338 41.2991 40.568C41.1051 40.799 40.9501 41.097 40.8341 41.463C40.7171 41.829 40.6491 42.272 40.6271 42.792H44.8521V42.561C44.8411 42.142 44.7931 41.768 44.7091 41.439C44.6241 41.11 44.5011 40.832 44.3391 40.604C44.1771 40.376 43.9711 40.202 43.7221 40.083C43.4731 39.963 43.1811 39.904 42.8471 39.904Z" fill="#4F4F4F"/>
<path d="M49.3528 39.235L49.3768 40.603C49.6318 40.136 49.9558 39.765 50.3508 39.489C50.7458 39.213 51.1958 39.075 51.6998 39.075C52.0598 39.075 52.3828 39.134 52.6658 39.25C52.9498 39.367 53.1908 39.552 53.3898 39.807C53.5888 40.062 53.7408 40.389 53.8468 40.789C53.9528 41.189 54.0058 41.674 54.0058 42.241V47.842H53.1308V42.233C53.1308 41.792 53.0918 41.424 53.0148 41.127C52.9378 40.83 52.8278 40.593 52.6848 40.415C52.5418 40.237 52.3678 40.11 52.1638 40.033C51.9598 39.956 51.7308 39.918 51.4758 39.918C51.2108 39.918 50.9678 39.972 50.7478 40.081C50.5278 40.189 50.3308 40.334 50.1548 40.514C49.9798 40.695 49.8288 40.901 49.7008 41.135C49.5738 41.368 49.4698 41.612 49.3908 41.867V47.842H48.5078V39.234H49.3528V39.235Z" fill="#4F4F4F"/>
<path d="M56.9316 43.142C56.9316 42.421 56.9966 41.804 57.1266 41.292C57.2566 40.78 57.4436 40.36 57.6876 40.031C57.9316 39.702 58.2276 39.461 58.5756 39.307C58.9226 39.153 59.3117 39.076 59.7407 39.076C60.2547 39.076 60.6916 39.191 61.0496 39.422C61.4076 39.652 61.7006 39.975 61.9286 40.388V35.623H62.8116V47.844H61.9846L61.9446 46.738C61.7156 47.136 61.4206 47.446 61.0576 47.669C60.6936 47.892 60.2526 48.004 59.7326 48.004C59.3026 48.004 58.9156 47.923 58.5706 47.761C58.2256 47.599 57.9327 47.351 57.6917 47.017C57.4497 46.683 57.2626 46.261 57.1306 45.752C56.9976 45.243 56.9316 44.641 56.9316 43.946V43.142V43.142ZM57.8306 43.945C57.8306 45.048 57.9966 45.86 58.3286 46.38C58.6596 46.9 59.1867 47.16 59.9077 47.16C60.1677 47.16 60.4016 47.127 60.6126 47.06C60.8216 46.994 61.0106 46.901 61.1776 46.782C61.3446 46.663 61.4896 46.522 61.6116 46.36C61.7336 46.198 61.8396 46.022 61.9296 45.831V41.367C61.8496 41.176 61.7516 40.993 61.6356 40.818C61.5186 40.643 61.3797 40.49 61.2177 40.36C61.0557 40.23 60.8676 40.125 60.6526 40.046C60.4376 39.966 60.1926 39.926 59.9166 39.926C59.1896 39.926 58.6607 40.187 58.3297 40.71C57.9977 41.232 57.8316 42.043 57.8316 43.141V43.945H57.8306Z" fill="#4F4F4F"/>
<path d="M68.9346 48.003C68.4576 48.003 68.0196 47.925 67.6216 47.768C67.2236 47.612 66.8806 47.373 66.5916 47.052C66.3026 46.731 66.0786 46.327 65.9196 45.839C65.7606 45.351 65.6807 44.773 65.6807 44.105V43.126C65.6807 42.405 65.7656 41.788 65.9356 41.276C66.1046 40.764 66.3327 40.345 66.6157 40.019C66.8997 39.693 67.2277 39.454 67.6027 39.303C67.9767 39.152 68.3696 39.076 68.7836 39.076C69.7276 39.076 70.4446 39.388 70.9356 40.011C71.4266 40.634 71.6716 41.588 71.6716 42.871V43.619H66.5557V44.104C66.5557 44.629 66.6147 45.085 66.7307 45.472C66.8477 45.859 67.0116 46.18 67.2236 46.435C67.4366 46.689 67.6906 46.879 67.9876 47.003C68.2846 47.128 68.6136 47.19 68.9746 47.19C69.4196 47.19 69.8077 47.114 70.1367 46.963C70.4657 46.812 70.7646 46.577 71.0356 46.259L71.4966 46.848C71.3806 47.007 71.2436 47.155 71.0866 47.293C70.9306 47.431 70.7477 47.553 70.5377 47.659C70.3287 47.765 70.0916 47.849 69.8256 47.91C69.5606 47.972 69.2626 48.003 68.9346 48.003ZM68.7836 39.904C68.4706 39.904 68.1826 39.957 67.9196 40.063C67.6576 40.169 67.4297 40.338 67.2357 40.568C67.0417 40.799 66.8867 41.097 66.7697 41.463C66.6527 41.829 66.5836 42.272 66.5626 42.792H70.7877V42.561C70.7767 42.142 70.7297 41.768 70.6447 41.439C70.5597 41.11 70.4367 40.832 70.2747 40.604C70.1127 40.376 69.9076 40.202 69.6586 40.083C69.4096 39.963 69.1176 39.904 68.7836 39.904Z" fill="#4F4F4F"/>
<path d="M75.2892 39.235L75.3132 40.603C75.5682 40.136 75.8923 39.765 76.2883 39.489C76.6833 39.213 77.1333 39.075 77.6373 39.075C77.9983 39.075 78.3203 39.134 78.6033 39.25C78.8863 39.366 79.1283 39.552 79.3273 39.807C79.5253 40.062 79.6792 40.389 79.7842 40.789C79.8912 41.189 79.9442 41.674 79.9442 42.241V47.842H79.0692V42.233C79.0692 41.792 79.0302 41.424 78.9542 41.127C78.8772 40.83 78.7673 40.593 78.6243 40.415C78.4813 40.237 78.3073 40.11 78.1033 40.033C77.8993 39.956 77.6692 39.918 77.4142 39.918C77.1492 39.918 76.9062 39.972 76.6862 40.081C76.4662 40.189 76.2693 40.334 76.0933 40.514C75.9183 40.695 75.7673 40.901 75.6403 41.135C75.5133 41.368 75.4093 41.612 75.3303 41.867V47.842H74.4473V39.234H75.2892V39.235Z" fill="#4F4F4F"/>
<path d="M84.5157 37.039V39.235H85.9877V40.031H84.5157V45.751C84.5157 46.048 84.5407 46.288 84.5917 46.471C84.6417 46.654 84.7097 46.796 84.7937 46.897C84.8787 46.998 84.9757 47.065 85.0847 47.1C85.1937 47.134 85.3087 47.151 85.4307 47.151C85.5477 47.151 85.6617 47.142 85.7727 47.123C85.8837 47.105 85.9817 47.087 86.0667 47.071L86.0907 47.867C85.9957 47.91 85.8697 47.943 85.7127 47.967C85.5567 47.991 85.3927 48.003 85.2237 48.003C84.9957 48.003 84.7847 47.966 84.5917 47.892C84.3977 47.817 84.2297 47.693 84.0867 47.518C83.9437 47.343 83.8317 47.111 83.7527 46.822C83.6737 46.533 83.6337 46.173 83.6337 45.744V40.031H82.3047V39.235H83.6337V37.039H84.5157V37.039Z" fill="#4F4F4F"/>
<path d="M96.0858 47.183C96.3298 47.183 96.5658 47.151 96.7938 47.088C97.0228 47.025 97.2248 46.916 97.4028 46.762C97.5798 46.608 97.7258 46.403 97.8408 46.146C97.9548 45.889 98.0198 45.566 98.0358 45.179H98.8868C98.8658 45.64 98.7788 46.048 98.6248 46.401C98.4708 46.753 98.2668 47.048 98.0118 47.284C97.7578 47.52 97.4658 47.699 97.1368 47.821C96.8078 47.943 96.4577 48.004 96.0867 48.004C95.0527 48.004 94.2738 47.669 93.7518 47.001C93.2288 46.333 92.9678 45.341 92.9678 44.026V43.055C92.9678 41.739 93.2288 40.748 93.7518 40.079C94.2738 39.411 95.0497 39.077 96.0787 39.077C96.4707 39.077 96.8357 39.139 97.1727 39.264C97.5087 39.389 97.8007 39.577 98.0477 39.829C98.2947 40.081 98.4917 40.399 98.6407 40.784C98.7897 41.168 98.8718 41.621 98.8868 42.14H98.0358C98.0198 41.742 97.9588 41.402 97.8528 41.118C97.7458 40.834 97.6077 40.602 97.4357 40.422C97.2627 40.242 97.0617 40.111 96.8307 40.028C96.6007 39.946 96.3498 39.905 96.0798 39.905C95.6708 39.905 95.3268 39.975 95.0458 40.116C94.7648 40.257 94.5368 40.462 94.3608 40.733C94.1858 41.004 94.0588 41.333 93.9788 41.724C93.8998 42.114 93.8588 42.558 93.8588 43.057V44.028C93.8588 44.532 93.8967 44.98 93.9747 45.373C94.0507 45.765 94.1768 46.095 94.3528 46.363C94.5278 46.631 94.7567 46.836 95.0417 46.976C95.3227 47.113 95.6718 47.183 96.0858 47.183Z" fill="#4F4F4F"/>
<path d="M105.026 40.063C104.935 40.047 104.847 40.034 104.759 40.023C104.671 40.013 104.574 40.008 104.469 40.008C104.209 40.008 103.974 40.054 103.764 40.147C103.554 40.24 103.37 40.37 103.211 40.537C103.052 40.704 102.915 40.905 102.801 41.138C102.687 41.371 102.598 41.626 102.534 41.902V47.845H101.651V39.237H102.519L102.535 40.526C102.732 40.075 102.991 39.721 103.315 39.464C103.638 39.207 104.036 39.078 104.509 39.078C104.604 39.078 104.705 39.089 104.811 39.11C104.917 39.131 104.994 39.155 105.041 39.182L105.026 40.063Z" fill="#4F4F4F"/>
<path d="M110.162 48.003C109.685 48.003 109.247 47.925 108.85 47.768C108.452 47.612 108.108 47.373 107.82 47.052C107.53 46.731 107.307 46.327 107.147 45.839C106.988 45.351 106.908 44.773 106.908 44.105V43.126C106.908 42.405 106.993 41.788 107.163 41.276C107.332 40.764 107.559 40.345 107.843 40.019C108.127 39.693 108.456 39.454 108.83 39.303C109.204 39.152 109.598 39.076 110.011 39.076C110.955 39.076 111.673 39.388 112.163 40.011C112.653 40.634 112.899 41.588 112.899 42.871V43.619H107.784V44.104C107.784 44.629 107.842 45.085 107.959 45.472C108.076 45.859 108.24 46.18 108.452 46.435C108.664 46.689 108.919 46.879 109.216 47.003C109.513 47.128 109.842 47.19 110.203 47.19C110.648 47.19 111.035 47.114 111.365 46.963C111.694 46.812 111.993 46.577 112.264 46.259L112.726 46.848C112.609 47.007 112.472 47.155 112.316 47.293C112.159 47.431 111.976 47.553 111.767 47.659C111.557 47.765 111.32 47.849 111.055 47.91C110.788 47.972 110.491 48.003 110.162 48.003ZM110.011 39.904C109.698 39.904 109.411 39.957 109.148 40.063C108.886 40.169 108.657 40.338 108.463 40.568C108.269 40.799 108.114 41.097 107.998 41.463C107.881 41.829 107.813 42.272 107.791 42.792H112.016V42.561C112.005 42.142 111.957 41.768 111.873 41.439C111.788 41.11 111.665 40.832 111.503 40.604C111.341 40.376 111.135 40.202 110.886 40.083C110.637 39.963 110.345 39.904 110.011 39.904Z" fill="#4F4F4F"/>
<path d="M120.225 47.844C120.182 47.701 120.148 47.522 120.121 47.307C120.094 47.092 120.075 46.873 120.065 46.65C119.954 46.831 119.821 47.002 119.667 47.163C119.513 47.325 119.337 47.468 119.138 47.593C118.939 47.718 118.718 47.817 118.474 47.892C118.23 47.966 117.968 48.003 117.687 48.003C117.332 48.003 117.009 47.952 116.72 47.851C116.431 47.75 116.183 47.599 115.976 47.398C115.769 47.197 115.61 46.944 115.499 46.642C115.388 46.339 115.332 45.987 115.332 45.584C115.332 45.186 115.401 44.819 115.539 44.482C115.677 44.145 115.882 43.854 116.155 43.61C116.428 43.366 116.769 43.175 117.178 43.037C117.587 42.899 118.061 42.83 118.602 42.83H120.058V41.629C120.058 41.014 119.906 40.572 119.601 40.304C119.296 40.036 118.849 39.902 118.26 39.902C117.984 39.902 117.731 39.945 117.5 40.029C117.269 40.114 117.071 40.232 116.907 40.383C116.742 40.534 116.615 40.715 116.524 40.924C116.434 41.134 116.389 41.363 116.389 41.613L115.506 41.605C115.506 41.271 115.572 40.951 115.705 40.646C115.838 40.341 116.026 40.072 116.27 39.839C116.514 39.606 116.808 39.42 117.153 39.282C117.497 39.144 117.88 39.075 118.299 39.075C118.686 39.075 119.04 39.122 119.361 39.214C119.682 39.306 119.959 39.455 120.193 39.659C120.426 39.863 120.608 40.128 120.738 40.454C120.868 40.78 120.933 41.177 120.933 41.644V46.036C120.933 46.185 120.938 46.338 120.949 46.497C120.959 46.656 120.974 46.811 120.993 46.962C121.012 47.113 121.035 47.256 121.065 47.392C121.094 47.527 121.127 47.645 121.164 47.746V47.841H120.225V47.844ZM117.798 47.152C118.074 47.152 118.332 47.114 118.574 47.037C118.815 46.96 119.031 46.854 119.222 46.719C119.413 46.584 119.579 46.426 119.719 46.245C119.859 46.065 119.972 45.871 120.057 45.664V43.571H118.728C117.895 43.571 117.27 43.746 116.85 44.096C116.431 44.446 116.222 44.918 116.222 45.512C116.222 46.08 116.361 46.495 116.64 46.757C116.919 47.02 117.304 47.152 117.798 47.152Z" fill="#4F4F4F"/>
<path d="M125.568 37.039V39.235H127.04V40.031H125.568V45.751C125.568 46.048 125.593 46.288 125.644 46.471C125.694 46.654 125.762 46.796 125.846 46.897C125.931 46.998 126.028 47.065 126.137 47.1C126.246 47.134 126.361 47.151 126.483 47.151C126.6 47.151 126.714 47.142 126.825 47.123C126.936 47.105 127.034 47.087 127.119 47.071L127.143 47.867C127.048 47.91 126.922 47.943 126.765 47.967C126.609 47.991 126.445 48.003 126.276 48.003C126.048 48.003 125.837 47.966 125.644 47.892C125.45 47.817 125.282 47.693 125.139 47.518C124.996 47.343 124.884 47.111 124.805 46.822C124.726 46.533 124.686 46.173 124.686 45.744V40.031H123.357V39.235H124.686V37.039H125.568V37.039Z" fill="#4F4F4F"/>
<path d="M129.829 36.753C129.829 36.573 129.879 36.419 129.981 36.292C130.082 36.165 130.225 36.101 130.41 36.101C130.596 36.101 130.74 36.164 130.844 36.292C130.948 36.419 130.999 36.573 130.999 36.753C130.999 36.933 130.948 37.086 130.844 37.211C130.74 37.335 130.596 37.398 130.41 37.398C130.225 37.398 130.082 37.336 129.981 37.211C129.88 37.086 129.829 36.933 129.829 36.753ZM130.848 47.844H129.957V39.236H130.848V47.844Z" fill="#4F4F4F"/>
<path d="M136.47 46.46L138.586 39.236H139.493L136.812 47.844H136.112L133.415 39.236H134.322L136.47 46.46Z" fill="#4F4F4F"/>
<path d="M144.732 48.003C144.255 48.003 143.818 47.925 143.421 47.768C143.023 47.612 142.679 47.373 142.391 47.052C142.101 46.731 141.878 46.327 141.718 45.839C141.559 45.351 141.479 44.773 141.479 44.105V43.126C141.479 42.405 141.564 41.788 141.734 41.276C141.903 40.764 142.13 40.345 142.414 40.019C142.698 39.693 143.027 39.454 143.401 39.303C143.775 39.152 144.168 39.076 144.581 39.076C145.525 39.076 146.244 39.388 146.734 40.011C147.225 40.634 147.469 41.588 147.469 42.871V43.619H142.354V44.104C142.354 44.629 142.413 45.085 142.53 45.472C142.647 45.859 142.811 46.18 143.023 46.435C143.235 46.689 143.489 46.879 143.786 47.003C144.083 47.128 144.412 47.19 144.773 47.19C145.218 47.19 145.605 47.114 145.935 46.963C146.264 46.812 146.564 46.577 146.835 46.259L147.297 46.848C147.18 47.007 147.043 47.155 146.887 47.293C146.73 47.431 146.547 47.553 146.338 47.659C146.128 47.765 145.89 47.849 145.625 47.91C145.358 47.972 145.062 48.003 144.732 48.003ZM144.581 39.904C144.268 39.904 143.982 39.957 143.719 40.063C143.457 40.169 143.228 40.338 143.034 40.568C142.84 40.799 142.684 41.097 142.568 41.463C142.451 41.829 142.384 42.272 142.362 42.792H146.586V42.561C146.575 42.142 146.527 41.768 146.443 41.439C146.358 41.11 146.235 40.832 146.073 40.604C145.911 40.376 145.705 40.202 145.456 40.083C145.207 39.963 144.915 39.904 144.581 39.904Z" fill="#4F4F4F"/>
<path d="M160.672 43.945C160.672 44.64 160.61 45.242 160.485 45.751C160.36 46.26 160.181 46.682 159.948 47.016C159.714 47.35 159.426 47.598 159.081 47.76C158.736 47.922 158.346 48.003 157.911 48.003C157.391 48.003 156.947 47.898 156.578 47.689C156.209 47.479 155.908 47.186 155.675 46.81V51.154H154.8V39.236H155.612L155.652 40.414C155.89 39.995 156.193 39.667 156.559 39.431C156.925 39.195 157.368 39.077 157.888 39.077C158.333 39.077 158.729 39.154 159.074 39.308C159.419 39.461 159.71 39.703 159.949 40.032C160.188 40.361 160.368 40.781 160.49 41.293C160.612 41.805 160.673 42.422 160.673 43.143V43.945H160.672ZM159.789 43.142C159.789 42.039 159.618 41.227 159.276 40.707C158.934 40.187 158.4 39.927 157.673 39.927C157.402 39.927 157.16 39.966 156.945 40.043C156.73 40.119 156.542 40.225 156.38 40.357C156.218 40.49 156.08 40.641 155.966 40.81C155.852 40.98 155.755 41.16 155.676 41.351V45.886C155.761 46.071 155.865 46.244 155.99 46.403C156.114 46.562 156.259 46.7 156.424 46.817C156.588 46.934 156.775 47.024 156.985 47.088C157.194 47.151 157.429 47.183 157.689 47.183C158.405 47.183 158.934 46.919 159.276 46.391C159.618 45.863 159.789 45.048 159.789 43.944V43.142Z" fill="#4F4F4F"/>
<path d="M168.172 47.844C168.129 47.701 168.094 47.522 168.068 47.307C168.041 47.092 168.022 46.873 168.012 46.65C167.901 46.831 167.768 47.002 167.614 47.163C167.46 47.325 167.284 47.468 167.085 47.593C166.886 47.718 166.665 47.817 166.421 47.892C166.177 47.966 165.915 48.003 165.634 48.003C165.279 48.003 164.956 47.952 164.667 47.851C164.378 47.75 164.13 47.599 163.923 47.398C163.716 47.197 163.557 46.944 163.446 46.642C163.335 46.339 163.279 45.987 163.279 45.584C163.279 45.186 163.348 44.819 163.486 44.482C163.624 44.145 163.829 43.854 164.102 43.61C164.375 43.366 164.716 43.175 165.125 43.037C165.534 42.899 166.008 42.83 166.549 42.83H168.005V41.629C168.005 41.014 167.853 40.572 167.548 40.304C167.243 40.036 166.796 39.902 166.207 39.902C165.931 39.902 165.678 39.945 165.447 40.029C165.216 40.114 165.018 40.232 164.854 40.383C164.689 40.534 164.562 40.715 164.471 40.924C164.381 41.134 164.336 41.363 164.336 41.613L163.453 41.605C163.453 41.271 163.519 40.951 163.652 40.646C163.785 40.341 163.973 40.072 164.217 39.839C164.461 39.606 164.755 39.42 165.1 39.282C165.444 39.144 165.827 39.075 166.246 39.075C166.633 39.075 166.987 39.122 167.308 39.214C167.63 39.306 167.906 39.455 168.14 39.659C168.373 39.863 168.555 40.128 168.685 40.454C168.815 40.78 168.88 41.177 168.88 41.644V46.036C168.88 46.185 168.885 46.338 168.896 46.497C168.906 46.656 168.921 46.811 168.94 46.962C168.959 47.113 168.982 47.256 169.012 47.392C169.041 47.527 169.074 47.645 169.111 47.746V47.841H168.172V47.844ZM165.745 47.152C166.021 47.152 166.279 47.114 166.521 47.037C166.762 46.96 166.978 46.854 167.169 46.719C167.36 46.584 167.526 46.426 167.666 46.245C167.806 46.065 167.919 45.871 168.004 45.664V43.571H166.675C165.842 43.571 165.217 43.746 164.797 44.096C164.378 44.446 164.169 44.918 164.169 45.512C164.169 46.08 164.308 46.495 164.587 46.757C164.866 47.02 165.252 47.152 165.745 47.152Z" fill="#4F4F4F"/>
<path d="M175.56 40.063C175.469 40.047 175.381 40.034 175.293 40.023C175.206 40.013 175.109 40.008 175.003 40.008C174.743 40.008 174.508 40.054 174.299 40.147C174.09 40.24 173.904 40.37 173.745 40.537C173.586 40.704 173.451 40.905 173.336 41.138C173.222 41.371 173.134 41.626 173.07 41.902V47.845H172.187V39.237H173.054L173.07 40.526C173.266 40.075 173.525 39.721 173.849 39.464C174.173 39.207 174.571 39.078 175.044 39.078C175.139 39.078 175.239 39.089 175.346 39.11C175.452 39.131 175.53 39.155 175.577 39.182L175.56 40.063Z" fill="#4F4F4F"/>
<path d="M179.734 37.039V39.235H181.206V40.031H179.734V45.751C179.734 46.048 179.759 46.288 179.81 46.471C179.86 46.654 179.928 46.796 180.012 46.897C180.097 46.998 180.194 47.065 180.303 47.1C180.412 47.134 180.527 47.151 180.649 47.151C180.766 47.151 180.88 47.142 180.991 47.123C181.102 47.105 181.2 47.087 181.285 47.071L181.309 47.867C181.214 47.91 181.088 47.943 180.931 47.967C180.775 47.991 180.611 48.003 180.442 48.003C180.214 48.003 180.003 47.966 179.81 47.892C179.616 47.817 179.448 47.693 179.305 47.518C179.162 47.343 179.05 47.111 178.971 46.822C178.892 46.533 178.852 46.173 178.852 45.744V40.031H177.523V39.235H178.852V37.039H179.734V37.039Z" fill="#4F4F4F"/>
<path d="M184.871 39.235L184.895 40.603C185.15 40.136 185.474 39.765 185.87 39.489C186.265 39.213 186.715 39.075 187.219 39.075C187.58 39.075 187.902 39.134 188.185 39.25C188.468 39.366 188.71 39.552 188.909 39.807C189.107 40.062 189.261 40.389 189.366 40.789C189.473 41.189 189.526 41.674 189.526 42.241V47.842H188.651V42.233C188.651 41.792 188.612 41.424 188.536 41.127C188.459 40.83 188.349 40.593 188.206 40.415C188.063 40.237 187.889 40.11 187.685 40.033C187.481 39.956 187.251 39.918 186.996 39.918C186.731 39.918 186.488 39.972 186.268 40.081C186.048 40.189 185.851 40.334 185.675 40.514C185.5 40.695 185.349 40.901 185.222 41.135C185.095 41.368 184.991 41.612 184.912 41.867V47.842H184.029V39.234H184.871V39.235Z" fill="#4F4F4F"/>
<path d="M195.609 48.003C195.132 48.003 194.694 47.925 194.296 47.768C193.898 47.612 193.555 47.373 193.266 47.052C192.977 46.731 192.753 46.327 192.593 45.839C192.434 45.351 192.354 44.773 192.354 44.105V43.126C192.354 42.405 192.438 41.788 192.609 41.276C192.778 40.764 193.005 40.345 193.289 40.019C193.573 39.693 193.902 39.454 194.276 39.303C194.65 39.152 195.045 39.076 195.458 39.076C196.402 39.076 197.119 39.388 197.609 40.011C198.1 40.634 198.346 41.588 198.346 42.871V43.619H193.229V44.104C193.229 44.629 193.289 45.085 193.405 45.472C193.522 45.859 193.686 46.18 193.898 46.435C194.111 46.689 194.364 46.879 194.661 47.003C194.958 47.128 195.287 47.19 195.648 47.19C196.093 47.19 196.481 47.114 196.81 46.963C197.138 46.812 197.439 46.577 197.71 46.259L198.171 46.848C198.054 47.007 197.917 47.155 197.76 47.293C197.604 47.431 197.421 47.553 197.211 47.659C197.001 47.765 196.765 47.849 196.5 47.91C196.235 47.972 195.938 48.003 195.609 48.003ZM195.458 39.904C195.145 39.904 194.857 39.957 194.594 40.063C194.332 40.169 194.105 40.338 193.911 40.568C193.717 40.799 193.562 41.097 193.445 41.463C193.329 41.829 193.26 42.272 193.239 42.792H197.463V42.561C197.452 42.142 197.405 41.768 197.32 41.439C197.235 41.11 197.112 40.832 196.95 40.604C196.788 40.376 196.582 40.202 196.333 40.083C196.083 39.963 195.792 39.904 195.458 39.904Z" fill="#4F4F4F"/>
<path d="M204.493 40.063C204.403 40.047 204.314 40.034 204.227 40.023C204.14 40.013 204.043 40.008 203.936 40.008C203.676 40.008 203.441 40.054 203.232 40.147C203.022 40.24 202.838 40.37 202.679 40.537C202.52 40.704 202.384 40.905 202.269 41.138C202.155 41.371 202.066 41.626 202.003 41.902V47.845H201.12V39.237H201.987L202.003 40.526C202.199 40.075 202.459 39.721 202.783 39.464C203.106 39.207 203.504 39.078 203.976 39.078C204.072 39.078 204.173 39.089 204.279 39.11C204.385 39.131 204.462 39.155 204.51 39.182L204.493 40.063Z" fill="#4F4F4F"/>
<path d="M211.245 45.728C211.245 45.553 211.212 45.389 211.146 45.235C211.079 45.081 210.971 44.933 210.82 44.79C210.669 44.647 210.47 44.501 210.224 44.352C209.977 44.204 209.671 44.045 209.305 43.875C208.912 43.7 208.562 43.532 208.254 43.37C207.947 43.208 207.688 43.034 207.478 42.845C207.269 42.657 207.108 42.445 206.997 42.208C206.886 41.972 206.83 41.692 206.83 41.368C206.83 41.05 206.889 40.752 207.009 40.473C207.129 40.195 207.299 39.952 207.522 39.745C207.745 39.538 208.015 39.375 208.333 39.256C208.651 39.136 209.007 39.077 209.399 39.077C209.818 39.077 210.195 39.139 210.529 39.264C210.863 39.389 211.146 39.562 211.376 39.785C211.606 40.008 211.783 40.275 211.905 40.585C212.027 40.895 212.088 41.233 212.088 41.599H211.205C211.205 41.376 211.165 41.163 211.085 40.958C211.006 40.754 210.889 40.574 210.735 40.417C210.581 40.261 210.393 40.136 210.17 40.043C209.947 39.95 209.69 39.904 209.398 39.904C209.095 39.904 208.838 39.945 208.626 40.027C208.413 40.109 208.239 40.218 208.101 40.353C207.963 40.489 207.863 40.643 207.799 40.814C207.735 40.987 207.704 41.16 207.704 41.335C207.704 41.51 207.731 41.665 207.783 41.8C207.836 41.935 207.933 42.066 208.074 42.194C208.214 42.321 208.404 42.453 208.643 42.588C208.882 42.723 209.189 42.881 209.566 43.061C209.964 43.236 210.322 43.406 210.64 43.57C210.959 43.735 211.228 43.916 211.448 44.115C211.668 44.313 211.838 44.538 211.957 44.787C212.076 45.036 212.136 45.334 212.136 45.678C212.136 46.033 212.072 46.354 211.945 46.641C211.818 46.927 211.636 47.171 211.4 47.373C211.164 47.574 210.88 47.729 210.549 47.838C210.217 47.946 209.85 48.001 209.447 48.001C208.98 48.001 208.569 47.933 208.213 47.798C207.858 47.662 207.559 47.481 207.318 47.253C207.077 47.025 206.894 46.76 206.769 46.457C206.644 46.154 206.582 45.834 206.582 45.494H207.473C207.489 45.833 207.559 46.112 207.684 46.329C207.808 46.546 207.964 46.719 208.149 46.846C208.334 46.973 208.542 47.061 208.77 47.108C208.998 47.156 209.224 47.18 209.446 47.18C209.738 47.18 209.996 47.142 210.222 47.065C210.447 46.988 210.635 46.885 210.787 46.755C210.938 46.625 211.052 46.471 211.129 46.294C211.207 46.119 211.245 45.929 211.245 45.728Z" fill="#4F4F4F"/>
<path d="M14.4223 28.775C6.5803 28.775 0.15332 22.388 0.15332 14.506C0.15332 6.62398 6.5803 0.237 14.4223 0.237C18.5453 0.237 22.4663 2.01501 25.1743 5.08801C25.6593 5.65401 25.5783 6.46298 25.0533 6.90698C24.5273 7.39198 23.7193 7.35097 23.2333 6.78497C21.0103 4.23897 17.8173 2.784 14.4213 2.784C7.99433 2.784 2.73932 8.03898 2.73932 14.506C2.73932 20.933 7.99433 26.188 14.4213 26.188C17.6553 26.188 20.7273 24.854 22.9093 22.55V16.81H15.4313C14.7043 16.81 14.1373 16.244 14.1373 15.516C14.1373 14.788 14.7043 14.223 15.4313 14.223H24.2033C24.9313 14.223 25.4973 14.789 25.4973 15.516V23.035C25.4973 23.358 25.3763 23.641 25.1743 23.884C22.4663 26.996 18.5453 28.775 14.4223 28.775Z" fill="#4F4F4F"/>
<path d="M41.7896 28.775C35.4836 28.775 30.3496 23.641 30.3496 17.295V1.53003C30.3496 0.802029 30.9166 0.236023 31.6026 0.236023C32.3306 0.236023 32.8966 0.802029 32.8966 1.53003V17.294C32.8966 22.226 36.8986 26.187 41.7896 26.187C46.7216 26.187 50.6826 22.226 50.6826 17.294V1.53003C50.6826 0.802029 51.2486 0.236023 51.9756 0.236023C52.7036 0.236023 53.2696 0.802029 53.2696 1.53003V17.294C53.2706 23.641 48.1366 28.775 41.7896 28.775Z" fill="#4F4F4F"/>
<path d="M59.2139 28.775C58.4859 28.775 57.9199 28.209 57.9199 27.481V1.53003C57.9199 0.802029 58.4859 0.236023 59.2139 0.236023C59.9409 0.236023 60.507 0.802029 60.507 1.53003V27.481C60.507 28.209 59.9409 28.775 59.2139 28.775Z" fill="#4F4F4F"/>
<path d="M72.9982 28.775H66.4492C65.7212 28.775 65.1562 28.209 65.1562 27.481V1.53003C65.1562 0.802029 65.7222 0.236023 66.4492 0.236023H72.9982C80.8802 0.236023 87.2673 6.623 87.2673 14.505C87.2673 22.387 80.8802 28.775 72.9982 28.775ZM67.7422 26.188H72.9973C79.4643 26.188 84.7192 20.933 84.7192 14.506C84.7192 8.03898 79.4643 2.784 72.9973 2.784H67.7422V26.188Z" fill="#4F4F4F"/>
<path d="M111.238 27.481C111.238 28.209 110.632 28.775 109.945 28.775H93.0078C92.2798 28.775 91.7148 28.209 91.7148 27.481V1.53003C91.7148 0.802029 92.2808 0.236023 93.0078 0.236023H109.945C110.632 0.236023 111.238 0.802029 111.238 1.53003C111.238 2.21703 110.632 2.78302 109.945 2.78302H94.3008V12.605H105.579C106.267 12.605 106.873 13.171 106.873 13.858C106.873 14.586 106.267 15.152 105.579 15.152H94.3008V26.187H109.945C110.632 26.188 111.238 26.794 111.238 27.481Z" fill="#4F4F4F"/>
<path d="M135.776 10.625C135.776 16.324 131.168 20.932 125.509 20.932H119.971V26.389C119.971 27.723 118.92 28.774 117.627 28.774C116.334 28.774 115.283 27.723 115.283 26.389V2.70203C115.283 1.40803 116.334 0.356995 117.627 0.356995H125.509C131.168 0.356995 135.776 4.966 135.776 10.625ZM131.087 10.625C131.087 7.553 128.581 5.08698 125.509 5.08698H119.971V16.203H125.509C128.581 16.203 131.087 13.737 131.087 10.625Z" fill="#4F4F4F"/>
<path d="M153.2 28.775C145.358 28.775 139.012 22.429 139.012 14.587C139.012 6.78498 145.358 0.398987 153.2 0.398987C161.002 0.398987 167.388 6.78597 167.388 14.587C167.389 22.428 161.002 28.775 153.2 28.775ZM153.2 5.08698C147.945 5.08698 143.701 9.372 143.701 14.586C143.701 19.841 147.945 24.085 153.2 24.085C158.414 24.085 162.699 19.841 162.699 14.586C162.7 9.372 158.415 5.08698 153.2 5.08698Z" fill="#4F4F4F"/>
<path d="M179.88 28.775C176.323 28.775 174.181 27.279 172.968 26.067C171.473 24.49 170.624 22.388 170.624 20.246C170.624 18.952 171.675 17.902 172.968 17.902C174.262 17.902 175.312 18.953 175.312 20.246C175.312 21.661 176.282 24.086 179.88 24.086C183.478 24.086 184.448 21.661 184.448 20.246C184.448 18.103 183.276 17.457 179.315 16.325C177.536 15.8 175.717 15.274 174.221 14.223C172.2 12.848 171.19 10.908 171.19 8.40198C171.19 6.38098 171.998 4.40001 173.373 2.94501C174.505 1.77301 176.566 0.398987 179.881 0.398987C183.236 0.398987 185.257 1.77301 186.389 2.94501C187.804 4.40101 188.612 6.38098 188.612 8.40198C188.612 9.69498 187.561 10.746 186.227 10.746C184.934 10.746 183.883 9.69498 183.883 8.40198C183.883 7.18898 183.034 5.08698 179.881 5.08698C176.728 5.08698 175.879 7.18898 175.879 8.40198C175.879 9.97898 176.486 10.585 180.609 11.798C182.468 12.323 184.408 12.889 185.985 14.021C188.087 15.477 189.138 17.578 189.138 20.246C189.138 22.388 188.289 24.49 186.794 26.067C185.62 27.279 183.437 28.775 179.88 28.775Z" fill="#4F4F4F"/>
<path d="M213.027 2.742C213.027 4.036 211.976 5.086 210.683 5.086H204.256V26.429C204.256 27.722 203.205 28.773 201.871 28.773C200.577 28.773 199.527 27.722 199.527 26.429V5.086H193.1C191.806 5.086 190.755 4.035 190.755 2.742C190.755 1.449 191.806 0.39801 193.1 0.39801H210.683C211.976 0.39801 213.027 1.449 213.027 2.742Z" fill="#4F4F4F"/>
</svg>
