<svg width="105" height="43" viewBox="0 0 105 43" fill="none" xmlns="http://www.w3.org/2000/svg">
<path d="M65.6826 35.843C57.8736 35.843 51.4736 29.483 51.4736 21.634C51.4736 13.785 57.8736 7.42499 65.6826 7.42499C69.7886 7.42499 73.6926 9.196 76.3896 12.255C76.8726 12.819 76.7926 13.624 76.2686 14.066C75.7456 14.549 74.9406 14.509 74.4576 13.945C72.2436 11.409 69.0636 9.96002 65.6826 9.96002C59.2826 9.96002 54.0496 15.193 54.0496 21.633C54.0496 28.033 59.2826 33.266 65.6826 33.266C68.9026 33.266 71.9616 31.938 74.1356 29.643V23.927H66.6886C65.9636 23.927 65.4006 23.363 65.4006 22.639C65.4006 21.915 65.9646 21.351 66.6886 21.351H75.4236C76.1486 21.351 76.7116 21.915 76.7116 22.639V30.126C76.7116 30.448 76.5906 30.73 76.3896 30.971C73.6936 34.072 69.7886 35.843 65.6826 35.843Z" fill="#1B708A"/>
<path d="M104.326 17.77C104.326 23.446 99.737 28.034 94.102 28.034H88.587V33.468C88.587 34.796 87.54 35.843 86.252 35.843C84.964 35.843 83.917 34.796 83.917 33.468V9.88C83.917 8.592 84.964 7.54498 86.252 7.54498H94.101C99.737 7.54598 104.326 12.134 104.326 17.77ZM99.656 17.77C99.656 14.711 97.16 12.255 94.101 12.255H88.586V23.324H94.101C97.161 23.325 99.656 20.869 99.656 17.77Z" fill="#1B708A"/>
<path d="M20.9547 41.709C31.9452 41.709 40.8547 32.7995 40.8547 21.809C40.8547 10.8186 31.9452 1.909 20.9547 1.909C9.96423 1.909 1.05469 10.8186 1.05469 21.809C1.05469 32.7995 9.96423 41.709 20.9547 41.709Z" fill="#E5E5E5"/>
<path d="M14.9961 18.06L19.0711 20.412V7.34198L14.9961 4.78101V18.06Z" fill="#4FB0BB"/>
<path d="M33.6511 25.067L20.9541 32.283V37.998L29.2721 33.049V33.066L33.1231 30.832V30.805L35.3521 27.545L33.6511 25.067Z" fill="#1B708A"/>
<path d="M6.89648 21.137L9.47348 24.686L15.5845 28.204V40.974C16.7095 41.289 17.8755 41.506 19.0725 41.619V30.212V29.033V23.061L9.47348 17.562L6.89648 21.137Z" fill="#4FB0BB"/>
<path d="M20.9546 42.744C9.41056 42.744 0.0185547 33.352 0.0185547 21.808C0.0185547 10.264 9.41056 0.872009 20.9546 0.872009C32.4986 0.872009 41.8906 10.264 41.8906 21.808C41.8906 22.351 41.8696 22.89 41.8286 23.423C41.0016 34.216 31.9556 42.744 20.9546 42.744ZM20.9546 2.94501C10.5536 2.94501 2.09155 11.407 2.09155 21.808C2.09155 32.209 10.5536 40.671 20.9546 40.671C31.3556 40.671 39.8176 32.209 39.8176 21.808C39.8176 11.407 31.3556 2.94501 20.9546 2.94501Z" fill="#1B708A"/>
<path d="M20.9543 41.683C21.2843 41.699 20.6203 41.708 20.9543 41.708C22.0013 41.708 23.0293 41.627 24.0333 41.471V37.772L20.9543 39.476V41.683Z" fill="#1B708A"/>
<g opacity="0.1">
<path opacity="0.1" d="M41.8785 22.335L26.6735 7.67499H20.9545V17.562V19.179V30.954L20.9385 42.744C20.9385 42.744 25.2485 42.941 29.9145 40.735C31.9735 39.762 34.1925 38.273 36.2555 36.061C42.2095 29.678 41.8785 22.335 41.8785 22.335Z" fill="#414042"/>
</g>
<path d="M26.6731 7.67499H20.9541V11.421L26.6731 11.245V7.67499Z" fill="#4FB0BB"/>
<path d="M44.2101 11.612L20.9541 13.295V30.344L24.0321 28.601V19.178L44.2101 20.883L47.4971 16.722L44.2101 11.612Z" fill="#D83830"/>
</svg>
