<svg width="105" height="43" viewBox="0 0 105 43" fill="none" xmlns="http://www.w3.org/2000/svg">
<path d="M66.1016 35.843C58.2926 35.843 51.8926 29.483 51.8926 21.634C51.8926 13.785 58.2926 7.42499 66.1016 7.42499C70.2076 7.42499 74.1115 9.196 76.8085 12.255C77.2915 12.819 77.2116 13.624 76.6876 14.066C76.1646 14.549 75.3595 14.509 74.8765 13.945C72.6625 11.409 69.4826 9.96002 66.1016 9.96002C59.7016 9.96002 54.4686 15.193 54.4686 21.633C54.4686 28.033 59.7016 33.266 66.1016 33.266C69.3216 33.266 72.3806 31.938 74.5546 29.643V23.927H67.1075C66.3825 23.927 65.8195 23.363 65.8195 22.639C65.8195 21.915 66.3835 21.351 67.1075 21.351H75.8425C76.5675 21.351 77.1306 21.915 77.1306 22.639V30.126C77.1306 30.448 77.0095 30.73 76.8085 30.971C74.1125 34.072 70.2076 35.843 66.1016 35.843Z" fill="#4F4F4F"/>
<path d="M104.744 17.77C104.744 23.446 100.155 28.034 94.52 28.034H89.005V33.468C89.005 34.796 87.958 35.843 86.67 35.843C85.382 35.843 84.335 34.796 84.335 33.468V9.88C84.335 8.592 85.382 7.54498 86.67 7.54498H94.519C100.156 7.54598 104.744 12.134 104.744 17.77ZM100.075 17.77C100.075 14.711 97.579 12.255 94.52 12.255H89.005V23.324H94.52C97.579 23.325 100.075 20.869 100.075 17.77Z" fill="#4F4F4F"/>
<path d="M21.3736 41.709C32.3641 41.709 41.2736 32.7995 41.2736 21.809C41.2736 10.8186 32.3641 1.909 21.3736 1.909C10.3831 1.909 1.47363 10.8186 1.47363 21.809C1.47363 32.7995 10.3831 41.709 21.3736 41.709Z" fill="#E5E5E5"/>
<path d="M15.415 18.06L19.4901 20.412V7.34198L15.415 4.78101V18.06Z" fill="#4FB0BB"/>
<path d="M34.0701 25.067L21.373 32.283V37.998L29.691 33.049V33.066L33.5411 30.832V30.805L35.7711 27.545L34.0701 25.067Z" fill="#1B708A"/>
<path d="M7.31543 21.137L9.89246 24.686L16.0034 28.204V40.974C17.1284 41.289 18.2945 41.506 19.4915 41.619V30.212V29.033V23.061L9.89246 17.562L7.31543 21.137Z" fill="#4FB0BB"/>
<path d="M21.3735 42.744C9.82947 42.744 0.4375 33.352 0.4375 21.808C0.4375 10.264 9.82947 0.872009 21.3735 0.872009C32.9175 0.872009 42.3095 10.264 42.3095 21.808C42.3095 22.351 42.2885 22.89 42.2475 23.423C41.4205 34.216 32.3735 42.744 21.3735 42.744ZM21.3735 2.94501C10.9725 2.94501 2.5105 11.407 2.5105 21.808C2.5105 32.209 10.9725 40.671 21.3735 40.671C31.7745 40.671 40.2365 32.209 40.2365 21.808C40.2365 11.407 31.7745 2.94501 21.3735 2.94501Z" fill="#1B708A"/>
<path d="M21.3732 41.683C21.7032 41.699 21.0392 41.708 21.3732 41.708C22.4202 41.708 23.4482 41.627 24.4522 41.471V37.772L21.3732 39.476V41.683Z" fill="#1B708A"/>
<g opacity="0.1">
<path opacity="0.1" d="M42.2964 22.335L27.0914 7.67499H21.3724V17.562V19.179V30.954L21.3564 42.744C21.3564 42.744 25.6664 42.941 30.3324 40.735C32.3914 39.762 34.6104 38.273 36.6734 36.061C42.6284 29.678 42.2964 22.335 42.2964 22.335Z" fill="#414042"/>
</g>
<path d="M27.0911 7.67499H21.373V11.421L27.0911 11.245V7.67499Z" fill="#4FB0BB"/>
<path d="M44.6291 11.612L21.373 13.295V30.344L24.451 28.601V19.178L44.6291 20.883L47.9161 16.722L44.6291 11.612Z" fill="#D83830"/>
</svg>
