<svg width="214" height="52" viewBox="0 0 214 52" fill="none" xmlns="http://www.w3.org/2000/svg">
<path d="M1.39551 36.88C1.39551 36.7 1.44551 36.546 1.54651 36.419C1.64751 36.292 1.79056 36.228 1.97656 36.228C2.16156 36.228 2.30652 36.291 2.41052 36.419C2.51352 36.546 2.56555 36.7 2.56555 36.88C2.56555 37.06 2.51352 37.213 2.41052 37.338C2.30652 37.462 2.16256 37.525 1.97656 37.525C1.79056 37.525 1.64751 37.463 1.54651 37.338C1.44551 37.213 1.39551 37.06 1.39551 36.88ZM2.41345 47.971H1.52246V39.363H2.41345V47.971Z" fill="white"/>
<path d="M6.59583 39.362L6.61987 40.73C6.87487 40.263 7.19885 39.892 7.59485 39.616C7.98985 39.34 8.43985 39.202 8.94385 39.202C9.30485 39.202 9.62691 39.261 9.90991 39.377C10.1939 39.494 10.4349 39.679 10.6339 39.934C10.8319 40.189 10.9858 40.516 11.0908 40.916C11.1978 41.316 11.2509 41.801 11.2509 42.368V47.969H10.3759V42.36C10.3759 41.919 10.3369 41.551 10.2609 41.254C10.1829 40.957 10.0739 40.72 9.93091 40.542C9.78791 40.364 9.61391 40.237 9.40991 40.16C9.20591 40.083 8.97583 40.045 8.72083 40.045C8.45583 40.045 8.21292 40.099 7.99292 40.208C7.77292 40.316 7.5759 40.461 7.3999 40.641C7.2249 40.822 7.0739 41.028 6.9469 41.262C6.8199 41.495 6.71584 41.739 6.63684 41.994V47.969H5.75391V39.361H6.59583V39.362Z" fill="white"/>
<path d="M14.1749 43.269C14.1749 42.548 14.2399 41.931 14.3699 41.419C14.4999 40.907 14.6869 40.487 14.9309 40.158C15.1749 39.829 15.4699 39.588 15.8179 39.434C16.1649 39.28 16.5539 39.203 16.9829 39.203C17.4979 39.203 17.9339 39.318 18.2919 39.549C18.6499 39.779 18.9429 40.102 19.1709 40.515V35.75H20.0538V47.97H19.2258L19.1859 46.864C18.9579 47.262 18.6628 47.572 18.2988 47.795C17.9358 48.018 17.4939 48.13 16.9739 48.13C16.5449 48.13 16.1579 48.049 15.8129 47.887C15.4679 47.725 15.1748 47.477 14.9338 47.143C14.6928 46.809 14.5059 46.387 14.3729 45.878C14.2399 45.369 14.1738 44.767 14.1738 44.072V43.269H14.1749ZM15.0748 44.072C15.0748 45.175 15.2409 45.987 15.5719 46.507C15.9039 47.027 16.4299 47.287 17.1509 47.287C17.4109 47.287 17.6459 47.254 17.8549 47.187C18.0649 47.121 18.2529 47.028 18.4199 46.909C18.5869 46.79 18.7309 46.649 18.8529 46.487C18.9749 46.325 19.0819 46.149 19.1719 45.958V41.494C19.0929 41.303 18.9939 41.12 18.8779 40.945C18.7609 40.77 18.6218 40.617 18.4598 40.487C18.2978 40.357 18.1099 40.252 17.8949 40.173C17.6809 40.093 17.4349 40.053 17.1589 40.053C16.4329 40.053 15.9039 40.314 15.5719 40.837C15.2409 41.359 15.0748 42.17 15.0748 43.268V44.072V44.072Z" fill="white"/>
<path d="M26.1777 48.13C25.7007 48.13 25.2627 48.052 24.8647 47.895C24.4667 47.739 24.1237 47.5 23.8347 47.179C23.5457 46.858 23.3217 46.454 23.1627 45.966C23.0037 45.478 22.9248 44.9 22.9248 44.232V43.253C22.9248 42.532 23.0088 41.915 23.1798 41.403C23.3488 40.891 23.5757 40.472 23.8597 40.146C24.1437 39.82 24.4728 39.581 24.8468 39.43C25.2208 39.279 25.6148 39.203 26.0288 39.203C26.9728 39.203 27.6908 39.515 28.1808 40.138C28.6718 40.761 28.9167 41.715 28.9167 42.998V43.746H23.8018V44.231C23.8018 44.756 23.8608 45.212 23.9768 45.599C24.0938 45.986 24.2577 46.307 24.4697 46.562C24.6827 46.816 24.9368 47.006 25.2338 47.13C25.5308 47.255 25.8597 47.317 26.2207 47.317C26.6667 47.317 27.0538 47.241 27.3828 47.09C27.7108 46.939 28.0117 46.704 28.2817 46.386L28.7428 46.975C28.6258 47.134 28.4898 47.282 28.3328 47.42C28.1758 47.558 27.9938 47.68 27.7838 47.786C27.5738 47.892 27.3368 47.976 27.0718 48.037C26.8038 48.099 26.5067 48.13 26.1777 48.13ZM26.0267 40.03C25.7137 40.03 25.4267 40.083 25.1637 40.189C24.9017 40.295 24.6737 40.464 24.4797 40.694C24.2857 40.925 24.1308 41.223 24.0138 41.589C23.8978 41.955 23.8287 42.398 23.8077 42.918H28.0317V42.687C28.0207 42.268 27.9738 41.894 27.8888 41.565C27.8038 41.236 27.6808 40.958 27.5188 40.73C27.3568 40.502 27.1517 40.328 26.9027 40.209C26.6527 40.09 26.3607 40.03 26.0267 40.03Z" fill="white"/>
<path d="M37.5605 44.072C37.5605 44.767 37.4985 45.369 37.3735 45.878C37.2485 46.387 37.0695 46.809 36.8365 47.143C36.6025 47.477 36.3145 47.725 35.9695 47.887C35.6245 48.049 35.2346 48.13 34.7996 48.13C34.2796 48.13 33.8356 48.025 33.4666 47.816C33.0976 47.606 32.7965 47.313 32.5635 46.937V51.281H31.6885V39.363H32.5005L32.5405 40.541C32.7785 40.122 33.0815 39.794 33.4475 39.558C33.8135 39.322 34.2565 39.204 34.7765 39.204C35.2215 39.204 35.6175 39.281 35.9625 39.435C36.3075 39.589 36.5985 39.83 36.8375 40.159C37.0765 40.488 37.2565 40.908 37.3785 41.42C37.5005 41.932 37.5615 42.549 37.5615 43.27V44.072H37.5605ZM36.6775 43.269C36.6775 42.166 36.5066 41.354 36.1646 40.834C35.8226 40.314 35.2885 40.054 34.5615 40.054C34.2905 40.054 34.0485 40.093 33.8335 40.17C33.6185 40.246 33.4306 40.352 33.2686 40.484C33.1066 40.617 32.9685 40.768 32.8545 40.937C32.7405 41.107 32.6435 41.287 32.5645 41.478V46.013C32.6495 46.198 32.7535 46.371 32.8785 46.53C33.0025 46.689 33.1475 46.827 33.3125 46.943C33.4765 47.06 33.6635 47.15 33.8735 47.214C34.0825 47.277 34.3175 47.309 34.5775 47.309C35.2935 47.309 35.8226 47.045 36.1646 46.517C36.5066 45.989 36.6775 45.174 36.6775 44.07V43.269V43.269Z" fill="white"/>
<path d="M43.3496 48.13C42.8726 48.13 42.4346 48.052 42.0376 47.895C41.6396 47.739 41.2957 47.5 41.0077 47.179C40.7177 46.858 40.4947 46.454 40.3357 45.966C40.1767 45.478 40.0967 44.9 40.0967 44.232V43.253C40.0967 42.532 40.1817 41.915 40.3517 41.403C40.5217 40.891 40.7476 40.472 41.0316 40.146C41.3156 39.82 41.6447 39.581 42.0187 39.43C42.3927 39.279 42.7866 39.203 43.1996 39.203C44.1436 39.203 44.8617 39.515 45.3517 40.138C45.8427 40.761 46.0876 41.715 46.0876 42.998V43.746H40.9727V44.231C40.9727 44.756 41.0306 45.212 41.1476 45.599C41.2646 45.986 41.4286 46.307 41.6406 46.562C41.8526 46.816 42.1077 47.006 42.4047 47.13C42.7017 47.255 43.0306 47.317 43.3916 47.317C43.8366 47.317 44.2236 47.241 44.5536 47.09C44.8826 46.939 45.1816 46.704 45.4526 46.386L45.9147 46.975C45.7977 47.134 45.6606 47.282 45.5046 47.42C45.3476 47.558 45.1647 47.68 44.9557 47.786C44.7457 47.892 44.5087 47.976 44.2437 48.037C43.9757 48.099 43.6786 48.13 43.3496 48.13ZM43.1986 40.03C42.8856 40.03 42.5987 40.083 42.3357 40.189C42.0737 40.295 41.8446 40.464 41.6506 40.694C41.4566 40.925 41.3017 41.223 41.1857 41.589C41.0687 41.955 40.9996 42.398 40.9786 42.918H45.2036V42.687C45.1926 42.268 45.1447 41.894 45.0607 41.565C44.9757 41.236 44.8527 40.958 44.6907 40.73C44.5287 40.502 44.3226 40.328 44.0736 40.209C43.8246 40.09 43.5326 40.03 43.1986 40.03Z" fill="white"/>
<path d="M49.7034 39.362L49.7274 40.73C49.9824 40.263 50.3064 39.892 50.7014 39.616C51.0964 39.34 51.5464 39.202 52.0504 39.202C52.4104 39.202 52.7334 39.261 53.0164 39.377C53.3004 39.494 53.5414 39.679 53.7404 39.934C53.9384 40.189 54.0914 40.516 54.1974 40.916C54.3034 41.316 54.3564 41.801 54.3564 42.368V47.969H53.4814V42.36C53.4814 41.919 53.4424 41.551 53.3654 41.254C53.2884 40.957 53.1784 40.72 53.0354 40.542C52.8924 40.364 52.7184 40.237 52.5144 40.16C52.3104 40.083 52.0814 40.045 51.8264 40.045C51.5614 40.045 51.3184 40.099 51.0984 40.208C50.8784 40.316 50.6814 40.461 50.5054 40.641C50.3304 40.822 50.1794 41.028 50.0514 41.262C49.9244 41.495 49.8203 41.739 49.7413 41.994V47.969H48.8584V39.361H49.7034V39.362Z" fill="white"/>
<path d="M57.2832 43.269C57.2832 42.548 57.3481 41.931 57.4781 41.419C57.6081 40.907 57.7952 40.487 58.0392 40.158C58.2832 39.829 58.5791 39.588 58.9271 39.434C59.2741 39.28 59.6632 39.203 60.0922 39.203C60.6062 39.203 61.0431 39.318 61.4011 39.549C61.7591 39.779 62.0522 40.102 62.2802 40.515V35.75H63.1631V47.97H62.3352L62.2952 46.864C62.0662 47.262 61.7712 47.572 61.4082 47.795C61.0442 48.018 60.6031 48.13 60.0831 48.13C59.6531 48.13 59.2661 48.049 58.9211 47.887C58.5761 47.725 58.2831 47.477 58.0421 47.143C57.8001 46.809 57.6142 46.387 57.4812 45.878C57.3482 45.369 57.2832 44.767 57.2832 44.072V43.269V43.269ZM58.1812 44.072C58.1812 45.175 58.3472 45.987 58.6792 46.507C59.0102 47.027 59.5372 47.287 60.2582 47.287C60.5182 47.287 60.7522 47.254 60.9622 47.187C61.1712 47.121 61.3601 47.028 61.5271 46.909C61.6941 46.79 61.8392 46.649 61.9612 46.487C62.0832 46.325 62.1892 46.149 62.2792 45.958V41.494C62.1992 41.303 62.1011 41.12 61.9851 40.945C61.8681 40.77 61.7291 40.617 61.5671 40.487C61.4051 40.357 61.2172 40.252 61.0022 40.173C60.7872 40.093 60.5421 40.053 60.2661 40.053C59.5391 40.053 59.0102 40.314 58.6792 40.837C58.3472 41.359 58.1812 42.17 58.1812 43.268V44.072V44.072Z" fill="white"/>
<path d="M69.2863 48.13C68.8093 48.13 68.3713 48.052 67.9733 47.895C67.5753 47.739 67.2322 47.5 66.9432 47.179C66.6542 46.858 66.4302 46.454 66.2712 45.966C66.1122 45.478 66.0322 44.9 66.0322 44.232V43.253C66.0322 42.532 66.1172 41.915 66.2872 41.403C66.4562 40.891 66.6833 40.472 66.9673 40.146C67.2513 39.82 67.5792 39.581 67.9542 39.43C68.3282 39.279 68.7212 39.203 69.1362 39.203C70.0802 39.203 70.7972 39.515 71.2882 40.138C71.7792 40.761 72.0243 41.715 72.0243 42.998V43.746H66.9083V44.231C66.9083 44.756 66.9673 45.212 67.0833 45.599C67.2003 45.986 67.3643 46.307 67.5763 46.562C67.7893 46.816 68.0432 47.006 68.3402 47.13C68.6372 47.255 68.9653 47.317 69.3273 47.317C69.7733 47.317 70.1603 47.241 70.4893 47.09C70.8183 46.939 71.1173 46.704 71.3883 46.386L71.8492 46.975C71.7332 47.134 71.5962 47.282 71.4392 47.42C71.2832 47.558 71.1003 47.68 70.8903 47.786C70.6813 47.892 70.4442 47.976 70.1782 48.037C69.9112 48.099 69.6143 48.13 69.2863 48.13ZM69.1353 40.03C68.8223 40.03 68.5342 40.083 68.2712 40.189C68.0092 40.295 67.7813 40.464 67.5873 40.694C67.3933 40.925 67.2382 41.223 67.1212 41.589C67.0042 41.955 66.9353 42.398 66.9143 42.918H71.1393V42.687C71.1283 42.268 71.0812 41.894 70.9962 41.565C70.9112 41.236 70.7882 40.958 70.6262 40.73C70.4642 40.502 70.2593 40.328 70.0103 40.209C69.7603 40.09 69.4693 40.03 69.1353 40.03Z" fill="white"/>
<path d="M75.6399 39.362L75.6638 40.73C75.9188 40.263 76.2429 39.892 76.6389 39.616C77.0339 39.34 77.4839 39.202 77.9879 39.202C78.3489 39.202 78.6709 39.261 78.9539 39.377C79.2379 39.494 79.4789 39.679 79.6779 39.934C79.8759 40.189 80.0299 40.516 80.1349 40.916C80.2419 41.316 80.2949 41.801 80.2949 42.368V47.969H79.4199V42.36C79.4199 41.919 79.3809 41.551 79.3049 41.254C79.2269 40.957 79.1179 40.72 78.9749 40.542C78.8319 40.364 78.6579 40.237 78.4539 40.16C78.2499 40.083 78.0199 40.045 77.7649 40.045C77.4999 40.045 77.2569 40.099 77.0369 40.208C76.8169 40.316 76.6198 40.461 76.4438 40.641C76.2688 40.822 76.1178 41.028 75.9908 41.262C75.8638 41.495 75.7599 41.739 75.6809 41.994V47.969H74.7979V39.361H75.6399V39.362Z" fill="white"/>
<path d="M84.8662 37.166V39.362H86.3383V40.158H84.8662V45.878C84.8662 46.175 84.8913 46.415 84.9423 46.598C84.9923 46.781 85.0603 46.923 85.1443 47.024C85.2293 47.125 85.3263 47.192 85.4353 47.227C85.5443 47.261 85.6592 47.278 85.7812 47.278C85.8982 47.278 86.0123 47.269 86.1233 47.25C86.2343 47.231 86.3322 47.214 86.4172 47.198L86.4413 47.994C86.3463 48.037 86.2202 48.07 86.0632 48.094C85.9072 48.118 85.7432 48.13 85.5742 48.13C85.3462 48.13 85.1353 48.093 84.9423 48.019C84.7483 47.944 84.5803 47.82 84.4373 47.645C84.2943 47.47 84.1823 47.238 84.1033 46.949C84.0243 46.66 83.9843 46.3 83.9843 45.871V40.159H82.6553V39.363H83.9843V37.167H84.8662V37.166Z" fill="white"/>
<path d="M96.4364 47.31C96.6804 47.31 96.9164 47.278 97.1444 47.215C97.3734 47.152 97.5754 47.043 97.7534 46.889C97.9304 46.735 98.0764 46.53 98.1914 46.273C98.3054 46.016 98.3704 45.693 98.3864 45.306H99.2374C99.2164 45.767 99.1293 46.175 98.9753 46.528C98.8213 46.88 98.6174 47.175 98.3624 47.411C98.1084 47.647 97.8164 47.826 97.4874 47.948C97.1584 48.07 96.8084 48.131 96.4374 48.131C95.4034 48.131 94.6244 47.796 94.1024 47.128C93.5794 46.46 93.3184 45.468 93.3184 44.153V43.182C93.3184 41.866 93.5794 40.875 94.1024 40.206C94.6244 39.538 95.4004 39.204 96.4294 39.204C96.8214 39.204 97.1864 39.266 97.5234 39.391C97.8604 39.516 98.1524 39.704 98.3984 39.956C98.6454 40.208 98.8423 40.526 98.9913 40.911C99.1403 41.295 99.2224 41.748 99.2374 42.267H98.3864C98.3704 41.869 98.3094 41.529 98.2034 41.245C98.0964 40.961 97.9584 40.729 97.7864 40.549C97.6134 40.369 97.4124 40.238 97.1814 40.155C96.9514 40.073 96.7004 40.032 96.4304 40.032C96.0214 40.032 95.6774 40.102 95.3964 40.243C95.1154 40.384 94.8874 40.589 94.7114 40.86C94.5364 41.131 94.4093 41.46 94.3293 41.851C94.2503 42.241 94.2094 42.685 94.2094 43.183V44.154C94.2094 44.658 94.2474 45.106 94.3254 45.499C94.4024 45.891 94.5274 46.221 94.7034 46.489C94.8784 46.757 95.1073 46.962 95.3923 47.102C95.6743 47.24 96.0234 47.31 96.4364 47.31Z" fill="white"/>
<path d="M105.378 40.19C105.287 40.174 105.199 40.161 105.111 40.15C105.023 40.14 104.927 40.134 104.821 40.134C104.561 40.134 104.326 40.18 104.117 40.273C103.907 40.366 103.723 40.496 103.564 40.663C103.405 40.83 103.268 41.03 103.154 41.264C103.04 41.497 102.951 41.752 102.887 42.028V47.971H102.004V39.363H102.872L102.888 40.652C103.085 40.201 103.344 39.847 103.668 39.59C103.991 39.333 104.389 39.204 104.862 39.204C104.957 39.204 105.058 39.215 105.164 39.236C105.27 39.257 105.347 39.281 105.394 39.308L105.378 40.19Z" fill="white"/>
<path d="M110.514 48.13C110.037 48.13 109.599 48.052 109.202 47.895C108.804 47.739 108.46 47.5 108.172 47.179C107.882 46.858 107.659 46.454 107.5 45.966C107.341 45.478 107.261 44.9 107.261 44.232V43.253C107.261 42.532 107.346 41.915 107.516 41.403C107.685 40.891 107.912 40.472 108.196 40.146C108.48 39.82 108.809 39.581 109.183 39.43C109.557 39.279 109.951 39.203 110.365 39.203C111.309 39.203 112.027 39.515 112.517 40.138C113.007 40.761 113.253 41.715 113.253 42.998V43.746H108.138V44.231C108.138 44.756 108.196 45.212 108.313 45.599C108.43 45.986 108.594 46.307 108.806 46.562C109.018 46.816 109.273 47.006 109.57 47.13C109.867 47.255 110.196 47.317 110.557 47.317C111.003 47.317 111.389 47.241 111.719 47.09C112.048 46.939 112.348 46.704 112.618 46.386L113.08 46.975C112.963 47.134 112.826 47.282 112.67 47.42C112.513 47.558 112.33 47.68 112.121 47.786C111.911 47.892 111.674 47.976 111.409 48.037C111.14 48.099 110.843 48.13 110.514 48.13ZM110.363 40.03C110.05 40.03 109.763 40.083 109.5 40.189C109.238 40.295 109.009 40.464 108.815 40.694C108.621 40.925 108.466 41.223 108.35 41.589C108.233 41.955 108.165 42.398 108.143 42.918H112.368V42.687C112.357 42.268 112.309 41.894 112.225 41.565C112.14 41.236 112.017 40.958 111.855 40.73C111.693 40.502 111.487 40.328 111.238 40.209C110.989 40.09 110.697 40.03 110.363 40.03Z" fill="white"/>
<path d="M120.576 47.971C120.533 47.828 120.498 47.649 120.472 47.434C120.445 47.219 120.426 47 120.416 46.777C120.305 46.958 120.172 47.129 120.018 47.29C119.865 47.452 119.688 47.595 119.489 47.72C119.291 47.845 119.069 47.944 118.825 48.019C118.581 48.093 118.319 48.13 118.038 48.13C117.683 48.13 117.36 48.079 117.071 47.978C116.782 47.877 116.534 47.726 116.327 47.525C116.12 47.324 115.961 47.071 115.85 46.769C115.739 46.466 115.683 46.114 115.683 45.711C115.683 45.313 115.752 44.946 115.89 44.609C116.028 44.272 116.233 43.981 116.506 43.737C116.779 43.493 117.12 43.302 117.529 43.164C117.938 43.026 118.412 42.957 118.953 42.957H120.408V41.756C120.408 41.141 120.256 40.699 119.951 40.431C119.646 40.163 119.199 40.029 118.61 40.029C118.334 40.029 118.081 40.072 117.85 40.156C117.619 40.241 117.422 40.359 117.257 40.51C117.092 40.661 116.965 40.842 116.875 41.051C116.785 41.261 116.74 41.49 116.74 41.739L115.857 41.731C115.857 41.397 115.923 41.077 116.056 40.772C116.189 40.467 116.377 40.198 116.621 39.965C116.865 39.732 117.159 39.546 117.504 39.408C117.848 39.27 118.231 39.201 118.65 39.201C119.037 39.201 119.391 39.247 119.712 39.34C120.033 39.433 120.31 39.581 120.544 39.785C120.778 39.989 120.959 40.254 121.089 40.581C121.219 40.907 121.284 41.304 121.284 41.771V46.163C121.284 46.312 121.289 46.465 121.3 46.624C121.31 46.783 121.325 46.938 121.344 47.089C121.363 47.24 121.386 47.383 121.416 47.519C121.445 47.654 121.478 47.772 121.515 47.873V47.968H120.576V47.971ZM118.15 47.278C118.426 47.278 118.684 47.24 118.926 47.163C119.167 47.086 119.383 46.98 119.574 46.845C119.765 46.71 119.931 46.552 120.071 46.371C120.211 46.191 120.324 45.997 120.409 45.79V43.697H119.08C118.247 43.697 117.622 43.872 117.202 44.222C116.783 44.572 116.574 45.044 116.574 45.638C116.574 46.206 116.713 46.621 116.992 46.883C117.27 47.147 117.656 47.278 118.15 47.278Z" fill="white"/>
<path d="M125.92 37.166V39.362H127.392V40.158H125.92V45.878C125.92 46.175 125.945 46.415 125.996 46.598C126.046 46.781 126.114 46.923 126.198 47.024C126.283 47.125 126.38 47.192 126.489 47.227C126.598 47.261 126.713 47.278 126.835 47.278C126.952 47.278 127.066 47.269 127.177 47.25C127.288 47.231 127.386 47.214 127.471 47.198L127.495 47.994C127.4 48.037 127.274 48.07 127.117 48.094C126.961 48.118 126.797 48.13 126.628 48.13C126.4 48.13 126.189 48.093 125.996 48.019C125.802 47.944 125.634 47.82 125.491 47.645C125.348 47.47 125.236 47.238 125.157 46.949C125.078 46.66 125.038 46.3 125.038 45.871V40.159H123.709V39.363H125.038V37.167H125.92V37.166Z" fill="white"/>
<path d="M130.181 36.88C130.181 36.7 130.231 36.546 130.333 36.419C130.434 36.292 130.577 36.228 130.762 36.228C130.948 36.228 131.092 36.291 131.196 36.419C131.3 36.546 131.351 36.7 131.351 36.88C131.351 37.06 131.3 37.213 131.196 37.338C131.092 37.463 130.948 37.525 130.762 37.525C130.577 37.525 130.434 37.463 130.333 37.338C130.232 37.213 130.181 37.06 130.181 36.88ZM131.199 47.971H130.308V39.363H131.199V47.971Z" fill="white"/>
<path d="M136.822 46.586L138.938 39.362H139.845L137.163 47.97H136.463L133.766 39.362H134.673L136.822 46.586Z" fill="white"/>
<path d="M145.085 48.13C144.608 48.13 144.17 48.052 143.773 47.895C143.375 47.739 143.031 47.5 142.743 47.179C142.453 46.858 142.23 46.454 142.071 45.966C141.912 45.478 141.832 44.9 141.832 44.232V43.253C141.832 42.532 141.917 41.915 142.087 41.403C142.257 40.891 142.483 40.472 142.767 40.146C143.051 39.82 143.38 39.581 143.754 39.43C144.128 39.279 144.522 39.203 144.935 39.203C145.879 39.203 146.597 39.515 147.087 40.138C147.577 40.761 147.823 41.715 147.823 42.998V43.746H142.708V44.231C142.708 44.756 142.766 45.212 142.883 45.599C143 45.986 143.164 46.307 143.376 46.562C143.588 46.816 143.843 47.006 144.14 47.13C144.437 47.255 144.766 47.317 145.127 47.317C145.572 47.317 145.959 47.241 146.289 47.09C146.618 46.939 146.917 46.704 147.188 46.386L147.65 46.975C147.533 47.134 147.396 47.282 147.24 47.42C147.083 47.558 146.9 47.68 146.691 47.786C146.481 47.892 146.244 47.976 145.979 48.037C145.711 48.099 145.414 48.13 145.085 48.13ZM144.934 40.03C144.621 40.03 144.334 40.083 144.071 40.189C143.809 40.295 143.58 40.464 143.386 40.694C143.192 40.925 143.037 41.223 142.921 41.589C142.804 41.955 142.735 42.398 142.714 42.918H146.939V42.687C146.928 42.268 146.88 41.894 146.796 41.565C146.711 41.236 146.588 40.958 146.426 40.73C146.264 40.502 146.058 40.328 145.809 40.209C145.56 40.09 145.268 40.03 144.934 40.03Z" fill="white"/>
<path d="M161.023 44.072C161.023 44.767 160.961 45.369 160.836 45.878C160.711 46.387 160.532 46.809 160.299 47.143C160.065 47.477 159.777 47.725 159.432 47.887C159.087 48.049 158.697 48.13 158.262 48.13C157.742 48.13 157.298 48.025 156.929 47.816C156.56 47.606 156.259 47.313 156.026 46.937V51.281H155.151V39.363H155.963L156.003 40.541C156.241 40.122 156.544 39.794 156.91 39.558C157.275 39.322 157.719 39.204 158.239 39.204C158.684 39.204 159.079 39.281 159.425 39.435C159.77 39.589 160.061 39.83 160.3 40.159C160.539 40.488 160.719 40.908 160.841 41.42C160.963 41.932 161.024 42.549 161.024 43.27V44.072H161.023ZM160.14 43.269C160.14 42.166 159.969 41.354 159.627 40.834C159.285 40.314 158.751 40.054 158.024 40.054C157.753 40.054 157.511 40.093 157.296 40.17C157.081 40.246 156.893 40.352 156.731 40.484C156.569 40.617 156.431 40.768 156.317 40.937C156.203 41.107 156.106 41.287 156.027 41.478V46.013C156.112 46.198 156.216 46.371 156.341 46.53C156.465 46.689 156.61 46.827 156.775 46.943C156.939 47.06 157.126 47.15 157.336 47.214C157.545 47.277 157.78 47.309 158.04 47.309C158.756 47.309 159.285 47.045 159.627 46.517C159.969 45.989 160.14 45.174 160.14 44.07V43.269V43.269Z" fill="white"/>
<path d="M168.524 47.971C168.481 47.828 168.446 47.649 168.42 47.434C168.393 47.219 168.374 47 168.364 46.777C168.253 46.958 168.12 47.129 167.966 47.29C167.812 47.452 167.636 47.595 167.437 47.72C167.239 47.845 167.017 47.944 166.773 48.019C166.529 48.093 166.267 48.13 165.986 48.13C165.631 48.13 165.308 48.079 165.019 47.978C164.73 47.877 164.482 47.726 164.275 47.525C164.068 47.324 163.909 47.071 163.798 46.769C163.687 46.466 163.631 46.114 163.631 45.711C163.631 45.313 163.7 44.946 163.838 44.609C163.976 44.272 164.181 43.981 164.454 43.737C164.727 43.493 165.068 43.302 165.477 43.164C165.886 43.026 166.36 42.957 166.901 42.957H168.357V41.756C168.357 41.141 168.205 40.699 167.9 40.431C167.595 40.163 167.148 40.029 166.559 40.029C166.283 40.029 166.03 40.072 165.799 40.156C165.568 40.241 165.37 40.359 165.206 40.51C165.041 40.661 164.914 40.842 164.823 41.051C164.733 41.261 164.688 41.49 164.688 41.739L163.805 41.731C163.805 41.397 163.871 41.077 164.004 40.772C164.137 40.467 164.325 40.198 164.569 39.965C164.813 39.732 165.107 39.546 165.452 39.408C165.796 39.27 166.179 39.201 166.598 39.201C166.985 39.201 167.339 39.247 167.66 39.34C167.981 39.433 168.258 39.581 168.492 39.785C168.726 39.989 168.907 40.254 169.037 40.581C169.167 40.907 169.232 41.304 169.232 41.771V46.163C169.232 46.312 169.237 46.465 169.248 46.624C169.258 46.783 169.273 46.938 169.292 47.089C169.311 47.24 169.334 47.383 169.364 47.519C169.393 47.654 169.426 47.772 169.463 47.873V47.968H168.524V47.971ZM166.097 47.278C166.373 47.278 166.631 47.24 166.873 47.163C167.114 47.086 167.33 46.98 167.521 46.845C167.712 46.71 167.878 46.552 168.018 46.371C168.158 46.191 168.271 45.997 168.356 45.79V43.697H167.027C166.194 43.697 165.569 43.872 165.149 44.222C164.73 44.572 164.521 45.044 164.521 45.638C164.521 46.206 164.66 46.621 164.939 46.883C165.218 47.147 165.604 47.278 166.097 47.278Z" fill="white"/>
<path d="M175.911 40.19C175.82 40.174 175.732 40.161 175.644 40.15C175.557 40.14 175.46 40.134 175.354 40.134C175.094 40.134 174.859 40.18 174.65 40.273C174.441 40.366 174.256 40.496 174.097 40.663C173.938 40.83 173.802 41.03 173.687 41.264C173.573 41.497 173.485 41.752 173.421 42.028V47.971H172.538V39.363H173.405L173.421 40.652C173.617 40.201 173.877 39.847 174.201 39.59C174.524 39.333 174.922 39.204 175.394 39.204C175.489 39.204 175.59 39.215 175.697 39.236C175.802 39.257 175.88 39.281 175.927 39.308L175.911 40.19Z" fill="white"/>
<path d="M180.086 37.166V39.362H181.558V40.158H180.086V45.878C180.086 46.175 180.111 46.415 180.162 46.598C180.212 46.781 180.28 46.923 180.364 47.024C180.449 47.125 180.546 47.192 180.655 47.227C180.764 47.261 180.879 47.278 181.001 47.278C181.118 47.278 181.232 47.269 181.343 47.25C181.454 47.231 181.552 47.214 181.637 47.198L181.661 47.994C181.566 48.037 181.44 48.07 181.283 48.094C181.127 48.118 180.963 48.13 180.794 48.13C180.566 48.13 180.355 48.093 180.162 48.019C179.968 47.944 179.8 47.82 179.657 47.645C179.514 47.47 179.402 47.238 179.323 46.949C179.244 46.66 179.204 46.3 179.204 45.871V40.159H177.875V39.363H179.204V37.167H180.086V37.166Z" fill="white"/>
<path d="M185.223 39.362L185.247 40.73C185.502 40.263 185.826 39.892 186.222 39.616C186.617 39.34 187.067 39.202 187.571 39.202C187.932 39.202 188.254 39.261 188.537 39.377C188.821 39.494 189.062 39.679 189.261 39.934C189.459 40.189 189.613 40.516 189.718 40.916C189.825 41.316 189.878 41.801 189.878 42.368V47.969H189.003V42.36C189.003 41.919 188.964 41.551 188.888 41.254C188.81 40.957 188.701 40.72 188.558 40.542C188.415 40.364 188.241 40.237 188.037 40.16C187.833 40.083 187.603 40.045 187.348 40.045C187.083 40.045 186.84 40.099 186.62 40.208C186.4 40.316 186.203 40.461 186.027 40.641C185.852 40.822 185.701 41.028 185.574 41.262C185.447 41.495 185.343 41.739 185.264 41.994V47.969H184.381V39.361H185.223V39.362Z" fill="white"/>
<path d="M195.96 48.13C195.483 48.13 195.045 48.052 194.647 47.895C194.249 47.739 193.906 47.5 193.617 47.179C193.328 46.858 193.104 46.454 192.945 45.966C192.786 45.478 192.707 44.9 192.707 44.232V43.253C192.707 42.532 192.791 41.915 192.962 41.403C193.131 40.891 193.358 40.472 193.642 40.146C193.926 39.82 194.255 39.581 194.629 39.43C195.003 39.279 195.397 39.203 195.81 39.203C196.754 39.203 197.472 39.515 197.962 40.138C198.453 40.761 198.698 41.715 198.698 42.998V43.746H193.583V44.231C193.583 44.756 193.642 45.212 193.758 45.599C193.875 45.986 194.039 46.307 194.251 46.562C194.464 46.816 194.718 47.006 195.015 47.13C195.312 47.255 195.641 47.317 196.002 47.317C196.447 47.317 196.835 47.241 197.164 47.09C197.492 46.939 197.793 46.704 198.063 46.386L198.524 46.975C198.407 47.134 198.271 47.282 198.114 47.42C197.958 47.558 197.775 47.68 197.565 47.786C197.355 47.892 197.118 47.976 196.853 48.037C196.586 48.099 196.289 48.13 195.96 48.13ZM195.809 40.03C195.496 40.03 195.209 40.083 194.946 40.189C194.684 40.295 194.455 40.464 194.262 40.694C194.068 40.925 193.913 41.223 193.796 41.589C193.68 41.955 193.611 42.398 193.59 42.918H197.814V42.687C197.803 42.268 197.756 41.894 197.671 41.565C197.586 41.236 197.463 40.958 197.301 40.73C197.139 40.502 196.933 40.328 196.685 40.209C196.434 40.09 196.143 40.03 195.809 40.03Z" fill="white"/>
<path d="M204.845 40.19C204.755 40.174 204.666 40.161 204.579 40.15C204.492 40.14 204.395 40.134 204.288 40.134C204.028 40.134 203.793 40.18 203.584 40.273C203.374 40.366 203.19 40.496 203.031 40.663C202.872 40.83 202.736 41.03 202.621 41.264C202.507 41.497 202.418 41.752 202.355 42.028V47.971H201.472V39.363H202.339L202.355 40.652C202.551 40.201 202.811 39.847 203.135 39.59C203.458 39.333 203.856 39.204 204.328 39.204C204.424 39.204 204.525 39.215 204.631 39.236C204.737 39.257 204.814 39.281 204.862 39.308L204.845 40.19Z" fill="white"/>
<path d="M211.597 45.854C211.597 45.679 211.564 45.515 211.498 45.361C211.431 45.208 211.323 45.059 211.172 44.916C211.021 44.773 210.821 44.627 210.574 44.478C210.327 44.33 210.022 44.171 209.656 44.001C209.263 43.826 208.912 43.658 208.604 43.496C208.297 43.334 208.038 43.159 207.828 42.971C207.619 42.783 207.459 42.571 207.348 42.334C207.237 42.098 207.181 41.818 207.181 41.494C207.181 41.176 207.239 40.878 207.359 40.599C207.479 40.321 207.65 40.078 207.873 39.871C208.096 39.664 208.366 39.501 208.685 39.382C209.003 39.262 209.357 39.203 209.75 39.203C210.169 39.203 210.546 39.265 210.88 39.39C211.214 39.515 211.498 39.688 211.728 39.911C211.958 40.134 212.134 40.401 212.256 40.711C212.378 41.021 212.439 41.359 212.439 41.725H211.557C211.557 41.502 211.517 41.289 211.437 41.084C211.358 40.88 211.241 40.7 211.088 40.543C210.934 40.387 210.745 40.262 210.522 40.169C210.299 40.076 210.042 40.03 209.75 40.03C209.447 40.03 209.191 40.071 208.979 40.153C208.766 40.235 208.591 40.344 208.453 40.479C208.315 40.615 208.215 40.769 208.151 40.94C208.087 41.113 208.057 41.286 208.057 41.461C208.057 41.636 208.083 41.791 208.135 41.926C208.188 42.061 208.286 42.192 208.427 42.32C208.567 42.447 208.756 42.579 208.995 42.714C209.234 42.849 209.541 43.007 209.918 43.187C210.316 43.362 210.675 43.532 210.993 43.696C211.312 43.861 211.581 44.042 211.801 44.241C212.021 44.44 212.191 44.664 212.31 44.913C212.429 45.162 212.489 45.46 212.489 45.804C212.489 46.159 212.424 46.48 212.297 46.767C212.17 47.053 211.989 47.297 211.753 47.499C211.517 47.7 211.232 47.855 210.901 47.964C210.569 48.072 210.203 48.127 209.8 48.127C209.333 48.127 208.922 48.059 208.566 47.924C208.211 47.788 207.912 47.607 207.671 47.379C207.43 47.151 207.246 46.886 207.121 46.583C206.996 46.28 206.935 45.96 206.935 45.62H207.826C207.842 45.959 207.911 46.238 208.036 46.455C208.16 46.672 208.316 46.845 208.501 46.972C208.687 47.099 208.895 47.187 209.123 47.234C209.351 47.282 209.576 47.306 209.798 47.306C210.09 47.306 210.348 47.268 210.574 47.191C210.799 47.114 210.988 47.011 211.14 46.881C211.291 46.751 211.405 46.597 211.482 46.42C211.559 46.245 211.597 46.056 211.597 45.854Z" fill="white"/>
<path d="M14.7739 28.901C6.93193 28.901 0.504883 22.514 0.504883 14.632C0.504883 6.75002 6.93193 0.362976 14.7739 0.362976C18.8969 0.362976 22.8179 2.14099 25.5259 5.21399C26.0109 5.77999 25.9299 6.58902 25.4049 7.03302C24.8789 7.51802 24.0708 7.47801 23.5848 6.91101C21.3618 4.36501 18.1688 2.90997 14.7728 2.90997C8.34583 2.90997 3.09082 8.16502 3.09082 14.632C3.09082 21.059 8.34583 26.314 14.7728 26.314C18.0068 26.314 21.0789 24.98 23.2609 22.676V16.936H15.7828C15.0558 16.936 14.4889 16.37 14.4889 15.642C14.4889 14.914 15.0558 14.349 15.7828 14.349H24.5549C25.2829 14.349 25.8489 14.915 25.8489 15.642V23.161C25.8489 23.484 25.7279 23.767 25.5259 24.01C22.8179 27.123 18.8969 28.901 14.7739 28.901Z" fill="white"/>
<path d="M42.1411 28.901C35.8351 28.901 30.7012 23.767 30.7012 17.421V1.65698C30.7012 0.928982 31.2681 0.362976 31.9541 0.362976C32.6821 0.362976 33.2482 0.928982 33.2482 1.65698V17.421C33.2482 22.353 37.2501 26.314 42.1411 26.314C47.0731 26.314 51.0342 22.353 51.0342 17.421V1.65698C51.0342 0.928982 51.6001 0.362976 52.3271 0.362976C53.0551 0.362976 53.6211 0.928982 53.6211 1.65698V17.421C53.6211 23.767 48.4881 28.901 42.1411 28.901Z" fill="white"/>
<path d="M59.5645 28.901C58.8365 28.901 58.2705 28.335 58.2705 27.607V1.65601C58.2705 0.928006 58.8365 0.362 59.5645 0.362C60.2915 0.362 60.8575 0.928006 60.8575 1.65601V27.607C60.8585 28.335 60.2915 28.901 59.5645 28.901Z" fill="white"/>
<path d="M73.3489 28.901H66.7999C66.0719 28.901 65.5068 28.335 65.5068 27.607V1.65601C65.5068 0.928006 66.0729 0.362 66.7999 0.362H73.3489C81.2309 0.362 87.6179 6.74898 87.6179 14.631C87.6179 22.513 81.2309 28.901 73.3489 28.901ZM68.0939 26.314H73.3489C79.8159 26.314 85.0709 21.059 85.0709 14.632C85.0709 8.16502 79.8159 2.90997 73.3489 2.90997H68.0939V26.314Z" fill="white"/>
<path d="M111.589 27.608C111.589 28.336 110.983 28.902 110.296 28.902H93.3594C92.6314 28.902 92.0664 28.336 92.0664 27.608V1.65698C92.0664 0.928982 92.6324 0.362976 93.3594 0.362976H110.296C110.983 0.362976 111.589 0.928982 111.589 1.65698C111.589 2.34398 110.983 2.90997 110.296 2.90997H94.6523V12.732H105.93C106.618 12.732 107.224 13.298 107.224 13.985C107.224 14.713 106.618 15.279 105.93 15.279H94.6523V26.314H110.296C110.983 26.314 111.589 26.92 111.589 27.608Z" fill="white"/>
<path d="M136.128 10.752C136.128 16.451 131.52 21.059 125.861 21.059H120.323V26.516C120.323 27.85 119.272 28.901 117.979 28.901C116.685 28.901 115.635 27.85 115.635 26.516V2.82898C115.635 1.53498 116.686 0.484009 117.979 0.484009H125.861C131.52 0.484009 136.128 5.09301 136.128 10.752ZM131.439 10.752C131.439 7.68001 128.933 5.21399 125.861 5.21399H120.323V16.33H125.861C128.932 16.33 131.439 13.864 131.439 10.752Z" fill="white"/>
<path d="M153.551 28.901C145.709 28.901 139.363 22.555 139.363 14.713C139.363 6.91101 145.709 0.525024 153.551 0.525024C161.353 0.525024 167.739 6.91101 167.739 14.713C167.739 22.555 161.353 28.901 153.551 28.901ZM153.551 5.21399C148.296 5.21399 144.052 9.49901 144.052 14.713C144.052 19.968 148.297 24.212 153.551 24.212C158.765 24.212 163.05 19.968 163.05 14.713C163.051 9.49901 158.765 5.21399 153.551 5.21399Z" fill="white"/>
<path d="M180.232 28.901C176.675 28.901 174.533 27.405 173.32 26.193C171.825 24.616 170.976 22.514 170.976 20.372C170.976 19.078 172.027 18.028 173.32 18.028C174.614 18.028 175.664 19.079 175.664 20.372C175.664 21.787 176.634 24.212 180.232 24.212C183.83 24.212 184.8 21.787 184.8 20.372C184.8 18.229 183.628 17.583 179.667 16.451C177.888 15.926 176.069 15.4 174.573 14.349C172.552 12.974 171.542 11.034 171.542 8.52802C171.542 6.50702 172.35 4.52598 173.725 3.07098C174.857 1.89898 176.918 0.525024 180.233 0.525024C183.588 0.525024 185.609 1.89898 186.741 3.07098C188.156 4.52698 188.964 6.50702 188.964 8.52802C188.964 9.82102 187.913 10.872 186.579 10.872C185.286 10.872 184.235 9.82102 184.235 8.52802C184.235 7.31502 183.386 5.21301 180.233 5.21301C177.08 5.21301 176.231 7.31502 176.231 8.52802C176.231 10.105 176.838 10.711 180.96 11.924C182.819 12.449 184.76 13.015 186.336 14.147C188.438 15.603 189.489 17.704 189.489 20.372C189.489 22.514 188.64 24.616 187.145 26.193C185.972 27.406 183.788 28.901 180.232 28.901Z" fill="white"/>
<path d="M213.379 2.86902C213.379 4.16302 212.328 5.21301 211.035 5.21301H204.608V26.556C204.608 27.849 203.557 28.9 202.223 28.9C200.929 28.9 199.879 27.849 199.879 26.556V5.21301H193.452C192.158 5.21301 191.107 4.16202 191.107 2.86902C191.107 1.57602 192.158 0.525024 193.452 0.525024H211.035C212.328 0.525024 213.379 1.57602 213.379 2.86902Z" fill="white"/>
</svg>
