<svg version="1.1" id="arrow_developer" class="arrow" xmlns="http://www.w3.org/2000/svg" xmlns:xlink="http://www.w3.org/1999/xlink" x="0px" y="0px"
	 viewBox="0 0 112.093 84.635" style="enable-background:new 0 0 112.093 84.635;"
	 xml:space="preserve">
<g id="clip_arrow_developer">
	
	<clipPath id="mask_arrow_developer">
	<path d="M105.013,75.047c-20.949-0.694-43.34-7.367-60.17-19.972
			c-8.178-6.125-15.751-12.908-20.108-22.308c-2.712-5.85-2.124-11.975-1.806-18.084c1.693,2.234,3.675,4.063,7.004,5.476
			c5.305,2.253,11.624,2.106,17.143,0.88c1.822-0.405,3.73-5.193,1.204-4.632c-5.925,1.316-11.807,0.902-17.404-1.475
			c-4.283-1.819-5.873-5.948-8.162-9.566c-0.041-0.273-0.071-0.547-0.12-0.82c-0.356-1.959-2.613-0.11-3.128,0.676
			c-0.238,0.364-0.446,0.748-0.674,1.119c-1.421,1.419-2.157,2.974-2.897,5.206C12.449,18.406,9.699,25.724,4.828,31.62
			c-1.636,1.981-0.735,5.386,1.663,2.747c3.391-3.732,5.94-7.826,8.286-12.275c0.878-1.666,1.709-4.468,2.688-7.128
			c0.581-1.174,1.185-2.336,1.808-3.489c0.349,7.606-1.63,15.337,1.173,22.818c3.377,9.012,9.587,15.691,17.079,21.519
			c18.781,14.61,41.4,23.127,65.395,23.922C104.895,79.799,107.15,75.118,105.013,75.047z"/>
	</clipPath>
	<path class="pen-stroke" id="path_arrow_developer" style="clip-path:url(#mask_arrow_developer);fill:none;" d="M112.416,78.174
		c0,0-16.475,2.584-53.947-12.275c0,0-25.843-11.952-36.18-31.334c0,0-2.584-18.09-1.938-27.135c0,0-10.66,22.289-18.09,29.073
		c0,0,16.475-20.997,18.736-31.334c0,0,1.292,18.736,31.011,12.921"/>
</g>
</svg>
