<svg version="1.1" id="arrow_designer" class="arrow" xmlns="http://www.w3.org/2000/svg" xmlns:xlink="http://www.w3.org/1999/xlink" x="0px" y="0px"
	 viewBox="0 0 108.216 73.652" style="enable-background:new 0 0 108.216 73.652;"
	 xml:space="preserve">
<g id="clip_arrow_designer">
	
	<clipPath id="mask_arrow_designer">
	<path id="mask_arrow_designer" d="M105.798,42.081c-7.679,1.697-15.003,7.886-19.238,15.325
			c-4.012-19.393-12.424-35.621-30.464-47.191c-14.246-9.137-38.698-12.8-52.034,0.202c-0.008,0.008-0.016,0.013-0.024,0.021
			l-0.815,0.815c-1.858,1.982-0.846,5.381,1.71,2.825c6.452-6.883,18.824-7.514,27.49-7.009c9.053,0.527,18.237,5.8,25.496,10.876
			c16.217,11.34,22.592,28.472,25.632,46.84c-0.006,0.024-0.014,0.049-0.02,0.073c-2.783-1.867-5.288-3.566-8.818-4.853
			c-5.593-2.039-13.16-0.83-19.008-0.83c-2.032,0-4.316,4.82-2.153,4.82c5.267,0,10.538-0.112,15.797,0.204
			c6.101,0.367,9.289,4.033,13.974,6.992c0.391,0.247,0.795,0.246,1.183,0.093c0.27,2.043,2.728,0.025,3.213-0.706
			c5.607-8.438,9.959-17.683,17.833-24.245C106.369,45.652,108.428,41.5,105.798,42.081z M97.661,50.022
			c-3.64,4.567-6.614,9.547-9.808,14.642c-0.079-0.529-0.158-1.057-0.243-1.582C89.26,58.024,93.137,53.157,97.661,50.022z"/>
		<use xlink:href="#mask_arrow_designer"  style="overflow:visible;"/>
	</clipPath>
	<path class="pen-stroke" id="path_arrow_designer" style="clip-path:url(#mask_arrow_designer);fill:none;" d="M-7.43,23.258
		c0,0,12.598-12.598,17.767-15.183S42.963-4.522,72.036,27.781c0,0,11.306,14.86,14.213,41.994c0,0,7.107-15.506,22.289-28.104
		c0,0-18.413,5.169-23.904,25.843c0,0-19.059-9.045-33.595-6.461"/>
</g>
</svg>
