<svg version="1.1" id="splash-slogan" xmlns="http://www.w3.org/2000/svg" xmlns:xlink="http://www.w3.org/1999/xlink" x="0px" y="0px"
	 viewBox="0 0 559.134 114.967" style="enable-background:new 0 0 559.134 114.967;"
	 xml:space="preserve">
<g>

	<clipPath id="mask_slogan_underline">
		<path d="M555.758,91.978c-45.696-0.011-91.127-6.561-136.841-7.064
			c-45.443-0.5-90.817,2.526-136.273,2.184c-22.429-0.169-45.168-1.194-67.569-0.018c-22.021,1.157-43.891,3.473-65.844,5.481
			c-22.607,2.068-45.244,3.235-67.91,4.419c-10.872,0.568-21.73,1.3-32.563,2.392c-11.363,1.145-22.533,3.523-33.906,4.585
			c-0.929,0.087-2.002,2.819-1.128,2.737c10.385-0.969,20.593-3.059,30.946-4.264c11.797-1.373,23.669-2.072,35.523-2.712
			c22.666-1.224,45.297-2.389,67.91-4.419c21.958-1.971,43.821-4.318,65.844-5.481c22.399-1.183,45.141-0.156,67.569,0.018
			c45.46,0.351,90.824-2.529,136.273-2.184c45.721,0.347,91.14,7.052,136.841,7.064C555.541,94.715,556.7,91.978,555.758,91.978z"/>
	</clipPath>
	<clipPath id="mask_slogan_g">
		<path d="M28.94,59.538c2.771-3.004,5.004-6.524,6.776-10.309c-0.75,5.904-1.259,11.848-1.802,17.881
			c-0.632,7.008-2.237,13.665-4.092,20.427c-1.72,6.273-6.952,7.563-10.583,2.464c-2.397-3.366-2.198-8.62-0.711-12.254
			c0.787-1.922-0.968-1.124-1.473,0.11c-2.224,5.433-1.899,11.238,1.549,16.08c3.05,4.284,7.919,2.609,10.221-1.154
			c4.351-7.112,5.594-16.252,6.632-24.363c1.144-8.936,1.692-17.69,3.019-26.433c1.29-4.205,2.131-8.529,2.599-12.688
			c0.183-1.628-1.617,0.547-1.776,1.129c-1.114,4.079-1.945,8.156-2.622,12.243c-1.352,4.136-3.185,8.107-5.586,11.858
			c-2.864,4.475-12.416,16.332-17.522,8.854C4.728,50.432,32.503,10.4,42.345,24.109c0.572,0.797,2.243-1.683,1.723-2.407
			c-7.088-9.872-18.806,3.916-23.167,9.723c-6.821,9.081-11.65,20.45-9.807,31.921C13.096,75.802,25.381,63.397,28.94,59.538z"/>
	</clipPath>
	<clipPath id="mask_slogan_reat">
		<path d="M44.284,69.109c0.015,0.546,0.03,1.069,0.035,1.554c0.012,1.108,1.842-1.178,1.842-1.99V62.6
			c0.232-1.727,0.833-3.299,2.25-4.182c1.783-1.111,5.971,0.228,9.121,0.991c0.429,3.002,2.083,5.501,5.662,6.179
			c3.029,0.574,6.487-7.139,7.615-4.882c1.938,3.875,6.037,3.581,9.221,2.042c0.242-0.019,0.47-0.023,0.727-0.06
			c2.549-0.363,4.019-2.489,4.874-5.114c0.615,2.197,1.796,3.907,4.065,3.842c3.514-0.101,6.372-2.479,8.487-5.154
			c0.847-1.072,1.575-2.177,2.232-3.302c-0.265,8.218,0.152,16.453,1.849,24.82c0.268,1.32,1.842-1.346,1.842-1.99v-3.05
			c0-0.404-0.253-0.346-0.571-0.075c-1.323-7.969-1.543-15.846-1.17-23.717c0.935-2.362,1.56-4.809,1.986-7.31
			c3.125-1.182,6.176-3.136,8.813-4.382c2.542-1.2,8.912-3.276,8.225-7.214c-0.206-1.183-1.986,1.165-1.842,1.99
			c0.032,0.182-6.539,2.772-7.795,3.713c-1.813,1.358-4.388,2.723-7.047,3.48c0.674-5.65,0.466-11.527,0.419-17.315
			c-0.01-1.197-1.766,1.151-1.84,1.718c-0.704,5.435-1.387,10.817-1.93,16.183c-1.652,0.083-3.224-0.182-4.545-0.958
			c-0.774-0.455-2.276,2.199-1.479,2.667c1.846,1.085,3.792,1.296,5.754,1.005c-0.229,2.534-0.427,5.067-0.555,7.599
			c-0.04,0.094-0.073,0.189-0.114,0.283c-1.624,3.727-5.766,9.433-10.628,7.931c-3.459-1.069-2.945-8.377-2.963-11.014
			c-0.004-0.617-0.573-0.171-1.079,0.478c-0.136-0.684-0.306-1.34-0.506-1.957c-2.48-7.662-9.304,1.922-10.593,4.92
			c-1.208,2.81-1.652,5.978-0.883,8.361c-0.842-0.681-1.618-1.601-2.248-2.861c-0.214-0.429-0.804,0.057-0.972,0.262
			c-1.213,1.481-1.716,2.13-2.775,3.718c-4.047,1.514-6.634,1.375-7.775-0.402c1.891,0.06,4.253-3.325,4.916-4.718
			c2.5-5.249,0.353-14.1-4.765-6.444c-1.101,1.647-1.985,3.814-2.429,6.049c-3.373,5.459,1.139-0.153-4.796,0.353
			c-2.012,0.171-3.276,0.391-5.027,1.483c-0.703,0.438-1.262,0.997-1.724,1.628c0.039-2.155,0.261-6.929,1.215-7.917
			c0.672-0.696,1.155-3.308-0.221-1.882C42.778,52.937,44.052,62.833,44.284,69.109z M77.09,48.56
			c4.026-7.981,6.858,0.676,7.154,3.212c0.456,3.912-1.586,6.968-4.263,8.172c-0.709,0.064-1.506-0.012-2.427-0.295
			C72.993,58.246,75.814,51.089,77.09,48.56z"/>
	</clipPath>
	<clipPath id="mask_slogan_ne">
		<path d="M121.031,47.968c-1.919-0.035-3.332,2.504-4.346,5.731c0.275-2.959,0.744-5.899,1.589-8.834
			c0.547-1.9-1.45-0.107-1.714,0.81c-1.974,6.861-2.087,13.826-2.097,20.922c-0.002,1.131,1.797-1.058,1.84-1.718
			c0.261-3.969,1.385-7.986,2.519-11.783c0.482-1.613,2.712,4.271,2.816,4.561c0.939,2.62,2.206,4.426,4.514,5.888
			c7.08,4.484,8.327-6.943,9.035-12.369c0.03,0.011,0.061,0.024,0.091,0.035c-0.183,1.496-0.22,2.908-0.103,4.077
			c0.317,3.172,1.671,9.158,5.838,9.529c4.657,0.414,7.853-2.339,11.077-5.389c0.712-0.674,1.219-3.245-0.221-1.882
			c-3.244,3.068-6.789,5.946-11.349,3.674c-3.152-1.571-3.656-5.909-3.42-9.542c2.162,0.286,3.751-0.663,4.949-3.569
			c1.225-2.971,3.047-6.57,0.503-9.254c-0.131-0.054-0.258-0.045-0.384,0.025c-3.232,1.217-5.31,5.209-6.325,9.274
			c-0.136-0.051-0.27-0.087-0.407-0.15c-0.739-0.336-1.465,1.264-1.596,1.739c-1.189,4.296-3.045,15.387-8.773,8.972
			c-2.464-2.76-2.529-7.199-3.741-10.581C121.265,48.015,121.166,47.96,121.031,47.968z M137.549,48.224
			c1.188-6.079,2.809-0.628,3.707-2.248c-0.94,1.696-2.251,2.512-3.753,2.503C137.518,48.395,137.533,48.304,137.549,48.224z"/>
	</clipPath>
	<clipPath id="mask_slogan_s">
		<path d="M157.727,53.203c1.647,1.01,2.704,2.636,3.559,4.309c1.154,2.26,0.337,5.691-2.56,4.822
			c-0.341-0.102-3.756-2.031-2.805-2.685c0.673-0.464,1.599-3.252,0.253-2.325c-1.355,0.934-2.146,1.989-2.508,3.601
			c-0.421,1.873,1.338,2.76,2.637,3.62c3.142,2.08,6.762-0.178,7.473-3.597c0.912-4.389-1.655-8.625-5.365-10.899
			c-2.091-1.282-4.166-0.903-6.449-1.399c-2.563-0.556,4.211-3.919,5.555-4.043c0.929-0.086,2.003-2.818,1.128-2.737
			c-4.153,0.383-9.024,3.886-9.615,8.192c-0.029,0.21-0.014,0.477,0.18,0.61C151.706,52.385,155.033,51.552,157.727,53.203z"/>
	</clipPath>
	<clipPath id="mask_slogan_s2">
		<path d="M175.02,53.116c2.939,2.991,5.542,6.329,6.919,10.269c-4.275,0.052-7.815-1.887-9.782-6.102
			c-0.362-0.776-2.12,1.557-1.723,2.407c2.365,5.07,7.078,7.099,12.497,6.265c0.807-0.124,1.651-1.594,1.485-2.364
			c-0.953-4.429-3.284-7.98-6.239-11.353c-0.98-1.118-2.043-2.167-3.092-3.218c-0.399-0.241-0.797-0.483-1.195-0.724
			c-1.108-3.037-0.629-4.568,1.436-4.594c0.825-0.135,1.69-0.108,2.523-0.113c0.912-0.005,2.066-2.742,1.128-2.737
			c-4.32,0.024-8.339,1.502-8.867,6.354C169.812,49.931,173.481,51.549,175.02,53.116z"/>
	</clipPath>
	<clipPath id="mask_slogan_i">
		<path d="M207.329,63.921c2.824,0.514,5.019-2.279,6.68-5.855c-0.987,5.308-1.291,10.7,2.128,13.677
			c4.832,4.208,9.283-2.289,9.957-6.864c0.233-1.581-1.722,0.659-1.838,1.447c-1.091,7.412-6.1,3.766-7.887,1.025
			c-1.577-2.418-0.827-6.085-0.461-8.758c0.599-4.379,1.795-8.584,2.053-13.029c0.097-1.666-1.614,0.565-1.776,1.129
			c-0.732,2.549-3.502,15.261-7.729,14.492C207.625,61.032,206.305,63.734,207.329,63.921z"/>
	</clipPath>
	<clipPath id="mask_slogan_s3">
		<path id="mask_slogan_s3" d="M238.031,69.198c2.173-1.061,3.155-4.035,2.431-6.243c-0.504-1.536-0.357-2.567-1.464-3.893
			c-0.74-0.886-1.914-1.399-2.918-1.909c-5.43-2.757-0.941-9.136,3.78-9.497c0.927-0.071,2.015-2.805,1.128-2.737
			c-3.926,0.3-6.464,3.138-8.241,6.426c-1.795,3.322-1.784,5.316,1.045,7.717c2.112,1.792,4.416,2.3,4.694,5.503
			c0.157,1.813,0.696,2.279-1.524,2.484c-2.213,0.204-7.311-1.831-5.344-4.858c0.716-1.101,0.447-3.053-0.687-1.308
			c-1.368,2.105-2.521,5.096-0.304,7.102C232.566,69.738,235.641,70.365,238.031,69.198z"/>
	</clipPath>
	<clipPath id="mask_slogan_idot">
		<path d="M219.186,38.079l1.017-1.017c0.453-0.452,0.887-1.275,0.81-1.936c-0.081-0.7-0.768-0.21-1.032,0.054
			c-0.339,0.339-0.678,0.678-1.016,1.017c-0.453,0.453-0.887,1.275-0.811,1.936C218.236,38.833,218.922,38.343,219.186,38.079z"/>
	</clipPath>
	<clipPath id="mask_slogan_in">
		<path d="M263.916,66.543l1.017-1.017c0.283-0.283,0.53-0.887,0.629-1.405c0.846-0.455,1.749-1.032,1.949-1.238
			c1.755-1.811,3.291-3.746,4.771-5.777c0.069-0.094,0.124-0.205,0.191-0.302c-1.01,7.409-0.655,15.014,5.504,13.129
			c7.745-2.371,9.134-15.207,11.036-22.694c1.853,6.217,0.55,16.174-0.649,21.818c-0.382,1.799,1.284,0.403,1.593-0.46
			c1.121-3.13,2.212-6.369,3.638-9.37c1.192-2.508,4.61-5.293,5.22-0.83c0.142,1.039,0.092,2.235,0.397,3.249
			c1.621,5.39,5.596,4.154,8.417,0.831c0.611-0.72,1.055-3.386-0.221-1.882c-4.486,1.803-6.686,0.943-6.6-2.579
			c-0.079-1.084-0.204-2.163-0.373-3.237c-0.239-1.749-0.929-2.78-2.342-3.726c-0.188-0.126-0.477,0.062-0.613,0.171
			c-2.088,1.68-3.243,3.814-4.452,6.199c-0.525,1.036-0.996,2.103-1.494,3.152c-0.038,0.111-0.085,0.219-0.124,0.33
			c0.759-5.99,0.839-13.253-1.328-17.854c-0.382-0.812-1.501,1.02-1.598,1.259c-1.465,3.588-2.073,7.276-2.847,11.064
			c-0.769,3.764-6.942,17.946-10.803,9.026c-1.469-3.394-1.441-6.976-0.803-10.514c1.341-3.21,2.064-7.009,2.831-10.036
			c0.499-1.969-1.434-0.035-1.714,0.81c-0.246,0.742-0.763,2.542-1.306,4.861c-0.455,1.533-0.951,3.054-1.534,4.548
			c-1.336,3.579-4.604,6.671-7.429,9.425c-0.054,0.046-0.107,0.09-0.167,0.151c-0.079,0.079-0.131,0.138-0.197,0.208
			c-0.277,0.271-0.556,0.544-0.82,0.809C263.01,65.349,262.514,67.946,263.916,66.543z"/>
	</clipPath>
	<clipPath id="mask_slogan_indot">
		<path d="M275.44,35.457c1.139-0.001,2.352,0.032,3.4-0.483c1.292-0.636,2.097-2.252,2.149-3.642
			c0.01-0.259,0.008-0.654-0.355-0.645c-1.039,0.026-1.817,0.966-2.213,1.958c-0.613,0.075-1.24,0.075-1.853,0.075
			C275.658,32.72,274.499,35.457,275.44,35.457z"/>
	</clipPath>
	<clipPath id="mask_slogan_the">
		<path d="M334.611,51.662c1.972-0.717,4.148-1.396,6.352-2.15c-0.48,6.325-1.756,14.198-5.09,18.199
			c-0.602,0.723-1.04,3.396,0.221,1.883c4.361-5.233,5.986-13.349,6.62-20.697c3.545-1.289,7.038-2.861,9.771-5.186
			c-0.174,1.135-0.346,2.271-0.573,3.388c-0.916,4.507-2.346,13.311-0.525,17.674c0.248,0.593,1.066-0.369,1.205-0.55
			c0.608-0.788,4.543-7.113,5.728-5.267c1.102,1.717,1.742,3.769,2.724,5.563c1.202,2.194,5.039,4.129,7.343,2.246
			c0.285-0.232,0.597-0.52,0.919-0.83c2.659,1.715,6.435,2.089,10.034,0.976c0.797-0.246,1.898-2.984,0.711-2.617
			c-2.895,0.895-4.857,0.869-7.749-0.025c-0.356-0.138-0.696-0.3-1.023-0.48c3.014-3.66,6.035-9.114,4.195-12.606
			c-3.54-6.721-9.068,3.172-9.574,6.257c-0.535,3.259,0.389,5.757,2.122,7.461c-3.787,1.127-6.814-6.536-8.813-9.652
			c-0.131-0.204-0.303-0.18-0.506-0.105c-2.143,0.79-3.352,2.73-4.611,4.543c-1.544,2.222-1.707,4.701-1.218-0.868
			c0.241-2.748,0.292-5.142,0.358-7.97c0.064-2.751,0.329-5.632,0.682-8.512c0.442-0.477,0.864-0.973,1.242-1.509
			c4.981-7.083,4.103-16.749,4.113-25.017c0.001-1.201-1.758,1.168-1.84,1.718c-0.561,3.787-2.239,7.57-2.939,11.437
			c-0.695,3.846-1.078,7.792-1.573,11.696c-0.834,0.916-1.806,1.754-2.969,2.483c-2.186,1.371-4.592,2.393-7.054,3.291
			c0.078-1.285,0.132-2.536,0.168-3.723c0.103-3.394,0.406-27.606,4.555-27.589c0.91,0.004,2.072-2.733,1.128-2.737
			c-5.437-0.023-6.05,13.244-6.439,16.451c-0.652,5.385-0.946,10.825-1.11,16.245c-0.019,0.618-0.047,1.288-0.081,1.98
			c-1.947,0.668-3.905,1.294-5.794,1.981C334.536,49.331,333.465,52.078,334.611,51.662z M372.087,60.282
			c-0.61,1.221-1.205,2.156-1.787,2.873c-0.624-0.47-1.185-1.031-1.681-1.685C366.195,56.438,367.351,56.042,372.087,60.282z
			 M355.327,32.856c0.506-3.021,1.342-5.953,2.143-8.883c-0.018,5.194-0.438,10.528-3.055,14.698
			C354.706,36.696,355.012,34.738,355.327,32.856z"/>
	</clipPath>
	<clipPath id="mask_slogan_det">
		<path d="M404.898,68.555c3.827,2.276,7.854-1.526,9.78-4.483c0.997-1.53,1.518-3.412,1.53-5.281
			c0.309-0.902,0.589-1.779,0.852-2.563c0.758-2.259,1.297-4.559,1.724-6.881c0.092,0.619,0.185,1.23,0.277,1.819
			c0.38,2.458,4.248,16.245,9.303,12.548c0.583-0.426,1.092-0.812,1.568-1.188c1.064,3.785,3.032,6.588,5.389,5.518
			c4.893-2.22,7.111-8.18,8.962-12.826c0.683-1.715,1.243-3.477,1.741-5.26c0.222,3.982,1.139,7.655,1.659,11.646
			c-0.67,0.767-1.151,2.316-0.442,2.316h1.017c0.869,0,1.545-1.669,1.485-2.363c-0.451-5.192-1.868-9.775-1.905-14.992
			c2.439-0.38,5.582-3.217,7.745-4.053c0.781-0.302,1.839-3.052,0.711-2.617c-2.715,1.049-5.415,3.533-8.379,3.902
			c0.12-2.561,0.288-5.118,0.452-7.676c0.208-2.625,0.323-5.25,0.357-7.84c0.021-1.643-1.826,0.626-1.838,1.447
			c-0.017,1.152-0.06,2.302-0.106,3.452c-0.16,3.563-0.529,7.08-1.096,10.58c-2.499-0.226-4.964-0.789-7.48-0.876
			c-0.9-0.031-2.09,2.704-1.128,2.737c2.737,0.094,5.421,0.617,8.141,0.873c-0.306,1.555-0.654,3.108-1.059,4.66
			c-0.596,2.164-1.333,4.276-2.211,6.339c-0.951,4.727-4.113,6.081-9.486,4.063c-0.074-0.426-0.166-0.838-0.255-1.251
			c0.816-1.092,1.354-2.384,1.711-4.319c0.275-1.491,0.808-8.833-2.28-6.952c-2.586,1.575-3.03,6.957-2.143,11.63
			c-1.827,0.421-4.127-0.521-5.225-2.367c-2.17-3.645-3.986-9.829-4.503-15.772c0.469-4.08,0.825-8.179,1.51-12.213
			c0.264-1.557-1.459,0.357-1.656,0.779c-1.534,3.298-1.824,7.26-1.616,11.194c-0.509,4.128-1.057,8.249-2.004,12.356
			c-0.082,0.355-0.177,0.727-0.279,1.107c-0.233-0.701-0.533-1.376-0.946-1.982c-2.272-3.331-7.176,0.721-8.853,2.47
			c-2.97,3.099-3.7,8.388-1.653,10.725C404.2,67.649,404.351,68.229,404.898,68.555z M432.203,53.863
			c0.078,1.196,0.037,2.387-0.122,3.571c-0.042,0.424-0.14,0.791-0.262,1.129c-0.327-1.395-0.643-2.785-0.766-4.293
			C431.865,52.263,432.248,52.127,432.203,53.863z M412.252,55.655c0.508,0.527,1.016,1.054,1.524,1.581
			c-0.707,2.755-1.375,4.889-2.007,6.444c-1.016,1.014-2.207,1.649-3.592,1.621c-0.24-0.545-0.471-1.232-0.69-2.095
			c0.838-1.058,0.596-2.929-0.687-1.308c-0.179,0.226-0.525,0.699-0.905,1.294C405.65,57.506,407.764,54.987,412.252,55.655z"/>
	</clipPath>
	<clipPath id="mask_slogan_ails">
		<path d="M456.148,59.333c0.351,2.529,2.792,7.537,6.239,5.903c1.161-0.55,2.167-2.062,2.889-3.932
			c0.188,1.19,0.497,2.363,1.037,3.503c1.097,2.312,4.471,1.842,5.846,0.192c1.44-1.728,2.366-3.653,3.113-5.694
			c-0.039,0.868-0.058,1.739-0.036,2.625c0.051,2.077,1.63,6.488,4.538,5.109c2.51-1.19,3.733-4.44,4.725-6.799
			c0.145-0.345,0.259-0.704,0.396-1.053c0.903,1.769,2.044,3.458,3.49,5.031c5.842,6.357,11.041,3.062,15.421-1.35
			c2.612,4.619,8.016,6.717,11.73,1.324c2.72-3.949,0.159-13.184-2.947-16.187c-0.153-0.148-0.51,0.082-0.613,0.171
			c-1.154,1.004-1.963,1.865-2.595,3.326c-1.328,3.068-2.614,5.475-4.385,7.971c-0.16-0.413-0.3-0.81-0.418-1.173
			c-0.234-0.721-2.017,1.502-1.723,2.407c0.117,0.361,0.253,0.712,0.401,1.054c-0.054,0.068-0.103,0.132-0.158,0.2
			c-6.195,7.615-13.577-0.321-16.977-5.427c-0.06-0.09-0.108-0.187-0.165-0.279c1.085-3.355,1.852-6.831,2.3-10.292
			c0.653-5.036,1.453-12.033,0.116-16.935c-0.093-0.34-0.227-0.416-0.565-0.313c-3.917,1.19-4.579,7.393-5.093,10.733
			c-0.965,6.263-0.881,12.524,1.408,18.07c-0.637,1.825-1.378,3.609-2.186,5.234c-2.588,5.207-4.685-1.445-4.858-2.812
			c-0.365-2.873,0.292-6.225,1.065-8.974c0.44-1.565-1.002-0.681-1.417,0.095c-1.043,1.949-1.599,4.06-2.217,6.175
			c-1.096,3.751-5.643,10.033-7.435,2.407c-0.373-1.586-0.331-3.277-0.228-4.955c0.118-1.012,0.165-2.033,0.176-3.023
			c0.011-0.972-0.62-0.576-1.145,0.078c-0.281-0.674-0.661-1.228-1.182-1.566c-1.786-1.162-3.598-0.432-5.018,1.072
			c-0.155-0.277-0.494-0.254-1.034,0.486C457.12,53.823,455.775,56.649,456.148,59.333z M507.896,58.411
			c0.568-0.627,0.823-1.473,1.139-2.234c0.37-1.073,0.75-2.143,1.139-3.21c2.873-0.558,4.104,0.672,3.693,3.69
			c0.414,2.703,1.54,7.081-2.489,8.092c-2.757,0.692-4.592-1.512-5.739-3.824C506.422,60.064,507.175,59.207,507.896,58.411z
			 M484.332,39.991c0.134-2.532,3.121-12.057,2.495-4.269c-0.43,5.356-0.053,10.737-1.109,16.036
			c-0.176,0.881-0.393,1.781-0.64,2.686C483.442,50.091,484.106,44.266,484.332,39.991z M464.168,55.415
			c0.01,0.816-0.042,1.63-0.078,2.444c-0.226,0.451-0.452,0.902-0.678,1.353C459.224,60.303,459.476,59.037,464.168,55.415z"/>
	</clipPath>
	<clipPath id="mask_slogan_dot">
		<path d="M522.47,69.004h2.033c0.911,0,2.069-2.737,1.128-2.737h-2.033
			C522.688,66.267,521.529,69.004,522.47,69.004z"/>
	</clipPath>
	<g id="Slogan">
		<path class="pen-stroke"  id="path_slogan_1" style="clip-path:url(#mask_slogan_g);" d="M43.144,22.53c-3.38-5.95-11.201-0.195-14.77,2.351
			c-4.7,3.352-8.085,8.363-10.874,13.238c-2.82,4.929-5.286,9.992-5.92,15.641c-0.412,3.672-0.903,10.636,2.91,13.446
			c4.364,3.216,10.635-4.464,14.132-8.15c3.687-3.886,5.415-9.014,7.194-14.06c1.478-4.193,4.219-13.109,4.717-17.411
			c-0.748,6.048-3.383,18.659-3.819,21.402c-0.488,3.069-0.328,6.271-0.919,9.211c-0.584,2.903-0.46,5.696-0.91,8.592
			c-0.905,5.831-1.351,12.013-3.176,17.584c-1.355,4.137-3.388,11.494-8.946,10.983c-3.357-0.309-5.047-4.056-5.674-6.609
			c-0.354-1.44-0.331-3.36-0.374-4.926c-0.045-1.669,1.185-6.235,1.808-7.794"/>
		<path class="pen-stroke" id="path_slogan_2" style="clip-path:url(#mask_slogan_reat);" d="M47.646,48.796c-0.986,1.739-1.921,2.991-2.332,5.029
			c-0.363,1.796-0.367,3.55-0.367,5.401c0,3.409-0.063,6.777-0.089,10.183c0.415-1.639,0.35-3.764,0.35-5.461
			c0-1.171-0.352-3.482,0.61-4.247c0.555-0.441,1.35-1.357,2.002-1.674c0.745-0.363,1.594-0.587,2.351-0.871
			c1.486-0.557,3.143,0.022,4.615,0.76c1.852,0.928,3.154,1.064,5.118,0.089c1.771-0.879,3.551-1.736,4.286-3.549
			c0.654-1.612,1.214-4.076,0.871-5.834c-0.411-2.106-2.092-1.924-3.222-0.435c-1.311,1.727-2.203,3.045-2.874,5.138
			c-0.67,2.09-1.132,4.246-0.697,6.444c0.739,3.733,4.044,5.441,7.402,3.483c1.202-0.701,1.799-1.29,2.68-2.351
			c0.642-0.773,1.447-1.402,2.022-2.264c0,0,0.261,1.306,2.351,2.525c2.09,1.219,7.053,0.522,7.576,0.261
			c0.522-0.261-6.27,1.132-6.183-4.702c0.029-1.917,1.306-6.879,2.438-8.272c1.132-1.393,2.961-4.267,5.138-4.18"/>
		<path class="pen-stroke" id="path_slogan_3" style="clip-path:url(#mask_slogan_reat);" d="M47.646,47.142c-0.599,2.239-1.63,4.399-2.092,6.705
			c-0.423,2.111-0.669,4.375-0.786,6.526c-0.174,3.194,0.17,6.45,0.111,9.557c0.866-3.296-1.458-7.681,1.308-10.314
			c1.862-1.773,5.74-3.073,8.183-1.811c1.589,0.82,3.205,1.459,5.009,0.851c2.455-0.828,3.101-2.666,4.308-4.721
			c0.929-1.583,1.613-3.86,1.204-5.747c-0.492-2.271-2.683-0.797-3.507,0.344c-1.302,1.802-2.525,4.052-2.699,6.274
			c-0.177,2.245-0.699,4.645,0.194,6.792c1.529,3.678,5.614,2.946,8.035,0.608c0.855-0.826,1.724-1.622,2.482-2.525
			c0.398-0.474,1.163-1.761,1.835-1.728c0.161,1.079-0.149,1.643,0.518,2.598c0.328,0.47,0.872,1.043,1.43,1.289
			c1.775,0.784,1.517-1.684,1.461-2.854c-0.082-1.703-0.355-3.384,0.104-5.131c0.461-1.753,1.045-3.99,2.012-5.494
			c1.219-1.898,3.238-3.809,5.607-3.74c-1.677-0.486-3.259,1.153-4.244,2.349c-1.205,1.463-2.577,3.546-3.283,5.329
			c-1.232,3.109-1.567,10.469,3.201,10.345c1.574-0.041,3.964-1.505,4.946-2.701c1.162-1.416,1.962-3.633,2.456-5.392
			c0.61-2.173,0.412-4.582-0.348-6.71c-0.277-0.776-0.619-1.463-1.238-1.986c-0.46-0.388-1.246-0.672-1.616-1.081
			c-0.063-0.069-0.267-0.188-0.206-0.156c1.733,0.202,2.552,2.519,3.062,3.92c0.658,1.809,0.429,3.569,0.433,5.492
			c0.004,1.72-0.142,3.624,1.137,4.94c1.038,1.069,2.107,1.776,3.653,1.672c1.445-0.098,2.525-1.1,3.766-1.809
			c1.224-0.699,2.031-1.668,3.043-2.63c1.098-1.043,2.293-2.19,3.011-3.577c0.692-1.335,1.009-3.034,1.393-4.524
			c0.444-1.725,0.743-3.495,1.263-5.246c0.575-1.938,0.584-3.954,0.914-5.919c0.301-1.79,0.524-3.66,0.542-5.486
			c0.019-1.891-0.266-3.677-0.174-5.569c0.087-1.787-0.027-3.607,0.586-5.202c1.38,3.051-0.672,7.192-0.672,10.335
			c0,2.407-0.486,4.608-0.89,6.945c-0.454,2.632-0.315,5.313-0.697,7.965c-0.626,4.346-1.021,8.342-1.374,12.713
			c-0.278,3.441,0.434,6.99,0.61,10.449c0.088,1.744,0.345,3.479,0.784,5.138c0.423,1.596,1.12,3.206,1.393,4.789"/>
		<path class="pen-stroke" id="path_slogan_4" style="clip-path:url(#mask_slogan_reat);" d="M93.71,39.914c0.034-0.16,0.677,0.251,1.071,0.416c0.509,0.214,1.005,0.452,1.515,0.653
			c0.975,0.383,1.879,0.435,2.901,0.494c2.169,0.125,4.3-0.34,6.421-0.929c2.156-0.6,4.223-1.819,6.209-2.835
			c1.962-1.004,3.499-2.544,5.413-3.611c0.948-0.529,1.968-1.012,2.767-1.763c0.914-0.861,1.288-2.083,2.177-2.961"/>
		<path class="pen-stroke" id="path_slogan_5" style="clip-path:url(#mask_slogan_ne);" d="M117.657,43.484c-0.974,4.385-1.041,8.828-1.476,13.272
			c-0.398,4.079-1.124,8.12-1.137,12.219c-0.245-4.995,0.722-10.26,2.37-14.95c0.342-0.972,1.419-3.509,2.7-3.642
			c1.181-0.123,1.872,3.862,2.138,4.837c0.515,1.89,1.47,3.765,2.349,5.51c0.785,1.559,2.027,2.089,3.766,2.26
			c4.514,0.441,5.353-6.989,6.115-10.169c0.205-0.856,0.52-1.631,0.782-2.449c3.709,1.888,6.543-2.766,7.125-5.821
			c0.338-1.775-0.348-4.187-2.349-2.394c-1.893,1.697-2.884,3.52-3.468,5.94c-0.899,3.725-0.802,7.509,0.244,11.149
			c0.954,3.318,4.062,4.566,7.335,4.441c3.777-0.144,6.207-3.947,8.597-6.357"/>
		<path class="pen-stroke" id="path_slogan_6" style="clip-path:url(#mask_slogan_s);" d="M161.109,43.223c-0.55-1-3.934,0.085-4.876,0.501c-1.467,0.647-2.957,1.408-4.073,2.571
			c-0.741,0.772-2.112,2.465-1.308,3.544c0.441,0.592,1.443,0.488,2.07,0.675c0.795,0.237,1.489,0.705,2.266,1.006
			c3.362,1.304,6.44,2.164,7.575,6.033c1.011,3.443-0.985,6.534-4.615,6.57c-1.747,0.017-3.545-0.908-3.483-2.786
			c0.071-2.144,2.197-2.404,2.961-3.831"/>
		<path class="pen-stroke" id="path_slogan_7" style="clip-path:url(#mask_slogan_s2);" d="M180.266,42.352c-2.975,0-5.906-0.549-7.924,2.088c-2.188,2.859,1.394,5.649,3.156,7.578
			c2.196,2.403,4.772,4.784,5.924,7.924c0.442,1.204,1.377,2.885,1.369,4.17c-0.012,2.087-2.765,1.165-4.008,0.881
			c-2.114-0.483-4.179-1.901-5.81-3.331c-0.553-0.484-1.059-1.08-1.478-1.657c-0.296-0.408-0.884-1.567-0.982-1.631"/>
		<path class="pen-stroke" id="path_slogan_8" style="clip-path:url(#mask_slogan_i);" d="M206.825,62.903c3.304,1.171,6.064-2.77,7.251-5.229c0.876-1.816,1.402-3.79,1.826-5.767
			c0.232-1.079,0.486-2.142,0.672-3.219c0.135-0.78,0.057-1.967,0.442-2.647c-0.436,2.741-0.397,5.551-0.856,8.329
			c-0.432,2.62-1.208,5.287-1.499,7.926c-0.358,3.244-0.253,8.518,3.742,9.56c1.901,0.495,3.724-0.207,4.789-1.829
			c0.748-1.139,2.623-3.654,2.179-5.033"/>
		<path class="pen-stroke" id="path_slogan_9" style="clip-path:url(#mask_slogan_idot);" d="M218.058,38.695c1.405-0.52,2.074-2.761,3.135-3.744"/>
		<path class="pen-stroke" id="path_slogan_10" style="clip-path:url(#mask_slogan_s3);" d="M242.091,46.445c-3.634-0.334-6.433,2.75-8.338,5.401
			c-0.884,1.23-1.551,2.573-0.914,4.022c0.717,1.633,2.76,3.107,4.119,4.229c1.111,0.917,1.997,2.331,2.673,3.587
			c0.728,1.352,0.266,2.94-0.569,4.09c-2.447,3.373-8.517-0.015-8.644-3.566c-0.029-0.814,0.127-1.594,0.462-2.332
			c0.249-0.55,0.819-1.673,0.849-1.761"/>
		<path class="pen-stroke" id="path_slogan_11" style="clip-path:url(#mask_slogan_in);" d="M262.729,67.17c2.38-2.695,4.917-5.319,7.208-8.011c1.219-1.432,2.406-2.864,3.311-4.53
			c1.086-1.997,1.441-4.224,1.933-6.417c0.471-2.102,0.704-4.235,0.958-6.355c0.005,4.414-1.35,8.797-2.327,13.08
			c-0.885,3.876-2.234,10.878,1.739,13.539c3.38,2.264,8.03-3.789,9.188-6.443c1.553-3.56,2.05-7.232,2.805-10.946
			c0.193-0.951,0.409-1.913,0.762-2.812c0.152-0.388,0.508-1.962,0.825-2.162c1.165-0.733,1.494,5.308,1.555,5.972
			c0.307,3.329-0.413,6.628-0.44,9.95c-0.017,2.053-0.908,3.77-1.128,5.741c-0.067,0.599-0.13,1.252-0.27,1.811
			c0.832-3.147,2.582-5.843,3.727-8.841c0.833-2.182,1.956-4.055,3.423-5.854c1.337-1.639,2.758-0.723,3.222,1.152
			c0.53,2.14,0.846,4.464,1.846,6.494c0.808,1.639,3.111,1.32,4.661,0.871c1.104-0.32,1.924-1.138,2.636-2.01
			c0.428-0.524,1.125-1.725,1.65-1.805"/>
		<path class="pen-stroke" id="path_slogan_12" style="clip-path:url(#mask_slogan_indot);" d="M275.442,34.08c-0.098-0.026-0.163,0.003-0.193,0.087c1.716,1.23,6.489-2.037,6.202-4.18
			"/>
		<path class="pen-stroke" id="path_slogan_13" style="clip-path:url(#mask_slogan_the);" d="M349.77,13.317c-0.764,0.524-2.536,0.148-3.535,1.427
			c-0.939,1.203-0.944,3.113-1.337,4.478c-0.951,3.298-1.937,6.486-2.291,9.891c-0.624,6.007-0.239,12.448-0.532,18.561
			c-0.402,8.377-1.662,17.839-7.358,24.455c0.126-0.218,0.246-0.443,0.379-0.656"/>
		<path class="pen-stroke" id="path_slogan_14" style="clip-path:url(#mask_slogan_the);" d="M333.666,51.074c2.523,0.852,6.139-2.337,8.4-3.22c2.776-1.084,5.712-2.174,8.421-3.624
			c5.683-3.043,6.643-9.149,6.974-14.991c0.081-1.436,1.776-7.74,0.589-8.812c-1.485-1.342-1.641,2.136-1.799,2.902
			c-0.328,1.601-0.794,3.09-1.248,4.662c-1.749,6.063-1.401,12.633-2.012,18.967c-0.567,5.881-1.48,11.617-1.624,17.662
			c1.252-2.011,3.205-5.842,5.382-6.794c3.404-1.488,4.313,3.574,5.721,5.413c2.453,3.203,5.07,4.802,7.883,0.998
			c2.213-2.993,4.519-6.437,3.753-10.299c-0.69-3.481-3.731-1.373-5.19,0.716c-1.443,2.067-2.527,4.593-1.833,7.158
			c1.611,5.956,8.906,4.506,13.286,4.295"/>
		<path class="pen-stroke" id="path_slogan_15" style="clip-path:url(#mask_slogan_det);" d="M415.263,58.41c-0.012-3.32-1.69-5.778-5.189-4.076c-2.653,1.29-5.386,4.1-5.914,7.118
			c-0.436,2.491,0.776,8.03,4.125,6.933c2.91-0.953,4.971-5.396,6.298-7.789c1.203-2.17,1.509-3.707,1.755-6.162
			c0.248-2.48,1.235-4.817,1.6-7.297c0.74-5.028,1.642-10.32,1.978-15.344c0.028,7.054-2.351,14.699,0.313,21.468
			c1.719,4.366,5.323,13.716,10.741,7.834c1.959-2.127,2.688-4.695,2.545-7.511c-0.072-1.415-0.022-3.723-2.107-3.185
			c-1.572,0.406-1.763,2.188-1.83,3.529c-0.206,4.162,1.643,15.876,8.092,11.327c4.729-3.336,6.483-11.072,7.48-16.328
			c0.559-2.949,1.003-5.906,1.467-8.947c0.517-3.382,0.546-6.708,0.855-10.2c0.079-0.898,0.409-1.731,0.357-2.634
			c-1.239,6.514-1.61,13.865-1.61,20.528c0,2.863,0.881,5.463,1.292,8.191c0.351,2.327,1.553,5.632,1.213,7.769
			c0-0.25,0-0.5,0-0.751"/>
		<path class="pen-stroke" id="path_slogan_16" style="clip-path:url(#mask_slogan_det);" d="M436.199,44.095c0.964,0.747,3.872,0.291,5.368,0.533
			c1.868,0.302,3.593,0.979,5.547,0.899c3.612-0.149,7.998-2.222,10.937-4.351c0.225-0.297-0.122,0.045-0.2,0.057"/>
		<path class="pen-stroke" id="path_slogan_17"  style="clip-path:url(#mask_slogan_ails);" d="M465.545,53.937c-0.425-1.432-0.526-2.69-2.147-3.081
			c-1.692-0.408-2.61,0.681-3.449,2.012c-1.497,2.376-2.735,5.974-1.919,8.764c0.371,1.269,1.427,2.741,2.862,2.872
			c1.839,0.168,2.301-1.501,3.037-2.873c1.216-2.267,2.883-6.217,1.933-8.754c-1.59,2.504,0.523,12.519,4.334,11.796
			c4.998-0.948,5.906-8.921,6.977-12.65c-0.647,3.026-0.794,6.492-0.893,9.599c-0.101,3.173,1.711,5.675,4.88,3.096
			c4.25-3.46,4.753-11.413,5.49-16.337c0.268-1.796,2.743-17.657-0.666-16.596c-1.911,0.595-2.615,6.946-2.947,8.553
			c-0.597,2.889-0.838,6.006-0.672,9.126c0.287,5.38,3.328,12.814,8.768,15.036c2.487,1.016,6.063,1.785,8.629,0.934
			c2.855-0.946,4.666-3.527,6.357-5.779c2.243-2.988,3.719-6.089,5.244-9.492c-0.007-0.131-0.013-0.132-0.019-0.004
			c1.56,4.63,7.344,9.538,3.02,14.65c-4.54,5.367-10.278-2.052-11.421-6.398"/>
		<path class="pen-stroke" style="clip-path:url(#mask_slogan_dot);" id="path_slogan_18" d="M524.596,68.073c-0.041-0.217-0.155-0.332-0.344-0.345
			c-0.349,0.145,0.603-0.029,0.38-0.012c-0.569-0.138-0.474,0.011-0.956,0.184c0.142,0.182,0.378,0.416,0.558,0.554
			c0.316-0.335,0.283-0.232,0.331-0.715c-0.097-0.049-0.486,0.055-0.327,0.156"/>
		<path class="pen-stroke" id="path_slogan_19" style="clip-path:url(#mask_slogan_underline);" d="M13.724,107.03c0,0,15.707-5.32,26.022-5.32s65.337-4.587,70.394-4.587
			c5.057,0,60.326-4.696,62.493-5.057s60.687-3.974,63.577-3.974c2.89,0,74.414,0,77.665,0.361
			c3.251,0.361,73.331-2.167,75.498-2.167c2.167,0,61.41,1.445,63.577,1.445c2.167,0,57.436,4.335,61.771,4.696
			c4.335,0.361,42.264,1.084,42.264,1.084"/>
	</g>
</g>
</svg>
