<svg version="1.1" id="splash-slogan" xmlns="http://www.w3.org/2000/svg" xmlns:xlink="http://www.w3.org/1999/xlink" x="0px" y="0px"
	 viewBox="0 0 325.347 60.785" style="enable-background:new 0 0 325.347 60.785;"
	 xml:space="preserve">
<g id="clip_slogan">
	<defs>
		<path id="mask_slogan_part_1_" d="M26.873,8.835c-4.094-5.702-10.862,2.262-13.381,5.615c-3.939,5.245-6.729,11.811-5.664,18.437
			c1.156,7.194,8.251,0.03,10.307-2.199c1.601-1.735,2.89-3.768,3.914-5.954c-0.433,3.41-0.727,6.843-1.041,10.327
			c-0.365,4.048-1.292,7.892-2.363,11.798c-0.994,3.623-4.015,4.368-6.112,1.423c-1.384-1.944-1.27-4.978-0.41-7.078
			c0.454-1.11-0.559-0.649-0.851,0.064c-1.284,3.138-1.097,6.49,0.895,9.287c1.762,2.474,4.574,1.507,5.904-0.667
			c2.513-4.108,3.231-9.387,3.83-14.071c0.661-5.161,0.977-10.217,1.744-15.267c0.745-2.429,1.231-4.926,1.501-7.328
			c0.106-0.94-0.934,0.316-1.026,0.652c-0.643,2.356-1.124,4.711-1.514,7.071c-0.781,2.389-1.84,4.683-3.226,6.849
			c-1.654,2.585-7.171,9.433-10.12,5.114C4.151,25.429,20.193,2.307,25.877,10.225C26.208,10.685,27.173,9.253,26.873,8.835z"/>
	</defs>
	<defs>
		<path id="mask_slogan_part_2_" d="M71.531,13.653c-0.119-0.683-1.147,0.673-1.064,1.149c0.018,0.105-3.777,1.601-4.502,2.144
			c-1.047,0.784-2.534,1.573-4.07,2.01c0.389-3.263,0.269-6.658,0.242-10.001c-0.006-0.691-1.02,0.665-1.063,0.992
			c-0.407,3.139-0.801,6.247-1.115,9.347c-0.954,0.048-1.862-0.105-2.625-0.553c-0.447-0.263-1.315,1.27-0.854,1.541
			c1.066,0.627,2.19,0.749,3.323,0.581c-0.132,1.464-0.246,2.926-0.32,4.389c-0.023,0.054-0.042,0.109-0.066,0.164
			c-0.938,2.152-3.33,5.448-6.138,4.581c-1.998-0.617-1.701-4.839-1.712-6.361c-0.002-0.356-0.331-0.099-0.623,0.276
			c-0.078-0.395-0.177-0.774-0.292-1.13c-1.433-4.425-5.374,1.11-6.118,2.842c-0.698,1.623-0.954,3.453-0.51,4.829
			c-0.486-0.393-0.935-0.925-1.298-1.652c-0.124-0.248-0.465,0.033-0.562,0.151c-0.7,0.855-0.991,1.23-1.603,2.148
			c-2.338,0.874-3.832,0.794-4.491-0.232c1.092,0.035,2.456-1.92,2.839-2.725c1.444-3.032,0.204-8.144-2.752-3.722
			c-0.636,0.951-1.147,2.203-1.403,3.494c-1.948,3.153,0.658-0.088-2.77,0.204c-1.162,0.099-1.892,0.226-2.903,0.857
			c-0.406,0.253-0.729,0.576-0.996,0.94c0.023-1.245,0.151-4.002,0.702-4.573c0.388-0.402,0.667-1.91-0.128-1.087
			c-2.532,2.623-1.796,8.339-1.663,11.964c0.009,0.315,0.017,0.618,0.02,0.898c0.007,0.64,1.064-0.68,1.064-1.149v-3.508
			c0.134-0.998,0.481-1.905,1.299-2.416c1.03-0.642,3.449,0.132,5.268,0.572c0.248,1.734,1.203,3.177,3.27,3.569
			c1.75,0.332,3.746-4.124,4.398-2.82c1.119,2.238,3.487,2.068,5.326,1.179c0.139-0.011,0.271-0.013,0.42-0.034
			c1.472-0.21,2.321-1.438,2.815-2.954c0.355,1.269,1.038,2.257,2.348,2.219c2.03-0.058,3.68-1.432,4.902-2.977
			c0.489-0.619,0.91-1.257,1.289-1.907c-0.153,4.746,0.088,9.503,1.068,14.335c0.155,0.762,1.064-0.778,1.064-1.149v-1.761
			c0-0.233-0.146-0.2-0.33-0.043c-0.764-4.603-0.891-9.152-0.676-13.698c0.54-1.364,0.901-2.778,1.147-4.222
			c1.805-0.683,3.567-1.812,5.09-2.531C68.249,17.126,71.928,15.927,71.531,13.653z M47.615,30.922
			c-0.409,0.037-0.87-0.007-1.402-0.17c-2.634-0.81-1.005-4.944-0.268-6.405c2.325-4.609,3.961,0.391,4.132,1.855
			C50.341,28.462,49.161,30.227,47.615,30.922z"/>
	</defs>
	<defs>
		<path id="mask_slogan_part_3_" d="M89.137,29.537c-1.874,1.772-3.921,3.434-6.555,2.122c-1.82-0.907-2.112-3.413-1.975-5.511
			c1.248,0.165,2.167-0.383,2.859-2.061c0.708-1.716,1.76-3.794,0.291-5.345c-0.075-0.031-0.149-0.026-0.222,0.015
			c-1.867,0.703-3.067,3.009-3.653,5.356c-0.079-0.029-0.156-0.05-0.235-0.087c-0.427-0.194-0.846,0.73-0.922,1.004
			c-0.687,2.482-1.759,8.887-5.067,5.182c-1.423-1.594-1.461-4.158-2.161-6.111c-0.037-0.068-0.094-0.1-0.172-0.095
			c-1.108-0.02-1.924,1.446-2.51,3.31c0.159-1.709,0.43-3.407,0.918-5.102c0.316-1.097-0.837-0.062-0.99,0.468
			c-1.14,3.963-1.205,7.986-1.211,12.084c-0.001,0.654,1.038-0.611,1.063-0.992c0.151-2.292,0.8-4.613,1.455-6.806
			c0.278-0.932,1.567,2.467,1.627,2.634c0.542,1.513,1.274,2.556,2.607,3.401c4.089,2.59,4.809-4.01,5.219-7.144
			c0.017,0.006,0.035,0.014,0.052,0.02c-0.105,0.864-0.127,1.679-0.059,2.355c0.183,1.832,0.965,5.289,3.372,5.503
			c2.69,0.239,4.535-1.351,6.398-3.112C89.676,30.235,89.968,28.75,89.137,29.537z M83.005,22.855
			c-0.543,0.979-1.3,1.451-2.168,1.446c0.009-0.048,0.018-0.101,0.027-0.147C81.55,20.642,82.487,23.791,83.005,22.855z"/>
	</defs>
	<defs>
		<path id="mask_slogan_part_4_" d="M92.914,25.207c-1.208-0.74-2.406-0.522-3.725-0.808c-1.48-0.321,2.432-2.264,3.208-2.335
			c0.536-0.05,1.157-1.628,0.651-1.581c-2.399,0.221-5.212,2.244-5.554,4.731c-0.017,0.121-0.008,0.276,0.104,0.352
			c1.443,0.99,3.364,0.509,4.92,1.463c0.951,0.583,1.562,1.523,2.055,2.489c0.667,1.305,0.194,3.287-1.479,2.785
			c-0.197-0.059-2.169-1.173-1.62-1.551c0.389-0.268,0.924-1.878,0.146-1.343c-0.783,0.539-1.239,1.149-1.449,2.08
			c-0.243,1.082,0.773,1.594,1.523,2.091c1.815,1.201,3.906-0.103,4.316-2.078C96.54,28.967,95.057,26.52,92.914,25.207z"/>
	</defs>
	<defs>
		<path id="mask_slogan_part_5_" d="M107.934,33.029c-0.551-2.558-1.897-4.609-3.603-6.557c-0.566-0.646-1.18-1.251-1.786-1.859
			c-0.23-0.139-0.46-0.279-0.69-0.418c-0.64-1.754-0.363-2.638,0.829-2.653c0.476-0.078,0.976-0.063,1.457-0.065
			c0.527-0.003,1.193-1.584,0.651-1.581c-2.495,0.014-4.816,0.867-5.121,3.67c-0.171,1.574,1.948,2.509,2.837,3.413
			c1.698,1.728,3.201,3.655,3.996,5.931c-2.469,0.03-4.514-1.09-5.65-3.525c-0.209-0.448-1.225,0.899-0.995,1.39
			c1.366,2.928,4.088,4.1,7.218,3.618C107.542,34.322,108.03,33.473,107.934,33.029z"/>
	</defs>
	<defs>
		<path id="mask_slogan_part_6_" d="M130.945,34.608c-0.63,4.281-3.523,2.175-4.556,0.592c-0.911-1.396-0.478-3.514-0.266-5.058
			c0.346-2.529,1.037-4.958,1.186-7.525c0.056-0.962-0.932,0.327-1.026,0.652c-0.423,1.472-2.023,8.814-4.464,8.37
			c-0.481-0.087-1.243,1.473-0.651,1.581c1.631,0.297,2.899-1.316,3.858-3.382c-0.57,3.066-0.745,6.18,1.229,7.9
			c2.791,2.43,5.362-1.322,5.751-3.965C132.14,32.859,131.011,34.153,130.945,34.608z"/>
	</defs>
	<defs>
		<path id="mask_slogan_part_7_" d="M139.459,30.413c-0.427-0.512-1.106-0.808-1.685-1.103c-3.136-1.593-0.544-5.277,2.183-5.485
			c0.535-0.041,1.164-1.62,0.651-1.581c-2.267,0.173-3.733,1.812-4.76,3.711c-1.037,1.918-1.03,3.07,0.604,4.457
			c1.22,1.035,2.55,1.328,2.711,3.178c0.091,1.047,0.402,1.316-0.88,1.434c-1.278,0.118-4.223-1.058-3.087-2.806
			c0.413-0.636,0.258-1.763-0.397-0.755c-0.79,1.216-1.456,2.943-0.176,4.102c1.12,1.013,2.896,1.375,4.277,0.701
			c1.255-0.613,1.822-2.331,1.404-3.606C140.014,31.774,140.098,31.179,139.459,30.413z"/>
	</defs>
	<defs>
		<path id="mask_slogan_part_8_" d="M128.476,16.619c-0.196,0.196-0.391,0.391-0.587,0.587c-0.261,0.261-0.513,0.737-0.468,1.118
			c0.047,0.404,0.443,0.121,0.596-0.031l0.587-0.587c0.261-0.261,0.513-0.737,0.468-1.118
			C129.024,16.184,128.628,16.467,128.476,16.619z"/>
	</defs>
	<defs>
		<path id="mask_slogan_part_9_" d="M163.507,14.024c-0.6,0.015-1.05,0.558-1.278,1.131c-0.354,0.043-0.716,0.043-1.07,0.044
			c-0.526,0-1.195,1.581-0.651,1.581c0.658,0,1.358,0.018,1.964-0.279c0.746-0.367,1.211-1.301,1.241-2.103
			C163.718,14.247,163.717,14.019,163.507,14.024z"/>
	</defs>
	<defs>
		<path id="mask_slogan_part_10_" d="M178.971,31.298c-2.591,1.041-3.862,0.545-3.812-1.489c-0.046-0.626-0.118-1.249-0.216-1.869
			c-0.138-1.01-0.536-1.606-1.353-2.152c-0.109-0.073-0.276,0.036-0.354,0.099c-1.206,0.971-1.873,2.203-2.571,3.58
			c-0.303,0.598-0.575,1.214-0.863,1.82c-0.022,0.064-0.049,0.126-0.072,0.191c0.439-3.46,0.485-7.655-0.767-10.312
			c-0.221-0.469-0.867,0.589-0.923,0.727c-0.846,2.072-1.197,4.202-1.644,6.39c-0.444,2.174-4.009,10.365-6.24,5.213
			c-0.849-1.96-0.832-4.029-0.464-6.073c0.774-1.854,1.192-4.048,1.635-5.796c0.288-1.137-0.828-0.02-0.99,0.468
			c-0.142,0.429-0.44,1.468-0.754,2.808c-0.263,0.886-0.549,1.764-0.886,2.627c-0.772,2.067-2.659,3.853-4.291,5.444
			c-0.031,0.027-0.061,0.052-0.097,0.087c-0.046,0.046-0.076,0.08-0.114,0.12c-0.16,0.157-0.321,0.314-0.474,0.467
			c-0.396,0.397-0.682,1.897,0.128,1.087l0.587-0.587c0.163-0.163,0.306-0.513,0.363-0.812c0.489-0.263,1.01-0.596,1.126-0.715
			c1.013-1.046,1.901-2.164,2.756-3.337c0.04-0.054,0.072-0.118,0.11-0.174c-0.584,4.279-0.378,8.672,3.179,7.583
			c4.473-1.369,5.275-8.783,6.374-13.108c1.07,3.591,0.318,9.342-0.375,12.601c-0.221,1.039,0.742,0.233,0.92-0.266
			c0.648-1.808,1.277-3.679,2.101-5.412c0.688-1.449,2.663-3.057,3.015-0.479c0.082,0.6,0.053,1.291,0.229,1.877
			c0.936,3.113,3.232,2.399,4.862,0.48C179.451,31.97,179.708,30.43,178.971,31.298z"/>
	</defs>
	<defs>
		<path id="mask_slogan_part_11_" d="M220.928,33.435c-1.672,0.517-2.805,0.502-4.476-0.015c-0.206-0.08-0.402-0.173-0.591-0.277
			c1.741-2.114,3.486-5.264,2.423-7.281c-2.045-3.882-5.237,1.832-5.53,3.614c-0.309,1.882,0.224,3.325,1.225,4.309
			c-2.187,0.651-3.935-3.775-5.09-5.574c-0.076-0.118-0.175-0.104-0.292-0.061c-1.238,0.456-1.936,1.577-2.663,2.624
			c-0.892,1.284-0.986,2.715-0.703-0.501c0.139-1.587,0.169-2.97,0.207-4.603c0.037-1.589,0.19-3.253,0.394-4.916
			c0.255-0.276,0.499-0.562,0.717-0.872c2.877-4.091,2.37-9.674,2.375-14.449c0.001-0.694-1.016,0.675-1.063,0.992
			c-0.324,2.187-1.293,4.372-1.697,6.605c-0.402,2.222-0.623,4.5-0.909,6.755c-0.482,0.529-1.043,1.013-1.715,1.434
			c-1.263,0.792-2.652,1.382-4.074,1.901c0.045-0.742,0.076-1.465,0.097-2.15c0.059-1.96,0.234-15.945,2.631-15.935
			c0.525,0.002,1.197-1.579,0.651-1.581c-3.14-0.013-3.494,7.649-3.719,9.502c-0.377,3.11-0.547,6.252-0.641,9.383
			c-0.011,0.357-0.027,0.744-0.047,1.144c-1.125,0.386-2.255,0.747-3.346,1.144c-0.454,0.165-1.073,1.752-0.411,1.511
			c1.139-0.414,2.396-0.806,3.669-1.242c-0.277,3.653-1.014,8.2-2.94,10.511c-0.348,0.417-0.601,1.961,0.128,1.087
			c2.519-3.022,3.457-7.71,3.824-11.954c2.048-0.744,4.065-1.652,5.644-2.995c-0.1,0.656-0.2,1.312-0.331,1.957
			c-0.529,2.603-1.355,7.688-0.303,10.208c0.143,0.343,0.616-0.213,0.696-0.317c0.351-0.455,2.624-4.108,3.308-3.042
			c0.636,0.992,1.006,2.177,1.574,3.213c0.694,1.267,2.911,2.385,4.241,1.297c0.164-0.134,0.345-0.3,0.531-0.479
			c1.536,0.991,3.717,1.207,5.796,0.564C220.977,34.804,221.613,33.223,220.928,33.435z M206.648,15.277
			c0.292-1.745,0.775-3.438,1.238-5.131c-0.01,3-0.253,6.08-1.765,8.489C206.289,17.495,206.466,16.364,206.648,15.277z
			 M216.327,31.118c-0.352,0.705-0.696,1.245-1.032,1.659c-0.36-0.272-0.684-0.595-0.971-0.973
			C212.925,28.897,213.592,28.669,216.327,31.118z"/>
	</defs>
	<defs>
		<path id="mask_slogan_part_12_" d="M264.964,19.343c-1.568,0.606-3.127,2.041-4.839,2.254c0.069-1.479,0.166-2.956,0.261-4.433
			c0.12-1.516,0.187-3.032,0.206-4.528c0.012-0.949-1.054,0.362-1.061,0.836c-0.01,0.665-0.035,1.33-0.061,1.994
			c-0.093,2.058-0.306,4.089-0.633,6.111c-1.443-0.131-2.867-0.456-4.32-0.506c-0.52-0.018-1.207,1.562-0.651,1.581
			c1.581,0.054,3.131,0.356,4.702,0.504c-0.177,0.898-0.378,1.795-0.612,2.692c-0.344,1.25-0.77,2.47-1.277,3.661
			c-0.549,2.73-2.376,3.512-5.479,2.346c-0.043-0.246-0.096-0.484-0.147-0.723c0.471-0.631,0.782-1.377,0.988-2.494
			c0.159-0.861,0.467-5.102-1.317-4.015c-1.493,0.91-1.75,4.018-1.237,6.717c-1.055,0.243-2.383-0.301-3.018-1.367
			c-1.253-2.105-2.302-5.677-2.601-9.109c0.271-2.356,0.477-4.724,0.872-7.054c0.153-0.9-0.843,0.206-0.956,0.45
			c-0.886,1.905-1.054,4.193-0.933,6.465c-0.294,2.384-0.611,4.765-1.158,7.137c-0.047,0.205-0.102,0.42-0.161,0.639
			c-0.135-0.405-0.308-0.795-0.546-1.145c-1.312-1.924-4.145,0.417-5.113,1.427c-1.715,1.79-2.137,4.845-0.955,6.195
			c-0.041,0.395,0.046,0.731,0.362,0.918c2.211,1.315,4.536-0.881,5.649-2.589c0.576-0.884,0.877-1.971,0.884-3.05
			c0.178-0.521,0.34-1.027,0.492-1.48c0.438-1.305,0.749-2.633,0.996-3.974c0.053,0.358,0.107,0.71,0.16,1.051
			c0.219,1.42,2.454,9.382,5.373,7.247c0.337-0.246,0.631-0.469,0.906-0.686c0.615,2.186,1.751,3.805,3.113,3.187
			c2.826-1.282,4.107-4.724,5.176-7.408c0.395-0.99,0.718-2.008,1.006-3.038c0.128,2.3,0.658,4.421,0.958,6.726
			c-0.387,0.443-0.665,1.338-0.255,1.338h0.587c0.502,0,0.893-0.964,0.858-1.365c-0.261-2.999-1.079-5.646-1.1-8.659
			c1.409-0.219,3.224-1.858,4.473-2.341C265.004,20.68,265.616,19.091,264.964,19.343z M239.247,33.08
			c-0.587,0.586-1.275,0.952-2.075,0.936c-0.138-0.315-0.272-0.712-0.399-1.21c0.484-0.611,0.344-1.692-0.397-0.755
			c-0.103,0.13-0.303,0.404-0.523,0.748c-0.141-3.285,1.08-4.74,3.672-4.354c0.293,0.304,0.587,0.609,0.88,0.913
			C239.998,30.949,239.612,32.182,239.247,33.08z M250.827,30.125c-0.189-0.806-0.371-1.609-0.443-2.479
			c0.469-1.159,0.69-1.238,0.664-0.235c0.045,0.691,0.022,1.378-0.07,2.063C250.954,29.718,250.898,29.93,250.827,30.125z"/>
	</defs>
	<defs>
		<path id="mask_slogan_part_13_" d="M297.479,24.026c-0.089-0.086-0.295,0.048-0.354,0.099c-0.667,0.58-1.134,1.077-1.499,1.921
			c-0.767,1.772-1.51,3.162-2.532,4.604c-0.092-0.239-0.173-0.468-0.241-0.677c-0.135-0.416-1.165,0.867-0.995,1.39
			c0.068,0.208,0.146,0.411,0.232,0.609c-0.031,0.039-0.059,0.076-0.091,0.116c-3.578,4.398-7.842-0.186-9.805-3.134
			c-0.035-0.052-0.063-0.108-0.095-0.161c0.626-1.938,1.069-3.945,1.329-5.945c0.377-2.909,0.839-6.95,0.067-9.781
			c-0.054-0.196-0.131-0.24-0.327-0.181c-2.263,0.687-2.644,4.27-2.942,6.199c-0.557,3.617-0.509,7.233,0.813,10.436
			c-0.368,1.054-0.796,2.085-1.262,3.023c-1.495,3.007-2.706-0.835-2.806-1.624c-0.211-1.659,0.169-3.596,0.615-5.183
			c0.254-0.904-0.579-0.393-0.818,0.055c-0.603,1.126-0.924,2.345-1.28,3.567c-0.633,2.167-3.259,5.795-4.294,1.39
			c-0.215-0.916-0.191-1.893-0.132-2.862c0.068-0.584,0.095-1.174,0.102-1.746c0.006-0.561-0.358-0.333-0.661,0.045
			c-0.163-0.389-0.382-0.709-0.682-0.905c-1.032-0.671-2.078-0.25-2.898,0.619c-0.09-0.16-0.285-0.147-0.597,0.281
			c-0.881,1.207-1.658,2.839-1.443,4.39c0.203,1.461,1.612,4.353,3.604,3.409c0.67-0.318,1.251-1.191,1.669-2.271
			c0.109,0.687,0.287,1.365,0.599,2.023c0.633,1.335,2.582,1.064,3.377,0.111c0.832-0.998,1.366-2.11,1.798-3.289
			c-0.022,0.501-0.033,1.005-0.021,1.516c0.03,1.199,0.942,3.747,2.621,2.951c1.45-0.687,2.156-2.564,2.729-3.927
			c0.084-0.199,0.15-0.407,0.229-0.608c0.521,1.022,1.181,1.997,2.016,2.906c3.374,3.672,6.377,1.769,8.907-0.78
			c1.509,2.668,4.63,3.879,6.775,0.765C300.752,31.094,299.273,25.76,297.479,24.026z M269.511,28.306
			c0.006,0.471-0.024,0.941-0.045,1.411c-0.131,0.26-0.261,0.521-0.392,0.781C266.656,31.13,266.801,30.399,269.511,28.306z
			 M281.157,19.398c0.078-1.463,1.803-6.964,1.441-2.465c-0.249,3.094-0.031,6.201-0.641,9.262c-0.101,0.509-0.227,1.029-0.37,1.551
			C280.643,25.232,281.026,21.867,281.157,19.398z M296.779,33.698c-1.592,0.4-2.652-0.873-3.315-2.208
			c0.452-0.497,0.887-0.993,1.304-1.453c0.328-0.362,0.476-0.851,0.658-1.29c0.214-0.62,0.433-1.238,0.658-1.854
			c1.659-0.322,2.371,0.388,2.133,2.131C298.455,30.585,299.105,33.113,296.779,33.698z"/>
	</defs>
	<defs>
		<path id="mask_slogan_part_14_" d="M305.011,34.574h-1.174c-0.526,0-1.195,1.581-0.651,1.581h1.174
			C304.885,36.155,305.554,34.574,305.011,34.574z"/>
	</defs>
	<defs>
		<path id="mask_slogan_part_15_" d="M322.411,49.424c-26.393-0.006-52.632-3.789-79.036-4.08c-26.247-0.289-52.454,1.459-78.708,1.261
			c-12.954-0.098-26.088-0.69-39.026-0.01c-12.719,0.668-25.35,2.006-38.03,3.166c-13.057,1.194-26.132,1.868-39.223,2.552
			c-6.279,0.328-12.551,0.751-18.807,1.381c-6.563,0.661-13.015,2.035-19.583,2.648c-0.537,0.05-1.156,1.628-0.651,1.581
			c5.998-0.56,11.894-1.767,17.873-2.463c6.813-0.793,13.67-1.197,20.517-1.566c13.091-0.707,26.162-1.38,39.223-2.552
			c12.682-1.138,25.31-2.494,38.03-3.166c12.937-0.683,26.072-0.09,39.026,0.01c26.256,0.203,52.458-1.461,78.708-1.261
			c26.407,0.201,52.64,4.073,79.036,4.08C322.286,51.005,322.955,49.424,322.411,49.424z"/>
	</defs>
	<clipPath id="mask-slogan">
		<use xlink:href="#mask_slogan_part_1_"  style="overflow:visible;"/>
		<use xlink:href="#mask_slogan_part_2_"  style="overflow:visible;"/>
		<use xlink:href="#mask_slogan_part_3_"  style="overflow:visible;"/>
		<use xlink:href="#mask_slogan_part_4_"  style="overflow:visible;"/>
		<use xlink:href="#mask_slogan_part_5_"  style="overflow:visible;"/>
		<use xlink:href="#mask_slogan_part_6_"  style="overflow:visible;"/>
		<use xlink:href="#mask_slogan_part_7_"  style="overflow:visible;"/>
		<use xlink:href="#mask_slogan_part_8_"  style="overflow:visible;"/>
		<use xlink:href="#mask_slogan_part_9_"  style="overflow:visible;"/>
		<use xlink:href="#mask_slogan_part_10_"  style="overflow:visible;"/>
		<use xlink:href="#mask_slogan_part_11_"  style="overflow:visible;"/>
		<use xlink:href="#mask_slogan_part_12_"  style="overflow:visible;"/>
		<use xlink:href="#mask_slogan_part_13_"  style="overflow:visible;"/>
		<use xlink:href="#mask_slogan_part_14_"  style="overflow:visible;"/>
		<use xlink:href="#mask_slogan_part_15_"  style="overflow:visible;"/>
	</clipPath>
	<path class="pen-stroke" id="path_slogan" style="clip-path:url(#mask-slogan);fill:none;" d="M27.631,10.685c0,0-0.615-1.947-2.356-2.459
		c-1.742-0.512-3.483-0.512-4.713,0.307c-1.229,0.82-4.303,2.971-5.02,3.893c-0.717,0.922-4.303,5.942-4.713,6.66
		c-0.41,0.717-2.664,6.045-2.869,7.479C7.755,28,7.857,30.868,8.267,32.405s1.025,2.664,2.356,2.561s3.893-1.229,4.918-2.152
		c1.025-0.922,3.586-3.279,4.098-4.508c0.512-1.229,1.537-2.459,2.254-4.406s1.229-3.893,1.537-5.225
		c0.307-1.332,0.922-3.381,1.127-5.123c0.205-1.742-0.102-1.025-0.102-1.025s-2.561,19.262-2.766,19.876
		c-0.205,0.615-1.947,12.602-2.254,13.524c-0.307,0.922-2.459,5.225-3.996,5.02s-3.483-1.229-3.791-2.766
		c-0.307-1.537-1.127-6.147,0.102-7.684s16.29-19.262,16.803-18.954s0.307,2.254-0.205,3.381c-0.512,1.127-0.82,3.688-0.922,4.713
		c-0.102,1.025,0.307,7.992,0.307,7.992s-1.537-6.865,2.152-8.299c0,0,3.483,0.307,5.02,0.41s2.971-0.82,3.586-2.152
		c0.615-1.332,0.717-4.406-0.102-4.201c-0.82,0.205-2.766,1.947-2.971,3.586c-0.205,1.639-0.615,4.406,0.82,5.533
		c1.434,1.127,2.356,0.307,3.381-0.307s2.356-1.742,2.664-2.049c0.307-0.307,1.639,1.844,2.664,1.947
		c1.025,0.102,4.406-0.307,5.02-2.254c0.615-1.947,1.229-5.43-0.41-7.274c-1.639-1.844-3.176,0.615-4.303,2.152
		c0,0-1.947,4.508,0,6.25c1.947,1.742,4.713,0.205,5.533-2.869s-0.205,2.254,2.049,2.459c2.254,0.205,4.918-0.717,6.455-4.201
		c0,0,2.766-11.065,2.254-17.827c0,0-3.791,25.921-0.205,32.991l-0.307-21.926c0,0-1.332,1.127-4.201,0c0,0,2.869,1.332,8.196-1.434
		c5.328-2.766,5.635-3.279,6.762-4.918s0.512,3.176,0.512,3.176l-2.971,4.611c0,0-1.639,9.733-1.332,13.627
		c0.307,3.893,0.205,1.229,0.205,1.229s-0.205-8.811,2.356-10.963c0,0,0.922,4.713,4.303,7.069c0,0,1.947,1.844,3.279-2.561
		l1.332-4.815c0,0,1.127,1.434,2.459,0.307c0,0,2.561-2.869,1.639-5.225c0,0-1.844,0.41-2.766,3.279c0,0-2.356,4.815,0.82,8.914
		c0,0,3.137,3.381,7.511-2.356c0,0,1.403-1.025,2.427-1.025c1.025,0,0.629-0.46,0.058,0.897c-0.571,1.357-1.698,2.484,0.351,3.509
		c2.049,1.025,2.971,0.717,3.279-1.127c0.307-1.844-0.717-5.942-3.688-6.25s-3.996-0.307-3.279-1.434
		c0.717-1.127,2.766-2.766,5.02-3.074c2.254-0.307,5.43,6.762,6.762,8.811s5.02,4.406,6.147,3.791
		c1.127-0.615,2.664,0.82,0.41-2.664c-2.254-3.483-3.791-5.43-4.815-6.25c-1.025-0.82-1.537-1.742-0.922-2.664
		c0.615-0.922,2.049-1.844,4.098-1.742c2.049,0.102,14.344,12.09,15.983,12.09s4.611-1.434,5.738-9.938
		c1.127-8.504,0.714-4.142,0.714-4.142l1.651-1.736c0,0-3.288,11.309-3.595,12.948c-0.307,1.639-0.717,6.455,1.127,7.479
		c0,0,3.688,3.483,4.918-3.483c0,0,0.41-3.688,1.332-3.893c0.922-0.205,2.664,0.922,2.459,1.537
		c-0.205,0.615-1.127,1.742-0.717,2.664s1.742,2.254,2.869,2.049c1.127-0.205,2.664-0.615,2.356-2.254
		c-0.307-1.639-1.537-2.664-2.561-3.586c-1.025-0.922-1.537-2.049-1.434-2.869c0.102-0.82,1.127-3.074,2.356-3.586
		c1.229-0.512,1.537-1.025,2.869-0.922c1.332,0.102,10.963,11.577,11.68,11.782c0.717,0.205,0.307,0.717,1.639-0.82
		s1.844-1.537,2.869-3.074c1.025-1.537,3.586-5.942,3.688-9.119c0.102-3.176-3.483-5.328-2.254-5.635s1.947,0.41,2.971,0.102
		c1.025-0.307,1.678-0.903,1.864-1.886c0.185-0.983,1.312-1.802,1.722-0.573s1.537,3.586-0.205,5.84s-6.455,5.02-6.147,11.782
		c0,0,0.307,5.225,2.152,5.02c1.844-0.205,2.561-0.615,3.176-1.639c0,0,2.049-3.483,2.459-5.84s1.127-5.328,1.947-6.865
		c0,0,0.82,3.381,0.82,5.43s-1.025,9.221-1.434,10.348c-0.41,1.127,0.82-6.352,5.225-10.348c0,0,0.717-2.356,1.639,4.611
		c0,0,0.512,2.049,2.869,0.717c2.356-1.332,3.176-1.742,3.176-1.742l2.356-20.389c0,0-0.41-10.553-0.41-10.86
		s13.729-4.406,13.729-4.406l8.504,1.947l2.459,2.971c0,0-3.688,3.688-4.815,4.201s-1.947,0.512-2.459,2.766
		c-0.512,2.254-1.127,12.5-1.332,14.856s0.41,8.504-3.484,14.036c-3.893,5.533-2.971,3.279-2.971,3.279l-1.229-9.016l0.922-4.713
		l2.459-0.205c0,0,5.225-1.229,7.479-2.459s4.303-3.279,4.815-4.713c0.512-1.434,1.639-3.893,1.434-7.172s0.205-5.225,0.205-5.225
		s-1.025,4.201-1.537,5.84c-0.512,1.639-1.742,10.553-2.254,13.524s0,7.787,0,7.787s2.459-3.381,3.381-3.483
		c0.922-0.102,1.229,2.254,2.356,3.483c1.127,1.229,2.152,2.356,2.869,1.844s4.406-3.688,4.406-6.762s-0.41-3.074-1.537-2.561
		c-1.127,0.512-2.459,2.356-2.766,3.176c-0.307,0.82-0.717,4.713,2.766,5.84c3.483,1.127,4.303,0,5.942-0.307
		c1.639-0.307,6.455,3.279,10.655,4.918c4.201,1.639,8.299,0.82,9.016-1.844c0.717-2.664-0.41-6.147-0.717-7.684
		c-0.307-1.537,0-3.279-2.152-2.254c-2.152,1.025-3.688,2.049-3.893,3.483c-0.205,1.434-0.82,4.201,0.717,4.406
		c1.537,0.205,3.381-0.82,4.303-2.254c0.922-1.434,2.254-6.147,2.664-8.504s1.127-12.09,1.127-12.09s-1.947,10.45,0.717,15.983
		c2.664,5.533,1.844,3.893,2.664,4.098c0.82,0.205,1.947-0.41,2.561-1.025c0.615-0.615,1.742-1.434,1.844-3.586
		c0.102-2.152-0.205-3.074-0.717-2.561c-0.512,0.512-1.332,1.639-1.332,2.766s1.127,6.147,2.561,6.557
		c1.434,0.41,3.176-1.742,3.893-2.869c0.717-1.127,3.074-6.352,3.586-12.807s0.102-8.299,0.102-8.299s0,18.954,0.82,21.823
		s0.41,4.713,0.41,4.713l-13.831-13.832l3.688-1.844c0,0,2.152,0.205,3.586,0.41c1.434,0.205,5.02,0.82,6.147,0.307
		s4.611-2.664,5.225-2.869c0.615-0.205,8.094,4.201,8.094,4.201l-3.586,6.865c0,0,0.512-3.688-1.025-4.098s-3.176,0.102-3.483,1.844
		c-0.307,1.742-0.41,4.713,0.82,4.918c1.229,0.205,2.459-0.512,2.869-1.332c0.41-0.82,0.82-0.82,1.025,0
		c0.205,0.82,0.717,2.356,1.742,2.049c1.025-0.307,2.049-0.717,2.254-1.537c0.205-0.82,1.768-5.442,2.216-6.307
		s-0.679,4.053-0.372,5.795c0.307,1.742,0.82,2.971,1.639,2.664c0.82-0.307,1.742-0.615,2.356-2.152
		c0.615-1.537,1.127-3.074,1.639-4.815c0.512-1.742,1.537-10.758,1.229-11.987s-0.717-1.537-1.127-0.922
		c-0.41,0.615-1.025,1.844-1.229,2.971c-0.205,1.127-0.82,3.483-0.615,4.815c0.205,1.332,0.102,5.635,2.459,8.709
		s3.791,4.201,5.225,3.688c1.434-0.512,2.459-0.512,3.791-1.947c1.332-1.434,2.152-2.356,2.869-3.893s1.742-3.279,2.152-3.688
		s2.049,1.434,2.049,2.459c0,1.025,0.512,2.971,0.205,4.098c-0.307,1.127-0.102,2.152-1.537,2.561
		c-1.434,0.41-1.947,0.512-3.176-0.41s-1.844-2.049-2.152-2.971c-0.307-0.922-0.512-1.537-0.922-3.074s-1.434-4.303,0.102-5.738
		s4.713-3.279,5.43-3.279c0.717,0,2.869-0.615,3.381,1.229c0.512,1.844,1.434,2.356,1.844,4.303s1.127,4.201,1.229,5.328
		c0.102,1.127,0.307,3.074,0.41,3.586c0.102,0.512,0.503,1.455,0.712,3.033s4.718,4.652,6.664,3.525
		c1.947-1.127,8.857-45.777,5.99-44.056C314.146-2.656,0.978,8.242,0.978,8.242v48.753l7.037,0.19l29.663-3.318l40.591-2.927
		l35.908-2.732l24.004-1.366l31.419,0.39l36.493-0.585l26.15-0.781l20.296,0.39l18.93,1.171l22.833,1.561l29.663,1.171"/>
</g>
</svg>
