<svg version="1.1" id="text_developer" class="description" xmlns="http://www.w3.org/2000/svg" xmlns:xlink="http://www.w3.org/1999/xlink" x="0px" y="0px"
	 viewBox="0 0 91.29 38.796" style="enable-background:new 0 0 91.29 38.796;"
	 xml:space="preserve">
<g id="clip_x5F_teext_x5F_developer">
	<defs>
		<path id="mask_dev_part_1_" d="M17.369,25.594c-1.417,0.73-2.641,0.052-3.437-1.078c0.835,0.083,1.554-0.358,1.827-1.771
			c0.264-1.367,0.695-4.416-0.535-5.459c-1.467-1.245-2.838,3.602-2.971,4.045c-0.107,0.357-0.148,0.729-0.135,1.104
			c-0.096-0.083-0.187-0.166-0.267-0.244c-0.223-0.22-0.584,0.342-0.616,0.497c-0.241,1.173,0.026,2.603-0.496,3.685
			c-1.438,2.979-2.498-0.183-2.777-1.47c-0.368-1.694-0.316-3.844-1.144-5.369c-0.142-0.262-0.477,0.089-0.565,0.208
			c-0.85,1.144-1.109,2.654-1.415,4.062c0.047-2.065,0.196-4.206-0.025-6.225c-0.312-2.847-0.586-5.694-0.664-8.559
			c-0.071-2.581,0.308-5.147-0.014-7.72C4.076,0.823,3.38,1.517,3.424,1.866c0.313,2.5-0.022,5.017,0.002,7.526
			c0.02,2.067,0.21,4.137,0.405,6.193c0.249,2.614,0.265,5.197,0.265,7.819c0,1.111,0.039,2.242,0.047,3.373
			c-0.337,1.628-0.545,3.283-0.38,4.933c0.048,0.477,0.658-0.164,0.7-0.361c0.33-1.553,0.367-3.118,0.364-4.692
			c0.154-0.752,0.335-1.496,0.518-2.224c0.262-1.043,0.494-2.597,1.012-3.719c0.741,2.209,0.177,7.05,2.65,7.766
			c2.221,0.643,2.606-3.061,2.802-5.005c0.211,0.173,0.432,0.333,0.659,0.475c0.815,1.949,2.92,3.453,4.855,2.456
			C17.641,26.243,17.888,25.327,17.369,25.594z M13.089,20.685c0.321-1.069,1.637-3.863,2.06-1.351
			c0.163,0.969,0.079,2.003-0.005,2.978c-0.119,1.377-0.995,1.352-1.865,0.919C12.965,22.342,12.874,21.4,13.089,20.685z"/>
	</defs>
	<defs>
		<path id="mask_dev_part_2_" d="M26.127,17.56c0.267-0.613-0.406-0.536-0.606-0.076c-0.966,2.219-0.125,4.375-0.059,6.669
			c0.017,0.589,0.734-0.009,0.723-0.374C26.126,21.713,25.26,19.554,26.127,17.56z"/>
	</defs>
	<defs>
		<path id="mask_dev_part_3_" d="M27.114,13.033c-0.245-0.243-0.402-0.363-0.752-0.365c-0.376-0.002-0.799,0.889-0.398,0.891
			c0.298,0.002,0.394,0.103,0.605,0.313C26.825,14.126,27.404,13.321,27.114,13.033z"/>
	</defs>
	<defs>
		<path id="mask_dev_part_4_" d="M29.458,16.861c-2.803-1.665,1.712-2.114,1.776-1.768c0.088,0.481,0.776-0.219,0.712-0.568
			c-0.304-1.656-3.593,0.444-4.01,1.223c-0.607,1.134,0.79,1.847,1.56,2.294c0.98,0.569,1.354,1.36,1.598,2.447
			c-0.336,1.44-0.953,1.929-1.851,1.467c-0.274-0.167-0.5-0.388-0.676-0.662c-0.373-0.48-0.553-1.103-0.692-1.682
			c-0.116-0.483-0.794,0.222-0.712,0.568c0.246,1.027,1.11,3.281,2.596,2.808c1.14-0.363,2.15-1.438,2.069-2.709
			C31.718,18.543,30.864,17.696,29.458,16.861z"/>
	</defs>
	<defs>
		<path id="mask_dev_part_5_" d="M55.85,16.922c-0.651,0.628-1.494,0.229-2.163,0.004c-0.648-0.218-1.034-0.597-1.261-1.05
			c0.388-0.531,1.421-0.946,1.93-1.324c0.947-0.704,1.023-1.305,0.947-2.414c-0.053-0.77-0.722-2.147-1.725-1.443
			c-1.107,0.777-1.863,2.079-2.064,3.434c-0.079,0.537-0.108,1.226,0.018,1.86c-0.585,0.879-1.198,1.828-2.118,0.519
			c-0.437-0.621-0.563-1.258-1.346-1.467c-0.165-0.044-0.368,0.169-0.438,0.29c-0.595,1.025-0.795,2.164-1.177,3.248
			c-0.102-1.771,0.05-3.536,0.082-5.314c0.003-0.145,0.008-0.3,0.012-0.453c1.075-1.82,1.795-4.228,1.339-6.088
			c-0.089-0.362-0.486-0.034-0.595,0.128c-1.042,1.561-1.185,3.316-1.305,5.151c-0.017,0.265-0.037,0.531-0.057,0.797
			c-0.483,0.711-1.192,1.28-2.234,1.668c-0.018-2.581-0.213-5.19-0.213-7.646c0-0.588-0.723,0.01-0.723,0.373
			c0,2.396,0.197,4.965,0.224,7.504c-0.923,0.263-2.244,0.518-2.989,0.229c0.197-0.355-0.01-0.794-0.423-0.381
			c-0.113,0.113-0.226,0.226-0.339,0.339c-0.159,0.159-0.304,0.497-0.114,0.68c0.729,0.705,2.387,0.538,3.868,0.051
			c-0.016,1.847-0.146,3.665-0.548,5.373c-0.15,0.639,0.594,0.244,0.688-0.155c0.412-1.753,0.55-3.605,0.57-5.483
			c0.831-0.344,1.537-0.769,1.878-1.16c0.095-0.109,0.185-0.239,0.278-0.359c-0.159,2.114-0.3,4.234-0.035,6.346
			c0.047,0.374,0.509,0.019,0.595-0.129c0.475-0.819,0.727-1.496,0.953-2.437c0.422-1.761,1.01-0.93,1.66-0.005
			c0.538,0.765,1.513,0.944,2.119,0.202c0.257-0.315,0.487-0.635,0.702-0.967c0.203,0.348,0.488,0.636,0.91,0.785
			c1.352,0.478,2.336,0.85,3.409-0.184C56.532,17.092,56.328,16.461,55.85,16.922z M46.916,9.306
			c0.105-0.461,0.247-0.898,0.42-1.307C47.768,10.048,47.154,9.123,46.916,9.306z M52.607,12.722
			c0.661-0.005,1.323-0.011,1.984-0.016c-0.041,0.92-0.495,1.537-1.361,1.848c-0.312,0.204-0.729,0.355-1.022,0.588
			c-0.005,0.004-0.01,0.01-0.016,0.015C52.085,14.367,52.304,13.471,52.607,12.722z"/>
	</defs>
	<defs>
		<path id="mask_dev_part_6_" d="M46.626,34.378c-1.453,0.389-2.391-0.398-3.082-1.478c0.886-1.42,1.033-4.401,1.028-5.282
			c-0.006-1.166-0.821-1.168-1.588-0.678c-0.84,0.538-1.097,1.763-1.226,2.666c-0.111,0.778,0.008,1.679,0.308,2.536
			c-0.444-0.056-0.932-0.329-1.409-0.876c-0.443-0.507-0.84-1.233-1.143-2.052c0.148-0.96,0.221-1.917,0.236-2.919
			c0.016-1.1,0.291-2.217-0.004-3.292c-0.099-0.362-0.478-0.033-0.595,0.129c-1.295,1.786-1.204,4.318-0.36,6.502
			c-0.017,0.095-0.028,0.19-0.047,0.286c-0.175-0.176-0.392-0.316-0.665-0.403c-0.906-0.289-1.688,0.476-2.179,1.516
			c-0.087-0.057-0.224-0.037-0.399,0.133c-1.817,1.761-0.336,6.567,2.198,4.434c0.933-0.786,1.91-3.242,1.507-4.814
			c0.012-0.051,0.026-0.108,0.037-0.156c0.51,0.978,1.166,1.841,1.91,2.46c0.666,0.555,1.198,0.658,1.633,0.493
			c0.84,1.245,2.115,2.077,3.612,1.676C46.739,35.168,47.095,34.253,46.626,34.378z M38.132,30.744
			c0.147,0.185,0.221,0.425,0.271,0.677L38.4,31.429c-0.112,1.118-0.897,1.65-2.354,1.595
			C35.848,32.082,37.148,29.508,38.132,30.744z M35.551,32.003c-0.211,0.781-0.262,1.58-0.094,2.148
			C35.018,33.608,34.914,32.815,35.551,32.003z M36.809,34.838c0.731-0.234,1.233-0.824,1.589-1.542
			C38.184,34.435,37.502,34.864,36.809,34.838z M39.16,24.41c0.057,0.945-0.11,1.995-0.139,2.891
			C38.868,26.284,38.89,25.262,39.16,24.41z M43.852,28.548c0.002,0.483-0.076,0.97-0.079,1.456
			c-0.005,0.867-0.305,1.536-0.762,1.884c-0.22-0.513-0.363-1.051-0.475-1.596c-0.072-0.352-0.09-0.705-0.055-1.059
			C42.406,28.331,42.863,28.102,43.852,28.548z"/>
	</defs>
	<defs>
		<path id="mask_dev_part_7_" d="M67.895,25.039c-0.148-2.327-1.518-4.679-3.566-2.351c-1.443,1.64-2.391,4.039-1.714,6.182
			c-1.152,1.446-2.117,1.51-2.889,0.159c-0.569-0.724-0.917-1.469-1.206-2.321c0.255-1.076,0.563-2.226,0.563-3.268
			c0-1.451,0.695-4.466-0.375-5.603c-0.187-0.198-0.458,0.023-0.565,0.208c-1.359,2.339-1.321,6.034-0.38,8.973
			c-0.164,0.738-0.343,1.482-0.421,2.221c-1.338,2.324-2.579,2.706-3.721,1.146c-0.28-0.305-0.481-0.722-0.615-1.18
			c0.447-0.022,0.876-0.112,1.299-0.426c1.195-0.884,1.851-1.868,1.619-3.377c-0.194-1.259-1.589-1.21-2.321-0.594
			c-1.077,0.906-1.429,2.177-1.453,3.504c-0.23-0.005-0.461-0.007-0.69,0.009c-0.384,0.087-0.884,0.218-1.117,0.577
			c-0.404,0.622-0.599,1.351-0.699,2.106c-0.16-0.789-0.295-1.585-0.516-2.36c-0.261-0.918-0.539-1.884-0.729-2.845
			c0.104-0.14,0.18-0.3,0.165-0.421c-0.06-0.481-0.017-0.355-0.369-0.758c-0.309-0.353-0.711,0.377-0.682,0.647
			c0.17,1.553,0.656,3.075,1.081,4.568c0.379,1.332,0.456,2.696,0.983,3.99c0.159,0.389,0.687-0.353,0.688-0.55
			c0.004-1.301-0.421-4.059,1.644-4.073c0.096-0.001,0.191,0.001,0.284,0.003c0.378,3.326,4.261,4.268,5.601,1.031
			c0.258-0.624,0.336-1.327,0.429-2.009c0.249,0.561,0.531,1.081,0.849,1.529c0.972,1.369,2.182,1.829,3.447,0.661
			c0.379-0.35,0.64-0.779,0.838-1.244c0.051-0.082,0.084-0.169,0.103-0.253c0.123-0.336,0.217-0.687,0.292-1.045
			c0.386,1.5,1.173,3.009,2.568,1.897C67.615,28.741,67.995,26.614,67.895,25.039z M53.488,25.83
			c2.148-0.971,1.929-0.299-0.655,2.015C52.852,27.076,53.056,26.329,53.488,25.83z M58.309,19.072
			c0.225,0.79,0.051,2.009,0.051,2.617c0,1.134-0.104,2.23-0.258,3.332C57.785,23.164,57.744,20.702,58.309,19.072z M66.651,28.5
			c-0.698,0.871-1.372,0.781-2.022-0.27c-0.558-0.697-0.453-1.926-0.459-2.755c-0.004-0.573-0.644-0.029-0.705,0.264
			c-0.124,0.595-0.227,1.193-0.335,1.79c-0.146-1.215,0.279-2.438,0.9-3.536c0.486-1.056,1.352-1.291,2.597-0.706
			c0.452,0.657,0.562,1.705,0.545,2.484C67.151,26.7,66.986,27.633,66.651,28.5z"/>
	</defs>
	<defs>
		<path id="mask_dev_part_8_" d="M89.268,15.759c-2.675,1.322-4.495,3.405-5.427,5.971v-2.7c0-0.617-0.682,0.055-0.723,0.374
			c-0.171,1.318-0.285,2.633-0.625,3.923c-0.726,2.757-3.018,2.56-4.502,1.206c0.732-0.344,1.338-0.88,1.591-1.74
			c0.322-1.092,1.14-3.524-0.101-4.397c-1.279-0.901-2.274,0.411-2.938,1.472c-0.715,1.143-0.709,2.903-0.113,4.317
			c-1.23,0.204-3.214,0.315-4.393-0.076c1.11-0.584,2.572-0.389,2.968-1.917c0.441-1.703-1.522-1.164-2.208-0.56
			c-0.987,0.869-1.722,2.105-2.193,3.484c-0.2-1.539-0.327-3.1-0.329-4.729c-0.001-0.588-0.723,0.01-0.723,0.373v0.678
			c0,0.048,0.011,0.076,0.02,0.109c0.049,1.93,0.252,3.787,0.543,5.629c-0.318,2.277,0.038,4.651,1.168,6.308
			c0.258,0.377,0.73-0.388,0.682-0.647c-0.368-1.983-0.758-3.888-1.073-5.799c0.115-0.723,0.297-1.433,0.536-2.107
			c1.308,0.525,3.28,0.26,4.557,0.12c0.274-0.03,0.553-0.078,0.831-0.136c0.622,0.964,1.576,1.622,2.818,1.525
			c2.013-0.159,2.968-1.505,3.484-3.155v2.223c0,0.593,0.713-0.018,0.723-0.374c0.114-3.85,1.902-6.845,5.38-8.564
			C89.544,16.412,89.792,15.5,89.268,15.759z M77.532,19.479c1.651,0.269,2.204,1.041,1.66,2.318
			c-0.112,1.007-0.698,1.714-1.752,2.125c-0.272-0.365-0.493-0.772-0.626-1.209C76.474,21.591,76.77,20.368,77.532,19.479z"/>
	</defs>
	<clipPath id="mask_text_developer">
		<use xlink:href="#mask_dev_part_1_"  style="overflow:visible;"/>
		<use xlink:href="#mask_dev_part_2_"  style="overflow:visible;"/>
		<use xlink:href="#mask_dev_part_3_"  style="overflow:visible;"/>
		<use xlink:href="#mask_dev_part_4_"  style="overflow:visible;"/>
		<use xlink:href="#mask_dev_part_5_"  style="overflow:visible;"/>
		<use xlink:href="#mask_dev_part_6_"  style="overflow:visible;"/>
		<use xlink:href="#mask_dev_part_7_"  style="overflow:visible;"/>
		<use xlink:href="#mask_dev_part_8_"  style="overflow:visible;"/>
	</clipPath>
	<path class="pen-stroke" id="path_text_developer" style="clip-path:url(#mask_text_developer);fill:none;" d="M3.64,0c0,0,0.457,13.24,0.609,15.523
		s0.228,8.294,0.228,8.751c0,0.457-0.457,7.457-0.533,7.914c-0.076,0.457,0.38-9.74,2.511-12.023c0,0,0.533,0.533,1.065,4.413
		c0.533,3.881,0.837,3.5,1.446,3.576c0.609,0.076,1.826-0.304,2.131-2.131c0.304-1.826,0.457-3.5,0.609-3.272
		c0.152,0.228,2.054,1.674,2.892,0.989s1.141-2.663,0.989-3.805c-0.152-1.141-0.228-2.283-0.837-2.207
		c-0.609,0.076-2.207,2.359-2.283,3.881c-0.076,1.522,0.761,3.576,2.054,4.261s3.044,0.228,3.576-0.304
		c0.533-0.533,3.957-0.076,5.098,0.228c1.141,0.304,2.739-0.609,2.587-1.294c-0.152-0.685-0.457-3.881-0.38-4.718
		c0.076-0.837,0.076-1.674,0.457-2.663c0.38-0.989,0.152-2.968,0.533-3.805s1.141-2.739,1.37-1.37
		c0.228,1.37-0.304,1.75-0.533,2.435c-0.228,0.685-0.609,3.12-0.837,3.957c-0.228,0.837,0.38,0.533,1.065,1.826
		c0.685,1.294,1.217,2.587,1.978,2.359s1.294-0.228,1.598-1.065s1.217-2.054-0.076-2.892c-1.294-0.837-2.511-1.294-2.663-1.978
		c-0.152-0.685,0.228-1.446,1.522-1.826c1.294-0.38,1.826-0.837,2.359-0.076s0,1.826,1.217,3.5c1.217,1.674,2.054,1.826,3.881,1.826
		c1.826,0,5.475,1.031,5.509,0.928c0.3-0.905,0.122-0.015,0.274-2.298s0.152-9.664,0-10.881s0.457-2.663-0.228-2.587
		s-5.174,7.837-4.489,8.522s0.304,1.37,1.294,1.598c0.989,0.228,2.815,0.304,3.957-0.38c1.141-0.685,2.131-1.141,2.968-2.815
		s1.37-3.424,0.989-4.946c0,0-1.37,1.37-1.598,7.99l0.152,4.489c0,0,1.37-3.424,1.75-3.805c0,0,1.37,1.446,2.131,1.674
		c0.761,0.228,1.065-0.228,1.598-1.065c0.533-0.837,1.217-1.065,2.131-1.902s1.522-1.294,1.294-2.207c0,0-0.533-2.207-1.75-0.761
		c0,0-2.435,2.207-0.837,5.326c0,0,1.707,1.066,3.652,0.304c0.15-0.059,0.616-1.28,0.616-0.595s-2.706,1.843-4.805,2.496
		c-4.215,1.311-11.454-1.308-15.792,0.746S38.11,29.98,38.11,29.98s-1.217-0.152-1.978,0.913s-0.989,2.511-0.685,3.576
		c0.304,1.065,1.217,1.674,1.978,0.457c0.761-1.217,1.42-2.907,1.37-3.957c-0.051-1.05,0.457-0.837,0.533-2.663
		s0.076-4.261,0.076-4.489s-0.989,0.989-0.989,1.978c0,0.989,1.141,5.022,1.826,5.707c0.685,0.685,1.598,2.207,2.587,1.065
		c0.989-1.141,1.446-2.968,1.294-4.337s-0.609-1.217-1.065-0.837c-0.457,0.38-1.141,1.978-0.989,3.576
		c0.152,1.598,2.131,4.261,4.337,3.729c2.207-0.533-0.076-9.664,0.38-10.044s1.446-0.076,1.294,0.685s1.674,7.305,1.902,9.207
		c0.228,1.902-1.37-5.326,1.522-5.707c0,0,2.054,0.076,3.044-1.217c0.989-1.294,1.446-2.054,0.837-2.511
		c0,0-1.826-0.609-2.435,1.065c0,0-1.902,4.261,2.131,5.555c0,0,2.435-0.228,2.968-4.337c0,0,1.294-6.24,0.685-8.598
		c0,0-0.304-0.913-0.761,0.152c0,0-0.609,3.272-0.38,5.022c0.228,1.75,1.217,5.859,3.12,6.696c0,0,2.207-0.685,2.663-2.739
		l0.533-2.207c0,0-0.076,3.5,1.37,4.109c0,0,2.815-0.533,2.207-4.413c0,0,0-4.109-2.511-2.968c0,0-3.196,2.815-1.978,6.011
		s4.946-7.305,5.25-7.533c0.304-0.228,1.446-0.989,1.446-0.989s1.141,12.251,2.054,14.305c0,0-2.435-8.522,0.228-11.49l2.359-1.294
		c0.228,1.217,0.457,1.598-0.228,1.75c-0.685,0.152-2.511,0.685-2.511,0.685l1.598,0.989l3.881-0.609c0,0,1.902-0.076,2.207-2.054
		c0.304-1.978,0.989-3.196,0-3.424c-0.989-0.228-1.978,0.38-2.359,0.989c-0.38,0.609-0.989,2.587-0.304,3.805
		c0.685,1.217,1.674,2.435,2.739,2.359s2.359-0.533,2.815-1.294c0.457-0.761,1.37-4.109,1.141-5.935c0,0,0.076,7.381,0.152,7.685
		c0.076,0.304-0.837-7.914,6.848-10.881"/>
</g>
</svg>
