<svg version="1.1" id="text_developer" class="description" xmlns="http://www.w3.org/2000/svg" xmlns:xlink="http://www.w3.org/1999/xlink" x="0px" y="0px"
	 viewBox="0 0 170.518 72.044" style="enable-background:new 0 0 170.518 72.044;"
	 xml:space="preserve">
<g id="clip_he">
	<defs>
		<path id="mask_he" d="M29.405,50.454c-2.712,1.397-5.058,0.099-6.58-2.065c1.598,0.159,2.976-0.686,3.498-3.392
			c0.505-2.618,1.331-8.456-1.024-10.454c-2.809-2.384-5.434,6.897-5.689,7.745c-0.205,0.684-0.284,1.397-0.258,2.114
			c-0.184-0.16-0.358-0.318-0.51-0.468c-0.428-0.422-1.119,0.655-1.18,0.952c-0.462,2.246,0.051,4.985-0.95,7.057
			c-2.754,5.704-4.783-0.35-5.318-2.815c-0.704-3.244-0.605-7.361-2.19-10.281c-0.273-0.502-0.914,0.171-1.082,0.398
			c-1.628,2.191-2.124,5.082-2.709,7.778c0.091-3.953,0.376-8.054-0.049-11.92c-0.598-5.452-1.121-10.902-1.272-16.388
			c-0.136-4.942,0.59-9.856-0.027-14.783C3.951,3.022,2.619,4.351,2.703,5.019c0.599,4.787-0.042,9.607,0.005,14.411
			c0.038,3.959,0.401,7.921,0.776,11.859C3.96,36.294,3.99,41.24,3.99,46.262c0,2.128,0.075,4.293,0.09,6.459
			c-0.645,3.116-1.043,6.286-0.728,9.445c0.091,0.914,1.259-0.314,1.34-0.692c0.632-2.973,0.704-5.971,0.697-8.984
			c0.296-1.439,0.642-2.864,0.992-4.258c0.501-1.996,0.946-4.972,1.938-7.121c1.419,4.23,0.34,13.5,5.075,14.871
			c4.253,1.232,4.989-5.862,5.365-9.584c0.404,0.331,0.827,0.638,1.261,0.91c1.56,3.731,5.591,6.611,9.296,4.703
			C29.926,51.695,30.398,49.942,29.405,50.454z M21.208,41.053c0.615-2.046,3.135-7.397,3.945-2.588
			c0.313,1.856,0.152,3.836-0.009,5.702c-0.228,2.636-1.905,2.588-3.57,1.759C20.971,44.226,20.797,42.422,21.208,41.053z"/>
	</defs>
	<clipPath id="mask_he_1_">
		<use xlink:href="#mask_he"  style="overflow:visible;"/>
	</clipPath>
	<path class="pen-stroke" id="path_he" style="clip-path:url(#mask_he_1_);fill:none;" d="M3.356,1.961c0,0,1.315,48.006,0.493,63.131
		c0,0,1.808-15.454,2.466-19.235c0.658-3.781,2.302-5.59,2.302-5.59s1.315,6.083,1.808,8.878c0.493,2.795,2.959,7.069,4.274,6.083
		s2.795-3.124,2.959-5.425c0.164-2.302,0.658-5.261,0.658-5.261s2.795,3.288,4.439,2.959s2.63-0.822,2.959-4.274
		c0.329-3.452,1.151-6.412-0.493-7.234c-1.644-0.822-1.808-1.973-3.288,0.986s-1.808,3.124-1.973,6.083
		c-0.164,2.959,1.48,10.193,10.029,8.385l1.644-0.658"/>
</g>
<g id="clip_is">
	<defs>
		<path id="mask_stick_i" d="M45.014,34.924c-1.849,4.25-0.24,8.377-0.112,12.769c0.033,1.128,1.405-0.017,1.385-0.715
			c-0.115-3.957-1.773-8.091-0.112-11.908C46.685,33.896,45.397,34.045,45.014,34.924z"/>
	</defs>
	<defs>
		<path id="mask_dot_i" d="M48.064,26.402c-0.469-0.466-0.77-0.696-1.439-0.7c-0.72-0.004-1.53,1.702-0.762,1.707
			c0.57,0.003,0.755,0.198,1.159,0.599C47.512,28.495,48.619,26.954,48.064,26.402z"/>
	</defs>
	<defs>
		<path id="mask_s" d="M52.552,33.731c-5.368-3.188,3.279-4.048,3.4-3.386c0.169,0.921,1.485-0.419,1.362-1.087
			c-0.582-3.172-6.88,0.85-7.678,2.341c-1.162,2.172,1.513,3.536,2.987,4.393c1.877,1.09,2.593,2.605,3.061,4.686
			c-0.644,2.757-1.825,3.693-3.544,2.809c-0.525-0.32-0.956-0.743-1.294-1.268c-0.713-0.92-1.06-2.112-1.325-3.22
			c-0.222-0.925-1.521,0.424-1.362,1.087c0.471,1.966,2.126,6.283,4.971,5.376c2.182-0.696,4.116-2.753,3.961-5.187
			C56.88,36.953,55.244,35.33,52.552,33.731z"/>
	</defs>
	
	<clipPath id="mask_is" style="clip-path:url(#mask_dot_i_1_);">
		<use xlink:href="#mask_dot_i"  style="overflow:visible;"/>
		<use xlink:href="#mask_stick_i"  style="overflow:visible;"/>
		<use xlink:href="#mask_s"  style="overflow:visible;"/>
	</clipPath>
	<path class="pen-stroke" id="path_is" style="clip-path:url(#mask_is);fill:none;" d="M44.026,31.643c0.75-0.075,2.475-0.3,2.1,0.9
		c-0.375,1.2-1.125,3.826-1.275,5.326c-0.15,1.5,0.15,9.151,0.975,11.177c0.825,2.025,3.751,6.676,2.55-0.225
		c-1.2-6.901-2.25-7.951-1.65-9.151s1.35-2.55,1.575-1.65s1.5,6.376,3.225,6.676s2.55,0.15,3.526-1.35
		c0.975-1.5,1.5-2.325,1.2-3.601c-0.3-1.275-2.4-4.126-4.126-5.251s-2.175-1.275-2.025-2.175c0.15-0.9,1.35-2.25,3.526-2.7
		c2.175-0.45,3.225,0.45,4.426-0.375s0.6-2.25-0.375-2.775c-0.975-0.525-6.076-4.126-7.801-2.775
		c-1.725,1.35-3.15,3.225-3.751,4.576"/>
</g>
<g id="clip_the">
	<defs>
		<path id="mask_the" d="M103.087,33.848c-1.247,1.202-2.86,0.438-4.142,0.008c-1.241-0.417-1.979-1.143-2.415-2.01
			c0.743-1.016,2.721-1.811,3.696-2.536c1.813-1.348,1.958-2.499,1.813-4.622c-0.101-1.475-1.383-4.111-3.304-2.762
			c-2.119,1.488-3.567,3.981-3.952,6.575c-0.152,1.027-0.206,2.347,0.034,3.562c-1.121,1.682-2.294,3.5-4.056,0.993
			c-0.836-1.189-1.078-2.408-2.577-2.808c-0.316-0.084-0.704,0.324-0.839,0.556c-1.139,1.963-1.523,4.143-2.253,6.219
			c-0.195-3.391,0.095-6.77,0.156-10.175c0.005-0.278,0.014-0.575,0.022-0.867c2.058-3.484,3.438-8.096,2.564-11.657
			c-0.17-0.693-0.931-0.065-1.139,0.246c-1.995,2.989-2.269,6.35-2.499,9.862c-0.033,0.508-0.071,1.017-0.108,1.526
			c-0.925,1.362-2.283,2.45-4.278,3.193c-0.035-4.942-0.407-9.939-0.407-14.641c0-1.126-1.385,0.02-1.385,0.715
			c0,4.587,0.377,9.506,0.428,14.369c-1.768,0.503-4.297,0.992-5.723,0.438c0.377-0.681-0.018-1.52-0.809-0.729
			c-0.216,0.216-0.433,0.433-0.649,0.649c-0.305,0.305-0.582,0.952-0.219,1.303c1.396,1.35,4.57,1.03,7.407,0.097
			c-0.031,3.536-0.28,7.018-1.05,10.289c-0.288,1.224,1.137,0.466,1.317-0.297c0.79-3.356,1.052-6.903,1.092-10.499
			c1.59-0.659,2.943-1.472,3.597-2.222c0.182-0.208,0.355-0.458,0.532-0.687c-0.305,4.048-0.574,8.108-0.067,12.151
			c0.09,0.716,0.975,0.036,1.139-0.246c0.91-1.569,1.392-2.865,1.824-4.667c0.808-3.373,1.933-1.781,3.179-0.01
			c1.03,1.464,2.896,1.808,4.058,0.386c0.492-0.603,0.933-1.217,1.345-1.852c0.388,0.667,0.934,1.217,1.743,1.504
			c2.588,0.916,4.473,1.628,6.528-0.353C104.393,34.173,104.003,32.965,103.087,33.848z M85.98,19.266
			c0.201-0.882,0.472-1.72,0.803-2.503C87.613,20.686,86.436,18.915,85.98,19.266z M96.878,25.805
			c1.266-0.011,2.533-0.021,3.799-0.031c-0.079,1.763-0.947,2.942-2.606,3.539c-0.597,0.391-1.396,0.68-1.957,1.126
			c-0.01,0.008-0.02,0.02-0.03,0.028C95.879,28.956,96.299,27.241,96.878,25.805z"/>
	</defs>
	<clipPath id="mask_the_1_">
		<use xlink:href="#mask_the"  style="overflow:visible;"/>
	</clipPath>
	<path class="pen-stroke" id="path_the" style="clip-path:url(#mask_the_1_);fill:none;" d="M78.422,12.366
		c0.176,1.233,1.498,26.076-0.529,30.481c-2.026,4.405-1.41,4.405-2.819,1.41c-1.41-2.995-1.321-4.757-2.29-6.079
		c-0.969-1.321-4.317-8.633-3.524-8.281c0.793,0.352,2.026,1.145,4.405,1.145s7.224-1.057,8.369-2.026s3.876-5.286,3.876-5.286
		c1.321-2.907,1.498-4.14,1.674-5.374c0.176-1.233-0.088-3.083-0.352-3.26c-0.264-0.176-1.498,3.083-1.762,3.7
		c-0.264,0.617-1.057,7.488-1.057,8.721c0,1.233-0.44,9.602-0.176,10.924c0.264,1.321,1.41-1.057,1.674-1.938
		c0.264-0.881,0.969-3.964,1.762-4.405c0.793-0.44,2.202,1.938,3.171,2.467c0.969,0.529,2.379,1.057,3.436-0.44
		s1.85-3.171,3.348-3.876c1.498-0.705,2.555-0.881,3.083-2.114s1.586-2.555,0.264-4.052c-1.321-1.498-0.969-2.29-2.555-0.969
		c-1.586,1.321-2.555,3.26-2.819,4.229c-0.264,0.969-1.145,4.493,0.969,6.167c2.114,1.674,2.467,2.29,4.493,1.762
		c2.026-0.529,2.731-0.793,3.7-2.026"/>
</g>
<g id="clip_de">
	<defs>
		<path id="mask_de" d="M85.426,67.273c-2.782,0.744-4.579-0.762-5.901-2.829c1.696-2.72,1.977-8.427,1.969-10.114
			c-0.011-2.233-1.572-2.237-3.04-1.298c-1.609,1.029-2.101,3.376-2.348,5.105c-0.213,1.489,0.016,3.216,0.59,4.855
			c-0.851-0.107-1.785-0.63-2.699-1.677c-0.848-0.971-1.608-2.361-2.189-3.929c0.283-1.837,0.424-3.671,0.451-5.588
			c0.03-2.107,0.556-4.246-0.008-6.304c-0.19-0.693-0.915-0.063-1.139,0.246c-2.48,3.419-2.306,8.268-0.689,12.45
			c-0.032,0.182-0.054,0.364-0.09,0.547c-0.335-0.337-0.751-0.605-1.272-0.772c-1.734-0.553-3.232,0.912-4.173,2.903
			c-0.166-0.109-0.429-0.07-0.764,0.255c-3.478,3.372-0.644,12.574,4.208,8.49c1.787-1.504,3.656-6.209,2.885-9.218
			c0.023-0.097,0.049-0.206,0.071-0.299c0.977,1.873,2.233,3.525,3.657,4.711c1.276,1.063,2.294,1.26,3.127,0.944
			c1.609,2.385,4.049,3.976,6.916,3.209C85.641,68.785,86.324,67.033,85.426,67.273z M69.161,60.315
			c0.281,0.353,0.423,0.814,0.518,1.296l-0.004,0.016c-0.214,2.142-1.717,3.159-4.507,3.054
			C64.787,62.877,67.277,57.948,69.161,60.315z M64.22,62.724c-0.404,1.496-0.501,3.024-0.181,4.113
			C63.199,65.799,63,64.28,64.22,62.724z M66.627,68.154c1.399-0.447,2.36-1.579,3.042-2.952
			C69.261,67.383,67.955,68.203,66.627,68.154z M71.13,48.185c0.109,1.81-0.211,3.82-0.265,5.536
			C70.571,51.774,70.612,49.818,71.13,48.185z M80.114,56.109c0.005,0.924-0.145,1.858-0.151,2.787
			c-0.01,1.66-0.584,2.94-1.459,3.608c-0.421-0.982-0.695-2.012-0.909-3.055c-0.138-0.674-0.173-1.349-0.106-2.027
			C77.346,55.693,78.221,55.256,80.114,56.109z"/>
	</defs>
	<clipPath id="mask_de_1_">
		<use xlink:href="#mask_de"  style="overflow:visible;"/>
	</clipPath>
	<path class="pen-stroke" id="path_de" style="clip-path:url(#mask_de_1_);fill:none;" d="M68.58,55.957c0.844,0.731,1.125,1.688,1.238,1.969
		c0.113,0.281,0.619,1.688,0.281,1.857c-0.338,0.169,0.394-0.225-0.788-0.675c-0.06-0.023-0.118-0.045-0.175-0.068
		c-1.059-0.414-1.562-0.674-2.47,0.18c-0.957,0.9-1.182,1.294-1.575,2.138c-0.394,0.844-0.563,1.182-0.788,2.588
		c-0.225,1.407-0.643,0.998-0.265,2.89c0.378,1.892,0.434,3.018,1.503,3.13s2.026-0.113,2.701-1.125
		c0.675-1.013,1.575-2.251,1.744-3.038s0.788-1.744,0.675-3.095s-1.238-3.095-1.238-3.095s-2.419-0.281-3.207,0.45
		c-0.788,0.731-1.575,0.957-2.251,1.913c-0.675,0.957-1.632,4.726-0.563,5.683c1.069,0.957,1.744,0.281,3.32-0.957
		c1.575-1.238,3.545-3.995,3.995-6.02c0.45-2.026,0.675-5.233,0.844-7.54s0.675-3.826,0.45-5.514
		c-0.225-1.688-0.281-2.251-0.788-1.013c-0.506,1.238-1.632,4.164-1.238,6.527c0.394,2.363,1.688,8.159,4.107,9.903
		s2.701,2.476,4.164,1.069c1.463-1.407,1.913-1.35,2.307-4.951c0.394-3.601,0.9-6.02-0.563-5.683s-2.757,0.45-2.982,2.251
		s-0.563,4.783,0.113,6.077s1.463,3.432,3.151,4.951c1.688,1.519,5.289,1.35,6.077,1.182"/>
</g>
<g id="clip_velo">
	<defs>
		<path id="mask_velo" d="M126.15,49.39c-0.283-4.457-2.907-8.959-6.828-4.503c-2.763,3.14-4.578,7.733-3.281,11.838
			c-2.207,2.769-4.054,2.891-5.532,0.305c-1.089-1.387-1.755-2.812-2.309-4.445c0.489-2.059,1.078-4.263,1.078-6.257
			c0-2.779,1.33-8.552-0.717-10.728c-0.357-0.379-0.877,0.045-1.082,0.398c-2.602,4.479-2.53,11.554-0.728,17.182
			c-0.315,1.413-0.658,2.838-0.806,4.254c-2.563,4.45-4.938,5.182-7.125,2.194c-0.535-0.585-0.92-1.382-1.178-2.259
			c0.855-0.042,1.678-0.215,2.488-0.815c2.287-1.693,3.544-3.577,3.1-6.466c-0.371-2.41-3.043-2.317-4.444-1.138
			c-2.062,1.734-2.736,4.169-2.783,6.71c-0.441-0.01-0.882-0.013-1.322,0.016c-0.735,0.167-1.692,0.417-2.138,1.104
			c-0.773,1.19-1.148,2.587-1.338,4.032c-0.307-1.511-0.566-3.035-0.988-4.519c-0.5-1.758-1.033-3.607-1.396-5.447
			c0.2-0.269,0.344-0.575,0.315-0.806c-0.115-0.92-0.032-0.68-0.706-1.451c-0.591-0.676-1.362,0.721-1.306,1.238
			c0.325,2.974,1.257,5.888,2.07,8.747c0.726,2.55,0.873,5.163,1.883,7.64c0.304,0.745,1.316-0.676,1.317-1.053
			c0.008-2.49-0.805-7.772,3.148-7.799c0.184-0.001,0.365,0.002,0.545,0.005c0.724,6.37,8.159,8.172,10.725,1.974
			c0.495-1.195,0.643-2.541,0.822-3.848c0.478,1.074,1.017,2.069,1.626,2.927c1.861,2.621,4.179,3.502,6.601,1.265
			c0.727-0.671,1.225-1.492,1.605-2.382c0.097-0.157,0.16-0.323,0.197-0.484c0.235-0.643,0.415-1.315,0.559-2.001
			c0.739,2.873,2.247,5.761,4.918,3.633C125.615,56.478,126.342,52.407,126.15,49.39z M98.565,50.906
			c4.114-1.859,3.694-0.572-1.254,3.858C97.347,53.291,97.737,51.86,98.565,50.906z M107.796,37.965
			c0.431,1.513,0.097,3.847,0.097,5.011c0,2.171-0.199,4.269-0.494,6.38C106.793,45.801,106.714,41.086,107.796,37.965z
			 M123.769,56.017c-1.337,1.668-2.628,1.496-3.871-0.516c-1.068-1.334-0.868-3.688-0.879-5.276
			c-0.007-1.097-1.234-0.055-1.351,0.506c-0.237,1.139-0.435,2.284-0.642,3.427c-0.28-2.326,0.534-4.668,1.724-6.77
			c0.931-2.021,2.589-2.472,4.973-1.352c0.866,1.258,1.076,3.265,1.043,4.756C124.727,52.571,124.41,54.357,123.769,56.017z"/>
	</defs>
	<clipPath id="mask_velo_1_">
		<use xlink:href="#mask_velo"  style="overflow:visible;"/>
	</clipPath>
	<path class="pen-stroke" id="path_velo" style="clip-path:url(#mask_velo_1_);fill:none;" d="M86.979,47.235c0,0,5.064,18.962,5.289,20.368
		s-1.407-5.12-1.069-6.077c0.338-0.957,0.506-2.082,1.238-3.038c0.731-0.957,1.069-1.575,3.657-1.913s3.714-0.169,4.839-2.194
		c1.125-2.026,2.588-2.194,1.463-3.882c-1.125-1.688-0.844-2.082-2.138-1.519c-1.294,0.563-2.194,1.519-2.87,2.588
		s-0.619,7.202,0.563,8.721c1.182,1.519,4.051,2.363,5.289,1.519c1.238-0.844,1.801-1.069,2.363-2.419
		c0.563-1.35,2.251-6.077,2.363-8.946c0.113-2.87,0.338-3.657,0.675-7.146c0.338-3.489,0.9-2.363,0.394-4.501
		c-0.506-2.138-0.563-3.207-1.182-2.532c-0.619,0.675-1.519,4.614-1.575,6.02c-0.056,1.407,0.563,11.422,2.194,13.616
		c1.632,2.194,2.476,4.726,4.389,3.995c1.913-0.731,2.813-0.056,3.601-2.307s1.575-5.908,1.688-6.302s0,5.458,2.476,6.696
		s2.026,0.619,2.87-0.844s1.632-3.432,1.801-5.852c0.169-2.419,0.506-4.783-0.957-6.133c-1.463-1.35-1.857-1.744-2.926-1.125
		c-1.069,0.619-2.138,1.35-2.982,2.813s-2.138,3.376-2.082,5.064s1.125,5.402,1.463,6.077"/>
</g>
<g id="clip_per">
	<defs>
		<path id="mask_per" d="M167.075,31.622c-5.122,2.531-8.607,6.519-10.392,11.434v-5.169c0-1.182-1.305,0.105-1.385,0.715
			c-0.328,2.523-0.546,5.042-1.196,7.511c-1.39,5.279-5.779,4.903-8.62,2.309c1.401-0.658,2.562-1.686,3.046-3.331
			c0.616-2.091,2.183-6.747-0.194-8.42c-2.45-1.725-4.355,0.787-5.625,2.819c-1.368,2.188-1.358,5.558-0.217,8.265
			c-2.356,0.39-6.153,0.603-8.411-0.145c2.125-1.118,4.925-0.745,5.684-3.671c0.845-3.26-2.915-2.228-4.229-1.072
			c-1.89,1.664-3.297,4.031-4.199,6.671c-0.383-2.946-0.627-5.937-0.63-9.055c-0.001-1.127-1.385,0.02-1.385,0.715v1.299
			c0,0.092,0.022,0.146,0.039,0.209c0.093,3.696,0.483,7.25,1.039,10.778c-0.609,4.36,0.072,8.906,2.237,12.079
			c0.493,0.723,1.398-0.742,1.306-1.239c-0.705-3.797-1.452-7.444-2.054-11.104c0.221-1.384,0.568-2.743,1.026-4.035
			c2.505,1.005,6.28,0.497,8.725,0.23c0.524-0.057,1.059-0.148,1.591-0.261c1.19,1.846,3.018,3.107,5.397,2.919
			c3.855-0.304,5.683-2.882,6.67-6.042v4.257c0,1.136,1.365-0.035,1.385-0.715c0.218-7.372,3.643-13.107,10.302-16.398
			C167.604,32.872,168.08,31.125,167.075,31.622z M144.604,38.744c3.161,0.515,4.22,1.994,3.179,4.438
			c-0.215,1.929-1.337,3.283-3.355,4.069c-0.521-0.7-0.945-1.478-1.198-2.315C142.579,42.788,143.146,40.447,144.604,38.744z"/>
	</defs>
	<clipPath id="mask_per_1_">
		<use xlink:href="#mask_per"  style="overflow:visible;"/>
	</clipPath>
	<path class="pen-stroke" id="path_per" style="clip-path:url(#mask_per_1_);fill:none;" d="M129.563,39.094c0,0,1.767,16.212,1.975,17.564
		c0.208,1.351,0.831,6.651,2.079,9.353c1.247,2.702-2.806-11.224-2.806-11.224s0.416-3.845,2.39-6.859
		c1.975-3.014,3.43-5.612,4.677-5.092s1.975,0.935,0.52,1.663c-1.455,0.727-5.82,3.637-5.82,3.637s6.547,0.727,8.314,0.52
		c1.767-0.208,4.781-0.727,5.716-1.975s2.806-4.573,2.079-7.275c-0.727-2.702-1.351-2.494-2.39-2.39
		c-1.039,0.104-2.806,1.455-3.222,2.598s-1.975,6.132,1.351,9.353s4.469,2.079,5.716,1.767s3.222-1.039,4.053-3.43
		c0.831-2.39,1.559-8.938,1.559-8.938l0.208,11.224v0.52c0,0-0.312-5.092,2.079-9.146s5.82-7.067,7.483-7.794
		c1.663-0.727,3.118-1.455,3.118-1.455"/>
</g>
</svg>
