<svg version="1.1" id="text_designer" class="description" xmlns="http://www.w3.org/2000/svg" xmlns:xlink="http://www.w3.org/1999/xlink" x="0px" y="0px"
	 viewBox="0 0 240.603 101.053" style="enable-background:new 0 0 240.603 101.053;"
	 xml:space="preserve">
<g id="clip_x5F_designer">
	<defs>
		<path id="SVGID_1_" d="M53.982,38.894c-2.705,1.191-5.677,0.761-8.038-0.661c2.738-3.175,4.745-9.554,0.581-12.258
			c-3.671-2.384-6.904,5.149-6.533,7.618c0.199,1.324,0.693,2.492,1.327,3.55c-0.391-0.184-0.795-0.423-1.216-0.747
			c-1.052-0.601-1.669-2.306-3.006-2.475c-3.119-0.396-5.205,4.494-6.576,8.327c0.027-1.967,0.354-3.986,0.354-5.888V34.17
			c1.225-2.004,2.154-4.122,2.712-6.093c1.268-4.475,4.881-19.531-0.281-22.983c-0.494-0.33-1.1,0.348-1.34,0.692
			c-3.428,4.911-2.908,12.479-2.983,18.223c-0.043,3.359-0.026,6.72-0.013,10.08c-1.934,2.768-4.658,4.959-8.552,6.129
			c-1.362,0.41-3.057,0.331-4.805,0.232c-0.323-1.979-1.282-3.929-2.312-5.803c-2.219-4.04-4.408-6.553,1.018-9.022
			c3.473-1.581,7.064-1.753,10.643-0.494c0.883,0.311,2.149-1.946,1.043-2.335c-5.62-1.977-14.171-0.167-17.621,5.146
			c-1.662,2.56,0.226,4.836,2.028,6.747c0.778,1.141,1.482,2.325,2.11,3.554c0.193,0.707,0.385,1.413,0.578,2.119
			c-2.002-0.011-3.903,0.234-5.256,1.49c-5.235,4.86,3.591,8.652,6.714,3.843c0.625-0.963,0.967-1.928,1.107-2.89
			c0.748,0.042,1.486,0.084,2.188,0.096c4.44,0.081,8.281-2.542,11.124-6.036c0,0.157,0.001,0.314,0.001,0.47
			c0,3.18-0.831,6.483,0.015,9.584c0.301,1.104,1.502-0.155,1.726-0.643c0.559-1.22,3.969-10.79,6.046-9.553
			c1.275,0.759,1.783,2.083,3.302,2.624c1.167,0.415,2.373,0.621,3.489,0.383c2.756,2.192,6.649,2.898,10.299,1.291
			C54.73,40.639,55.393,38.273,53.982,38.894z M9.952,43.082c1.185-0.323,2.485-0.381,3.794-0.355
			c0.032,0.118,0.064,0.236,0.096,0.354C10.892,46.793,9.595,46.794,9.952,43.082z M30.876,25.252c0-4.396,0.109-8.693,0.842-13.043
			c0.908-5.385,1.879-0.964,1.826,2.217c-0.09,5.433-0.579,11.33-2.668,16.209V25.252z M46.89,32.398
			c-0.685,2.348-1.551,3.856-2.585,4.591c-0.984-0.944-1.779-2.08-2.224-3.393C43.684,33.196,45.287,32.797,46.89,32.398z"/>
	</defs>
	<defs>
		<path id="SVGID_2_" d="M61.961,16.112c-0.808-2.329-3.362-6.98-1.407-9.235c0.854-0.985,0.322-2.695-0.828-1.369
			c-3.164,3.651-0.997,8.15,0.371,12.091C60.532,18.854,62.266,16.992,61.961,16.112z"/>
	</defs>
	<defs>
		<path id="SVGID_3_" d="M71.747,23.297c-1.935,2.208-1.312,5.555-0.623,8.075c0.529,1.935,1.692,3.768,2.601,5.539
			c1.036,2.019,3.344,6.811-0.849,8.035c-2.863,0.836-3.987-1.99-4.695-3.954c-0.451-1.252-2.18,0.611-1.864,1.487
			c1.863,5.166,6.569,6.577,9.93,1.741c1.681-2.418,0.793-5.399-0.182-7.878c-1.057-2.687-2.668-4.962-3.441-7.789
			c-0.611-1.853-0.006-3.522,1.787-5.012c0.302,0.068,3.076-0.258,2.875,0.017c-0.946,1.294,0.325,2.082,1.252,0.813
			C81.904,19.765,73.828,20.923,71.747,23.297z"/>
	</defs>
	<defs>
		<path id="SVGID_4_" d="M89.763,83.234c-3.052,0.34-6.925-0.709-9.581-2.854c2.351-3.334,4.001-10.493,0.22-12.196
			c-4.472-2.015-5.141,5.427-5.212,8.018c-0.032,1.166,0.233,2.228,0.705,3.191c-2.077-0.332-4.396-1.444-5.923-2.267
			c-6.468-3.488-7.887,6.217-8.962,11.959c-1.994-5.413-3.107-11.089-3.683-16.856c3.86-4.694,1.622-14.389-0.775-19.002
			c-0.516-0.993-1.802,0.904-1.802,1.441c0.004,5.666,0.076,11.4,0.55,17.076c-0.583,0.711-1.293,1.342-2.179,1.849
			c-1.32,0.755-2.822,1.266-4.391,1.633c-0.57-6.274-0.968-12.494-0.971-18.871c-0.001-1.541-1.895,0.027-1.895,0.979
			c0.003,5.364,0.065,10.712,0.433,16.065c0.052,0.755,0.163,1.5,0.248,2.249c-2.455,0.36-4.974,0.435-7.209,0.467
			c-0.971,0.014-2.1,2.335-1.043,2.335h0.888c0.035,0,0.07-0.023,0.104-0.028c2.482-0.061,5.023-0.247,7.486-0.718
			c0.217,1.587,0.454,3.171,0.655,4.765c0.304,2.416,1.771,8.285,0.536,10.402c-0.793,1.36,0.446,2.196,1.252,0.813
			c2.267-3.886,0.521-8.411,0.076-12.702c-0.131-1.266-0.247-2.52-0.368-3.778c2.382-0.661,4.619-1.683,6.567-3.237
			c0.695,6.641,2.043,13.172,4.685,19.372c0.36,0.845,1.511-0.517,1.648-0.851c1.567-3.821,1.881-15.774,8.267-12.33
			c2.787,1.503,5.258,3.505,8.053,2.039c3.002,2.527,7.673,3.72,11.021,3.348C90.09,85.438,91.078,83.087,89.763,83.234z
			 M56.698,60.107c0.674,2.66,0.926,5.58,0.296,8.136C56.821,65.53,56.742,62.813,56.698,60.107z M80.511,74.913
			c0.102,2.341-0.578,3.601-1.66,4.177c-1.11-1.323-1.791-2.927-1.74-4.782C77.232,69.843,80.346,71.131,80.511,74.913z"/>
	</defs>
	<defs>
		<path id="SVGID_5_" d="M149.706,69.265c-4.63,3.501-9.722,5.536-11.484-1.591c-0.122-0.492-0.159-1-0.163-1.513
			c0.005-0.009,0.008-0.018,0.013-0.027c1.272-2.226,5.344-3.493,7.051-5.772c1.074-1.433,4.181-7.687-0.153-7.757
			c-3.945-0.063-5.724,4.198-6.994,7.335c-0.825,2.038-1.403,3.987-1.584,5.941c-0.212,0.414-0.394,0.825-0.507,1.202
			c-0.458,1.473-0.969,2.927-1.534,4.362c-2.059,5.415-5.964-0.933-6.618-2.198c-0.595-1.15-0.973-2.455-1.223-3.814
			c0.134-0.511,0.265-1.017,0.382-1.487c1.072-4.31,1.645-8.78,2.194-13.179c0.526-4.217,1.543-10.043,0.405-14.218
			c-0.151-0.554-0.748-0.503-1.113-0.162c-3.936,3.67-3.397,10.588-4.058,15.612c-0.484,3.677-0.559,7.682-0.085,11.559
			c-0.761-2.223-2.527-3.434-5.691-2.326c-3.719,1.302-6.375,7.92-5.53,12.105c-1.395-3.893-0.194-9.794,3.043-11.878
			c0.77-0.495,1.384-2.94,0.123-2.129c-3.939,2.535-5.815,7.486-5.457,12.105c0.298,3.84,3.026,10.696,8.253,7.911
			c1.93-1.028,3.572-3.637,4.598-6.58c0.721-1.117,1.307-2.357,1.783-3.641c0.202,0.686,0.418,1.365,0.667,2.023
			c1.642,4.343,5.783,6.094,8.84,2.404c0.885-1.069,1.357-2.374,1.783-3.704c0.182,0.82,0.425,1.648,0.794,2.498
			c3.086,7.111,9.066,1.42,12.625-1.271C150.924,70.428,151.078,68.227,149.706,69.265z M126.829,46.864
			c0.11-0.669,1.391-9.089,1.041-4.731c-0.47,5.853-0.911,11.608-1.862,17.377c-0.011-0.382-0.022-0.76-0.033-1.125
			C125.856,54.488,126.194,50.715,126.829,46.864z M115.023,68.46c0.616-3.08,3.078-6.582,6.424-4.386
			c1.964,1.288,2.002,4.205,1.538,6.702c-0.907,1.668-2.133,3.034-3.899,3.572C114.913,75.62,114.42,71.479,115.023,68.46z
			 M115.504,76.572c0.795,0.282,1.771,0.346,2.983,0.084c1.124-0.244,2.062-0.778,2.904-1.443
			C119.882,77.394,117.497,77.851,115.504,76.572z M141.951,61.109c-1.775,1.125-1.824,0.968-3.486,2.165
			c0.415-1.534,1.059-3.034,1.588-4.342C141.199,55.579,141.832,56.305,141.951,61.109z"/>
	</defs>
	<defs>
		<path id="SVGID_6_" d="M174.733,70.108c-2.771-4.833-4.942-9.902-5.239-15.532c-0.082-1.558-1.906,0.038-1.895,0.979
			c0.056,4.626,1.058,10.927-2.133,14.821c-1.011,1.234-2.501,1.945-4.079,2.563c0.002-0.105,0.009-0.212,0.001-0.312
			c-0.3-4.038-1.756-7.227-3.368-10.896c-1.321-3.005-2.294-6.119-1.422-9.38c0.304-2.76,1.828-3.606,4.574-2.54
			c0.159,1.021,0.228,2.047,0.207,3.078c0.013,1.542,1.903-0.026,1.895-0.979c-0.014-1.764,0.286-5.694-2.203-6.01
			c-2.36-0.3-4.179,2.395-5.146,4.093c-1.404,2.464-1.707,4.969-1.486,7.719c0.212,2.645,1.663,5.443,2.71,7.824
			c0.818,1.862,1.537,3.649,1.893,5.662c0.005,0.026,0.236,1.292,0.259,2.538c-1.224,0.471-2.409,0.987-3.375,1.748
			c-0.505,0.398-1.133,1.446-0.533,2.004c2.211,2.058,4.708-0.333,5.631-2.797c2.662-1.114,5.114-2.052,7.013-5.485
			c0.798-1.442,1.21-3.057,1.429-4.734c0.932,2.586,2.15,5.084,3.557,7.537C173.571,72.963,175.221,70.959,174.733,70.108z"/>
	</defs>
	<defs>
		<path id="SVGID_7_" d="M172.623,40.568c-0.969-0.132-2.146,2.185-1.043,2.335c0.571,0.078,0.46,0.653,0.463,1.099
			c0.008,1.542,1.9-0.026,1.895-0.979C173.932,41.96,173.904,40.742,172.623,40.568z"/>
	</defs>
	<defs>
		<path id="SVGID_8_" d="M187.032,48.634c-4.562-1.902-7.054,4.433-7.356,8.052c-0.089,1.07-0.1,2.116-0.077,3.154
			c-0.976-0.301-1.794-0.869-2.123-1.965c-0.379-1.263-2.133,0.593-1.864,1.487c0.579,1.927,2.216,2.871,4.18,3.175
			c0.278,2.63,0.816,5.221,1.546,7.88c0.694,2.526,1.474,5.023,2.135,7.558c0.317,1.272,0.574,2.557,0.772,3.853l0.306,3.694
			c-6.181,5.772-8.846,5.327-7.995-1.338c0.298-1.693-1.613-0.665-1.802,0.407c-0.785,4.458,0.307,7.53,4.822,8.961
			c2.728,0.865,5.566-2.968,6.236-5.073c2.006-6.305-0.849-13.498-2.61-19.549c-0.583-2.004-1.14-4.131-1.491-6.288
			c2.59-0.09,5.339-1.007,6.894-2.164C192.914,57.276,191.48,50.489,187.032,48.634z M183.286,60.117
			c-0.568,0.028-1.212,0.046-1.861,0.017c-0.176-2.464,0.004-4.921,0.875-7.236C185.199,45.188,195.955,59.504,183.286,60.117z"/>
	</defs>
	<defs>
		<path id="SVGID_9_" d="M235.491,45.025c-6.138,2.169-9.816,6.582-11.793,11.947v-8.617c0-1.635-1.77,0.17-1.895,0.979
			c-0.886,5.744-1.02,15.235-9.546,15.597c-3.212,0.136-5.583-3.235-6.413-6.706c0.566,0.057,1.141-0.009,1.739-0.318
			c2.341-1.209,3.651-4.544,4.63-6.786c2.932-6.715-2.371-6.569-5.742-1.964c-1.096,1.498-1.948,3.655-2.361,5.957
			c-1.704,0.001-3.406-0.027-4.274,0.244c-1.453,0.454-2.654,1.313-3.646,2.416c0.074-0.943,0.144-1.886,0.219-2.828
			c0.171-2.156-0.065-3.592-0.359-5.357c0.21,1.257,2.017-0.573,1.864-1.487c-0.063-0.377-0.195-0.505-0.482-0.75
			c-0.164-0.141-0.494-0.066-0.652,0.034c-1.773,1.12-1.631,1.919-1.877,4.106c-0.37,3.289-0.598,6.569-0.912,9.838
			c-1.442,3.399-1.832,7.486-1.496,10.473c0.142,1.259,1.719-0.437,1.833-0.947c0.679-3.035,1.142-6.04,1.497-9.129
			c0.02-0.177,0.031-0.355,0.051-0.532c0.994-1.796,2.487-3.257,4.682-3.943c1.163-0.363,2.231,0.022,3.287,0.413
			c-0.111,4.171,1.417,8.212,5.737,9.22c7.083,1.653,10.424-3.515,12.222-9.398v10.508c0,1.549,1.878-0.039,1.895-0.979
			c0.143-8.152,2.68-16.675,11.193-19.683C235.752,47.028,236.654,44.614,235.491,45.025z M206.115,52.709
			c0.482-0.946,1.018-1.859,1.608-2.74c0.967,0.317,1.935,0.634,2.902,0.951c-0.463,1.166-1.029,2.282-1.696,3.348
			c-0.363,0.615-1.767,0.777-3.387,0.822C205.596,54.201,205.776,53.38,206.115,52.709z"/>
	</defs>
	<clipPath id="mask_text_designer">
		<use xlink:href="#SVGID_1_"  style="overflow:visible;"/>
		<use xlink:href="#SVGID_2_"  style="overflow:visible;"/>
		<use xlink:href="#SVGID_3_"  style="overflow:visible;"/>
		<use xlink:href="#SVGID_4_"  style="overflow:visible;"/>
		<use xlink:href="#SVGID_5_"  style="overflow:visible;"/>	
		<use xlink:href="#SVGID_6_"  style="overflow:visible;"/>	
		<use xlink:href="#SVGID_7_"  style="overflow:visible;"/>	
		<use xlink:href="#SVGID_8_"  style="overflow:visible;"/>	
		<use xlink:href="#SVGID_9_"  style="overflow:visible;"/>
	</clipPath>
	<path class="pen-stroke" id="path_text_designer" style="clip-path:url(#mask_text_designer);fill:none;" d="M27.308,24.791c0,0-0.364-0.911-3.188-1.275
		c-2.824-0.364-4.737-0.82-6.559-0.182s-4.282,1.093-5.557,2.095s-2.095,1.093-2.551,3.097c-0.455,2.004-0.82,2.824,0.729,4.282
		s1.549,1.458,2.46,3.644c0.911,2.186,3.279,5.375,1.366,7.743s-2.004,4.19-3.917,3.006c-1.913-1.184-2.824-1.093-2.369-2.46
		c0.455-1.366,0.911-2.277,2.095-2.642s5.01-0.638,6.65-0.547c0,0,5.958,0.311,9.312-2.756c3.354-3.066,6.42-6.708,7.858-13.511
		c1.437-6.804,1.246-14.182,0.383-16.099c-0.862-1.917-1.437-2.587-2.204-0.575c-0.767,2.012-2.396,24.819-2.204,28.364
		c0.192,3.546-0.671,9.774,0.192,8.145s2.108-6.229,4.12-7.666s2.012-2.683,4.504-1.246s3.833,4.025,5.845,1.821
		c2.012-2.204,4.216-0.383,3.546-5.175s-1.342-7.474-2.875-6.324c-1.533,1.15-3.546,3.354-3.737,5.27s2.587,8.624,6.42,8.72
		s6.037,0.192,7.858-1.246c1.821-1.437,1.439-3.194,3.996-2.962s6.626,2.557,7.207,4.068c0.581,1.511,2.79,5.696,4.185,5.696
		c1.395,0,3.72-0.465,4.533-2.325c0.814-1.86,0.93-3.255-1.744-9.299c-2.673-6.044-3.603-8.485-1.976-9.648
		c1.627-1.162,3.836-2.79,4.998-2.557c1.162,0.232,1.279,0.465,0.93,1.744s-1.744,4.068-0.116,4.301
		c1.627,0.232,3.72-3.255,4.301-4.65c0.581-1.395,1.86-3.603,0.581-4.533c-1.279-0.93-8.253-1.511-9.299-1.279
		c-1.046,0.232-6.044,2.325-7.091,2.673c-1.046,0.349-1.395-10.926-1.046-13.6c0.349-2.673-2.092-2.673-2.906-2.209
		S58.784,7.022,58.9,8.882s0.814,6.161,1.511,7.091c0.697,0.93,1.395,0.814,1.395,3.603s0.349,19.877-0.697,22.434
		c-1.046,2.557-13.484,8.253-14.065,10.229c-0.581,1.976,0.465,23.829,0.93,25.689c0.465,1.86,0.697,11.508,0.93,12.205
		s0.697,2.673-1.046,4.533c-1.744,1.86-14.297-3.255-14.646-8.253c-0.349-4.998,3.138-9.532,3.138-9.532s1.046,0.581,3.952,0.349
		c2.906-0.232,12.089-0.232,16.041-6.044c3.952-5.812,1.86-11.973,0.581-14.181s-1.511-3.138-1.395-0.349
		c0.116,2.79,0.697,19.644,1.279,21.62c0.581,1.976,3.836,13.716,4.185,14.762c0.349,1.046-0.465-0.697,0.93-5.579
		s2.557-8.485,3.952-8.95c1.395-0.465,6.044,1.86,8.602,2.092s3.371,0.93,4.882-0.93c1.511-1.86,2.79-2.209,2.325-5.231
		s-0.116-5.347-1.976-4.882s-2.441,0.232-3.138,2.673c-0.697,2.441-0.697,6.277,0.465,7.207c1.162,0.93,5.579,5.928,14.995,5.347
		c9.415-0.581,13.019-3.022,14.646-4.417c1.627-1.395-3.138-24.875,5.696-24.759s9.299,0.581,7.207,2.092
		c-2.092,1.511-2.325,0.116-4.301,2.906c-1.976,2.79-3.836,4.533-3.72,8.485c0.116,3.952,0.93,9.299,3.603,9.299
		c2.673,0,5.114-0.465,6.277-2.557c1.162-2.092,3.72-5.231,3.371-8.137c-0.349-2.906-1.395-5.347-3.952-5.231
		s-8.602,0.697-5.928,12.437c0,0,2.325,3.022,5.812-0.581c3.487-3.603,3.72-6.161,4.766-10.113
		c1.046-3.952,4.185-21.853,3.255-26.037c0,0-2.441,1.395-3.487,11.973s-0.232,16.041,0.697,18.133
		c0.93,2.092,3.371,7.091,6.044,5.928c2.673-1.162,2.79-1.395,4.301-5.347c1.511-3.952,0-3.72,3.255-5.579
		c3.255-1.86,5.231-2.79,5.696-4.882s2.092-4.185,0.232-4.65c-1.86-0.465-2.906-0.581-4.301,1.279
		c-1.395,1.86-3.72,6.393-3.603,7.788c0.116,1.395-0.581,7.091,0.814,8.95c1.395,1.86,1.976,2.673,4.65,1.86
		c2.673-0.814,5.231-2.092,6.161-3.022c0.93-0.93,1.86-1.627,2.79-2.673s-3.022-6.509-3.371-11.159
		c-0.349-4.65-1.162-8.253,0.232-11.508c1.395-3.255,3.72-7.555,7.904-6.858c4.185,0.697,8.95,2.557,8.253,7.904
		c-0.697,5.347-1.046,7.323-1.627,8.369s-1.046,1.395-1.279-2.092c-0.232-3.487-0.349-4.882-1.86-4.766
		c-1.511,0.116-3.603,1.511-4.068,2.79s-1.162,3.836-1.046,5.579c0.116,1.744,1.627,6.858,2.441,8.369
		c0.814,1.511,2.325,4.301,2.325,5.812c0,1.511,0.93,3.022-0.232,4.766s-2.906,1.976-2.906,1.976
		c0.116-1.395,3.487-2.441,5.579-3.603c2.092-1.162,5.463-3.952,5.928-7.672c0.325-2.6,0.593-3.894,0.606-5.232
		c0.006-0.576-0.036-1.159-0.141-1.859c-0.141-0.94-0.263-1.786-0.351-2.543c-0.129-1.116-0.183-2.042-0.114-2.804
		c0.032-0.352,0.249-1.216,0.576-2.313c0.86-2.889,2.481-7.402,3.492-8.497c1.395-1.511,2.79-2.325,3.603-2.441
		c0.814-0.116-2.092,5.812-2.092,5.812c-1.279,1.511-2.557,2.209-2.557,2.209s-0.93,1.976-1.86,4.417s-0.116,8.369-0.116,8.369
		c0.697,3.022,3.72,10.694,5.231,11.391s1.86-4.068,1.279-6.509c-0.581-2.441-3.255-8.602-2.557-9.648
		c0.697-1.046,1.744,3.603,4.417,4.417s8.253,1.627,9.88-0.349c1.627-1.976,3.138-3.138,2.325-5.928
		c-0.814-2.79-1.395-5.347-3.72-5.114c-2.325,0.232-3.836,1.511-4.301,2.325c-0.465,0.814-1.744,5.579-1.744,6.858
		s1.627,12.089,2.557,13.949c0.93,1.86,4.068,10.229,2.209,14.065s-0.349,6.858-4.068,5.463s-4.301-0.116-4.766-2.673
		c-0.465-2.557-0.93-4.65-0.581-6.858c0.349-2.209,13.949-38.242,15.925-39.637c1.976-1.395,5.928,1.162,5.812,1.976
		c-0.116,0.814-0.72,2.719-1.174,4.905c-0.454,2.186-2.546,18.808-2.778,20.319c-0.232,1.511-0.697,4.301-0.697,4.301
		s1.279-15.46,5.463-17.087c4.185-1.627,8.834,0,9.764-0.697c0.93-0.697,0.93-0.697,0.93-0.697s1.744-1.976,2.441-4.185
		c0.697-2.209,3.255-5.114,0.465-4.417c-2.79,0.697-4.301,1.976-5.114,2.906c-0.814,0.93-2.209,7.904-1.744,9.648
		c0.465,1.744,2.79,6.393,5.696,6.393c2.906,0,4.998-0.697,6.509-1.976s3.836-4.533,4.301-6.626
		c0.465-2.092,1.86-13.716,1.86-14.181c0-0.465-0.349,29.176-0.349,29.176s-2.557-25.456,15.692-27.083"/>
</g>
</svg>
