<svg width="438" height="291" viewBox="0 0 438 291" fill="none" xmlns="http://www.w3.org/2000/svg">
<path d="M25.4482 37.4712C42.6788 12.4904 70.2477 0 108.155 0C146.062 0 172.571 11.6931 187.681 35.0794C203.056 58.2 210.743 93.6781 210.743 141.514C210.743 241.171 175.222 291 104.179 291C67.8619 291 41.3533 279.041 24.653 255.123C8.21765 230.94 0 195.063 0 147.493C0 99.126 8.48274 62.452 25.4482 37.4712ZM137.182 70.5575C131.35 56.7383 120.879 49.8288 105.769 49.8288C90.6593 49.8288 79.9233 56.8712 73.5612 70.9562C67.4643 85.0411 64.4158 109.889 64.4158 145.5C64.4158 180.048 67.5968 204.63 73.9589 219.247C80.3209 233.863 90.9243 241.171 105.769 241.171C120.614 241.171 130.952 233.863 136.784 219.247C142.881 204.63 145.93 179.384 145.93 143.507C145.93 108.427 143.014 84.1109 137.182 70.5575Z" fill="#E5E5E5" fill-opacity="0.2"/>
<path d="M239.186 269.075L256.284 225.226C280.142 236.388 303.602 241.969 326.664 241.969C339.918 241.969 350.787 238.514 359.27 231.604C367.752 224.429 371.994 214.596 371.994 202.105C371.994 187.223 365.764 176.46 353.305 169.816C341.111 162.907 322.688 159.452 298.035 159.452H255.091L261.851 4.78355H424.878L423.685 53.8151H318.314L315.53 113.61C353.968 113.61 383.923 120.918 405.395 135.534C427.132 149.885 438 170.082 438 196.126C438 225.359 427.662 248.479 406.985 265.488C386.573 282.23 361.92 290.601 333.026 290.601C317.121 290.601 301.348 288.874 285.708 285.419C270.068 281.699 258.405 278.111 250.717 274.656L239.186 269.075Z" fill="#E5E5E5" fill-opacity="0.2"/>
</svg>
