<svg width="35" height="28" viewBox="0 0 35 28" fill="none" xmlns="http://www.w3.org/2000/svg">
<path d="M25.2 27.384C21.04 27.384 18.96 25.016 18.96 20.28C18.96 14.648 22.64 7.928 30 0.119997L34.32 3.768C30.928 8.312 29.232 11.704 29.232 13.944C29.232 14.328 29.328 14.776 29.52 15.288C29.776 15.736 30.064 16.312 30.384 17.016C30.704 17.656 30.96 18.392 31.152 19.224C31.344 19.992 31.44 20.728 31.44 21.432C31.44 22.968 30.864 24.344 29.712 25.56C28.56 26.776 27.056 27.384 25.2 27.384ZM6.48 27.384C2.32 27.384 0.24 25.016 0.24 20.28C0.24 14.648 3.92 7.928 11.28 0.119997L15.6 3.768C12.208 8.312 10.512 11.704 10.512 13.944C10.512 14.328 10.608 14.776 10.8 15.288C11.056 15.736 11.344 16.312 11.664 17.016C11.984 17.656 12.24 18.392 12.432 19.224C12.624 19.992 12.72 20.728 12.72 21.432C12.72 22.968 12.144 24.344 10.992 25.56C9.84 26.776 8.336 27.384 6.48 27.384Z" fill="#4F4F4F"/>
</svg>
