<svg width="35" height="28" viewBox="0 0 35 28" fill="none" xmlns="http://www.w3.org/2000/svg">
<path d="M0.28 23.736C3.672 19.192 5.368 15.8 5.368 13.56C5.368 13.24 5.272 12.856 5.08 12.408C4.888 11.896 4.6 11.288 4.216 10.584C3.896 9.88 3.64 9.144 3.448 8.376C3.256 7.608 3.16 6.84 3.16 6.07199C3.16 4.536 3.736 3.16 4.888 1.944C6.04 0.727997 7.544 0.119997 9.4 0.119997C13.56 0.119997 15.64 2.488 15.64 7.224C15.64 12.856 11.96 19.576 4.6 27.384L0.28 23.736ZM19 23.736C22.392 19.192 24.088 15.8 24.088 13.56C24.088 13.24 23.992 12.856 23.8 12.408C23.608 11.896 23.32 11.288 22.936 10.584C22.616 9.88 22.36 9.144 22.168 8.376C21.976 7.608 21.88 6.84 21.88 6.07199C21.88 4.536 22.456 3.16 23.608 1.944C24.76 0.727997 26.264 0.119997 28.12 0.119997C32.28 0.119997 34.36 2.488 34.36 7.224C34.36 12.856 30.68 19.576 23.32 27.384L19 23.736Z" fill="#4F4F4F"/>
</svg>
