<svg width="69" height="71" viewBox="0 0 69 71" fill="none" xmlns="http://www.w3.org/2000/svg">
<path d="M44.3735 66.7094C40.7243 67.7789 37.2316 67.9367 37.2316 67.9367L37.2868 67.9661C36.489 68.0126 35.2354 68.0893 34.4965 68.0893C33.2801 68.0893 31.1602 67.9315 31.1602 67.9315L31.2992 68.0893C31.2992 68.2471 32.0638 71 34.6529 71C36.439 71 37.3617 69.4815 37.7951 68.5419C38.3539 69.3619 39.3674 70.2337 41.0371 70.2337C43.1571 70.2337 44.2171 68.3926 44.8253 66.8672L44.3735 66.7094ZM34.6512 70.381C32.6702 70.381 31.7666 68.084 31.7666 68.084C31.7666 68.084 33.4348 68.2419 34.4948 68.2419H36.3193C36.0066 68.6977 35.7111 68.6977 35.4157 68.6977C35.1029 68.6977 34.8075 68.8555 34.8075 69.1536C34.9466 69.4693 35.1029 69.6271 35.4157 69.6271C36.1629 69.6271 36.6321 68.5575 36.7711 68.084H37.3793C37.3793 68.084 36.6321 70.381 34.6512 70.381ZM41.0267 69.6236C39.2021 69.6236 38.2986 68.2383 38.2986 68.2383H38.9067C39.2021 68.554 39.6539 69.0099 40.1231 69.0099C40.7313 69.0099 40.8703 68.852 40.8703 68.554C40.8703 68.3962 40.7313 68.2383 40.5749 68.2383C40.4185 68.2383 40.4185 68.2383 40.2621 68.3962C39.8103 68.3962 39.6539 68.0805 39.6539 68.0805C41.9477 67.7824 42.8513 67.6246 44.0676 67.1687C43.7722 67.7824 43.0077 69.6236 41.0267 69.6236Z" fill="#F2F2F2"/>
<path d="M24.9217 66.7095L24.3135 66.8673C24.9217 68.3928 25.9817 70.2339 28.119 70.2339C30.239 70.2339 31.299 68.8487 31.7681 68.0947L32.0635 67.9369C32.0635 67.9369 28.5708 67.7791 24.9217 66.7095ZM28.2719 69.6237C26.1346 69.6237 25.5264 67.7826 25.0746 67.1689C26.4474 67.6248 27.3509 67.7826 29.6273 68.0807C29.6273 68.0807 29.4883 68.3963 29.0191 68.3963C28.8801 68.2385 28.8801 68.2385 28.7237 68.2385C28.5673 68.2385 28.4109 68.3963 28.4109 68.5541C28.4109 68.8522 28.5673 69.01 29.0191 69.01C29.6273 69.01 30.0965 68.5541 30.3919 68.2385H31.0001C31.0001 68.2385 30.0965 69.6237 28.2719 69.6237Z" fill="#4F4F4F"/>
<path d="M34.4996 68.2397C31.8062 68.2397 29.0954 67.9241 26.4367 67.2754C24.8381 66.8896 23.222 66.3811 21.6581 65.7674C19.9378 65.0836 18.2175 64.2595 16.5493 63.3126C9.56387 59.3498 5.46294 52.9147 5.30655 49.9865C5.08065 47.8649 5.87998 46.4621 6.59243 45.6555C7.09636 45.0944 7.70455 44.6385 8.39962 44.3229C9.04256 44.0248 9.72026 43.867 10.3458 43.867C10.9019 43.867 11.4058 43.9372 11.8576 44.0599C12.2573 44.1651 12.6222 44.3229 12.935 44.5333C13.5432 44.9191 13.9254 45.3925 14.2382 45.7783C14.2556 45.7958 14.273 45.8133 14.2904 45.8309C17.0359 48.8994 20.3375 51.512 23.8302 53.3531C25.6027 54.2824 27.3925 55.0013 29.1649 55.4923C30.9895 56.0183 32.7793 56.2813 34.4996 56.2813C36.1677 56.2813 37.9402 56.0183 39.7474 55.5098C41.5024 55.0189 43.2749 54.3 45.0299 53.3706C46.7676 52.4588 48.4531 51.3366 50.0692 50.0742C51.6852 48.7942 53.197 47.3739 54.5524 45.8484C54.5698 45.8309 54.5872 45.8133 54.6045 45.7958C54.8999 45.41 55.2822 44.9191 55.8904 44.5333C56.2206 44.3229 56.5855 44.1651 56.9852 44.0424C57.437 43.9372 57.9583 43.867 58.5143 43.867C59.1225 43.867 59.8002 44.0248 60.4258 44.3054C61.1035 44.621 61.729 45.0594 62.233 45.6205C62.7369 46.164 63.1192 46.7953 63.3624 47.4791C63.6405 48.2506 63.7447 49.0923 63.6752 49.9865C63.5883 50.7405 63.2756 51.6873 62.7369 52.7569C62.1808 53.8791 61.3989 55.1065 60.4779 56.2813C59.4353 57.5789 58.2537 58.8413 56.9504 59.9811C55.4908 61.2611 53.9095 62.4008 52.2587 63.3301C49.1135 65.1362 45.7945 66.4688 42.4234 67.2929C39.7821 67.9241 37.1235 68.2397 34.4996 68.2397ZM10.3458 43.867C9.72026 43.867 9.04256 44.0248 8.39962 44.3229C7.72192 44.6385 7.09636 45.0944 6.59243 45.6555C5.87998 46.4621 5.08065 47.8649 5.32393 49.9865C5.48032 52.9147 9.58124 59.3498 16.5667 63.3301C18.2349 64.277 19.9552 65.1011 21.6755 65.7849C23.2394 66.3986 24.8381 66.9071 26.4367 67.2929C29.078 67.9241 31.7888 68.2397 34.4822 68.2397C37.1061 68.2397 39.7821 67.9241 42.406 67.2929C45.7945 66.4688 49.1135 65.1362 52.276 63.3301C53.9268 62.3833 55.5081 61.2611 56.9678 59.9811C58.271 58.8413 59.4527 57.5789 60.4779 56.2638C61.3989 55.089 62.1808 53.8791 62.7369 52.7394C63.2582 51.6873 63.5883 50.7229 63.6752 49.9865C63.7274 49.0923 63.6231 48.2506 63.3624 47.4791C63.1192 46.7777 62.7369 46.164 62.233 45.6205C61.729 45.0769 61.1035 44.621 60.4258 44.3229C59.7828 44.0248 59.1225 43.8846 58.5143 43.8846C57.9583 43.8846 57.4543 43.9547 56.9852 44.0774C56.5855 44.1826 56.2206 44.3405 55.8904 44.5509C55.2822 44.9366 54.8999 45.41 54.6045 45.7958C54.5872 45.8133 54.5698 45.8309 54.5524 45.8484C53.197 47.3739 51.6852 48.7942 50.0692 50.0742C48.4531 51.3542 46.7676 52.4588 45.0299 53.3706C43.2749 54.3 41.4851 55.0189 39.7474 55.5098C37.9228 56.0183 36.1677 56.2813 34.4996 56.2813C32.7967 56.2813 30.9895 56.0183 29.1649 55.5098C27.3925 55.0189 25.6027 54.3 23.8302 53.3531C20.3375 51.512 17.0359 48.9169 14.2904 45.8309C14.273 45.8133 14.2556 45.7958 14.2382 45.7607C13.9254 45.375 13.5432 44.9016 12.9523 44.5158C12.6048 44.3405 12.2399 44.1826 11.8576 44.0599C11.4058 43.9372 10.8845 43.867 10.3458 43.867Z" fill="#2B3332"/>
<path d="M6.08676 44.6318C5.27005 44.6318 4.47072 44.474 3.72352 44.1409C2.99369 43.8428 2.33337 43.3869 1.77732 42.8258C1.22126 42.2647 0.786839 41.5984 0.474056 40.8795C0.161274 40.1255 0.00488281 39.3189 0.00488281 38.4948C0.00488281 37.6707 0.161274 36.8641 0.491433 36.1102C0.786839 35.3912 1.22126 34.7249 1.77732 34.1638C2.33337 33.6027 2.99369 33.1468 3.70614 32.8488C4.47072 32.5156 5.27005 32.3578 6.08676 32.3578C6.90347 32.3578 7.70281 32.5156 8.45001 32.8488C9.17984 33.1644 9.82278 33.6027 10.3788 34.1638C10.9349 34.7249 11.3867 35.3912 11.6821 36.1102C12.0123 36.8641 12.1686 37.6707 12.1686 38.4948C12.1686 39.3189 12.0123 40.1255 11.6821 40.8795C11.3693 41.5984 10.9349 42.2647 10.3788 42.8258C9.82278 43.3869 9.16246 43.8428 8.45001 44.1409C7.68543 44.474 6.90347 44.6318 6.08676 44.6318ZM6.08676 32.3578C5.27005 32.3578 4.47072 32.5156 3.72352 32.8488C2.99369 33.1644 2.35075 33.6027 1.77732 34.1638C1.22126 34.7249 0.786839 35.3912 0.474056 36.1102C0.161274 36.8641 0.00488281 37.6707 0.00488281 38.4948C0.00488281 39.3189 0.161274 40.1255 0.491433 40.8795C0.786839 41.5984 1.22126 42.2647 1.77732 42.8258C2.33337 43.3869 2.99369 43.8428 3.70614 44.1409C4.47072 44.4565 5.27005 44.6318 6.08676 44.6318C6.90347 44.6318 7.70281 44.474 8.45001 44.1409C9.17984 43.8253 9.82278 43.3869 10.3788 42.8258C10.9349 42.2647 11.3867 41.5984 11.6821 40.8795C11.9949 40.1255 12.1686 39.3189 12.1686 38.4948C12.1686 37.6707 11.9949 36.8641 11.6821 36.1102C11.3693 35.3912 10.9349 34.7249 10.3788 34.1638C9.82278 33.6027 9.16246 33.1468 8.45001 32.8488C7.68543 32.5331 6.90347 32.3578 6.08676 32.3578Z" fill="#231F20"/>
<path d="M23.7109 5.06714C26.1437 4.29563 28.4201 3.54165 31.3046 3.38384L23.7109 5.06714Z" fill="#4F4F4F"/>
<path d="M32.2148 65.1703L33.7266 65.3281L34.0394 59.3489L32.5276 59.1911L32.2148 65.1703Z" fill="#4F4F4F"/>
<path d="M22.1869 55.975L20.5187 59.2013C19.9105 60.1131 19.3024 60.7268 18.5378 60.2709C17.6342 59.815 17.7732 59.0435 18.3814 58.1141L20.0669 54.9054L18.6942 54.1339L16.8696 57.5004C15.8096 59.3415 17.026 60.4287 18.086 61.0424C19.146 61.6561 20.6751 62.112 21.7351 60.2709L23.5597 56.8867L22.1869 55.975Z" fill="#4F4F4F"/>
<path d="M28.2688 62.7203L26.2879 57.8107L24.9151 57.3548L23.4033 63.1762L24.7761 63.4918L25.9925 59.494L27.956 64.4036L29.1724 64.7192L30.7016 58.8803L29.3288 58.5822L28.2688 62.7203Z" fill="#4F4F4F"/>
<path d="M40.2727 58.5826L35.4072 59.1963L35.5636 60.1081L37.2318 59.81L37.9964 64.8774L39.5082 64.7196L38.7436 59.6522L40.4291 59.3541L40.2727 58.5826Z" fill="#4F4F4F"/>
<path d="M50.0033 54.5987C49.5341 54.7565 48.9259 54.8967 48.4741 55.2124L46.4932 56.4398L49.3951 61.6475L50.0033 61.1916L51.3587 60.4201C53.496 59.1927 53.635 57.5094 52.8878 55.9839C52.1232 54.7565 51.2023 54.4409 50.0033 54.5987ZM50.9069 59.8064L50.2987 60.122L50.0033 59.6485L48.1787 56.282L48.7869 55.9839C49.2387 55.6683 49.6905 55.6683 50.0033 55.6683C50.7505 55.6683 51.0633 56.282 51.5151 56.8957C52.2796 58.1231 52.1232 59.1927 50.9069 59.8064Z" fill="#4F4F4F"/>
<path d="M44.6757 62.57L44.0675 60.7289L45.8921 60.273L45.5793 59.5015L43.9111 59.9573L43.3029 58.4319L45.1275 57.8181L44.9885 57.0466L41.6348 58.1162L43.4593 63.7974L47.1085 62.7278L46.7957 61.9563L44.6757 62.57Z" fill="#4F4F4F"/>
<path d="M58.5091 43.8675C56.0763 43.8675 55.1554 45.0949 54.5472 45.8489C49.0735 51.9859 41.3234 56.2818 34.4944 56.2818C27.5089 56.2818 19.7588 51.9859 14.2851 45.8489C13.6769 45.0949 12.756 43.8675 10.3406 43.8675C8.04686 43.8675 4.8669 46.0067 5.3187 49.987C5.47509 52.9152 9.57602 59.3503 16.5615 63.3306C23.547 67.3285 29.9416 68.2402 34.4944 68.2402C38.9081 68.2402 45.2854 67.3285 52.2708 63.3306C59.2563 59.3503 63.3572 52.9152 63.67 49.987C63.9654 46.0067 60.7855 43.8675 58.5091 43.8675ZM62.6135 49.8345C62.3007 52.2893 58.5126 58.5841 51.8225 62.4066C46.3488 65.6329 40.4233 67.1759 34.3414 67.1759C28.2596 67.1759 22.4905 65.6329 17.0168 62.4066C10.1877 58.5841 6.38217 52.2893 6.22577 49.8345C5.93037 48.1512 6.67757 46.9237 7.28576 46.31C8.05034 45.3983 9.26672 44.7846 10.3267 44.7846C12.1513 44.7846 12.9158 45.6963 13.524 46.31V46.4679C19.2931 53.2186 27.356 57.3567 34.3414 57.3567C41.3269 57.3567 49.3897 53.2186 55.1588 46.4679L55.3152 46.31C55.767 45.6963 56.5316 44.7846 58.3562 44.7846C59.4162 44.7846 60.6326 45.3983 61.5361 46.31C62.0053 46.9237 62.7525 48.1512 62.6135 49.8345Z" fill="#4F4F4F"/>
<path d="M21.1221 21.0112C21.4175 20.7307 22.4775 19.8014 23.103 19.3279H45.745H23.103C22.4775 19.8014 21.4175 20.7307 21.1221 21.0112Z" fill="#231F20"/>
<path d="M33.5879 35.884C33.5879 35.884 33.7269 36.6555 34.1961 37.427C34.6479 36.6555 34.8043 35.884 34.8043 35.884H34.1961H33.5879Z" fill="#4F4F4F"/>
<path d="M45.745 19.3317H23.103C22.4948 19.7876 21.4349 20.6993 21.1221 21.015V48.9296L34.5022 57.5039L47.7086 48.9296V21.015C47.2568 20.6993 46.3532 19.7876 45.745 19.3317ZM43.0064 33.5871V36.8134H40.8691V38.3389C41.3382 38.7948 41.79 39.7241 41.79 40.3378C41.79 40.9515 41.4773 41.2496 41.4773 41.2496C41.6336 41.5652 41.4773 41.8633 41.4773 42.1789C41.4773 42.6348 40.8691 43.4063 40.8691 43.4063V51.0688C40.8691 51.5247 39.6527 51.5247 39.6527 51.0688V43.5641C39.5137 43.2485 39.0619 42.9504 38.7491 42.7926L37.2373 42.1789C36.4727 42.7926 36.0209 44.02 36.0209 44.02C36.3163 44.1603 36.7681 44.02 37.0809 43.8622C37.2373 43.7044 37.5327 43.5641 37.6891 43.7044C37.9845 43.8622 37.9845 43.8622 37.9845 44.1603C37.8455 44.4759 37.6891 44.9318 37.6891 45.3877C37.6891 45.7033 38.1409 45.7033 38.4537 45.7033H38.7491C39.0619 46.0014 39.0619 46.4748 39.0619 46.7729C39.0619 47.0885 38.9055 48.0003 38.9055 48.4562V49.6836C38.9055 49.9992 39.0619 50.2973 39.0619 50.7707C39.0619 51.0688 38.9055 51.2266 38.7491 51.0688C38.5927 51.0688 38.4537 51.0688 38.4537 50.911C38.1409 50.7707 36.3163 48.7718 35.1 47.3866L34.1964 46.317L33.8836 46.1592C33.8836 46.4748 33.8836 46.9307 34.1964 47.5444C34.3354 48.0003 34.8046 48.614 35.1 48.9296C35.1 48.9296 35.1 49.0699 35.2564 49.0699C35.5518 49.5433 35.5518 49.9992 35.2564 50.2973C35.1 50.2973 35.1 50.2973 35.1 50.4551C34.8046 50.6129 34.3354 50.7707 34.1964 51.0688C34.04 51.2266 34.04 51.3669 34.1964 51.5247C34.1964 51.8403 34.4918 52.454 35.1 53.0677C35.1 53.208 35.2564 53.3658 35.2564 53.3658C35.7082 53.9795 35.5518 54.4354 35.1 54.751C34.8046 55.0491 34.4918 55.2069 34.1964 55.2069C33.8836 55.3647 33.4318 55.5225 33.119 55.5225C32.059 55.8206 32.059 55.0491 32.059 54.5932C32.2154 54.1373 32.2154 53.8217 32.2154 53.5236C32.2154 53.0677 31.7636 52.5943 31.3118 51.9806C30.8427 51.3669 30.8427 50.7707 30.999 49.2277C31.3118 47.8425 31.1554 46.9307 31.1554 46.9307H29.9391C29.1745 46.7729 28.5663 46.4748 28.5663 44.6337C28.5663 42.9504 28.5663 38.6545 28.4099 38.1811C28.2709 37.7252 27.8017 37.7252 27.6627 37.5674C27.3499 37.5674 27.3499 37.2693 27.5063 37.1115C28.1145 36.9537 28.7227 36.34 28.5663 35.8841C28.2709 35.4282 27.3499 35.586 26.7417 35.8841C26.1335 36.1997 25.369 36.8134 25.2299 36.9537C25.0736 37.1115 24.9172 37.1115 25.0736 36.9537C25.0736 36.8134 24.9172 35.8841 24.7608 35.4282C24.7608 35.1301 24.4654 34.5164 24.309 34.3586C24.17 34.2008 24.309 34.043 24.4654 34.2008C24.6218 34.2008 25.0736 34.3586 25.369 34.5164C25.6817 34.6567 25.9771 34.3586 26.2899 34.043C26.4463 33.7449 26.7417 32.9734 26.8981 32.6753C27.0545 32.3597 27.3499 32.5175 27.5063 32.5175C27.8017 32.5175 27.9581 32.6753 28.1145 32.8156C28.4099 32.8156 28.5663 32.8156 28.5663 32.6753C28.7227 32.6753 28.7227 32.6753 28.8791 32.3597C29.0181 32.0616 29.1745 32.2019 29.1745 32.3597C29.7827 35.8841 31.3118 36.0419 31.3118 36.0419C30.999 36.6556 30.5472 37.7252 30.3909 37.883C30.2345 38.1811 30.2345 38.4967 30.0955 38.6545C30.0955 38.9526 30.2345 41.4074 30.3909 42.1789C30.5472 43.0907 31.1554 42.7926 31.3118 42.477C31.4508 42.1789 31.92 41.1093 31.92 41.1093C31.92 41.1093 32.059 40.7937 32.059 40.6359C32.059 40.3378 31.6072 39.7241 31.6072 39.5663C31.4508 39.4085 31.1554 39.1104 31.1554 38.1811C31.1554 37.4271 31.92 36.8134 32.059 36.6556C32.3718 36.34 32.3718 36.0419 32.3718 35.8841C32.2154 35.2704 31.6072 33.9027 31.1554 33.289C30.8427 32.8156 30.2345 31.746 30.2345 31.746H31.6072L32.3718 30.0627L33.119 31.4479L33.4318 31.9038H34.1964H34.3354L35.1 30.6764L35.4128 30.0627L36.16 31.9038H37.5327C36.7681 32.6753 36.4727 33.7449 36.4727 34.5164V35.2704C36.4727 35.7438 36.16 36.34 36.16 36.34C36.16 36.34 37.3763 37.1115 37.5327 37.2693C37.6891 37.4271 37.6891 37.4271 37.6891 37.5674C37.5327 37.883 36.7681 38.1811 36.7681 38.1811C36.4727 38.3389 36.4727 38.4967 36.4727 38.6545C36.6291 38.7948 36.7681 38.7948 37.0809 38.7948C37.3763 38.6545 37.9845 38.3389 38.4537 38.0408H38.7491C39.2009 37.883 39.6527 37.883 39.6527 37.883V36.8134H38.7491H37.6891V33.5871L37.3763 33.1312L38.2973 31.4479L38.7491 32.3597L39.2009 33.1312L38.7491 33.5871V35.2704H39.8091V33.5871L39.5137 33.1312L40.2609 31.4479L41.1818 33.1312L40.8691 33.5871V35.2704H41.9464V33.5871L41.4773 33.1312L42.3982 31.4479L43.3018 33.1312L43.0064 33.5871ZM46.6521 29.598H22.1855V27.9147H46.6521V29.598ZM46.6521 27.1432H22.1855V20.3925H46.6521V27.1432Z" fill="#4F4F4F"/>
<path d="M38.7485 39.5661C37.9839 39.5661 37.6885 39.7239 37.6885 39.8817C37.6885 40.1798 37.9839 40.6357 38.7485 40.7935C39.0612 40.9513 39.3567 41.1091 39.6521 41.1091V40.022C39.6521 40.022 39.513 39.5661 38.7485 39.5661Z" fill="#4F4F4F"/>
<path d="M33.1188 33.1309C32.9798 32.9731 32.8234 32.9731 32.8234 32.9731C32.667 32.9731 32.8234 33.429 32.8234 33.5868C32.8234 33.9025 32.9798 34.0427 33.1188 34.0427H33.4316C33.588 33.9024 33.588 33.5868 33.4316 33.429C33.2752 33.2887 33.2752 33.1309 33.1188 33.1309Z" fill="#4F4F4F"/>
<path d="M35.0992 33.1309C34.9428 33.1309 34.8038 33.2887 34.8038 33.429C34.6474 33.5868 34.6474 33.9024 34.8038 34.0427H35.0992C35.2556 34.0427 35.2556 33.9025 35.412 33.5868V32.9731C35.2556 32.9731 35.0992 32.9731 35.0992 33.1309Z" fill="#4F4F4F"/>
<path d="M41.795 27.3008V26.0734H40.1268V25.4597H41.4822V22.2334H40.1268L39.814 21.3216L39.3622 22.2334H37.9894V25.4597H39.3622V26.0734H35.8695V25.4597H37.3813V22.2334H36.0259L35.5567 21.3216L35.1049 22.2334H33.8885V25.4597H35.2613V26.0734H31.7685V25.4597H33.1413V22.2334H31.9249L31.4558 21.3216L31.004 22.2334H29.6312V25.4597H31.004V26.0734L28.2758 26.2312L25.5303 25.4597L25.9994 27.3008H41.795Z" fill="#4F4F4F"/>
<path d="M26.4453 25.2989L28.304 25.7632L29.3838 22.9598V22.1741L26.4453 25.2989Z" fill="#4F4F4F"/>
<path d="M26.903 0.929192C25.8257 0.929192 23.7057 1.54289 23.2539 5.2251L23.7057 5.0673C26.1385 4.29578 28.4148 3.54181 31.2994 3.384L31.7685 3.06838C30.083 1.7007 28.4148 0.929192 26.903 0.929192ZM23.8586 4.75693C24.015 3.84515 24.3104 3.23144 24.7622 2.61774C24.6232 3.07364 25.075 3.68734 25.9786 3.68734C26.8996 3.68734 27.3514 3.23144 27.3514 2.91582C27.3514 2.61774 27.0559 2.16185 26.5868 2.16185C26.135 2.16185 26.135 2.45993 26.135 2.61774C26.135 2.77555 26.135 2.77556 25.9786 2.77556C25.8396 2.91583 25.3704 2.61774 25.5268 2.16185C25.6832 1.68842 26.2914 1.39035 27.056 1.39035C27.056 1.39035 28.7241 1.39034 31.0005 3.07364C28.1159 3.37172 26.2914 3.98542 23.8586 4.75693Z" fill="#4F4F4F"/>
<path d="M42.0922 0.929192C40.424 0.929192 38.7559 1.7007 37.0703 3.06838L37.5395 3.384C40.5804 3.54181 42.7004 4.29578 45.1331 5.0673L45.5849 5.2251C45.1332 1.54289 43.0132 0.929192 42.0922 0.929192ZM37.8384 3.23144C39.2111 2.16185 40.4275 1.39035 41.7829 1.39035C42.5475 1.39035 43.1557 1.68842 43.3121 2.16185C43.4684 2.61774 42.9993 2.91583 42.9993 2.77556C42.8603 2.77556 42.7039 2.77555 42.7039 2.61774C42.7039 2.45993 42.7039 2.16185 42.2521 2.16185C41.7829 2.16185 41.6439 2.61774 41.6439 2.91582C41.6439 3.23144 42.0957 3.68734 42.8603 3.68734C43.7639 3.68734 44.2157 3.07364 44.0766 2.61774C44.5284 3.23144 44.8238 3.84514 44.9802 4.91474C42.7039 4.00295 40.7229 3.38925 37.8384 3.23144Z" fill="#4F4F4F"/>
<path d="M37.0771 2.77042C36.3125 1.2274 35.4089 7.45058e-06 34.6443 7.45058e-06C34.0361 7.45058e-06 32.9761 0.929321 31.7598 3.22632L32.5243 3.06852H34.4879H36.6253L37.2335 3.22632L37.0771 2.77042ZM34.4966 2.91245H32.5157C32.5157 2.77218 32.6721 2.77218 32.6721 2.61437H33.4366C33.8884 2.61437 34.4966 2.31628 34.4966 1.84286C34.4966 1.54477 34.3402 1.22916 34.0448 1.22916C33.732 1.22916 33.8884 1.08888 33.8884 1.08888C34.3402 0.475178 34.4966 0.615459 34.653 0.615459C35.2612 0.615459 36.0084 2.00067 36.4776 2.91245H34.4966Z" fill="#4F4F4F"/>
<path d="M60.2701 32.5454C59.575 32.5454 58.8799 32.4051 58.2022 32.1421C57.5593 31.8966 56.9164 31.5284 56.2908 31.0375C55.1961 30.2133 54.0839 29.0561 52.8849 27.4605C52.7633 27.3026 52.6069 27.0922 52.4158 26.8117C51.9118 26.0928 51.1646 24.9881 50.1568 23.7782C48.9578 22.3229 47.6893 21.0254 46.4034 19.9207C42.7021 16.782 38.7055 15.1864 34.5003 15.1864C30.2256 15.1864 26.1768 16.782 22.4582 19.9207C21.1549 21.0078 19.8864 22.3054 18.6874 23.7782C17.6795 25.0056 16.915 26.0928 16.4284 26.8117C16.2199 27.0922 16.0809 27.3026 15.9592 27.4605C14.7602 29.0385 13.6481 30.2133 12.5534 31.0375C11.9104 31.5109 11.2675 31.8966 10.6419 32.1421C9.94686 32.4051 9.25179 32.5454 8.57409 32.5454C8.10492 32.5454 7.61837 32.4753 7.14919 32.3525C6.00232 32.072 5.02922 31.4407 4.28202 30.4764C3.69121 29.7048 3.22204 28.7054 2.89188 27.5306C2.73549 26.952 2.52696 26.0051 2.45746 24.8128C2.40533 24.0939 2.4227 23.6204 2.4227 23.6204C2.57909 23.4977 2.75286 23.3925 2.92663 23.2697C3.56957 22.8139 4.38628 22.2528 5.44627 21.2007C6.6974 19.9558 8.00066 18.3426 9.40818 16.2735C10.5029 14.7831 11.7367 13.3628 13.0921 12.0478C14.7602 10.4346 16.5674 9.01433 18.4789 7.80447C20.7205 6.40172 23.1185 5.29706 25.6034 4.54308C26.9761 4.12226 28.401 3.80664 29.8259 3.57869C31.3377 3.35075 32.919 3.228 34.5003 3.228C36.0642 3.228 37.6107 3.35075 39.1225 3.57869C40.53 3.7891 41.9376 4.10472 43.3103 4.52554C45.7778 5.27952 48.1585 6.38418 50.3827 7.78693C52.2768 8.97927 54.0839 10.3995 55.7521 12.0302C57.0901 13.3453 58.3413 14.7656 59.4186 16.256C60.8261 18.3251 62.1294 19.9382 63.3805 21.1832C64.4405 22.2352 65.2572 22.7963 65.9002 23.2522C66.0739 23.375 66.2477 23.4977 66.4041 23.6029C66.4041 23.6029 66.4215 24.0763 66.3693 24.7952C66.3346 25.4791 66.2129 26.4785 65.9349 27.5306C65.6048 28.7054 65.153 29.7048 64.5448 30.4764C63.7976 31.4407 62.8419 32.072 61.695 32.3525C61.2084 32.4753 60.7393 32.5454 60.2701 32.5454ZM34.5003 15.1864C38.7055 15.1864 42.7195 16.782 46.4034 19.9032C47.6893 21.0078 48.9578 22.3054 50.1568 23.7607C51.1646 24.9881 51.9118 26.0752 52.4158 26.7941C52.6069 27.0747 52.7633 27.2851 52.8849 27.4429C54.0839 29.021 55.1961 30.1958 56.2908 31.0199C56.9337 31.4933 57.5767 31.8791 58.2022 32.1246C58.8799 32.4051 59.575 32.5454 60.2701 32.5454C60.7393 32.5454 61.2258 32.4753 61.695 32.3525C62.8419 32.072 63.7976 31.4407 64.5448 30.4764C65.1356 29.7048 65.6048 28.7054 65.9349 27.5306C66.0913 26.952 66.2998 26.0051 66.3693 24.8128C66.4215 24.1114 66.4041 23.6555 66.4041 23.6204C66.2477 23.5152 66.0913 23.3925 65.9002 23.2697C65.2398 22.8139 64.4405 22.2352 63.3805 21.1832C62.112 19.9382 60.8088 18.3251 59.4186 16.256C58.3239 14.7656 57.0901 13.3453 55.7347 12.0302C54.0839 10.4171 52.2768 8.97927 50.3653 7.78693C48.1411 6.38418 45.7605 5.27952 43.2929 4.52554C41.9376 4.12226 40.53 3.7891 39.1225 3.57869C37.6107 3.35075 36.0642 3.228 34.5003 3.228C32.919 3.228 31.3551 3.35075 29.8259 3.57869C28.3836 3.7891 26.9761 4.12226 25.6034 4.54308C23.1185 5.29706 20.7379 6.40172 18.4962 7.80447C16.5848 8.97927 14.7776 10.4171 13.1094 12.0302C11.754 13.3453 10.5203 14.7656 9.42555 16.256C8.01803 18.3251 6.71477 19.9382 5.46364 21.1832C4.40366 22.2352 3.58695 22.7963 2.94401 23.2522C2.77024 23.375 2.59647 23.4977 2.44008 23.6029C2.44008 23.638 2.4227 24.0939 2.47483 24.7952C2.52696 25.4615 2.63122 26.461 2.90925 27.5131C3.22203 28.6879 3.69121 29.6873 4.2994 30.4588C5.0466 31.4232 6.00232 32.0544 7.14919 32.335C7.61837 32.4753 8.10492 32.5454 8.57409 32.5454C9.26916 32.5454 9.96424 32.4051 10.6419 32.1421C11.2675 31.8966 11.9104 31.5284 12.5534 31.0375C13.6307 30.2133 14.7429 29.0385 15.9592 27.4605C16.0809 27.3026 16.2199 27.0922 16.411 26.8117C16.915 26.0928 17.6622 25.0056 18.67 23.7782C19.869 22.3054 21.1375 21.0078 22.4408 19.9207C26.1768 16.782 30.2256 15.1864 34.5003 15.1864Z" fill="#4F4F4F"/>
<path d="M30.0931 12.1196C28.564 12.4352 27.8167 11.2078 27.504 10.2785C27.2086 8.75302 28.1122 7.6659 29.0331 7.52562C29.7803 7.36781 30.0931 7.52561 30.3885 7.66588L30.5449 6.91191C30.0931 6.7541 29.6239 6.5963 28.7203 6.75411C26.7394 7.21 25.523 8.59521 25.9922 10.5941C26.1312 11.6637 27.0522 13.5048 30.0931 12.8911C30.8403 12.7333 31.3095 12.4352 31.7613 11.9618L31.1531 11.3481C30.9967 11.6637 30.7013 11.9618 30.0931 12.1196Z" fill="#4F4F4F"/>
<path d="M36.3145 8.90211H34.0381V6.4473L32.5264 6.2895V12.2687L34.0381 12.4265V9.67362H36.3145V12.4265H37.8437L37.9827 6.4473H36.4709L36.3145 8.90211Z" fill="#4F4F4F"/>
<path d="M43.1585 11.0467L43.4539 10.2752L41.6294 9.81927L42.2376 8.13598L43.9231 8.74968L44.2185 8.13598L41.0386 6.90857L39.0576 12.5722L42.7067 13.7996L42.8458 13.0456L40.7258 12.2741L41.4904 10.433L43.1585 11.0467Z" fill="#4F4F4F"/>
<path d="M22.034 9.35985L24.3104 13.0421L19.3059 11.0431L18.2285 11.8147L21.4259 16.8821L22.6422 16.1106L20.3659 12.5862L25.3704 14.4273L26.4477 13.6558L23.2504 8.58833L22.034 9.35985Z" fill="#4F4F4F"/>
<path d="M15.1996 14.734L14.1396 15.9614L16.5724 20.5554L17.0242 21.625L17.6324 20.8535L16.8678 19.328L18.2406 17.785L19.7523 18.5565L20.9687 17.3291L16.5724 15.3477L15.1996 14.734ZM16.5724 18.5565L15.495 16.5751L16.5724 17.031L17.476 17.4869L16.5724 18.5565Z" fill="#4F4F4F"/>
<path d="M48.1655 10.887C48.6347 11.0449 48.7737 11.5007 48.7737 11.9742L49.5383 11.5007C49.3819 11.0449 49.0865 10.4311 48.3219 9.97526C46.9491 9.20374 46.0455 9.51937 45.5937 10.1331C45.1246 10.887 45.281 11.5007 45.5937 12.1144C45.5937 12.1144 45.7328 12.4301 45.8891 12.7281C46.2019 13.2016 46.4973 13.8153 46.3409 14.1134C46.0455 14.7271 45.5937 14.7271 44.9856 14.429C44.3774 14.1134 44.221 13.6575 44.221 13.2016L43.3174 13.4997C43.6128 14.1134 43.9256 14.7271 44.8292 15.3408C45.8891 15.9545 47.1055 15.7967 47.7137 14.8849C48.1655 14.2712 48.1655 13.6575 47.5573 12.7281C47.5573 12.4301 47.4183 12.2723 47.2619 11.9742C46.9491 11.6585 46.8101 11.2027 46.9491 10.887C47.2619 10.589 47.7137 10.589 48.1655 10.887Z" fill="#4F4F4F"/>
<path d="M10.7932 19.7928L12.7568 24.0887L8.36042 22.5457L7.43945 23.6153L12.0095 27.4553L12.6177 26.6838L9.42041 23.9309L13.6777 25.4564L14.1295 24.8427L12.1659 20.7046L15.3459 23.475L16.4059 22.2476L11.8532 18.4076L10.7932 19.7928Z" fill="#4F4F4F"/>
<path d="M53.9488 15.8072L54.557 15.1935L50.9078 11.9671L50.2997 12.5808L51.6724 13.6504L48.1797 17.4905L49.3961 18.5601L52.7324 14.72L53.9488 15.8072Z" fill="#4F4F4F"/>
<path d="M66.3985 23.6205C65.1821 22.7087 63.0622 21.6216 59.413 16.2561C55.6249 11.0484 47.4057 3.22806 34.4947 3.22806C21.4273 3.22806 13.2255 11.0484 9.41997 16.2561C5.77084 21.6216 3.65088 22.7087 2.4345 23.6205C2.4345 23.6205 2.12172 31.1252 7.14361 32.3526C10.6364 33.2819 13.5209 30.6693 15.9537 27.4605C17.3264 25.6194 23.5473 15.1865 34.4947 15.1865C45.2857 15.1865 51.5066 25.6194 52.8794 27.4605C55.3121 30.6693 58.1967 33.2819 61.6894 32.3526C66.7113 31.1252 66.3985 23.6205 66.3985 23.6205ZM65.3385 24.2272C65.3385 25.6124 64.8867 30.522 61.394 31.4338C58.9612 32.0475 56.3721 30.522 53.6439 26.8398C53.4875 26.682 53.3312 26.3839 53.1921 26.2261C51.2112 23.3154 44.9729 14.2677 34.4947 14.2677C23.8601 14.2677 17.6218 23.3154 15.6582 26.2261C15.5019 26.3839 15.3455 26.682 15.1891 26.8398C12.4609 30.522 9.87177 32.0475 7.43902 31.4338C3.94628 30.522 3.49449 25.6124 3.49449 24.0869C4.71086 23.3154 6.83083 21.7724 10.3409 16.8803C12.3045 13.8118 20.211 4.15037 34.4947 4.15037C48.622 4.15037 56.5285 13.8118 58.6485 16.8803C62.0022 21.7724 64.1221 23.1576 65.3385 24.0869V24.2272Z" fill="#4F4F4F"/>
<path d="M58.6522 20.3959L54.2559 24.3937L55.3158 25.4633L56.984 23.9203L57.5922 24.534L56.3758 26.9888L57.7486 28.0759L58.6522 25.3055C58.8086 25.4633 59.7295 25.7614 60.6331 25.0074C61.3977 24.2359 61.0849 23.1663 60.3204 22.0967L58.6522 20.3959ZM59.4168 23.9203C59.1214 24.0781 58.965 24.0781 58.6522 24.0781C58.3568 24.0781 58.044 23.9203 57.905 23.78L57.5922 23.4644L58.6522 22.3948L59.1214 22.0967L59.4168 22.3948C59.8686 22.8507 59.8686 23.4644 59.4168 23.9203Z" fill="#4F4F4F"/>
<path d="M55.3063 21.1585L55.9145 20.5624L54.6982 19.1772L55.9145 18.1076L57.1309 19.6331L57.7391 19.0194L55.4627 16.4067L51.0664 20.2468L53.4818 23.1575L54.09 22.7016L52.5782 20.8605L54.09 19.6331L55.3063 21.1585Z" fill="#4F4F4F"/>
<path d="M62.4854 17.6226C62.4804 17.6161 62.4747 17.6092 62.4697 17.6028C62.475 17.6092 62.4804 17.6161 62.4854 17.6226Z" fill="#4F4F4F"/>
<path d="M63.0251 18.2688C63.006 18.2473 62.9884 18.2267 62.9697 18.2055C62.9882 18.2265 63.006 18.2473 63.0251 18.2688Z" fill="#4F4F4F"/>
<path d="M66.1568 19.8281C66.1502 19.8398 66.1435 19.8533 66.1367 19.8657C66.1435 19.8533 66.1502 19.8398 66.1568 19.8281Z" fill="#4F4F4F"/>
<path d="M63.5134 18.7903C63.4767 18.7528 63.4407 18.7158 63.4053 18.6789C63.4409 18.716 63.4767 18.753 63.5134 18.7903Z" fill="#4F4F4F"/>
<path d="M63.7934 19.0679C63.75 19.026 63.707 18.9841 63.665 18.9427C63.707 18.9841 63.7502 19.0258 63.7934 19.0679Z" fill="#4F4F4F"/>
<path d="M63.2581 18.5244C63.2279 18.4922 63.199 18.4604 63.1699 18.4286C63.199 18.4604 63.2279 18.492 63.2581 18.5244Z" fill="#4F4F4F"/>
<path d="M62.2049 17.249C62.1938 17.2337 62.1825 17.2183 62.1719 17.2032C62.1827 17.2181 62.1938 17.2335 62.2049 17.249Z" fill="#4F4F4F"/>
<path d="M62.1751 15.8186C62.1534 15.841 62.1297 15.864 62.1045 15.8875C62.1297 15.864 62.1534 15.841 62.1751 15.8186Z" fill="#4F4F4F"/>
<path d="M66.291 19.594C66.2936 19.589 66.2967 19.5838 66.2993 19.5788C66.2967 19.5838 66.2938 19.589 66.291 19.594Z" fill="#4F4F4F"/>
<path d="M62.0737 17.0637C62.0655 17.052 62.0578 17.0408 62.0498 17.0293C62.0578 17.0408 62.0655 17.052 62.0737 17.0637Z" fill="#4F4F4F"/>
<path d="M62.3462 17.4407C62.3351 17.4258 62.3234 17.4106 62.3125 17.396C62.3234 17.4106 62.3349 17.4258 62.3462 17.4407Z" fill="#4F4F4F"/>
<path d="M65.5088 20.177C65.5112 20.177 65.5136 20.1763 65.516 20.1763C65.5126 20.1763 65.5093 20.1768 65.5059 20.1768C65.5068 20.1768 65.5078 20.177 65.5088 20.177Z" fill="#4F4F4F"/>
<path d="M65.6912 20.1588C65.6803 20.1608 65.6694 20.1622 65.6582 20.1641C65.6691 20.1622 65.6803 20.1608 65.6912 20.1588Z" fill="#4F4F4F"/>
<path d="M65.9858 20.0343C65.9749 20.0419 65.9635 20.0488 65.9521 20.0557C65.9635 20.0488 65.9749 20.0419 65.9858 20.0343Z" fill="#4F4F4F"/>
<path d="M65.8545 20.1071C65.8443 20.1114 65.8345 20.1167 65.8242 20.1206C65.8345 20.1167 65.8443 20.1114 65.8545 20.1071Z" fill="#4F4F4F"/>
<path d="M64.4707 19.6865C64.3988 19.6243 64.3265 19.562 64.2578 19.5007C64.3265 19.562 64.3988 19.6243 64.4707 19.6865Z" fill="#4F4F4F"/>
<path d="M65.3762 20.1685C65.3702 20.1678 65.3643 20.1666 65.3584 20.1657C65.3643 20.1664 65.3702 20.1675 65.3762 20.1685Z" fill="#4F4F4F"/>
<path d="M64.6698 19.8633C64.6664 19.8604 64.6626 19.8577 64.6592 19.8548C64.6626 19.8577 64.6662 19.8604 64.6698 19.8633Z" fill="#4F4F4F"/>
<path d="M64.7599 19.9316C64.7565 19.9294 64.7534 19.927 64.75 19.9248C64.7532 19.9273 64.7565 19.9294 64.7599 19.9316Z" fill="#4F4F4F"/>
<path d="M65.1081 20.1055C65.1058 20.1047 65.1038 20.104 65.1016 20.1032C65.1038 20.104 65.1061 20.1047 65.1081 20.1055Z" fill="#4F4F4F"/>
<path d="M62.1953 15.7979C62.2118 15.7803 62.2272 15.7632 62.242 15.7463C62.2275 15.7632 62.2118 15.7803 62.1953 15.7979Z" fill="#4F4F4F"/>
<path d="M64.1023 19.3584C64.0509 19.3111 63.999 19.2637 63.9492 19.217C63.9987 19.2637 64.0509 19.3111 64.1023 19.3584Z" fill="#4F4F4F"/>
<path d="M61.7324 16.1594C61.775 16.1344 61.8152 16.1095 61.8523 16.0847C61.8152 16.1095 61.775 16.1344 61.7324 16.1594Z" fill="#4F4F4F"/>
<path d="M64.1338 16.2655C64.1577 16.2916 64.1814 16.3176 64.205 16.3435C64.1816 16.3179 64.1577 16.2916 64.1338 16.2655Z" fill="#4F4F4F"/>
<path d="M63.8926 16.0002C63.9189 16.0293 63.9451 16.0582 63.9714 16.0872C63.9454 16.0584 63.9189 16.0293 63.8926 16.0002Z" fill="#4F4F4F"/>
<path d="M61.5605 16.2524C61.6072 16.2292 61.6509 16.2058 61.6924 16.1823C61.6509 16.2058 61.6072 16.2292 61.5605 16.2524Z" fill="#4F4F4F"/>
<path d="M64.3887 16.541C64.4016 16.555 64.4146 16.569 64.4274 16.583C64.4146 16.5692 64.4016 16.555 64.3887 16.541Z" fill="#4F4F4F"/>
<path d="M63.6699 15.7541C63.688 15.7741 63.7058 15.794 63.7238 15.814C63.706 15.794 63.688 15.7741 63.6699 15.7541Z" fill="#4F4F4F"/>
<path d="M62.2607 15.7249C62.2764 15.7064 62.2907 15.6887 62.3044 15.6714C62.2905 15.6889 62.2762 15.7064 62.2607 15.7249Z" fill="#4F4F4F"/>
<path d="M61.8828 16.0637C61.9156 16.0411 61.9467 16.0186 61.9756 15.9962C61.9467 16.0186 61.9154 16.0411 61.8828 16.0637Z" fill="#4F4F4F"/>
<path d="M61.9932 15.9832C62.0251 15.9579 62.0538 15.9332 62.0811 15.9086C62.054 15.9332 62.0251 15.9579 61.9932 15.9832Z" fill="#4F4F4F"/>
<path d="M61.5439 16.2606C61.548 16.2666 61.5535 16.2751 61.5578 16.2815C61.5535 16.2748 61.5483 16.2666 61.5439 16.2606Z" fill="#4F4F4F"/>
<path d="M62.7589 14.736C62.7591 14.9295 62.6257 15.1914 62.5332 15.3501C62.6257 15.1919 62.7589 14.9306 62.7589 14.736C62.7591 14.736 62.7589 14.736 62.7589 14.736Z" fill="#4F4F4F"/>
<path d="M66.166 18.3973C66.1726 18.4085 66.1788 18.4211 66.1854 18.4326C66.1788 18.4209 66.1726 18.4085 66.166 18.3973Z" fill="#4F4F4F"/>
<path d="M66.3604 18.8426C66.3619 18.8481 66.3626 18.8536 66.364 18.8591C66.3626 18.8536 66.3619 18.8481 66.3604 18.8426Z" fill="#4F4F4F"/>
<path d="M66.2402 18.5355C66.2441 18.5433 66.2473 18.5518 66.2512 18.5596C66.2473 18.5518 66.2441 18.5433 66.2402 18.5355Z" fill="#4F4F4F"/>
<path d="M66.3066 18.6854C66.3087 18.6906 66.3103 18.6961 66.3121 18.7014C66.3103 18.6961 66.3087 18.6906 66.3066 18.6854Z" fill="#4F4F4F"/>
<path d="M66.3958 19.3122C66.394 19.3223 66.3919 19.3324 66.3896 19.3423C66.3919 19.3324 66.394 19.3223 66.3958 19.3122Z" fill="#4F4F4F"/>
<path d="M66.3955 19.0052C66.3969 19.0146 66.3966 19.024 66.3978 19.0334C66.3964 19.024 66.3969 19.0146 66.3955 19.0052Z" fill="#4F4F4F"/>
<path d="M66.0195 18.1788C66.0243 18.185 66.0298 18.1933 66.0348 18.2C66.0298 18.1933 66.0245 18.1853 66.0195 18.1788Z" fill="#4F4F4F"/>
<path d="M64.6367 16.8091C64.6385 16.8108 64.6402 16.8129 64.642 16.8147C64.6402 16.8129 64.6385 16.8108 64.6367 16.8091Z" fill="#4F4F4F"/>
<path d="M66.3581 19.4519C66.3569 19.4553 66.3559 19.459 66.3545 19.4622C66.3559 19.459 66.3569 19.4553 66.3581 19.4519Z" fill="#4F4F4F"/>
<path d="M66.0908 18.2769C66.0988 18.2888 66.1072 18.3031 66.1154 18.3157C66.1072 18.3028 66.099 18.2891 66.0908 18.2769Z" fill="#4F4F4F"/>
<path d="M65.2462 20.145C65.2387 20.1432 65.2311 20.1414 65.2236 20.1395C65.2309 20.1414 65.2384 20.1432 65.2462 20.145Z" fill="#4F4F4F"/>
<path d="M66.8598 19.1772C66.8598 18.7213 66.7034 18.1076 66.2516 17.792C64.2706 15.7931 62.4635 13.8117 62.4635 13.8117C62.3071 13.4961 61.9943 13.198 61.8553 13.198C61.5425 13.0402 60.6389 12.7421 60.0307 13.6539C59.4225 14.5657 59.5615 15.9509 59.5615 16.4068L61.5425 19.0194C62.1507 19.9487 63.9752 21.632 64.5834 22.0879V20.4046C65.0352 20.8605 65.9562 20.8605 66.5644 20.2468C66.8598 19.9487 67.0162 19.6331 66.8598 19.1772ZM64.1247 21.4724C61.0837 18.5617 60.0238 16.7206 60.0238 16.7206C60.0238 16.2647 59.8674 14.7217 60.4756 13.9677C60.9274 13.1962 61.3965 13.4943 61.6919 13.6521C61.8483 13.6521 62.1437 13.9677 62.3001 14.4236C62.3001 14.5814 62.1437 14.8795 62.0047 15.1951C61.6919 15.651 60.7883 15.9491 60.7883 15.9491C60.7883 15.9491 61.8483 18.1058 64.1247 20.0872V21.4724ZM66.2271 19.7085C66.1871 19.7764 66.1417 19.8536 66.0972 19.9432C66.0954 19.945 66.0933 19.9461 66.0915 19.9478C66.0589 19.9803 66.0244 20.0079 65.9888 20.0326C65.9757 20.0419 65.9623 20.05 65.9488 20.0581C65.9204 20.0754 65.891 20.0907 65.8613 20.1039C65.8482 20.1098 65.8354 20.1164 65.822 20.1216C65.7805 20.1374 65.7379 20.149 65.6947 20.1578C65.6808 20.1606 65.6664 20.1624 65.6521 20.1646C65.6108 20.1709 65.5691 20.1747 65.5272 20.1753C65.5209 20.1755 65.5153 20.1769 65.5087 20.1769C65.5064 20.1769 65.5038 20.1764 65.5014 20.1764C65.4614 20.1762 65.4212 20.1734 65.3812 20.1687C65.3676 20.1672 65.3541 20.1646 65.3404 20.1624C65.3115 20.158 65.2831 20.153 65.2546 20.1466C65.2407 20.1436 65.2272 20.14 65.2133 20.1365C65.1829 20.1286 65.153 20.1199 65.1232 20.11C65.1134 20.1067 65.1039 20.1039 65.0941 20.1006C65.0135 20.0721 64.9366 20.037 64.866 19.9974C64.8599 19.9938 64.8543 19.9903 64.8482 19.9868C64.8204 19.9708 64.7939 19.9542 64.7683 19.9371C64.7592 19.9309 64.7502 19.9248 64.7413 19.9185C64.7203 19.9035 64.7003 19.8882 64.6812 19.8726C64.6721 19.8652 64.6627 19.8582 64.6542 19.8507C64.6338 19.833 64.6151 19.8152 64.5975 19.7972C64.5936 19.7933 64.5884 19.7891 64.5847 19.7852C64.4655 19.6839 64.3519 19.584 64.2415 19.4851C64.2179 19.4639 64.1955 19.4431 64.1723 19.4218C64.0891 19.3462 64.0074 19.2714 63.9292 19.1973C63.8977 19.1675 63.8673 19.1382 63.8367 19.1086C63.7693 19.0439 63.7033 18.9799 63.6396 18.9164C63.6075 18.8844 63.5762 18.8528 63.5449 18.8212C63.4852 18.7607 63.4272 18.7011 63.3707 18.6419C63.3412 18.611 63.3117 18.5801 63.283 18.5497C63.2265 18.4894 63.1722 18.4304 63.119 18.3717C63.0942 18.3445 63.0688 18.3169 63.0449 18.29C62.9845 18.2224 62.927 18.1562 62.8709 18.0909C62.8573 18.0752 62.8427 18.0587 62.8292 18.0429C62.7595 17.9612 62.6933 17.8812 62.6301 17.8034C62.6209 17.7922 62.6129 17.7817 62.604 17.7705C62.551 17.7047 62.4999 17.6401 62.4513 17.5774C62.4352 17.5566 62.4204 17.5369 62.4048 17.5165C62.3644 17.4637 62.3253 17.4119 62.288 17.3615C62.2732 17.3418 62.2593 17.3225 62.2452 17.303C62.208 17.2521 62.1724 17.2028 62.1383 17.1548C62.1274 17.1395 62.1168 17.1243 62.1061 17.1094C62.0681 17.0553 62.0321 17.0031 61.9978 16.953C61.9934 16.9466 61.9889 16.94 61.9845 16.9337C61.8679 16.7616 61.7714 16.6117 61.6937 16.4898C61.6359 16.3993 61.5857 16.3211 61.5442 16.2604C61.5442 16.2604 61.5444 16.2603 61.5444 16.2601C61.5447 16.2599 61.5451 16.2599 61.5453 16.2597C61.6022 16.2319 61.6541 16.2036 61.7034 16.1755C61.711 16.1711 61.7189 16.1668 61.7265 16.1626C61.7747 16.1345 61.8196 16.1065 61.8611 16.0786C61.8646 16.0762 61.8679 16.074 61.8711 16.0716C61.9578 16.0125 62.0308 15.9542 62.0927 15.898C62.0938 15.8972 62.0946 15.8963 62.0957 15.8952C62.2224 15.7797 62.3034 15.6734 62.3679 15.5888C62.3714 15.5842 62.374 15.5813 62.3772 15.5772C62.4 15.5474 62.4211 15.5202 62.4415 15.4965C62.4435 15.4941 62.4459 15.4908 62.4478 15.4886C62.4509 15.484 62.7606 15.0294 62.7606 14.7349L62.7608 14.7351V14.7349C62.8838 14.8729 63.01 15.0148 63.1375 15.1577C63.185 15.2107 63.2326 15.2642 63.2797 15.3168C63.2808 15.3181 63.2821 15.3194 63.2832 15.3207C63.7958 15.8937 64.2874 16.4361 64.7127 16.8903C64.7172 16.8951 64.7216 16.8997 64.7261 16.9045C64.7887 16.9714 64.8497 17.0358 64.9092 17.0987C64.9262 17.1165 64.9427 17.1338 64.9594 17.1513C65.0066 17.2006 65.0526 17.2491 65.0976 17.2955C65.1236 17.3225 65.1488 17.3481 65.174 17.3742C65.2096 17.4108 65.2453 17.4472 65.2792 17.4818C65.308 17.511 65.3354 17.5384 65.363 17.566C65.3923 17.5954 65.4221 17.625 65.4499 17.6524C65.4773 17.6791 65.5027 17.7034 65.5285 17.7284C65.5548 17.7536 65.5815 17.7797 65.6063 17.8029C65.6291 17.8244 65.6497 17.843 65.6712 17.8628C65.6962 17.8858 65.722 17.9099 65.7453 17.9303C65.7605 17.9439 65.7735 17.9544 65.7881 17.9667C65.8141 17.989 65.8411 18.0125 65.8643 18.0311C65.8658 18.0324 65.8671 18.0331 65.8687 18.0344C65.9015 18.0605 65.9316 18.0833 65.9581 18.101C66.0127 18.163 66.0844 18.2599 66.1543 18.3767C66.1571 18.3816 66.1599 18.3855 66.1628 18.3903C66.181 18.4212 66.1984 18.4543 66.216 18.4876C66.2234 18.5015 66.2308 18.5144 66.2379 18.5286C66.252 18.5571 66.2649 18.5874 66.2781 18.6174C66.2872 18.638 66.297 18.6577 66.3055 18.679C66.3174 18.7088 66.327 18.7399 66.3372 18.7708C66.3446 18.7932 66.3533 18.8149 66.3598 18.8377C66.3717 18.8795 66.3802 18.9221 66.3882 18.9648C66.3906 18.9773 66.3943 18.9891 66.3963 19.0016C66.4052 19.0577 66.4102 19.1143 66.4102 19.1706C66.4102 19.1741 66.4093 19.1767 66.4093 19.1802C66.4089 19.2263 66.4043 19.2679 66.3976 19.3076C66.3954 19.3208 66.3926 19.3339 66.3897 19.3466C66.3824 19.3793 66.3732 19.4106 66.3622 19.4406C66.3593 19.4485 66.3569 19.4573 66.3537 19.4652C66.3393 19.5011 66.3224 19.536 66.3039 19.571C66.2955 19.587 66.2861 19.6037 66.277 19.6199C66.2659 19.6394 66.2544 19.6598 66.2427 19.68C66.2373 19.6905 66.2325 19.6991 66.2271 19.7085Z" fill="#4F4F4F"/>
<path d="M64.7588 19.9315C64.7618 19.9335 64.7647 19.9357 64.7677 19.9376C64.7931 19.9547 64.8198 19.9714 64.8476 19.9874C64.8537 19.9909 64.8594 19.9944 64.8654 19.9979C64.936 20.0374 65.0129 20.0724 65.0935 20.1011C65.0961 20.102 65.0987 20.1029 65.1013 20.1038C64.9745 20.0595 64.8572 19.9988 64.7588 19.9315Z" fill="#4F4F4F"/>
<path d="M65.9568 18.1026C65.9759 18.1243 65.9974 18.1506 66.0198 18.1799C65.9968 18.1497 65.9753 18.1232 65.9568 18.1026C65.9307 18.0848 65.9001 18.0614 65.8675 18.0355C65.866 18.0342 65.8647 18.0335 65.8632 18.0322C65.84 18.0136 65.8132 17.9904 65.7869 17.9678C65.7726 17.9555 65.7596 17.9448 65.7442 17.9314C65.7209 17.9108 65.6953 17.8869 65.6701 17.8639C65.6486 17.8442 65.628 17.8255 65.6051 17.804C65.5804 17.7808 65.5537 17.7547 65.5274 17.7295C65.5015 17.7045 65.4761 17.6802 65.4488 17.6535C65.4207 17.6261 65.3912 17.5963 65.3619 17.5671C65.3341 17.5395 65.3069 17.5123 65.278 17.4829C65.2439 17.4485 65.2083 17.4119 65.1729 17.3753C65.1475 17.3493 65.1225 17.3238 65.0964 17.2966C65.0515 17.2502 65.0052 17.2017 64.9583 17.1524C64.9416 17.1349 64.9253 17.1178 64.9081 17.0998C64.8484 17.0369 64.7874 16.972 64.725 16.9056C64.7205 16.9008 64.7161 16.8962 64.7115 16.8914C64.6874 16.8655 64.664 16.841 64.6396 16.8147C65.2439 17.4632 65.725 17.9467 65.9568 18.1026Z" fill="#4F4F4F"/>
<path d="M61.5566 16.2813C61.6479 16.4163 61.7749 16.6241 61.9541 16.8906C61.8503 16.7365 61.7645 16.6022 61.693 16.4904C61.6407 16.4087 61.5957 16.3387 61.5566 16.2813Z" fill="#4F4F4F"/>
<path d="M61.9756 15.9961C61.9815 15.9915 61.9879 15.9869 61.9936 15.9825C61.9879 15.9871 61.9815 15.9915 61.9756 15.9961Z" fill="#4F4F4F"/>
<path d="M66.1368 19.8655C66.1232 19.8909 66.1095 19.9155 66.0956 19.9431C66.061 19.9779 66.0233 20.0077 65.9844 20.0349C65.9855 20.0343 65.9865 20.0336 65.9876 20.0327C66.0235 20.0075 66.0582 19.9797 66.0904 19.9479C66.0921 19.9461 66.0941 19.9448 66.0958 19.9431C66.1095 19.9157 66.1232 19.8909 66.1368 19.8655Z" fill="#4F4F4F"/>
<path d="M64.5845 19.7856C64.5452 19.7523 64.5089 19.7196 64.4707 19.6865C64.5091 19.7198 64.545 19.7523 64.5845 19.7856C64.5882 19.79 64.593 19.7939 64.5969 19.7981C64.6145 19.816 64.633 19.8338 64.6536 19.8515C64.6553 19.8529 64.6571 19.8544 64.6588 19.8557C64.6314 19.8325 64.6065 19.809 64.5845 19.7856Z" fill="#4F4F4F"/>
<path d="M64.6689 19.8633C64.6729 19.8666 64.6772 19.8699 64.6813 19.8734C64.7004 19.8889 64.7202 19.9041 64.7415 19.9192C64.7445 19.9214 64.7476 19.9233 64.7506 19.9255C64.7213 19.9052 64.6941 19.8843 64.6689 19.8633Z" fill="#4F4F4F"/>
<path d="M65.1064 20.1055C65.1117 20.1072 65.1169 20.109 65.1221 20.1105C65.1516 20.1204 65.1818 20.1291 65.2122 20.137C65.2157 20.1379 65.2194 20.1388 65.2229 20.1396C65.1836 20.1298 65.1445 20.1186 65.1064 20.1055Z" fill="#4F4F4F"/>
<path d="M66.2913 19.5938C66.2709 19.631 66.2492 19.6685 66.2257 19.7084C66.2038 19.7457 66.1804 19.7864 66.1562 19.8298C66.1862 19.7761 66.2147 19.7279 66.242 19.6814C66.254 19.6611 66.2653 19.6411 66.2764 19.6214C66.2816 19.612 66.2863 19.6028 66.2913 19.5938Z" fill="#4F4F4F"/>
<path d="M66.2988 19.5798C66.3001 19.5774 66.3016 19.5748 66.303 19.5724C66.3214 19.5375 66.3384 19.5025 66.3527 19.4665C66.3533 19.465 66.3536 19.4635 66.3542 19.4621C66.3384 19.5022 66.3195 19.541 66.2988 19.5798Z" fill="#4F4F4F"/>
<path d="M63.9717 16.087C64.0264 16.1475 64.0805 16.2064 64.1341 16.2654C64.0801 16.2064 64.0262 16.147 63.9717 16.087Z" fill="#4F4F4F"/>
<path d="M62.1963 15.7968C62.1894 15.8041 62.1828 15.8113 62.1758 15.8186C62.1831 15.8113 62.1894 15.8041 62.1963 15.7968Z" fill="#4F4F4F"/>
<path d="M65.6895 20.1592C65.6908 20.159 65.6923 20.1587 65.6936 20.1585C65.7377 20.1498 65.7802 20.1379 65.8209 20.1224C65.8219 20.1219 65.8228 20.1215 65.8239 20.121C65.7809 20.1375 65.7359 20.15 65.6895 20.1592Z" fill="#4F4F4F"/>
<path d="M64.2061 16.3435C64.2682 16.4112 64.3288 16.4774 64.389 16.543C64.3286 16.4774 64.2675 16.411 64.2061 16.3435Z" fill="#4F4F4F"/>
<path d="M63.7236 15.8139C63.7803 15.8768 63.8362 15.9386 63.892 16C63.8359 15.9382 63.7799 15.8762 63.7236 15.8139Z" fill="#4F4F4F"/>
<path d="M65.8535 20.1077C65.8559 20.1066 65.8583 20.1055 65.8609 20.1044C65.8911 20.091 65.9204 20.0757 65.9484 20.0586C65.95 20.0577 65.9515 20.0566 65.953 20.0557C65.9211 20.0754 65.8881 20.0928 65.8535 20.1077Z" fill="#4F4F4F"/>
<path d="M65.5146 20.1763C65.5186 20.1763 65.5225 20.1758 65.5266 20.1758C65.5696 20.175 65.6111 20.171 65.6515 20.1651C65.6539 20.1647 65.656 20.1644 65.6584 20.164C65.6122 20.1712 65.5644 20.1761 65.5146 20.1763Z" fill="#4F4F4F"/>
<path d="M64.4248 16.5831C64.4969 16.6611 64.5671 16.737 64.6362 16.811C64.5669 16.7367 64.4963 16.6607 64.4248 16.5831Z" fill="#4F4F4F"/>
<path d="M65.2451 20.1449C65.2482 20.1456 65.251 20.1465 65.254 20.1471C65.2825 20.1535 65.3111 20.1585 65.3398 20.1629C65.3459 20.1638 65.352 20.1649 65.3581 20.1658C65.32 20.1605 65.2823 20.1535 65.2451 20.1449Z" fill="#4F4F4F"/>
<path d="M66.0342 18.1999C66.0524 18.2244 66.0709 18.2499 66.0902 18.2786C66.0707 18.2494 66.0524 18.2242 66.0342 18.1999Z" fill="#4F4F4F"/>
<path d="M65.375 20.1685C65.377 20.1687 65.3787 20.1691 65.3806 20.1693C65.4206 20.1739 65.4606 20.1768 65.5008 20.177C65.5023 20.177 65.504 20.1768 65.5055 20.1768C65.4619 20.1766 65.4184 20.1737 65.375 20.1685Z" fill="#4F4F4F"/>
<path d="M64.1025 19.3583C64.126 19.3797 64.1482 19.4008 64.172 19.4225C64.1953 19.4437 64.2177 19.4646 64.2413 19.4858C64.2468 19.4907 64.2529 19.4957 64.2583 19.5007C64.2046 19.4525 64.154 19.4056 64.1025 19.3583Z" fill="#4F4F4F"/>
<path d="M61.7345 16.1583C61.732 16.1596 61.7293 16.1612 61.7268 16.1626C61.719 16.1672 61.7108 16.1718 61.7026 16.1762C61.6992 16.178 61.6958 16.1801 61.6924 16.1821C61.7067 16.1743 61.7211 16.1663 61.7345 16.1583Z" fill="#4F4F4F"/>
<path d="M62.0723 17.0637C62.0833 17.0795 62.0933 17.0944 62.1046 17.1106C62.1151 17.1256 62.1259 17.1409 62.1368 17.156C62.1476 17.1714 62.1598 17.1878 62.1709 17.2034C62.1368 17.1554 62.1035 17.1087 62.0723 17.0637Z" fill="#4F4F4F"/>
<path d="M61.8844 16.0627C61.8799 16.0659 61.8753 16.0689 61.8707 16.0721C61.8671 16.0746 61.8637 16.0769 61.8603 16.0794C61.8578 16.0813 61.8553 16.0829 61.8525 16.0847C61.8635 16.0774 61.8737 16.07 61.8844 16.0627Z" fill="#4F4F4F"/>
<path d="M61.9541 16.8905C61.9641 16.9054 61.973 16.9192 61.9834 16.9345C61.9878 16.9409 61.9923 16.9475 61.9967 16.9538C62.0134 16.9784 62.0323 17.0051 62.0499 17.0308C62.0167 16.9825 61.9843 16.9354 61.9541 16.8905Z" fill="#4F4F4F"/>
<path d="M61.5619 16.2518C61.556 16.2548 61.5508 16.2578 61.5448 16.2605C61.5446 16.2608 61.5442 16.2608 61.5439 16.261C61.5439 16.261 61.5439 16.2612 61.5442 16.2612C61.5505 16.2582 61.5556 16.255 61.5619 16.2518Z" fill="#4F4F4F"/>
<path d="M66.306 18.6858C66.3054 18.684 66.3047 18.6818 66.3041 18.6801C66.2956 18.6588 66.2858 18.6391 66.2767 18.6185C66.268 18.5986 66.2593 18.5786 66.25 18.5593C66.2698 18.6003 66.2889 18.6422 66.306 18.6858Z" fill="#4F4F4F"/>
<path d="M66.1664 18.3989C66.1651 18.3965 66.1636 18.3937 66.1623 18.3913C66.1594 18.3864 66.1566 18.3825 66.1538 18.3777C66.1405 18.3555 66.1275 18.3358 66.1143 18.3154C66.1316 18.3426 66.149 18.3693 66.1664 18.3989Z" fill="#4F4F4F"/>
<path d="M63.6703 15.7542C63.5406 15.6101 63.411 15.4657 63.2822 15.3217C63.2811 15.3204 63.2798 15.3191 63.2787 15.3178C63.2309 15.2645 63.1838 15.2115 63.1364 15.1586C63.0115 15.0188 62.886 14.8781 62.7598 14.7361C63.0686 15.0835 63.3749 15.4263 63.6703 15.7542Z" fill="#4F4F4F"/>
<path d="M62.3671 15.5903C62.3965 15.552 62.4219 15.5186 62.4471 15.4901C62.4482 15.4886 62.4855 15.4334 62.534 15.3503C62.4849 15.4345 62.4469 15.4899 62.4469 15.4899C62.4447 15.4923 62.4425 15.4952 62.4403 15.4976C62.4199 15.5213 62.3989 15.5482 62.376 15.5783C62.3541 15.607 62.3304 15.6381 62.3037 15.6716C62.3265 15.6429 62.348 15.6153 62.3671 15.5903Z" fill="#4F4F4F"/>
<path d="M62.1059 15.8864C62.1025 15.8897 62.0988 15.8926 62.0954 15.8959C62.0943 15.8968 62.0934 15.8977 62.0922 15.8988C62.0886 15.9023 62.0849 15.9055 62.0811 15.9089C62.0895 15.9011 62.0979 15.8938 62.1059 15.8864Z" fill="#4F4F4F"/>
<path d="M66.2402 18.5364C66.2391 18.5342 66.2382 18.5318 66.2371 18.5296C66.23 18.5153 66.2224 18.5024 66.2152 18.4886C66.205 18.4693 66.1948 18.4509 66.1846 18.4325C66.2035 18.4662 66.2224 18.5002 66.2402 18.5364Z" fill="#4F4F4F"/>
<path d="M62.4854 17.6228C62.5236 17.6716 62.5622 17.721 62.6031 17.7716C62.612 17.7828 62.62 17.7933 62.6291 17.8045C62.6923 17.8823 62.7586 17.9623 62.8283 18.044C62.8418 18.0598 62.8563 18.0763 62.87 18.092C62.902 18.1293 62.9358 18.1674 62.9693 18.2056C62.7886 17.9998 62.6276 17.8047 62.4854 17.6228Z" fill="#4F4F4F"/>
<path d="M63.0244 18.2687C63.0311 18.2762 63.037 18.2834 63.0438 18.2908C63.0676 18.3178 63.0933 18.3452 63.1178 18.3726C63.1346 18.391 63.1524 18.4101 63.1695 18.4287C63.1202 18.3748 63.0709 18.3211 63.0244 18.2687Z" fill="#4F4F4F"/>
<path d="M66.3977 19.0334C66.4038 19.0794 66.4085 19.1256 66.4085 19.1717C66.4085 19.2234 66.4033 19.2694 66.3955 19.3135C66.3957 19.3119 66.3962 19.3104 66.3964 19.3089C66.4031 19.2692 66.4077 19.2273 66.4081 19.1815C66.4081 19.178 66.4088 19.1754 66.4088 19.1719C66.4088 19.1256 66.4035 19.0794 66.3977 19.0334Z" fill="#4F4F4F"/>
<path d="M66.3598 18.8435C66.3593 18.842 66.3591 18.8404 66.3587 18.8389C66.3522 18.8161 66.3435 18.7944 66.3361 18.7721C66.328 18.7484 66.3204 18.7245 66.3115 18.7013C66.3293 18.7477 66.3461 18.7951 66.3598 18.8435Z" fill="#4F4F4F"/>
<path d="M63.7939 19.068C63.8083 19.0818 63.822 19.0954 63.8365 19.1094C63.8674 19.139 63.8976 19.1684 63.9291 19.1982C63.9358 19.2046 63.943 19.2109 63.9497 19.2173C63.8965 19.1669 63.8452 19.1173 63.7939 19.068Z" fill="#4F4F4F"/>
<path d="M63.5127 18.7903C63.5231 18.8011 63.5331 18.8114 63.5435 18.8221C63.5746 18.8537 63.6061 18.8852 63.6382 18.9172C63.6467 18.9256 63.6558 18.9343 63.6645 18.9429C63.6128 18.8916 63.5622 18.8407 63.5127 18.7903Z" fill="#4F4F4F"/>
<path d="M63.2578 18.5244C63.2661 18.5332 63.2737 18.5417 63.2819 18.5505C63.3106 18.581 63.3401 18.6119 63.3697 18.6428C63.3812 18.6548 63.3934 18.6671 63.4049 18.679C63.3549 18.627 63.3054 18.5753 63.2578 18.5244Z" fill="#4F4F4F"/>
<path d="M62.2041 17.2492C62.2174 17.2676 62.23 17.2853 62.2436 17.304C62.2578 17.3232 62.2719 17.3425 62.2864 17.3625C62.2945 17.3734 62.3036 17.3851 62.3118 17.3962C62.2745 17.3458 62.2389 17.2969 62.2041 17.2492Z" fill="#4F4F4F"/>
<path d="M66.3954 19.0066C66.3952 19.0053 66.3954 19.004 66.3952 19.0029C66.3933 18.9904 66.3896 18.9783 66.3872 18.966C66.3804 18.9301 66.3728 18.8946 66.3633 18.8593C66.3763 18.908 66.3878 18.9571 66.3954 19.0066Z" fill="#4F4F4F"/>
<path d="M62.2412 15.7463C62.2478 15.7388 62.2546 15.7312 62.2608 15.7238C62.2546 15.7312 62.2478 15.739 62.2412 15.7463Z" fill="#4F4F4F"/>
<path d="M66.3574 19.4531C66.3587 19.4496 66.3598 19.4459 66.3611 19.4424C66.3722 19.4124 66.3813 19.381 66.3887 19.3484C66.3891 19.3464 66.3894 19.3444 66.3898 19.3424C66.3815 19.381 66.3709 19.4181 66.3574 19.4531Z" fill="#4F4F4F"/>
<path d="M62.3457 17.4407C62.3648 17.4661 62.3835 17.4913 62.4035 17.5174C62.4191 17.5378 62.4339 17.5577 62.45 17.5783C62.4563 17.5867 62.4636 17.5954 62.4699 17.6038C62.4267 17.5479 62.3857 17.494 62.3457 17.4407Z" fill="#4F4F4F"/>
<path d="M8.95813 13.6556C8.34994 12.7263 7.44634 13.0419 7.15094 13.1997C6.99455 13.1997 6.68177 13.4978 6.54275 13.8134C6.54275 13.8134 4.71819 15.7948 2.58084 17.7937C2.42445 18.1093 2.12905 18.723 1.97266 19.1789C1.97266 19.6348 2.12904 19.9329 2.42444 20.2485C3.03263 20.8622 3.9536 20.8622 4.4054 20.4063V22.0896C5.01359 21.6337 6.83815 19.9329 7.44634 19.0211L9.42729 16.4085C9.56631 15.9526 9.56631 14.5674 8.95813 13.6556ZM2.89362 19.9434C2.73723 19.6278 2.58084 19.4875 2.58084 19.1719C2.58084 18.716 2.89363 18.2601 3.03264 18.1023C3.50182 17.7867 5.01359 16.1034 6.22997 14.7357C6.22997 15.0338 6.54275 15.4897 6.54275 15.4897C6.68177 15.6475 6.83815 15.9631 7.44634 16.2612C7.15093 16.7171 6.38635 18.1023 4.4054 19.7856C4.10999 20.1012 3.34542 20.3993 2.89362 19.9434ZM8.96507 16.7223C8.96507 16.7223 7.90509 18.4056 4.86415 21.4741V20.0889C7.14051 18.1076 8.2005 15.9508 8.2005 15.9508C8.2005 15.9508 7.2969 15.6527 6.98412 15.1793C6.8451 14.8812 6.68871 14.5656 6.8451 14.4253C6.8451 13.9694 7.14051 13.6538 7.2969 13.6538C7.59231 13.496 8.06149 13.1979 8.51329 13.9694C9.12147 14.7234 8.96507 16.2664 8.96507 16.7223Z" fill="#4F4F4F"/>
<path d="M2.5745 37.8796C2.43549 37.8796 2.27908 37.7218 2.27908 37.5815C2.12269 37.4237 2.12269 37.4237 1.9663 37.2659C1.9663 37.1081 1.8273 37.2659 1.8273 37.2659C1.67091 37.7218 1.6709 38.1952 1.6709 38.6511C1.6709 39.7207 1.96631 40.65 2.5745 41.2637C2.5745 41.404 2.57449 41.404 2.73088 41.5618C2.88728 41.5618 2.88728 41.5618 2.88728 41.2637C2.73089 40.9481 2.5745 39.5629 2.88728 38.4933C2.88728 38.3355 2.73089 38.0374 2.5745 37.8796Z" fill="#4F4F4F"/>
<path d="M7.44085 36.1961C7.30183 36.1961 7.30183 36.3539 7.14544 36.3539C6.98905 36.652 6.69365 37.4235 6.53726 38.195C6.38087 38.4931 6.38086 38.8087 6.38086 39.1068C6.38086 39.2646 6.38087 39.4224 6.53726 39.5626C6.69365 39.7205 6.83265 39.7205 6.98904 39.7205C7.14544 39.7205 7.30183 39.5626 7.44085 39.5626C7.75363 39.5626 8.36182 39.2646 9.26542 38.4931C9.5782 38.3352 10.3254 37.2657 10.03 36.652C9.87359 36.0382 9.4218 35.5824 9.10902 35.2667C9.10902 35.2667 8.81361 35.1265 8.81361 34.9687C8.81361 34.9687 8.81361 35.2667 8.50083 35.5824C8.36182 35.7402 7.91002 36.0383 7.44085 36.0383V36.1961Z" fill="#4F4F4F"/>
<path d="M3.65217 36.3539C3.79119 36.0382 3.94757 35.8804 3.94757 35.7402C4.10397 35.5823 4.10397 35.2667 4.10397 35.2667C4.10397 35.1265 3.94757 34.9686 3.94757 34.8108C3.94757 34.6706 3.94758 34.6706 3.79119 34.6706C3.79119 34.8108 3.65217 34.8108 3.65217 34.8108C3.183 35.1265 2.8876 35.4245 2.57482 35.8804C2.4358 36.0382 2.43579 36.0382 2.2794 36.1961C2.12301 36.3539 2.12301 36.8098 2.2794 36.8098C2.2794 36.9676 2.4358 37.2656 2.57482 37.4235C2.57482 37.5813 2.73121 37.7215 2.8876 37.7215C3.04399 37.8793 3.04399 37.7215 3.04399 37.5813C3.183 37.2656 3.33939 36.8098 3.65217 36.3539Z" fill="#4F4F4F"/>
<path d="M5.00858 35.4247C5.47775 35.5825 5.92956 35.7403 6.53774 35.7403C6.69413 35.7403 6.83315 35.8806 6.83315 35.8806C6.98954 35.8806 7.14593 35.7403 7.44133 35.7403C7.91051 35.7403 8.3623 35.4247 8.3623 34.9688C8.3623 34.811 8.36231 34.6707 8.20592 34.6707C7.91051 34.5129 7.75411 34.3551 7.44133 34.1973C7.14593 34.1973 6.83315 34.057 6.53774 34.057H6.08594C5.61677 34.057 5.16497 34.1973 4.71317 34.3551C4.40039 34.3551 4.40039 34.6707 4.40039 34.811C4.40039 34.9688 4.55678 35.2669 5.00858 35.4247Z" fill="#4F4F4F"/>
<path d="M5.9285 39.4222C5.9285 38.4929 6.2239 37.5811 6.53669 36.9674C6.53669 36.8096 6.53668 36.8096 6.69307 36.6518C6.69307 36.3537 6.69308 36.1959 6.53669 36.1959H6.2239C6.08489 36.0381 5.77211 36.0381 5.61572 35.8803C5.32031 35.8803 5.16391 35.8803 5.00752 35.74C4.71211 35.74 4.39933 35.74 4.26032 36.0381C4.10392 36.1959 3.79115 36.494 3.65213 37.2655C3.33935 37.8792 3.04395 38.8085 3.04395 40.0359C3.04395 40.6496 3.18296 41.7192 3.65213 42.1751C3.65213 42.3329 3.79115 42.4732 3.79115 42.4732C4.39934 42.7888 5.32031 43.0869 6.08489 43.0869H6.2239C6.38029 43.0869 6.38029 42.9466 6.2239 42.4732C6.08489 41.7192 5.9285 40.6496 5.9285 39.4222Z" fill="#4F4F4F"/>
<path d="M6.08188 32.3578C2.72816 32.3578 0 35.1282 0 38.4948C0 41.8614 2.72816 44.6318 6.08188 44.6318C9.41823 44.6318 12.1638 41.8614 12.1638 38.4948C12.1638 35.1282 9.41823 32.3578 6.08188 32.3578ZM6.08188 43.5587C3.33635 43.5587 1.21637 41.2617 1.21637 38.6491C1.21637 35.8962 3.33635 33.5817 6.08188 33.5817C8.81004 33.5817 11.0864 35.8962 11.0864 38.6491C11.0864 41.2617 8.81004 43.5587 6.08188 43.5587Z" fill="#4F4F4F"/>
<path d="M10.1865 37.7215C10.1865 37.8794 9.87373 38.6509 9.10915 39.1068C8.65735 39.5627 8.04917 39.8783 7.44098 40.0361C7.14557 40.0361 6.8328 40.1764 6.53739 40.1764C6.381 40.1764 6.22461 40.3342 6.22461 40.492C6.22461 40.6498 6.381 41.2635 6.53739 41.8772C6.53739 42.1753 6.69378 42.4733 6.83279 42.6312C6.98919 42.789 7.14557 42.9468 7.30196 42.9468H7.44098C9.26554 42.3331 10.4819 40.6498 10.4819 38.6509V37.8794C10.4819 37.5813 10.3255 37.5813 10.1865 37.7215Z" fill="#4F4F4F"/>
<path d="M62.6136 40.1851C62.3008 40.1851 62.0054 40.0273 61.6927 40.0273C60.9281 39.8695 60.4763 39.5714 59.8681 39.1155C59.2599 38.6421 58.9645 37.8881 58.8081 37.7303C58.8081 37.5725 58.6517 37.5725 58.6517 37.8881C58.5127 38.0284 58.5127 38.344 58.5127 38.6421C58.5127 40.641 59.8681 42.3243 61.6927 42.938C62.0054 42.938 62.0054 42.7802 62.1445 42.6399C62.3008 42.4821 62.4572 42.1665 62.6136 41.8684C62.7526 41.2547 62.7526 40.641 62.7526 40.4832C62.7526 40.3429 62.7526 40.1851 62.6136 40.1851Z" fill="#4F4F4F"/>
<path d="M61.6928 35.7316C61.8492 35.7316 62.0056 35.8894 62.1446 35.8894C62.301 35.8894 62.4574 35.7316 62.6138 35.7316C63.0656 35.7316 63.6737 35.5738 63.9692 35.4335C64.5773 35.2757 64.7337 34.9601 64.7337 34.8198C64.7337 34.662 64.5774 34.3464 64.4383 34.3464C63.9692 34.2061 63.5174 34.0483 62.9092 34.0483H62.6138C62.301 34.0483 62.0056 34.2061 61.6928 34.2061C61.3974 34.3464 61.0846 34.5042 60.7892 34.662C60.6328 34.662 60.6328 34.8198 60.6328 34.9601C60.6328 35.4335 61.0846 35.7316 61.6928 35.7316Z" fill="#4F4F4F"/>
<path d="M61.6929 39.5714C61.8493 39.5714 62.0057 39.7292 62.0057 39.7292C62.3011 39.7292 62.4575 39.7292 62.6139 39.5714C62.6139 39.4136 62.7529 39.2558 62.7529 39.1155C62.7529 38.7999 62.6139 38.5018 62.6139 38.1862C62.3011 37.4147 62.0057 36.6607 61.8493 36.3451L61.6929 36.1873C61.5365 36.1873 61.5365 36.047 61.5365 36.047C61.0847 36.047 60.7893 35.7314 60.4765 35.5736C60.3201 35.2755 60.3201 34.9599 60.3201 34.9599C60.1811 35.1177 60.0247 35.2755 60.0247 35.2755C59.5729 35.5736 59.1211 36.047 58.9647 36.6607C58.6519 37.2744 59.5729 38.344 59.7293 38.5018C60.6329 39.4136 61.2411 39.5714 61.6929 39.5714Z" fill="#4F4F4F"/>
<path d="M66.5589 37.8883C66.4025 38.0286 66.2635 38.3442 66.2635 38.502C66.4025 39.5716 66.2635 40.9568 66.2635 41.2549C66.1071 41.553 66.2635 41.553 66.4025 41.553C66.4025 41.4127 66.4025 41.4127 66.5589 41.2549C67.0107 40.6412 67.4625 39.7294 67.4625 38.6423C67.4625 38.1864 67.3235 37.7305 67.1671 37.2746C67.1671 37.2746 67.1671 37.1168 67.0107 37.2746C67.0107 37.4149 66.8717 37.4149 66.7153 37.5727C66.7153 37.7305 66.5589 37.8883 66.5589 37.8883Z" fill="#4F4F4F"/>
<path d="M64.8901 36.0474C64.7337 35.7318 64.4383 35.7318 64.1255 35.7318C63.8301 35.8896 63.8301 35.8896 63.5173 35.8896C63.361 36.0474 63.0655 36.0474 62.7528 36.1877H62.6137C62.4574 36.1877 62.301 36.3455 62.4574 36.6611C62.4574 36.8014 62.4574 36.9592 62.6137 36.9592C62.7528 37.5729 63.0655 38.5022 63.0655 39.414C63.2219 40.6414 63.0655 41.711 62.7528 42.4825C62.6137 42.9384 62.6137 43.0962 62.9091 43.0962C63.8301 43.0962 64.7337 42.7806 65.1855 42.4825C65.3419 42.4825 65.3419 42.3247 65.4983 42.1669C65.7937 41.711 65.9501 40.6414 65.9501 40.0277C65.9501 38.8003 65.7937 37.8885 65.4983 37.2748C65.1855 36.5033 64.8901 36.1877 64.8901 36.0474Z" fill="#4F4F4F"/>
<path d="M68.5126 36.116C68.2046 35.3866 67.7647 34.7304 67.2048 34.1653C66.6448 33.6003 65.9945 33.1562 65.2716 32.8456C64.5227 32.5237 63.7299 32.3604 62.9151 32.3604C62.0964 32.3604 61.3012 32.5237 60.5514 32.8456C59.8283 33.1562 59.1782 33.6003 58.6191 34.1653C58.0607 34.7299 57.6219 35.3861 57.3152 36.116C56.9979 36.8711 56.8369 37.6711 56.8369 38.4937C56.8369 39.3162 56.9979 40.1162 57.3152 40.8713C57.6219 41.6012 58.0607 42.2574 58.6191 42.822C59.1782 43.3873 59.8283 43.8313 60.5514 44.1419C61.3012 44.4639 62.0964 44.627 62.9151 44.627C63.7296 44.627 64.5227 44.4637 65.2716 44.1419C65.9943 43.8311 66.6446 43.3871 67.2048 42.822C67.765 42.257 68.2048 41.6005 68.5126 40.8713C68.8317 40.1156 68.9935 39.3156 68.9935 38.4937C68.9933 37.6717 68.8315 36.8717 68.5126 36.116ZM62.9047 43.5578C60.1765 43.5578 58.0565 41.2608 58.0565 38.6482C58.0565 35.8953 60.1765 33.5808 62.9047 33.5808C65.6502 33.5808 67.9266 35.8953 67.9266 38.6482C67.9266 41.2608 65.6502 43.5578 62.9047 43.5578Z" fill="#4F4F4F"/>
<path d="M65.4988 34.8198C65.3425 34.8198 65.3425 34.8198 65.1861 34.662C65.1861 34.662 65.047 34.662 65.047 34.8198V35.2757C65.047 35.2757 64.8907 35.5738 65.047 35.7316C65.1861 35.8894 65.3425 36.0472 65.4988 36.5031C65.6552 36.8012 65.7942 37.2746 65.9506 37.5727C65.9506 37.7305 65.9506 37.8883 66.2634 37.7305C66.2634 37.7305 66.4024 37.5727 66.5588 37.4149C66.7152 37.2746 66.7152 36.959 66.8716 36.8012C66.8716 36.8012 66.8716 36.3453 66.7152 36.1875C66.7152 36.1875 66.5588 36.0472 66.5588 35.8894C66.2634 35.4335 65.9506 35.1179 65.4988 34.8198Z" fill="#4F4F4F"/>
<path d="M68.5187 36.114C68.2105 35.3839 67.77 34.7268 67.2091 34.1611C66.6485 33.5954 65.9975 33.1509 65.2738 32.8397C64.524 32.5173 63.7303 32.354 62.9147 32.354C62.0951 32.354 61.2989 32.5175 60.5482 32.8397C59.8242 33.1505 59.1732 33.595 58.6135 34.1611C58.0544 34.7264 57.6152 35.3835 57.3081 36.114C56.9903 36.8702 56.8291 37.6713 56.8291 38.4947C56.8291 39.3182 56.9903 40.1193 57.3081 40.8755C57.6152 41.606 58.0544 42.2631 58.6135 42.8283C59.1732 43.3943 59.824 43.8388 60.5482 44.1496C61.2989 44.472 62.0949 44.6353 62.9147 44.6353C63.7303 44.6353 64.524 44.472 65.2738 44.1496C65.9975 43.8385 66.6485 43.3938 67.2091 42.8283C67.7698 42.2626 68.2103 41.6055 68.5187 40.8755C68.8382 40.1189 69 39.3178 69 38.4947C69 37.6717 68.838 36.8706 68.5187 36.114ZM62.9147 44.6317C59.561 44.6317 56.8328 41.8613 56.8328 38.4947C56.8328 35.1281 59.561 32.3577 62.9147 32.3577C66.251 32.3577 68.9966 35.1281 68.9966 38.4947C68.9966 41.8613 66.251 44.6317 62.9147 44.6317Z"/>
<path d="M34.5069 57.5039L21.1094 48.9296V21.015H21.1268V48.9296L34.5069 57.5039L47.6959 48.9296V21.015H47.7133V48.9296L34.5069 57.5039Z" fill="#2E2E30"/>
</svg>
