<svg width="460" height="301" viewBox="0 0 460 301" fill="none" xmlns="http://www.w3.org/2000/svg">
<path d="M26.3674 38.7589C44.2203 12.9196 72.785 0 112.061 0C151.338 0 178.804 12.095 194.459 36.2849C210.39 60.2 218.355 96.8972 218.355 146.377C218.355 249.459 181.55 301 107.941 301C70.313 301 42.847 288.63 25.5434 263.89C8.51446 238.876 0 201.766 0 152.562C0 102.532 8.78913 64.5982 26.3674 38.7589ZM142.137 72.9822C136.094 58.6881 125.245 51.5411 109.589 51.5411C93.9338 51.5411 82.81 58.8256 76.2182 73.3945C69.901 87.9635 66.7424 113.665 66.7424 150.5C66.7424 186.235 70.0383 211.662 76.6302 226.781C83.222 241.9 94.2084 249.459 109.589 249.459C124.97 249.459 135.682 241.9 141.725 226.781C148.042 211.662 151.2 185.548 151.2 148.438C151.2 112.153 148.179 87.0014 142.137 72.9822Z" fill="#4F4F4F" fill-opacity="0.04"/>
<path d="M453.82 74.2192C453.82 91.8119 449.426 106.793 440.636 119.163C431.847 131.258 419.076 139.505 402.321 143.903C419.625 147.751 433.495 155.723 443.932 167.818C454.644 179.638 460 193.382 460 209.051C460 225.269 456.567 239.426 449.7 251.521C443.108 263.616 434.045 273.237 422.509 280.384C411.248 287.256 398.751 292.341 385.018 295.64C371.559 298.938 357.14 300.588 341.759 300.588C326.103 300.588 310.722 298.801 295.616 295.227C280.51 291.379 269.386 287.668 262.245 284.095L251.121 278.322L268.425 232.966C293.144 244.511 317.589 250.284 341.759 250.284C358.513 250.284 371.422 246.71 380.486 239.563C389.55 232.416 394.082 221.97 394.082 208.226C394.082 195.581 389 185.685 378.838 178.538C368.676 171.391 354.256 167.818 335.579 167.818H303.444V124.523H337.639C373.345 124.523 391.198 111.191 391.198 84.5274C391.198 74.0817 387.215 65.8352 379.25 59.7877C371.285 53.4653 360.161 50.3041 345.879 50.3041C339.836 50.3041 333.382 50.8539 326.515 51.9534C319.923 52.7781 314.705 53.7402 310.86 54.8397L305.504 56.489L301.384 89.4753H258.125L256.065 17.3178C289.848 5.7726 320.473 0 347.939 0C418.526 0 453.82 24.7397 453.82 74.2192Z" fill="#4F4F4F" fill-opacity="0.04"/>
</svg>
