<svg width="95" height="569" viewBox="0 0 95 569" fill="none" xmlns="http://www.w3.org/2000/svg">
<g style="mix-blend-mode:multiply">
<path d="M86.1055 57.2715L10.5019 84.4533L7.57943 93.3032L-3.4752 93.3032L-3.4752 53.0994L7.57943 53.0994L10.5019 62.5814L20.0318 59.5472L20.0318 31.4803L10.629 28.3197L7.57944 38.181L-3.4752 38.181L-3.4752 -4.30449e-06L7.57944 -3.82127e-06L10.5019 9.22917L85.7243 37.0431L86.1055 57.2715ZM63.7421 45.893L33.6277 35.9053L33.6277 55.3751L63.7421 45.893Z" fill="#1B708A" fill-opacity="0.07"/>
<path d="M93.9835 93.5205L95 121.587L59.676 121.587C64.1656 127.403 66.4104 133.429 66.4104 139.666C66.4104 148.095 63.4879 154.501 57.643 158.883C51.798 163.35 43.4964 165.584 32.7383 165.584C20.6247 165.584 11.3067 162.465 4.78401 156.228C-1.73865 149.991 -4.99998 140.889 -4.99998 128.92C-4.99998 124.79 -4.74585 120.576 -4.23759 116.277C-3.81404 111.979 -3.39049 108.692 -2.96694 106.416L-2.20455 103.003L81.277 103.003L83.8183 93.5205L93.9835 93.5205ZM45.6989 121.587L10.8831 121.587C10.2054 123.526 9.8666 126.644 9.8666 130.943C9.8666 140.973 17.0669 145.988 31.4676 145.988C44.7671 145.988 51.4168 141.858 51.4168 133.598C51.4168 131.322 50.9509 129.173 50.0191 127.15C49.0873 125.212 48.1131 123.779 47.0966 122.852L45.6989 121.587Z" fill="#1B708A" fill-opacity="0.07"/>
<path d="M66.4104 208.535C66.4104 218.733 63.4032 226.572 57.3888 232.05C51.4591 237.613 43.0305 240.394 32.1029 240.394C20.7518 240.394 11.7726 237.318 5.1652 231.165C-1.44217 225.097 -4.74586 216.921 -4.74586 206.638C-4.74586 185.146 6.90175 174.399 30.197 174.399C41.5481 174.399 50.4003 177.476 56.7535 183.628C63.1914 189.781 66.4104 198.083 66.4104 208.535ZM51.798 207.902C51.798 203.098 50.2308 199.558 47.0966 197.283C43.9623 195.091 38.5409 193.995 30.8323 193.995C23.5472 193.995 18.2105 195.049 14.8221 197.156C11.5184 199.263 9.8666 202.635 9.8666 207.27C9.8666 211.906 11.5184 215.32 14.8221 217.511C18.1258 219.702 23.6743 220.798 31.4676 220.798C38.3291 220.798 43.4117 219.744 46.7154 217.637C50.1038 215.614 51.798 212.37 51.798 207.902Z" fill="#1B708A" fill-opacity="0.07"/>
<path d="M17.9987 256.045L51.6709 256.045L53.9581 246.816L64.1232 246.816L65.1398 274.757L21.5566 274.757C18.0834 274.757 15.4998 275.305 13.8056 276.4C12.1961 277.496 11.3914 279.308 11.3914 281.837C11.3914 284.197 11.942 286.599 13.0432 289.043C14.2291 291.572 15.4151 293.51 16.601 294.859L18.3799 296.755L51.6709 296.755L53.9581 287.399L64.1232 287.399L65.1398 315.34L9.86659 315.34L7.3253 324.948L-2.58576 324.948L-3.47521 299.157L5.41932 297.893C5.16519 297.64 4.78401 297.219 4.27574 296.629C3.8522 296.123 3.04745 295.069 1.86151 293.468C0.675578 291.866 -0.383298 290.223 -1.31511 288.537C-2.16221 286.852 -2.92459 284.787 -3.60227 282.342C-4.36465 279.982 -4.74586 277.707 -4.74586 275.515C-4.74586 269.194 -2.75518 264.348 1.22618 260.976C5.20755 257.689 10.7984 256.045 17.9987 256.045Z" fill="#1B708A" fill-opacity="0.07"/>
<path d="M-4.74587 359.877C-4.74587 352.881 -2.50105 348.077 1.98857 345.464C6.5629 342.851 14.4833 341.545 25.7497 341.545L49.5108 341.545L49.5108 329.787L61.582 329.787L63.2338 341.545L80.7687 341.545L84.1995 360.13L63.2338 360.13L63.2338 377.829L49.5108 377.829L49.5108 360.13L20.7942 360.13C16.5587 360.13 13.5938 360.593 11.8996 361.52C10.2054 362.447 9.35834 364.217 9.35834 366.83C9.35834 369.864 10.3325 373.194 12.2808 376.818L3.13216 381.369C-2.11985 373.952 -4.74587 366.788 -4.74587 359.877Z" fill="#1B708A" fill-opacity="0.07"/>
<path d="M71.1118 445.705L30.8323 445.705C23.4625 445.705 18.2105 446.927 15.0762 449.371C12.0267 451.816 10.5019 456.072 10.5019 462.14C10.5019 468.546 12.1961 472.845 15.5845 475.036C19.0576 477.227 24.7755 478.323 32.7382 478.323L71.1118 478.323L74.9237 468.462L85.4701 468.462L86.1054 507.401L74.9237 507.401L71.1118 497.919L32.7382 497.919C20.0318 497.919 10.5443 495.138 4.27574 489.575C-1.90808 484.012 -5 474.657 -5 461.508C-5 449.034 -2.11986 440.016 3.64041 434.453C9.40068 428.89 18.4646 426.109 30.8323 426.109L71.1118 426.109L74.9237 416.627L85.4701 416.627L86.1054 455.566L74.9237 455.566L71.1118 445.705Z" fill="#1B708A" fill-opacity="0.07"/>
<path d="M18.7611 528.29L9.86658 529.302C9.01949 532.083 8.59594 535.539 8.59594 539.669C8.59594 546.327 10.8831 549.657 15.4574 549.657C17.4058 549.657 19.0576 548.519 20.413 546.243C21.853 543.967 23.0813 541.186 24.0978 537.899C25.1144 534.612 26.3003 531.325 27.6557 528.038C29.0957 524.75 31.2558 521.969 34.136 519.693C37.0161 517.418 40.5315 516.28 44.6823 516.28C52.1368 516.28 57.6006 518.766 61.0737 523.739C64.6315 528.712 66.4104 534.907 66.4104 542.324C66.4104 545.695 66.0716 549.32 65.3939 553.197C64.8009 557.158 64.2079 560.277 63.615 562.552L62.5985 565.839C58.363 565.671 52.0097 565.502 43.5387 565.334L43.5387 554.208L51.798 552.312C52.645 550.12 53.0686 547.339 53.0686 543.967C53.0686 541.355 52.4756 539.29 51.2897 537.773C50.1885 536.255 48.6213 535.497 46.5883 535.497C44.64 535.497 42.9881 536.635 41.6328 538.91C40.2774 541.27 39.0915 544.052 38.075 547.255C37.0584 550.542 35.8725 553.829 34.5171 557.116C33.2465 560.403 31.2135 563.184 28.418 565.46C25.6226 567.82 22.1919 569 18.1258 569C10.9255 569 5.29224 566.345 1.22617 561.035C-2.75519 555.809 -4.74587 548.772 -4.74587 539.922C-4.74587 536.382 -4.49174 532.673 -3.98348 528.796C-3.55993 524.919 -3.13638 521.927 -2.71283 519.82L-1.95044 516.659L18.7611 516.659L18.7611 528.29Z" fill="#1B708A" fill-opacity="0.07"/>
</g>
</svg>
