<svg width="40" height="34" viewBox="0 0 40 34" fill="none" xmlns="http://www.w3.org/2000/svg">
<path d="M18.3665 15.8473C19.7174 13.6087 21.0435 11.3639 22.3534 9.10537C22.9002 8.16319 23.8994 7.14271 24.0225 6.02278C24.1405 4.94264 22.6455 3.89978 22.4528 2.9402C22.3932 2.64189 21.988 3.15151 21.9507 3.41626C18.7928 6.82699 16.8727 11.5988 14.6841 15.6322C12.1041 20.3854 8.30861 24.7843 6.5774 29.9774C6.54881 30.0632 6.54632 30.1129 6.55254 30.1477C6.47176 30.3205 6.44069 30.4933 6.54012 30.5132C6.55627 30.5169 6.57242 30.5181 6.58982 30.5206C6.58982 30.5206 6.58982 30.5219 6.58858 30.5219H6.60101C8.55343 30.8985 10.6687 30.6238 12.6459 30.7369C15.011 30.8724 17.3847 30.7319 19.7373 30.7319C19.8802 30.7319 20.0431 30.4858 20.1102 30.2745C20.2692 30.052 20.3662 29.6978 20.1872 29.6978C19.9486 29.6978 18.5343 25.9937 18.328 25.5549C17.8048 24.4375 16.9323 23.3946 16.3321 22.2946C16.091 21.8533 15.8089 21.5886 15.4099 21.3126C15.0831 21.0877 15.6796 20.4587 15.8151 20.2263C16.6651 18.7683 17.4941 17.2941 18.3665 15.8473ZM15.5976 22.573C17.4046 24.6811 18.3379 27.5064 19.5236 29.9861C17.8185 29.9973 16.0922 30.0495 14.3821 30.0495C12.0544 30.0495 9.33018 30.236 7.02977 29.7922C7.03599 29.7798 7.04469 29.7661 7.04841 29.7549C7.70212 27.7935 8.89894 25.852 9.95904 24.0758C11.5088 21.4817 13.0026 18.8553 14.6705 16.3358C17.3052 12.3582 18.7779 7.40995 22.0651 3.87616C22.3633 4.64557 23.0382 5.49576 23.3998 6.20426C23.5925 6.58088 22.5311 8.07867 22.3932 8.33596C21.9594 9.14638 21.4064 9.86234 20.9963 10.6839C19.6976 13.2818 17.9502 15.7603 16.5197 18.3084C15.9717 19.2853 15.1452 20.2536 14.7227 21.2766C14.4617 21.9105 15.2807 22.2039 15.5976 22.573Z" fill="#1B708A"/>
<path d="M31.4766 18.6927C30.6774 17.5118 30.0188 16.2477 29.3601 14.9849C28.6529 13.63 27.6239 12.3597 26.7018 11.1379C25.6479 9.742 25.3583 8.36478 24.8139 6.73151C24.7704 6.59976 24.5853 6.76507 24.5467 6.80361L24.4771 6.87321C24.4324 6.91796 24.3914 6.99254 24.3591 7.07333C24.287 7.15412 24.2236 7.24362 24.2013 7.31323C23.4829 9.54188 21.482 11.6562 20.284 13.6263C19.5134 14.8929 19.1095 15.4299 19.1655 16.0601C19.1282 15.9619 19.0362 15.9569 18.8871 16.1856C18.8374 16.2614 18.7802 16.3335 18.7268 16.4081H18.7168C18.5465 16.4081 18.3477 16.7549 18.3179 16.9774C18.1923 17.1439 18.0668 17.3105 17.9525 17.4845C17.5772 18.0563 17.3945 18.7424 16.967 19.2781C16.7495 19.5503 16.6339 19.876 16.4077 20.147C16.2772 20.3036 16.1144 20.5497 16.1393 20.7647C16.2002 21.2843 17.6244 21.2607 17.986 21.2868C18.7118 21.3402 19.4364 21.2482 20.1609 21.2917C20.4555 21.3091 20.7264 21.3352 20.9737 21.16C21.1328 21.0481 21.3366 20.7088 21.2459 20.5087C20.9551 19.8673 20.3138 19.3962 19.9869 18.7598C19.6638 18.1296 19.1493 17.4273 18.9517 16.73C18.9927 16.6679 19.0337 16.6057 19.0747 16.5423C19.1468 16.4317 19.1816 16.2888 19.1829 16.1769C19.2624 16.6281 19.5681 17.1489 20.1423 18.0227C20.704 18.8804 21.0421 19.9195 21.7505 20.6814C22.306 21.2781 23.7215 21.0121 24.42 21.0767C26.7477 21.2917 29.9094 21.5751 32.1837 21.0071C32.4198 20.9474 32.6174 20.5907 32.5926 20.357C32.5292 19.7579 31.8084 19.1837 31.4766 18.6927ZM19.3034 19.0059C19.5296 19.4111 19.7073 19.789 20.0056 20.1532C20.1013 20.27 20.2181 20.403 20.3324 20.541C19.8888 20.5273 19.4389 20.5609 18.9964 20.5671C18.4745 20.5745 17.9637 20.3993 17.4579 20.3956C17.2565 20.3943 16.916 20.4179 16.7345 20.2775C16.9955 19.8934 17.3236 19.5292 17.5262 19.1091C17.8232 18.495 18.165 17.9444 18.5229 17.3938C18.7392 17.84 19.1916 18.8033 19.3034 19.0059ZM25.9387 20.4092C24.9469 20.4304 23.9477 20.2688 22.9522 20.2464C21.6883 20.2178 21.175 18.2005 20.617 17.3639C19.9422 16.3509 19.4314 15.6275 20.1945 14.4479C20.8022 13.5082 21.4696 12.6145 22.0375 11.6512C22.7795 10.3946 23.7762 9.1665 24.3852 7.81787C24.3317 8.8396 25.5559 10.9266 25.8765 11.3119C26.6819 12.2777 27.6264 13.4834 28.1844 14.5996C28.7486 15.7282 29.5179 16.7959 30.0933 17.9394C30.4289 18.6069 31.4654 19.5541 31.8929 20.3732C30.0026 20.6814 27.8128 20.3695 25.9387 20.4092Z" fill="#1B708A"/>
<path d="M36.7039 27.2269C36.4007 26.3058 35.3281 25.7055 34.8857 24.8491C34.58 24.2574 34.1326 23.6645 33.7672 23.1002C33.3856 22.5123 33.4403 21.7988 32.7543 21.4558C32.6313 21.3948 32.4635 21.5776 32.3653 21.7777C29.9903 21.6869 27.5917 21.6248 25.223 21.5863C23.6856 21.5614 22.1508 21.4458 20.6072 21.4458C19.5819 21.4458 18.2957 21.7752 17.2989 21.5254C17.2293 21.508 17.1573 21.544 17.0901 21.6074C16.9273 21.6683 16.6676 22.0685 16.7024 22.2363C17.0317 23.8423 18.7716 25.1362 19.3769 26.7011C20.1002 28.5718 21.6562 27.8658 23.3749 27.8658C25.643 27.8658 27.9509 28.092 30.2227 28.1728C31.9738 28.2349 34.7266 28.6054 36.3708 27.9192C36.5833 27.8285 36.7772 27.4494 36.7039 27.2269ZM30.5309 27.4183C28.5996 27.4096 26.5813 27.4022 24.6625 27.1821C22.9574 26.987 20.785 27.7937 19.8491 26.0386C19.3769 25.1524 18.8698 24.3656 18.3106 23.5203C18.1154 23.2258 17.755 22.7696 17.4953 22.3345C17.939 22.3482 18.3826 22.2811 18.8276 22.1991C20.468 21.8983 22.551 22.1518 24.2101 22.2711C27.0126 22.4738 29.8002 22.4352 32.6052 22.5483C32.6437 22.5496 32.6835 22.5322 32.722 22.5073C33.3794 23.2444 33.9399 24.8516 34.4109 25.5116C34.8497 26.1256 35.5605 26.721 35.9769 27.3823C34.3426 27.7775 32.0608 27.4245 30.5309 27.4183Z" fill="#1B708A"/>
<path d="M39.2576 26.7706C38.369 25.9204 37.6855 24.5482 37.0641 23.4979C36.3482 22.2884 35.7181 20.9187 35.0259 19.6707C34.3101 18.3805 33.6153 17.0903 32.8572 15.8237C32.1165 14.5832 31.0204 13.6386 30.3393 12.3608C28.8008 9.47584 27.2212 6.57971 25.4179 3.85262C24.9531 3.15033 24.8425 1.52949 23.9762 1.21999C23.32 0.985068 22.8863 1.73955 22.296 0.853312C22.1966 0.702912 22.0462 0.596016 21.8896 0.504036C21.8871 0.434429 21.8585 0.388439 21.7939 0.388439H21.6535C21.6373 0.388439 21.6174 0.398383 21.5988 0.407084C21.6348 0.282786 21.6298 0.178376 21.513 0.178376H21.4434C20.3709 0.154759 19.3605 0.336234 18.2967 0.39714C17.7635 0.426971 16.5481 0.116227 16.0783 0.445616C14.8989 1.27095 14.4776 3.3517 13.7108 4.50269C13.1528 5.33922 12.5885 5.74318 13.0347 6.71892C13.5007 7.73692 14.4962 7.68968 13.3603 9.32917C13.1254 9.66726 12.8818 9.978 12.6743 10.336C11.9646 11.5591 11.1481 12.6765 10.4808 13.9307C9.11865 16.4875 7.57883 17.7491 5.03981 18.7994C3.96976 19.2432 3.11347 22.1467 2.635 22.9882C2.10681 23.9155 1.48915 24.803 0.973388 25.7315C0.868993 25.9204 0.701215 26.2548 0.768326 26.4897C1.25426 28.1913 2.83012 29.6593 3.56585 31.3162C3.57207 31.3274 3.5845 31.3236 3.5932 31.3311C3.57207 31.3845 3.55342 31.4368 3.53105 31.4902C3.39559 31.8171 3.52981 31.8569 3.68516 31.7599C3.69262 31.7985 3.70753 31.8295 3.74108 31.842C4.29661 32.0533 4.99506 32.1055 5.71961 32.0968V32.2385C5.71961 32.2944 5.7395 32.318 5.7656 32.3292C5.7743 32.3926 5.78424 32.4548 5.78921 32.5181C5.80164 32.6797 5.94083 32.6114 6.02534 32.5418C6.02659 32.5455 6.02783 32.5505 6.02907 32.5542C5.98557 32.7033 5.99054 32.8301 6.09618 32.8301C6.10115 32.8301 6.10612 32.8252 6.1111 32.8252C6.14092 32.9296 6.17323 33.034 6.22418 33.1347C6.24158 33.167 6.26893 33.1819 6.30621 33.1806C11.2799 33.1806 16.2498 33.0974 21.2123 33.4317C24.057 33.6231 26.9018 33.3385 29.7353 33.4964C31.4367 33.5908 33.936 33.9985 35.5715 33.4541C35.7641 33.3895 35.9008 33.0762 35.922 32.8948C35.9394 32.7506 36.5769 31.8643 36.7584 31.5623C36.8043 31.4865 36.8267 31.4218 36.8404 31.3634C37.7066 30.1789 38.5766 28.7681 39.0824 27.4008C39.2415 27.2206 39.3831 26.8974 39.2576 26.7706ZM2.09563 27.2504C0.988301 26.0982 1.51898 25.7489 2.09066 24.5867C2.51321 23.7266 3.09857 22.89 3.57331 22.0548C4.02072 21.2692 4.43954 19.4321 5.51082 19.3836C6.0589 19.3587 6.54234 18.9436 6.94252 18.6192C8.1965 17.5987 9.39579 16.71 10.1961 15.2781C11.3768 13.165 12.5649 11.1153 13.9444 9.12284C14.6802 8.06009 14.28 6.96627 13.5094 6.0589C13.0036 5.46351 14.9598 3.34051 15.2282 2.68919C15.7788 1.35423 15.9329 1.13671 17.3087 1.15287C18.4669 1.16654 19.5879 0.967666 20.74 0.945293C17.377 4.72021 15.8782 10.0277 13.2323 14.2538C11.3047 17.3315 9.62944 20.3979 8.02126 23.6532C7.19605 25.3238 6.03529 26.8377 4.96897 28.3591C4.48801 29.044 4.20341 29.7612 3.91881 30.5045C3.25392 29.9874 2.52066 27.6917 2.09563 27.2504ZM35.4609 32.9855C35.5553 32.6387 33.2847 32.8475 32.8448 32.8475C29.5539 32.8475 26.2456 32.8326 22.9534 32.7444C20.1236 32.6685 17.3323 32.4274 14.4962 32.4274C12.9651 32.4274 11.434 32.5393 9.90534 32.4622C8.74209 32.4038 7.66458 32.6337 6.84061 32.0446C7.45455 31.9998 8.04737 31.9414 8.54573 31.9215C10.6895 31.8345 12.7762 31.7748 14.9101 31.9824C19.1443 32.3938 23.3909 32.3789 27.6412 32.4958C29.4085 32.5442 31.172 32.241 32.9355 32.1825C33.5308 32.1626 34.9973 32.3951 35.8561 32.2111C35.692 32.4411 35.5442 32.681 35.4609 32.9855ZM36.5819 31.0154C36.4564 31.2056 36.311 31.3535 36.2202 31.5474C36.2364 31.4964 36.2513 31.4479 36.2724 31.3783H34.9464C31.6306 31.3783 28.3198 31.7164 24.9978 31.7587C21.5491 31.8022 18.017 31.5026 14.5907 31.1683C12.8731 31.0017 11.173 31.1049 9.44426 31.1086C8.51217 31.1098 7.32033 31.3087 6.19685 31.3473C6.16081 31.3025 6.09742 31.3174 6.03776 31.3535C5.34926 31.3671 4.69307 31.3149 4.14872 31.1086C4.14748 31.1086 4.14624 31.1086 4.145 31.1086C4.20962 30.9967 4.25312 30.8712 4.26182 30.7718C5.42259 28.3119 7.10159 26.2622 8.33196 23.8223C9.85562 20.8006 11.3669 17.8896 13.1826 15.0245C14.4154 13.078 15.5178 11.0855 16.4238 8.96995C17.5535 6.3336 19.194 3.10931 21.2322 0.99004C21.2297 1.05592 21.2458 1.10937 21.298 1.13298C21.9517 1.42757 21.953 2.10126 22.7446 2.05154C24.4435 1.94589 24.5218 3.87623 25.3209 5.0844C27.2174 7.95195 28.5336 11.1812 30.4686 14.0202C31.1596 15.0332 32.0096 15.8585 32.6472 16.925C33.4351 18.2438 34.1448 19.5974 34.8904 20.9411C36.0201 22.9783 37.0479 25.6631 38.7133 27.3523C38.2746 28.6177 37.3027 29.924 36.5819 31.0154Z" fill="#1B708A"/>
</svg>
