<svg width="54" height="20" viewBox="0 0 54 20" fill="none" xmlns="http://www.w3.org/2000/svg">
<path d="M9.6131 0.537641C8.72202 0.230626 7.67311 0.685555 6.78451 0.415829C6.5956 0.358652 6.36942 0.720358 6.32716 0.957766C6.30479 1.00997 6.28739 1.05969 6.28739 1.09698C6.28739 2.24425 6.3284 3.39773 6.24389 4.54127C3.0959 3.84769 0.145508 6.40822 0.145508 9.54425C0.145508 11.4112 0.655057 13.5603 2.58014 14.2551C4.36106 14.899 7.24434 14.9549 9.03023 14.3595C9.14706 14.321 9.23778 14.2004 9.29744 14.065C9.42171 13.9195 9.54226 13.7144 9.54226 13.6038C9.54226 11.5367 9.54475 9.41125 9.59695 7.33299C9.64915 5.25349 9.13214 2.84709 9.64542 0.792451C9.65909 0.739003 9.7001 0.567473 9.6131 0.537641ZM5.52432 13.8661C4.03794 13.8661 2.22222 13.6784 1.44423 12.2539C0.32323 10.2018 0.120655 7.07197 2.68578 5.83148C3.69368 5.34423 5.07194 5.02727 6.17678 5.35293C6.36569 5.40887 6.58815 5.05089 6.63289 4.81348C6.67514 4.74139 6.70745 4.67302 6.71367 4.62455C6.83919 3.49095 6.81309 2.34866 6.80067 1.20761C7.5973 1.27348 9.11102 1.27224 9.13463 1.17653C8.86121 2.27035 8.99544 3.6426 8.99544 4.77371C8.99544 7.74442 9.03023 10.7213 9.03396 13.6908C7.88935 14.0165 6.69627 13.8661 5.52432 13.8661Z" fill="#1B708A"/>
<path d="M6.73715 7.08069C6.71726 7.02103 6.65761 7.03967 6.58801 7.09312C6.58553 7.09063 6.58428 7.0869 6.5818 7.08442C4.99972 6.2019 3.64632 7.66737 3.23247 9.09928C2.63345 11.1738 4.38951 12.7835 6.42521 12.2751C6.64642 12.2192 6.87883 11.8525 6.83408 11.625C6.54203 10.1645 7.21189 8.50638 6.73715 7.08069ZM3.68236 10.0489C3.2623 8.51633 4.7027 6.99741 6.17541 7.82026C6.20648 7.83766 6.24128 7.83393 6.27732 7.8215C6.47741 8.5213 6.33324 9.55173 6.28726 10.2391C6.25867 10.6617 6.23506 11.144 6.26116 11.6002C5.1588 11.6946 3.99679 11.1949 3.68236 10.0489Z" fill="#1B708A"/>
<path d="M14.0905 0.407059C13.8941 0.378471 13.7226 0.448078 13.525 0.458022C13.2566 0.471695 12.9794 0.413274 12.7172 0.366041C12.3767 0.305135 11.8522 0.122418 11.5279 0.30265C11.4694 0.334967 11.4061 0.424462 11.3514 0.528872H11.3017C11.0705 0.528872 10.8654 0.990016 10.8928 1.17895C11.0183 2.05525 10.771 2.99742 10.771 3.88739C10.771 3.93836 10.812 3.99802 10.8692 3.99056C11.3402 3.92468 11.8 3.87994 12.276 3.84638C12.7334 3.81406 13.1621 3.95079 13.6182 3.95079C14.2284 3.95079 14.1887 3.1615 14.1887 2.73391C14.1887 2.18452 14.1203 1.65874 14.216 1.11058C14.2409 0.973857 14.3229 0.44062 14.0905 0.407059ZM13.2417 3.11426C12.6812 3.03471 12.107 3.12545 11.544 3.15528C11.2134 3.17268 11.2781 3.16895 11.2781 2.85075C11.2781 2.54498 11.324 2.22305 11.3588 1.91852C11.3936 1.60902 11.416 1.30946 11.4123 1.00617C11.7342 0.904251 12.3195 1.10313 12.6078 1.15533C12.7048 1.17273 13.7164 1.2411 13.7226 1.18392C13.6816 1.58913 13.6468 2.00056 13.6418 2.40825C13.6394 2.63323 13.6493 2.85324 13.6704 3.07697C13.6729 3.10059 13.6717 3.13664 13.6692 3.17641C13.5287 3.16025 13.3871 3.13539 13.2417 3.11426Z" fill="#1B708A"/>
<path d="M14.0276 5.55543C14.0301 5.50695 14.0227 5.47588 14.014 5.44978C14.0848 5.26954 14.0948 5.09553 13.9705 5.09553C13.5616 5.09553 13.113 5.03959 12.7153 4.95507C12.2728 4.86185 11.7546 4.93394 11.3034 4.93394C11.0524 4.93394 10.7342 5.68718 10.9927 5.68718C10.999 5.68718 11.0052 5.68718 11.0114 5.68718C10.9045 7.32916 10.8536 8.99226 10.8536 10.6367C10.8536 11.6212 10.8188 12.6205 10.6721 13.5938C10.4285 15.2221 9.35723 15.6223 8.36921 16.6117C8.27228 16.7087 8.1915 16.9411 8.18528 17.0952C8.12811 17.2382 8.11444 17.3799 8.19647 17.4395C8.74454 17.8435 10.6945 19.1113 11.4364 18.5545C12.2343 17.9554 12.9837 17.1884 13.3715 16.2488C14.7087 13.0046 13.8909 8.97486 14.0276 5.55543ZM13.4 13.1078C13.3242 14.3955 13.4299 15.6298 12.6693 16.7708C11.6104 18.3581 10.1066 17.7664 8.79176 16.8404C9.33238 16.4849 9.88045 16.419 10.3515 15.7603C10.8821 15.0182 11.0462 14.0773 11.1779 13.196C11.5495 10.7188 11.3743 8.17935 11.4973 5.67973C11.8702 5.67103 12.248 5.66978 12.6009 5.76052C12.8917 5.8351 13.2385 5.84628 13.5504 5.84753C13.5343 5.88855 13.5231 5.92583 13.5218 5.95567C13.4261 8.34218 13.5417 10.7163 13.4 13.1078Z" fill="#1B708A"/>
<path d="M22.8774 9.39515C22.9383 8.29387 23.208 6.91292 22.5841 5.9434C21.9652 4.98134 20.2936 4.93286 19.3043 4.93286C18.5388 4.93286 17.8006 4.97015 17.0412 5.05467C16.8125 5.07953 16.4969 5.3592 16.2806 5.26598C16.2222 5.24112 16.1576 5.26722 16.0942 5.31818C15.9401 5.30078 15.6232 5.76317 15.6617 5.94837C15.7611 6.42319 15.525 7.85013 15.909 8.06268C16.1439 8.19319 16.7989 7.95951 17.0412 7.92719C17.7931 7.82527 18.5748 7.40017 19.3491 7.65871C19.574 7.7047 19.7381 7.82278 19.8437 8.00799C19.2745 8.01296 18.6556 8.17952 18.115 8.35975C17.1071 8.69535 16.2694 9.02723 15.5623 9.86251C14.6575 10.9302 14.9769 13.2695 16.1576 13.9643C17.0934 14.5162 18.4568 14.3012 19.4771 14.3981C20.4241 14.4864 21.6296 14.515 22.5269 14.1595C22.6425 14.1135 22.7767 13.8748 22.8301 13.6822C22.8575 13.6225 22.8774 13.5666 22.8774 13.5256C22.8774 12.1521 22.8003 10.7786 22.8774 9.39515ZM16.564 13.2285C15.8668 13.011 15.7413 12.1769 15.6505 11.584C15.4517 10.2988 16.2458 9.54058 17.4178 9.24351C18.0106 9.09311 18.6047 8.91909 19.1962 8.75874C19.4435 8.69162 19.8102 8.85943 20.0463 8.74756C20.7075 8.43433 20.4838 7.43373 20.0699 7.06084C19.4883 6.53755 18.4356 6.90671 17.808 7.07327C17.158 7.24604 16.2918 7.67114 16.2918 6.69416C16.2918 6.47788 16.2819 6.25166 16.2607 6.02792C16.656 5.97572 17.1543 5.76193 17.4588 5.72837C18.9489 5.56305 20.4987 5.59537 21.8148 6.36601C22.8264 6.95767 22.3305 9.60273 22.3305 10.5971C22.3305 11.5803 22.3554 12.566 22.3653 13.5454C20.6851 14.0315 18.0939 13.7058 16.564 13.2285Z" fill="#1B708A"/>
<path d="M20.6492 10.1955C20.7114 10.024 20.7176 9.86487 20.5983 9.86487C20.1857 9.86487 19.7532 10.019 19.3654 10.1508C18.9043 10.3074 18.2544 10.2987 17.8629 10.6268C17.2738 11.1203 17.1396 11.963 17.7672 12.4801C18.0766 12.7349 18.7403 12.7113 19.1131 12.725C19.4735 12.7374 20.0104 12.7511 20.3174 12.5311C20.6008 12.3284 20.6517 11.927 20.6231 11.6112C20.5796 11.1402 20.6318 10.6666 20.6492 10.1955ZM19.2635 11.9667C18.7962 11.9506 18.2357 11.9282 17.9524 11.5068C17.8144 11.3005 17.7983 11.2645 17.9959 11.1837C18.2991 11.0594 18.6322 11.0059 18.9528 10.9413C19.3505 10.8617 19.7407 10.6753 20.1422 10.6343C20.1347 10.8903 20.1086 11.1464 20.1074 11.4049C20.1061 11.5653 20.1347 11.7778 20.1422 11.9779C19.8563 12.0227 19.4636 11.973 19.2635 11.9667Z" fill="#1B708A"/>
<path d="M32.0141 5.72695C31.2299 4.82206 30.3028 4.73132 29.1644 4.73132C27.7302 4.73132 26.0276 4.85811 24.6618 5.31428C24.5698 5.34535 24.4654 5.49824 24.397 5.65734C24.2877 5.7978 24.1895 5.97057 24.1895 6.07001C24.1895 8.8319 24.1249 11.6398 24.2305 14.3955C24.233 14.4564 24.269 14.4949 24.3287 14.4986C25.3105 14.5508 27.0666 15.1164 27.4121 13.8436C27.6706 12.8927 27.5251 11.7442 27.5251 10.7759C27.5251 9.78278 27.8383 8.49133 27.6121 7.46339C28.2137 7.45841 28.891 7.48452 29.2613 8.0712C29.5497 8.52862 29.6441 9.67464 29.6441 10.1917C29.6441 11.4707 29.792 12.894 29.541 14.1518C29.5285 14.2103 29.4863 14.3731 29.5733 14.4079C30.3339 14.7124 31.5679 14.4178 32.3696 14.4178C32.5783 14.4178 32.7759 14.0139 32.7772 13.8423C32.8033 11.4074 33.764 7.74554 32.0141 5.72695ZM30.0704 13.5639C30.0704 12.3806 30.1512 11.1948 30.1512 10.0078C30.1512 9.08671 30.0194 8.28375 29.7361 7.4087C29.4751 6.602 28.2746 6.71139 27.6283 6.71139C27.4232 6.71139 27.1772 7.2123 27.2356 7.39502C27.125 7.55039 27.0355 7.74803 27.074 7.86487C27.4183 8.89778 27.0168 10.8095 27.0168 11.9306C27.0168 12.6342 27.3735 13.8933 26.5769 13.8262C26.0301 13.7802 25.4683 13.7317 24.9203 13.7603C24.8395 13.764 24.7251 7.74554 24.7003 5.97803C25.8822 5.64243 27.1449 5.68469 28.3578 5.51937C29.7908 5.32422 30.8571 5.60389 31.8016 6.69398C32.4143 7.40124 32.3932 8.86671 32.4292 9.73803C32.4839 11.0643 32.3397 12.3694 32.2913 13.6832C31.5344 13.7255 30.0704 13.8187 30.0704 13.5639Z" fill="#1B708A"/>
<path d="M44.328 4.96136C44.3504 4.84203 44.333 4.74384 44.2385 4.73265C40.8718 4.31128 35.2569 3.69725 33.9867 7.92834C33.4138 9.83755 33.3827 11.9854 34.3894 13.7666C35.0667 14.9648 38.3154 14.9611 39.6215 14.4316C39.6054 14.7871 39.6315 15.104 39.3307 15.3725C38.9579 15.7044 38.2545 15.8014 37.7723 15.8871C37.0564 16.0151 34.9238 16.0599 34.4602 15.4881C34.3732 15.3812 34.2204 15.4968 34.106 15.6621C33.9693 15.784 33.8152 16.0176 33.809 16.1394C33.7891 16.5347 33.6698 16.9051 33.6872 17.3054C33.7034 17.6683 33.7369 18.0337 33.768 18.3967C33.7779 18.516 33.8587 18.5061 33.9345 18.4663C33.8687 18.6279 33.85 18.7833 33.9395 18.8131C36.4798 19.6596 40.2653 19.4942 41.9567 17.1301C42.6117 16.2153 42.7223 14.7597 42.7223 13.6858C42.7223 11.7256 42.6564 9.7754 42.6465 7.82145C42.8528 7.81523 43.0777 7.79783 43.2194 7.73195C43.4531 7.62133 43.4928 7.35036 43.6134 7.1577C43.9402 6.62943 44.1006 6.00918 44.3491 5.4399C44.4125 5.32679 44.461 5.20622 44.461 5.07695V5.03593C44.4572 4.91537 44.4013 4.91288 44.328 4.96136ZM43.586 6.32739C43.5214 6.51756 43.4556 6.69904 43.3636 6.87678C43.3549 6.89418 43.3251 6.94888 43.2927 7.01103C43.0827 7.03091 42.8739 7.0682 42.6626 7.07566C42.5011 7.08063 42.3172 7.39013 42.2712 7.61138C42.1941 7.72822 42.1332 7.85128 42.1332 7.92834C42.1332 10.643 42.7844 14.0301 41.82 16.6018C40.9426 18.9411 36.1964 18.6962 34.3459 18.0785C34.3086 18.0661 34.2701 18.0735 34.2315 18.0909C34.2626 18.0114 34.2825 17.9281 34.275 17.8485C34.2477 17.5254 34.2651 17.1848 34.2042 16.8678C34.1706 16.6901 34.1905 16.5099 34.2216 16.3309C34.5907 16.5521 35.1226 16.5708 35.5228 16.5993C36.6115 16.6777 37.5908 16.6553 38.6397 16.3545C39.803 16.0214 40.0416 14.9797 40.1298 13.9555C40.2181 13.7231 40.2305 13.482 39.9969 13.6386C38.7827 14.4478 35.3786 14.0115 34.6678 12.7536C33.7717 11.1675 33.8438 8.54237 34.8902 7.02843C36.6475 4.48654 41.2595 5.15029 43.9291 5.48465C43.9315 5.48465 43.9353 5.48216 43.9378 5.48216C43.8085 5.76059 43.6855 6.03653 43.586 6.32739Z" fill="#1B708A"/>
<path d="M40.053 6.89551C40.053 6.7476 39.9287 6.82466 39.8044 6.96636C39.8032 6.96636 39.8032 6.96388 39.8007 6.96388C38.753 6.69788 37.2617 7.42378 36.8229 8.41194C36.1991 9.81775 36.2798 11.1975 37.5885 12.1521C38.0396 12.4814 39.0712 12.3584 39.5397 12.1359C39.9026 11.9644 39.9374 11.3827 40.0356 11.0582C40.2394 10.3783 39.91 9.51571 40.1387 8.85071C40.3599 8.20934 40.053 7.54683 40.053 6.89551ZM38.4721 11.579C37.8197 11.594 37.3909 10.8432 37.0926 10.3746C36.1866 8.95512 38.0222 7.3492 39.3955 7.69847C39.4452 7.7109 39.4962 7.68977 39.5472 7.65746C39.5472 7.90481 39.5583 8.16086 39.6453 8.39081C39.7696 8.71772 39.6292 8.98744 39.6292 9.30316C39.6292 9.95696 39.6615 10.7773 39.5161 11.4535C39.1718 11.5219 38.8102 11.5716 38.4721 11.579Z" fill="#1B708A"/>
<path d="M50.4574 8.9463C50.3393 8.49386 50.2586 8.11599 50.0585 7.68717C49.9193 7.39009 49.5564 7.24964 49.4122 6.96002C49.3849 6.90533 49.3339 6.90658 49.2743 6.94138C49.2569 6.92522 49.2357 6.91403 49.2084 6.91403C48.6119 6.91403 47.9917 6.79098 47.5281 7.23348C47.077 7.66355 46.9043 8.23283 46.7166 8.81703C46.3139 10.0737 46.7042 12.0674 48.1234 12.4428C49.1574 12.7162 50.4586 12.1258 50.5133 10.9214C50.5432 10.2601 50.6264 9.59265 50.4574 8.9463ZM49.1475 11.794C47.9358 12.0488 47.3977 10.8779 47.1603 9.96803C46.9937 9.33038 47.123 8.72381 47.3566 8.12345C47.589 7.7605 47.891 7.60761 48.2639 7.66603C48.4441 7.67598 48.6218 7.66852 48.8008 7.64366C48.8008 7.75677 48.8728 7.73813 48.9636 7.65982C49.0978 7.89847 49.2855 7.99915 49.4706 8.19803C49.7863 8.53612 49.8559 9.05941 49.9516 9.49197C50.1343 10.3272 50.1964 11.5727 49.1475 11.794Z" fill="#1B708A"/>
<path d="M50.3216 4.73265C50.3166 4.68542 50.303 4.6444 50.2669 4.62079C48.5332 3.46482 44.9503 5.58409 44.2282 7.25093C43.2439 9.52433 43.4428 13.4298 45.9532 14.5547C48.2474 15.5826 52.0242 14.5074 52.9327 11.9643C53.9282 9.17878 53.4671 5.72206 50.3216 4.73265ZM46.8045 13.9717C44.7837 13.5168 44.2543 11.3515 44.2543 9.52309C44.2543 7.7158 45.1802 6.45542 46.6914 5.6711C47.3103 5.35041 48.8029 4.93153 49.6393 5.25595C49.6344 5.32804 49.6493 5.38273 49.6977 5.39516C51.506 5.87744 52.7152 7.3889 52.9215 9.22229C53.3515 13.0407 49.9587 14.6827 46.8045 13.9717Z" fill="#1B708A"/>
</svg>
