<svg width="33" height="42" viewBox="0 0 33 42" fill="none" xmlns="http://www.w3.org/2000/svg">
<path d="M10.7175 33.6538C10.9002 33.4412 11.0294 33.0199 10.8355 33.0199C9.63375 33.0199 7.39551 25.5645 5.3275 28.8733C4.85524 29.6303 4.32826 30.0728 3.38374 30.125C3.10287 30.1411 2.89905 30.3189 2.76234 30.5376C2.33234 31.2262 2.14343 31.7334 2.10863 32.555C2.05395 33.8402 1.54816 34.9291 1.34683 36.1596C1.12934 37.4821 4.30837 37.425 4.90988 37.5157C6.95179 37.8215 8.61841 39.7456 10.7212 38.8159C11.5278 38.4591 11.9802 37.7021 12.1032 36.878C12.2909 35.6177 11.4594 34.5997 10.7175 33.6538ZM7.61545 37.4995C6.50936 36.7973 5.08636 36.7438 3.83363 36.5561C2.33979 36.3324 1.68361 35.9868 2.38827 34.2429C2.5635 33.8091 2.57468 33.2498 2.60699 32.7911C2.66789 31.9422 2.80461 31.0187 3.76529 30.7576C4.06853 30.6756 4.31087 30.6209 4.57931 30.4494C5.44803 29.8938 5.52759 28.6048 6.84868 29.1206C8.11135 29.6141 8.6159 32.2045 9.5977 33.2896C9.58652 33.353 9.58529 33.4101 9.61014 33.4499C10.1843 34.3623 10.8368 34.9688 11.2742 36.0154C12.4797 38.8954 9.10307 38.4442 7.61545 37.4995Z" fill="#1B708A"/>
<path d="M32.4921 32.8956C31.8943 31.8378 31.7999 31.3469 31.6607 30.1412C31.5377 29.0797 31.0903 28.309 30.0861 27.8988C30.0749 27.8939 30.0612 27.9001 30.05 27.8988C30.8852 25.8057 30.3309 23.5186 29.3491 21.5311C28.4568 19.7238 27.0636 17.9662 25.8966 16.3379C24.5954 14.5232 24.4401 12.4623 23.9678 10.3828C23.9566 10.3356 23.9355 10.3132 23.9106 10.302C23.7491 8.14918 24.0436 5.94911 23.1886 3.87707C22.3832 1.9256 20.488 1.09529 18.5319 0.850422C15.0819 0.419109 13.2997 2.02876 12.2359 4.81552C11.4753 6.16788 11.6766 7.85584 11.6766 9.36233C11.6766 10.88 11.5983 12.3268 11.2789 13.8196C10.9408 15.3982 9.5191 16.41 8.65536 17.653C7.2945 19.6132 6.45812 21.1843 5.62669 23.4291C5.12585 24.7802 5.23768 26.058 4.97545 27.3954C4.90461 27.4961 4.84373 27.6167 4.8226 27.7248C3.76747 29.3631 1.37137 29.148 0.827029 31.1517C0.512603 32.3127 0.82576 33.491 0.357227 34.6606C0.0403153 35.4537 0.37215 36.5226 0.669177 37.2647C1.15635 38.484 1.92193 38.8333 3.16845 38.9738C5.14077 39.1963 6.80235 39.993 8.70879 40.4803C9.70551 40.7351 10.9135 40.4939 11.7711 39.9222C12.0954 39.7059 12.4844 39.5145 12.7156 39.1925C13.4948 38.1024 14.3237 38.3498 15.4472 38.3498C16.8864 38.3498 18.6375 38.2031 20.0431 38.5487C20.7875 38.7314 21.0982 39.7792 21.645 40.2254C22.3124 40.7711 22.95 41.1229 23.7951 41.3043C26.4646 41.8798 28.5823 37.7382 30.5472 36.7389C31.7539 36.1249 32.9781 35.916 32.9781 34.3723C32.9781 33.7669 32.7966 33.4363 32.4921 32.8956ZM30.7423 36.018C29.9717 36.458 29.2024 36.9701 28.6034 37.6438C27.5856 38.7886 26.3415 40.2105 24.7682 40.5772C23.1587 40.9526 21.8986 39.2671 21.0199 38.2479C20.4395 37.5742 19.6255 37.6649 18.8326 37.6649C17.5314 37.6649 16.2289 37.5953 14.924 37.5953C13.8304 37.5953 13.5582 37.4834 12.8846 38.2155C11.945 39.2373 11.1969 39.7829 9.71424 39.8364C8.25769 39.8886 6.61098 38.9017 5.26752 38.4368C3.81346 37.9334 2.54704 38.5785 1.37633 37.1727C0.43429 36.0416 0.900333 34.5252 1.20979 33.2847C1.41858 32.4494 1.02709 31.5631 1.38501 30.7465C1.67831 30.0753 3.42568 29.5582 4.0856 29.1319C4.51064 28.8572 4.79526 28.4296 5.05874 28.0082C5.19917 27.9138 5.35452 27.5881 5.36943 27.5297C5.71369 26.1525 5.48871 24.7616 6.02933 23.3968C6.62214 21.899 6.93783 20.5069 7.98302 19.1707C8.62803 18.3453 9.30287 17.561 9.98144 16.7643C11.2081 15.3249 11.6654 13.8594 12.0842 12.0695C12.5378 10.1342 11.5101 7.31266 12.2893 5.43825C12.3862 5.34378 12.4794 5.22446 12.508 5.13621C12.8125 4.2251 13.0176 3.60362 13.6141 2.8628C14.9153 1.24693 18.1553 1.35507 19.9188 1.92311C24.0026 3.23942 23.0531 8.26105 23.4558 11.4841C23.467 11.5773 23.5192 11.5835 23.5826 11.5487C23.7839 12.5642 23.9256 13.5201 24.2686 14.5667C24.8651 16.3864 25.9936 17.9687 27.1108 19.515C28.801 21.8567 31.0729 25.2774 29.5156 28.2506C29.4746 28.3289 29.3031 28.713 29.5144 28.713H29.6536C29.6871 28.713 29.7219 28.6981 29.7567 28.6745C30.9262 29.1891 31.094 30.0281 31.14 31.2934C31.1835 32.5153 31.7564 33.1057 32.3455 34.1448C32.9979 35.2921 31.4345 35.6227 30.7423 36.018Z" fill="#1B708A"/>
<path d="M29.0808 26.2183C28.4508 25.6603 27.8406 25.1009 27.07 24.7541C26.696 24.5863 25.1909 24.2905 25.0592 23.8455C23.9581 20.1414 21.7894 16.8575 20.8473 13.0875C20.8337 13.0304 20.8175 12.9844 20.7492 12.9844C19.3784 12.9844 18.4413 14.4809 17.0755 14.8563C16.2701 15.0775 15.4897 14.8153 14.7403 14.5369C14.3413 14.3877 13.7709 13.6083 13.4005 13.6083C13.2713 13.6083 13.1246 13.8097 13.0476 14.0049C12.9904 14.062 12.9382 14.1316 12.9047 14.2075C12.6325 14.8252 12.6126 15.5337 12.5082 16.1937C12.2833 17.6219 11.4605 18.8512 10.7348 20.0693C9.57771 22.0109 8.66178 24.1165 8.48655 26.3862C8.33866 28.3041 9.78154 28.8025 11.2393 29.5893C12.5343 30.2879 14.186 31.276 12.379 32.9391C12.1466 33.1529 11.9303 33.3319 11.8744 33.6576C11.5997 35.2672 14.1462 36.1224 15.3704 36.2715C17.5937 36.5413 19.914 36.3983 21.3122 34.4792C22.3375 33.0734 22.3101 31.1903 22.714 29.5657C23.1254 27.9125 24.1718 26.1786 26.1789 26.7802C27.1868 27.0822 27.6691 28.1586 28.7577 28.1586C28.8932 28.1586 29.0113 27.9647 29.0672 27.8678C29.3431 27.378 29.6128 26.6882 29.0808 26.2183ZM28.2134 27.0673C26.4474 25.301 23.7331 25.6826 22.7464 28.0741C22.248 29.2823 22.0143 30.6483 21.7956 31.9323C21.2388 35.1926 18.1592 36.2529 15.1728 35.3617C14.14 35.0534 13.2974 34.7862 12.538 33.9584C12.323 33.7247 13.2179 32.8235 13.3198 32.703C13.6317 32.3288 13.9784 31.465 13.7945 30.969C13.3334 29.7248 12.2808 29.1978 11.1611 28.5937C10.6552 28.3202 10.1457 28.0828 9.67094 27.7534C8.0901 26.6559 9.43978 23.5273 9.98163 22.3589C10.6291 20.9643 11.6184 19.6803 12.2 18.2683C12.4411 17.6841 12.7692 17.075 12.9345 16.4647C13.1122 15.8109 13.0389 15.0651 13.2415 14.4088C13.6503 14.6002 14.5079 15.3373 14.8434 15.4616C15.343 15.6481 15.696 15.6791 16.2441 15.6704C17.3029 15.653 18.7856 14.9731 19.5312 14.2274C20.4956 13.2628 20.5131 14.154 20.5988 14.9533C20.6597 15.5263 21.0126 16.1639 21.2562 16.6748C22.0442 18.3279 22.6941 20.0606 23.4572 21.7362C23.8723 22.6485 24.091 24.4583 24.9635 25.0301C25.0977 25.1183 26.3691 25.3868 26.6624 25.49C27.0626 25.618 27.4093 25.8355 27.7026 26.14C27.8803 26.2793 29.0672 27.92 28.2134 27.0673Z" fill="#1B708A"/>
<path d="M20.2444 11.1646C20.5762 10.4996 20.8434 10.0422 20.8434 9.25417C20.8434 8.13177 20.734 7.07399 19.7858 6.31329C19.1669 5.8161 17.6731 6.08707 17.1573 6.64268C16.3917 7.46926 16.6813 8.47856 16.5148 9.48537C16.3259 9.29643 16.0549 9.28773 15.748 9.38469C15.912 8.88998 15.8785 8.30951 15.7654 7.82848C15.6063 7.1523 14.8457 6.01125 13.9844 6.29092C13.2027 6.54448 12.8485 7.41581 12.7093 8.16533C12.6136 8.67868 12.6074 9.18332 12.6074 9.70165C12.6074 10.4549 12.9181 10.8651 13.0772 11.5574C12.0196 13.1012 14.4145 14.2435 15.6846 14.6723C16.6478 14.998 17.6258 14.4349 18.4051 13.8992C19.0787 13.4355 20.1972 12.7917 20.5191 12.0136C20.6222 11.7637 20.4855 11.4903 20.2121 11.2181C20.222 11.1994 20.2345 11.1858 20.2444 11.1646ZM13.1195 9.45678C13.0772 8.82908 13.0822 8.06464 13.2934 7.46429C13.7185 6.25611 14.9464 7.67186 15.1515 8.05719C15.267 8.27471 15.3043 8.56184 15.3602 8.80049C15.3515 9.00185 15.3341 9.20197 15.308 9.40084C15.2881 9.48661 15.2757 9.54379 15.267 9.58605C15.262 9.59599 15.2558 9.60345 15.2509 9.61339C15.1576 9.66684 15.0632 9.73521 14.9688 9.79984C15.052 9.36356 14.9563 8.94716 14.7637 8.532C14.5798 8.13674 14.3797 7.57615 13.8465 7.95651C12.9231 8.61653 13.4973 9.87442 13.8167 10.7482C13.7334 10.829 13.6464 10.9111 13.5756 10.9819C13.4476 10.4549 13.1568 10.0186 13.1195 9.45678ZM14.3511 10.2647C14.3498 10.2597 14.3511 10.2523 14.3498 10.2473C14.1659 9.70786 13.8838 9.1162 13.8602 8.5407C13.8614 8.58048 14.1187 8.76568 14.1622 8.84026C14.2218 8.94467 14.2566 9.08016 14.2902 9.19451C14.3908 9.54627 14.5574 9.8073 14.4629 10.1765C14.4256 10.2063 14.3871 10.2349 14.3511 10.2647ZM19.2501 12.6599C18.5331 13.2876 17.6271 13.8979 16.6689 14.0421C16.0885 14.1291 14.1386 13.3038 13.5569 12.4511C13.5656 12.4573 13.5793 12.4536 13.5917 12.4511C14.013 12.6637 14.2951 13.0366 14.7239 13.2441C15.2484 13.4965 15.7728 13.6941 16.3358 13.8482C17.1225 14.0633 18.3292 12.8725 18.9929 12.5406C19.198 12.4374 19.4726 11.678 19.188 11.8209C18.4523 12.1888 17.3599 13.2827 16.4676 13.0403C15.9928 12.911 15.5827 12.691 15.1303 12.5108C14.6829 12.333 14.4169 11.9266 13.9907 11.714C13.7396 11.5885 13.5333 12.2 13.5333 12.3554V12.3803C13.5333 12.4175 13.5408 12.4387 13.5545 12.4511C13.337 12.1329 13.3059 11.8097 13.6178 11.5288C13.9658 11.2156 15.6299 9.74266 16.1096 10.2225C16.1357 10.2486 16.173 10.2399 16.214 10.22C16.2302 10.2399 16.2513 10.2548 16.2824 10.2573C16.3569 10.2647 16.4327 10.2834 16.5086 10.2983C16.2873 10.4561 16.0848 11.008 16.3072 11.008C16.5073 11.008 16.7459 10.5332 16.7037 10.3393C17.596 10.5779 18.5579 11.2392 19.2974 11.6805C19.5174 11.7724 19.7299 11.8793 19.935 11.9999C20.0244 12.0422 19.3048 12.6127 19.2501 12.6599ZM19.2029 10.5071C18.8338 10.302 18.4349 10.1168 18.0534 9.96018C18.1068 9.85577 18.1441 9.74639 18.1441 9.62955C18.1441 9.3561 18.1938 9.07891 18.1938 8.80422C18.1938 8.65879 18.1901 8.52703 18.2348 8.38533C18.3106 8.14917 18.8674 8.47234 18.983 8.53946C19.3881 8.77687 19.3459 9.30389 19.2887 9.70165C19.2452 9.99623 19.3446 10.2697 19.2029 10.5071ZM19.9411 10.9832C19.8106 10.8825 19.6615 10.783 19.5049 10.6861C19.6081 10.5183 19.6976 10.3517 19.751 10.1417C19.8318 9.82346 19.7684 9.47667 19.8156 9.15349C19.9225 8.42262 19.6851 7.83718 18.9531 7.6035C17.8471 7.25049 17.6693 8.87755 17.642 9.79984C17.2915 9.67181 16.9771 9.57362 16.7584 9.52887C16.8789 9.40209 16.9995 9.22559 17.0169 9.12863C17.1362 8.4624 16.7695 7.21321 17.7339 6.9584C18.5977 6.72969 19.3359 6.8254 19.8566 7.60226C20.5501 8.63641 20.4668 9.92414 19.9411 10.9832Z" fill="#1B708A"/>
<path d="M15.844 10.1516C15.5929 10.1516 15.2748 10.9049 15.5333 10.9049C15.7843 10.9049 16.1037 10.1516 15.844 10.1516Z" fill="#1B708A"/>
<path d="M31.4137 32.9714C30.9277 32.0155 30.8793 30.9491 30.4828 29.9708C29.501 27.547 27.0589 30.57 25.6981 29.7919C25.6757 29.7794 25.6508 29.7807 25.6247 29.7844C24.9412 29.0995 24.9685 27.6067 23.7593 28.6409C22.9415 29.3406 22.9602 31.1716 22.8471 32.1286C22.5998 34.2181 21.5695 36.0279 22.0132 38.1397C22.3301 39.6487 24.4453 39.594 25.4495 39.0595C26.6774 38.4057 27.9425 37.4125 28.9616 36.4592C29.9285 35.5555 31.4286 35.5095 31.8225 34.0577C31.922 33.6861 31.5628 33.266 31.4137 32.9714ZM29.9136 35.1615C28.9579 35.4747 28.1973 36.5586 27.3621 37.0881C26.2051 37.8227 25.3737 39.021 23.8227 38.5909C21.5248 37.9545 22.6831 35.5058 23.0372 33.9881C23.2833 32.9366 23.3914 31.8129 23.507 30.739C23.507 30.744 24.1993 28.12 24.5795 29.4463C24.7262 29.9609 24.9201 30.3114 25.3426 30.6284C25.3786 30.6557 25.4271 30.6433 25.4768 30.6135C26.1243 30.8993 26.6948 30.7166 27.3224 30.3611C29.378 29.1952 29.8316 30.2058 30.3585 32.0503C30.7749 33.5071 31.8809 34.5164 29.9136 35.1615Z" fill="#1B708A"/>
</svg>
