<svg width="23" height="23" viewBox="0 0 23 23" fill="none" xmlns="http://www.w3.org/2000/svg">
<path d="M11.7379 13.5C13.0087 13.5 14.0444 12.4626 14.0444 11.1879C14.0444 10.7784 13.9341 10.3945 13.7464 10.0604C13.7033 9.98419 13.658 9.91019 13.6076 9.83986C13.1877 9.25743 12.5077 8.87573 11.7379 8.87573C10.9681 8.87573 10.2881 9.25743 9.86816 9.83986C9.81776 9.91019 9.77248 9.98419 9.72938 10.0604C9.54168 10.3945 9.4314 10.7791 9.4314 11.1886C9.4314 12.4626 10.4656 13.5 11.7379 13.5Z" fill="#1B708A"/>
<path d="M16.7716 8.35766V6.42061V6.13049L16.4824 6.13196L14.5513 6.13782L14.5593 8.36499L16.7716 8.35766Z" fill="#1B708A"/>
<path d="M15.182 10.2098C15.2704 10.5204 15.3201 10.8487 15.3201 11.1871C15.3201 13.1689 13.7133 14.7806 11.7376 14.7806C9.76197 14.7806 8.15516 13.1681 8.15516 11.1871C8.15516 10.8479 8.20336 10.5204 8.29247 10.2098C8.32826 10.0831 8.36989 9.95926 8.41882 9.83911H6.46362V10.5204V15.2188C6.46362 15.9133 7.02674 16.4781 7.71913 16.4781H15.7561C16.4485 16.4781 17.0123 15.9133 17.0123 15.2188V10.5204V9.83911H15.0557C15.1039 9.95926 15.1455 10.0838 15.182 10.2098Z" fill="#1B708A"/>
<path d="M11.7375 0.0930176C5.62865 0.0930176 0.67749 5.06019 0.67749 11.1871C0.67749 17.3148 5.62938 22.2819 11.7375 22.2819C17.8455 22.2819 22.7974 17.3148 22.7974 11.1871C22.7974 5.06019 17.8455 0.0930176 11.7375 0.0930176ZM18.2881 9.83908V10.8281V15.2187C18.2881 16.6188 17.1517 17.758 15.7552 17.758H7.71824C6.32177 17.758 5.18679 16.6188 5.18679 15.2187V10.8267V9.83908V7.15622C5.18679 5.75618 6.32177 4.61696 7.71824 4.61696H15.7552C17.1517 4.61696 18.2881 5.75618 18.2881 7.15622V9.83908Z" fill="#1B708A"/>
</svg>
