<svg width="35" height="35" viewBox="0 0 35 35" fill="none" xmlns="http://www.w3.org/2000/svg">
<path d="M7.30196 11.2106C7.23858 10.2548 7.43121 9.23927 7.2771 8.29337C7.27586 8.25359 7.25845 8.22252 7.22738 8.20015C6.90798 8.07958 6.42082 8.26851 6.08278 8.30456C5.91127 8.3232 5.78077 8.55812 5.72484 8.69609C5.4825 9.29645 5.57696 10.0472 5.61425 10.7395C4.83253 10.5817 4.0073 10.5233 3.23677 10.6948C3.36602 9.89059 3.32128 9.08017 3.39212 8.26478C3.43562 7.76138 2.40286 7.90059 2.15803 8.04104C2.06482 8.09449 1.9592 8.2884 1.89954 8.4649C1.79763 8.58671 1.70566 8.73711 1.69572 8.82536C1.55653 10.0236 1.82124 11.2504 1.71063 12.4673C1.65097 13.1236 1.48941 14.0111 1.82373 14.6189C1.84112 14.6512 1.86846 14.6661 1.90574 14.6649C2.24751 14.6537 2.57063 14.5617 2.91489 14.553C3.14356 14.5468 3.29394 14.154 3.32253 13.9775C3.36727 13.7065 3.37597 13.4393 3.37722 13.1708C3.7078 13.1186 4.24467 13.228 4.45222 13.2404C5.26252 13.2914 5.69253 12.9893 5.61796 14.0956C5.55707 15.0067 6.18965 14.773 6.94899 14.722C7.17145 14.7071 7.33799 14.3305 7.35663 14.1465C7.45606 13.1634 7.36659 12.1913 7.30196 11.2106ZM6.12378 13.6953C6.16355 13.3249 6.18095 12.9496 6.18095 12.5767C6.17971 12.5369 6.16232 12.5058 6.13125 12.4834C5.81806 12.3393 5.48623 12.4561 5.14695 12.4909C4.59266 12.5468 3.87557 12.2622 3.34987 12.512C2.84654 12.7507 2.8453 13.3336 2.84406 13.852C2.53212 13.9067 2.2326 13.9365 2.17419 13.5449C2.11081 13.1149 2.19531 12.4822 2.21644 12.0695C2.27485 10.9459 2.10087 9.77127 2.19035 8.6588C3.29519 8.27348 2.85275 10.6227 2.72225 11.2057C2.71107 11.2566 2.66757 11.5052 2.80304 11.4704C3.71028 11.2367 4.76541 11.3474 5.66892 11.5723C5.90753 11.632 6.1126 11.1895 6.12503 11.0055C6.15486 10.5618 6.19215 10.1417 6.1822 9.69793C6.17723 9.51273 6.11758 9.26786 6.09893 9.03916C6.19214 9.03294 6.28535 9.02175 6.39099 8.98695C7.09193 8.75327 6.78868 10.6749 6.78371 10.829C6.75264 11.893 6.90551 12.9545 6.8732 14.0148C6.52397 14.0459 6.08774 14.0347 6.12378 13.6953Z" fill="#1B708A"/>
<path d="M12.3448 8.23992C12.3436 8.1815 12.305 8.13676 12.2466 8.13676C11.2872 8.13427 10.3389 7.96896 9.38819 7.96896C9.04518 7.96896 8.54931 7.78251 8.23986 8.00873C8.11309 8.02862 7.86578 8.29213 7.8198 8.45745C7.70422 8.87011 7.69551 9.37476 7.74646 9.79737C7.74771 9.83715 7.76512 9.86822 7.79619 9.8906C8.17027 10.0261 8.55677 9.89806 8.95819 9.94902C9.35837 9.99998 9.09117 10.8017 9.09117 11.0863C9.09117 12.2087 9.14709 13.3336 9.14709 14.4498C9.14709 14.5095 9.18811 14.5518 9.24528 14.553C9.67902 14.5617 10.1003 14.4871 10.5341 14.4971C10.7528 14.502 10.9255 14.0906 10.9417 13.9216C11.0709 12.6326 10.8 11.3374 10.8448 10.0522C11.3145 10.0795 11.8079 10.2374 12.177 9.83964C12.5847 9.39838 12.356 8.76197 12.3448 8.23992ZM10.7901 9.31386C10.5626 9.36109 10.406 9.68178 10.3824 9.88936C10.2308 11.1833 10.5017 12.4747 10.4707 13.7699C10.119 13.796 9.65541 13.8172 9.65541 13.7041C9.65541 13.3162 9.59948 12.9322 9.59948 12.5406C9.59948 11.4791 9.60569 10.435 9.71133 9.37849C9.71879 9.30391 9.71007 9.20323 9.61314 9.20075C8.97434 9.18707 8.3194 9.24052 8.24856 8.70356C8.41261 8.72096 8.69472 8.7222 8.74567 8.72096C9.39814 8.72096 10.0258 8.81542 10.6757 8.86514C10.9554 8.88006 11.2362 8.88752 11.5159 8.88752C12.1484 8.89622 11.6178 9.44437 11.967 9.3499C11.583 9.45556 11.1778 9.23306 10.7901 9.31386Z" fill="#1B708A"/>
<path d="M18.2869 9.55619C18.2869 8.40893 18.5901 7.84337 17.2143 8.09445C17.0441 8.12553 16.9098 8.33683 16.8564 8.48599C16.8291 8.56181 16.8142 8.62769 16.8017 8.69481C16.578 8.94341 16.3655 9.21065 16.1977 9.4928C15.5577 10.5667 15.7727 10.3206 15.3563 9.83586C15.0842 9.51766 14.776 9.23054 14.4814 8.93098C14.1745 8.61899 13.9445 8.07457 13.5282 7.92168C13.3057 7.83964 13.0013 8.40271 13.0684 8.59786C12.9777 8.72589 12.9043 8.86883 12.9043 8.95584C12.9043 10.8265 12.7925 12.6947 12.7925 14.5617C12.7925 14.6226 12.8335 14.6611 12.8907 14.6648C13.5034 14.6959 13.9483 14.7742 14.2018 14.1614C14.3721 13.75 14.3049 13.2839 14.3472 12.8563C14.3584 12.7494 14.3509 12.5978 14.3398 12.4337C14.5535 12.8861 14.817 13.3348 15.196 13.5337C15.2544 13.5648 15.3203 13.52 15.3651 13.4865C15.9603 13.0403 16.3059 12.3914 16.7296 11.8134C16.762 12.4138 16.8651 12.9719 16.9111 13.581C16.9446 14.021 16.9024 14.4858 17.0677 14.8998C17.0851 14.9321 17.1124 14.947 17.1497 14.9457C17.4169 14.9383 17.6667 14.8898 17.9339 14.8898C18.1526 14.8898 18.3254 14.4858 18.3415 14.3143C18.4944 12.7295 18.2869 11.1385 18.2869 9.55619ZM17.4455 13.3958C17.4219 12.5555 17.2218 11.7774 17.2218 10.9297C17.2218 10.7321 16.9956 10.8787 16.9384 10.9446C16.4388 11.5102 16.025 12.154 15.5378 12.7382C15.4235 12.8749 14.5933 11.2591 14.4603 10.9844C14.3671 10.7917 14.1049 11.1708 14.0688 11.2305C13.8662 11.5636 13.9371 11.8495 13.8861 12.2224C13.8377 12.5729 13.8551 12.8836 13.8414 13.2528C13.8227 13.7686 14.0813 13.9041 13.614 13.9315C13.0522 13.9638 13.4114 12.1267 13.4114 11.6655V8.85516C13.7283 9.15844 14.0241 9.68795 14.2627 9.9266C14.6007 10.2647 14.9587 10.7631 15.3651 11.0105C15.4185 11.0428 15.4955 10.9956 15.5341 10.9632C16.158 10.4437 16.7495 9.58727 17.0963 8.83278C18.0507 8.75696 17.7823 9.60591 17.7823 10.4126C17.7823 11.6456 17.914 12.8836 17.8656 14.1192C17.5325 14.0806 17.4604 13.934 17.4455 13.3958Z" fill="#1B708A"/>
<path d="M23.4891 12.4635C23.4717 12.4312 23.4444 12.4163 23.4071 12.4175C22.7086 12.3343 21.9729 12.3964 21.2707 12.3964C21.001 12.3964 20.7525 12.4996 20.7525 12.1068C20.7525 11.7202 20.7114 11.3436 20.6754 10.957C20.6008 10.1653 20.8047 9.28647 20.612 8.51831C20.4902 8.03231 20.0093 8.19141 19.5892 8.19141C19.4687 8.19141 19.332 8.36792 19.2524 8.54939C19.2462 8.56058 19.2375 8.57176 19.2313 8.58295C18.9231 9.23054 19.1244 10.1926 19.1244 10.8912C19.1244 12.0993 19.0151 13.3622 19.1803 14.5604C19.1878 14.6139 19.2151 14.6686 19.2785 14.6636C20.6356 14.5468 21.9033 14.6636 23.2579 14.6636C23.5015 14.6636 23.6755 14.2049 23.6668 14.0135C23.642 13.5201 23.6444 12.9296 23.4891 12.4635ZM20.2616 13.8271C19.7023 13.8755 19.6315 13.8755 19.6315 13.305V10.7308C19.6315 10.307 19.4935 9.49032 19.5507 8.92974C19.8017 8.9111 20.0665 8.91234 20.1336 9.17958C20.2491 9.63948 20.1336 10.2796 20.1336 10.7495C20.1336 11.4343 20.0627 12.466 20.3175 13.1049C20.3349 13.1372 20.3622 13.1521 20.3995 13.1509C20.8854 13.2118 21.4236 13.1509 21.9145 13.1509H22.9211C23.0119 13.1509 23.0715 13.5275 23.1088 13.8942C22.4849 13.8594 21.8673 13.7736 21.2421 13.7786C20.9153 13.7798 20.5872 13.7985 20.2616 13.8271Z" fill="#1B708A"/>
<path d="M23.8741 19.9465C23.7337 19.509 22.9793 20.2212 22.87 20.3853C22.8265 20.4499 22.7991 20.5257 22.7805 20.6003C22.3964 21.2529 22.2312 22.0372 22 22.7506C21.3637 24.7145 20.715 26.497 19.9382 28.4074C19.7207 28.9419 19.0074 31.8766 20.4304 30.3403C22.2461 28.3813 22.6674 25.024 23.4802 22.5841C23.7486 21.7799 24.1463 20.7979 23.8741 19.9465ZM23.121 22.415C22.8961 23.2043 22.6512 23.9911 22.3927 24.7692C22.2274 25.2652 22.0622 25.7599 21.8956 26.2546C21.7577 26.8537 21.5775 27.4416 21.3575 28.0171C21.1711 28.8201 20.7087 29.3906 19.968 29.7275C20.1333 28.2458 21.2083 26.6175 21.7117 25.203C22.1678 23.919 22.3381 21.7712 23.1334 20.696C23.2938 20.7482 23.1421 22.3429 23.121 22.415Z" fill="#1B708A"/>
<path d="M28.6391 23.9339C28.0662 23.0464 27.0919 22.4299 26.3897 21.6431C26.2194 21.4517 25.6689 20.9185 25.3619 20.9185C25.2811 20.9185 25.1941 21.0005 25.1208 21.1061C24.8176 21.172 24.5777 21.4306 24.4435 21.7587C23.9799 22.8836 25.777 23.7686 26.3151 24.4846C26.6333 24.9084 27.5629 25.331 27.0359 25.7387C26.4692 26.1775 25.9149 26.574 25.4601 27.1321C25.1059 27.5659 24.2024 28.523 24.2782 29.1718C24.4373 30.5391 25.7161 29.3073 26.1473 28.9779C27.1925 28.1812 28.3359 26.9071 29.0977 25.8419C29.6557 25.0601 29.0729 24.6076 28.6391 23.9339ZM28.5832 25.7947C28.1955 26.1501 27.8524 26.5889 27.5219 26.9991C27.0496 27.5858 26.3984 28.1973 25.8018 28.6523C25.4464 28.9232 24.9269 28.651 25.137 28.2731C25.7161 27.2315 26.5836 26.6784 27.5132 26.0084C27.7232 25.8568 27.8984 25.4963 27.9258 25.2428C27.9817 24.7282 27.0446 24.1141 26.7886 23.8208C26.5015 23.4927 26.6904 23.6431 26.3064 23.336C26.2058 23.2553 25.1879 21.8917 25.1705 21.8843C25.2413 21.9141 25.3221 21.8693 25.3979 21.7935C25.9696 22.1279 26.6507 23.1036 27.021 23.4541C27.2882 23.7077 29.1984 25.2328 28.5832 25.7947Z" fill="#1B708A"/>
<path d="M19.0546 28.2496C18.6445 27.5859 18.0492 27.0526 17.5695 26.4349C17.019 25.7264 15.7637 25.2901 16.8214 24.5841C17.7423 23.97 18.7564 22.8961 19.0534 21.7986C19.2659 21.0155 18.8173 20.8141 18.3164 20.9372C18.3214 20.8415 18.2891 20.7806 18.1872 20.8216C17.06 21.2728 16.2646 22.2883 15.5525 23.228C15.0056 23.9489 13.7889 24.727 14.081 25.7724C14.3544 26.7531 16.057 28.0644 16.8214 28.6685C17.2588 29.0153 18.0679 30.2533 18.6942 29.5759C18.944 29.3061 19.2883 28.6287 19.0546 28.2496ZM18.012 28.5504C17.2675 27.8059 16.4038 27.2838 15.6792 26.4709C15.3934 26.149 15.0989 25.8345 14.8118 25.5138C14.2575 24.8936 15.0293 24.466 15.3735 24.0757C16.0881 23.2653 16.6411 22.2933 17.5844 21.7426C17.5944 21.8272 17.6453 21.8644 17.7746 21.7824C18.253 22.4399 18.1984 22.9371 17.6105 23.2777C17.1283 23.7438 16.7095 24.0633 16.1689 24.4287C15.9763 24.5592 15.7849 24.8215 15.7227 25.0489C15.6096 25.4641 15.7078 25.6244 16.0011 25.9414C16.6871 26.681 17.3408 27.4379 18.0182 28.1837C18.3251 28.4211 18.5066 28.7356 18.5625 29.1284C18.5638 29.0936 18.0729 28.6113 18.012 28.5504Z" fill="#1B708A"/>
<path d="M34.217 7.29533H34.1201C34.007 6.93238 33.7634 6.60672 33.2564 6.07224C32.1378 4.89017 31.0429 3.69319 29.8934 2.54095C29.2073 1.85358 28.3473 0.549698 27.4277 0.242683C27.368 0.222796 27.3046 0.250141 27.2425 0.29986C27.1045 0.243926 26.8895 0.23274 26.5378 0.23274C23.9901 0.23274 21.4449 -0.0220708 18.8959 0.00154577C16.0437 0.0276483 12.8074 0.532297 10.0049 0.0649377C9.9341 0.0537509 9.85333 0.118386 9.78125 0.209123C9.58116 0.0723955 9.18346 0.716257 9.33259 0.884059C9.73774 1.34023 9.48423 2.75971 9.48423 3.3377C9.48423 4.2314 9.45316 5.12385 9.48174 6.01755C9.47553 6.03371 9.47056 6.04987 9.46558 6.06603C6.50774 6.20151 3.40945 6.31338 0.51623 5.74286C0.503802 5.73664 0.495095 5.72545 0.477696 5.72545H0.421773C0.208012 5.72545 -0.1437 6.42774 0.0626037 6.46875C0.0750317 6.47124 0.0874581 6.47248 0.099886 6.47497C0.0476887 6.56571 0.0116576 6.65271 0.0129004 6.71238C0.015386 8.65266 0.0203503 10.6091 0.180671 12.5419C0.244053 13.3026 0.180671 14.0969 0.180671 14.8613C0.180671 15.1969 -0.111381 16.1988 0.0849807 16.5729C0.372066 17.1173 3.0565 16.727 3.5648 16.7022C5.11705 16.6251 6.60965 16.3256 8.17432 16.4573C8.52727 16.4871 8.87898 16.5033 9.23194 16.5282C9.14867 16.7258 9.1263 16.9234 9.24561 16.906C9.24561 16.906 9.20955 26.3004 9.14742 27.5472C9.09646 28.5676 8.27126 34.3649 9.86204 34.2828C13.7445 34.084 17.5711 33.8901 21.4635 33.8901C25.3286 33.8901 29.5653 33.3456 33.3769 34.0989C33.4589 34.3065 33.8616 33.7956 33.8666 33.5942C33.8666 33.5756 33.8666 33.5557 33.8666 33.5371C33.874 33.4936 33.874 33.4563 33.8666 33.4277C33.8815 31.7074 33.6056 30.0928 33.9623 28.3576C34.1897 27.2488 34.1648 25.9872 34.1686 24.8598C34.1748 23.0625 33.838 21.3099 33.7796 19.5063C33.7174 17.5387 33.9212 15.709 34.0903 13.7514C34.2357 12.0696 34.1648 10.4065 34.2021 8.72103C34.2108 8.32576 34.217 8.03118 34.1996 7.77885C34.3189 7.56133 34.3724 7.29533 34.217 7.29533ZM29.0396 2.87531C30.0736 3.89331 31.0181 5.02566 32.0658 6.02128C32.579 6.50853 32.9283 6.90007 33.1681 7.29036C31.1411 7.2655 27.542 7.10019 27.3096 6.05236C26.974 4.54214 27.5333 2.83802 27.496 1.32904C27.4948 1.30046 27.4948 1.28057 27.4948 1.25447C28.0615 1.69821 28.6456 2.48874 29.0396 2.87531ZM9.1089 15.76C7.73561 15.6879 6.35611 15.6059 4.98904 15.8159C4.34154 15.9154 0.508767 16.5406 0.630561 15.3212C0.920132 12.4288 0.55849 9.4519 0.524934 6.54085C2.44132 6.86775 4.34404 6.87148 6.29149 6.87148C9.51405 6.87148 12.7565 6.93238 15.9704 6.84289C16.7471 6.82176 24.9818 6.48864 25.0079 7.04798C25.0626 8.20892 24.8402 9.45936 24.8402 10.6352C24.8402 12.2038 24.952 13.683 24.8402 15.269C24.8302 15.4368 24.8215 15.6059 24.8116 15.7737C24.8687 16.3666 24.8066 16.4387 24.6239 15.9924C24.0497 15.8458 23.6148 15.8147 23.063 15.8147C21.6052 15.8147 20.1474 15.7836 18.6908 15.8706C15.4757 16.0645 12.319 15.9278 9.1089 15.76ZM24.5779 33.0809C20.5985 33.0436 16.5855 33.0448 12.6235 33.4152C11.8107 33.4911 10.9892 33.4911 10.174 33.5296C9.35621 33.5681 9.54387 32.2568 9.54387 31.8317C9.54387 29.7932 9.55879 27.7174 9.76758 25.6914C9.9105 24.303 9.82475 22.8475 9.82475 21.4541C9.82475 19.9202 10.0385 18.1117 9.80486 16.5667C12.8211 16.7569 15.8225 16.7792 18.8536 16.5978C20.4631 16.5021 22.1085 16.5219 23.7092 16.6823C24.4238 16.7544 24.8141 17.0204 25.1819 16.3566C25.6393 15.5301 25.4578 13.8868 25.5187 12.9683C25.602 11.7129 25.351 10.4537 25.351 9.19336C25.351 8.36926 25.8431 6.94233 25.4466 6.10953C25.2142 5.6198 22.4055 6.02998 21.8898 6.06354C17.9862 6.32332 14.0565 5.85721 10.1615 6.0362C10.0783 6.03993 9.99377 6.04365 9.91051 6.04738C9.9627 5.92557 9.99748 5.79879 9.99376 5.718C9.9428 4.6105 9.99376 3.49804 9.99376 2.38806C9.99376 2.00522 10.092 1.37628 10.036 0.860443C11.7561 1.07423 13.6426 0.793322 15.3577 0.762247C17.5785 0.721229 19.8106 0.738631 22.0277 0.818182C23.5924 0.874115 25.1695 0.985983 26.7354 0.985983C26.718 0.985983 26.9169 6.81679 26.9169 7.442C26.9181 7.48178 26.9355 7.51285 26.9666 7.53523C28.9451 7.93049 31.417 8.0349 33.4987 8.04733C33.6342 8.52339 33.6764 9.06906 33.6851 9.82479C33.7062 11.7651 33.6976 13.683 33.4192 15.6084C33.2377 16.8625 33.1395 17.9998 33.2501 19.2702C33.3334 20.2198 33.239 21.1943 33.2638 22.1501C33.2862 23.0041 33.6354 23.8443 33.6652 24.7169C33.7174 26.2321 33.5397 27.6864 33.3694 29.1804C33.2054 30.6235 33.3346 31.9088 33.3558 33.2972C30.4936 32.8149 27.4625 33.1082 24.5779 33.0809Z" fill="#1B708A"/>
</svg>
