<svg width="36" height="36" viewBox="0 0 36 36" fill="none" xmlns="http://www.w3.org/2000/svg">
<path d="M34.0433 10.9824C33.4878 10.0166 32.3594 9.42123 31.2856 9.29694C30.2379 9.17637 28.4284 8.41691 27.4541 8.86438C27.2366 8.96382 27.1023 9.27332 27.1023 9.4983C27.1023 10.6779 27.2117 11.8861 27.2813 13.0656C27.3497 14.2253 27.4926 16.3036 26.2436 17.0021C25.2904 17.5354 24.4415 17.8374 23.3441 17.8374C21.8789 17.8374 20.4186 17.9568 18.9546 17.9829C18.1493 17.9978 17.3216 18.0997 16.5138 18.1345C16.0216 18.1556 15.6562 18.0935 15.3232 18.086C15.302 18.0661 15.2734 18.0574 15.2237 18.0786C15.2175 18.0811 15.2076 18.0811 15.2014 18.0835C15.0821 18.0873 14.9652 18.1059 14.8497 18.137C14.626 18.1382 14.3911 18.1047 14.191 18.0773C14.1798 18.0574 14.1736 18.0301 14.1512 18.0301C14.14 18.0251 14.1326 18.0164 14.1177 18.0164C10.9883 18.2538 9.94062 20.5086 9.40871 23.3413C8.99859 25.5277 9.18873 28.0249 9.31798 30.2262C9.45593 32.5667 9.91825 33.5263 12.1888 34.3379C15.5991 35.5573 20.2483 35.6605 23.6362 34.3827C26.5518 33.2827 26.2423 30.4474 26.1839 27.816C26.4188 27.821 26.7544 27.1051 26.4809 27.0653C24.6516 26.8043 22.7824 26.7881 20.9393 26.8875C20.0495 26.936 19.223 27.0951 18.3282 27.0205C17.7205 26.9696 17.6932 26.6837 17.7242 26.2462C21.5794 26.0622 25.4072 26.1977 29.2586 26.2039C29.2598 26.2039 29.2611 26.2064 29.2623 26.2064C29.2735 26.2064 29.2834 26.2051 29.2946 26.2051C29.3742 26.2051 29.4525 26.2064 29.5308 26.2064C29.5469 26.2064 29.5631 26.1952 29.5792 26.1902C31.6199 26.107 33.4456 25.2307 34.4087 23.2717C35.2911 21.4756 35.188 19.0754 35.2687 17.1177C35.352 15.1029 35.0612 12.7524 34.0433 10.9824ZM34.538 20.5633C34.3528 23.5303 32.6427 25.442 29.5917 25.4519C25.6806 25.4457 21.7944 25.3027 17.8783 25.4979C17.8224 25.5004 17.764 25.5439 17.7081 25.6035C17.7056 25.6011 17.7043 25.5998 17.7019 25.5973C17.513 25.4084 17.2445 26.1306 17.2445 26.2387C17.2445 26.7521 17.155 27.2791 17.3054 27.775C17.3228 27.8073 17.3502 27.8223 17.3874 27.821C18.5992 27.6184 20.001 27.6768 21.2413 27.6097C22.7041 27.5314 24.2054 27.5849 25.6657 27.7614C25.6657 28.8813 25.6209 30.0012 25.6209 31.1211C25.6209 33.6767 23.1639 33.8718 21.1693 34.2335C18.8291 34.6586 16.0191 34.5418 13.6914 33.9849C12.4299 33.6829 11.0144 33.2043 10.2339 32.1254C9.4957 31.1062 9.77658 28.6053 9.77658 27.4444C9.77658 24.2388 9.43605 19.1885 13.705 18.7821C13.71 18.7858 13.7162 18.7883 13.7212 18.7908C13.7349 18.8281 13.761 18.8567 13.8032 18.8567C13.8952 18.8554 13.9859 18.8517 14.0779 18.8505C14.3501 18.8828 14.6359 18.8977 14.8869 18.8306C16.6604 18.7908 18.4326 18.7224 20.2098 18.7224C22.207 18.7224 24.2986 18.7846 26.046 17.7206C28.7142 16.0948 27.766 12.3012 27.6243 9.53807C28.2619 9.54429 29.3667 9.8165 29.7072 9.86498C30.8332 10.0241 31.8399 10.1509 32.7943 10.7835C34.2509 11.7468 34.5119 14.0923 34.671 15.6635C34.84 17.3191 34.6411 18.9213 34.538 20.5633Z" fill="#1B708A"/>
<path d="M22.4931 29.0827C22.4197 29.0814 22.3427 29.1473 22.2731 29.238C21.5299 29.3039 20.7904 29.5687 20.5904 30.4102C20.3443 31.4468 20.8936 32.3169 21.9711 32.5257C23.1033 32.7445 23.8316 32.1727 24.0963 31.095C24.3324 30.1342 23.4811 29.1013 22.4931 29.0827ZM23.3506 31.7389C23.0324 31.9378 22.4657 31.8234 22.1414 31.724C21.6567 31.5761 21.1633 31.2156 21.0378 30.7097C20.8352 29.8931 21.8891 29.9701 22.4061 29.9701C22.4496 29.9701 22.4956 29.9416 22.5391 29.9043C22.933 30.036 23.23 30.353 23.491 30.696C23.7321 31.0105 23.6973 31.5214 23.3506 31.7389Z" fill="#1B708A"/>
<path d="M25.9104 13.4995C25.9216 10.7674 26.0409 8.03536 26.0409 5.30454C26.0409 2.74898 24.997 1.6651 22.663 0.814907C19.0837 -0.487733 11.4368 -0.600843 9.23834 3.29713C9.19733 3.37047 9.1762 3.43262 9.16377 3.48979C9.10288 3.57556 9.05814 3.66008 9.04819 3.71601C8.8307 5.03978 8.56723 6.97386 9.06435 8.28395C9.08175 8.31627 9.10909 8.33119 9.14637 8.32994C10.6452 8.32994 12.1514 8.41571 13.649 8.48159C14.4357 8.51639 15.2286 8.5052 16.014 8.44306C16.3384 8.42192 16.6615 8.41447 16.9859 8.41944C17.5626 8.41944 17.5949 9.19008 16.9374 9.23483C15.1938 9.35167 13.3619 9.0111 11.6071 9.0111C10.4277 9.0111 9.24704 9.04466 8.06763 9.07076C7.2275 9.0894 5.81942 9.55179 5.02527 9.15404C3.64205 8.83459 1.99907 11.149 1.35034 12.029C0.162226 13.6424 -0.0801183 15.6697 0.0205479 17.6187C0.14607 20.0338 -0.0937891 22.2824 1.40378 24.3233C2.97342 26.4637 5.25022 26.3171 7.75693 26.2959C7.95329 26.2947 8.18694 25.836 8.15587 25.6359C8.18694 25.5713 8.21055 25.5104 8.21055 25.4656V25.4209C8.20931 23.5278 8.11983 21.3911 8.74247 19.5863C9.27314 18.05 10.542 17.8039 11.8793 17.6038C12.4112 17.5242 13.0612 17.6833 13.5471 17.4534C13.5608 17.4882 13.5831 17.5143 13.6266 17.5143C16.5758 17.5143 19.6343 17.8226 22.5275 17.1725C24.4389 16.7424 25.3201 15.4795 25.9899 13.8065C26.0981 13.5368 26.0247 13.4622 25.9104 13.4995ZM13.9361 16.7611C13.9125 16.7611 13.8889 16.7735 13.8653 16.7847C13.8566 16.725 13.8218 16.6964 13.7447 16.7325C12.922 17.124 11.5375 16.9003 10.6091 17.1799C9.89454 17.395 8.8829 18.1072 8.60576 18.8542C7.79919 21.0406 7.71343 23.2494 7.70598 25.5452C6.20593 25.5588 4.44116 25.5551 3.07533 25.002C1.75549 24.4675 0.824635 21.9492 0.668043 20.7324C0.470439 19.2047 0.403328 17.3937 0.549978 15.8624C0.700355 14.29 0.830849 13.2546 1.80644 12.0638C2.31226 11.4461 3.56996 9.64501 4.61888 9.88739C4.64871 9.90355 4.67853 9.91847 4.70836 9.93338C4.72328 9.94084 4.74192 9.93587 4.75932 9.93587C5.74609 10.3112 7.43629 9.83022 8.42928 9.80784C10.2624 9.76558 12.1104 9.70219 13.9398 9.85259C16.5845 10.0701 17.8869 10.5387 17.8869 7.81287C17.8857 7.77309 17.8683 7.74202 17.8372 7.71964C17.1798 7.5593 16.4403 7.67987 15.7742 7.73207C14.5674 7.82654 13.3495 7.64009 12.144 7.62145C11.8209 7.61648 9.54531 7.88496 9.46453 7.32065C9.28681 6.07021 9.34025 4.7365 9.53164 3.48731C9.53661 3.47985 9.54158 3.47612 9.54531 3.46866C10.6999 1.42148 14.2319 1.04361 16.3272 0.885756C18.6873 0.70801 21.332 1.12689 23.523 2.00319C25.8097 2.91802 25.3835 5.28589 25.5786 7.2411C25.8048 9.50207 25.4319 11.911 25.4046 14.1918C23.518 17.9133 17.4818 16.7611 13.9361 16.7611Z" fill="#1B708A"/>
<path d="M14.2864 3.49964C14.0515 3.06833 13.6638 2.83714 13.2213 2.74391C13.2089 2.69544 13.1841 2.6569 13.1294 2.6482C10.9793 2.29023 10.4089 6.30256 12.728 6.4455C13.6874 6.50392 14.5723 5.82028 14.7164 4.87562C14.7873 4.41696 14.4952 3.88248 14.2864 3.49964ZM13.2201 5.69474C12.5527 5.74943 12.0668 5.42128 11.8095 4.81968C11.6542 4.45549 11.735 3.92101 11.9052 3.59038C12.0059 3.39399 12.2097 3.35421 12.4173 3.35794C12.4284 3.40766 12.4533 3.44371 12.5055 3.4462C13.2412 3.47105 13.6178 3.81784 13.9633 4.43685C14.0851 4.65561 14.1609 4.94274 14.2044 5.18636C14.2665 5.52445 13.3866 5.67982 13.2201 5.69474Z" fill="#1B708A"/>
</svg>
