<svg width="35" height="34" viewBox="0 0 35 34" fill="none" xmlns="http://www.w3.org/2000/svg">
<path d="M22.8171 12.948C23.789 12.6199 24.6105 12.022 25.1685 11.0152C25.7365 9.99099 25.9179 8.48699 25.519 7.38198C24.7136 5.15084 22.2417 4.8401 20.2495 4.61885C18.0125 4.37025 15.7668 4.70834 13.526 4.70834C11.6022 4.70834 10.1469 5.30373 9.26697 7.07497C7.95831 9.71132 9.61993 12.0021 11.9365 12.9605C11.0951 13.2053 10.3681 13.6205 9.89707 14.319C8.3995 16.5377 9.51305 19.4861 11.7327 20.739C11.8793 20.8223 12.0347 20.8882 12.1913 20.9491C11.4456 21.1032 10.7956 21.455 10.2475 22.1299C8.98734 23.6836 8.28268 26.7637 10.1643 28.2255C12.3193 29.8985 15.0373 29.8264 16.9027 27.7705C17.4097 27.2112 17.4234 26.3026 17.4781 25.5978C17.5887 24.1796 17.5377 22.7191 17.5266 21.2872C17.6086 21.1094 17.6484 20.923 17.5912 20.872C17.6459 20.7813 17.6869 20.6769 17.7018 20.5439C17.7528 20.0765 17.7925 19.6216 17.8348 19.1629C18.3978 20.1598 19.4019 20.9105 20.7007 21.2586C22.9203 21.8527 25.3065 20.2878 25.7563 18.0989C26.2435 15.7422 24.7807 13.889 22.8171 12.948ZM11.4679 11.8903C9.52671 10.8114 8.23918 7.80584 10.6017 6.03211C11.7103 5.20056 13.5099 5.41684 14.8285 5.41684C15.645 5.41684 16.4627 5.39322 17.2805 5.3696C17.2494 5.45537 17.2358 5.53616 17.2569 5.59458C17.575 6.48704 17.2407 7.81827 17.2407 8.7592C17.2407 10.0556 17.2681 11.3533 17.278 12.6497C17.0419 12.6447 16.807 12.641 16.5733 12.641C16.4143 12.641 16.2216 12.6547 16.0129 12.6696C15.5182 12.6485 14.9962 12.6323 14.4681 12.6398C14.4308 12.6298 14.3985 12.6149 14.3637 12.6025C14.3487 12.5727 14.3264 12.5503 14.2866 12.5503H14.1971C14.1474 12.5503 14.0865 12.5901 14.0256 12.6497C13.1308 12.5764 12.2596 12.3303 11.4679 11.8903ZM16.9288 26.5325C16.6914 29.2037 13.0289 28.8295 11.4245 28.1186C10.25 27.5978 9.70941 26.3001 9.59259 25.1193C9.4012 23.1926 10.721 21.767 12.5455 21.6004C13.4229 21.5208 14.3537 21.496 15.2349 21.5333C15.7084 21.5532 16.4901 21.7396 17.0207 21.6625C17.0232 23.2685 17.0705 24.9378 16.9288 26.5325ZM17.4756 18.2792C17.411 19.0436 17.2706 19.8006 17.2221 20.5575C16.3546 20.867 14.222 20.5376 13.5708 20.4258C11.6382 20.0939 10.6365 18.9616 9.89333 17.2102C8.58591 14.1326 11.7538 13.5297 14.473 13.4514C14.7787 13.4788 15.1106 13.4651 15.4312 13.4427C16.1384 13.449 16.766 13.4763 17.2047 13.485C17.237 13.4862 17.2705 13.4676 17.3041 13.444C17.314 13.4552 17.3277 13.4564 17.3426 13.4552C17.3302 13.536 17.3339 13.6093 17.3799 13.6553C17.4657 13.7411 17.452 14.9828 17.4644 15.1307C17.4893 15.4253 17.493 15.7199 17.4992 16.0132C17.2842 16.8224 17.2879 17.5881 17.4756 18.2792ZM17.7913 12.6597C17.7876 11.1768 17.7478 9.69392 17.7478 8.21229C17.7478 7.3621 17.9789 6.25087 17.8348 5.35966C18.4015 5.34474 18.9682 5.32734 19.5349 5.32734C20.8697 5.32734 22.2057 5.57967 23.3752 6.19743C25.2791 7.20424 25.8533 9.812 24.3657 11.4602C23.2993 12.641 21.2537 12.5503 19.8009 12.6423C19.1385 12.6845 18.4636 12.6746 17.7913 12.6597ZM17.9951 13.3756C18.5531 13.3657 19.1124 13.347 19.6692 13.3259C19.044 13.6777 18.4873 14.1637 18.0858 14.7528C18.097 14.2556 18.0821 13.7473 17.9951 13.3756ZM24.1146 19.9211C23.2546 20.3798 22.4741 20.5899 21.5047 20.5774C19.7213 20.5538 18.4288 19.2101 17.9516 17.6229C17.9814 17.1356 18.0175 16.6509 18.0262 16.1512C18.0287 16.007 18.0411 15.7982 18.0535 15.567C18.7246 14.1525 20.549 13.2376 22.0466 13.5161C23.2496 14.0008 24.0028 14.5378 24.7783 15.6515C25.5973 16.8261 25.5289 19.1666 24.1146 19.9211Z" fill="#1B708A"/>
<path d="M34.1415 25.7146C34.1415 25.701 34.1415 25.6885 34.1415 25.6749C34.1415 25.6537 34.134 25.6475 34.129 25.6351C33.7202 23.2163 34.1017 20.3934 34.1216 17.9672C34.1477 14.636 34.2247 11.3247 34.5006 8.00968C34.5118 7.87419 34.4683 7.84436 34.4062 7.86549C34.5715 6.02091 34.4584 3.56479 32.9186 2.40882C31.8436 1.60337 30.8841 0.867531 29.6413 0.308192C28.6371 -0.144252 26.855 0.231127 25.7874 0.273388C22.8383 0.391471 19.8891 0.529442 16.945 0.529442C13.9672 0.529442 11.0007 0.167735 8.02915 0.365369C6.11028 -0.305839 3.71046 1.6332 2.43038 2.81528C0.909202 4.21984 0.910436 6.79404 0.910436 8.66099C0.910436 11.7386 0.773734 14.7926 0.555003 17.8578C0.317629 21.1827 0.587317 24.586 0.587317 27.9172C0.587317 27.9358 0.594777 27.942 0.598505 27.9532C0.627089 29.8836 1.97178 31.6312 3.39851 32.7648C5.5038 34.4378 8.84691 33.8263 11.2766 33.6709C17.3364 33.2831 23.4274 33.8089 29.4872 33.6361C29.5307 33.6349 29.5767 33.6063 29.6202 33.5678C31.1699 33.032 32.2586 32.3571 33.1696 30.9053C34.1738 29.3043 34.1539 27.8526 34.1452 26.1124C34.1713 26.0453 34.1875 25.9819 34.1775 25.9359C34.1614 25.865 34.1539 25.788 34.1415 25.7146ZM32.6439 31.0259C31.8858 32.0899 30.8866 32.4913 29.7122 32.8854C24.6962 33.0258 19.6356 32.8493 14.6135 32.8493C11.6792 32.8493 8.35352 33.6038 5.5038 32.7897C3.21209 32.1346 1.09687 29.8363 1.09687 27.3454C1.09687 27.3342 1.09189 27.333 1.09065 27.3255C1.0894 24.8607 1.02602 22.4058 1.02602 19.941C1.02602 17.8168 1.35039 15.7286 1.35039 13.6143C1.35039 11.1395 1.34417 8.66721 1.43863 6.19617C1.53308 3.72389 4.93584 0.14039 7.63518 1.10494C7.64015 1.10743 7.64638 1.1037 7.65259 1.10494C7.66502 1.1124 7.67496 1.12234 7.69484 1.1211C10.2736 0.945839 12.804 1.33116 15.3803 1.29387C17.8696 1.25783 20.3229 1.21805 22.8084 1.08008C25.5339 0.928437 28.2829 0.612721 30.7636 1.81219C33.4679 3.1198 34.1875 6.06317 33.842 8.82631C33.8233 8.9792 33.8768 8.99908 33.9538 8.95682C33.7264 11.9039 33.6419 14.8336 33.6183 17.7981C33.6071 19.2474 33.5586 20.6955 33.5586 22.1473C33.5586 23.4213 33.4331 24.9328 33.6344 26.2168C33.6344 26.218 33.6332 26.2205 33.6332 26.2218C33.6344 28.0191 33.7798 29.4324 32.6439 31.0259Z" fill="#1B708A"/>
</svg>
