<svg width="34" height="33" viewBox="0 0 34 33" fill="none" xmlns="http://www.w3.org/2000/svg">
<path d="M31.1466 29.3677C31.026 29.3701 30.903 29.3739 30.7824 29.3764C30.7837 20.7737 31.0198 12.2071 31.0285 3.60821C31.0993 3.45159 31.1279 3.29622 31.0869 3.18311C31.1354 2.99542 31.1192 2.84129 30.9825 2.8388C21.7299 2.71078 12.4649 3.09734 3.21479 2.8388C2.98239 2.83259 2.7127 3.24028 2.67044 3.55351C2.55611 3.73126 2.47408 3.93014 2.49894 4.04698C3.32912 8.11772 2.39827 12.8149 2.39703 16.9354C2.39703 19.3306 2.41691 21.7258 2.41691 24.121C2.41691 26.1011 2.18203 28.3894 2.66547 30.326C2.69157 30.4304 2.74874 30.4577 2.81834 30.4403C2.82828 30.4851 2.8494 30.5224 2.89911 30.5348C4.68749 30.9823 6.39137 30.6889 8.18596 30.4652C10.6765 30.1545 13.4479 30.4167 15.946 30.5796C20.8699 30.899 25.8361 30.4714 30.7315 30.3832C31.0683 30.377 31.492 29.3614 31.1466 29.3677ZM30.3474 3.88166C30.3474 12.4023 30.1175 20.8756 30.1038 29.3913C26.1021 29.4758 22.0754 29.615 18.0512 29.615C15.5644 29.615 13.0826 29.4497 10.5908 29.4497C8.25804 29.4497 5.84826 30.1085 3.53543 29.5628C3.51803 29.4634 3.45588 29.4236 3.33161 29.5081C2.95007 27.9047 3.09672 26.0402 3.09672 24.4082C3.09672 21.3679 3.04949 18.3238 3.08926 15.2835C3.13649 11.6366 3.85482 7.49375 3.26325 3.86053C12.2872 4.09172 21.3248 3.73623 30.3512 3.85431C30.3512 3.86177 30.3474 3.87669 30.3474 3.88166Z" fill="#1B708A"/>
<path d="M32.9375 25.4747C32.9375 22.6494 33.186 19.7992 32.9686 16.9777C32.7734 14.4383 32.9822 11.9212 32.812 9.38308C32.6877 7.52483 32.9971 5.74862 33.0195 3.90777C33.0245 3.55104 33.3402 1.13096 32.9723 1.68284C33.0916 1.50386 33.1351 1.27018 33.1152 1.11356C33.1314 0.996721 33.1115 0.901012 33.0357 0.863723C31.8215 0.25715 29.9001 0.820218 28.5778 0.768013C25.7057 0.654903 22.7578 0.851293 19.8745 0.851293C16.8669 0.851293 13.8432 0.944516 10.8394 0.768013C8.21337 0.613884 4.24762 1.94636 1.78689 0.863723C1.59799 0.780443 1.34818 1.08497 1.22763 1.3808C1.05364 1.55233 0.865982 1.81833 0.841126 1.95879C0.485688 3.89286 0.751646 6.20977 0.839884 8.19356C0.991505 11.6192 0.764077 15.0088 0.643526 18.4245C0.568959 20.54 1.11205 22.6295 0.757857 24.7562C0.356435 27.1664 0.508061 29.7182 0.508061 32.1519C0.508061 32.2302 0.562737 32.2911 0.641033 32.2911H0.69945C0.718092 32.3384 0.747917 32.3744 0.806328 32.3744C5.95895 32.3744 11.119 32.8741 16.3002 32.7946C18.9834 32.7535 21.6629 32.8716 24.3473 32.8716C26.9858 32.8716 29.6801 32.3259 32.3049 32.7063C32.367 32.715 32.4354 32.6752 32.5037 32.618C32.5037 32.6292 32.505 32.6404 32.505 32.6504C32.505 33.0543 33.1885 32.2191 33.1885 31.912C33.186 29.7691 32.9375 27.6424 32.9375 25.4747ZM25.8424 31.8437C23.148 32.0251 20.4151 31.7716 17.7195 31.7716C12.2276 31.7716 6.71705 31.3589 1.25001 31.3577C1.23137 31.3104 1.20153 31.2744 1.14188 31.2744C1.66261 31.2744 1.31215 18.2468 1.35689 17.0063C1.44264 14.5663 1.60295 12.1388 1.60668 9.69383C1.60917 7.27375 1.1307 4.39005 1.45631 1.92274C3.07318 2.50072 5.57617 1.9998 7.18931 1.86556C10.2453 1.61075 13.3635 1.86556 16.4307 1.86556C19.3041 1.86556 22.1774 1.88794 25.0507 1.90037C26.6005 1.90782 28.1838 1.84319 29.7336 1.78228C30.4954 1.75245 31.6015 1.51629 32.3621 1.81833C32.326 1.92895 32.3111 2.04206 32.3583 2.13529C32.8654 3.1508 32.2639 5.95371 32.1011 7.07612C31.8811 8.59255 32.1993 10.2221 32.1719 11.7398C32.1346 13.8131 31.9656 15.6539 32.285 17.716C32.6815 20.2728 32.254 23.021 32.254 25.6014C32.254 27.6399 32.4292 29.656 32.4814 31.6697C30.3015 31.3987 28.0247 31.697 25.8424 31.8437Z" fill="#1B708A"/>
<path d="M12.4761 11.8044C12.6153 10.7479 12.8353 8.94926 12.4426 7.87409C12.4189 7.83059 12.3817 7.80945 12.332 7.81318C11.6484 7.74731 10.9512 7.89646 10.2602 7.89646C10.1123 7.89646 9.94952 8.09285 9.84015 8.31162C9.66367 8.41727 9.43998 8.69321 9.40145 8.88587C9.01618 10.774 9.37784 12.9865 9.37784 14.9081C9.37784 17.7259 9.65 20.5239 9.4611 23.3454C9.45488 23.4312 9.45986 23.6002 9.59284 23.5853C10.4566 23.4834 11.6944 23.7668 12.2499 22.9887C12.9148 22.0602 12.4637 20.1982 12.4637 19.1442C12.4637 16.7241 12.1592 14.2108 12.4761 11.8044ZM11.8236 10.2892C11.7466 11.4514 11.6981 12.6235 11.6981 13.7882C11.6981 16.6483 11.7814 19.5059 11.7814 22.3684C11.7814 22.3523 10.1372 22.9029 10.2254 21.5655C10.3211 20.1298 10.2068 18.6544 10.1558 17.2175C10.0663 14.6396 9.55307 11.4874 9.98805 8.907C11.3203 8.87841 11.9417 8.51795 11.8236 10.2892Z" fill="#1B708A"/>
<path d="M23.5218 7.72985C22.6158 7.7659 21.6849 7.72861 20.7864 7.81313C20.4894 7.84048 20.257 8.33518 20.2358 8.58875C20.1488 9.63409 20.252 10.6819 20.1861 11.7285C18.1467 11.8255 15.8886 12.57 15.2858 14.8534C14.7216 16.99 14.3562 23.1962 17.8807 23.3354C19.0291 23.3802 23.1564 23.9432 23.1564 21.7954C23.1564 19.7842 23.4 17.8141 23.2807 15.7856C23.1465 13.5047 23.175 10.6123 23.6299 8.33643C23.6585 8.19224 23.6473 8.11518 23.62 8.06794C23.6684 7.87901 23.6548 7.72488 23.5218 7.72985ZM22.5574 21.19C22.2653 23.4771 17.5265 22.2627 16.6392 21.0036C15.5654 19.481 15.507 17.7271 15.6139 15.9285C15.7953 12.8783 18.2374 12.7254 20.2445 12.7254C20.5503 12.7254 20.7553 12.181 20.7951 11.9498C20.9703 10.9007 20.8796 9.85534 20.892 8.80627C21.5855 8.77271 22.2865 8.77147 22.9787 8.74785C22.1908 12.8397 23.0806 17.0882 22.5574 21.19Z" fill="#1B708A"/>
<path d="M20.9421 14.6086C21.0851 14.3662 21.1621 14.0716 21.0167 13.961C20.9844 13.9361 20.9533 13.9274 20.921 13.9051C20.921 13.8827 20.9185 13.8603 20.9185 13.8379C20.9185 13.7596 20.8638 13.6987 20.7855 13.6987H20.7023C20.6737 13.6987 20.6451 13.7149 20.6165 13.7273C17.8501 12.3513 15.9126 18.8956 17.7904 20.5165C18.5634 21.1839 21.003 21.5593 21.1012 20.0131C21.2143 18.2194 20.9993 16.4072 20.9421 14.6086ZM20.3245 20.0043C18.6579 20.0242 17.9085 19.4574 17.8526 17.7471C17.8289 17.0349 17.9408 16.3587 18.1247 15.6738C18.3969 14.6595 19.4893 14.4296 20.2462 14.8199C20.1902 15.2661 20.317 17.0063 20.317 17.1704C20.317 17.6365 20.3692 18.0902 20.4003 18.555V19.9646C20.4475 20.2467 20.4227 20.2604 20.3245 20.0043Z" fill="#1B708A"/>
</svg>
