<svg width="46" height="47" viewBox="0 0 46 47" fill="none" xmlns="http://www.w3.org/2000/svg">
<path d="M28.6068 28.9411C27.6126 26.6416 26.7426 24.3359 25.7894 22.019C25.2699 20.7536 24.7305 19.4261 24.0694 18.2254C23.525 17.2372 23.6319 16.0154 22.8924 15.0956C22.793 14.9713 22.6053 15.1465 22.4885 15.3529C22.3841 15.4511 22.2822 15.5928 22.2586 15.6997C21.8845 17.3615 20.9176 18.7723 20.4479 20.3782C20.2813 20.9463 19.3194 22.1582 19.5207 22.761C19.8637 23.7902 22.0796 24.8219 22.9745 25.3725C24.7604 26.4713 27.1217 27.6658 28.132 29.6024C28.2501 29.8298 28.7025 29.1623 28.6068 28.9411ZM20.6852 22.7871C19.7544 22.1644 20.8207 20.2104 21.2582 19.3478C21.81 18.2614 22.271 17.1726 22.5879 16.0042C23.1323 16.8531 23.2392 17.9532 23.5946 18.8867C24.0892 20.1818 24.8212 21.3863 25.3146 22.6802C25.8664 24.127 26.4406 25.5502 27.026 26.9697C25.1866 25.2805 22.5395 24.0276 20.6852 22.7871Z" fill="#1B708A"/>
<path d="M32.55 29.6645C31.8316 27.5092 30.615 25.4893 29.7326 23.3862C29.0714 21.8089 27.7752 20.316 27.3178 18.7176C26.8319 17.0172 26.0862 15.2323 25.3057 13.6462C24.7689 12.5549 24.406 11.2622 23.3409 10.5512C21.5873 9.38158 19.8027 14.7935 19.4733 15.5219C17.9583 18.8841 16.3899 22.2277 15.0465 25.6646C14.3505 27.447 13.7018 29.2493 12.9747 31.0193C12.413 32.3866 11.4499 33.5165 10.8608 34.8415C10.8322 34.9073 10.7477 35.1485 10.8595 35.1932C11.7096 35.5326 12.9797 35.284 13.8857 35.284C14.5369 35.284 14.6103 35.2802 14.9098 34.701C15.4616 33.6333 15.6691 32.2523 16.0855 31.1188C16.4011 30.2586 16.9231 29.5153 17.2922 28.6838C17.6663 27.8435 17.972 26.6403 18.545 25.897C19.1229 26.7223 20.4986 27.5725 21.2219 28.1132C22.5853 29.1325 23.7063 30.4388 25.1056 31.4109C26.3298 32.2611 27.5154 33.1958 28.6874 34.1081C29.356 34.6289 31.3482 35.637 32.2281 35.2206C34.2141 34.2772 33.0297 31.1051 32.55 29.6645ZM29.9414 33.8148C28.6538 33.3859 27.4955 32.2076 26.4802 31.3189C25.4052 30.3779 24.1524 29.6607 23.1023 28.6626C22.461 28.0536 21.7961 27.5017 21.0877 26.9722C20.5061 26.5371 19.1987 25.6584 18.8681 24.9959C18.7761 24.8119 18.4157 25.2544 18.3821 25.5316C17.8117 26.3122 17.5271 27.2643 17.1393 28.1505C16.4061 29.8261 15.6728 31.4568 14.9781 33.1498C14.9135 33.3064 14.6948 34.5369 14.5108 34.5593C13.8323 34.6414 13.0406 34.5295 12.3484 34.5295C11.5244 34.5295 11.5033 34.4872 11.9209 33.8757C12.3981 33.1771 12.72 32.3418 13.1525 31.611C13.7478 30.6029 14.2238 29.125 14.5605 28.0088C15.1496 26.0611 16.0942 24.2177 16.8535 22.3334C18.3225 18.6853 19.8772 14.8283 21.9663 11.4859C22.9444 9.92103 24.6582 13.9483 24.8347 14.3075C25.7072 16.0787 26.4665 18.0451 27.0084 19.9419C27.1973 20.6032 27.9765 21.4235 28.317 22.0562C28.6662 22.7038 28.977 23.3688 29.2616 24.0475C30.1439 26.1506 31.3606 28.1717 32.079 30.3257C32.4008 31.2903 32.5624 32.6215 32.8072 33.6395C33.2037 35.3063 30.2235 33.9092 29.9414 33.8148Z" fill="#1B708A"/>
<path d="M44.6798 18.3421C44.4772 17.349 44.2286 16.5063 43.8496 15.6474C42.6503 12.3398 40.5835 8.89801 37.9898 6.52641C34.8766 3.67875 30.41 1.05732 26.0901 0.884542C21.8397 0.715497 17.8976 1.31958 13.9008 2.78381C10.2457 4.1225 6.98712 6.8297 4.40459 9.73702C4.39838 9.7047 4.39962 9.67363 4.39589 9.64007C4.29647 9.7768 4.21072 9.92223 4.11627 10.0627C4.03673 10.1547 3.95097 10.2442 3.87392 10.3361C3.82296 10.397 3.77699 10.5077 3.74717 10.6208C2.93811 11.916 2.28191 13.3069 1.60956 14.7151C-0.761686 19.6883 -0.18629 25.0256 1.24292 30.1504C1.80715 32.1752 2.81257 34.1976 3.66761 36.1217C4.45679 37.8979 6.11468 39.3087 7.47181 40.6548C7.47181 40.7244 7.49915 40.7617 7.56253 40.7431L7.56501 40.7456C7.58987 40.7704 7.6284 40.763 7.66941 40.7431C8.10811 40.8835 9.70884 42.6983 9.97977 42.9195C11.1306 43.8555 12.6654 44.4907 14.0847 44.8511C16.8176 45.5447 19.5493 46.3315 22.4226 46.3899C28.5247 46.5142 33.8116 43.3098 38.2844 39.4578C40.2915 37.7301 41.9096 35.9713 43.1089 33.5984C44.2796 31.284 44.7605 28.465 45.1247 25.9355C45.5013 23.288 45.2104 20.9561 44.6798 18.3421ZM44.7767 25.2854C44.5468 28.0523 43.7899 31.4667 42.5409 33.9353C41.1129 36.7581 37.9239 39.7164 35.2271 41.3882C33.0733 42.7244 30.8338 43.9251 28.4663 44.8499C25.4923 46.0121 21.6384 45.8418 18.5923 45.1643C17.6503 44.9555 16.7754 44.4931 15.8557 44.2793C14.4029 43.9413 13.134 43.8331 11.8315 43.0724C10.8609 42.5056 10.0432 41.9537 9.25646 41.1408C8.96565 40.84 8.48965 39.909 7.93909 39.9836C6.69754 38.7394 5.6101 37.4952 4.5413 36.1055C3.50481 34.7581 3.16181 32.8601 2.36767 31.3561C1.30632 29.3475 0.871335 26.47 0.486069 24.2351C-0.00607673 21.3763 0.756995 18.0152 1.69903 15.3416C2.3428 13.5132 3.24631 11.9222 4.335 10.5089C4.32381 10.4816 4.33002 10.448 4.32381 10.4194C7.07908 7.29457 10.5005 4.67935 14.4277 3.24123C18.304 1.8205 22.2138 1.49857 26.3026 1.6614C28.5222 1.74965 30.8202 2.94415 32.7962 3.87141C34.5634 4.70048 36.6377 6.15849 37.909 7.65131C39.383 9.38153 40.7252 11.1142 41.8189 13.0073C41.8052 13.0098 41.7928 13.0148 41.7791 13.0172C41.9568 13.405 42.1258 13.7953 42.2973 14.1508C42.5782 14.7338 42.91 15.3006 43.2096 15.8811C43.3401 16.2117 43.4705 16.5436 43.5849 16.8879C43.5998 16.9314 43.6371 16.9314 43.6818 16.909C43.8061 17.2347 43.908 17.569 43.9714 17.9171C44.4287 20.4279 44.9917 22.7112 44.7767 25.2854Z" fill="#1B708A"/>
</svg>
