<svg width="23" height="23" viewBox="0 0 23 23" fill="none" xmlns="http://www.w3.org/2000/svg">
<path d="M15.1794 22.3772C14.7368 22.038 14.6126 21.5955 14.6287 21.0387C14.6594 19.9808 14.6345 18.92 14.5922 17.8621C14.563 17.1331 14.2986 16.4928 13.5806 16.0166C13.9546 15.9587 14.2482 15.9309 14.5337 15.8657C15.1158 15.7331 15.7067 15.621 16.2691 15.4283C17.6794 14.9469 18.5566 13.9484 18.9196 12.5037C19.192 11.4179 19.2987 10.316 19.1475 9.20026C19.0175 8.23906 18.6399 7.38629 17.9993 6.65733C17.8372 6.47271 17.808 6.29176 17.816 6.039C17.8401 5.3181 17.8511 4.58694 17.7569 3.87484C17.6758 3.26383 17.4428 3.12976 16.8519 3.3239C16.1676 3.54882 15.492 3.83161 14.8609 4.17814C14.4351 4.41185 14.0707 4.47778 13.5843 4.40086C11.9015 4.13492 10.2143 4.12466 8.54619 4.57156C8.41691 4.60599 8.2292 4.53346 8.10431 4.45361C7.31551 3.95323 6.51065 3.49461 5.57286 3.33563C5.02946 3.24478 4.97614 3.27262 4.81473 3.80011C4.55472 4.65068 4.56275 5.50785 4.7395 6.37454C4.76799 6.51301 4.73512 6.71887 4.64675 6.81778C3.57237 8.01488 3.42338 9.44862 3.60378 10.9505C3.67462 11.541 3.80098 12.1388 4.00402 12.6956C4.67231 14.5279 6.14766 15.3689 7.93779 15.7785C8.38258 15.8803 8.83614 15.9404 9.20644 16.0056C8.9698 16.4686 8.73462 16.947 8.4768 17.413C8.42348 17.5097 8.29494 17.591 8.18465 17.6261C7.30967 17.8994 6.05782 17.9998 5.29604 16.8342C5.08205 16.5067 4.80378 16.2151 4.52477 15.9382C4.191 15.607 3.77323 15.4612 3.30068 15.547C3.20208 15.5645 3.08668 15.6305 3.03628 15.7103C3.01145 15.7492 3.09544 15.9081 3.16702 15.9506C3.93975 16.4115 4.35533 17.1368 4.72563 17.9265C5.14705 18.8247 5.91905 19.2606 6.89774 19.3112C7.36591 19.3354 7.83626 19.3156 8.34095 19.3156C8.34606 19.3449 8.37016 19.4269 8.37089 19.509C8.37674 20.1346 8.4023 20.7618 8.36943 21.3852C8.35702 21.6204 8.24162 21.8695 8.11308 22.0746C7.96554 22.3113 7.74497 22.3567 7.45282 22.2402C4.44151 21.0409 2.27378 18.9639 0.970805 15.9895C0.496796 14.9074 0.209763 13.7726 0.115546 12.5908C0.106781 12.4802 0.0731806 12.371 0.0512695 12.2619C0.0512695 11.7513 0.0512695 11.2399 0.0512695 10.7292C0.0834057 10.4926 0.114815 10.256 0.146951 10.0193C0.783832 5.27854 4.20414 1.45499 8.83687 0.340669C9.53729 0.172166 10.2633 0.110626 10.9776 0C11.334 0 11.6904 0 12.0476 0C12.1593 0.021246 12.2696 0.0534814 12.3821 0.0615402C17.2251 0.40514 21.3685 3.8448 22.5875 8.55775C22.7584 9.21931 22.8468 9.90285 22.9731 10.5769C22.9731 11.1901 22.9731 11.8033 22.9731 12.4165C22.952 12.4875 22.9198 12.5579 22.9111 12.6311C22.3881 16.969 20.1298 20.0577 16.2318 21.9625C15.9141 22.1179 15.5818 22.2417 15.2561 22.3801C15.2298 22.3772 15.2042 22.3772 15.1794 22.3772Z" fill="#1B708A"/>
</svg>
