<svg width="41" height="26" viewBox="0 0 41 26" fill="none" xmlns="http://www.w3.org/2000/svg">
<path d="M40.1547 16.7877C39.8862 15.7548 37.7387 16.2507 36.9595 16.375C35.6583 16.5838 34.1731 16.4919 33.0906 17.3234C33.0757 17.3234 33.062 17.3222 33.0471 17.3222C33.0459 17.3222 33.0447 17.3209 33.0434 17.3209H32.9763C32.7252 17.3209 32.4071 18.0742 32.6656 18.0742C32.6681 18.0742 32.6718 18.0742 32.6743 18.0742C32.693 18.1388 32.7501 18.1475 32.8483 18.0767C33.6785 18.0791 34.5049 18.1003 35.3326 18.1749C36.1404 18.2482 38.0121 17.8927 37.8903 19.2997C37.7983 20.3588 37.341 21.4327 37.1098 22.4693C36.9992 22.9665 36.701 23.3904 36.6873 23.9075C36.6861 23.9634 36.6848 24.1051 36.7854 24.0852C37.8369 23.8789 38.754 22.2655 39.2561 21.4302C39.578 20.8945 40.008 19.7335 40.1484 19.0723C40.3125 18.2929 40.3585 17.5708 40.1547 16.7877ZM39.0424 20.8522C38.8386 21.3842 38.5825 21.685 38.2644 22.1089C38.1041 22.3227 37.2179 23.3407 37.2614 23.1753C37.5237 22.1897 37.8704 21.2226 38.0892 20.2208C38.1998 19.7124 38.6919 18.6385 38.3638 18.1139C37.9413 17.4378 37.1061 17.4539 36.3778 17.4539C35.6769 17.4539 34.976 17.4042 34.275 17.3644C35.6235 16.9978 37.418 16.9915 38.4732 16.9915C40.7263 16.9928 39.5134 19.6217 39.0424 20.8522Z" fill="#1B708A"/>
<path d="M34.8356 19.7696C30.9394 20.9479 27.0632 22.0989 22.9471 21.9472C18.7253 21.7919 14.4762 21.5942 10.3514 20.6297C8.40017 20.1735 6.51735 19.5955 4.72773 18.6819C3.46505 18.0368 2.53668 17.0164 1.10001 16.7814C0.902404 16.7491 0.616558 17.2824 0.708525 17.47C0.658813 17.5583 0.624023 17.6428 0.624023 17.7025C0.624023 18.7255 1.51757 19.4215 2.26573 19.9585C2.93808 20.4408 3.50606 21.0585 4.12746 21.6042C4.86692 22.253 5.95559 22.4022 6.86283 22.6843C10.0829 23.6874 13.2508 24.4344 16.5864 24.9291C20.1918 25.4636 24.288 25.0659 27.7815 24.0479C29.3648 23.5867 30.9991 23.0224 32.5203 22.381C33.645 21.9075 35.334 21.7235 36.2114 20.7776C37.4044 19.4874 35.8621 19.4588 34.8356 19.7696ZM35.6198 20.57C34.4603 21.2363 33.0025 21.5719 31.751 22.0442C30.1341 22.6545 28.434 23.2399 26.7463 23.5942C23.515 24.2704 20.1868 24.5911 16.8984 24.1734C13.8536 23.7869 10.6832 23.23 7.83592 22.0579C6.47382 21.4973 5.28076 21.5222 4.12124 20.5042C3.31094 19.7932 1.61453 18.7888 1.21807 17.6354C2.37387 17.9722 3.26494 18.8274 4.32255 19.4153C5.83876 20.258 7.51282 20.7503 9.18438 21.1716C12.4045 21.9833 15.6395 22.3661 18.9565 22.5327C22.276 22.6992 25.4277 22.8372 28.7061 22.1188C30.1329 21.8055 31.5894 21.4824 32.9838 21.0473C33.4499 20.9019 33.8986 20.7254 34.3621 20.575C34.3671 20.5713 36.2686 20.1971 35.6198 20.57Z" fill="#1B708A"/>
<path d="M12.2748 11.4728C11.2943 10.0657 11.6484 7.70529 11.6783 6.08321C11.7131 4.20631 11.4272 2.34061 9.66741 1.4121C7.44654 0.24122 5.16977 1.21447 3.00109 1.93664C2.78112 2.00998 2.6494 2.36547 2.6494 2.57056C2.62703 2.60909 2.60837 2.64514 2.59967 2.6787C2.50398 3.0143 2.34986 4.55808 2.94018 4.34553C4.7472 3.69297 9.59661 3.09261 9.10943 6.2883C8.25812 6.27711 7.19923 5.85202 6.34667 5.79733C5.58733 5.74885 4.47257 6.17395 3.85988 6.60775C2.56986 7.52009 1.77818 8.78171 1.52714 10.3305C1.19158 12.3975 3.14649 13.9724 4.97588 14.1551C6.03349 14.2608 7.30115 13.6467 8.20715 13.193C9.43751 12.5778 9.43876 13.2502 10.4143 13.8083C11.1016 14.2011 12.4724 13.2887 12.7533 12.6076C12.931 12.1837 12.4898 11.781 12.2748 11.4728ZM10.0291 12.3006C9.92966 12.1726 9.74946 11.8979 9.54191 11.9177C8.97644 11.9724 9.09946 12.088 8.40349 12.4746C7.4714 12.9929 6.34295 13.3161 5.28658 13.4031C1.57933 13.7126 1.33327 8.45357 4.22276 7.04776C6.10435 6.13169 7.29742 7.25534 9.09574 7.03036C9.29956 7.0055 9.43875 6.71091 9.48722 6.54187C9.92344 5.01425 9.25234 3.57737 7.69885 3.21318C6.70461 2.9795 5.73649 2.95712 4.71615 3.04289C3.99533 3.10379 2.6668 4.08575 3.04088 2.5805C5.99873 1.61347 10.2491 0.631515 10.9637 4.76566C11.2035 6.15282 11.1575 7.51512 11.1575 8.91968C11.1575 9.14715 11.5304 13.0687 12.1841 12.676C11.467 13.1085 10.5498 12.9693 10.0291 12.3006Z" fill="#1B708A"/>
<path d="M9.44902 8.71208C9.57454 8.51071 9.6404 8.24969 9.52358 8.2124C7.9937 7.72018 6.5881 7.20062 5.10918 8.14279C4.28148 8.66981 3.3233 10.1005 3.81545 11.1384C4.51141 12.6088 6.10964 12.5653 7.39842 11.9774C8.74063 11.3658 9.11597 10.6076 9.21664 9.27017C9.27753 9.18068 9.33097 9.08497 9.38689 8.96813C9.44903 8.84134 9.46269 8.75931 9.44902 8.71208ZM8.71452 9.81584C8.87111 11.3994 6.39176 11.8096 5.39007 11.5013C4.95012 11.3658 4.65185 11.0986 4.40453 10.717C3.78811 9.76488 4.76745 8.9296 5.47832 8.53557C6.55458 7.94143 7.97756 8.56789 9.03269 8.91717C9.01405 8.94327 8.99543 8.97061 8.98176 8.9992C9.06875 8.81649 8.84626 9.13593 8.82762 9.16825C8.72074 9.36215 8.69215 9.59707 8.71452 9.81584Z" fill="#1B708A"/>
<path d="M28.8712 1.8994C28.512 1.19836 27.0082 1.43452 26.5098 1.97149C25.8772 2.65388 25.574 4.26105 25.359 5.17837C24.9588 6.88622 24.5798 8.6065 24.1299 10.3032C24.0081 9.01792 23.5259 7.50771 23.2227 6.33807C22.8113 4.75203 22.7889 3.18091 22.1849 1.62843C22.1675 1.59611 22.1402 1.58119 22.1029 1.58244C20.2884 1.32266 19.5887 1.69555 18.9599 3.36735C18.5957 4.33314 18.4516 5.3586 18.1334 6.33434C17.7283 7.57607 17.6898 8.94956 17.348 10.2137C16.8148 7.54002 15.8231 4.98571 15.5161 2.2263C15.5087 2.15918 15.4776 2.14178 15.439 2.14675C15.4291 2.09454 15.4055 2.05601 15.3508 2.05601C15.4254 2.05601 15.2737 1.94041 15.1967 1.86335C14.7692 1.43577 14.4883 1.5004 13.8657 1.4482C13.3698 1.40718 12.9112 1.66696 12.7571 2.13059C12.3433 3.37357 13.5463 5.17713 13.847 6.35422C14.2832 8.06207 14.5815 9.86315 15.106 11.5449C15.3061 12.1863 15.6777 13.8046 16.5936 13.8618C17.2635 13.9041 18.3012 13.8954 18.6964 13.2428C20.0349 11.0303 19.3849 7.86444 20.409 5.5003C21.0304 7.12611 20.9894 9.10617 21.5424 10.768C22.2073 12.7643 22.4136 13.6356 24.5872 13.7015C25.4808 13.7276 25.7381 12.8886 25.973 12.1838C26.6876 10.0409 27.1362 7.81721 27.7303 5.64076C27.913 4.96831 29.2229 2.58801 28.8712 1.8994ZM28.2286 2.92112C27.7962 4.07336 27.4183 5.27408 27.0952 6.46361C26.7547 7.71528 26.4726 8.93589 26.1706 10.195C25.7754 11.8432 25.4323 13.4218 23.3668 12.8053C22.1799 12.451 21.9252 9.44551 21.6443 8.51825C21.2566 7.23425 21.315 5.75262 20.7669 4.53326C20.6787 4.33812 20.409 4.7222 20.3754 4.77937C19.6608 5.98755 19.5614 7.72398 19.2867 9.08504C19.1289 9.87061 18.9263 10.6189 18.7996 11.4131C18.6156 12.5604 17.1044 13.9861 16.1748 12.4361C15.147 10.7245 15.0911 8.38276 14.5703 6.48225C14.3131 5.54505 14.0148 4.62773 13.7352 3.69798C13.4369 3.24057 13.376 2.74835 13.5488 2.22133C13.7141 2.26483 14.8736 2.35681 14.8736 2.70733C14.8736 2.76575 14.9146 2.8105 14.9717 2.8105H15.014C15.3508 5.78618 16.4793 8.4909 16.9677 11.4206C17.0224 11.7525 17.3865 11.2143 17.4238 11.131C18.075 9.70529 18.1384 8.09564 18.4702 6.57672C18.638 5.80607 18.9052 5.05283 19.078 4.28094C19.3949 2.86892 19.9293 2.23127 21.3883 2.33817C22.3962 2.4115 22.5192 6.02981 22.7168 6.88746C23.035 8.26717 23.6539 10.0123 23.6539 11.4206C23.6539 11.5499 23.7496 11.5039 23.8565 11.3957V11.4206C23.8565 11.7624 24.3175 11.1335 24.3461 11.0353C25.0346 8.6239 25.4373 6.10066 26.2712 3.73527C26.4092 3.34373 26.5235 3.01062 26.6416 2.61784C26.8131 2.04855 28.512 2.16539 28.2286 2.92112Z" fill="#1B708A"/>
<path d="M38.4147 9.43559C38.2047 7.52886 37.1097 7.12117 35.3972 6.57426C34.6316 6.32939 33.8971 6.14046 33.1602 5.8061C32.4953 5.56372 32.3076 5.03794 32.5984 4.22876C33.5318 3.98514 34.6701 4.03485 35.5911 4.21881C37.6019 4.61905 38.0717 4.36922 38.0717 2.09208C38.0717 1.98767 38.0095 1.99886 37.9288 2.06101C37.9188 2.03615 37.9076 2.01253 37.8865 1.99886C36.0994 0.806844 33.3441 0.9386 31.5433 1.94665C30.2123 2.6912 29.735 4.18153 29.5126 5.60473C29.1348 8.02108 32.4978 8.58415 34.0438 9.25163C34.4986 9.44678 34.9535 9.60215 35.3984 9.81843C36.0434 10.8961 35.8943 11.4144 34.9523 11.3734C34.5235 11.4418 34.0935 11.5027 33.6622 11.5574C32.6108 11.6978 31.7968 11.6953 30.7951 11.2541C30.421 11.0887 30.2048 10.9682 29.8009 10.9744C29.5996 10.9781 29.4579 11.3112 29.4094 11.4629C28.5121 14.267 32.9464 14.4112 34.5894 14.2521C36.7257 14.0421 38.6458 11.5387 38.4147 9.43559ZM29.8469 11.7537C30.6038 11.878 31.3445 12.3777 32.1336 12.4498C33.0471 12.5343 34.9063 12.3031 35.7278 11.893C36.3964 11.5586 36.9569 10.6512 36.4685 9.8756C35.304 8.03103 32.3971 8.12673 30.7193 6.81664C29.5399 5.89435 29.9513 3.82479 30.9629 2.95471C31.7956 2.23751 32.8221 2.02248 33.881 1.93049C34.9982 1.83354 36.5294 2.0983 37.4789 2.73097C37.5 2.74589 37.5261 2.74589 37.5522 2.74216C37.5186 2.96962 37.4192 3.47427 37.3509 3.81112C37.3496 3.65202 37.111 3.77259 35.9974 3.48297C34.874 3.19087 33.656 3.27788 32.5425 3.56874C31.9186 3.73157 31.2289 4.60165 31.5781 5.28778C33.0396 8.16278 38.0853 6.38905 37.8741 10.5505C37.6628 14.7493 30.2309 13.9464 29.8469 11.7537Z" fill="#1B708A"/>
</svg>
