<svg width="59" height="35" viewBox="0 0 59 35" fill="none" xmlns="http://www.w3.org/2000/svg">
<path d="M20.4222 2.32022C18.4449 1.95603 16.3719 1.82303 14.3661 1.68755C14.3537 1.68257 14.3462 1.67139 14.33 1.67139C14.2704 1.67139 14.2082 1.67263 14.1486 1.67263C14.1424 1.67263 14.1362 1.67139 14.1299 1.67139C14.1287 1.67139 14.1262 1.67263 14.125 1.67263C11.3001 1.67512 8.39323 1.74099 5.59073 2.07038C4.9246 2.14869 0.318803 3.00386 2.73479 4.21203C3.83839 4.76391 5.77589 4.80369 7.00253 4.92053C9.21594 5.13183 11.3834 5.10325 13.6043 5.05726C16.756 4.99262 20.2184 5.00754 23.3067 4.32141C23.5441 4.26921 23.6746 3.95722 23.7144 3.74591C23.989 2.28044 21.3232 2.48554 20.4222 2.32022ZM6.78877 4.11756C5.68144 4.01191 4.59524 3.72851 3.4991 3.54331C1.50317 3.20646 4.26963 2.96284 4.681 2.91063C5.28251 2.83481 5.87904 2.74159 6.48553 2.69933C8.9301 2.5278 11.4107 2.43209 13.864 2.42712C14.7824 2.48927 21.1418 2.91685 22.8096 3.71608C20.9168 4.06039 18.7892 4.21825 16.9262 4.21825C13.5222 4.21825 10.1915 4.44198 6.78877 4.11756Z" fill="#1B708A"/>
<path d="M25.3135 2.47926C22.7347 0.867121 19.6426 0.719207 16.6761 0.521574C12.9154 0.270493 9.16213 0.826103 5.42132 1.00882C4.01324 1.07718 2.49702 1.56816 1.23807 2.18716C0.785693 2.40966 0.709884 3.02742 0.665144 3.55195C0.611704 3.65388 0.575677 3.75456 0.586862 3.82043C0.59929 3.89253 0.604247 3.96835 0.614189 4.04168C0.610461 4.06281 0.609232 4.08767 0.605504 4.10756C0.573191 4.26542 0.600527 4.32633 0.650239 4.33751C0.872698 7.0298 -0.365127 10.3548 1.93528 12.1546C3.13085 13.0906 4.8981 13.103 6.32856 13.3628C8.04485 13.6748 9.85063 13.6723 11.5856 13.8326C14.8926 14.1371 18.0804 13.0334 21.3353 12.7761C23.1348 12.6344 25.1842 11.5132 25.4638 9.64005C25.6316 8.51392 25.6142 7.30823 25.6142 6.16966C25.6142 5.52704 26.0405 2.93295 25.3135 2.47926ZM24.9642 9.61892C24.656 12.3062 19.8986 12.2404 17.8753 12.6083C15.1698 13.1005 12.5748 13.0669 9.83573 12.9576C7.29049 12.8569 3.90262 12.6394 1.85698 11.0384C0.706155 10.1385 1.21571 7.69231 1.26667 6.37972C1.30146 5.48602 1.25547 4.5339 1.13368 3.63399C1.32879 2.79871 1.56369 2.63961 2.59148 2.30773C4.27919 1.76206 5.92838 1.72478 7.67823 1.72478C8.80544 1.72478 10.0172 1.49607 11.1245 1.27482C12.7277 0.95413 14.7298 1.27482 16.3678 1.27482C18.7105 1.27482 21.4235 1.67381 23.6295 2.4457C25.9808 3.26731 25.1904 7.64259 24.9642 9.61892Z" fill="#1B708A"/>
<path d="M2.34431 6.81486C2.33934 6.81486 2.33436 6.81983 2.32939 6.81983C1.84345 6.55011 0.739847 8.46056 2.06591 8.74023C3.0676 8.95278 3.61196 6.83351 2.34431 6.81486Z" fill="#1B708A"/>
<path d="M2.96059 17.1477C2.95313 17.1365 2.95189 17.1216 2.94195 17.1129C2.30315 16.5685 1.41829 18.2341 2.11301 18.7723C2.92331 19.3987 3.80444 17.4821 2.96059 17.1477Z" fill="#1B708A"/>
<path d="M25.0142 12.4679C24.8974 12.3945 24.7122 12.6009 24.6141 12.8159C20.7614 14.9675 15.7442 15.1838 11.433 14.7052C8.14456 14.3398 4.25587 15.1303 1.69324 12.5673C1.62364 12.4977 1.47823 12.6257 1.36886 12.796C0.486482 13.1677 0.793443 13.901 0.781015 14.8755C0.758645 16.643 0.547375 18.4056 0.599572 20.1756C0.65177 21.9518 2.92609 22.5695 4.31801 22.8343C6.67062 23.2818 9.2755 23.5341 11.6716 23.3998C13.7508 23.2842 15.9717 23.3004 18.0571 23.3004C19.7125 23.3004 22.8393 22.8492 24.2275 21.8697C25.6779 20.8468 25.3535 19.3117 25.4616 17.6809C25.5325 16.6393 26.0433 13.1142 25.0142 12.4679ZM24.9571 17.4112C24.9571 18.2962 24.8017 19.129 24.8141 20.0015C24.8377 21.7156 22.3708 21.8983 21.1715 22.0475C19.6031 22.2439 18.026 22.5111 16.4464 22.715C14.96 22.9076 13.465 22.5223 11.9836 22.6466C8.98718 22.8964 5.40546 22.4502 2.59302 21.4571C0.794695 20.8219 1.0072 18.7213 1.19362 17.2297C1.23215 16.9264 1.09917 13.5132 1.28434 13.4598C1.32039 13.4498 1.35519 13.4237 1.38999 13.3914C2.81796 14.7525 4.61007 15.0831 6.5277 15.2583C8.71377 15.4572 10.9732 15.5045 13.1692 15.6076C16.26 15.753 19.3769 15.3628 22.3571 14.5585C22.9226 14.4057 24.1915 14.0241 24.7893 13.3839C25.3821 14.1956 24.9571 16.5958 24.9571 17.4112Z" fill="#1B708A"/>
<path d="M25.4278 23.8485C25.4813 22.4788 24.4821 22.7572 23.9166 23.544C23.888 23.5838 23.8656 23.626 23.847 23.6708C23.3002 23.8572 22.6253 23.9007 22.168 23.9741C21.1651 24.1357 20.1795 24.3967 19.1716 24.557C17.1844 24.8727 15.1624 24.5956 13.154 24.5956C10.6809 24.5956 8.03868 24.8268 5.63636 24.1058C4.67568 23.8175 2.45108 24.0462 1.92414 22.9934C1.88313 22.9126 1.78993 22.9536 1.69548 23.0481C1.56747 22.9635 1.45188 22.7982 1.29281 22.7982C1.16231 22.7982 1.01567 23.0008 0.939857 23.1947C0.309762 23.9815 0.693774 25.3289 0.734786 26.245C0.786983 27.4258 0.789486 28.5868 0.635379 29.7663C0.567026 30.2921 0.299811 31.2703 0.834212 31.6818C2.54057 32.9968 4.63964 33.1361 6.67533 33.5388C9.27153 34.0521 12.0778 34.0385 14.715 34.0385C17.4205 34.0385 20.2839 33.3635 22.905 32.7395C23.7898 32.5282 24.8909 32.1118 25.1432 31.1025C25.7174 28.8192 25.3346 26.2052 25.4278 23.8485ZM24.0173 31.688C23.3984 31.8483 22.7969 32.0882 22.1692 32.2374C18.7789 33.0441 15.3065 33.3896 11.8317 33.2367C8.85768 33.1062 5.28342 32.9633 2.54182 31.6979C0.610519 30.8067 1.29406 29.1188 1.29406 27.396C1.29406 26.8255 1.24434 26.2661 1.24434 25.6981C1.23439 25.3103 1.21078 24.9225 1.16977 24.5359C1.26298 24.2003 1.18717 23.9306 0.960983 23.7205C1.00324 23.7056 1.05792 23.6584 1.11385 23.5975C1.24186 23.6832 1.35619 23.8572 1.53391 23.8498C1.55255 23.8485 1.57119 23.8373 1.58983 23.8286C2.20501 24.5595 3.98967 24.6652 4.78008 24.7547C6.03157 24.8951 7.21969 25.2792 8.50101 25.3227C9.94762 25.3724 11.398 25.3476 12.8458 25.3476C15.3426 25.3476 17.6654 25.4557 20.1485 25.1176C21.3564 24.9535 23.6109 24.7621 24.5417 23.8311C24.5616 23.8112 24.579 23.7839 24.5977 23.7553C24.8636 24.1394 24.8574 25.4346 24.8586 25.4197C24.8015 26.2885 24.7716 27.1698 24.7269 28.0423C24.6834 28.9 25.4365 31.3201 24.0173 31.688Z" fill="#1B708A"/>
<path d="M2.87629 27.1673C2.77687 27.1424 2.67992 27.14 2.57553 27.2158C2.36301 27.3724 2.25737 27.5961 2.17908 27.841C2.10451 28.0759 2.01875 28.322 2.15173 28.5495C2.27353 28.7571 2.55689 28.8118 2.77438 28.7832C3.24788 28.721 3.38335 28.0448 3.39826 27.672C3.41566 27.258 3.15592 27.0915 2.87629 27.1673Z" fill="#1B708A"/>
<path d="M36.68 20.853C35.9629 19.6623 34.8369 18.5237 33.706 17.722C33.1293 17.4174 32.6421 16.9986 32.2469 16.4653C32.5788 15.4125 32.8783 15.1962 33.1467 15.814C33.1045 15.7481 33.2747 16.8917 33.3853 17.1875C33.4027 17.2198 33.4301 17.2347 33.4674 17.2335C34.735 17.3304 36.0698 17.2099 37.3275 17.3826C37.453 17.4 37.591 17.1751 37.6369 17.0918C38.0769 16.2925 37.6133 15.4684 37.3834 14.6742C36.9112 13.0359 36.3531 11.4412 34.6443 10.8023C33.2698 10.289 31.1868 10.7725 29.913 11.3977C29.2058 11.7445 28.8504 12.5624 28.567 13.2883C28.5036 13.3628 28.4502 13.4412 28.4291 13.5045C27.6909 15.7183 27.9444 18.0215 28.9051 20.1159C29.5178 21.4509 31.029 22.541 32.104 23.4968C32.9864 24.2812 33.4698 24.8368 33.4872 26.0325C33.5071 27.3936 32.0232 25.9045 32.0232 25.0667C32.0232 24.5099 32.2917 23.288 31.4466 23.3514C30.6562 23.4098 29.9751 23.6398 29.1772 23.6497C28.8317 23.6547 28.4055 23.4086 28.0674 23.5689C26.9315 24.1071 27.6648 27.3401 27.8648 28.1978C29.0107 33.0839 36.378 33.1995 37.5002 28.3357C38.139 25.5714 38.1813 23.3439 36.68 20.853ZM34.9438 30.8988C32.8758 31.4718 30.9694 31.1672 29.5215 29.534C28.1557 27.9927 28.142 26.2314 28.142 24.2899C28.142 24.8144 31.5174 23.4894 31.5174 25.0841C31.5174 26.4365 31.2042 27.9877 32.9901 27.9877C34.6878 27.9877 33.8974 24.2289 33.4052 23.6435C32.1662 22.1706 30.3827 21.1252 29.3811 19.4547C28.3993 17.8189 28.2837 15.5878 28.7733 13.7432C28.7858 13.7221 28.7994 13.7009 28.8081 13.6773C29.7489 11.3244 32.7428 10.9788 34.9127 11.7892C36.3457 12.325 37.0242 15.3006 37.2964 16.6244C37.243 16.3671 33.7532 17.0657 33.8178 16.0613C33.8576 15.4461 33.45 14.3771 32.6732 14.4355C32.1127 14.4766 31.6566 14.9638 31.5137 15.4908C31.1831 16.7102 31.9139 17.3478 32.7627 18.121C34.3435 19.5603 35.8635 20.6343 36.8204 22.6553C37.8408 24.8107 37.934 30.0709 34.9438 30.8988Z" fill="#1B708A"/>
<path d="M49.3551 30.8876C48.9748 30.8055 48.6529 30.5893 48.2801 30.4699C48.0489 30.3954 47.9781 30.2039 47.824 30.1033C48.2714 28.8988 48.3957 27.9069 48.4789 26.5757C48.5721 25.0841 48.8729 23.641 48.7772 22.1408C48.5572 18.7052 49.1786 15.4411 47.3579 12.4058C47.343 12.3809 47.3219 12.3697 47.2995 12.366C47.2896 12.3461 47.2821 12.3237 47.2647 12.3101C46.9938 12.1099 46.8173 11.7085 46.5476 11.4735C46.0741 11.0633 45.0836 11.0037 44.4684 10.9266C42.7708 10.7141 41.6498 10.8607 40.3461 11.9396C38.5055 13.4623 38.5652 16.8134 38.5652 18.9177C38.5652 20.4242 38.5962 21.9804 38.6584 23.4832C38.6994 24.4651 38.9318 25.4123 38.9169 26.4004C38.9082 26.9772 38.595 27.6099 38.7615 28.1829C39.1853 29.6459 39.4128 30.941 40.924 31.5215C42.0661 31.9603 43.3698 32.194 44.5144 31.7353C44.5181 31.7341 44.5219 31.7291 44.5244 31.7278C44.548 31.7452 44.5778 31.7477 44.6114 31.7341C45.1072 31.8919 45.5074 32.3021 45.9026 32.6377C46.1375 32.8378 46.4494 33.028 46.7216 33.1771C47.0522 33.3586 47.2548 33.6955 47.5754 33.8919C47.681 33.9565 47.8265 33.77 47.8737 33.7042C48.0539 33.4481 48.2639 33.1684 48.4106 32.8925C48.5783 32.578 48.7511 32.2673 48.9487 31.9715C48.9997 31.8944 49.0717 31.6085 49.1177 31.5737C49.191 31.5178 49.5863 30.9373 49.3551 30.8876ZM47.8538 33.0703C47.4051 32.7719 46.9553 32.3618 46.529 32.0373C46.0294 31.657 45.5012 31.0715 44.8748 30.946C44.8127 30.9336 44.7468 30.9659 44.6847 31.0206C43.5326 31.4693 42.475 31.0504 41.3304 30.7844C40.059 30.4898 39.8552 29.1052 39.3991 28.0847C39.0014 27.1959 39.46 25.8038 39.3817 24.8107C39.2847 23.5963 39.1915 22.4142 39.1915 21.1899C39.1915 18.6666 38.6745 16.0701 39.7384 13.6748C40.7773 11.3368 42.9323 11.3132 45.0662 11.8464C45.9971 12.0789 46.181 12.5425 46.8583 13.0409C46.8645 13.0459 46.8732 13.0422 46.8794 13.0447C46.8819 13.0509 46.8807 13.0596 46.8844 13.0645C47.8463 14.668 48.213 15.9744 48.1831 17.891C48.1645 19.1228 48.1347 20.3148 48.213 21.5503C48.3733 24.1233 48.3124 27.7876 47.384 30.2325C47.2349 30.4513 47.1467 30.7819 47.3256 30.7931C47.4499 30.8018 47.7345 31.1325 47.8749 31.2021C48.1384 31.3326 48.4653 31.4718 48.7685 31.5613C48.7312 31.6383 48.6914 31.7154 48.6405 31.79C48.3621 32.2064 48.1222 32.6489 47.8538 33.0703Z" fill="#1B708A"/>
<path d="M44.1494 14.8257C44.137 14.8195 44.1283 14.8083 44.1109 14.8083C44.0811 14.8083 44.055 14.817 44.0264 14.8182C43.9717 14.8182 43.9319 14.8033 43.8723 14.8083C43.8412 14.8108 43.8089 14.8244 43.7778 14.8468C42.0901 15.2284 42.2902 18.5397 42.2703 19.805C42.2579 20.5446 41.6837 28.788 43.4957 28.2933C45.1934 27.8309 44.9871 24.5085 44.9871 23.222C44.9871 21.3128 45.2244 19.3998 45.1797 17.4956C45.1536 16.4627 45.3897 14.9276 44.1494 14.8257ZM44.0773 27.243C43.6498 27.6432 43.3366 27.5488 43.139 26.9596C42.8532 26.4624 42.8196 25.6334 42.7662 25.0815C42.6494 23.8808 42.7749 22.5682 42.7749 21.3625C42.7749 20.6353 42.4866 15.738 43.7393 15.5764C45.2928 15.7554 44.5446 20.0822 44.5384 21.0144C44.5247 23.0243 44.644 25.304 44.0773 27.243Z" fill="#1B708A"/>
<path d="M58.9023 30.1443C58.8128 29.3389 58.9707 28.511 58.9023 27.6944C58.8961 27.6273 58.865 27.6024 58.8042 27.5912C58.0349 27.4533 57.3103 27.6683 56.5348 27.5316C55.9035 27.4197 55.3529 27.3227 54.7328 27.3053C55.1106 24.5236 54.7216 21.7492 54.7216 18.9724C54.7216 17.4647 54.6209 16.0266 54.7203 14.5077C54.7912 13.4238 54.8409 12.2852 54.6607 11.2075C54.642 11.0957 54.5712 11.1031 54.4892 11.164H52.7716C52.2285 11.164 51.4033 11.3219 50.9087 11.0547C50.7645 10.9764 50.5458 11.2598 50.4687 11.5009C50.3917 11.6165 50.332 11.7383 50.332 11.8154C50.332 18.3944 50.3917 24.9474 50.3917 31.529C50.3917 31.621 50.4414 31.621 50.5073 31.5774C50.5247 31.6098 50.552 31.6247 50.5893 31.6234C51.8893 31.7676 53.188 31.8111 54.4917 31.6321C55.8562 31.4457 57.2097 31.6918 58.5531 31.6918C58.7507 31.6918 58.9011 31.3525 58.9446 31.2033C59.049 30.8366 58.9446 30.5333 58.9023 30.1443ZM54.8024 30.8777C54.3313 30.905 51.1436 31.3637 50.9422 30.8031C50.9335 30.7782 50.9174 30.7658 50.8988 30.7645C50.8975 24.4676 50.8453 18.1981 50.8416 11.9036C51.2032 11.972 51.6158 11.9173 51.9601 11.9173H54.1747C54.514 14.2044 54.0008 16.6095 54.1549 18.9227C54.3463 21.799 54.6197 24.7535 54.2357 27.6335C54.1437 27.8336 54.1163 28.0462 54.2543 28.0462C55.4175 28.0462 56.4963 28.4737 57.6595 28.2848C58.66 28.1232 58.4425 29.1151 58.3978 29.7801C58.3766 30.107 58.4711 30.5433 58.4997 30.9299C57.2768 30.91 56.0427 30.8056 54.8024 30.8777Z" fill="#1B708A"/>
</svg>
