<svg width="116" height="86" viewBox="0 0 116 86" fill="none" xmlns="http://www.w3.org/2000/svg">
<path d="M116 35.1688C116 36.9378 114.577 38.3532 112.797 38.3532H99.5133C97.7342 38.3532 96.3107 36.938 96.3107 35.1688V35.0509C96.3107 33.2819 97.734 31.8666 99.5133 31.8666H112.797C114.577 31.8668 116 33.2819 116 35.1688ZM109.121 16.0631L96.548 21.0165C95.0061 21.6061 94.1758 23.3753 94.6504 25.0265C95.2434 26.7955 97.1412 27.7389 98.9203 27.0315L111.493 22.0781C113.035 21.4885 113.865 19.7192 113.391 18.0681C112.797 16.2991 110.9 15.3555 109.121 16.0631ZM96.548 49.2034L109.121 54.1568C110.9 54.8645 112.798 53.9208 113.391 52.1518C113.865 50.5007 113.035 48.8496 111.493 48.1419L98.9203 43.1885C97.1412 42.4808 95.2434 43.4245 94.6504 45.1935C94.0572 46.8446 94.8875 48.6136 96.548 49.2034ZM88.8385 35.6407C88.8385 40.8299 85.5174 45.1937 81.0104 46.9627V67.8376C81.0104 69.7245 79.7057 71.3756 77.8078 71.6116C75.6729 71.8475 73.8938 70.3143 73.775 68.3093C62.2699 57.4591 45.9018 53.3312 35.9387 51.6803V55.1005H28.4662L32.2617 84.2308L30.8385 84.5846L26.0941 85.6462L24.6709 86L15.3006 55.1003H13.2842C8.77695 55.1003 5.10019 51.4442 5.10019 46.9627V43.8964H2.72793C1.18613 43.8962 0 42.7168 0 41.1837V31.0412C0 29.5079 1.18613 28.3287 2.72793 28.3287H5.21875V24.6726C5.21875 20.191 8.8957 16.5351 13.4027 16.5351H36.057V19.9552C46.0203 18.3041 62.3883 14.1763 73.8933 3.32623C74.0119 1.32126 75.791 -0.211795 77.9262 0.023967C79.8238 0.259928 81.1287 1.91086 81.1287 3.79795V24.5548C85.6359 26.0878 88.8385 30.4514 88.8385 35.6407ZM27.3988 25.0263H13.7586V46.4908H27.3986V25.0263H27.3988Z" fill="#1B708A"/>
</svg>
