<svg width="224" height="103" viewBox="0 0 224 103" fill="none" xmlns="http://www.w3.org/2000/svg">
<path d="M21.4415 59.1406H32.5417V79.9306H0.657227V0H21.4415V59.1406Z" fill="#1B708A"/>
<path d="M63.82 43.5496L63.5177 43.5621C62.0899 42.1983 60.1555 41.3601 58.0253 41.3601C53.6334 41.3601 50.0731 44.9208 50.0731 49.3139C50.0731 51.5547 51.0016 53.5773 52.4925 55.0225L63.6623 66.4778L74.8371 55.0225C76.3292 53.5773 77.2497 51.5541 77.2497 49.3139C77.2497 44.9208 73.6901 41.3601 69.2975 41.3601C67.1741 41.3601 65.246 42.1932 63.82 43.5496ZM64.034 23.8125C79.528 23.8125 92.0856 36.3747 92.0856 51.8701H97.5643V79.93H94.8517H81.0291H64.0346C48.5418 79.93 35.9824 67.3678 35.9824 51.8701C35.9819 36.3747 48.5418 23.8125 64.034 23.8125Z" fill="#1B708A"/>
<path d="M7.69546 93.1922C7.53549 92.6547 7.22011 92.2145 6.74989 91.878C6.27853 91.5414 5.7326 91.3723 5.11095 91.3723C4.43579 91.3723 3.84374 91.5614 3.33481 91.9406C3.01431 92.1763 2.71829 92.5932 2.44617 93.1916H7.69546V93.1922ZM10.116 95.0987H2.33972C2.45244 95.7837 2.75244 96.3298 3.24031 96.7346C3.72818 97.1401 4.34926 97.3411 5.10697 97.3411C6.0104 97.3411 6.78803 97.0245 7.43815 96.3918L9.47786 97.3513C8.96893 98.0734 8.36094 98.6047 7.65162 98.952C6.94231 99.2982 6.09921 99.4696 5.12461 99.4696C3.61148 99.4696 2.37957 98.9919 1.42774 98.0386C0.475345 97.0831 0 95.8868 0 94.4495C0 92.9787 0.474206 91.7555 1.42205 90.7841C2.37103 89.8103 3.56081 89.3252 4.99083 89.3252C6.50966 89.3252 7.74499 89.8109 8.69681 90.7841C9.64864 91.755 10.124 93.0407 10.124 94.6369L10.116 95.0987Z" fill="#1B708A"/>
<path d="M13.5024 85.8496H11.083V99.2216H13.5024V85.8496Z" fill="#1B708A"/>
<path d="M23.9028 91.5602C23.1553 91.5602 22.5342 91.8244 22.0384 92.354C21.5437 92.8824 21.2972 93.5612 21.2972 94.3891C21.2972 95.2217 21.5488 95.909 22.0526 96.4465C22.5564 96.9846 23.1758 97.2528 23.9119 97.2528C24.6724 97.2528 25.302 96.9886 25.8024 96.4585C26.3034 95.9306 26.5539 95.237 26.5539 94.3789C26.5539 93.5407 26.3034 92.8597 25.8024 92.3398C25.302 91.8199 24.6696 91.5602 23.9028 91.5602ZM26.4474 89.5735H28.868V99.2214H26.4474V98.2015C25.9749 98.6514 25.5019 98.9754 25.0259 99.1729C24.5517 99.3705 24.036 99.4696 23.4809 99.4696C22.2359 99.4696 21.1583 98.9879 20.2486 98.0204C19.34 97.0535 18.8857 95.852 18.8857 94.4159C18.8857 92.9269 19.3247 91.7054 20.2042 90.7522C21.0843 89.8007 22.1534 89.3252 23.4103 89.3252C23.9887 89.3252 24.5312 89.434 25.039 89.6538C25.5474 89.8713 26.0159 90.1998 26.4474 90.6372V89.5735Z" fill="#1B708A"/>
<path d="M35.2084 91.5864C34.4461 91.5864 33.8165 91.8421 33.3207 92.354C32.8243 92.8642 32.5749 93.5088 32.5749 94.2827C32.5749 95.0867 32.8288 95.7455 33.3378 96.2597C33.8467 96.7734 34.4843 97.0313 35.2528 97.0313C36.0031 97.0313 36.6225 96.7796 37.1104 96.278C37.5977 95.7763 37.8413 95.1175 37.8413 94.3009C37.8413 93.4968 37.5965 92.842 37.1058 92.3403C36.6157 91.8381 35.9832 91.5864 35.2084 91.5864ZM37.7178 89.5735H40.1292V97.8393C40.1292 99.4696 39.8019 100.671 39.1449 101.438C38.2648 102.48 36.9379 103 35.164 103C34.2184 103 33.4232 102.881 32.7799 102.645C32.1355 102.407 31.5912 102.061 31.1483 101.603C30.7049 101.144 30.377 100.588 30.1641 99.9309H32.8323C33.0691 100.203 33.3731 100.408 33.7459 100.548C34.1188 100.686 34.5589 100.755 35.0672 100.755C35.7168 100.755 36.2399 100.656 36.6356 100.455C37.0312 100.253 37.3113 99.9929 37.4736 99.6752C37.6369 99.3546 37.7172 98.8045 37.7172 98.025C37.292 98.4498 36.8462 98.7561 36.3783 98.9412C35.912 99.1291 35.382 99.2214 34.7917 99.2214C33.4972 99.2214 32.4036 98.7538 31.511 97.8211C30.6183 96.8855 30.172 95.7028 30.172 94.2724C30.172 92.7429 30.6445 91.5118 31.5901 90.5848C32.4474 89.7443 33.4698 89.3252 34.6585 89.3252C35.2135 89.3252 35.7384 89.426 36.232 89.6315C36.7255 89.8348 37.2202 90.1691 37.7166 90.6372V89.5735H37.7178Z" fill="#1B708A"/>
<path d="M41.8408 89.5732H44.2876V94.2198C44.2876 95.1246 44.3502 95.7533 44.4737 96.1041C44.5984 96.4565 44.7982 96.7293 45.0743 96.924C45.3493 97.1199 45.6886 97.2184 46.0916 97.2184C46.4946 97.2184 46.8368 97.1216 47.118 96.9303C47.3998 96.7367 47.6087 96.4548 47.7448 96.0819C47.8455 95.804 47.8956 95.2095 47.8956 94.3007V89.5732H50.3162V93.6618C50.3162 95.3467 50.1835 96.4987 49.9171 97.1199C49.5921 97.8773 49.1133 98.4581 48.4808 98.863C47.8484 99.2678 47.0446 99.4694 46.0694 99.4694C45.0117 99.4694 44.1555 99.2337 43.5025 98.7599C42.8496 98.2884 42.3907 97.6279 42.1238 96.7828C41.9353 96.1969 41.8408 95.1332 41.8408 93.5917V89.5732Z" fill="#1B708A"/>
<path d="M56.5932 91.5602C55.8457 91.5602 55.2241 91.8244 54.7288 92.354C54.2341 92.8824 53.9876 93.5612 53.9876 94.3891C53.9876 95.2217 54.2398 95.909 54.7431 96.4465C55.2469 96.9846 55.8662 97.2528 56.6029 97.2528C57.3634 97.2528 57.9925 96.9886 58.4934 96.4585C58.9938 95.9306 59.2449 95.237 59.2449 94.3789C59.2449 93.5407 58.9938 92.8597 58.4934 92.3398C57.9925 91.8199 57.36 91.5602 56.5932 91.5602ZM59.1379 89.5735H61.5584V99.2214H59.1379V98.2015C58.6654 98.6514 58.1923 98.9754 57.7164 99.1729C57.2422 99.3705 56.7264 99.4696 56.1714 99.4696C54.9264 99.4696 53.8487 98.9879 52.939 98.0204C52.0305 97.0535 51.5762 95.852 51.5762 94.4159C51.5762 92.9269 52.0157 91.7054 52.8946 90.7522C53.7753 89.8007 54.8438 89.3252 56.1008 89.3252C56.6792 89.3252 57.2217 89.434 57.7295 89.6538C58.2384 89.8713 58.7063 90.1998 59.1379 90.6372V89.5735Z" fill="#1B708A"/>
<path d="M72.2074 91.5601C71.46 91.5601 70.8383 91.8244 70.3431 92.3539C69.8484 92.8824 69.6019 93.5611 69.6019 94.3891C69.6019 95.2216 69.8541 95.9089 70.3573 96.4464C70.8611 96.9845 71.4805 97.2527 72.2171 97.2527C72.9777 97.2527 73.6073 96.9885 74.1077 96.4584C74.6081 95.9305 74.8591 95.237 74.8591 94.3788C74.8591 93.5406 74.6081 92.8596 74.1077 92.3397C73.6067 91.8198 72.9743 91.5601 72.2074 91.5601ZM74.7521 89.5734H77.1727V102.752H74.7521V98.202C74.2796 98.6518 73.8065 98.9759 73.3306 99.1734C72.8564 99.371 72.3407 99.4701 71.7856 99.4701C70.5406 99.4701 69.463 98.9884 68.5533 98.0209C67.6447 97.054 67.1904 95.8525 67.1904 94.4164C67.1904 92.9273 67.6293 91.7059 68.5089 90.7527C69.3895 89.8012 70.4581 89.3257 71.715 89.3257C72.2934 89.3257 72.8365 89.4345 73.3437 89.6543C73.8521 89.8718 74.3206 90.2003 74.7521 90.6377V89.5734Z" fill="#1B708A"/>
<path d="M78.8848 89.5732H81.3315V94.2198C81.3315 95.1246 81.3941 95.7533 81.5177 96.1041C81.6429 96.4565 81.8421 96.7293 82.1182 96.924C82.3932 97.1199 82.7325 97.2184 83.1355 97.2184C83.5386 97.2184 83.8813 97.1216 84.1619 96.9303C84.4437 96.7367 84.6527 96.4548 84.7881 96.0819C84.8889 95.804 84.9396 95.2095 84.9396 94.3007V89.5732H87.3601V93.6618C87.3601 95.3467 87.2269 96.4987 86.9611 97.1199C86.636 97.8773 86.1572 98.4581 85.5248 98.863C84.8923 99.2678 84.0885 99.4694 83.1133 99.4694C82.0556 99.4694 81.1994 99.2337 80.547 98.7599C79.8941 98.2884 79.4352 97.6279 79.1683 96.7828C78.9798 96.1969 78.8853 95.1332 78.8853 93.5917V89.5732H78.8848Z" fill="#1B708A"/>
<path d="M96.3058 93.1922C96.1458 92.6547 95.8305 92.2145 95.3602 91.878C94.8889 91.5414 94.3429 91.3723 93.7213 91.3723C93.0461 91.3723 92.4541 91.5614 91.9452 91.9406C91.6247 92.1763 91.3286 92.5932 91.0565 93.1916H96.3058V93.1922ZM98.7264 95.0987H90.9501C91.0628 95.7837 91.3628 96.3298 91.8507 96.7346C92.338 97.1401 92.9596 97.3411 93.7173 97.3411C94.6208 97.3411 95.3984 97.0245 96.0479 96.3918L98.0876 97.3513C97.5793 98.0734 96.9707 98.6047 96.2614 98.952C95.5521 99.2982 94.709 99.4696 93.7344 99.4696C92.2213 99.4696 90.9894 98.9919 90.0375 98.0386C89.0857 97.0831 88.6104 95.8868 88.6104 94.4495C88.6104 92.9787 89.0846 91.7555 90.033 90.7841C90.982 89.8103 92.1712 89.3252 93.6018 89.3252C95.1206 89.3252 96.3553 89.8109 97.3072 90.7841C98.259 91.755 98.7343 93.0407 98.7343 94.6369L98.7264 95.0987Z" fill="#1B708A"/>
<path d="M104.606 86.0166H107.027V89.5733H108.463V91.6568H107.027V99.2212H104.606V91.6568H103.365V89.5733H104.606V86.0166Z" fill="#1B708A"/>
<path d="M116.275 93.1922C116.115 92.6547 115.799 92.2145 115.329 91.878C114.858 91.5414 114.312 91.3723 113.69 91.3723C113.015 91.3723 112.423 91.5614 111.914 91.9406C111.594 92.1763 111.298 92.5932 111.026 93.1916H116.275V93.1922ZM118.695 95.0987H110.919C111.032 95.7837 111.332 96.3298 111.819 96.7346C112.307 97.1401 112.928 97.3411 113.686 97.3411C114.59 97.3411 115.367 97.0245 116.017 96.3918L118.056 97.3513C117.548 98.0734 116.939 98.6047 116.23 98.952C115.521 99.2982 114.678 99.4696 113.703 99.4696C112.189 99.4696 110.958 98.9919 110.006 98.0386C109.054 97.0831 108.579 95.8868 108.579 94.4495C108.579 92.9787 109.053 91.7555 110.001 90.7841C110.95 89.8103 112.139 89.3252 113.57 89.3252C115.089 89.3252 116.324 89.8109 117.276 90.7841C118.228 91.755 118.703 93.0407 118.703 94.6369L118.695 95.0987Z" fill="#1B708A"/>
<path d="M124.289 85.8496H126.692V90.5491C127.165 90.142 127.64 89.8356 128.119 89.6323C128.598 89.4268 129.083 89.326 129.573 89.326C130.531 89.326 131.337 89.6563 131.993 90.3197C132.555 90.8919 132.835 91.7335 132.835 92.8468V99.2221H130.451V94.9924C130.451 93.874 130.398 93.1184 130.291 92.7215C130.185 92.3269 130.003 92.0302 129.746 91.8343C129.49 91.639 129.171 91.5422 128.793 91.5422C128.303 91.5422 127.882 91.7056 127.529 92.0297C127.178 92.3537 126.934 92.7978 126.797 93.3598C126.727 93.6503 126.692 94.3131 126.692 95.3466V99.2216H124.288V85.8496H124.289Z" fill="#1B708A"/>
<path d="M139.025 91.5602C138.278 91.5602 137.656 91.8244 137.161 92.354C136.666 92.8824 136.42 93.5612 136.42 94.3891C136.42 95.2217 136.671 95.909 137.175 96.4465C137.679 96.9846 138.298 97.2528 139.035 97.2528C139.795 97.2528 140.425 96.9886 140.925 96.4585C141.425 95.9306 141.677 95.237 141.677 94.3789C141.677 93.5407 141.425 92.8597 140.925 92.3398C140.424 91.8199 139.792 91.5602 139.025 91.5602ZM141.569 89.5735H143.99V99.2214H141.569V98.2015C141.097 98.6514 140.624 98.9754 140.148 99.1729C139.674 99.3705 139.158 99.4696 138.603 99.4696C137.358 99.4696 136.28 98.9879 135.371 98.0204C134.462 97.0535 134.008 95.852 134.008 94.4159C134.008 92.9269 134.447 91.7054 135.326 90.7522C136.207 89.8007 137.275 89.3252 138.532 89.3252C139.111 89.3252 139.654 89.434 140.161 89.6538C140.67 89.8713 141.138 90.1998 141.569 90.6372V89.5735Z" fill="#1B708A"/>
<path d="M155.152 91.5242L153.137 92.6323C152.759 92.2371 152.385 91.9609 152.014 91.8083C151.644 91.6546 151.211 91.5783 150.714 91.5783C149.809 91.5783 149.076 91.8488 148.517 92.3886C147.958 92.9284 147.679 93.6197 147.679 94.4647C147.679 95.2841 147.948 95.9555 148.487 96.4731C149.025 96.993 149.732 97.2532 150.608 97.2532C151.691 97.2532 152.534 96.8848 153.137 96.1451L155.046 97.4531C154.011 98.7987 152.552 99.47 150.667 99.47C148.97 99.47 147.641 98.9678 146.68 97.9627C145.721 96.9571 145.24 95.7824 145.24 94.4345C145.24 93.4995 145.474 92.6391 145.94 91.8533C146.408 91.0675 147.06 90.4485 147.895 89.9992C148.732 89.55 149.667 89.3262 150.702 89.3262C151.66 89.3262 152.519 89.5158 153.281 89.8984C154.043 90.2783 154.667 90.8204 155.152 91.5242Z" fill="#1B708A"/>
<path d="M163.851 93.1922C163.691 92.6547 163.376 92.2145 162.906 91.878C162.434 91.5414 161.888 91.3723 161.267 91.3723C160.591 91.3723 159.999 91.5614 159.491 91.9406C159.171 92.1763 158.875 92.5932 158.602 93.1916H163.851V93.1922ZM166.272 95.0987H158.495C158.608 95.7837 158.908 96.3298 159.396 96.7346C159.884 97.1401 160.505 97.3411 161.263 97.3411C162.166 97.3411 162.944 97.0245 163.594 96.3918L165.634 97.3513C165.125 98.0734 164.517 98.6047 163.807 98.952C163.098 99.2982 162.255 99.4696 161.28 99.4696C159.767 99.4696 158.535 98.9919 157.583 98.0386C156.632 97.0831 156.156 95.8868 156.156 94.4495C156.156 92.9787 156.63 91.7555 157.578 90.7841C158.527 89.8103 159.717 89.3252 161.147 89.3252C162.666 89.3252 163.901 89.8109 164.853 90.7841C165.805 91.755 166.28 93.0407 166.28 94.6369L166.272 95.0987Z" fill="#1B708A"/>
<path d="M176.804 91.5604C176.042 91.5604 175.409 91.8201 174.906 92.34C174.405 92.8599 174.153 93.5409 174.153 94.3791C174.153 95.2378 174.405 95.9314 174.906 96.4587C175.409 96.9888 176.042 97.2531 176.804 97.2531C177.543 97.2531 178.165 96.9849 178.671 96.4467C179.175 95.9092 179.429 95.2219 179.429 94.3894C179.429 93.5614 179.181 92.8827 178.685 92.3542C178.188 91.8247 177.561 91.5604 176.804 91.5604ZM174.26 85.8496V90.6374C174.698 90.2001 175.169 89.8715 175.678 89.654C176.187 89.4342 176.731 89.3254 177.31 89.3254C178.569 89.3254 179.639 89.8009 180.519 90.7524C181.399 91.7056 181.84 92.9265 181.84 94.4161C181.84 95.8523 181.384 97.0538 180.475 98.0206C179.564 98.9881 178.485 99.4699 177.238 99.4699C176.683 99.4699 176.166 99.3708 175.687 99.1732C175.208 98.9756 174.732 98.6516 174.26 98.2017V99.2216H171.857V85.8496H174.26Z" fill="#1B708A"/>
<path d="M183.109 89.5732H185.556V94.2198C185.556 95.1246 185.619 95.7533 185.742 96.1041C185.867 96.4565 186.067 96.7293 186.343 96.924C186.618 97.1199 186.957 97.2184 187.36 97.2184C187.763 97.2184 188.106 97.1216 188.387 96.9303C188.668 96.7367 188.877 96.4548 189.013 96.0819C189.114 95.804 189.164 95.2095 189.164 94.3007V89.5732H191.584V93.6618C191.584 95.3467 191.451 96.4987 191.185 97.1199C190.86 97.8773 190.381 98.4581 189.749 98.863C189.116 99.2678 188.313 99.4694 187.337 99.4694C186.28 99.4694 185.423 99.2337 184.771 98.7599C184.118 98.2884 183.659 97.6279 183.392 96.7828C183.204 96.1969 183.109 95.1332 183.109 93.5917V89.5732Z" fill="#1B708A"/>
<path d="M200.531 93.1922C200.371 92.6547 200.056 92.2145 199.586 91.878C199.114 91.5414 198.569 91.3723 197.947 91.3723C197.272 91.3723 196.68 91.5614 196.171 91.9406C195.851 92.1763 195.555 92.5932 195.283 93.1916H200.531V93.1922ZM202.952 95.0987H195.176C195.288 95.7837 195.588 96.3298 196.076 96.7346C196.564 97.1401 197.185 97.3411 197.943 97.3411C198.846 97.3411 199.624 97.0245 200.273 96.3918L202.313 97.3513C201.805 98.0734 201.196 98.6047 200.487 98.952C199.778 99.2982 198.935 99.4696 197.96 99.4696C196.447 99.4696 195.216 98.9919 194.263 98.0386C193.311 97.0831 192.836 95.8868 192.836 94.4495C192.836 92.9787 193.31 91.7555 194.259 90.7841C195.207 89.8103 196.397 89.3252 197.827 89.3252C199.346 89.3252 200.581 89.8109 201.533 90.7841C202.485 91.755 202.96 93.0407 202.96 94.6369L202.952 95.0987Z" fill="#1B708A"/>
<path d="M204.185 89.5735H206.605V90.5626C207.153 90.0996 207.651 89.7767 208.096 89.5957C208.542 89.4163 208.997 89.3252 209.463 89.3252C210.42 89.3252 211.231 89.66 211.898 90.3268C212.46 90.8951 212.74 91.7333 212.74 92.846V99.2214H210.346V94.9956C210.346 93.8448 210.295 93.0795 210.192 92.7025C210.089 92.3238 209.909 92.0357 209.651 91.8381C209.396 91.6405 209.078 91.5414 208.702 91.5414C208.212 91.5414 207.792 91.7048 207.44 92.0328C207.09 92.3614 206.846 92.8147 206.711 93.3932C206.64 93.6933 206.605 94.3464 206.605 95.3504V99.2214H204.185V89.5735Z" fill="#1B708A"/>
<path d="M218.924 91.6041C218.171 91.6041 217.546 91.8666 217.045 92.3882C216.545 92.912 216.295 93.5811 216.295 94.3971C216.295 95.2376 216.543 95.9164 217.036 96.4363C217.531 96.9561 218.158 97.2181 218.915 97.2181C219.672 97.2181 220.303 96.9539 220.807 96.4283C221.31 95.9021 221.561 95.2251 221.561 94.3971C221.561 93.5692 221.314 92.8978 220.82 92.3802C220.325 91.862 219.694 91.6041 218.924 91.6041ZM218.884 89.3252C219.794 89.3252 220.65 89.553 221.45 90.0079C222.251 90.4635 222.876 91.0802 223.326 91.8603C223.775 92.6421 224 93.4843 224 94.3886C224 95.298 223.774 96.1498 223.322 96.9419C222.87 97.734 222.254 98.3541 221.473 98.8C220.694 99.247 219.833 99.4691 218.894 99.4691C217.51 99.4691 216.33 98.9776 215.352 97.9937C214.374 97.0085 213.885 95.8133 213.885 94.4045C213.885 92.8978 214.438 91.6416 215.543 90.6366C216.511 89.7625 217.625 89.3252 218.884 89.3252Z" fill="#1B708A"/>
<path d="M204.376 55.3059H219.704L223.342 0.0830078H200.859L204.376 55.3059Z" fill="#1B708A"/>
<path d="M212.256 59.5542C207.887 59.5542 204.129 62.1195 202.374 65.8214C201.701 67.2421 201.313 68.8234 201.313 70.4987C201.313 72.1751 201.701 73.757 202.374 75.1754C204.129 78.8796 207.888 81.4449 212.256 81.4449C218.299 81.4449 223.198 76.5443 223.198 70.4987C223.198 64.4547 218.299 59.5542 212.256 59.5542Z" fill="#1B708A"/>
<path d="M124.364 0H104.544V14.6817H98.3018V32.3016H104.544V50.9676C104.539 59.2597 107.933 66.8582 113.369 72.2814C118.766 77.6939 126.317 81.0814 134.559 81.1093C134.592 81.1093 134.626 81.1093 134.66 81.1093C134.666 81.1093 134.672 81.1093 134.678 81.1093V61.2851C131.798 61.2811 129.283 60.1468 127.385 58.2643C125.503 56.3664 124.37 53.8495 124.365 50.9682V32.3022H134.678V14.6817H124.365V0H124.364Z" fill="#1B708A"/>
<path d="M156.681 43.6916C158.969 41.4128 162.063 40.0228 165.545 40.0188C169.026 40.0228 172.122 41.4128 174.408 43.6916C175.037 44.3225 175.593 45.0156 176.076 45.7592H155.014C155.497 45.0156 156.053 44.3225 156.681 43.6916ZM174.408 61.4243C172.122 63.7037 169.026 65.0937 165.545 65.0977C162.063 65.0937 158.969 63.7037 156.681 61.4243C155.884 60.6243 155.199 59.7217 154.64 58.7423H193.391L193.39 58.7161C193.826 56.7333 194.064 54.6737 194.064 52.5582C194.06 36.7998 181.298 24.0365 165.545 24.0303C149.792 24.0365 137.031 36.7998 137.026 52.5582C137.031 68.3161 149.791 81.08 165.545 81.0839C173.1 81.0822 179.962 78.14 185.063 73.3459L174.6 61.2233C174.536 61.2916 174.475 61.36 174.408 61.4243Z" fill="#1B708A"/>
</svg>
