<svg width="57" height="41" viewBox="0 0 57 41" fill="none" xmlns="http://www.w3.org/2000/svg">
<path d="M8.47692 0C5.72923 0 3.50769 2.23209 3.50769 4.99284V25.5516V26.6676V30.3682C3.50769 31.0143 3.27385 31.6605 2.86462 32.1304L0.292308 35.3023C0.116923 35.5372 0 35.8309 0 36.1246V37.5931C0 39.4728 1.52 41 3.39077 41H53.6092C55.48 41 57 39.4728 57 37.5931V36.1246C57 35.8309 56.8831 35.5372 56.7077 35.3023L54.1938 32.1891C53.7846 31.6605 53.5508 31.0731 53.5508 30.4269V27.49V25.6103V20.1476V4.99284C53.5508 2.23209 51.3292 0 48.5815 0H29.8738H8.47692ZM33.9077 36.0659C33.9077 37.0057 33.1477 37.7693 32.2123 37.7693H24.7877C23.8523 37.7693 23.0923 37.0057 23.0923 36.0659V35.7135H33.9077V36.0659ZM48.5231 4.99284V25.5516V26.9026V27.255V27.49V30.7206H8.47692V26.9026V25.5516V4.99284H32.1538H48.5231ZM18.0062 18.6791C18.0062 13.1576 22.4492 8.69341 27.9446 8.69341V18.6791H37.8831C37.8831 24.2006 33.44 28.6648 27.9446 28.6648C22.4492 28.6648 18.0062 24.2006 18.0062 18.6791ZM38 16.9756L39.4615 15.5072C39.52 15.9771 39.5785 16.447 39.5785 16.9169L39.52 16.9756H38ZM29.6985 13.0989L34.5508 8.2235C34.8431 8.39971 35.1938 8.57593 35.4862 8.81089L29.6985 14.6261V13.0989ZM29.6985 11.6304V10.1032L32.3877 7.40115C32.7969 7.51862 33.1477 7.6361 33.4985 7.81232L29.6985 11.6304ZM31.1015 7.10745L29.6985 8.51719V6.98997C30.1662 6.98997 30.6338 7.04871 31.1015 7.10745ZM31.92 16.9756L37.7077 11.1605C37.9415 11.4542 38.1169 11.7479 38.2923 12.1003L33.44 16.9756H31.92ZM29.6985 16.9756V16.212L36.3046 9.5745C36.4215 9.69198 36.5969 9.80945 36.7138 9.92693C36.8308 10.0444 36.9477 10.1619 37.0646 10.3381L30.4 16.9756H29.6985ZM34.96 16.9756L38.76 13.1576C38.9354 13.51 39.0523 13.9212 39.1692 14.2736L36.48 16.9756H34.96Z" fill="#1B708A"/>
</svg>
