<svg width="55" height="44" viewBox="0 0 55 44" fill="none" xmlns="http://www.w3.org/2000/svg">
<path d="M41.3278 26.3298C38.5495 26.3298 36.1184 24.3405 35.5396 21.5905L32.5876 6.90426H13.3708L12.1552 1.93085C11.8658 0.760639 10.824 0 9.66631 0H2.54681C1.15764 0 0 1.17021 0 2.57447C0 3.97873 1.15764 5.14894 2.54681 5.14894H7.64044L13.9496 30.6596C14.239 31.8298 15.2809 32.5905 16.4385 32.5905H42.5434C43.7589 32.5905 44.7429 31.7713 45.0323 30.6011L45.7269 27.6756L44.2219 25.5692C43.3537 26.0373 42.3118 26.3298 41.3278 26.3298Z" fill="#1B708A"/>
<path d="M19.9689 44C22.4624 44 24.4837 41.9567 24.4837 39.4362C24.4837 36.9156 22.4624 34.8723 19.9689 34.8723C17.4754 34.8723 15.4541 36.9156 15.4541 39.4362C15.4541 41.9567 17.4754 44 19.9689 44Z" fill="#1B708A"/>
<path d="M37.797 44C40.2905 44 42.3118 41.9567 42.3118 39.4362C42.3118 36.9156 40.2905 34.8723 37.797 34.8723C35.3036 34.8723 33.2822 36.9156 33.2822 39.4362C33.2822 41.9567 35.3036 44 37.797 44Z" fill="#1B708A"/>
<path d="M54.7556 22.117L49.7778 15.1542L52.8455 13.867C54.1189 13.3404 54.2347 11.5851 53.0192 10.9414L38.8959 2.80845C37.6804 2.10632 36.2333 3.15951 36.5228 4.56377L39.7642 20.7127C40.0536 22.0585 41.7321 22.5266 42.6004 21.4734L44.742 18.8989L49.7199 25.8617C50.1251 26.3883 50.8775 26.5053 51.3985 26.1542L54.5241 23.8723C55.045 23.4627 55.1608 22.6436 54.7556 22.117Z" fill="#1B708A"/>
</svg>
