<svg width="57" height="53" viewBox="0 0 57 53" fill="none" xmlns="http://www.w3.org/2000/svg">
<path d="M48.8019 23.6534C50.7033 24.0358 52.4495 24.9652 53.8228 26.3259C55.1962 27.6866 56.1361 29.4184 56.5255 31.3057C56.6883 32.1026 56.8143 32.9035 56.9035 33.7082C57.0322 34.9774 57.0322 36.2563 56.9035 37.5256C56.8182 38.3303 56.6922 39.1311 56.5255 39.9281C56.1417 41.7877 55.2233 43.497 53.8814 44.849C52.5395 46.201 50.8317 47.1377 48.9647 47.5457C49.3405 48.8219 49.9869 50.0034 50.8607 51.0108C51.0134 51.1874 51.1112 51.4042 51.1422 51.6348C51.1732 51.8655 51.136 52.1002 51.0352 52.3103C50.9212 52.5453 50.7342 52.7378 50.5018 52.8595C50.2694 52.9811 50.0038 53.0254 49.7441 52.986C46.3471 52.4641 43.22 50.8394 40.8515 48.3658C37.735 48.4214 34.6199 48.1913 31.546 47.6785C29.5687 47.3471 27.739 46.4286 26.298 45.044C24.8569 43.6594 23.8721 41.8738 23.4734 39.9224C23.3571 39.3448 23.2699 38.8135 23.1943 38.2591C26.9541 38.2253 30.7054 37.897 34.4132 37.2773C37.9006 36.6764 41.1297 35.0609 43.6913 32.6354C46.2529 30.21 48.0316 27.0839 48.8019 23.6534ZM0.128215 19.3509C0.038922 18.5126 -0.00379303 17.67 0.00026394 16.8271C-0.00379303 15.9841 0.038922 15.1416 0.128215 14.3033C0.240656 13.2406 0.405442 12.1838 0.62257 11.1327C1.15743 8.5648 2.46081 6.2172 4.362 4.39732C6.26319 2.57745 8.67355 1.37016 11.2774 0.933567C18.6788 -0.311189 26.2383 -0.311189 33.6397 0.933567C36.2435 1.37016 38.6539 2.57745 40.5551 4.39732C42.4563 6.2172 43.7597 8.5648 44.2945 11.1327C44.5117 12.1838 44.6764 13.2406 44.7889 14.3033C44.8782 15.1416 44.9209 15.9841 44.9168 16.8271C44.919 17.6701 44.8743 18.5127 44.7831 19.3509C44.6706 20.4135 44.5058 21.4704 44.2887 22.5215C43.7553 25.0896 42.4532 27.4379 40.5531 29.2588C38.6529 31.0797 36.2433 32.2883 33.6397 32.7264C29.9577 33.3416 26.2301 33.6488 22.4964 33.6446H21.3332C16.599 38.3977 11.5682 39.6451 8.37523 39.8877H8.27636C8.03535 39.9032 7.79545 39.8439 7.58995 39.7178C7.38446 39.5918 7.22356 39.4054 7.12958 39.1845C7.0356 38.9636 7.0132 38.7191 7.0655 38.485C7.11779 38.2508 7.24219 38.0387 7.42141 37.8779C8.91931 36.4066 10.0177 34.5827 10.6144 32.5762C8.15073 32.0336 5.89727 30.7962 4.12478 29.0125C2.35229 27.2288 1.13618 24.9749 0.62257 22.5215C0.405442 21.4704 0.240656 20.4135 0.128215 19.3509ZM17.1457 24.8431C18.069 25.2574 19.0489 25.5338 20.0537 25.6632C20.2117 25.6805 20.3675 25.7134 20.5189 25.7614C20.5506 25.9269 20.5623 26.0956 20.5538 26.2639V27.3207C20.5425 27.4533 20.5591 27.5867 20.6026 27.7125C20.646 27.8383 20.7153 27.9538 20.8061 28.0515C20.8969 28.1493 21.0072 28.2272 21.13 28.2804C21.2528 28.3335 21.3853 28.3608 21.5193 28.3603H22.2753H23.1245C23.2577 28.3674 23.3909 28.346 23.5151 28.2976C23.6392 28.2491 23.7515 28.1747 23.8441 28.0794C23.9368 27.9841 24.0077 27.8701 24.0522 27.7452C24.0966 27.6203 24.1134 27.4873 24.1016 27.3554C24.1016 27.1937 24.1016 27.032 24.1016 26.876C24.1016 26.5468 24.1016 26.2234 24.1016 25.8942C24.1016 25.5651 24.183 25.4553 24.5203 25.3629C25.662 25.0644 26.6797 24.4156 27.4283 23.5091C27.907 22.9283 28.251 22.2501 28.436 21.5224C28.6209 20.7948 28.6422 20.0356 28.4984 19.2989C28.3408 18.5104 28.0099 17.7662 27.5294 17.1193C27.0489 16.4724 26.4305 15.9388 25.7184 15.5565C24.9224 15.1388 24.1029 14.7666 23.2641 14.4419L22.9384 14.3091C22.43 14.1109 21.9523 13.8426 21.5193 13.5121C21.3694 13.407 21.2497 13.2649 21.1722 13.0998C21.0947 12.9346 21.0619 12.7523 21.0773 12.5707C21.1119 12.3863 21.1945 12.2141 21.3169 12.0712C21.4394 11.9283 21.5974 11.8198 21.7752 11.7564C22.0324 11.6538 22.3064 11.599 22.5836 11.5947H22.9733C23.9809 11.5934 24.9755 11.8205 25.8812 12.2589C26.0735 12.36 26.2861 12.4173 26.5035 12.4263C27.0386 12.4263 27.184 11.9181 27.2654 11.6756C27.405 11.2424 27.533 10.8093 27.6551 10.3703L27.8063 9.85634C27.8516 9.737 27.8724 9.60989 27.8676 9.48245C27.8627 9.35501 27.8324 9.22981 27.7782 9.11418C27.724 8.99855 27.6472 8.89481 27.5521 8.80904C27.4571 8.72327 27.3458 8.65718 27.2247 8.61466C26.4997 8.29176 25.7352 8.06459 24.9507 7.93896C24.2411 7.82923 24.2411 7.82923 24.2353 7.11887C24.2353 5.62308 24.119 5.38629 22.6476 5.38629H21.8508C21.0075 5.38629 20.7574 5.66351 20.7341 6.50669C20.7341 6.70305 20.7341 6.89364 20.7341 7.08422V7.39608C20.7341 8.02559 20.7341 8.02559 20.106 8.25082C17.8145 9.07668 16.5815 10.636 16.4419 12.871C16.3256 14.7884 17.2038 16.2784 19.1347 17.4219C19.8466 17.8226 20.5896 18.1664 21.3564 18.4499C21.6821 18.5828 22.0136 18.7098 22.3335 18.8542C22.7193 19.012 23.0814 19.2219 23.4095 19.4779C23.5983 19.6076 23.7474 19.7866 23.8401 19.9952C23.9329 20.2038 23.9657 20.4338 23.935 20.6597C23.9043 20.8857 23.8113 21.0988 23.6662 21.2755C23.5211 21.4522 23.3296 21.5856 23.1128 21.661C22.6848 21.8432 22.2234 21.9356 21.7577 21.9324C21.5925 21.9329 21.4274 21.9232 21.2634 21.9035C20.2251 21.7903 19.2162 21.491 18.2856 21.0199C18.0919 20.9023 17.8724 20.8329 17.6459 20.8178C17.1282 20.8178 16.9654 21.3376 16.8781 21.6148C16.7095 22.1519 16.5583 22.689 16.4129 23.2261C16.1628 24.1097 16.2849 24.4389 17.1457 24.8431Z" fill="#1B708A"/>
</svg>
