<svg width="319" height="77" viewBox="0 0 319 77" fill="none" xmlns="http://www.w3.org/2000/svg">
<path d="M115.753 63.5972C117.251 63.5972 118.466 62.3898 118.466 60.9004C118.466 59.411 117.251 58.2036 115.753 58.2036C114.254 58.2036 113.039 59.411 113.039 60.9004C113.039 62.3898 114.254 63.5972 115.753 63.5972Z" fill="#4FB0BB"/>
<path d="M129.056 39.3753C128.672 39.3753 128.271 39.2188 127.853 38.9078C127.538 38.5956 127.363 38.1793 127.329 37.659C127.329 36.7224 127.905 36.1515 129.057 35.9421C129.928 35.9421 130.504 36.5142 130.784 37.659C130.783 38.8032 130.207 39.3753 129.056 39.3753ZM127.957 64.7028V43.2241H130.103V64.7028H127.957Z" fill="#4FB0BB"/>
<path d="M151.768 64.7028V51.8558C151.768 47.3146 149.709 45.0437 145.593 45.0437C143.569 45.0437 142.034 45.6332 140.988 46.8117C139.906 47.9901 139.365 49.6035 139.365 51.6477V64.7022H137.22V43.224H139.365V45.8239C140.341 43.917 142.418 42.9629 145.593 42.9629C148.279 42.9629 150.337 43.7269 151.768 45.2518C153.198 46.778 153.913 48.9105 153.913 51.6483V64.7028H151.768Z" fill="#4FB0BB"/>
<path d="M169.035 28.3497L167.622 28.1933C165.668 28.1933 164.691 29.3375 164.691 31.6258V43.2234H169.82V45.3547H164.691V64.7022H162.546V45.3553H159.615V43.224H162.546V31.0014C162.546 27.7079 164.22 26.0608 167.57 26.0608C168.337 26.0608 168.826 26.0963 169.035 26.1655C169.453 26.1655 169.924 26.287 170.448 26.5288V28.6613L169.035 28.3497Z" fill="#4FB0BB"/>
<path d="M175.577 64.7028V26.2173H177.67V64.7028H175.577Z" fill="#4FB0BB"/>
<path d="M198.811 62.8295C197.38 64.3557 195.374 65.1185 192.793 65.1185C190.246 65.1185 188.275 64.3737 186.879 62.8813C185.483 61.3912 184.786 59.3104 184.786 56.6412V43.224H186.932V56.6419C186.932 58.6872 187.385 60.2651 188.292 61.3743C189.235 62.4836 190.734 63.0383 192.793 63.0383C196.805 63.0383 198.811 60.9057 198.811 56.6419V43.224H200.904V56.6419C200.904 59.2767 200.206 61.3401 198.811 62.8295Z" fill="#4FB0BB"/>
<path d="M207.915 53.521C207.915 56.4337 208.7 58.7389 210.27 60.4377C211.91 62.1721 214.16 63.0377 217.021 63.0377C218.486 63.0377 219.811 62.7959 220.998 62.3092C222.498 61.6854 223.84 60.4197 225.027 58.5127L226.963 59.3976C225.603 61.9639 223.509 63.6964 220.684 64.5976C219.602 64.9441 218.38 65.1179 217.02 65.1179C213.776 65.1179 211.106 64.0604 209.013 61.9459C206.885 59.8308 205.821 57.1791 205.821 53.9878C205.821 50.764 206.868 48.1105 208.962 46.0309C211.089 43.9158 213.776 42.8589 217.021 42.8589C220.23 42.8589 222.882 43.8473 224.975 45.8234C227.103 47.7995 228.168 50.3658 228.168 53.5204H207.915V53.521ZM222.673 46.7077C221.032 45.5292 219.148 44.9397 217.021 44.9397C212.555 44.9397 209.624 47.124 208.229 51.4937H225.76C225.411 49.5164 224.381 47.9222 222.673 46.7077Z" fill="#4FB0BB"/>
<path d="M247.687 64.7028V51.8558C247.687 47.3146 245.627 45.0437 241.512 45.0437C239.488 45.0437 237.953 45.6332 236.907 46.8117C235.825 47.9901 235.284 49.6035 235.284 51.6477V64.7022H233.139V43.224H235.284V45.8239C236.26 43.917 238.337 42.9629 241.512 42.9629C244.197 42.9629 246.256 43.7269 247.687 45.2518C249.117 46.778 249.832 48.9105 249.832 51.6483V64.7028H247.687Z" fill="#4FB0BB"/>
<path d="M266.944 65.1185C263.734 65.1185 261.066 64.061 258.938 61.9465C256.81 59.8314 255.746 57.1797 255.746 53.9884C255.746 50.7995 256.81 48.1466 258.938 46.0315C261.066 43.9164 263.734 42.8595 266.944 42.8595C269.7 42.8595 271.898 43.4833 273.538 44.731V47.2792L272.178 46.3955L270.712 45.6153C269.386 45.1653 268.13 44.9385 266.944 44.9385C264.257 44.9385 262.078 45.7717 260.403 47.435C258.693 49.1338 257.839 51.3181 257.839 53.9878C257.839 56.6232 258.693 58.7907 260.403 60.4889C262.112 62.1877 264.293 63.0371 266.944 63.0371C269.456 63.0371 271.654 62.2051 273.537 60.5418V63.1935C271.585 64.4772 269.386 65.1185 266.944 65.1185Z" fill="#4FB0BB"/>
<path d="M280.078 53.521C280.078 56.4337 280.863 58.7389 282.433 60.4377C284.073 62.1721 286.323 63.0377 289.184 63.0377C290.649 63.0377 291.974 62.7959 293.161 62.3092C294.661 61.6854 296.004 60.4197 297.19 58.5127L299.126 59.3976C297.765 61.9639 295.673 63.6964 292.847 64.5976C291.765 64.9441 290.544 65.1179 289.183 65.1179C285.939 65.1179 283.269 64.0604 281.176 61.9459C279.047 59.8308 277.984 57.1791 277.984 53.9878C277.984 50.764 279.031 48.1105 281.124 46.0309C283.252 43.9158 285.938 42.8589 289.183 42.8589C292.392 42.8589 295.044 43.8473 297.137 45.8234C299.265 47.7995 300.329 50.3658 300.329 53.5204H280.078V53.521ZM294.836 46.7077C293.195 45.5292 291.312 44.9397 289.184 44.9397C284.717 44.9397 281.787 47.124 280.392 51.4937H297.923C297.574 49.5164 296.544 47.9222 294.836 46.7077Z" fill="#4FB0BB"/>
<path d="M315.506 46.396C314.948 45.9803 314.355 45.6513 313.727 45.4076C313.099 45.1658 312.436 45.0437 311.739 45.0437C311.145 45.0437 310.587 45.226 310.064 45.5899C309.541 45.9539 309.087 46.4044 308.704 46.9422C308.319 47.4794 308.014 48.0774 307.787 48.7361C307.56 49.3954 307.447 50.0018 307.447 50.5558V64.7022H305.302V43.224H307.447V46.1355C307.9 45.3391 308.494 44.6106 309.226 43.9513C309.958 43.2931 310.761 42.9629 311.633 42.9629C312.714 42.9629 313.604 43.085 314.302 43.3268C314.999 43.5699 315.785 44.0036 316.657 44.6274L315.506 46.396Z" fill="#4FB0BB"/>
<path d="M10.2096 27.2015C10.2096 27.2015 10.7913 32.8677 14.1653 36.6828C14.408 36.9577 6.71875 34.4859 6.71875 34.4859C6.71875 34.4859 8.11581 29.1662 10.2096 27.2015Z" fill="#4FB0BB"/>
<path d="M18.3537 20.1476C18.3537 20.1476 13.1183 21.536 12.6528 25.5827C12.188 29.6294 14.7466 35.5259 19.0516 36.4505C23.3566 37.3763 25.1017 35.2943 25.1017 35.2943C25.1017 35.2943 16.6086 31.9418 18.3537 20.1476Z" fill="#4FB0BB"/>
<path d="M28.0041 32.2992C29.8929 31.4599 30.1762 28.0061 28.6369 24.5849C27.0976 21.1637 24.3186 19.0707 22.4297 19.9101C20.5409 20.7494 20.2576 24.2032 21.7969 27.6244C23.3362 31.0456 26.1153 33.1386 28.0041 32.2992Z" fill="#4FB0BB"/>
<path d="M16.0538 19.5893C10.3294 20.7407 7.71142 17.8063 5.40881 14.8929C3.11043 11.9807 3.1861 6.622 10.902 9.96007C17.5605 12.841 17.0211 18.6093 17.0211 18.6093" fill="#4FB0BB"/>
<path d="M18.4458 16.6236C14.708 11.6391 17.1692 6.54326 19.3574 5.54947C21.5426 4.5581 22.571 7.14361 22.5359 10.759C22.5129 13.0347 19.447 16.7818 19.447 16.7818" fill="#4FB0BB"/>
<path fill-rule="evenodd" clip-rule="evenodd" d="M31.8339 16.5889C31.8388 16.3616 31.8515 16.1053 31.8769 15.8276C31.9091 15.4768 31.9628 15.092 32.0478 14.6891C32.3896 13.0635 33.2275 11.1899 35.1992 10.0148L34.6865 9.15588C32.3915 10.5242 31.4453 12.6976 31.0693 14.4832C30.8818 15.3773 30.833 16.186 30.832 16.7712C30.832 16.782 30.832 16.7927 30.832 16.8033C30.5273 16.8988 30.2206 17.0237 29.9121 17.1818C29.9121 17.1818 27.2353 19.7643 29.1357 22.7704C31.0361 25.777 33.7509 26.894 37.5126 25.4298C41.2744 23.9651 39.1796 20.3804 38.3652 19.4949C37.6357 18.6998 35.6064 16.8674 33.1113 16.5879C33.121 16.5651 33.1308 16.5417 33.1406 16.5181C33.3525 16.0261 33.6835 15.364 34.1601 14.6836C35.1152 13.3204 36.624 11.9214 38.9023 11.6066L38.7646 10.6161C36.1152 10.9822 34.3896 12.6133 33.3408 14.1099C32.999 14.5983 32.7255 15.0764 32.5126 15.4991C32.3994 15.7251 32.3027 15.9353 32.2216 16.1227C32.1494 16.2906 32.0898 16.4409 32.0419 16.5686C31.9726 16.574 31.9033 16.5807 31.8339 16.5889Z" fill="#4FB0BB"/>
<path d="M35.3101 9.97041C35.642 9.97041 35.9111 9.71159 35.9111 9.39231C35.9111 9.07303 35.642 8.81421 35.3101 8.81421C34.9781 8.81421 34.709 9.07303 34.709 9.39231C34.709 9.71159 34.9781 9.97041 35.3101 9.97041Z" fill="#4FB0BB"/>
<path d="M39.2651 11.7431C39.5971 11.7431 39.8662 11.4843 39.8662 11.165C39.8662 10.8457 39.5971 10.5869 39.2651 10.5869C38.9332 10.5869 38.6641 10.8457 38.6641 11.165C38.6641 11.4843 38.9332 11.7431 39.2651 11.7431Z" fill="#4FB0BB"/>
<path d="M36.6838 30.3988V44.4645C38.6141 42.9113 41.0953 41.953 43.8525 41.953C50.1938 41.953 55.3401 47.0669 55.3401 53.3231C55.3401 59.716 50.1938 64.7859 43.8525 64.7859C37.5112 64.7859 32.3643 59.716 32.3643 53.3231V30.3988H36.6838ZM51.0212 53.3237C51.0212 49.3961 47.8046 46.2 43.8531 46.2C39.901 46.2 36.6844 49.351 36.6844 53.278V53.3237C36.6844 57.3422 39.855 60.4932 43.8531 60.4932C47.8046 60.4932 51.0212 57.3416 51.0212 53.3237Z" fill="#4FB0BB"/>
<path d="M80.7037 53.4152C80.7037 59.6257 75.6033 64.7402 69.17 64.7402C62.8748 64.7402 57.7744 59.6257 57.7744 53.4152C57.7744 47.0212 62.8748 41.953 69.17 41.953C73.2141 41.953 76.6602 43.9159 78.6819 46.8389L65.8614 59.6257C66.8723 60.1274 67.9752 60.4468 69.17 60.4468C73.2141 60.4468 76.3842 57.2959 76.3842 53.4152H80.7037ZM62.8288 56.5662L72.4787 46.9754C71.5592 46.5195 70.4109 46.2 69.17 46.2C65.2186 46.2 62.0939 49.351 62.0939 53.4152C62.0939 54.5112 62.37 55.6067 62.8288 56.5662Z" fill="#4FB0BB"/>
<path d="M105.562 53.4152C105.562 59.6257 100.461 64.7402 94.0275 64.7402C87.7328 64.7402 82.6318 59.6257 82.6318 53.4152C82.6318 47.0212 87.7328 41.953 94.0275 41.953C98.0716 41.953 101.518 43.9159 103.54 46.8389L90.7194 59.6257C91.7303 60.1274 92.8332 60.4468 94.0275 60.4468C98.0716 60.4468 101.242 57.2959 101.242 53.4152H105.562ZM87.6862 56.5662L97.3361 46.9754C96.416 46.5195 95.2683 46.2 94.0269 46.2C90.076 46.2 86.9514 49.351 86.9514 53.4152C86.9514 54.5112 87.2268 55.6067 87.6862 56.5662Z" fill="#4FB0BB"/>
</svg>
