<svg width="469" height="292" viewBox="0 0 469 292" fill="none" xmlns="http://www.w3.org/2000/svg">
<path d="M25.4474 38.6412C42.6774 13.6771 70.2454 1.1951 108.151 1.1951C146.057 1.1951 172.565 12.8804 187.675 36.251C203.049 59.3561 210.736 94.8104 210.736 142.614C210.736 242.205 175.216 292 104.175 292C67.8597 292 41.352 280.049 24.6522 256.147C8.21739 231.98 0 196.127 0 148.589C0 100.255 8.48247 63.6053 25.4474 38.6412ZM137.177 71.7053C131.346 57.8954 120.875 50.9905 105.766 50.9905C90.6564 50.9905 79.9207 58.0282 73.5589 72.1037C67.4621 86.1792 64.4137 111.01 64.4137 146.598C64.4137 181.122 67.5947 205.688 73.9565 220.295C80.3184 234.901 90.9214 242.205 105.766 242.205C120.61 242.205 130.948 234.901 136.78 220.295C142.877 205.688 145.925 180.458 145.925 144.606C145.925 109.55 143.009 85.2497 137.177 71.7053Z" fill="#E5E5E5" fill-opacity="0.2"/>
<path d="M469 181.255V230.254H429.238V286.821H368.006V230.254H244.347L238.383 183.247C312.339 74.0955 353.824 13.0132 362.837 0L429.238 5.97544V181.255H469ZM298.025 181.255H368.801V76.0873L298.025 181.255Z" fill="#E5E5E5" fill-opacity="0.2"/>
</svg>
