<svg width="1519" height="275" viewBox="0 0 1519 275" fill="none" xmlns="http://www.w3.org/2000/svg">
<path d="M104.419 241.863V271.584H0V241.863L25.6769 233.323V71.0559L0 60.8074V32.4534L78.7424 30.7453H111.266C137.286 30.7453 157.599 37.1221 172.206 49.8758C187.042 62.6294 194.459 80.1656 194.459 102.484C194.459 130.725 186.015 152.019 169.125 166.366C152.463 180.714 128.384 187.888 96.8873 187.888H78.7424V233.323L104.419 241.863ZM78.7424 71.0559V147.919H96.8873C111.266 147.919 122.222 144.617 129.754 138.012C137.514 131.408 141.394 121.843 141.394 109.317C141.394 97.9296 138.313 88.706 132.15 81.6459C126.216 74.5859 117.543 71.0559 106.131 71.0559H78.7424Z" fill="#E5E5E5" fill-opacity="0.2"/>
<path d="M305.686 83.6956C333.303 83.6956 354.529 91.7805 369.364 107.95C384.428 123.892 391.96 146.553 391.96 175.932C391.96 206.449 383.629 230.59 366.968 248.354C350.535 266.118 328.395 275 300.55 275C242.349 275 213.249 243.685 213.249 181.056C213.249 150.538 221.58 126.739 238.241 109.658C254.903 92.3499 277.384 83.6956 305.686 83.6956ZM303.974 122.981C290.964 122.981 281.378 127.195 275.216 135.621C269.282 144.048 266.314 158.623 266.314 179.348C266.314 198.934 269.167 213.282 274.873 222.391C280.579 231.273 289.709 235.714 302.262 235.714C314.815 235.714 324.059 231.273 329.993 222.391C335.927 213.509 338.894 198.592 338.894 177.64C338.894 159.193 336.041 145.528 330.335 136.646C324.858 127.536 316.071 122.981 303.974 122.981Z" fill="#E5E5E5" fill-opacity="0.2"/>
<path d="M415.855 89.8447L486.724 87.1118L489.805 110.683C491.631 108.634 494.141 106.128 497.337 103.168C500.532 100.207 506.238 96.2215 514.455 91.2112C522.899 86.2008 530.545 83.6956 537.393 83.6956C542.87 83.6956 548.12 84.265 553.141 85.4037C558.391 86.3147 562.271 87.3395 564.781 88.4783L568.205 89.8447L565.466 154.752H535.681L530.545 125.714C524.611 125.714 518.563 127.308 512.4 130.497C506.238 133.685 501.559 136.874 498.364 140.062L493.571 144.845V235.714L526.095 244.255V271.584H415.855V244.255L443.244 235.714V124.006L415.855 117.174V89.8447Z" fill="#E5E5E5" fill-opacity="0.2"/>
<path d="M659.01 275C640.066 275 627.056 268.965 619.981 256.894C612.906 244.596 609.368 223.302 609.368 193.012V129.13H577.529V96.677L609.368 92.236V45.0932L659.695 35.8696V92.236H707.625V129.13H659.695V206.335C659.695 217.723 660.95 225.694 663.461 230.248C665.971 234.803 670.764 237.081 677.84 237.081C686.056 237.081 695.072 234.462 704.886 229.224L717.211 253.82C697.126 267.94 677.725 275 659.01 275Z" fill="#E5E5E5" fill-opacity="0.2"/>
<path d="M769.771 90.5279V75.1553C769.771 52.8364 776.047 35.1863 788.6 22.205C801.154 9.22359 819.184 2.7329 842.693 2.7329C853.649 2.7329 864.033 3.87163 873.848 6.14907C883.89 8.19876 891.194 10.2484 895.759 12.2981L902.606 15.3726L901.579 65.9317H871.794L866.658 40.6522C860.952 39.7412 854.333 39.2857 846.801 39.2857C829.227 39.2857 820.44 49.3064 820.44 69.3478V90.5279H864.946L863.919 124.689H820.44V235.714L853.306 244.255V271.584H742.382V244.255L769.771 235.714V124.689H738.959V95.6522L769.771 90.5279Z" fill="#E5E5E5" fill-opacity="0.2"/>
<path d="M984.718 83.6956C1012.33 83.6956 1033.56 91.7805 1048.4 107.95C1063.46 123.892 1070.99 146.553 1070.99 175.932C1070.99 206.449 1062.66 230.59 1046 248.354C1029.57 266.118 1007.43 275 979.583 275C921.382 275 892.281 243.685 892.281 181.056C892.281 150.538 900.612 126.739 917.274 109.658C933.935 92.3499 956.416 83.6956 984.718 83.6956ZM983.006 122.981C969.997 122.981 960.411 127.195 954.248 135.621C948.314 144.048 945.347 158.623 945.347 179.348C945.347 198.934 948.2 213.282 953.906 222.391C959.612 231.273 968.741 235.714 981.295 235.714C993.848 235.714 1003.09 231.273 1009.03 222.391C1014.96 213.509 1017.93 198.592 1017.93 177.64C1017.93 159.193 1015.07 145.528 1009.37 136.646C1003.89 127.536 995.103 122.981 983.006 122.981Z" fill="#E5E5E5" fill-opacity="0.2"/>
<path d="M1091.46 9.56522L1170.55 6.83229V235.714L1203.07 244.255V271.584H1091.46V244.255L1118.85 235.714V43.7267L1091.46 36.8944V9.56522Z" fill="#E5E5E5" fill-opacity="0.2"/>
<path d="M1217.59 89.8447L1295.3 87.1118V235.714L1319.27 244.255V271.584H1217.59V244.255L1244.98 235.714V124.006L1217.59 117.174V89.8447ZM1238.47 30.7453C1238.47 21.4079 1241.33 14.0062 1247.03 8.54036C1252.97 2.84679 1259.93 0 1267.92 0C1287.09 0 1296.67 10.2484 1296.67 30.7453C1296.67 40.3105 1293.71 47.94 1287.77 53.6335C1282.07 59.0994 1275.45 61.8323 1267.92 61.8323C1258.56 61.8323 1251.25 59.2133 1246 53.9752C1240.98 48.5093 1238.47 40.766 1238.47 30.7453Z" fill="#E5E5E5" fill-opacity="0.2"/>
<path d="M1432.73 83.6956C1460.34 83.6956 1481.57 91.7805 1496.4 107.95C1511.47 123.892 1519 146.553 1519 175.932C1519 206.449 1510.67 230.59 1494.01 248.354C1477.57 266.118 1455.44 275 1427.59 275C1369.39 275 1340.29 243.685 1340.29 181.056C1340.29 150.538 1348.62 126.739 1365.28 109.658C1381.94 92.3499 1404.42 83.6956 1432.73 83.6956ZM1431.01 122.981C1418 122.981 1408.42 127.195 1402.26 135.621C1396.32 144.048 1393.35 158.623 1393.35 179.348C1393.35 198.934 1396.21 213.282 1401.91 222.391C1407.62 231.273 1416.75 235.714 1429.3 235.714C1441.86 235.714 1451.1 231.273 1457.03 222.391C1462.97 213.509 1465.93 198.592 1465.93 177.64C1465.93 159.193 1463.08 145.528 1457.38 136.646C1451.9 127.536 1443.11 122.981 1431.01 122.981Z" fill="#E5E5E5" fill-opacity="0.2"/>
</svg>
