<svg width="79" height="79" viewBox="0 0 79 79" fill="none" xmlns="http://www.w3.org/2000/svg">
<path d="M33.6185 8.58862L38.379 3.82808V16.139C38.379 16.7582 38.8811 17.2602 39.5003 17.2602C40.1195 17.2602 40.6215 16.7582 40.6215 16.139V3.82808L45.3821 8.58862C45.601 8.80754 45.8879 8.91701 46.175 8.91701C46.462 8.91701 46.7489 8.80754 46.9678 8.58862C47.4058 8.15077 47.4058 7.44088 46.9678 7.00304L40.2936 0.328946C40.2672 0.302597 40.2395 0.277509 40.2106 0.253963C40.1988 0.244292 40.1865 0.236023 40.1744 0.226913C40.1572 0.213878 40.1404 0.200703 40.1224 0.18865C40.1074 0.178559 40.0918 0.170009 40.0765 0.160759C40.0605 0.151228 40.0449 0.141137 40.0284 0.132307C40.0126 0.123758 39.9962 0.11661 39.9799 0.108901C39.9629 0.100912 39.9463 0.092503 39.9289 0.0852149C39.9132 0.0787677 39.8972 0.0735819 39.8814 0.0678355C39.8627 0.061108 39.8444 0.0539601 39.8253 0.0482137C39.8095 0.0434484 39.7935 0.0399445 39.7775 0.0358799C39.758 0.0309745 39.7388 0.0255084 39.7189 0.021584C39.7007 0.01794 39.6824 0.0158376 39.664 0.0131747C39.6462 0.0105117 39.6285 0.00714796 39.6105 0.00546609C39.5779 0.0022425 39.5453 0.000840936 39.5126 0.000560624C39.5084 0.000560624 39.5044 0 39.5001 0C39.4959 0 39.4919 0.000560624 39.4877 0.000560624C39.455 0.000981092 39.4224 0.0022425 39.3898 0.00546609C39.3718 0.00728811 39.3541 0.0105117 39.3363 0.0131747C39.3179 0.0158376 39.2996 0.01794 39.2814 0.021584C39.2615 0.0255084 39.2423 0.0309745 39.2228 0.0358799C39.2068 0.0399445 39.1908 0.0434484 39.175 0.0482137C39.1559 0.0539601 39.1376 0.061108 39.1189 0.0678355C39.1031 0.0735819 39.0871 0.0787677 39.0714 0.0852149C39.054 0.0923628 39.0374 0.100912 39.0204 0.108901C39.0041 0.11661 38.9879 0.123758 38.9719 0.132307C38.9555 0.141137 38.9398 0.151088 38.9238 0.160759C38.9084 0.170009 38.8928 0.178699 38.8779 0.18865C38.8599 0.200703 38.843 0.213878 38.8259 0.226913C38.8138 0.236023 38.8015 0.244292 38.7897 0.253963C38.7608 0.277649 38.7331 0.302597 38.7067 0.328946L32.0326 7.00304C31.5946 7.44088 31.5946 8.15077 32.0326 8.58862C32.4706 9.02647 33.1806 9.02647 33.6185 8.58862Z" fill="white"/>
<path d="M11.3682 11.679C11.3578 11.6944 11.3489 11.7105 11.3395 11.7264C11.3302 11.7418 11.3205 11.7569 11.312 11.7729C11.3032 11.7894 11.2957 11.8064 11.2877 11.8232C11.28 11.8395 11.2719 11.8554 11.265 11.8721C11.2582 11.8887 11.2527 11.9055 11.2467 11.9223C11.2404 11.94 11.2335 11.9575 11.228 11.9756C11.2229 11.9927 11.2191 12.0099 11.2147 12.0271C11.2101 12.0454 11.2051 12.0633 11.2014 12.0819C11.1973 12.1021 11.195 12.1226 11.1922 12.1429C11.1899 12.1587 11.1868 12.1743 11.1853 12.1903C11.1816 12.2273 11.1797 12.2643 11.1797 12.3014V21.8123C11.1797 22.4315 11.6817 22.9335 12.3009 22.9335C12.9202 22.9335 13.4222 22.4315 13.4222 21.8123V15.008L21.0195 22.6051C21.2385 22.8241 21.5254 22.9335 21.8124 22.9335C22.0994 22.9335 22.3863 22.8241 22.6053 22.6051C23.0433 22.1673 23.0433 21.4574 22.6053 21.0195L15.0078 13.4227H21.8123C22.4315 13.4227 22.9335 12.9206 22.9335 12.3014C22.9335 11.6822 22.4315 11.1802 21.8123 11.1802H12.3008C12.2966 11.1802 12.2925 11.1807 12.2883 11.1807C12.2557 11.1812 12.223 11.1824 12.1905 11.1856C12.1724 11.1875 12.1548 11.1907 12.137 11.1934C12.1186 11.196 12.1002 11.1981 12.082 11.2018C12.0621 11.2057 12.0429 11.2112 12.0234 11.2161C12.0075 11.2201 11.9915 11.2236 11.9756 11.2284C11.9566 11.2341 11.9382 11.2413 11.9196 11.248C11.9037 11.2538 11.8878 11.2589 11.8721 11.2654C11.8547 11.2725 11.838 11.2811 11.821 11.2891C11.8048 11.2968 11.7885 11.3039 11.7726 11.3125C11.7562 11.3213 11.7405 11.3313 11.7245 11.3409C11.7091 11.3502 11.6935 11.3589 11.6785 11.3688C11.6606 11.3809 11.6436 11.3941 11.6265 11.4071C11.6145 11.4162 11.6021 11.4245 11.5903 11.4341C11.533 11.4811 11.4805 11.5336 11.4335 11.591C11.4234 11.6032 11.4149 11.6161 11.4053 11.6285C11.3929 11.6452 11.38 11.6616 11.3682 11.679Z" fill="white"/>
<path d="M3.82796 40.621H14.4702C15.0894 40.621 15.5915 40.1189 15.5915 39.4997C15.5915 38.8805 15.0894 38.3785 14.4702 38.3785H3.82782L8.58825 33.6181C9.02624 33.1802 9.02624 32.4703 8.58825 32.0325C8.1504 31.5946 7.44051 31.5946 7.00266 32.0325L0.328668 38.7063C0.302318 38.7326 0.27737 38.7603 0.253684 38.7891C0.243593 38.8013 0.235043 38.8142 0.225512 38.8267C0.212898 38.8434 0.200004 38.8598 0.188371 38.8773C0.177999 38.8927 0.169029 38.9088 0.159639 38.9247C0.150388 38.9401 0.140717 38.9552 0.132168 38.9712C0.123338 38.9877 0.11591 39.0047 0.107921 39.0215C0.100212 39.0378 0.092083 39.0537 0.0852154 39.0704C0.0783477 39.087 0.0728815 39.1038 0.0668548 39.1206C0.0605477 39.1383 0.0536801 39.1558 0.0482139 39.1739C0.0430281 39.191 0.0392439 39.2082 0.034899 39.2254C0.0302739 39.2437 0.0252282 39.2616 0.0215841 39.2802C0.0175196 39.3004 0.0151369 39.3209 0.0123338 39.3412C0.0100913 39.357 0.00700784 39.3726 0.00546612 39.3886C-0.00182204 39.4623 -0.00182204 39.5364 0.00546612 39.6102C0.00700784 39.6261 0.0100913 39.6417 0.0123338 39.6575C0.0152771 39.6779 0.0176598 39.6983 0.0215841 39.7185C0.0252282 39.737 0.030414 39.7551 0.034899 39.7733C0.0392439 39.7905 0.0430281 39.8078 0.0482139 39.8249C0.0536801 39.843 0.0605477 39.8605 0.0668548 39.8781C0.0728815 39.895 0.0783477 39.9118 0.0852154 39.9283C0.092083 39.945 0.100212 39.961 0.107921 39.9772C0.11591 39.9941 0.123338 40.0112 0.132168 40.0275C0.140717 40.0435 0.150388 40.0587 0.159639 40.0741C0.169169 40.0899 0.178139 40.106 0.188371 40.1215C0.200004 40.1388 0.212898 40.1552 0.225512 40.1721C0.234903 40.1845 0.243593 40.1974 0.253684 40.2096C0.27737 40.2385 0.302318 40.2661 0.328668 40.2924L7.00266 46.9665C7.22158 47.1855 7.50848 47.2949 7.79552 47.2949C8.08256 47.2949 8.36946 47.1855 8.58839 46.9665C9.02638 46.5285 9.02638 45.8188 8.58839 45.3808L3.82796 40.621Z" fill="white"/>
<path d="M22.6051 56.3947C22.1673 55.957 21.4574 55.957 21.0195 56.3947L13.4222 63.992V57.1877C13.4222 56.5685 12.9202 56.0664 12.3009 56.0664C11.6817 56.0664 11.1797 56.5685 11.1797 57.1877V66.6987C11.1797 66.7358 11.1816 66.7728 11.1853 66.8098C11.1868 66.8258 11.1899 66.8412 11.1922 66.8569C11.1951 66.8774 11.1975 66.8978 11.2016 66.9182C11.2052 66.9365 11.2102 66.9545 11.2149 66.9725C11.2192 66.9899 11.223 67.0074 11.2282 67.0245C11.2336 67.0423 11.2402 67.0596 11.2465 67.0771C11.2527 67.0942 11.2583 67.1113 11.2652 67.1281C11.2719 67.1444 11.2799 67.1599 11.2873 67.1758C11.2955 67.1931 11.3032 67.2105 11.3123 67.2275C11.3204 67.2426 11.3297 67.2569 11.3383 67.2716C11.3483 67.2883 11.3578 67.3053 11.3688 67.3217C11.3794 67.3375 11.3913 67.3525 11.4027 67.3678C11.4132 67.3818 11.4229 67.3962 11.4341 67.4098C11.4554 67.4358 11.4781 67.4606 11.5016 67.4845C11.504 67.4869 11.5058 67.4894 11.5082 67.4918C11.511 67.4946 11.5141 67.4969 11.5168 67.4997C11.5403 67.5228 11.5646 67.5451 11.5901 67.566C11.6035 67.577 11.6177 67.5866 11.6316 67.5969C11.6471 67.6086 11.6622 67.6205 11.6784 67.6313C11.6945 67.6421 11.7112 67.6513 11.7277 67.6613C11.7426 67.6701 11.7571 67.6795 11.7726 67.6878C11.7892 67.6967 11.8065 67.7043 11.8236 67.7123C11.8397 67.7199 11.8555 67.728 11.8721 67.7349C11.8885 67.7417 11.9053 67.7472 11.9221 67.7532C11.9399 67.7597 11.9576 67.7664 11.9758 67.772C11.9925 67.777 12.0094 67.7807 12.0262 67.785C12.0449 67.7898 12.0632 67.795 12.0822 67.7986C12.1016 67.8025 12.1213 67.8048 12.1409 67.8076C12.1574 67.81 12.1737 67.8131 12.1905 67.8147C12.2272 67.8184 12.2642 67.8203 12.3011 67.8203H21.8124C22.4316 67.8203 22.9337 67.3183 22.9337 66.6991C22.9337 66.0799 22.4316 65.5778 21.8124 65.5778H15.0079L22.6051 57.9807C23.0431 57.5424 23.0431 56.8327 22.6051 56.3947Z" fill="white"/>
<path d="M45.3818 70.4113L40.6213 75.1719V62.861C40.6213 62.2418 40.1192 61.7397 39.5 61.7397C38.8808 61.7397 38.3788 62.2418 38.3788 62.861V75.1719L33.6182 70.4113C33.1803 69.9736 32.4704 69.9736 32.0326 70.4113C31.5946 70.8493 31.5946 71.5591 32.0326 71.9971L38.7073 78.6716C38.7101 78.6744 38.7132 78.6766 38.7158 78.6794C38.7394 78.7026 38.7636 78.7248 38.7891 78.7457C38.8026 78.7568 38.8167 78.7663 38.8306 78.7767C38.8462 78.7883 38.8613 78.8002 38.8774 78.811C38.8936 78.8218 38.9102 78.8311 38.9268 78.841C38.9416 78.8499 38.9562 78.8592 38.9716 78.8675C38.9883 78.8765 39.0055 78.8841 39.0226 78.892C39.0388 78.8996 39.0546 78.9077 39.0711 78.9146C39.0875 78.9215 39.1043 78.9269 39.1212 78.933C39.139 78.9394 39.1566 78.9461 39.1748 78.9517C39.1915 78.9568 39.2085 78.9604 39.2253 78.9648C39.2439 78.9696 39.2623 78.9747 39.2812 78.9784C39.3007 78.9823 39.3203 78.9846 39.3399 78.9874C39.3565 78.9897 39.3727 78.9928 39.3896 78.9945C39.4263 78.9981 39.4633 79.0001 39.5001 79.0001C39.537 79.0001 39.574 78.9981 39.6107 78.9945C39.6276 78.9928 39.6438 78.9897 39.6603 78.9874C39.68 78.9846 39.6996 78.9823 39.7191 78.9784C39.738 78.9746 39.7564 78.9694 39.775 78.9648C39.7918 78.9606 39.8088 78.9568 39.8255 78.9517C39.8437 78.9463 39.8612 78.9394 39.8791 78.933C39.8958 78.9269 39.9126 78.9215 39.9292 78.9146C39.9457 78.9077 39.9615 78.8998 39.9777 78.892C39.9948 78.8841 40.012 78.8763 40.0287 78.8675C40.044 78.8592 40.0585 78.85 40.0735 78.841C40.0901 78.8312 40.1067 78.8218 40.1229 78.811C40.139 78.8002 40.1541 78.7882 40.1697 78.7767C40.1836 78.7663 40.1977 78.7568 40.2112 78.7457C40.2367 78.7248 40.2609 78.7026 40.2845 78.6794C40.2873 78.6768 40.2904 78.6744 40.293 78.6716L46.9677 71.9971C47.4057 71.5591 47.4057 70.8493 46.9677 70.4113C46.5299 69.9738 45.8198 69.9736 45.3818 70.4113Z" fill="white"/>
<path d="M67.5972 67.3674C67.6086 67.3521 67.6205 67.3371 67.6311 67.3213C67.6421 67.305 67.6516 67.2881 67.6615 67.2713C67.6702 67.2565 67.6795 67.2422 67.6876 67.2271C67.6967 67.21 67.7044 67.1925 67.7127 67.1751C67.7201 67.1594 67.728 67.1438 67.7347 67.1277C67.7417 67.1108 67.7473 67.0935 67.7535 67.0763C67.7597 67.0589 67.7664 67.0418 67.7717 67.024C67.7769 67.0068 67.7807 66.9894 67.785 66.972C67.7895 66.9539 67.7947 66.9361 67.7983 66.9176C67.8024 66.8973 67.8048 66.8769 67.8077 66.8564C67.81 66.8407 67.8129 66.8251 67.8146 66.8093C67.8182 66.7723 67.8202 66.7353 67.8202 66.6982V57.1872C67.8202 56.568 67.3182 56.0659 66.6989 56.0659C66.0797 56.0659 65.5777 56.568 65.5777 57.1872V63.9915L57.9805 56.3943C57.5428 55.9567 56.8329 55.9566 56.3949 56.3943C55.9569 56.8323 55.9569 57.542 56.3949 57.98L63.9921 65.5772H57.1878C56.5686 65.5772 56.0665 66.0792 56.0665 66.6984C56.0665 67.3176 56.5686 67.8197 57.1878 67.8197H66.6991C66.736 67.8197 66.7729 67.8177 66.8097 67.8141C66.8265 67.8124 66.8427 67.8093 66.8593 67.8069C66.8789 67.8041 66.8985 67.8019 66.918 67.798C66.9369 67.7942 66.9553 67.789 66.9739 67.7844C66.9908 67.7802 67.0077 67.7764 67.0244 67.7713C67.0426 67.7659 67.0601 67.759 67.0781 67.7525C67.0947 67.7465 67.1116 67.7411 67.1281 67.7342C67.1446 67.7273 67.1605 67.7193 67.1766 67.7116C67.1937 67.7036 67.2109 67.6959 67.2276 67.6871C67.2429 67.6788 67.2575 67.6696 67.2725 67.6606C67.289 67.6508 67.3057 67.6414 67.3218 67.6306C67.3379 67.6198 67.3531 67.6078 67.3686 67.5963C67.3825 67.5859 67.3967 67.5764 67.4101 67.5653C67.4356 67.5444 67.4599 67.5221 67.4834 67.499C67.4862 67.4963 67.4893 67.494 67.492 67.4912C67.4943 67.4888 67.4963 67.4863 67.4985 67.4839C67.5221 67.4599 67.5448 67.4351 67.5661 67.4092C67.577 67.3958 67.5868 67.3814 67.5972 67.3674Z" fill="white"/>
<path d="M78.746 40.2105C78.7561 40.1983 78.7646 40.1854 78.7742 40.173C78.7868 40.1563 78.7997 40.1399 78.8113 40.1224C78.8217 40.1069 78.8306 40.0908 78.84 40.075C78.8493 40.0596 78.8589 40.0444 78.8675 40.0285C78.8763 40.0119 78.8839 39.9948 78.8919 39.9779C78.8996 39.9617 78.9076 39.9458 78.9145 39.9292C78.9213 39.9125 78.9269 39.8956 78.9329 39.8786C78.9393 39.861 78.946 39.8436 78.9515 39.8257C78.9566 39.8086 78.9604 39.7913 78.9648 39.7741C78.9694 39.7559 78.9744 39.7379 78.9781 39.7193C78.9821 39.6991 78.9845 39.6786 78.9873 39.6583C78.9896 39.6425 78.9927 39.6269 78.9942 39.6109C79.0015 39.5372 79.0015 39.4631 78.9942 39.3893C78.9927 39.3734 78.9896 39.3578 78.9873 39.342C78.9844 39.3216 78.982 39.3012 78.9781 39.281C78.9744 39.2625 78.9693 39.2444 78.9648 39.2262C78.9604 39.209 78.9566 39.1917 78.9515 39.1746C78.946 39.1567 78.9393 39.1393 78.9329 39.1216C78.9269 39.1047 78.9213 39.0877 78.9145 39.0711C78.9076 39.0545 78.8995 39.0385 78.8919 39.0224C78.8839 39.0055 78.8763 38.9884 78.8675 38.9718C78.8589 38.9558 78.8493 38.9407 78.84 38.9253C78.8305 38.9095 78.8215 38.8933 78.8113 38.8779C78.7997 38.8605 78.7868 38.8441 78.7742 38.8273C78.7648 38.8148 78.7561 38.8019 78.746 38.7898C78.7223 38.7609 78.6974 38.7333 78.671 38.7069L71.997 32.033C71.5592 31.5951 70.8493 31.5951 70.4113 32.033C69.9733 32.4708 69.9733 33.1807 70.4113 33.6186L75.1717 38.379H64.5295C63.9102 38.379 63.4082 38.881 63.4082 39.5002C63.4082 40.1194 63.9102 40.6215 64.5295 40.6215H75.1717L70.4113 45.3819C69.9733 45.8198 69.9733 46.5296 70.4113 46.9676C70.6302 47.1865 70.9171 47.296 71.2041 47.296C71.4912 47.296 71.7781 47.1865 71.997 46.9676L78.671 40.2935C78.6974 40.267 78.7223 40.2394 78.746 40.2105Z" fill="white"/>
<path d="M56.3948 22.6054C56.6137 22.8243 56.9006 22.9338 57.1876 22.9338C57.4747 22.9338 57.7616 22.8243 57.9805 22.6054L65.5777 15.0083V21.8126C65.5777 22.4318 66.0798 22.9338 66.699 22.9338C67.3182 22.9338 67.8202 22.4318 67.8202 21.8126V12.3017C67.8202 12.2646 67.8183 12.2276 67.8146 12.1906C67.8131 12.1746 67.81 12.159 67.8077 12.1432C67.8048 12.1229 67.8024 12.1024 67.7985 12.0822C67.7949 12.0637 67.7897 12.0456 67.7852 12.0274C67.7808 12.0102 67.7771 11.9929 67.7719 11.9758C67.7664 11.9579 67.7597 11.9405 67.7534 11.9229C67.7473 11.9059 67.7417 11.8889 67.7349 11.8723C67.728 11.8557 67.7199 11.8398 67.7123 11.8236C67.7043 11.8067 67.6967 11.7896 67.6879 11.773C67.6794 11.7571 67.6697 11.7419 67.6604 11.7265C67.6509 11.7107 67.6419 11.6945 67.6317 11.6791C67.6201 11.6618 67.6072 11.6454 67.5946 11.6285C67.5852 11.6161 67.5765 11.6032 67.5664 11.591C67.5194 11.5336 67.4669 11.4811 67.4096 11.4341C67.3978 11.4245 67.3855 11.4162 67.3734 11.4071C67.3562 11.3941 67.3393 11.3809 67.3214 11.3688C67.3064 11.3587 67.2907 11.3502 67.2754 11.3409C67.2595 11.3314 67.2439 11.3213 67.2274 11.3125C67.2115 11.3039 67.1951 11.2968 67.1789 11.2891C67.1619 11.2811 67.1452 11.2727 67.1278 11.2654C67.1121 11.2589 67.0962 11.2538 67.0803 11.248C67.0617 11.2413 67.0433 11.2341 67.0243 11.2284C67.0084 11.2236 66.9925 11.2201 66.9765 11.2161C66.957 11.2112 66.9378 11.2057 66.9179 11.2018C66.8997 11.1981 66.8813 11.196 66.8629 11.1934C66.8451 11.1907 66.8275 11.1873 66.8094 11.1856C66.7769 11.1824 66.7442 11.181 66.7116 11.1807C66.7074 11.1807 66.7033 11.1802 66.6991 11.1802H57.1878C56.5686 11.1802 56.0665 11.6822 56.0665 12.3014C56.0665 12.9206 56.5686 13.4227 57.1878 13.4227H63.9921L56.3949 21.0198C55.9569 21.4577 55.9569 22.1676 56.3948 22.6054Z" fill="white"/>
<path d="M49.1784 56.7343H40.6215V52.3023H56.1868C56.806 52.3023 57.3081 51.8003 57.3081 51.181V27.82C57.3081 27.2008 56.806 26.6987 56.1868 26.6987H22.8136C22.1944 26.6987 21.6924 27.2008 21.6924 27.82V51.181C21.6924 51.8003 22.1944 52.3023 22.8136 52.3023H38.3789V56.7343H29.822C29.2028 56.7343 28.7008 57.2363 28.7008 57.8556C28.7008 58.4748 29.2028 58.9768 29.822 58.9768H49.1784C49.7976 58.9768 50.2997 58.4748 50.2997 57.8556C50.2997 57.2363 49.7976 56.7343 49.1784 56.7343ZM23.9349 28.9412H55.0654V50.0598H23.9349V28.9412Z" fill="white"/>
</svg>
