<svg width="63" height="63" viewBox="0 0 63 63" fill="none" xmlns="http://www.w3.org/2000/svg">
<path d="M31.7197 0C31.6465 0 31.6465 0 31.5732 0H31.4999C14.1384 0 0 14.1384 0 31.5C0 48.8616 14.1384 63 31.4999 63H31.5732C31.6464 63 31.6464 63 31.7197 63C49.0081 62.8534 63 48.7884 63 31.5C63 14.2116 49.0081 0.0732215 31.7197 0ZM53.9895 13.8454H46.8837C45.4185 10.1094 43.5871 7.03258 41.3163 4.68839C46.3709 6.51979 50.693 9.74301 53.9895 13.8454ZM2.93021 32.8919H13.186C13.3326 37.6536 13.9918 42.1222 15.164 46.078H6.95935C4.61516 42.1954 3.22322 37.7268 2.93021 32.8919ZM33.0383 13.8454V3.07678C37.2871 3.80936 41.0965 7.91161 43.6605 13.8454H33.0383ZM44.7593 16.7756C46.0779 20.6582 46.8837 25.2 47.0302 29.9616H33.0383V16.7756H44.7593ZM30.1081 3.07678V13.8454H19.486C22.05 7.91161 25.8593 3.80936 30.1081 3.07678ZM30.1081 16.7756V29.9616H16.1163C16.2629 25.2 17.0687 20.6581 18.3873 16.7756H30.1081ZM13.186 29.9617H2.93021C3.14999 25.1269 4.61504 20.6582 6.95923 16.7757H15.1638C13.9918 20.7314 13.2593 25.2 13.186 29.9617ZM16.1163 32.8919H30.1081V46.078H18.3139C16.9953 42.1954 16.1895 37.6536 16.1163 32.8919ZM30.1081 49.0082V59.9233C25.8593 59.1908 22.05 55.0152 19.4128 49.0082H30.1081ZM33.0383 59.9233V49.0082H43.7337C41.0965 55.0152 37.2873 59.1908 33.0383 59.9233ZM33.0383 46.078V32.8919H47.0302C46.8837 37.6536 46.0779 42.1955 44.8326 46.078H33.0383ZM49.8872 32.8919H60.0698C59.85 37.7268 58.385 42.1955 56.114 46.078H47.9094C49.0814 42.1222 49.8139 37.6536 49.8872 32.8919ZM49.8872 29.9617C49.814 25.2001 49.0814 20.7315 47.9093 16.7757H56.0406C58.3848 20.6583 59.85 25.1269 60.0697 29.9617H49.8872ZM21.7569 4.61517C19.5593 6.95936 17.6546 10.1094 16.1895 13.8454H9.01041C12.307 9.66979 16.7023 6.44657 21.7569 4.61517ZM8.93719 49.0082H16.1162C17.5814 52.8175 19.486 55.9675 21.7569 58.385C16.7023 56.4803 12.2337 53.2571 8.93719 49.0082ZM41.3163 58.3117C43.5872 55.9675 45.4919 52.7443 46.8837 49.0082H53.9895C50.7663 53.1838 46.3709 56.4803 41.3163 58.3117Z" fill="#4F4F4F"/>
</svg>
