<svg width="385" height="53" viewBox="0 0 385 53" fill="none" xmlns="http://www.w3.org/2000/svg">
<path d="M321.712 24.6457C321.712 24.9659 321.712 25.249 321.712 25.6222C317.578 25.6222 313.454 25.6222 309.26 25.6222C309.26 25.3362 309.26 25.0087 309.26 24.6181C309.857 24.5491 310.483 24.4969 311.1 24.4003C312.597 24.1672 313.269 23.4637 313.444 21.9499C313.49 21.5477 313.485 21.1389 313.485 20.733C313.488 15.7981 313.487 10.8632 313.488 5.92829C313.488 3.26154 312.669 2.36342 310.002 2.12092C309.602 2.08462 309.201 2.08172 308.727 2.06066C308.727 1.68893 308.727 1.33316 308.727 0.952718C308.783 0.927306 308.858 0.864866 308.934 0.862688C313.506 0.747973 318.079 0.527256 322.649 0.582435C324.508 0.604943 326.443 0.993376 328.199 1.62286C334.296 3.80607 333.537 10.6715 329.92 13.3964C328.434 14.5152 326.792 15.2137 324.975 15.5215C324.581 15.5883 324.185 15.642 323.772 15.849C324.335 15.9702 324.895 16.0994 325.46 16.212C326.918 16.5024 328.135 17.1704 329.119 18.3335C331.209 20.8071 333.342 23.2444 335.47 25.6854C336.498 26.8645 337.554 28.008 339.075 28.5852C339.283 28.6643 339.368 29.0717 339.601 29.492C339.097 29.5174 338.822 29.5421 338.547 29.5429C336.792 29.5465 335.035 29.5182 333.281 29.5596C332.662 29.5741 332.308 29.3425 331.933 28.8611C329.286 25.4632 326.647 22.0544 323.899 18.7393C322.993 17.6466 321.759 16.8335 320.706 15.8591C320.502 15.6711 320.442 15.3255 320.264 14.9414C320.901 14.8724 321.355 14.8514 321.798 14.7715C325.264 14.1471 327.334 11.3402 327.071 7.6374C326.853 4.57059 324.597 2.22402 321.539 1.93578C320.741 1.86027 319.93 1.9307 319.125 1.90311C318.591 1.88496 318.446 2.12673 318.446 2.63496C318.46 8.90507 318.439 15.1752 318.469 21.4453C318.48 23.4194 319.195 24.0787 321.712 24.6457Z" fill="#1B708A"/>
<path d="M143.872 14.5109C143.872 17.1377 143.824 19.7166 143.895 22.2919C143.926 23.3831 144.77 24.1542 145.89 24.4054C146.279 24.4925 146.676 24.5448 147.104 24.6188C147.104 24.9514 147.104 25.2599 147.104 25.6426C143.046 25.6426 139.008 25.6426 134.93 25.6426C134.93 25.3035 134.93 24.9949 134.93 24.6225C135.563 24.5499 136.188 24.502 136.805 24.4032C138.358 24.1556 139.053 23.4042 139.058 21.8316C139.077 16.1408 139.075 10.4494 139.055 4.75865C139.05 3.24848 138.428 2.53768 136.948 2.2567C136.305 2.13473 135.647 2.09334 134.944 2.00912C134.944 1.67006 134.944 1.3339 134.944 0.916427C138.967 0.916427 143.003 0.916427 147.092 0.916427C147.092 1.28381 147.092 1.64174 147.092 2.04179C146.809 2.06938 146.555 2.08318 146.306 2.12093C144.669 2.36851 143.857 3.26808 143.842 4.93653C143.819 7.42686 143.836 9.91791 143.836 12.5273C144.2 12.5273 144.478 12.5273 144.757 12.5273C148.47 12.5273 152.183 12.5092 155.896 12.5433C156.618 12.5498 156.83 12.3327 156.814 11.6118C156.769 9.66743 156.798 7.72163 156.799 5.77584C156.801 3.14393 156.097 2.33512 153.473 2.03744C153.473 1.69039 153.473 1.3339 153.473 0.907715C157.484 0.907715 161.497 0.907715 165.571 0.907715C165.571 1.26928 165.571 1.62577 165.571 2.02873C164.995 2.08318 164.423 2.10206 163.865 2.19717C162.019 2.51154 161.449 3.17007 161.443 5.05996C161.428 9.47358 161.439 13.8872 161.439 18.3001C161.439 19.4618 161.421 20.6234 161.449 21.7844C161.486 23.3933 162.17 24.1614 163.76 24.4039C164.383 24.499 165.014 24.5404 165.724 24.6152C165.74 24.9296 165.755 25.2353 165.774 25.628C161.667 25.628 157.601 25.628 153.468 25.628C153.468 25.3021 153.468 24.9739 153.468 24.6501C156.489 23.9407 156.798 23.5421 156.797 20.3882C156.796 18.4497 156.797 16.5111 156.797 14.513C152.462 14.5109 148.217 14.5109 143.872 14.5109Z" fill="#1B708A"/>
<path d="M45.1134 26.5146C43.6394 26.2489 41.8163 26.0935 40.1012 25.5758C35.7799 24.2718 33.0198 21.3444 32.0568 16.8727C31.078 12.3262 31.6429 8.08107 34.9587 4.54669C36.748 2.63937 38.987 1.49222 41.4938 0.853304C45.032 -0.0477164 48.5637 -0.0339214 52.0501 1.06966C56.7499 2.55733 59.7044 6.37995 60.0887 11.3323C60.242 13.3122 60.2514 15.2798 59.6418 17.1944C58.0411 22.2193 54.3618 24.8251 49.4735 25.9417C48.165 26.2401 46.8026 26.3004 45.1134 26.5146ZM54.5346 12.5186C54.4345 11.7004 54.3424 10.1292 54.0315 8.60309C53.5176 6.07791 52.4171 3.87365 50.0097 2.63066C45.389 0.244879 40.3891 2.25675 38.679 7.23232C37.4598 10.779 37.4504 14.426 38.2652 18.046C39.3591 22.9069 42.2956 25.024 47.207 24.5877C50.163 24.3256 52.2264 22.7544 53.3931 19.9976C54.3043 17.8449 54.4662 15.5644 54.5346 12.5186Z" fill="#1B708A"/>
<path d="M354.799 26.4697C352.667 26.3775 350.6 26.0849 348.618 25.2964C344.064 23.4842 341.723 19.9963 341.154 15.1928C340.906 13.096 341.011 11.0159 341.68 8.99822C342.816 5.57565 345.101 3.17898 348.342 1.75884C352.776 -0.183327 357.345 -0.334344 361.897 1.24262C366.514 2.84282 368.848 6.35107 369.449 11.1299C369.758 13.5846 369.615 16.0074 368.639 18.3097C366.78 22.6965 363.266 24.9748 358.81 25.9528C357.498 26.2418 356.137 26.3042 354.799 26.4697ZM363.916 12.6923C363.864 11.9525 363.842 11.2548 363.761 10.5636C363.512 8.44134 363.048 6.38083 361.737 4.63397C359.848 2.11533 357.189 1.48077 354.273 1.80313C351.263 2.13566 349.283 3.97182 348.255 6.75547C346.706 10.9491 346.713 15.2349 348.071 19.4685C349.168 22.8845 351.677 24.6125 355.226 24.6575C359.089 24.7069 361.664 23.0138 362.942 19.5854C363.777 17.3455 363.898 15.0048 363.916 12.6923Z" fill="#1B708A"/>
<path d="M288.207 26.5438C286.57 26.2541 284.774 26.1096 283.084 25.605C278.436 24.2182 275.646 21.0353 274.807 16.2093C274.03 11.7397 274.758 7.64266 278.071 4.30795C279.847 2.52115 282.026 1.43427 284.443 0.832375C287.984 -0.0497675 291.526 -0.0497675 295.002 1.09303C299.808 2.67362 302.4 6.16081 302.907 11.1487C303.088 12.937 303.049 14.8407 302.642 16.5803C301.458 21.6437 297.927 24.4498 293.128 25.7524C291.587 26.1698 289.963 26.2715 288.207 26.5438ZM297.559 13.549C297.322 11.6824 297.22 10.0829 296.898 8.52989C296.36 5.93719 295.189 3.71622 292.675 2.51389C288.202 0.373516 283.437 2.23509 281.697 6.9021C280.222 10.859 280.256 14.9314 281.392 18.9588C282.457 22.7364 285.029 24.6343 288.788 24.6568C292.832 24.6815 295.5 22.8475 296.593 19.019C297.12 17.172 297.276 15.216 297.559 13.549Z" fill="#1B708A"/>
<path d="M90.8411 20.6344C90.8411 17.972 90.8411 15.5376 90.8411 13.1032C90.8411 10.5773 90.8433 8.05209 90.8397 5.52618C90.8361 2.87975 90.1423 2.16097 87.5419 2.09127C87.2893 2.08473 87.0373 2.0586 86.7545 2.03972C86.7365 1.85458 86.712 1.7159 86.7113 1.57723C86.7106 1.37757 86.7279 1.17863 86.7408 0.90927C90.1437 0.90927 93.5199 0.90927 96.9581 0.90927C96.9581 1.28246 96.9581 1.63822 96.9581 2.01286C96.18 2.09127 95.4358 2.12249 94.7082 2.25027C93.5905 2.44703 93.191 2.87685 93.0046 4.01383C92.9348 4.44002 92.9254 4.88 92.9254 5.31345C92.9204 10.684 92.9226 16.0545 92.9226 21.4251C92.9226 23.9401 93.3335 24.4534 95.7928 24.9558C95.7928 25.3036 95.7928 25.6615 95.7928 26.1023C93.6855 26.1023 91.6191 26.124 89.5542 26.0754C89.2843 26.0689 88.9799 25.7356 88.7625 25.4895C83.5121 19.5562 78.2718 13.6136 73.0286 7.67454C72.8623 7.4865 72.6846 7.30934 72.406 7.0153C72.3837 7.39865 72.3564 7.64332 72.3564 7.88727C72.3535 12.3583 72.3542 16.8285 72.3549 21.2995C72.3549 21.5899 72.3549 21.8803 72.3715 22.17C72.4571 23.6657 72.9955 24.253 74.4688 24.42C75.2338 24.5071 76.0032 24.5507 76.8079 24.6175C76.8079 24.9682 76.8079 25.2731 76.8079 25.6463C73.1063 25.6463 69.4386 25.6463 65.7039 25.6463C65.7039 25.3297 65.7039 25.0023 65.7039 24.6189C66.4892 24.5543 67.2866 24.5071 68.0798 24.4207C69.566 24.2588 70.1274 23.6824 70.1346 22.1664C70.1605 16.3892 70.1626 10.6128 70.1418 4.83571C70.1403 4.51625 69.9287 4.11185 69.6855 3.89258C68.454 2.78319 67.0174 2.10434 65.293 2.06658C65.293 1.66363 65.293 1.32674 65.293 0.917982C65.5031 0.892571 65.7219 0.8432 65.9407 0.842474C68.531 0.837392 71.1206 0.847556 73.7109 0.831583C74.1614 0.828679 74.3752 0.9826 74.6365 1.38483C75.4066 2.56973 76.2242 3.73648 77.1397 4.8103C81.512 9.93689 85.9225 15.0308 90.3215 20.1342C90.428 20.2583 90.5575 20.3636 90.8411 20.6344Z" fill="#1B708A"/>
<path d="M170.519 25.7035C170.519 25.2367 170.519 24.9237 170.519 24.6028C171.302 24.422 172.06 24.2674 172.807 24.0685C173.672 23.8383 174.265 23.2662 174.59 22.4349C177.071 16.1009 179.545 9.76395 182.018 3.42704C182.037 3.37767 182.02 3.3145 182.02 2.99722C180.662 2.6509 179.236 2.28715 177.712 1.89872C177.712 1.69252 177.712 1.33386 177.712 0.920736C177.85 0.893873 177.984 0.845228 178.117 0.845228C181.081 0.840871 184.044 0.831433 187.008 0.859022C187.244 0.861201 187.611 1.07175 187.688 1.27432C188.111 2.37791 188.395 3.53812 188.848 4.62791C191.199 10.2961 193.639 15.9281 195.931 21.621C196.642 23.3874 197.777 24.2877 199.581 24.4068C200.427 24.4627 200.623 24.8475 200.351 25.6534C196.64 25.6534 192.916 25.6534 189.154 25.6534C189.004 24.992 188.979 24.5549 189.817 24.3778C190.921 24.1447 191.231 23.4796 190.837 22.437C190.377 21.2187 189.894 20.007 189.362 18.8199C189.255 18.5817 188.882 18.3182 188.63 18.3153C185.523 18.2804 182.414 18.2804 179.307 18.3146C179.057 18.3175 178.68 18.5825 178.582 18.8184C178.084 20.0208 177.634 21.2449 177.216 22.4777C176.824 23.6314 177.133 24.1389 178.313 24.4257C178.453 24.4598 178.659 24.4395 178.721 24.5259C178.868 24.7313 179.032 24.9898 179.024 25.2207C179.018 25.387 178.746 25.681 178.591 25.6832C175.922 25.7115 173.254 25.7035 170.519 25.7035ZM188.376 16.2707C186.853 12.443 185.372 8.72207 183.797 4.76223C182.315 8.74894 180.934 12.4648 179.519 16.2707C182.518 16.2707 185.354 16.2707 188.376 16.2707Z" fill="#1B708A"/>
<path d="M24.4753 17.888C24.0708 19.8469 23.6965 21.7477 23.2654 23.6347C23.2085 23.8837 22.8897 24.1218 22.6371 24.2663C20.6823 25.3837 18.5591 26.0016 16.3395 26.2361C13.0273 26.5853 9.7842 26.3123 6.74048 24.8051C2.49625 22.7039 0.351464 19.1564 0.043421 14.4909C-0.260304 9.89066 0.997778 5.86185 4.81665 2.97655C7.39183 1.03148 10.3837 0.26115 13.534 0.0622139C16.9102 -0.151243 20.1814 0.426688 23.3474 1.60578C23.5929 1.69726 23.9556 1.98986 23.947 2.17282C23.8246 4.62395 23.6454 7.07289 23.4727 9.63074C22.8213 9.51966 22.4118 9.44996 21.9692 9.37517C21.8799 8.6288 21.8389 7.90421 21.7022 7.19922C20.9817 3.48406 18.146 1.37708 14.307 1.65733C10.3729 1.94484 7.85965 4.12661 6.61956 7.76917C5.36724 11.448 5.39531 15.2002 6.73328 18.8646C8.35842 23.3174 12.4537 25.399 17.0117 24.201C18.901 23.7044 20.2591 22.5144 21.2646 20.875C21.7489 20.0858 22.1959 19.2741 22.668 18.4769C23.2913 17.4226 23.2949 17.4248 24.4753 17.888Z" fill="#1B708A"/>
<path d="M127.541 17.8943C127.141 19.8176 126.786 21.6632 126.349 23.4892C126.272 23.8145 125.903 24.1513 125.584 24.3234C122.173 26.1661 118.497 26.7324 114.716 26.1872C112.927 25.9287 111.1 25.3922 109.478 24.5928C105.533 22.6499 103.479 19.2469 103.171 14.8899C103.043 13.0676 103.159 11.1435 103.606 9.37998C104.853 4.46467 108.345 1.78339 113.049 0.603568C117.6 -0.538498 122.071 0.0169252 126.432 1.62439C126.689 1.7195 127.004 2.15585 126.991 2.41868C126.877 4.78485 126.696 7.14813 126.527 9.62974C125.874 9.51938 125.44 9.44533 125.002 9.37127C124.92 8.64595 124.888 7.97872 124.764 7.32891C124.022 3.46055 121.225 1.35648 117.318 1.65996C113.661 1.94384 111.178 3.88311 109.876 7.24759C108.376 11.1218 108.38 15.0947 109.844 18.9855C111.501 23.3919 115.594 25.4118 120.109 24.1884C121.702 23.7571 122.98 22.8524 123.899 21.4817C124.543 20.5218 125.106 19.5076 125.705 18.518C126.372 17.4151 126.372 17.4151 127.541 17.8943Z" fill="#1B708A"/>
<path d="M252.401 2.96762C246.468 2.46302 243.234 5.90011 241.034 10.806C240.224 10.6317 239.933 10.3137 240.264 9.53033C241.501 6.59857 242.705 3.65228 243.909 0.706725C244.121 0.187604 244.419 0.000284396 244.978 0.180343C246.058 0.528118 247.136 1.01675 248.244 1.1213C253.15 1.58524 258.065 1.69342 262.956 0.897674C263.509 0.807645 264.064 0.581845 264.559 0.310305C265.17 -0.0258532 265.563 0.0133532 265.843 0.697286C267.049 3.64285 268.249 6.59131 269.488 9.52307C269.793 10.2455 269.601 10.61 268.822 10.8053C268.704 10.6092 268.576 10.3929 268.444 10.1794C267.745 9.04824 267.105 7.8735 266.334 6.79533C264.136 3.72634 261.008 2.77813 257.374 2.91971C257.353 3.1622 257.319 3.35751 257.32 3.55282C257.327 8.89432 257.328 14.2358 257.359 19.5773C257.364 20.3259 257.461 21.086 257.617 21.8186C258.005 23.6366 258.704 24.2458 260.533 24.473C260.985 24.5289 261.439 24.5674 261.939 24.619C261.939 24.953 261.939 25.255 261.939 25.6224C257.232 25.6224 252.557 25.6224 247.814 25.6224C247.814 25.308 247.814 25.0081 247.814 24.6299C248.391 24.5638 248.982 24.497 249.572 24.4273C250.857 24.2763 251.75 23.5815 251.999 22.3102C252.25 21.0381 252.426 19.7298 252.439 18.4353C252.489 13.5003 252.462 8.56542 252.459 3.62978C252.459 3.40616 252.421 3.18181 252.401 2.96762Z" fill="#1B708A"/>
<path d="M221.634 23.341C219.859 23.341 218.056 23.341 216.165 23.341C218.05 15.0568 215.307 8.61753 208.534 3.73707C208.744 3.03426 209.196 2.88034 209.948 3.14244C215.698 5.14705 219.186 9.15626 220.348 15.1628C220.87 17.8579 221.207 20.5893 221.634 23.341Z" fill="#1B708A"/>
<path d="M126.588 52.5055C128.168 51.6959 128.168 51.6959 128.168 49.8402C128.168 48.4491 128.128 47.0565 128.182 45.6676C128.219 44.7281 127.957 44.1415 126.939 44.1015C126.864 44.0986 126.789 44.0376 126.717 43.997C126.698 43.9861 126.693 43.9498 126.658 43.8714C126.74 43.8242 126.828 43.7298 126.914 43.7305C128.895 43.7472 130.893 43.6173 132.852 43.838C135.353 44.1197 136.704 45.7772 136.722 48.1485C136.739 50.4268 135.397 52.1628 132.945 52.4554C130.891 52.7001 128.787 52.5055 126.588 52.5055ZM129.865 48.1681C129.865 49.1236 129.801 50.0849 129.896 51.0302C129.935 51.4063 130.25 51.9392 130.571 52.0684C132.176 52.7153 134.005 51.8542 134.373 50.1633C134.618 49.0408 134.644 47.8007 134.454 46.6666C134.188 45.0802 132.795 44.1197 131.199 44.1088C130.253 44.1023 129.881 44.4508 129.869 45.3895C129.857 46.316 129.866 47.2424 129.865 48.1681Z" fill="#1B708A"/>
<path d="M166.377 52.5665C167.8 51.7744 167.802 51.7744 167.804 50.0391C167.805 48.5885 167.771 47.1371 167.813 45.6887C167.839 44.7775 167.633 44.1386 166.592 44.0994C166.52 44.0965 166.448 44.0282 166.38 43.9832C166.364 43.973 166.368 43.9331 166.356 43.8765C166.403 43.8351 166.461 43.7371 166.518 43.7378C168.529 43.7552 170.56 43.6122 172.546 43.8503C175.063 44.1517 176.353 45.802 176.344 48.2102C176.335 50.5459 174.931 52.2318 172.352 52.5229C170.383 52.7444 168.37 52.5665 166.377 52.5665ZM169.474 48.1057C169.474 49.0612 169.471 50.0166 169.475 50.9721C169.477 51.5508 169.691 51.9639 170.298 52.1294C172.16 52.6362 173.755 51.7236 174.126 49.8148C174.289 48.9762 174.332 48.0796 174.237 47.2315C174.026 45.3591 172.692 44.1727 170.898 44.1081C169.927 44.0732 169.508 44.4392 169.479 45.4135C169.453 46.3102 169.474 47.2083 169.474 48.1057Z" fill="#1B708A"/>
<path d="M217.644 47.7723C218.828 48.4984 219.438 49.4183 219.08 50.7332C218.713 52.08 217.691 52.7022 216.401 52.8198C215.676 52.8859 214.908 52.8125 214.198 52.639C213.177 52.3893 212.621 51.6211 212.489 50.5749C212.36 49.5642 212.833 48.8491 213.657 48.3321C213.802 48.2406 213.95 48.1528 214.098 48.0628C214.075 48.0011 214.071 47.9401 214.039 47.9117C212.979 46.9802 212.62 46.0407 213.031 45.0315C213.506 43.8619 214.508 43.4698 215.665 43.4132C217.345 43.3311 218.426 43.9802 218.736 45.2043C219.009 46.2847 218.47 47.039 217.644 47.7723ZM217.515 50.4384C217.511 49.4633 216.356 48.4345 215.281 48.4461C214.699 48.4527 214.173 49.3355 214.194 50.2736C214.22 51.4832 214.905 52.305 215.87 52.2862C216.818 52.2673 217.52 51.4788 217.515 50.4384ZM217.444 45.8135C217.178 45.2428 217.042 44.6453 216.684 44.2525C216.205 43.7276 215.537 43.7733 214.967 44.2133C214.436 44.6235 214.207 45.6813 214.705 46.17C215.244 46.6985 216.012 46.9875 216.681 47.381C216.924 46.8822 217.168 46.3827 217.444 45.8135Z" fill="#1B708A"/>
<path d="M226.374 48.0097C226.153 47.8152 225.942 47.6627 225.77 47.4725C225.166 46.8009 224.947 46.0313 225.227 45.1433C225.603 43.949 226.859 43.2934 228.552 43.4153C229.923 43.5134 230.825 44.2561 230.999 45.4301C231.121 46.2556 230.879 46.7907 229.927 47.7411C230.097 47.882 230.262 48.0199 230.429 48.155C231.744 49.2201 231.731 51.0766 230.4 52.1271C229.25 53.0347 227.172 53.177 225.903 52.435C224.433 51.5768 224.299 49.5279 225.65 48.4976C225.873 48.327 226.115 48.1833 226.374 48.0097ZM226.435 50.2293C226.433 51.4904 227.129 52.3283 228.141 52.2825C229.152 52.2368 229.861 51.3256 229.74 50.2264C229.645 49.3689 228.397 48.388 227.471 48.4432C226.916 48.4759 226.437 49.3021 226.435 50.2293ZM229.658 45.8185C229.397 45.2472 229.263 44.6503 228.909 44.2532C228.429 43.7152 227.758 43.7936 227.188 44.2111C226.664 44.5952 226.432 45.6973 226.923 46.1707C227.468 46.6971 228.237 46.9889 228.908 47.3832C229.149 46.8822 229.389 46.3812 229.658 45.8185Z" fill="#1B708A"/>
<path d="M155.367 49.6638C155.602 50.1372 155.846 50.6062 156.072 51.0847C156.534 52.0655 157.32 52.5026 158.368 52.4358C159.141 52.3865 159.771 52.0634 159.942 51.2146C160.109 50.3797 159.834 49.6965 159.053 49.3392C158.271 48.982 157.443 48.7315 156.647 48.4019C155.68 48.0019 155.002 47.3521 154.941 46.218C154.867 44.8378 155.631 43.6434 157.035 43.4663C158.228 43.316 159.47 43.5236 160.685 43.6347C160.864 43.6507 161.139 44.0036 161.148 44.2112C161.175 44.8327 161.094 45.4593 161.054 46.0837C160.946 46.1113 160.837 46.1388 160.729 46.1672C160.606 45.9123 160.449 45.6684 160.366 45.4005C159.988 44.1974 159.001 43.5926 157.769 43.8184C157.155 43.9309 156.578 44.2112 156.564 44.861C156.552 45.4113 156.733 46.0604 157.055 46.4953C157.332 46.8692 157.916 47.0319 158.386 47.2344C158.913 47.4617 159.472 47.6105 160.004 47.8262C160.959 48.2139 161.6 48.8855 161.619 49.9702C161.639 51.0651 161.2 51.9733 160.211 52.4801C158.5 53.3557 156.807 53.0196 155.157 52.2529C155.027 52.1926 154.901 51.9392 154.911 51.7846C154.957 51.1014 155.054 50.4225 155.132 49.7415C155.211 49.7153 155.289 49.6892 155.367 49.6638Z" fill="#1B708A"/>
<path d="M188.073 43.5554C188.073 44.227 188.073 44.977 188.073 45.727C187.305 44.3439 186.072 44.1174 184.723 44.1261C184.091 44.1304 183.766 44.4238 183.774 45.0823C183.784 45.979 183.776 46.8763 183.776 47.8028C184.974 48.213 185.79 47.7868 186.429 46.7631C186.429 47.6539 186.429 48.5455 186.429 49.676C185.793 48.6 184.981 48.1578 183.791 48.5586C183.791 49.5104 183.728 50.5233 183.833 51.5179C183.861 51.788 184.387 52.1917 184.705 52.212C186.047 52.297 187.298 52.0465 188.021 50.6939C188.074 50.5937 188.143 50.4986 188.222 50.418C188.251 50.3875 188.329 50.4049 188.524 50.3889C188.404 51.1861 188.289 51.9528 188.183 52.6629C185.629 52.6629 183.13 52.6629 180.613 52.6629C180.64 52.4691 180.633 52.3783 180.657 52.3689C182.076 51.8265 182.076 51.8272 182.074 50.235C182.073 48.9006 182.074 47.5668 182.074 46.2323C182.075 44.5436 182.075 44.5436 180.6 43.7805C183.052 43.7064 185.505 43.6324 188.073 43.5554Z" fill="#1B708A"/>
<path d="M141.404 43.6602C143.866 43.6602 146.329 43.6602 148.857 43.6602C148.857 44.1945 148.857 44.9453 148.857 45.696C148.124 44.416 146.966 44.156 145.683 44.1168C144.888 44.0929 144.515 44.4189 144.551 45.2509C144.588 46.1113 144.559 46.9745 144.559 47.8153C145.781 48.1718 146.61 47.8131 147.213 46.7604C147.213 47.6498 147.213 48.5384 147.213 49.6972C146.571 48.5682 145.743 48.1747 144.568 48.5522C144.568 49.4896 144.565 50.4668 144.57 51.4433C144.572 51.9966 144.929 52.2217 145.407 52.2347C146.782 52.2739 148.067 52.0772 148.801 50.6817C148.879 50.5343 148.923 50.3688 148.982 50.212C149.084 50.2817 149.187 50.3514 149.29 50.4211C149.177 51.1936 149.065 51.9668 148.966 52.6464C146.403 52.6464 143.907 52.6464 141.36 52.6464C141.429 52.4366 141.434 52.3502 141.464 52.3407C142.855 51.8841 142.856 51.8848 142.856 50.3681C142.856 48.802 142.816 47.2345 142.87 45.6698C142.903 44.7332 142.662 44.1386 141.636 44.0972C141.55 44.0936 141.466 44.0007 141.381 43.9491C141.39 43.8533 141.397 43.7567 141.404 43.6602Z" fill="#1B708A"/>
<path d="M220.619 11.8573C220.649 11.3309 220.572 10.8844 220.712 10.5242C221.671 8.0753 222.686 5.64886 223.659 3.20572C223.908 2.58205 224.194 2.43757 224.896 2.61327C226.419 2.99444 227.986 3.20282 229.647 3.50195C229.656 3.59561 229.679 3.8352 229.698 4.04212C229.602 4.11691 229.561 4.17572 229.515 4.1808C227.678 4.36957 226.16 5.23501 224.962 6.58763C223.512 8.22413 222.173 9.9601 220.619 11.8573Z" fill="#1B708A"/>
<path d="M237.485 46.1382C237.419 45.5254 237.321 44.9133 237.306 44.2991C237.303 44.1474 237.538 43.9078 237.711 43.846C238.866 43.4329 240.047 43.2289 241.265 43.5506C242.151 43.7843 242.863 44.2134 243.043 45.2146C243.23 46.2594 242.702 46.9237 241.877 47.4283C241.755 47.5024 241.64 47.5873 241.456 47.7101C241.711 47.8676 241.928 47.9968 242.139 48.1326C243.739 49.1585 243.799 51.1791 242.207 52.2195C240.694 53.2084 239.091 53.0392 237.505 52.3647C237.372 52.3081 237.206 52.1331 237.2 52.0053C237.168 51.386 237.185 50.7645 237.185 50.1438C237.269 50.1067 237.352 50.0697 237.435 50.0327C237.626 50.3739 237.763 50.7631 238.019 51.044C238.425 51.492 238.845 52.0438 239.373 52.2348C240.249 52.5528 241.032 52.0634 241.318 51.2655C241.69 50.2287 241.375 49.1854 240.47 48.7018C240.003 48.4521 239.469 48.3323 238.746 48.0752C239.193 47.9308 239.471 47.8466 239.745 47.7529C240.968 47.334 241.579 46.1382 241.152 44.9946C240.861 44.212 240.276 43.8758 239.47 43.9172C238.702 43.9571 238.278 44.408 238.1 45.1377C238.016 45.484 237.915 45.8267 237.822 46.1708C237.71 46.1614 237.598 46.1498 237.485 46.1382Z" fill="#1B708A"/>
<path d="M202.079 44.2597C203.347 44.002 204.614 43.745 205.918 43.48C205.918 45.8483 205.919 48.0766 205.918 50.3041C205.917 51.8498 205.984 51.9319 207.489 52.2528C207.621 52.2811 207.748 52.3326 207.865 52.533C206.033 52.533 204.199 52.533 202.198 52.533C202.408 52.3849 202.481 52.2978 202.569 52.2767C204.248 51.8709 204.248 51.873 204.25 50.1785C204.251 48.7852 204.208 47.3897 204.266 45.9993C204.301 45.1455 203.986 44.7571 203.152 44.7324C202.801 44.7222 202.453 44.6431 202.103 44.5952C202.095 44.4819 202.087 44.3708 202.079 44.2597Z" fill="#1B708A"/>
<path d="M380.67 8.91026C378.029 8.90445 376.38 7.21568 376.402 4.53948C376.423 1.8749 378.1 0.202095 380.737 0.215164C383.367 0.228233 385.007 1.91701 384.999 4.60555C384.992 7.27739 383.343 8.91607 380.67 8.91026ZM380.67 8.38461C382.961 8.39695 384.291 7.00222 384.286 4.5903C384.282 2.16023 382.965 0.754614 380.695 0.759697C378.451 0.764053 377.159 2.12756 377.131 4.52205C377.102 6.96592 378.391 8.37226 380.67 8.38461Z" fill="#1B708A"/>
<path d="M380.392 6.59629C379.936 6.59629 379.479 6.59629 379.028 6.59629C379.318 5.1914 379.482 3.80683 378.871 2.309C379.546 2.309 380.286 2.256 381.014 2.32498C381.634 2.38378 382.337 2.49124 382.447 3.30659C382.558 4.11903 381.949 4.39202 381.325 4.61419C381.823 5.23714 382.315 5.85355 382.832 6.50118C382.116 6.77562 381.692 6.59411 381.397 5.91236C381.194 5.44478 380.843 5.04256 380.544 4.59096C381.168 4.35572 381.75 4.01884 381.502 3.21874C381.297 2.56239 380.729 2.54642 380.073 2.68364C380.192 3.97818 379.766 5.3003 380.392 6.59629Z" fill="#1B708A"/>
</svg>
