<svg width="123" height="92" viewBox="0 0 123 92" fill="none" xmlns="http://www.w3.org/2000/svg">
<path d="M121.956 86.3293C96.6638 85.4897 69.632 77.4175 49.3132 62.1721C39.4405 54.7635 30.298 46.5577 25.0368 35.1883C21.7629 28.1127 22.4718 20.7041 22.857 13.3147C24.9014 16.0181 27.2928 18.2297 31.3117 19.9387C37.7157 22.6634 45.3451 22.4874 52.0072 21.0031C54.2061 20.5133 56.5108 14.7205 53.4612 15.399C46.308 16.9914 39.2077 16.491 32.4482 13.6158C27.278 11.4148 25.3585 6.42138 22.5946 2.04495C22.5459 1.71417 22.5099 1.3834 22.4486 1.05262C22.0189 -1.31582 19.2931 0.919039 18.673 1.87108C18.3873 2.31 18.1376 2.77436 17.8604 3.22175C16.1461 4.93712 15.2573 6.82001 14.3621 9.51923C10.2035 17.8162 6.88299 26.6666 1.00173 33.7995C-0.972802 36.1955 0.114989 40.3154 3.01012 37.1221C7.10309 32.6078 10.1802 27.6547 13.014 22.2732C14.0743 20.2589 15.0774 16.8684 16.2583 13.6518C16.9588 12.2312 17.6889 10.8275 18.4402 9.43229C18.8614 18.6325 16.4721 27.9833 19.8561 37.033C23.9342 47.9338 31.4302 56.0124 40.4754 63.0626C63.1497 80.7337 90.4566 91.0365 119.425 91.9992C121.812 92.0776 124.536 86.4142 121.956 86.3293Z" fill="white"/>
</svg>
