<svg width="1307" height="153" viewBox="0 0 1307 153" fill="none" xmlns="http://www.w3.org/2000/svg">
<g style="mix-blend-mode:multiply">
<path d="M1307 0H26.4652L0 153H1280.53L1307 0Z" fill="#1A8782"/>
</g>
<path d="M130.441 20.4233C127.68 21.112 125.961 23.4358 124.615 25.7819C119.365 34.9459 121.573 49.5899 118.871 59.5639C115.364 72.5109 115.895 86.1961 112.632 99.3884C110.968 106.115 112.155 114.421 111.46 122.017C109.955 118.058 108.194 114.211 106.391 110.309C102.524 101.943 103.212 92.1518 100.535 83.58C100.043 82.0019 96.74 85.3563 96.3153 85.8022C91.4824 90.8784 89.1082 100.278 88.1023 107.001C87.0468 114.057 83.8903 120.939 81.4912 127.626C83.4929 122.052 82.9614 114.991 82.9614 108.964C82.9614 93.4153 84.1486 78.6053 81.2975 63.2206C79.8843 55.5951 80.0334 48.0068 80.0334 40.2896C80.0334 32.7335 78.6103 25.4351 78.5681 17.8368C78.5606 16.8533 72.9876 20.3812 73 22.4027C73.0969 40.1509 73.9313 59.004 77.3934 76.4574C79.266 85.9013 77.5846 96.1405 77.3934 105.676C77.222 114.288 75.4686 125.119 77.3934 133.433C77.5623 134.159 78.3694 133.74 78.8115 133.522C84.002 130.973 85.9441 126.536 87.8366 121.269C89.6272 116.279 92.4261 110.737 93.2109 105.49C93.6431 102.597 94.6489 96.9209 96.1167 92.2807C97.6937 98.5114 98.7566 105.423 99.3601 111.518C100.041 118.395 106.354 126.583 108.147 133.433C108.629 135.271 112.975 130.522 113.355 129.873C116.082 125.21 116.129 119.587 116.643 114.258C117.698 103.278 118.282 91.8744 120.944 81.1026C123.329 71.4654 122.72 61.5459 125.338 51.8839C126.142 48.9135 128.71 25.1279 126.567 25.663C128.199 25.2567 132.433 19.9253 130.441 20.4233Z" fill="white"/>
<path d="M169.683 120.261C163.115 126.896 150.347 124.646 143.639 119.825C136.752 114.875 136.526 105.102 136.558 97.506C143.907 96.4456 151.452 94.2457 158.483 97.117C161.346 98.2864 164.331 94.9815 165.618 92.7419C167.779 88.9862 161.875 77.756 159.513 74.0771C156.131 68.8076 147.282 72.4593 143.589 75.3529C131.127 85.1065 128.333 102.431 132.833 117.038C138.009 133.832 161.048 132.051 171.186 121.812C174.213 118.75 172.736 117.177 169.683 120.261ZM148.333 76.9385C152.622 76.2547 154.834 80.0204 156.352 83.2163C156.618 83.7737 157.996 87.7128 159.205 90.8219C157.43 90.4553 155.619 90.2769 152.848 90.6857C147.975 91.4041 141.875 92.3208 136.98 92.5635C136.961 92.5635 136.936 92.5809 136.916 92.5834C137.879 85.6714 140.999 78.1078 148.333 76.9385Z" fill="white"/>
<path d="M308.242 86.6548C304.263 76.8046 299.391 69.7118 290.065 64.3259C284.018 60.8327 277.891 61.6478 271.843 63.5653C286.089 52.7266 297.749 41.1026 282.754 22.0067C276.897 14.5497 258.442 19.009 252.119 23.451C244.825 28.5768 235.942 33.0064 232.052 41.3949C231.809 41.9202 232.206 41.883 232.877 41.5461C232.857 41.6427 232.795 41.7492 232.795 41.8409C233.567 73.75 235.519 105.525 235.296 137.452C235.296 137.955 236.759 137.261 238.187 136.201C240.084 139.419 248.615 142.263 251.235 143.571C260.131 148.008 269.256 148.3 279.033 147.842C290.678 147.297 299.505 140.989 305.575 131.521C314.083 118.249 313.937 100.754 308.242 86.6548ZM306.799 113.966C306.359 120.63 303.665 128.137 300.724 134.075C296.229 143.152 284.251 142.419 276.085 142.82C269.469 143.145 262.436 141.321 256.595 138.408C254.24 137.234 243.362 133.243 243.362 130.394C243.362 129.94 242.15 130.478 240.859 131.367C241.013 99.9511 239.121 68.6787 238.361 37.2775C238.356 37.0719 238.09 37.0917 237.727 37.2056C240.787 31.7603 251.774 26.9813 257.009 25.153C264.189 22.6434 274.183 23.0869 279.15 29.4117C287.023 39.4353 286.183 50.6258 274.692 59.0242C270.86 61.8262 266.859 64.3655 263.069 67.2245C262.615 67.5663 258.996 72.105 261.144 71.2775C275.147 65.8867 285.88 67.2393 295.936 78.5537C303.707 87.2915 307.554 102.54 306.799 113.966Z" fill="white"/>
<path d="M273.16 33.8586C267.174 31.2796 260.67 33.269 255.797 37.1511C255.293 37.5524 254.498 38.152 253.651 38.8432C252.271 39.2198 248.593 41.8656 248.632 43.5057C248.771 49.0972 250.16 54.5426 250.299 60.1341C250.301 60.2827 250.435 60.3174 250.629 60.2976C250.704 60.5206 251.019 60.5478 251.719 60.2257C255.715 58.39 258.671 54.9414 262.649 53.1924C265.908 51.7604 269.136 49.9841 271.719 47.4968C275.442 43.9021 279.997 36.8067 273.16 33.8586ZM264.447 48.8247C261.41 50.5391 258.849 52.9644 255.844 54.6887C255.792 50.0015 255.355 45.4356 255.094 40.783C259.369 37.4979 267.661 36.5169 270.912 41.4123C273.656 45.5471 266.764 47.5166 264.447 48.8247Z" fill="white"/>
<path d="M253.999 77.8576C250.798 80.7884 252.325 82.317 255.499 79.4085C259.17 76.0466 271.525 80.1319 274.943 81.6951C279.788 83.9124 283.401 88.3148 286.421 92.514C290.119 97.6546 291.16 103.843 292.851 109.774C295.894 120.444 286.161 129.076 275.996 129.098C271.061 129.11 265.783 127.673 261.596 125.102C260.459 124.636 259.249 124.46 257.968 124.572C254.074 124.086 255.867 117.177 255.867 115.11C255.867 103.608 256.649 92.0879 256.686 80.5481C256.686 80.5332 256.699 80.5184 256.699 80.5035V79.676C256.699 78.7024 251.131 82.2179 251.131 84.2419V85.0743L251.133 85.0768C251.148 99.7059 251.538 114.665 249.464 129.14C249.469 129.4 249.603 129.539 249.864 129.551C261.916 131.055 271.975 138.227 284.109 131.365C292.181 126.799 297.903 121.185 299.097 111.823C301.75 91.0721 273.832 59.6883 253.999 77.8576Z" fill="white"/>
<path d="M380.666 53.0712C380.324 46.4887 380.331 40.1267 380.401 33.5343C380.453 28.577 378.382 23.8724 378.382 18.9844C378.347 18.8853 378.312 18.7862 378.277 18.6871C374.217 17.0669 371.4 18.5732 367.146 18.5732C365.39 18.5732 363.023 21.1076 362.336 22.5445C359.129 29.2607 361.141 38.6501 361.039 45.9981C360.89 56.8244 360.071 67.507 358.816 78.2491C357.699 87.8119 358.643 97.9693 358.643 107.599C358.643 111.538 354.669 129.212 349.103 120.115C344.933 113.297 342.882 105.236 340.923 97.5432C337.925 85.7631 338.516 73.5173 337.955 61.4869C337.406 49.7093 339.932 38.5585 339.323 26.8799C338.941 19.5344 338.221 16.0759 330.055 16.0759C326.198 16.0759 324.05 17.4484 321.65 20.3718C320.555 21.7071 320.329 22.3983 320.565 22.6559C320.396 22.973 320.289 23.2778 320.304 23.5478C321.067 37.456 319.415 51.7086 319.269 65.6688C319.1 82.0346 320.846 98.6209 322.972 114.836C324.3 124.976 326.836 134.372 334.758 141.438C342.274 148.139 357.52 143.901 365.872 141.034C382.591 135.297 382.504 110.926 382.546 97.132C382.594 82.4954 381.426 67.6928 380.666 53.0712ZM362.924 137.719C351.244 140.355 341.613 140.08 334.525 129.886C328.16 120.729 328.063 107.47 327.015 96.8322C325.694 83.4046 324.75 70.0786 324.889 56.5816C325.008 44.9923 326.322 33.2494 325.967 21.6675C326.377 21.722 326.834 21.6823 327.375 21.4668C331.676 21.4247 333.765 23.5032 333.643 27.7049C334.344 33.4921 334.284 39.9285 332.931 45.5819C330.368 56.3042 332.66 68.3419 332.809 79.2525C332.948 89.4148 335.759 133.389 353.139 128.434C367.064 124.465 364.213 103.187 364.213 92.9773C364.213 81.4747 365.37 70.3263 365.88 58.8906C366.138 53.0662 366.476 47.2616 366.61 41.4323C366.714 36.8416 365.47 29.4515 366.178 23.9269C369.247 23.9714 372.814 24.3282 372.814 26.045C372.814 28.5621 374.058 31.8298 374.48 34.3592C376.345 45.5175 374.984 58.1077 375.607 69.484C376.529 86.3106 385.189 132.693 362.924 137.719Z" fill="white"/>
<path d="M413.387 83.8333C413.387 62.0618 418.498 38.7122 415.249 17.0397C415.776 16.2395 416.275 15.2411 415.488 15.2486C410.027 15.3006 404.59 15.8506 399.134 16.0166C399.248 15.3204 398.52 15.4938 397.557 16.0661C397.42 16.0686 397.286 16.0785 397.149 16.0785C395.716 16.0934 394.187 17.7458 393.33 18.712C393.168 18.8953 391.119 21.4818 392.381 21.4694C392.711 21.4669 393.039 21.4446 393.37 21.4372C389.403 39.1606 392.066 60.0526 391.234 78.0907C390.725 89.1251 392.041 100.655 392.709 111.679C393.357 122.36 392.197 133.766 393.958 144.312C393.963 144.572 394.097 144.711 394.358 144.723C398.193 145.816 405.027 145.157 409.048 144.515C411.082 144.191 413.419 141.864 414.124 139.981C415.965 135.071 415.048 128.878 415.048 123.74C415.056 110.461 413.387 97.1841 413.387 83.8333ZM403.82 139.54C397.04 140.668 399.246 131.977 399.089 127.468C398.632 114.296 397.552 101.17 397.552 87.9904C397.552 75.9105 397.547 63.7737 397.554 51.6443C397.559 42.1558 396.747 31.057 398.158 21.2514C401.955 21.0383 405.747 20.7583 409.55 20.6741C412.674 40.1689 407.322 60.2781 407.508 79.7728C407.618 91.4043 407.342 103.254 408.407 114.838C409.046 121.76 410.958 131.521 409.781 139.33C407.806 139.303 405.842 139.206 403.82 139.54Z" fill="white"/>
<path d="M484.232 123.739C484.227 123.479 484.093 123.34 483.832 123.328C473.128 121.024 461.396 121.665 450.493 121.665C443.691 121.665 446.726 94.5054 446.726 90.4226C446.726 76.5986 445.059 62.9431 445.059 49.1216C445.059 37.0096 446.065 24.3723 445.059 12.332C445.054 12.0719 444.92 11.9332 444.659 11.9208C439.603 11.9208 434.705 11.0884 429.656 11.0884C428.727 11.0884 427.488 12.2032 426.48 13.4122C425.606 14.0291 424.774 14.755 424.438 15.248C420.889 20.4629 422 26.379 422.283 32.5279C422.886 45.6136 422.822 58.6721 422.822 71.7702C422.822 84.4273 424.488 96.958 424.488 109.657C424.488 121.17 423.654 132.596 423.654 144.101C423.659 144.361 423.793 144.5 424.054 144.512C441.85 144.45 460.482 145.003 478.122 143.474C487.974 142.622 484.284 129.09 484.232 123.739ZM464.662 138.294C457.834 137.538 450.714 138.294 443.825 138.294C438.319 138.294 429.222 142.141 429.222 133.686C429.222 125.567 430.056 117.503 430.056 109.367C430.056 93.8291 428.39 78.4864 428.39 62.9852C428.39 54.3044 428.472 45.6211 428.303 36.9402C428.206 31.8788 425.745 22.2912 427.364 16.4297C431.993 16.338 439.454 16.4421 439.804 20.6388C440.462 28.5195 439.491 37.1483 439.491 45.0859C439.491 63.1215 441.158 80.9663 441.158 98.9895C441.158 105.186 437.07 125.087 445.725 127.054C453.17 128.746 462.968 127.383 470.729 127.886C473.307 128.052 478.649 126.774 478.696 131.416C478.721 134.01 479.163 136.51 479.379 139.067C474.869 139.941 467.778 138.638 464.662 138.294Z" fill="white"/>
<path d="M542.572 44.7568C540.588 36.8365 538.983 29.0797 535.149 21.8159C531.23 14.3862 525.582 11.1135 519.13 6.21317C512.514 1.18897 500.762 -3.03006 493.624 2.89096C491.953 4.27831 490.453 6.11655 490.396 8.41311C490.17 17.6663 490.18 26.9764 490.57 36.2246C491.312 53.7746 485.945 71.4881 489.248 89.0133C492.296 105.169 491.834 121.638 493.319 137.94C492.015 139.446 491.039 141.188 491.561 141.188H492.395C492.462 141.188 492.539 141.138 492.609 141.128C492.946 141.118 493.277 141.089 493.612 141.071C493.632 141.25 493.642 141.428 493.662 141.606C493.716 142.104 494.752 141.696 495.909 140.94C518.576 138.666 535.439 120.472 541.884 98.9874C546.958 82.0914 546.849 61.8237 542.572 44.7568ZM499.103 135.67C497.946 124.703 497.479 113.307 497.109 102.319C496.744 91.4114 493.654 80.932 493.992 69.7861C494.337 58.2958 496.138 46.8601 496.259 35.407C496.314 30.1499 495.899 24.8731 495.899 19.6085V10.8781C495.899 5.65575 493.498 5.67062 498.127 5.67062C507.78 5.67062 520.173 14.0418 526.243 21.3849C534.307 31.1434 536.711 45.941 538.879 58.0531C544.266 88.1413 535.824 133.171 499.103 135.67Z" fill="white"/>
<path d="M507.445 19.2193C505.794 18.8526 503.32 22.0534 502.635 23.193C499.682 28.1008 501.164 34.0367 501.164 39.5638C501.164 48.7649 499.498 57.8223 499.498 66.9789C499.498 75.848 498.452 85.4752 499.915 94.2205C501.341 102.755 502.289 112.152 502.833 120.825C502.903 121.92 508.523 118.237 508.401 116.26C507.44 100.905 505.068 86.2977 505.068 70.8065C505.068 62.4378 505.61 54.4134 506.39 46.0893C506.864 41.0156 505.25 32.0547 506.029 25.6011C520.851 31.0563 524.656 48.5543 527.1 62.4105C530.529 81.8483 529.064 107.145 510.319 117.83C509.069 118.544 504.577 124.296 507.589 122.577C515.176 118.251 520.128 113.485 525.977 106.932C533.078 98.9771 533.204 88.1583 533.395 78.0727C533.775 57.8843 532.663 24.8083 507.445 19.2193Z" fill="white"/>
<path d="M741.202 89.3801C734.164 97.9817 714.849 102.035 711.889 88.1711C709.9 78.8585 715.575 66.6003 717.827 57.6717C718.093 56.6188 717.214 56.7104 716.498 57.1366C715.232 57.8724 713.97 58.6205 712.721 59.3861C711.601 60.0921 703.497 62.4977 700.882 63.1022C700.713 62.6934 700.524 62.297 700.311 61.918C699.563 60.595 695.53 65.2501 695.205 65.7753C695.041 66.0429 694.874 66.308 694.71 66.5755C694.609 66.739 694.092 67.6532 694.457 67.8786C694.81 68.0991 695.165 68.2329 695.518 68.3815C698.543 77.0252 695.066 102.094 683.954 93.6115C681.18 91.4933 679.742 88.8797 679.104 86.0306C681.034 79.5002 681.208 71.4461 681.245 67.2023C681.257 65.9413 676.069 69.9423 675.769 71.3222C674.41 77.5579 672.396 83.4517 673.531 89.5833C672.749 90.5346 671.256 90.5445 668.221 88.8301C658.866 83.5458 664.171 72.7666 663.741 64.7051C663.701 63.9519 662.643 64.4251 662.323 64.6159C657.227 67.6284 652.384 70.2247 646.843 72.4371C646.706 72.4916 646.535 72.5337 646.371 72.5783C645.115 71.2504 643.428 70.2941 641.153 69.9052C637.905 69.3502 634.756 70.0612 632.332 71.7979C632.364 70.5468 632.307 69.2908 632.071 68.0322C631.736 66.2435 627.211 70.9258 626.863 71.5923C622.437 80.0204 620.778 87.1257 613.087 93.2275C612.799 83.1692 612.903 73.1035 612.903 63.0427C612.903 61.9824 607.462 65.7134 607.335 67.6086C607.333 71.7508 606.528 75.7593 604.926 79.634C602.52 79.9758 600.111 80.3177 597.704 80.6621C596.413 78.0385 595.613 75.2861 595.307 72.4049C594.436 67.2618 593.338 62.297 592.066 57.2233C591.885 56.4974 591.105 56.9161 590.648 57.1341C588.013 58.3802 572.34 69.3576 578.271 72.0655C580.2 72.9474 584.373 67.2419 583.63 66.9025C581.991 66.1544 586.315 63.1493 586.702 62.7776C587.335 62.1657 588.453 69.5707 589.002 71.7682C590.626 78.2491 589.414 86.1471 596.825 88.8648C601.226 90.4801 604.745 86.8061 607.355 81.7299C607.372 86.8432 607.415 91.9566 607.531 97.07C604.685 99.0272 601.931 101.227 599.9 103.98C595.124 110.453 585.316 133.798 599.428 135.301C605.671 135.965 611.989 127.195 612.95 122.052C614.426 114.147 613.579 105.976 613.231 97.9916C613.196 97.1939 613.186 96.3962 613.159 95.5984C616.41 93.0888 619.606 90.5792 621.978 87.7153C624.042 85.223 625.537 82.4879 626.858 79.6786C626.58 88.7335 624.981 98.7918 636.072 102.939C640.925 104.755 647.829 102.738 648.495 96.4829C649.051 91.2629 650.928 81.6357 648.244 75.4595C652.722 73.485 658.272 71.0918 658.329 72.167C658.781 80.62 653.943 91.6643 665.551 95.4572C669.624 96.7876 672.632 95.9403 674.86 93.8395C674.922 93.9807 674.971 94.1219 675.041 94.2656C677.448 99.3666 684.776 104.591 690.26 100.556C695.719 96.5349 698.031 93.0318 699.491 86.1842C700.564 81.1526 702.444 73.931 701.952 67.896C704.573 66.905 711.69 64.3186 711.392 65.5028C708.904 75.3629 704.759 85.4187 706.954 95.7C710.585 112.702 738.291 96.5671 744.073 89.499C747.319 85.5376 743.022 87.1554 741.202 89.3801ZM607.842 106.663C608.055 111.598 608.242 116.535 608.108 121.475C608.413 125.689 605.768 128.013 600.168 128.444C596.075 125.714 598.745 114.338 599.507 111.345C600.662 106.814 603.851 103.259 607.626 100.016C607.688 102.23 607.745 104.445 607.842 106.663ZM643.59 95.0509C643.279 96.9015 642.966 98.4227 643.309 98.4797C639.166 97.8083 636.184 93.6809 633.946 90.604C631.289 86.9498 631.17 83.251 631.54 79.5126C634.686 79.9164 637.532 79.2326 640.706 78.3284C644.908 82.4037 644.489 89.6749 643.59 95.0509Z" fill="white"/>
<path d="M842.011 51.8692C836.798 47.3355 830.097 43.716 822.592 41.6573C814.275 39.3756 804.981 40.5301 796.937 38.5828C795.561 38.2508 791.866 41.5805 793.035 41.8629C795.628 42.4897 798.365 42.5392 801.114 42.6037C800.978 42.7895 800.891 42.9678 800.891 43.1313C800.891 54.4011 800.799 65.6857 799.768 76.9332C799.301 82.0292 799.734 87.103 799.326 92.204C799.095 95.0877 798.226 97.902 797.995 100.806C797.988 100.912 797.312 104.356 796.828 106.37C793.324 105.646 789.983 104.797 786.953 103.917C785.294 103.434 782.041 106.905 782.57 107.059C796.652 111.156 813.03 113.294 827.696 109.519C839.502 106.479 848.254 97.6097 851.91 89.127C857.274 76.6755 853.358 61.7367 842.011 51.8692ZM827.894 107.091C819.378 109.283 809.032 108.619 799.562 106.895C799.955 106.63 800.263 106.385 800.382 106.224C802.475 103.417 802.443 99.3513 802.699 96.1579C803.168 90.2815 804.373 84.7395 804.085 78.7987C803.509 66.9021 805.185 54.7678 805.406 42.8068C805.831 42.844 806.255 42.8811 806.675 42.9356C813.602 43.8448 820.173 44.9547 826.315 47.613C838.422 52.8577 845.18 62.1257 848.336 71.8446C852.633 85.0839 846.935 102.19 827.894 107.091Z" fill="white"/>
<path d="M922.228 88.5078C916.886 80.7238 910.089 77.0002 900.376 75.1422C911.487 72.5186 922.852 67.5266 924.041 58.9349C925.315 49.7264 915.481 45.7774 906.465 41.3181C896.263 36.2716 883.028 38.4641 871.791 39.7622C870.112 39.9555 867.511 43.0324 867.963 42.9779C874.011 42.2793 879.636 41.4989 885.728 41.4147C885.686 41.5311 885.663 41.6426 885.696 41.7392C887.191 46.1787 886.404 51.2005 886.021 55.7341C885.403 63.0821 883.689 70.0437 883.689 77.461C883.689 84.2095 883.304 90.4476 882.085 97.1565C881.052 102.842 881.042 108.615 880.123 114.275C879.46 114.761 878.96 115.274 879.008 115.665C879.107 116.468 878.933 116.399 879.76 116.835C881.054 117.521 883.972 114.726 884.144 113.931C885.38 108.193 885.025 102.352 886.15 96.5669C887.412 90.0686 888.559 83.7958 888.232 77.2331C901.099 78.3901 909.734 81.2936 916.524 89.6797C922.944 97.6074 927.782 107.941 929.16 117.154C929.267 117.86 933.799 115.579 933.625 114.429C932.299 105.533 927.682 96.4529 922.228 88.5078ZM888.207 76.3834C887.844 69.2484 888.641 62.438 890.166 55.3873C891.073 51.2029 891.612 46.1069 890.809 41.6401C897.145 42.3833 902.437 44.7567 908.184 47.1251C914.47 49.7165 919.385 54.3418 919.832 59.7971C920.614 69.3302 901.65 72.9893 891.852 73.9927C891.053 74.0769 889.061 75.4568 888.207 76.3834Z" fill="white"/>
<path d="M1012.23 107.879C1011.28 112.98 1010.84 111.622 1005.17 111.622H959.039C959.071 111.543 959.116 111.459 959.128 111.387C960.951 100.565 961.018 89.3105 961.018 78.3628C968.124 78.8261 975.102 79.6065 982.305 79.6065C983.854 79.6065 986.591 76.5766 985.908 76.5766C977.814 76.5766 970.001 75.5881 961.977 75.1744C961.696 75.1595 961.364 75.2759 961.023 75.4395C961.031 68.8322 961.306 62.3587 962.28 55.7812C963.04 50.6455 962.747 45.3413 964.751 40.3543H981.676C987.13 40.3543 993.22 41.484 998.681 41.9894C1006.3 42.6955 1010.7 43.4015 1011.61 49.9345C1011.7 50.6504 1015.81 48.3811 1015.81 47.3679V46.8996C1015.81 46.8575 1015.75 46.855 1015.7 46.8402C1014.07 38.1717 1003.34 38.8381 993.468 38.2559C985.873 37.8075 978.639 37.322 970.96 37.322C968.23 37.322 964.942 36.9776 962.27 37.3641C963.226 37.2253 954.976 38.3427 954.015 37.8521C952.828 37.2476 949.224 40.3766 949.964 40.7532C952.569 42.0786 958.617 40.4187 961.659 40.3593C959.28 44.6353 958.587 49.8354 958.152 54.369C957.464 61.5238 956.814 68.6786 956.814 75.8631C956.814 87.6754 956.97 99.8321 955.254 111.615H953.791C952.242 111.615 949.505 114.645 950.188 114.645H1004.98C1012.74 114.645 1015.44 110.631 1016.44 105.305C1016.51 104.933 1012.45 106.712 1012.23 107.879Z" fill="white"/>
<path d="M1101.93 114.808C1098.97 114.808 1090.34 115.879 1088.98 112.935C1087.76 110.307 1087.08 107.185 1086.17 104.482C1083.54 96.7257 1080.69 89.0358 1079.34 81.0857C1077.92 72.6873 1074.87 64.5812 1073.98 56.0614C1073.41 50.5541 1072.76 41.846 1067.53 37.3965C1067.57 37.1166 1067.6 36.8391 1067.6 36.584C1067.6 36.3957 1067.07 36.522 1066.41 36.8044C1065.07 36.9853 1062.22 39.2125 1062.92 39.7253C1063.08 39.8368 1063.21 39.9681 1063.35 40.0845C1062.94 42.2399 1061.46 45.3862 1060.75 46.942C1057.57 53.9531 1056.31 61.3531 1054.26 68.5575C1052.11 76.126 1050.19 83.8381 1047.83 91.362C1046.57 95.3755 1045.27 99.3517 1043.75 103.313C1042.73 105.959 1042.11 109.311 1040.43 111.954C1037.85 111.781 1035.27 111.62 1032.68 111.593C1031.16 111.575 1028.45 114.561 1029.14 114.568C1035.35 114.635 1041.48 115.418 1047.69 115.485C1049.2 115.502 1051.92 112.517 1051.23 112.509C1048.41 112.48 1045.6 112.296 1042.8 112.105C1047.14 107.034 1048.6 99.7481 1050.34 94.0377C1051.4 90.5916 1052.39 87.143 1053.38 83.692C1060.5 83.3154 1067.77 82.9116 1074.87 82.9116C1075.3 84.6681 1075.71 86.427 1076.04 88.1959C1077.49 95.9032 1080.49 104.227 1083.87 111.585C1084.59 113.136 1084.08 115.549 1085.51 116.874C1087.79 118.978 1094.96 117.779 1098.39 117.779C1099.91 117.784 1102.6 114.808 1101.93 114.808ZM1054.32 80.8603C1054.27 80.8628 1054.22 80.8875 1054.18 80.895C1055.34 76.7998 1056.47 72.7046 1057.64 68.607C1059.88 60.7288 1061.41 52.588 1064.75 44.918C1065.03 44.2639 1065.39 43.491 1065.75 42.6734C1069.88 48.5548 1069.69 57.798 1070.43 63.5878C1071.15 69.1372 1072.71 74.5602 1074.13 80.0031C1067.54 80.1369 1060.86 80.5234 1054.32 80.8603Z" fill="white"/>
<path d="M1202.64 113.458H1194.1C1194.11 113.371 1194.13 113.282 1194.1 113.203C1188.97 99.5845 1189.19 85.3097 1187.26 71.3445C1186.21 63.7463 1185.43 56.3537 1185.09 48.7183C1184.91 44.5488 1185.16 39.0464 1183.11 35.1123C1182.71 34.3443 1179.15 37.1438 1178.93 37.4609C1176.28 41.2117 1176.34 46.0798 1175.23 50.2146C1173.19 57.7831 1170.2 64.3285 1169.55 72.0952C1168.94 79.2846 1166.48 86.9448 1164.39 93.9583C1163.11 98.274 1162.66 102.944 1161.59 107.431C1159.19 96.3243 1156.94 85.0694 1153.87 74.035C1152.07 67.5763 1149.45 61.2317 1147.64 54.7755C1145.89 48.5795 1144.07 41.4793 1140.83 35.6202C1140.75 35.5979 1140.67 35.5731 1140.59 35.5508H1139.91C1138.7 35.5508 1135.34 37.5674 1135.68 38.5807C1134.42 50.5045 1133.74 62.4877 1131.75 74.3744C1129.56 87.4675 1129.68 100.702 1127.33 113.721C1125.62 113.845 1123.9 113.944 1122.18 113.966C1121 113.981 1119.76 114.977 1119.06 115.569C1118.92 115.683 1117.25 117.246 1118.28 117.246H1119.64C1119.83 117.246 1120.02 117.211 1120.21 117.164C1122.5 117.07 1124.78 116.882 1127.06 116.701C1127.12 116.701 1127.18 116.701 1127.26 116.686C1129.94 116.471 1132.62 116.267 1135.33 116.235C1136.5 116.22 1137.75 115.224 1138.45 114.632C1138.58 114.523 1140.26 112.943 1139.23 112.955C1136.72 112.987 1134.22 113.178 1131.73 113.381C1131.7 113.26 1131.61 113.186 1131.47 113.153C1134.09 100.149 1132.67 86.8977 1135.79 73.869C1138.01 64.6357 1138.65 55.1447 1139.37 45.7231C1141.06 50.6234 1142.73 56.5147 1143.08 57.5527C1145.24 63.942 1147.42 70.3783 1149.31 76.8122C1152.75 88.5278 1154.95 100.628 1157.51 112.447H1152.86C1151.18 112.447 1148.22 115.727 1148.96 115.727H1168.05C1169.73 115.727 1172.69 112.447 1171.95 112.447H1163.35C1166.06 107.485 1166.38 101.755 1167.38 96.4902C1168.6 90.0292 1171.24 83.7985 1172.28 77.2853C1173.45 69.8655 1174.4 62.1013 1177.18 54.9192C1178.15 52.4071 1179.09 49.9966 1179.78 47.4374C1180.01 46.5728 1180.18 45.6141 1180.35 44.6107C1180.66 47.8016 1180.51 51.1338 1180.63 53.849C1180.97 61.5736 1182 69.0678 1183.06 76.7552C1184.75 88.9961 1184.73 101.45 1188.66 113.461H1184.91C1183.3 113.461 1180.16 116.716 1181 116.741C1183.21 116.803 1185.33 116.946 1187.4 116.741H1198.73C1200.42 116.738 1203.38 113.458 1202.64 113.458Z" fill="white"/>
<path d="M1267.6 81.0683C1267.27 63.8131 1244.97 63.6893 1230.26 56.2174C1225.01 53.5492 1222.2 50.4326 1222.2 45.6165C1222.2 36.1726 1238.93 35.6895 1246.8 36.9604C1252.73 37.9192 1256.29 41.3603 1261.31 39.6831C1261.28 40.8252 1261.06 41.9698 1261.39 43.1292C1261.69 44.1821 1265.01 41.6477 1265.3 41.3554C1266.94 39.698 1267.66 37.9415 1265.86 36.1231C1265.83 36.0983 1265.79 36.0934 1265.76 36.076C1265.71 35.4368 1265.57 34.7878 1265.18 34.099C1264.92 33.6457 1260.32 35.9596 1260.77 37.1686C1258.27 36.7449 1255.35 35.0677 1253.81 34.5078C1250.01 33.1378 1245.86 32.9619 1241.74 33.1304C1235.29 33.393 1229.47 35.9868 1224.76 39.0563C1220.89 41.5759 1218.55 44.6776 1217.64 48.3962C1215.94 55.4098 1226.54 60.3522 1233.73 62.7999C1240.61 65.1386 1248.04 66.0453 1254.28 69.422C1262.81 74.0424 1262.41 83.3426 1263.43 90.1827C1264.14 94.8477 1264.57 99.1212 1262.91 103.761C1260.3 111.092 1250.48 113.215 1241.75 113.461C1235.95 113.624 1228.65 114.717 1226.58 109.388C1225.75 107.26 1227.13 105.426 1225.63 103.41C1225.04 102.614 1221.71 105.421 1221.45 105.758C1219.21 108.716 1220.28 114.144 1221.45 117.303C1221.45 117.462 1221.56 117.546 1221.77 117.553C1222.13 117.62 1222.49 117.685 1222.85 117.751C1223.63 117.895 1224.99 117.011 1225.93 116.121C1227.38 116.639 1229.06 116.798 1231.23 116.964C1238.73 117.538 1249.01 116.471 1255.29 113.151C1270.88 104.904 1267.85 93.7626 1267.6 81.0683Z" fill="white"/>
</svg>
