<svg width="475" height="64" viewBox="0 0 475 64" fill="none" xmlns="http://www.w3.org/2000/svg">
<path d="M38.1553 47.5404L37.555 47.6157C37.471 47.4881 37.3787 47.3961 37.2737 47.371C34.4821 46.6997 30.8634 47.2204 27.9647 47.2204C27.1482 47.2204 26.3359 47.2602 25.5194 47.279C22.5473 47.1263 19.6696 46.9946 17.6168 46.9946C16.985 46.9946 16.4938 47.0092 16.1034 47.0301C16.1936 40.604 16.0971 33.7157 16.0068 27.0407C15.8893 18.7304 15.7696 10.14 15.9984 2.24164L16.0194 1.52019L15.354 1.23997C13.0536 0.273854 9.18304 0.171387 7.6256 0.171387C5.34611 0.171387 2.38444 0.382594 0.913057 0.980666L0.245581 1.25252L0.256076 1.96979C0.310649 5.84053 0.369421 9.31813 0.419796 12.5364C0.692664 28.9395 0.854285 38.8432 0 60.1919V62.7557L1.039 62.7724C7.25618 62.8686 12.2622 62.9041 16.3133 62.9041C24.1446 62.9041 28.4328 62.7724 30.9936 62.6929C32.8826 62.6365 33.6866 62.5946 34.713 62.6888L35.3343 62.6929C35.8968 62.6929 36.7469 62.6929 37.3703 62.0363C38.1721 61.1978 38.2665 59.8301 38.0587 55.3906C38.149 53.6549 38.1763 51.8398 38.0902 50.3718C38.1427 49.8156 38.1553 49.2489 38.1553 48.7323V47.5404ZM16.5022 49.115C16.9766 49.1108 17.4509 49.1067 17.9253 49.0983C20.4336 49.1129 24.0837 49.3074 27.6331 49.4935C31.025 49.6713 34.2092 49.8218 36.0269 49.8302C36.0227 49.8908 36.0143 49.9515 36.0101 50.0121C30.5612 49.8407 25.0807 49.7486 19.636 49.8281C14.1324 49.9076 7.85439 48.8369 2.4747 49.8804C2.49149 49.3053 2.50618 48.7532 2.52088 48.1928C4.16228 48.2869 6.07025 47.6345 7.60671 47.4233C9.75816 47.1284 11.8383 47.21 13.9876 47.2162C13.9834 47.5487 13.9834 47.8917 13.9771 48.22V49.6441L15.3415 49.2259C15.4128 49.2049 15.6878 49.1464 16.5022 49.115ZM9.2649 40.7922C7.16592 40.8926 5.07324 41.1602 2.97216 41.1602C2.8819 41.1602 2.77695 41.2042 2.66781 41.2648C2.69509 39.548 2.71398 37.9085 2.72658 36.292C3.26602 36.3192 3.84743 36.4008 4.20216 36.4008C5.30623 36.4008 6.32633 36.3631 7.4199 36.2C9.56296 35.8801 11.7438 36.1059 13.8953 35.9302C13.9162 35.9282 13.9414 35.9114 13.9645 35.9072C13.975 37.507 14.0002 39.1067 14.0023 40.6981C12.4784 40.9449 10.7048 40.7232 9.2649 40.7922ZM14.0002 42.0908C13.9981 43.2556 14.0107 44.4455 14.0002 45.5935C12.4365 45.5851 10.9147 45.5747 9.31318 45.7294C7.4136 45.9135 4.86334 46.9277 2.99315 46.4739C2.86721 46.4425 2.71608 46.4927 2.56076 46.5722C2.59434 45.2526 2.61743 44.0021 2.64262 42.76C4.5317 42.7307 6.44387 42.5885 8.31826 42.4128C10.1381 42.2435 12.2119 42.6011 14.0002 42.0908ZM13.8953 27.2603C13.8953 27.2603 13.8953 27.2582 13.8953 27.2603C13.9267 29.6129 13.933 31.978 13.9519 34.3451C12.0943 34.4455 10.2304 34.4351 8.37074 34.5752C7.27507 34.6567 6.25496 34.7759 5.1509 34.7759C4.37848 34.7759 3.5116 34.6191 2.73707 34.7571C2.74967 32.3167 2.74547 29.9453 2.72868 27.5593C4.26513 27.7664 6.10384 27.4861 7.53744 27.4213C9.65531 27.3272 11.7921 27.5217 13.8953 27.2603ZM2.42642 51.363C7.05048 50.6625 12.8353 51.1497 17.3733 51.4655C23.4351 51.8879 29.5851 51.4488 35.6617 51.6495C35.7352 51.6516 35.8149 51.6286 35.8947 51.5972C35.88 51.8398 35.859 52.0803 35.8506 52.3208C31.1657 51.89 26.2394 52.7223 21.5691 52.7223C15.4485 52.7223 8.40432 51.591 2.38024 52.7871C2.39704 52.2978 2.40963 51.8377 2.42642 51.363ZM2.32987 54.2697C7.6277 53.4375 13.6749 54.2948 18.9538 54.3408C24.4552 54.391 30.4352 53.2806 35.8821 54.0878C35.901 54.4517 35.9199 54.8364 35.9388 55.2212C24.7113 55.2672 13.5027 56.0723 2.269 56.0786C2.28999 55.4575 2.30888 54.872 2.32987 54.2697ZM7.6256 2.2751C10.1675 2.2751 12.4218 2.52185 13.8659 2.94636C13.677 10.2487 13.7693 18.078 13.8764 25.7191C12.3756 25.8216 10.8559 25.7672 9.35516 25.7798C7.46818 25.7944 4.86754 26.3757 3.06031 25.7756C2.95956 25.7421 2.83992 25.7672 2.71608 25.8153C2.6804 21.6288 2.61113 17.3419 2.53137 12.5009C2.48309 9.50424 2.43062 6.28385 2.37815 2.72888C3.43603 2.48212 5.27264 2.2751 7.6256 2.2751ZM35.8926 60.5474C35.8464 60.5662 35.7142 60.5892 35.3322 60.5892L35.0593 60.5871L34.8242 60.5913C33.9804 60.5035 33.0044 60.5265 30.9264 60.5913C27.1335 60.7105 19.5373 60.9426 2.11158 60.6854V60.2337C2.11367 60.1814 2.11577 60.1313 2.11787 60.079C7.0148 60.4408 12.3399 59.8197 17.2095 59.6858C23.4561 59.5144 29.6439 59.5185 35.8863 59.5185C35.9346 59.5185 35.9891 59.4935 36.0437 59.4746C36.0227 60.0121 35.9786 60.4136 35.8926 60.5474ZM21.206 58.0066C18.5046 58.107 15.7927 58.1133 13.0913 58.0631C9.4895 57.9962 5.75541 58.7657 2.18504 58.3705C2.19344 58.1363 2.20183 57.9188 2.21023 57.6867C13.4692 57.6386 24.7008 56.8293 35.9535 56.8293C35.9702 56.8293 35.9891 56.8168 36.0059 56.8147C36.0206 57.1785 36.0374 57.5549 36.0437 57.8937C31.0733 57.8853 26.1869 57.8205 21.206 58.0066Z" fill="white"/>
<path d="M80.6912 48.8807C79.902 48.3474 78.0759 48.8138 77.167 48.8138C75.2318 48.8138 73.1538 48.7803 71.2374 49.0187C71.2353 49.0187 71.2332 49.0208 71.2311 49.0208C69.575 48.9748 67.9336 48.9162 66.3216 48.8535C63.5677 48.7469 60.7299 48.636 57.8606 48.6151C57.6906 46.6766 57.4555 43.1195 57.7808 40.2275C59.7413 40.4512 61.9389 40.2358 63.7944 40.0581C64.6277 39.9786 65.6142 39.9682 66.4664 39.7109C67.5033 39.7444 68.5864 39.0125 68.7375 37.9356C68.8509 37.1221 68.6956 36.3086 68.6053 35.4994C68.5318 34.8302 68.5339 34.1464 68.5486 33.4646C68.7921 31.4613 68.7333 29.2384 68.6809 27.2351C68.6704 26.8273 68.8257 25.604 68.4857 25.2652C68.1309 24.9118 67.264 25.0226 66.7057 25.0519C66.2209 25.0101 65.6919 25.0143 65.1294 25.0749C64.5983 25.0686 64.0715 25.0582 63.5405 25.054C61.6724 25.0394 59.7602 25.0143 57.9047 24.9181C57.7892 24.8825 57.6675 24.87 57.5542 24.8282C57.4912 24.8051 57.4177 24.8114 57.3422 24.8219C57.0777 23.2075 57.1868 21.4321 57.3065 19.5668C57.3653 18.655 57.4261 17.7203 57.4387 16.7918C58.8933 16.681 60.5032 16.6266 62.4406 16.6266C63.5635 16.6266 64.6865 16.6433 65.8053 16.6601C66.9303 16.6768 68.0575 16.6935 69.1762 16.6935C70.1753 16.6935 71.25 16.6684 72.3478 16.6245C73.1475 16.6454 73.9493 16.6371 74.7532 16.6371C75.6957 16.6371 76.6759 16.5555 77.5994 16.7605C78.0213 16.8546 78.4936 16.8608 78.8777 16.6371C79.3143 16.384 79.6145 16.0348 79.8181 15.627L80.1014 15.535V14.6902C80.1014 13.379 80.1665 12.0616 80.2315 10.7379C80.3659 8.03613 80.5044 5.24442 80.1014 2.63465C80.1014 1.37368 79.4843 1.33813 72.8305 1.33813C65.7402 1.33813 52.9112 1.62044 43.7156 2.09304L42.7689 2.14114L42.7144 3.08425C41.965 16.2251 42.1917 29.4099 42.41 42.1618C42.5171 48.3725 42.6262 54.7966 42.6262 61.2102V62.1763L43.5917 62.2579C47.1768 62.5632 51.1355 62.7054 56.0471 62.7054C59.5062 62.7054 63.0157 62.6364 66.5252 62.5653C70.0116 62.4962 73.498 62.4251 76.9257 62.4251L79.4234 62.4377L79.4633 62.2955C79.9167 62.0487 80.4331 61.5134 80.4331 61.1705C80.4331 59.0166 80.4247 56.7916 80.6388 54.6481C80.7164 53.8221 81.3965 49.3596 80.6912 48.8807ZM44.7693 4.14656C53.8474 3.70533 66.0026 3.44184 72.8284 3.44184C75.9349 3.44184 77.4084 3.49412 78.099 3.53595C78.3593 5.86968 78.2396 8.28706 78.1242 10.6354C78.0696 11.7187 78.0171 12.7977 77.9982 13.9186C74.9358 14.5041 71.8419 14.5877 69.1762 14.5877C68.068 14.5877 66.9513 14.571 65.8367 14.5543C64.7075 14.5375 63.574 14.5208 62.4406 14.5208C60.1569 14.5208 58.3098 14.5919 56.7209 14.7404L55.9505 14.824L55.3082 15.4472L55.3208 15.9052C55.3523 17.0428 55.2726 18.2577 55.197 19.4309C55.0669 21.476 54.9535 23.5797 55.3481 25.5559C51.7253 25.6981 48.0961 25.7964 44.4901 25.7964C44.4397 25.7964 44.3789 25.834 44.3222 25.8486C44.2907 18.6153 44.3768 11.4468 44.7693 4.14656ZM44.3243 27.4045C48.8875 27.3919 53.4884 27.2623 58.0495 27.0176C59.8693 27.1033 61.7122 27.1389 63.5195 27.1535C64.38 27.1619 65.2364 27.1682 66.0907 27.1828C66.3384 29.3011 66.2712 31.4446 66.202 33.703C66.1915 34.0188 66.1894 34.3471 66.1831 34.6671C58.9479 34.6859 51.719 34.8615 44.4922 35.1083C44.4691 35.1083 44.4397 35.1271 44.4124 35.1313C44.3747 32.5404 44.3432 29.9682 44.3243 27.4045ZM44.4355 36.7059C51.6707 36.4655 58.908 36.2856 66.1495 36.2794C66.1495 36.3693 66.1453 36.4571 66.1432 36.547C66.1138 36.7771 66.0865 36.9903 66.0592 37.1995C64.5753 37.4462 62.789 37.4483 61.177 37.4483C58.5827 37.4483 57.0756 37.4818 56.2339 38.1384L55.917 38.3872L55.8477 38.7825C55.7364 39.4015 55.663 40.1104 55.6105 40.8653C51.9877 40.8653 48.3438 40.6373 44.7189 40.6373C44.6517 40.6373 44.5741 40.6645 44.4964 40.698C44.4733 39.3534 44.4565 38.038 44.4355 36.7059ZM44.5216 42.2705C48.1948 42.3019 51.8764 42.5298 55.5412 42.4859C55.5265 43.199 55.5244 43.9414 55.5475 44.7423C53.5997 44.7695 51.6539 44.8761 49.7082 44.8761C48.1276 44.8761 46.1798 45.4575 44.6475 45.033C44.6223 45.0267 44.5887 45.0371 44.5615 45.0371C44.5468 44.117 44.5363 43.1844 44.5216 42.2705ZM44.5867 46.8084C45.7999 46.8418 47.1285 46.5741 48.2536 46.5009C50.6002 46.3441 52.97 46.3504 55.3229 46.3504C55.4069 46.3504 55.5035 46.3023 55.5979 46.2626C55.6441 47.1325 55.7008 48.0296 55.7847 48.9999C52.1745 49.0752 48.5726 49.1358 44.9477 49.1212C44.8511 49.1212 44.7378 49.1693 44.6223 49.2383C44.6118 48.4185 44.5971 47.6197 44.5867 46.8084ZM77.7946 60.3256L76.9215 60.3214C73.4812 60.3214 69.9822 60.3904 66.479 60.4615C62.9863 60.5306 59.4894 60.6017 56.045 60.6017C51.6329 60.6017 48.0059 60.4845 44.7357 60.2378C44.7357 60.0893 44.7315 59.9408 44.7315 59.7924C50.0839 60.083 55.642 59.3741 60.9755 59.3741C66.6113 59.3741 72.2911 60.0224 77.9185 59.6209C77.8744 59.853 77.845 60.104 77.7946 60.3256ZM78.1683 58.0316C73.7352 58.2742 69.1741 57.9145 64.7495 57.789C58.1377 57.6008 51.2992 58.6673 44.7189 58.0902C44.7189 57.9271 44.7147 57.7639 44.7147 57.6008C49.9957 58.0358 55.4783 56.7706 60.7593 56.9128C66.5651 57.0697 72.4359 57.4879 78.2333 57.3374C78.2102 57.5674 78.1934 57.8079 78.1683 58.0316ZM78.3404 55.7104C73.2692 55.7481 68.1918 55.2232 63.1144 55.3277C57.1617 55.4511 50.5897 56.6954 44.6979 55.8673C44.6958 55.6163 44.6916 55.3696 44.6895 55.1207C55.8015 54.3637 67.2368 54.5289 78.3572 54.7443C78.3509 55.0643 78.353 55.4009 78.3404 55.7104ZM44.6727 53.5523C44.6643 52.6092 44.6517 51.6745 44.6391 50.7335C48.5768 50.746 52.4914 50.6979 56.4207 50.6017L56.5383 50.7167H56.9748C60.1023 50.7167 63.2214 50.838 66.2376 50.9551C70.1208 51.1078 74.1487 51.2646 78.2984 51.1684C78.3362 51.846 78.3509 52.4796 78.3635 53.1048C67.2158 52.8936 55.7721 52.7389 44.6727 53.5523Z" fill="white"/>
<path d="M125.078 2.56355L125.019 1.68735L124.14 1.58907C118.395 0.961718 112.02 0.683594 103.471 0.683594C100.218 0.683594 96.977 0.723326 93.7886 0.758876C91.8555 0.781878 89.9412 0.804881 88.0563 0.817428L87.0089 0.825793L87.0551 2.39416L87.0656 2.40462C86.7424 7.08464 86.9208 14.5877 87.5484 15.8362L87.7499 16.2377L88.176 16.3715C88.77 16.5555 89.7481 16.5701 91.1754 16.5701H91.7274C93.4843 16.5701 96.341 16.5701 97.7725 17.095C98.7359 39.8364 98.461 52.695 98.3413 58.2094C98.2826 60.8651 98.2742 61.5761 98.3728 61.9714L98.61 62.9145L99.5713 62.7535C101.127 62.4962 102.967 62.4628 104.563 62.4628L108.137 62.4837C109.833 62.4837 111.802 62.444 113.544 62.1617L114.445 61.8459L114.428 60.9362C113.823 28.1552 113.685 19.2719 113.905 16.8169L114.235 16.8023C118.989 16.5743 121.726 16.4781 123.475 16.8253L124.568 17.0428L124.73 15.9449C125.366 11.5995 125.315 6.02024 125.078 2.56355ZM100.241 26.7708C101.952 26.545 104.08 26.9946 105.562 27.1096C107.621 27.2706 109.678 27.118 111.741 27.1159C111.762 28.7846 111.787 30.6918 111.821 32.9042C110.23 32.8645 108.641 32.8394 107.046 32.8394C105.064 32.8394 102.388 33.358 100.407 32.8749C100.365 30.9594 100.308 28.9059 100.241 26.7708ZM106.32 52.8225C104.592 52.81 102.285 52.4503 100.547 53.0463C100.554 52.5465 100.56 52.0174 100.564 51.4696C102.082 51.3399 103.679 51.5197 105.188 51.3483C107.478 51.0869 109.846 51.4235 112.138 51.1245C112.148 51.6682 112.157 52.2056 112.167 52.7661C110.217 52.7807 108.27 52.8372 106.32 52.8225ZM112.195 54.347C112.201 54.669 112.205 54.9764 112.211 55.3047C108.314 55.5306 104.418 55.4804 100.512 55.4804H100.51C100.516 55.1249 100.522 54.7464 100.528 54.3574C102.218 53.9727 104.861 54.4411 106.326 54.4515C108.253 54.4662 110.175 54.3763 112.102 54.3763C112.132 54.3763 112.165 54.3512 112.195 54.347ZM106.137 49.7255C104.365 49.7987 102.308 49.6105 100.587 49.9535C100.583 49.9535 100.579 49.9576 100.575 49.9597C100.579 49.1442 100.581 48.268 100.583 47.3583C104.351 47.2182 108.091 46.9568 111.876 46.9568C111.932 46.9568 111.997 46.9296 112.06 46.9066C112.075 47.7786 112.092 48.6674 112.109 49.5896C110.131 49.7422 108.11 49.644 106.137 49.7255ZM100.579 45.769C100.577 44.7444 100.57 43.6486 100.56 42.5131C104.326 42.5863 108.372 42.8163 111.974 42.1221C111.993 43.1655 112.01 44.2153 112.031 45.3445C108.2 45.3822 104.405 45.654 100.579 45.769ZM100.545 40.8757C100.524 38.9456 100.491 36.8502 100.445 34.619C101.45 34.6399 102.497 34.527 103.41 34.5081C106.181 34.4496 108.95 34.4287 111.718 34.529C111.722 34.5249 111.724 34.5186 111.729 34.5144C111.756 34.5186 111.766 34.5332 111.798 34.5332H111.848C111.878 36.3776 111.911 38.3893 111.949 40.6248C108.28 41.1622 104.246 40.9113 100.545 40.8757ZM100.478 57.1031C104.405 57.1115 108.32 57.1533 112.241 56.8752C112.247 57.1784 112.251 57.4691 112.258 57.7765C108.484 58.2554 104.433 57.9772 100.665 57.9772C100.604 57.9772 100.533 58.0044 100.461 58.0337C100.466 57.7472 100.472 57.4294 100.478 57.1031ZM108.139 60.3821L104.565 60.3612C103.261 60.3612 101.8 60.3842 100.415 60.5264C100.417 60.265 100.421 59.9492 100.43 59.6125C104.313 59.6481 108.458 59.9304 112.258 59.2989C112.266 59.2968 112.279 59.2905 112.287 59.2884C112.293 59.6 112.297 59.8948 112.304 60.2106C110.937 60.3591 109.453 60.3821 108.139 60.3821ZM122.776 14.594C120.903 14.3953 118.225 14.5062 114.134 14.7007L111.976 14.7425L111.892 15.9491C111.72 16.8922 111.659 18.9708 111.727 25.4973C109.506 25.5099 107.31 25.5454 105.077 25.3572C103.614 25.2338 101.702 24.9829 100.201 25.3969C100.109 22.5969 99.9974 19.6149 99.861 16.43L99.7561 15.9282L99.458 15.6375L99.2019 15.4535C97.4325 14.5459 94.5422 14.4685 91.7295 14.4685H91.1775C90.6549 14.4685 89.8866 14.4685 89.3514 14.433C89.1037 12.735 88.8539 7.57188 89.1478 2.91277C90.6884 2.89813 92.2438 2.87931 93.8159 2.86049C96.9959 2.82285 100.228 2.78521 103.473 2.78521C111.506 2.78521 117.591 3.03406 123.027 3.58613C123.189 6.65386 123.2 10.9554 122.776 14.594Z" fill="white"/>
<path d="M168.76 22.2332C169.037 22.7162 170.513 22.6493 171.268 22.6117C174.547 23.2328 178.554 23.193 182.93 22.4465H183.804L183.967 21.5912C186.068 10.5833 179.933 5.62727 176.037 3.63021C170.101 0.947251 161.605 0.480922 156.282 2.68082C150.31 5.14421 145.846 10.7297 144.626 17.2541C143.453 23.536 145.535 29.7446 150.384 34.3368C152.394 36.0244 154.447 37.047 156.653 37.4527L157.906 37.6911C162.385 38.5254 167.465 39.4706 168 43.7303C168.237 45.1042 168.007 46.2188 167.312 47.0385C166.567 47.9168 165.309 48.4208 163.861 48.4208C163.477 48.4208 163.093 48.3685 162.715 48.2953C162.257 48.0716 161.758 48.0088 161.292 47.8436C161.011 47.7098 160.759 47.5258 160.507 47.3439C159.978 46.796 159.506 45.9595 159.266 45.2736C159.025 44.5814 159.172 43.8328 158.931 43.1385C158.763 42.6534 158.03 42.8269 157.646 42.8269C157.608 42.8269 157.564 42.8499 157.524 42.8604C157.155 42.8625 156.773 42.9252 156.401 43.011C155.358 43.0047 154.248 42.9671 153.098 42.9252C151.725 42.875 150.308 42.8249 148.923 42.8249C147.107 42.8249 145.608 42.9148 144.345 43.1051L143.444 43.2389L143.446 44.5877C143.236 47.9085 144.068 51.0306 145.841 53.7658C145.858 53.7951 145.862 53.8265 145.887 53.8516L145.927 53.8913C146.4 54.6044 146.92 55.2965 147.521 55.9511C149.227 57.808 151.454 59.3534 153.954 60.5454C153.992 60.5976 154.059 60.629 154.155 60.6416C157.325 62.1179 160.929 63.015 164.573 63.1091C164.856 63.1196 165.133 63.1238 165.414 63.1238C173.265 63.1238 179.48 59.2196 182.013 52.737C184.914 46.5095 184.549 39.4874 181.247 34.479C181.253 34.364 181.197 34.2866 181.09 34.2427C180.909 33.9813 180.76 33.699 180.563 33.4481C176.957 28.1972 171.31 24.7865 165.099 24.088C162.637 23.7388 161.158 23.1763 160.446 21.2378L160.412 20.9701C160.341 20.4139 160.276 19.9308 160.459 19.339C160.853 16.654 163.424 16.4449 164.203 16.4449C164.583 16.4449 164.961 16.4929 165.332 16.564C165.425 16.5912 165.521 16.6121 165.612 16.6414C167.824 17.3754 168.957 18.3436 168.957 20.7777C168.955 21.3904 168.365 21.5452 168.76 22.2332ZM145.535 45.077C147.523 44.8763 150.386 44.9369 153.022 45.0289C154.271 45.0749 155.488 45.1189 156.613 45.1209C156.869 46.3819 157.48 47.3982 158.274 48.218C154.12 48.195 149.855 48.4982 145.98 49.0001C145.644 47.7558 145.487 46.4509 145.535 45.077ZM165.412 61.0221C165.158 61.0221 164.904 61.018 164.638 61.0075C163.047 60.9678 161.466 60.7587 159.932 60.4157C161.225 60.3425 162.52 60.2819 163.813 60.2965C166.099 60.3216 168.64 60.3174 171.117 60.1271C169.365 60.6917 167.463 61.0221 165.412 61.0221ZM175.204 58.0966C172.2 58.5734 168.983 58.4626 166.015 58.6717C162.629 58.9101 159.054 59.0209 155.646 59.0314C154.961 58.7365 154.3 58.4082 153.662 58.0548C157.327 57.6135 161.77 58.3141 165.007 58.3141C168.645 58.3141 172.238 58.0443 175.829 57.5843C175.62 57.7516 175.424 57.9398 175.204 58.0966ZM177.656 55.8465C173.082 56.4613 168.615 56.6161 163.981 56.6161C160.303 56.6161 155.522 55.8361 151.951 56.9987C151.393 56.614 150.866 56.2062 150.369 55.7754C156.084 55.2986 161.955 55.857 167.667 55.5098C170.884 55.3154 174.877 55.7294 178.208 55.0979C178.021 55.3467 177.857 55.6144 177.656 55.8465ZM179.295 53.4584C175.685 54.2823 171.073 53.7407 167.524 53.9561C161.384 54.3283 155.073 53.5546 148.975 54.4141C148.688 54.0941 148.419 53.7658 148.165 53.4333C150.736 53.0485 153.706 53.4668 156.131 53.4668C159.248 53.4668 162.348 53.4375 165.461 53.2388C170.273 52.9314 175.059 52.3459 179.885 52.279C179.702 52.6826 179.509 53.0778 179.295 53.4584ZM180.563 50.6604C175.84 50.7294 171.113 51.1979 166.413 51.6182C160.585 52.1389 152.938 50.3677 147.353 52.2288C147.008 51.66 146.721 51.0703 146.473 50.4681C151.179 49.9327 156.271 49.7173 161.065 50.0122C161.962 50.3405 162.912 50.5266 163.861 50.5266C164.476 50.5266 165.062 50.4388 165.624 50.307C170.76 50.4534 176.012 48.9854 181.138 48.8746C180.97 49.4706 180.791 50.0686 180.563 50.6604ZM181.499 47.2644C177.255 47.4254 172.964 48.3832 168.701 48.6027C168.771 48.5295 168.859 48.4752 168.924 48.3978C169.635 47.5572 170.351 46.0808 170.118 43.9143C172.309 43.8934 174.501 43.8537 176.694 43.8495C178.262 43.8453 180.242 43.9645 181.809 43.5233C181.833 44.7529 181.736 46.0055 181.499 47.2644ZM181.74 42.1327C180.12 42.4003 178.153 42.2226 176.675 42.2268C174.402 42.2331 172.129 42.2895 169.854 42.3021C168.819 38.6864 165.219 37.185 161.642 36.3151C163.246 36.2921 164.848 36.2482 166.451 36.2001C170.838 36.0725 175.233 35.8425 179.618 35.8299C180.785 37.6931 181.511 39.8408 181.74 42.1327ZM178.522 34.2532C174.816 34.3201 171.109 34.4874 167.402 34.5794C163.765 34.6693 159.145 33.9562 155.631 35.0123C154.304 34.5564 153.03 33.812 151.79 32.7726C149.936 31.0161 148.576 29.019 147.672 26.8797C151.112 26.4427 155.142 26.9299 158.391 27.2603C162.224 27.6493 166.296 27.0387 170.135 27.5866C173.426 28.973 176.335 31.2503 178.522 34.2532ZM164.201 14.3432C161.076 14.3432 158.788 16.1855 158.41 18.856C158.12 19.7259 158.225 20.5331 158.32 21.2441L158.414 21.8212C159.193 24.0818 160.79 25.1169 162.325 25.6376C161.991 25.6397 161.649 25.6439 161.321 25.6418C156.869 25.6167 151.523 24.5251 147.153 25.5163C146.366 23.0278 146.192 20.37 146.702 17.641C147.791 11.8046 151.771 6.81714 157.09 4.62351C161.884 2.64318 169.776 3.10951 175.118 5.52062C180.657 8.36251 183.09 13.6531 182.021 20.462C177.815 21.1165 174.152 21.1395 171.233 20.5122C171.264 19.7928 171.142 19.1027 170.899 18.4503C170.765 17.9965 170.542 17.6431 170.269 17.275C170.221 17.206 170.179 17.1328 170.127 17.0638C170.003 16.8296 169.847 16.6393 169.667 16.4595C169.652 16.4407 169.642 16.426 169.627 16.4072C169.616 16.3905 169.593 16.3926 169.579 16.38C169.457 16.2692 169.362 16.127 169.213 16.0475C169.142 16.0099 169.069 15.9827 168.997 15.9472C167.7 14.9455 165.977 14.3432 164.201 14.3432Z" fill="white"/>
<path d="M241.16 2.56341L241.102 1.68721L240.224 1.59102C234.479 0.963671 228.105 0.685547 219.556 0.685547C216.302 0.685547 213.061 0.725279 209.873 0.760829C207.94 0.783831 206.026 0.806834 204.141 0.819381L203.093 0.827746L203.139 2.39612L203.15 2.40657C202.827 7.08659 203.005 14.5897 203.633 15.8381L203.834 16.2396L204.26 16.3734C204.854 16.5575 205.832 16.5721 207.26 16.5721H207.812C209.569 16.5721 212.425 16.5721 213.857 17.097C214.82 39.8384 214.545 52.6969 214.426 58.2113C214.367 60.8671 214.359 61.5781 214.457 61.9733L214.694 62.9164L215.656 62.7554C217.211 62.4982 219.052 62.4647 220.647 62.4647L224.222 62.4857C225.918 62.4857 227.886 62.4459 229.629 62.1636L230.529 61.8478L230.512 60.9382C229.908 28.1571 229.769 19.2739 229.99 16.8189L230.319 16.8042C235.071 16.5763 237.81 16.4801 239.559 16.8272L240.652 17.0447L240.814 15.9468C241.446 11.5993 241.398 6.0201 241.16 2.56341ZM216.623 53.3577C216.628 53.0399 216.632 52.699 216.636 52.3602C220.492 52.1281 224.371 52.0047 228.233 51.9546C228.237 52.239 228.243 52.5129 228.247 52.8015C224.358 53.0148 220.544 53.3556 216.623 53.3577ZM228.277 54.3469C228.283 54.6396 228.287 54.9177 228.292 55.2126C224.366 55.3151 220.488 56.0093 216.581 56.0093C216.588 55.6789 216.594 55.3213 216.6 54.9596C220.49 54.9052 224.287 54.5602 228.174 54.374C228.201 54.374 228.241 54.3573 228.277 54.3469ZM216.657 50.7856C216.655 50.7856 216.653 50.7877 216.651 50.7877C216.653 50.4008 216.655 49.9575 216.657 49.5476C218.011 49.4619 219.356 49.4473 220.725 49.4828C222.964 49.5393 225.181 49.1859 227.414 49.1524C227.628 49.1482 227.922 48.9412 228.174 48.6777C228.185 49.234 228.193 49.7839 228.203 50.359C224.356 50.4155 220.494 50.5347 216.657 50.7856ZM222.389 47.8622C220.479 47.9458 218.601 47.7931 216.69 47.9751C216.682 47.973 216.672 47.9751 216.663 47.973C216.665 47.2244 216.663 46.4213 216.661 45.6058C218.273 45.4824 219.898 45.2064 221.495 45.1102C223.04 45.0161 226.358 44.3762 227.788 45.0558C227.876 45.0976 227.989 45.083 228.107 45.0475C228.122 45.8735 228.136 46.6639 228.151 47.538C226.232 47.5798 224.31 47.7785 222.389 47.8622ZM224.335 43.4394C221.776 43.4791 219.203 43.9663 216.655 44.0207C216.651 43.0901 216.642 42.1094 216.632 41.0972C220.332 40.6435 224.083 40.4323 227.794 40.2127C227.863 40.2085 227.947 40.1646 228.025 40.1353C228.042 41.1328 228.059 42.1407 228.077 43.2219C226.871 43.1152 225.315 43.4226 224.335 43.4394ZM216.613 39.5937C216.594 38.0651 216.567 36.4465 216.531 34.7401C220.307 34.4955 224.18 34.232 227.928 34.3072C227.949 35.6581 227.973 37.0739 228 38.636C224.205 38.8576 220.376 39.0835 216.613 39.5937ZM216.535 58.2573C216.539 58.0524 216.544 57.8182 216.55 57.5923C220.448 57.4878 224.32 56.7977 228.25 56.7977C228.271 56.7977 228.298 56.7789 228.321 56.7747C228.329 57.2368 228.338 57.6823 228.346 58.1549C224.413 58.2364 220.46 58.3451 216.531 58.502C216.533 58.4183 216.535 58.3451 216.535 58.2573ZM227.901 32.6866C224.129 32.6678 220.257 32.9438 216.495 33.1822C216.451 31.25 216.395 29.1776 216.329 27.0216C220.141 26.7268 223.989 26.5929 227.817 26.5888C227.838 28.3202 227.865 30.3361 227.901 32.6866ZM224.22 60.3819L220.645 60.361C219.341 60.361 217.881 60.384 216.495 60.5262C216.495 60.4029 216.499 60.2397 216.502 60.0996C220.437 59.9512 224.394 59.8278 228.325 59.7525C228.34 59.7525 228.359 59.74 228.373 59.7379C228.376 59.8989 228.38 60.0474 228.382 60.2084C227.017 60.3589 225.536 60.3819 224.22 60.3819ZM238.858 14.5939C236.986 14.3952 234.307 14.506 230.216 14.7005L228.059 14.7423L227.975 15.9489C227.807 16.869 227.744 18.8368 227.802 24.9848C223.959 25.0078 220.101 25.1354 216.285 25.4637C216.193 22.6448 216.082 19.6398 215.943 16.4278L215.838 15.9259L215.54 15.6353L215.286 15.4533C213.517 14.5458 210.627 14.4684 207.814 14.4684H207.262C206.739 14.4684 205.971 14.4684 205.436 14.4328C205.188 12.7348 204.938 7.57174 205.232 2.91263C206.773 2.898 208.328 2.87918 209.9 2.86035C213.08 2.82271 216.313 2.78507 219.558 2.78507C227.59 2.78507 233.675 3.03392 239.112 3.58599C239.271 6.65372 239.282 10.9552 238.858 14.5939Z" fill="white"/>
<path d="M283.528 50.0894V49.002L282.437 49.0375C277.972 49.1881 273.663 49.0145 269.492 48.8556C266.738 48.749 263.901 48.6381 261.031 48.6172C260.853 46.5616 260.588 42.6741 261.01 39.7005C261.711 39.5541 263.208 39.5541 264.352 39.5541C265.498 39.5541 266.722 39.5437 267.91 39.46C268.273 39.4767 268.634 39.4997 268.997 39.5207C269.971 39.5729 270.976 39.5667 271.623 38.7407C272.208 37.992 271.868 36.9611 271.906 36.0891C271.917 35.8339 271.9 35.583 271.885 35.33C272.07 32.6156 272.351 29.8072 272.022 27.141C272.019 27.1242 272.003 27.1242 271.996 27.1096C271.956 26.5847 271.86 26.1038 271.652 25.7775C271.608 25.4973 271.514 25.2485 271.258 25.1544V25.123L271.048 25.1188C270.592 25.0122 270.118 25.0394 269.637 25.0916C269.188 25.0833 268.735 25.0791 268.283 25.0728C268.239 25.0624 268.193 25.0707 268.149 25.0561C268.067 25.031 267.975 25.0394 267.876 25.0665C267.488 25.0624 267.102 25.054 266.713 25.0519C264.663 25.0352 262.549 25.0184 260.521 24.8951C260.24 23.2619 260.355 21.4593 260.477 19.5647C260.536 18.653 260.597 17.7182 260.609 16.7897C262.064 16.6789 263.674 16.6245 265.611 16.6245C266.734 16.6245 267.857 16.6413 268.976 16.658C270.101 16.6747 271.228 16.6914 272.347 16.6914C275.365 16.6914 278.923 16.5848 282.447 15.8027L283.272 15.5329V14.6902C283.272 13.379 283.337 12.0616 283.402 10.7379C283.537 8.03613 283.675 5.24442 283.272 2.63465C283.272 1.37368 282.655 1.33813 276.001 1.33813C268.911 1.33813 256.082 1.62044 246.886 2.09304L245.94 2.14114L245.885 3.08425C245.136 16.2251 245.362 29.4099 245.581 42.1618C245.688 48.3725 245.797 54.7966 245.797 61.2102V62.1763L246.762 62.2579C250.347 62.5632 254.306 62.7054 259.218 62.7054C262.677 62.7054 266.186 62.6364 269.696 62.5653C273.182 62.4962 276.669 62.4251 280.096 62.4251L282.594 62.4377L282.81 61.6598C283.625 58.7029 283.86 54.9513 283.528 50.0894ZM247.564 33.2953C250.635 33.6612 254.117 33.1719 257.066 33.1719C261.172 33.1719 265.278 33.1949 269.381 33.3183C269.377 33.45 269.377 33.5734 269.373 33.7051C269.337 34.8364 269.301 35.9845 269.303 37.1576C265.557 37.1639 261.833 37.258 258.084 37.0092C254.743 36.7875 250.864 37.6658 247.615 37.0113C247.602 35.7754 247.579 34.5207 247.564 33.2953ZM266.692 27.1556C267.553 27.164 268.409 27.1703 269.263 27.1849C269.436 28.6571 269.44 30.1585 269.413 31.6851C266.235 31.5993 263.055 31.5512 259.875 31.5512C256.069 31.5512 251.311 32.2978 247.545 31.4676C247.531 30.0665 247.514 28.6612 247.503 27.2685C248.943 27.371 250.503 27.2685 251.848 27.2685C254.361 27.2685 256.863 27.0113 259.365 26.9277L259.638 26.9486C261.953 27.118 264.362 27.1368 266.692 27.1556ZM247.942 4.14656C257.02 3.70533 269.175 3.44184 276.001 3.44184C279.108 3.44184 280.581 3.49412 281.272 3.53595C281.532 5.86968 281.412 8.28706 281.297 10.6354C281.242 11.7187 281.19 12.7977 281.171 13.9186C278.109 14.5041 275.015 14.5877 272.349 14.5877C271.241 14.5877 270.124 14.571 269.01 14.5543C267.88 14.5375 266.747 14.5208 265.613 14.5208C263.33 14.5208 261.483 14.5919 259.894 14.7404L259.123 14.824L258.483 15.4451L258.496 15.9031C258.527 17.0407 258.447 18.2556 258.372 19.4288C258.244 21.4154 258.139 23.4584 258.496 25.3865C257.217 25.4639 255.937 25.5601 254.665 25.6332C252.562 25.7545 249.64 25.9197 247.495 25.4764C247.468 18.3748 247.556 11.3276 247.942 4.14656ZM247.692 42.1262C247.673 41.0075 247.661 39.918 247.644 38.8097C250.944 39.1442 254.741 38.4793 257.967 38.6926C258.321 38.7156 258.676 38.7218 259.029 38.7365L259.02 38.7804C258.735 40.3634 258.649 42.3939 258.714 44.8113C257.037 44.8218 255.358 44.8531 253.685 44.9598C252.446 45.0392 251.206 45.148 249.972 45.2567C249.294 45.3174 248.45 45.5808 247.738 45.5035C247.724 44.3805 247.711 43.2366 247.692 42.1262ZM247.764 47.1513C248.815 47.0635 249.934 46.8021 250.862 46.7435C253.5 46.5762 256.12 46.4361 258.764 46.4298C258.821 47.4462 258.899 48.5231 259.008 49.6795L259.052 49.8447C255.307 49.8259 251.565 49.8029 247.801 49.8029C247.791 48.91 247.776 48.038 247.764 47.1513ZM280.967 60.3256L280.096 60.3214C276.656 60.3214 273.157 60.3904 269.654 60.4615C266.161 60.5306 262.664 60.6017 259.22 60.6017C254.808 60.6017 251.181 60.4845 247.911 60.2378C247.911 60.1646 247.908 60.0914 247.908 60.0161C253.101 59.9137 258.284 59.3867 263.537 59.6314C269.324 59.9011 275.191 60.1709 280.993 60.1918C280.982 60.2357 280.976 60.2838 280.967 60.3256ZM281.278 58.5628C275.218 58.5042 269.138 58.0923 263.08 57.9417C257.99 57.8141 252.929 58.3746 247.894 58.4185C247.894 58.2177 247.89 58.0191 247.887 57.8204C254.021 57.628 260.133 56.4695 266.327 56.9839C271.121 57.3813 276.547 58.1027 281.381 57.6113C281.347 57.9312 281.32 58.2595 281.278 58.5628ZM281.498 56.0534C276.44 56.3921 271.085 55.3633 266.065 55.2525C259.971 55.1186 253.914 56.1391 247.873 56.2123C247.869 55.7711 247.862 55.3361 247.858 54.8949C254.47 54.8781 261.086 54.7527 267.698 54.7527H278.339C279.341 54.7527 280.548 55.0266 281.528 54.7255C281.522 55.173 281.522 55.631 281.498 56.0534ZM274.446 53.132C271.778 53.132 269.11 53.0567 266.445 53.0567C260.242 53.0567 254.042 53.2721 247.841 53.2805C247.835 52.6594 247.827 52.0467 247.82 51.4277C259.06 51.4319 270.204 51.4842 281.456 51.802C281.467 51.802 281.48 51.7937 281.49 51.7937C281.515 52.3959 281.54 52.9961 281.547 53.5586C280.474 53.5942 275.183 53.132 274.446 53.132Z" fill="white"/>
<path d="M320.051 31.5934C318.932 26.9238 315.63 12.6454 313.919 5.24056L312.857 0.656738L311.942 0.738294C309.169 0.989233 306.959 1.10634 304.986 1.10634C304.443 1.10634 303.991 1.09797 303.601 1.08961L302.77 1.07915C302.258 1.07915 301.834 1.10006 301.391 1.16907L300.736 1.27154L300.547 1.90725C294.17 23.0803 290.169 46.1437 288.463 55.991C288.005 58.6279 287.642 60.7128 287.508 61.1624L287.33 61.7647L288.259 62.6053L288.704 62.6011C292.747 62.553 295.558 62.6534 297.449 62.7141C299.332 62.7789 300.253 62.7998 300.816 62.668C300.912 62.6534 300.996 62.6262 301.065 62.6011H301.517L301.813 62.0365C302.956 59.8554 303.53 56.8044 304.086 53.8538C304.47 51.8191 304.835 49.8785 305.349 48.4147C305.893 48.4001 306.294 48.3687 306.651 48.3436C307.394 48.2871 307.996 48.2704 309.174 48.4189C309.889 50.1838 310.532 52.8019 311.155 55.3406C311.741 57.7245 312.293 59.9767 312.922 61.6622L313.262 62.346H313.888C316.226 62.827 318.676 63.08 320.976 63.08C322.679 63.08 324.242 62.9399 325.623 62.666L326.471 62.4129V61.5493L320.051 31.5934ZM309.146 36.311L308.162 36.3236C307.171 36.3382 306.176 36.3487 305.23 36.3382C305.465 34.5879 305.681 32.9045 305.885 31.3236C306.311 27.9987 306.751 24.5943 307.148 22.4571C307.606 24.6089 308.248 28.718 309.146 36.311ZM317.992 32.0576L319.07 37.068C316.499 37.0576 313.928 37.0367 311.357 37.0262C310.857 32.7561 310.437 29.5064 310.066 26.9803C310.987 27.0472 312.219 27.2668 312.564 27.3128C313.964 27.4989 315.469 27.3462 316.879 27.3421C317.339 29.3057 317.727 30.9577 317.992 32.0576ZM302.363 3.18914C302.493 3.18495 302.627 3.18286 302.77 3.18286L303.559 3.19332C303.962 3.20168 304.428 3.21005 304.986 3.21005C306.8 3.21005 308.798 3.11594 311.214 2.91519L311.86 5.71526C313.059 10.9013 315.034 19.45 316.495 25.7109C315.164 25.7047 313.84 25.6838 312.509 25.5729C311.722 25.5081 310.677 25.2843 309.835 25.4872C308.737 18.5654 308.078 18.5215 307.112 18.5215C305.832 18.5215 305.377 19.542 304.527 25.5395C303.106 25.5039 301.682 25.4286 300.27 25.46C299.136 25.4851 297.791 25.6545 296.578 25.5562C298.213 18.3312 300.133 10.6671 302.363 3.18914ZM296.212 27.1936C297.014 27.1831 297.827 27.1141 298.559 27.0974C300.465 27.0556 302.386 27.1706 304.3 27.181C304.147 28.3228 303.979 29.6026 303.792 31.056C303.546 32.961 303.282 35.0166 302.99 37.1559C300.007 37.25 296.987 37.3148 294.113 37.0973C294.745 33.9627 295.448 30.6294 296.212 27.1936ZM293.78 38.7431C297.505 38.9145 301.294 38.5528 305.022 38.6239C309.698 38.7138 314.406 38.6992 319.083 38.6992H319.159C319.232 38.6992 319.318 38.6741 319.406 38.6301L320.393 43.2119C311.235 43.2202 302.098 43.3102 292.94 43.0592C293.205 41.6749 293.484 40.2341 293.78 38.7431ZM300.142 60.648C299.808 60.6773 298.861 60.6605 297.518 60.6145C295.786 60.556 293.303 60.4681 289.806 60.4911C289.846 60.2799 289.89 60.0374 289.939 59.7718C293.415 59.8052 296.888 60.0332 300.368 60.0478C300.293 60.2444 300.228 60.464 300.142 60.648ZM300.921 58.4146C297.354 58.3812 293.797 58.1365 290.23 58.1323C290.249 58.0257 290.27 57.9086 290.289 57.7998C290.594 57.804 290.898 57.7977 291.169 57.7977C292.726 57.804 294.29 57.8061 295.845 57.7266C297.468 57.6451 299.493 57.9671 301.122 57.5907C301.051 57.8626 300.994 58.1532 300.921 58.4146ZM301.483 56.0997C300.033 56.3402 298.135 56.0704 296.792 56.106C295.152 56.1499 292.237 56.679 290.587 56.0725C290.69 55.4765 290.803 54.8283 290.923 54.1424C294.598 54.1257 298.253 54.1633 301.924 53.8914C301.783 54.6317 301.64 55.3741 301.483 56.0997ZM302.232 52.3084C298.557 52.5447 294.892 52.4966 291.209 52.5238C291.337 51.8003 291.473 51.0328 291.616 50.234C295.236 50.4912 299.069 50.6648 302.644 50.3344C302.501 50.9722 302.365 51.6267 302.232 52.3084ZM311.436 48.4607C311.252 47.94 311.065 47.4444 310.868 47.0157L310.628 46.4992L310.062 46.4155C308.34 46.1646 307.507 46.1688 306.493 46.2441C306.034 46.2796 305.494 46.3193 304.625 46.3193H303.928L303.653 46.9572C303.422 47.4946 303.227 48.1073 303.047 48.7493C299.422 49.0253 295.505 48.8204 291.92 48.5548C292.14 47.3377 292.38 46.0412 292.634 44.6945C302.01 44.935 311.361 44.8325 320.743 44.8325L321.518 48.4356H311.52C311.495 48.4377 311.464 48.4544 311.436 48.4607ZM312.57 52.3084C312.368 51.5305 312.161 50.7798 311.949 50.0604H321.44C321.553 50.0604 321.692 49.9914 321.833 49.8994L322.376 52.4235C319.098 52.5991 315.846 52.4862 312.57 52.3084ZM313.516 56.0872C313.414 55.6752 313.311 55.2674 313.206 54.8429C313.137 54.5627 313.067 54.2846 312.998 54.0023C316.14 54.1528 319.261 54.2302 322.429 53.9981C322.506 53.9918 322.597 53.9563 322.693 53.9019L323.296 56.702C321.728 56.7689 320.04 56.3632 318.573 56.2273C316.896 56.0683 315.198 56.0872 313.516 56.0872ZM314.148 58.5255C314.077 58.2682 314.008 57.988 313.936 57.7204C315.914 57.7475 317.878 57.8417 319.839 58.1574C321.05 58.3519 322.385 58.3874 323.602 58.1302L323.743 58.7827C320.643 58.7011 317.49 58.2034 314.406 58.4334C314.341 58.4376 314.249 58.4753 314.148 58.5255ZM314.7 60.3657C314.665 60.2632 314.631 60.1419 314.597 60.0353C317.572 59.9725 320.601 60.4347 323.569 60.4347C323.707 60.4347 323.879 60.3448 324.051 60.213L324.173 60.7776C321.455 61.1457 317.952 60.9909 314.7 60.3657Z" fill="white"/>
<path d="M365.67 17.593C365.571 12.6746 365.468 7.58891 365.668 2.5053L365.71 1.41162H364.612C363.088 1.41162 360.888 1.51827 358.758 1.61865C355.918 1.75457 353.059 1.90514 352.165 1.76503L351.548 1.66883L351.164 2.16235C349.894 3.79555 348.689 7.78966 347.627 11.3175C347.341 12.2585 347.018 13.3333 346.749 14.1405C346.193 12.9611 345.614 11.3195 345.049 9.71981C344.01 6.77754 342.936 3.73699 341.624 2.27318L341.196 1.88841L340.679 1.92396C339.309 2.01806 337.793 1.97205 336.28 1.92186C335.375 1.89468 334.47 1.8654 333.591 1.8654C331.509 1.8654 330.048 2.02851 328.854 2.39028L328.113 2.61613L328.106 3.38777C327.754 51.2984 327.77 60.0081 328.304 61.8525C328.671 62.576 329.212 62.6847 329.502 62.6847C330.442 62.6847 331.444 62.7077 332.476 62.7308C333.589 62.7558 334.737 62.783 335.877 62.783C338.246 62.783 340.064 62.6659 341.601 62.4171L342.547 62.2644L342.486 61.3109C341.955 53.0779 341.45 43.7263 341.886 34.4332C344.157 40.7464 345.224 41.9969 346.462 42.0554C347.616 42.0554 348.141 40.9137 350.293 35.0877C350.574 34.3286 350.866 33.534 351.155 32.779C351.537 38.0948 351.623 44.2261 351.705 50.1984C351.764 54.3347 351.816 58.2431 351.968 61.6789L352.014 62.6847H353.023C353.785 62.6847 354.73 62.6576 355.773 62.6283C357.03 62.5927 358.43 62.5551 359.818 62.5551C361.617 62.5551 363.029 62.622 364.14 62.76L365.315 62.9064L365.579 34.6945C365.898 28.9083 365.781 23.1555 365.67 17.593ZM333.593 3.9712C334.449 3.9712 335.333 4.00048 336.215 4.02766C337.623 4.06949 339.023 4.10922 340.343 4.05485C341.282 5.3911 342.22 8.05106 343.057 10.4203C343.905 12.821 344.707 15.092 345.715 16.5391C346.08 16.9029 346.449 17.0431 346.745 17.0849L346.997 17.1058C348.089 17.1058 348.355 16.215 349.648 11.9239C350.471 9.19911 351.569 5.56049 352.53 3.90638C353.846 3.96075 356.312 3.84573 358.861 3.72445C360.502 3.64707 362.162 3.56552 363.518 3.53415C363.369 8.30618 363.464 13.0448 363.558 17.639C363.611 20.2655 363.663 22.9359 363.669 25.6315C358.854 25.6064 354.035 25.4955 349.22 25.4955C343.114 25.4955 336.12 24.588 330.065 25.5415C330.102 19.4458 330.153 12.3965 330.212 4.22423C331.083 4.05067 332.164 3.9712 333.593 3.9712ZM330.004 36.6101C333.196 36.9425 336.54 36.8317 339.712 36.6581C339.653 38.7681 339.628 40.8739 339.644 42.963C336.765 43.6196 333.354 43.5569 330.449 43.2934C330.308 43.2809 330.144 43.352 329.979 43.4565C329.985 41.3988 329.993 39.1174 330.004 36.6101ZM329.976 44.9601C332.911 45.188 336.2 45.2277 338.998 44.5314C339.185 44.4854 339.426 44.2763 339.649 44.0274C339.674 45.9429 339.716 47.8459 339.785 49.7216C336.607 49.707 333.173 49.6673 330.186 50.6815C330.123 50.7024 330.052 50.7484 329.979 50.8028C329.972 49.111 329.972 47.1641 329.976 44.9601ZM329.983 52.1181C333.037 51.1875 336.62 51.3486 339.758 51.3486C339.787 51.3486 339.823 51.3297 339.854 51.3214C339.903 52.4757 339.945 53.6467 340.003 54.7781C338.731 54.9935 337.319 55.0185 336.072 55.1022C334.124 55.2318 332.036 54.6672 330.142 54.9516C330.1 54.9579 330.052 54.9872 330.004 55.0081C329.995 54.1528 329.989 53.1825 329.983 52.1181ZM330.025 56.5221C331.437 56.4761 333.052 56.7228 334.391 56.7228C336.07 56.7228 338.131 56.6727 339.758 56.2691C339.85 56.2461 339.957 56.1771 340.068 56.0892C340.098 56.635 340.121 57.208 340.152 57.7475C336.903 57.7308 333.562 57.6764 330.369 58.1302C330.277 58.1427 330.172 58.1992 330.063 58.2745C330.048 57.7726 330.037 57.1724 330.025 56.5221ZM335.879 60.6793C334.754 60.6793 333.622 60.6542 332.527 60.6291C331.723 60.6103 330.938 60.5915 330.184 60.5852C330.161 60.3552 330.138 60.0499 330.119 59.6797C333.446 59.2824 336.914 59.3703 340.251 59.3723C340.274 59.7362 340.295 60.1105 340.318 60.4702C339.094 60.6145 337.655 60.6793 335.879 60.6793ZM346.309 39.4561C346.013 38.9814 345.612 38.168 345.079 36.8694C345.257 36.8756 345.429 36.9007 345.614 36.8903C346.206 36.8568 346.802 36.8359 347.398 36.8045C347.006 37.825 346.613 38.8079 346.309 39.4561ZM350.937 28.0509C350.234 29.1634 349.3 31.6916 348.313 34.3662C348.221 34.6151 348.116 34.8974 348.015 35.1713C346.848 35.2111 345.685 35.1881 344.514 35.1149C344.478 35.1128 344.438 35.1316 344.403 35.1379C343.962 33.971 343.458 32.5657 342.866 30.8175C342.165 29.8201 341.24 28.7431 340.419 29.0756C340.301 29.1237 340.205 29.2115 340.115 29.3182C339.949 31.2358 339.859 33.1575 339.783 35.0772C336.679 35.2341 333.415 35.3177 330.363 34.9078C330.308 34.8096 330.18 34.7928 330.016 34.8305C330.029 32.4445 330.044 29.8368 330.06 27.0409C335.245 26.4135 341.08 27.112 346.223 27.112C347.984 27.112 349.743 27.1371 351.504 27.1559L350.937 28.0509ZM363.224 60.5601C361.222 60.4158 358.181 60.4618 355.716 60.5288C355.118 60.5455 354.551 60.5601 354.035 60.5706C354.025 60.282 354.016 59.9767 354.008 59.6818C355.269 59.8345 356.575 59.7529 357.834 59.7968C359.61 59.8575 361.392 59.8889 363.17 59.9035C363.189 59.9035 363.212 59.8889 363.231 59.8868L363.224 60.5601ZM363.245 58.2912C360.42 58.3163 357.33 58.5233 354.621 57.9838C354.43 57.9462 354.19 58.0612 353.959 58.2389C353.938 57.4443 353.924 56.6016 353.907 55.7735C356.848 55.8968 359.759 56.3736 362.712 56.2691C362.88 56.2628 363.075 56.1582 363.266 56.0244L363.245 58.2912ZM363.281 54.6421C360.263 54.6986 357.255 54.1842 354.239 54.1173C354.134 54.1152 354.008 54.1737 353.878 54.2511C353.861 53.2871 353.848 52.2854 353.834 51.2879C356.818 51.4824 359.948 51.5179 362.865 51.1959C362.996 51.1813 363.155 51.0851 363.315 50.9554L363.281 54.6421ZM363.327 49.6108C360.227 49.9119 356.896 49.8387 353.808 49.5899C353.783 47.8751 353.758 46.1499 353.724 44.4352C354.543 44.4979 355.374 44.6819 356.176 44.6819C357.351 44.6819 358.518 44.7028 359.692 44.7384C360.827 44.7719 362.313 45.0521 363.375 44.5021L363.327 49.6108ZM363.39 43.1366H362.045C361.14 43.1366 360.235 43.0885 359.331 43.0613C357.528 43.009 355.475 42.5803 353.691 42.825C353.647 40.853 353.582 38.9229 353.5 37.0346C356.816 37.0764 360.13 36.9635 363.449 36.9614L363.39 43.1366ZM363.464 35.3491C360.133 35.3742 356.808 35.4892 353.479 35.4118C353.464 35.4118 353.445 35.4223 353.431 35.4244C353.302 32.9673 353.128 30.6272 352.881 28.4901L352.725 27.1685C356.371 27.2103 360.019 27.2542 363.663 27.2605C363.653 29.7029 363.606 32.1601 363.47 34.6297L363.464 35.3491Z" fill="white"/>
<path d="M429.095 11.7524C428.969 9.98331 428.954 8.19746 428.738 6.4367C428.618 5.45594 428.509 4.57975 427.968 3.77674C426.832 3.2184 425.245 2.93191 423.085 2.93191C421.064 2.93191 418.889 3.16612 417.141 3.35223C416.679 3.40242 416.259 3.44634 415.863 3.48398C415.147 3.70146 414.782 4.12178 414.597 4.99589C414.603 6.98667 414.626 9.01719 414.356 10.9662C414.318 12.6935 414.234 14.4166 414.102 16.1376C414.081 17.7269 414.058 19.3015 414.041 20.9138C413.961 29.084 413.875 37.5302 413.541 45.4536C413.042 47.7936 410.913 48.858 409.148 48.858C407.215 48.858 405.72 47.7581 405.137 45.9032C404.087 32.4675 403.831 19.0527 404.339 5.87418C404.327 5.80308 404.299 5.74243 404.304 5.66297C404.318 5.19246 404.327 4.80141 404.318 4.43127C404.253 4.27235 404.18 4.11969 404.085 3.98376C403.26 3.60736 402.425 3.26231 401.527 3.10966C400.947 3.01137 400.307 2.93191 399.703 2.77507C399.06 2.74161 398.382 2.7207 397.631 2.7207C396.447 2.7207 395.255 2.75834 394.124 2.79389C393.122 2.82735 392.169 2.85663 391.231 2.85663L390.881 2.86918C390.73 2.97582 390.564 3.07829 390.465 3.20585C390.417 3.62618 390.421 4.06323 390.396 4.42082C390.345 5.15272 390.312 5.88254 390.306 6.61654C390.297 6.61654 390.291 6.61445 390.282 6.61445C390.276 6.69809 390.278 6.78174 390.27 6.86748C390.352 14.7512 390.247 22.7812 390.119 30.5896C390.02 36.6937 389.917 43.0048 389.917 49.1968C390.331 59.3682 400.683 64.0001 410.126 64.0001C411.058 64.0001 411.982 63.9541 412.884 63.8684C421.03 63.1072 426.748 57.3879 427.808 48.927C429.065 37.6117 429.485 25.3847 429.095 11.7524ZM416.375 5.54795C416.686 5.51659 417.017 5.48104 417.366 5.4434C419.062 5.26146 421.175 5.03562 423.083 5.03562C424.693 5.03562 425.925 5.19664 426.756 5.51659C427.071 12.43 427.166 18.9481 427.078 25.1861C423.465 24.9999 419.677 25.3847 416.087 25.483C416.106 23.969 416.136 22.4362 416.15 20.9347C416.205 15.7131 416.253 10.55 416.375 5.54795ZM392.384 4.94779C392.961 4.93524 393.565 4.91433 394.189 4.89551C395.297 4.85787 396.466 4.82232 397.627 4.82232C399.552 4.82232 401.046 4.92897 402.236 5.16109C401.967 11.7169 401.923 18.3689 402.058 25.0648C398.804 25.0982 395.57 25.299 392.316 25.3387C392.312 25.3387 392.306 25.3429 392.3 25.3429C392.405 18.5654 392.484 11.7043 392.384 4.94779ZM392.232 30.6273C392.251 29.4102 392.264 28.1597 392.283 26.9343C395.553 26.8611 398.809 26.6603 402.087 26.6687C402.146 29.061 402.23 31.4574 402.337 33.8581C398.932 33.9438 395.58 34.3725 392.178 34.4311C392.195 33.1576 392.211 31.884 392.232 30.6273ZM392.153 36.0099C395.582 35.8865 398.968 35.4495 402.421 35.4453C402.528 37.6515 402.633 39.8576 402.78 42.068C401.214 42.045 399.615 41.9634 398.076 42.2123C396.376 42.4883 394.195 42.9442 392.474 42.8396C392.352 42.8313 392.211 42.8919 392.071 42.9714C392.094 40.646 392.121 38.3227 392.153 36.0099ZM392.029 49.157C392.029 47.5991 392.05 46.014 392.06 44.4415C393.271 44.385 394.543 44.1132 395.721 44.0023C397.988 43.7869 400.179 43.6991 402.467 43.6991C402.585 43.6991 402.727 43.6259 402.874 43.5276C402.937 44.4122 402.975 45.2968 403.044 46.1813L403.084 46.3946C403.372 47.3796 403.854 48.2244 404.472 48.9207C400.253 48.6823 395.973 48.4879 392.044 49.2658C392.039 49.2281 392.031 49.1947 392.029 49.157ZM412.685 61.7772C409.585 62.0825 406.241 61.8148 403.16 60.9637C405.914 60.8487 408.667 60.7504 411.419 60.7358C412.891 60.7274 414.985 60.8822 416.904 60.763C415.6 61.2649 414.209 61.635 412.685 61.7772ZM420.493 58.6844C420.445 58.7032 420.415 58.7053 420.359 58.7325C419.75 59.0357 417.857 58.8349 417.212 58.86C415.231 58.9332 413.247 59.1089 411.266 59.1193C407.691 59.1382 404.1 59.3264 400.528 59.4957C400.364 59.5041 400.156 59.6317 399.955 59.8073C399.058 59.3996 398.225 58.9123 397.438 58.3812C401.09 58.3644 404.74 58.3163 408.395 58.3163C412.399 58.3163 417.179 58.7492 421.24 58.0131C420.999 58.241 420.755 58.4732 420.493 58.6844ZM422.785 56.2712C419.202 57.0282 414.864 56.6915 411.276 56.6915C406.373 56.6915 401.481 56.7668 396.577 56.7668C396.38 56.7668 396.12 56.9424 395.883 57.1725C395.32 56.6685 394.806 56.1248 394.348 55.5372C399.596 55.1649 405.515 56.0913 410.672 56.2712C414.274 56.3966 419.07 56.6141 422.913 56.0704C422.869 56.1352 422.831 56.2084 422.785 56.2712ZM423.925 54.4498C419.66 55.0792 414.356 54.7446 410.338 54.6045C405.091 54.4226 399.01 53.3979 393.84 54.042C393.733 54.0545 393.607 54.1298 393.477 54.2218C392.873 53.17 392.44 52.0052 392.209 50.7233C397.278 49.9851 402.818 50.8174 407.989 50.8592C408.365 50.9241 408.749 50.9617 409.15 50.9617C409.58 50.9617 410 50.9157 410.407 50.8404C415.369 50.7233 420.319 50.8864 425.281 50.8906C424.951 52.1746 424.502 53.3686 423.925 54.4498ZM425.713 48.6865C425.688 48.8852 425.646 49.0713 425.615 49.2658C421.637 49.2574 417.651 49.201 413.667 49.201C414.626 48.308 415.334 47.1307 415.63 45.7192C415.665 44.9036 415.689 44.0734 415.718 43.2537C419.24 43.2997 422.718 43.329 426.244 43.1721C426.089 45.0333 425.915 46.8756 425.713 48.6865ZM426.368 41.5682C422.829 41.6979 419.326 41.6707 415.777 41.6226C415.852 39.3369 415.894 37.0241 415.943 34.7176C418.377 34.7657 420.802 34.9769 423.234 35.1149C424.267 35.1734 425.602 35.4767 426.759 35.3951C426.652 37.4821 426.526 39.5461 426.368 41.5682ZM423.692 33.4629C421.127 33.3876 418.606 33.0656 416.035 33.0656C416.018 33.0656 415.999 33.0781 415.982 33.0802C416.02 31.0643 416.039 29.0714 416.066 27.0639C419.689 26.9134 423.505 26.5265 427.065 26.8653C427.019 29.2262 426.945 31.5495 426.84 33.8267C425.766 33.764 424.548 33.488 423.692 33.4629Z" fill="white"/>
<path d="M448.261 0C444.518 0 440.729 0.447509 437.178 1.2547C435.782 2.08698 435.163 3.77246 434.884 5.69841C435.125 14.3307 435.121 23.6929 435.1 32.8229C435.079 43.1616 435.058 52.9273 435.398 61.1686L435.409 61.43C435.524 61.7604 435.709 61.9757 435.946 62.1284L436.336 62.1723C438.139 62.371 440.631 62.4902 442.998 62.4902C443.962 62.4902 445.314 62.4693 446.703 62.3814C446.705 62.3814 446.707 62.3793 446.709 62.3793C447.161 62.3375 447.62 62.3062 448.08 62.2727C448.741 62.2079 449.386 62.1263 449.973 62.0197C450.267 61.9548 450.557 61.8817 450.84 61.775C451.52 61.5199 451.9 61.2334 451.917 60.4806C451.927 60.077 451.944 59.6755 451.963 59.274C451.757 50.8529 451.758 46.5074 451.762 43.8893C451.764 42.4108 451.764 41.4322 451.728 40.5183C452.362 40.579 453 40.6104 453.638 40.6104C464.095 40.6104 473.637 32.4318 474.907 22.3775C475.002 21.631 475.002 20.8217 475 19.8974C474.343 7.43826 464.345 0 448.261 0ZM437.222 44.1151C441.296 43.9562 445.362 43.9248 449.442 43.9248C449.505 43.9248 449.579 43.8977 449.652 43.8663V43.8851C449.65 44.7028 449.65 45.6961 449.656 46.9278C447.528 46.9298 445.414 47.185 443.286 47.2352C441.372 47.2791 439.145 46.911 437.237 47.323C437.228 46.2795 437.228 45.1816 437.222 44.1151ZM437.251 48.7512C438.891 48.5777 440.826 48.86 442.335 48.8579C444.661 48.8537 446.959 48.4899 449.291 48.5463C449.405 48.5484 449.535 48.5003 449.665 48.4313C449.673 49.3744 449.684 50.4221 449.7 51.6203C447.973 51.8984 445.885 51.6203 444.197 51.6203H440.578C440.005 51.6203 438.022 51.9465 437.589 51.5367C437.51 51.4614 437.398 51.4509 437.281 51.4656C437.268 50.5747 437.262 49.6588 437.251 48.7512ZM437.314 53.4271C438.658 53.563 440.566 53.2389 441.393 53.2389C443.823 53.2389 446.93 53.7512 449.293 53.1636C449.417 53.1322 449.57 53.0235 449.721 52.8855C449.732 53.5609 449.745 54.2698 449.759 55.0247C445.698 55.3029 441.414 55.7566 437.4 55.2569C437.384 55.2548 437.363 55.2652 437.346 55.2652C437.331 54.6692 437.325 54.0356 437.314 53.4271ZM437.382 56.9528C441.462 57.2769 445.746 56.821 449.789 56.5806C449.797 56.9611 449.803 57.3146 449.812 57.7161C445.792 58.2681 441.445 58.2138 437.409 58.2075C437.398 57.8039 437.392 57.3627 437.382 56.9528ZM442.998 60.3865C441.08 60.3865 439.088 60.307 437.474 60.169C437.47 60.0582 437.468 59.9431 437.463 59.8323C441.54 59.847 445.876 59.8783 449.824 59.2238C449.831 59.2217 449.843 59.2154 449.85 59.2133C449.856 59.4517 449.86 59.6567 449.866 59.9013C448.332 60.2108 445.882 60.3865 442.998 60.3865ZM454.28 38.4753C453.644 38.5987 453.011 38.6196 452.4 38.492C451.909 38.5506 451.424 38.5777 450.907 38.492C450.043 38.3498 450.064 38.3184 449.896 39.1884C449.751 39.937 449.688 40.694 449.644 41.4531C449.648 41.7145 449.65 42.0073 449.65 42.3063C445.5 42.3084 441.363 42.3335 437.216 42.5196C437.209 40.4138 437.207 38.2683 437.209 36.0934C446.344 35.7379 455.424 36.2001 464.511 35.0541C461.52 37.0805 457.981 38.3435 454.28 38.4753ZM466.757 33.3059C466.723 33.3017 466.704 33.285 466.658 33.2913C456.877 34.684 447.081 34.0567 437.241 34.5021C437.23 34.5021 437.218 34.5104 437.207 34.5125C437.207 33.9479 437.207 33.3958 437.209 32.825C437.214 30.9701 437.216 29.0964 437.218 27.2269C438.427 27.3189 439.844 27.1119 440.933 27.1119C443.24 27.1119 445.553 26.9613 447.847 26.9613C447.868 26.9613 447.893 26.9467 447.914 26.9425C447.969 27.1495 447.998 27.3796 448.061 27.5782L448.118 27.7539C448.34 28.0676 448.727 28.2265 449.14 28.3039L449.398 28.3018C450.085 28.2516 450.823 28.2328 451.585 28.2119C452.009 28.1993 452.442 28.1889 452.878 28.1721C453.231 28.124 453.586 28.0822 453.94 28.0299C454.127 28.0027 454.295 28.0257 454.448 28.0759C456.052 27.9463 457.651 27.6702 459.087 27.0157C460.267 27.0387 461.688 27.2625 462.498 27.2625H471.276C470.195 29.5377 468.65 31.5954 466.757 33.3059ZM459.822 24.0484C457.926 25.9367 454.528 26.0287 451.527 26.1102C450.943 26.1249 450.374 26.1416 449.858 26.1688C449.386 24.132 449.402 21.4679 449.419 18.879C449.428 17.6912 449.434 16.4721 449.392 15.3219C452.675 14.6528 456.056 15.324 458.491 17.2897C459.555 17.9275 460.284 18.9752 460.54 20.2487C460.821 21.6247 460.51 23.0927 459.822 24.0484ZM472.814 22.114C472.661 23.3269 472.359 24.5042 471.952 25.6418H463.447C462.876 25.6418 462.116 25.5561 461.337 25.4871C461.365 25.462 461.394 25.4411 461.419 25.4139C462.559 23.8643 463.004 21.7774 462.611 19.8326C462.233 17.9714 461.157 16.4282 459.702 15.5729C456.816 13.2161 452.459 12.3922 448.403 13.3876C448.193 13.4043 447.853 13.4754 447.551 13.7766L447.215 14.1112L447.245 14.5859C447.327 15.9075 447.318 17.3441 447.308 18.8665C447.293 21.0915 447.289 23.3625 447.578 25.37C445.935 25.4076 444.283 25.4913 442.633 25.4913C441.183 25.4913 438.794 25.8844 437.396 25.4202C437.344 25.4034 437.281 25.4139 437.22 25.4202C437.22 17.9066 437.176 10.3931 436.941 3.44414C440.534 2.56586 444.428 2.10371 448.258 2.10371C455.38 2.10371 472.036 3.84774 472.89 20.0375C472.892 20.7569 472.896 21.4741 472.814 22.114Z" fill="white"/>
<path d="M143.715 1.22137C140.002 0.974616 135.966 2.06829 132.339 1.34684C132.251 1.33011 132.152 1.34684 132.049 1.38239C131.904 1.42422 131.755 1.5225 131.612 1.65633C131.266 1.94491 130.962 2.36315 130.909 2.65173C130.905 2.66218 130.897 2.67891 130.895 2.68937C129.786 6.99716 128.964 11.3719 127.801 15.6713C126.877 19.082 125.183 22.6474 124.86 26.171C124.85 26.2965 124.879 26.4847 125.043 26.5035C128.76 26.9155 132.645 26.0957 136.436 26.6248C136.625 26.9427 137.933 25.9891 138.052 25.4747C139.786 18.0343 141.971 10.8595 144.603 3.67849C145.275 1.84663 145.718 1.35312 143.715 1.22137ZM136.008 24.8745C134.612 24.7574 133.216 24.6988 131.806 24.6988C129.839 24.6988 128.414 24.862 127.664 24.4646C129.688 17.317 131.816 10.4831 132.981 3.13688C135.468 3.24353 138.111 2.80229 140.527 2.7521C140.539 2.7521 142.298 2.62872 143.086 2.82111C140.953 10.2426 138.329 17.5094 136.008 24.8745Z" fill="white"/>
</svg>
