<svg width="159" height="43" viewBox="0 0 159 43" fill="none" xmlns="http://www.w3.org/2000/svg">
<path d="M159 0H0V43H159V0Z" fill="#4AB1BA"/>
<path d="M20.2856 29.5416V32.1153H10.7428V29.5416C11.2359 29.3641 11.9767 29.1169 12.965 28.8021V14.7505L10.7428 13.863V11.4077L17.5576 11.2598H25.8538V16.8804H23.0983L22.3597 14.7505H17.5597V19.9865H23.693V23.2406H17.5597V28.8021C19.1004 29.2141 20.0083 29.4613 20.2856 29.5416Z" fill="white"/>
<path d="M27.6315 16.3755L33.7648 16.1388L34.0314 18.18C34.188 18.0025 34.406 17.7849 34.6833 17.5292C34.9605 17.2735 35.4579 16.927 36.1796 16.4938C36.9012 16.0607 37.5573 15.843 38.1499 15.843C38.624 15.843 39.0832 15.8874 39.5277 15.9761C39.9721 16.0649 40.3023 16.1579 40.5203 16.2572L40.8166 16.3755L40.5795 21.9961H38.0018L37.5573 19.4816C37.043 19.4816 36.5203 19.619 35.987 19.8958C35.4536 20.1726 35.0494 20.4494 34.7722 20.7241L34.3573 21.1383V29.0071L37.1721 29.7467V32.1133H27.6315V29.7467L30.0018 29.0071V19.3358L27.6315 18.7442V16.3755Z" fill="white"/>
<path d="M58.0018 31.9062L52.1352 32.1133L51.6019 30.1904C51.4241 30.3489 51.1871 30.5496 50.8908 30.7969C50.5945 31.0441 50.0252 31.3737 49.1871 31.7879C48.3469 32.202 47.5532 32.4091 46.8019 32.4091C45.3607 32.4091 44.2347 32.0055 43.4242 31.1962C42.6136 30.3891 42.2094 29.2438 42.2094 27.7647C42.2094 24.5106 44.5797 22.8836 49.3204 22.8836H51.3945V21.2566C51.3945 19.7775 50.6347 19.0379 49.113 19.0379C48.6601 19.0379 48.2135 19.0781 47.7797 19.1562C47.3458 19.2344 47.0199 19.3147 46.8019 19.3929L46.5056 19.4816L46.0612 21.4045H43.3945L43.1871 17.0263C45.5765 16.2382 47.7204 15.843 49.6167 15.843C51.8685 15.843 53.458 16.2825 54.387 17.1594C55.314 18.0384 55.7796 19.5514 55.7796 21.7003V29.0071L58.0018 29.5396V31.9062V31.9062ZM46.476 27.321C46.476 28.5042 47.058 29.0959 48.2241 29.0959C48.6982 29.0959 49.1977 28.9543 49.7204 28.6669C50.2432 28.3796 50.6537 28.0901 50.95 27.7943L51.3945 27.3801V25.3981H49.7056C48.5585 25.3981 47.7352 25.5524 47.2315 25.8566C46.7278 26.163 46.476 26.6532 46.476 27.321Z" fill="white"/>
<path d="M59.6907 16.3754L65.824 16.1387L66.0314 18.1799C66.2494 18.0024 66.5351 17.7911 66.8906 17.5439C67.2462 17.2967 67.9023 16.9628 68.861 16.5381C69.8176 16.1155 70.6938 15.9042 71.4832 15.9042C72.9054 15.9042 73.9975 16.3733 74.7572 17.3093C75.517 18.2454 75.898 19.5322 75.898 21.1698V29.0091C76.1541 29.0894 76.5202 29.2162 76.9943 29.3937C77.4683 29.5712 77.7943 29.6895 77.972 29.7487V32.1153H69.9721V29.7487L71.5424 29.0091V21.8502C71.5424 21.1593 71.3604 20.593 70.9943 20.1492C70.6282 19.7055 70.1393 19.4836 69.5276 19.4836C68.9731 19.4836 68.4356 19.6273 67.9128 19.9126C67.388 20.1978 66.9986 20.4789 66.7425 20.7557L66.3573 21.1698V29.0091L67.898 29.7487V32.1153H59.6907V29.7487L61.9721 29.0091V19.3357L59.6907 18.7441V16.3754Z" fill="white"/>
<path d="M92.135 27.3801L93.6165 29.8946C91.7011 31.5702 89.5763 32.4091 87.2461 32.4091C84.8165 32.4091 82.9245 31.6991 81.5721 30.2792C80.2197 28.8592 79.5425 26.8878 79.5425 24.3627C79.5425 21.7214 80.2578 19.6401 81.6906 18.1209C83.1234 16.6016 85.1234 15.843 87.6906 15.843C88.4398 15.843 89.2504 15.9275 90.1202 16.0945C90.99 16.2635 91.6694 16.4347 92.1646 16.6122L92.8757 16.8784L92.7276 21.7003H90.0609L89.6461 19.5704C89.0726 19.4119 88.3911 19.3337 87.6017 19.3337C86.4948 19.3337 85.6419 19.7035 85.0387 20.4431C84.4356 21.1826 84.135 22.292 84.135 23.7711C84.135 25.4467 84.4462 26.7293 85.0684 27.6168C85.6906 28.5042 86.6133 28.948 87.8387 28.948C88.2345 28.948 88.6091 28.9142 88.9646 28.8444C89.3202 28.7747 89.6652 28.6712 90.0017 28.5338C90.3382 28.3965 90.5985 28.276 90.7868 28.1788C90.9752 28.0795 91.2313 27.9316 91.5572 27.7351C91.8831 27.5386 92.0757 27.4203 92.135 27.3801Z" fill="white"/>
<path d="M94.9496 16.3754L101.675 16.1387V29.007L103.75 29.7466V32.1131H94.9496V29.7466L97.3199 29.007V19.3357L94.9496 18.7441V16.3754V16.3754ZM96.757 11.2576C96.757 10.4504 97.0088 9.80386 97.5125 9.31998C98.0162 8.8361 98.6131 8.59521 99.3051 8.59521C100.964 8.59521 101.794 9.48268 101.794 11.2576C101.794 12.0859 101.542 12.7431 101.038 13.2248C100.535 13.7087 99.957 13.9496 99.3051 13.9496C98.4945 13.9496 97.8681 13.7193 97.4236 13.2544C96.9792 12.7896 96.757 12.1282 96.757 11.2576Z" fill="white"/>
<path d="M108.458 26.9364L108.695 29.0071C109.347 29.2058 110.156 29.303 111.125 29.303C112.685 29.303 113.466 28.7705 113.466 27.7055C113.466 27.2512 113.199 26.8624 112.666 26.537C112.132 26.2116 111.481 25.9306 110.71 25.6939C109.94 25.4573 109.169 25.1762 108.399 24.8508C107.629 24.5254 106.977 24.0268 106.444 23.3569C105.91 22.6871 105.644 21.8672 105.644 20.9016C105.644 19.1668 106.226 17.8905 107.392 17.0707C108.558 16.2529 110.01 15.843 111.747 15.843C112.537 15.843 113.392 15.917 114.31 16.0649C115.229 16.2128 115.955 16.3565 116.488 16.4938L117.258 16.7305C117.218 17.7173 117.178 19.1964 117.14 21.1678H114.532L114.088 19.245C113.574 19.0485 112.922 18.9492 112.132 18.9492C111.519 18.9492 111.036 19.0823 110.681 19.3485C110.325 19.6148 110.147 19.9845 110.147 20.4579C110.147 20.9122 110.418 21.2967 110.962 21.6116C111.506 21.9264 112.156 22.2032 112.918 22.4399C113.677 22.6765 114.443 22.9491 115.214 23.2534C115.984 23.5598 116.64 24.0373 117.184 24.6881C117.728 25.3389 117.999 26.1377 117.999 27.0843C117.999 28.7599 117.381 30.0679 116.147 31.0039C114.913 31.94 113.258 32.4091 111.184 32.4091C110.355 32.4091 109.485 32.3542 108.577 32.2464C107.669 32.1386 106.966 32.0351 106.473 31.9358L105.732 31.7583V26.9364H108.458V26.9364Z" fill="white"/>
<path d="M132.549 27.3801L134.031 29.8946C132.116 31.5702 129.991 32.4091 127.661 32.4091C125.231 32.4091 123.339 31.6991 121.987 30.2792C120.634 28.8592 119.957 26.8878 119.957 24.3627C119.957 21.7214 120.672 19.6401 122.105 18.1209C123.538 16.6016 125.538 15.843 128.105 15.843C128.854 15.843 129.665 15.9275 130.535 16.0945C131.404 16.2635 132.084 16.4347 132.579 16.6122L133.29 16.8784L133.142 21.7003H130.475L130.061 19.5704C129.487 19.4119 128.806 19.3337 128.016 19.3337C126.909 19.3337 126.056 19.7035 125.453 20.4431C124.85 21.1826 124.549 22.292 124.549 23.7711C124.549 25.4467 124.861 26.7293 125.483 27.6168C126.105 28.5042 127.028 28.948 128.253 28.948C128.649 28.948 129.024 28.9142 129.379 28.8444C129.735 28.7747 130.08 28.6712 130.416 28.5338C130.753 28.3965 131.013 28.276 131.201 28.1788C131.39 28.0795 131.646 27.9316 131.972 27.7351C132.295 27.5386 132.488 27.4203 132.549 27.3801Z" fill="white"/>
<path d="M143.362 15.843C145.752 15.843 147.595 16.5382 148.888 17.9286C150.181 19.3189 150.829 21.2862 150.829 23.8302C150.829 26.4736 150.113 28.5634 148.681 30.1017C147.248 31.64 145.328 32.4091 142.918 32.4091C137.881 32.4091 135.362 29.6981 135.362 24.274C135.362 21.6327 136.082 19.5662 137.525 18.0765C138.969 16.5889 140.913 15.843 143.362 15.843ZM143.216 19.2471C142.09 19.2471 141.265 19.6126 140.742 20.3416C140.219 21.0706 139.957 22.3321 139.957 24.1282C139.957 25.8249 140.202 27.0611 140.698 27.8408C141.193 28.6205 141.982 29.0093 143.068 29.0093C144.154 29.0093 144.954 28.6247 145.468 27.8555C145.982 27.0864 146.238 25.7953 146.238 23.9803C146.238 22.3828 145.997 21.1953 145.512 20.4156C145.028 19.6359 144.262 19.2471 143.216 19.2471Z" fill="white"/>
</svg>
