<svg width="183" height="74" viewBox="0 0 183 74" fill="none" xmlns="http://www.w3.org/2000/svg">
<path d="M29.6265 51.7102C26.6165 53.2537 24.0164 51.8202 22.3255 49.4309C24.0993 49.6064 25.6266 48.6739 26.2065 45.6863C26.7673 42.7958 27.6828 36.349 25.07 34.1437C21.9538 31.5112 19.0415 41.7598 18.759 42.6965C18.5317 43.4513 18.4446 44.2379 18.4722 45.0308C18.2683 44.8553 18.075 44.6798 17.905 44.5149C17.4313 44.0497 16.6645 45.238 16.5965 45.5657C16.0846 48.0459 16.6517 51.0695 15.5429 53.3573C12.4883 59.6562 10.2366 52.9704 9.64395 50.2492C8.86224 46.6673 8.9727 42.1213 7.21384 38.8969C6.91221 38.3429 6.20059 39.0851 6.01366 39.3367C4.20808 41.7556 3.6579 44.9483 3.00789 47.9254C3.10773 43.5592 3.42424 39.0322 2.95479 34.7632C2.29203 28.7435 1.71 22.7237 1.54431 16.6659C1.39349 11.2086 2.19857 5.78303 1.51457 0.342647C1.38924 -0.665928 -0.0892173 0.801475 0.0042483 1.53941C0.669129 6.82544 -0.0424845 12.1474 0.00849674 17.4525C0.0509811 21.823 0.454583 26.1998 0.868805 30.547C1.39774 36.0741 1.43172 41.5357 1.43172 47.0797C1.43172 49.4288 1.51457 51.8202 1.53156 54.2116C0.8157 57.6538 0.373862 61.1532 0.724358 64.642C0.826321 65.6505 2.12209 64.2952 2.21131 63.8787C2.9123 60.595 2.9909 57.2859 2.98453 53.9578C3.31166 52.3678 3.69614 50.7947 4.08487 49.2554C4.64142 47.05 5.13424 43.7642 6.23458 41.3919C7.80863 46.0626 6.61057 56.2985 11.8638 57.8124C16.5816 59.172 17.3995 51.3402 17.8158 47.2298C18.264 47.5956 18.7335 47.9339 19.2157 48.2341C20.9469 52.3551 25.4184 55.5352 29.5288 53.4271C30.2043 53.0804 30.7289 51.1457 29.6265 51.7102ZM20.5348 41.3284C21.2167 39.0681 24.0122 33.1605 24.9107 38.4719C25.257 40.5207 25.0785 42.707 24.9001 44.7686C24.6473 47.6801 22.7865 47.6273 20.9384 46.7117C20.2714 44.8341 20.0781 42.8403 20.5348 41.3284Z" fill="white"/>
<path d="M48.2304 34.7231C48.7976 33.427 47.368 33.5898 46.9432 34.5624C44.8912 39.2543 46.6776 43.813 46.8178 48.6635C46.8539 49.9088 48.377 48.6444 48.3536 47.8727C48.2283 43.5022 46.3887 38.9372 48.2304 34.7231Z" fill="white"/>
<path d="M50.327 25.1509C49.8066 24.6371 49.4731 24.3834 48.7296 24.3792C47.9309 24.3749 47.0324 26.2589 47.8842 26.2631C48.5172 26.2673 48.7211 26.4809 49.1693 26.9249C49.7152 27.462 50.943 25.7599 50.327 25.1509Z" fill="white"/>
<path d="M55.306 33.245C49.3518 29.7245 58.9427 28.7751 59.0786 29.5067C59.2656 30.5238 60.727 29.0437 60.5911 28.3057C59.9453 24.8043 52.9588 29.2445 52.073 30.8917C50.7836 33.2894 53.7511 34.797 55.3868 35.7421C57.4685 36.9452 58.2629 38.6177 58.7813 40.9161C58.0675 43.9609 56.7569 44.9948 54.8493 44.018C54.2673 43.6648 53.7872 43.1976 53.4134 42.6182C52.621 41.6033 52.2387 40.286 51.9434 39.0618C51.697 38.0405 50.2568 39.5312 50.431 40.2628C50.9535 42.4343 52.7888 47.2001 55.9454 46.2C58.367 45.4325 60.5125 43.1595 60.3404 40.4721C60.1068 36.8015 58.2927 35.0106 55.306 33.245Z" fill="white"/>
<path d="M111.368 33.374C109.986 34.7019 108.195 33.8582 106.774 33.3825C105.397 32.9216 104.577 32.1202 104.095 31.1624C104.919 30.0396 107.114 29.1621 108.195 28.3629C110.206 26.8743 110.368 25.6036 110.206 23.2587C110.094 21.6306 108.673 18.719 106.542 20.2076C104.191 21.8505 102.585 24.6035 102.158 27.4685C101.99 28.6039 101.928 30.0608 102.196 31.4013C100.953 33.2599 99.6512 35.2664 97.6969 32.4987C96.7686 31.1856 96.501 29.8387 94.8377 29.3968C94.4872 29.3038 94.056 29.7542 93.9073 30.01C92.6434 32.1773 92.2186 34.5856 91.4071 36.8776C91.1904 33.133 91.5133 29.4011 91.5813 25.6416C91.5877 25.335 91.5983 25.0073 91.6068 24.6838C93.8903 20.8356 95.4198 15.7441 94.4511 11.8113C94.2621 11.0458 93.4187 11.7394 93.1872 12.0819C90.9738 15.3825 90.67 19.0933 90.4151 22.9732C90.379 23.5336 90.3365 24.096 90.294 24.6584C89.268 26.1618 87.7619 27.3649 85.5485 28.1853C85.5103 22.728 85.0961 17.2115 85.0961 12.0185C85.0961 10.7752 83.5602 12.0396 83.5602 12.8071C83.5602 17.8733 83.9787 23.3052 84.0361 28.6737C82.0754 29.2298 79.2693 29.769 77.6868 29.1579C78.1053 28.4073 77.6655 27.4791 76.7882 28.3523C76.5482 28.5912 76.3082 28.8302 76.0681 29.0691C75.7304 29.4053 75.4224 30.12 75.826 30.5069C77.3745 31.9976 80.8965 31.6445 84.0424 30.6147C84.0085 34.5201 83.7323 38.3641 82.8784 41.9755C82.5597 43.3266 84.1402 42.4914 84.3398 41.6477C85.215 37.9412 85.5082 34.0253 85.5506 30.0544C87.3159 29.3271 88.8156 28.4284 89.5399 27.6017C89.7417 27.3712 89.9329 27.0964 90.1305 26.8426C89.7927 31.3125 89.4932 35.7951 90.0561 40.2607C90.1559 41.0515 91.1373 40.3009 91.32 39.9879C92.329 38.2562 92.8643 36.8248 93.3444 34.8351C94.2408 31.1116 95.4899 32.8687 96.8706 34.8245C98.0134 36.4421 100.085 36.8205 101.372 35.2516C101.918 34.5856 102.406 33.909 102.863 33.207C103.294 33.9428 103.9 34.5518 104.796 34.8668C107.668 35.8775 109.758 36.6641 112.038 34.4778C112.817 33.7314 112.384 32.3993 111.368 33.374ZM92.3906 17.2707C92.6137 16.2959 92.9153 15.3719 93.2828 14.5071C94.2026 18.8396 92.8962 16.8837 92.3906 17.2707ZM104.48 24.4914C105.884 24.4808 107.29 24.4681 108.694 24.4576C108.607 26.4028 107.643 27.7074 105.803 28.365C105.14 28.7963 104.254 29.1156 103.632 29.6083C103.621 29.6167 103.611 29.6294 103.598 29.64C103.371 27.9717 103.838 26.0772 104.48 24.4914Z" fill="white"/>
<path d="M91.7747 70.2831C88.6882 71.1056 86.6957 69.4415 85.2278 67.158C87.1099 64.1555 87.4221 57.8524 87.4115 55.9896C87.3988 53.5242 85.6675 53.52 84.0383 54.5561C82.2539 55.6936 81.708 58.2838 81.434 60.1931C81.1982 61.8381 81.451 63.7432 82.0882 65.5552C81.1451 65.4368 80.1085 64.8596 79.0952 63.703C78.1542 62.631 77.3109 61.0959 76.6672 59.3642C76.9816 57.3344 77.1367 55.3109 77.1685 53.1923C77.2025 50.8664 77.7867 48.5046 77.16 46.2316C76.9497 45.4662 76.1447 46.1618 75.8961 46.5044C73.1453 50.2807 73.3386 55.6344 75.1314 60.2523C75.0953 60.4532 75.0719 60.654 75.0316 60.857C74.6598 60.4849 74.1989 60.1889 73.619 60.0049C71.6944 59.3938 70.0333 61.0114 68.9903 63.2104C68.8055 63.0898 68.5145 63.1321 68.1427 63.4916C64.283 67.2151 67.429 77.3769 72.8118 72.8669C74.7937 71.205 76.869 66.012 76.013 62.6881C76.0385 62.5803 76.0682 62.4597 76.0916 62.3583C77.1749 64.4261 78.5684 66.2509 80.1488 67.5597C81.5635 68.7332 82.6936 68.951 83.6177 68.6021C85.402 71.2346 88.1104 72.9938 91.2903 72.1459C92.0147 71.9514 92.7709 70.0167 91.7747 70.2831ZM73.7316 62.5993C74.0438 62.9905 74.201 63.4979 74.3072 64.0308L74.303 64.0477C74.0651 66.4116 72.3975 67.5365 69.3026 67.4202C68.8798 65.4284 71.6413 59.9859 73.7316 62.5993ZM68.249 65.2592C67.8007 66.9106 67.6924 68.6 68.0493 69.801C67.1167 68.655 66.8979 66.9782 68.249 65.2592ZM70.9212 71.2557C72.474 70.7609 73.5404 69.5134 74.2966 67.9953C73.842 70.4036 72.3933 71.3086 70.9212 71.2557ZM75.9152 49.2045C76.0363 51.2026 75.6816 53.4227 75.62 55.3173C75.295 53.1669 75.3417 51.0081 75.9152 49.2045ZM85.8821 57.956C85.8863 58.9773 85.7206 60.007 85.7143 61.0346C85.7037 62.8678 85.0664 64.2824 84.0956 65.0182C83.6283 63.9335 83.3245 62.7959 83.0866 61.6436C82.9337 60.8993 82.8954 60.1529 82.9698 59.4044C82.8126 57.4951 83.7812 57.013 85.8821 57.956Z" fill="white"/>
<path d="M136.955 50.5345C136.64 45.6143 133.73 40.6412 129.38 45.5635C126.315 49.0312 124.301 54.1036 125.739 58.6348C123.292 61.6923 121.242 61.8276 119.602 58.971C118.393 57.4402 117.654 55.865 117.04 54.0635C117.582 51.7884 118.236 49.3568 118.236 47.1536C118.236 44.0856 119.712 37.7106 117.44 35.3065C117.042 34.8879 116.467 35.3551 116.239 35.7463C113.353 40.6919 113.433 48.5047 115.432 54.7189C115.084 56.2794 114.704 57.8525 114.538 59.4151C111.696 64.329 109.059 65.1367 106.634 61.8382C106.039 61.1933 105.612 60.3116 105.327 59.3432C106.277 59.2966 107.188 59.1064 108.087 58.4424C110.625 56.5733 112.019 54.4927 111.526 51.302C111.114 48.64 108.15 48.7436 106.595 50.0461C104.308 51.9617 103.56 54.6492 103.509 57.455C103.02 57.4444 102.53 57.4402 102.043 57.474C101.228 57.658 100.165 57.935 99.6705 58.694C98.8123 60.0092 98.398 61.5506 98.1856 63.147C97.8457 61.4787 97.559 59.7956 97.0895 58.157C96.5351 56.2159 95.9446 54.1734 95.541 52.1415C95.7619 51.8455 95.9233 51.5071 95.8915 51.2513C95.764 50.2343 95.8554 50.5007 95.1076 49.6486C94.4512 48.9022 93.5973 50.4457 93.6589 51.0166C94.02 54.3003 95.0524 57.5184 95.9552 60.6752C96.7603 63.4916 96.9238 66.3757 98.0433 69.1118C98.381 69.9343 99.5026 68.3654 99.5048 67.9488C99.5133 65.198 98.6105 59.3664 102.997 59.3368C103.201 59.3347 103.403 59.3389 103.6 59.3432C104.403 66.3757 112.652 68.3675 115.498 61.5231C116.046 60.2037 116.212 58.7173 116.409 57.2753C116.938 58.4615 117.537 59.5609 118.213 60.5082C120.277 63.4028 122.848 64.3755 125.535 61.9058C126.34 61.1658 126.894 60.2587 127.315 59.2755C127.423 59.1021 127.493 58.9182 127.534 58.7406C127.795 58.0301 127.995 57.288 128.154 56.531C128.974 59.7026 130.646 62.8933 133.609 60.542C136.36 58.3621 137.167 53.8668 136.955 50.5345ZM106.351 52.2091C110.914 50.156 110.449 51.5769 104.96 56.4697C105 54.8437 105.433 53.2621 106.351 52.2091ZM116.592 37.9199C117.07 39.5903 116.7 42.1678 116.7 43.4533C116.7 45.8511 116.479 48.1685 116.152 50.4986C115.479 46.5721 115.392 41.3664 116.592 37.9199ZM134.312 57.8525C132.829 59.6942 131.398 59.5039 130.017 57.2816C128.832 55.8079 129.055 53.2093 129.042 51.4564C129.034 50.2448 127.674 51.3951 127.544 52.0146C127.281 53.2727 127.062 54.5371 126.833 55.7994C126.523 53.2304 127.425 50.6445 128.745 48.3228C129.777 46.09 131.617 45.5931 134.261 46.8301C135.221 48.2192 135.455 50.4351 135.419 52.0823C135.376 54.0487 135.024 56.0193 134.312 57.8525Z" fill="white"/>
<path d="M182.356 30.915C176.673 33.7103 172.807 38.1146 170.828 43.5402V37.8313C170.828 36.5267 169.379 37.9476 169.292 38.6221C168.929 41.4089 168.686 44.1893 167.964 46.9169C166.422 52.7463 161.553 52.3298 158.401 49.4669C159.956 48.7395 161.243 47.6062 161.781 45.7878C162.465 43.4789 164.202 38.3366 161.566 36.4907C158.849 34.5856 156.736 37.3598 155.325 39.6031C153.806 42.0199 153.819 45.7413 155.085 48.7311C152.472 49.1624 148.258 49.3971 145.753 48.5704C148.111 47.3356 151.217 47.7479 152.058 44.517C152.995 40.9162 148.825 42.0559 147.368 43.333C145.271 45.1704 143.71 47.7838 142.709 50.6996C142.284 47.4455 142.015 44.1449 142.01 40.7005C142.008 39.4573 140.475 40.7217 140.475 41.4892V42.9228C140.475 43.0243 140.498 43.0835 140.517 43.1532C140.621 47.2341 141.052 51.1605 141.671 55.0553C140.995 59.8698 141.751 64.8894 144.152 68.393C144.7 69.1901 145.702 67.5726 145.6 67.025C144.819 62.8321 143.99 58.8041 143.321 54.7635C143.565 53.2348 143.952 51.7335 144.46 50.3084C147.238 51.4185 151.427 50.8582 154.14 50.5622C154.722 50.4987 155.314 50.3972 155.905 50.2746C157.226 52.3129 159.253 53.7042 161.891 53.4991C166.167 53.1629 168.196 50.3169 169.292 46.8281V51.5284C169.292 52.7823 170.806 51.4904 170.828 50.7376C171.07 42.5972 174.868 36.2645 182.256 32.6298C182.942 32.2957 183.469 30.3674 182.356 30.915ZM157.426 38.7806C160.933 39.3494 162.108 40.9817 160.952 43.6819C160.714 45.8111 159.469 47.306 157.23 48.175C156.653 47.4032 156.183 46.5427 155.901 45.6187C155.178 43.2463 155.807 40.6604 157.426 38.7806Z" fill="white"/>
</svg>
