<svg width="511" height="88" viewBox="0 0 511 88" fill="none" xmlns="http://www.w3.org/2000/svg">
<path d="M31.2639 8.69344C24.6228 -0.518523 13.644 12.3479 9.55782 17.7648C3.16816 26.2385 -1.35603 36.8479 0.36994 47.5511C2.24515 59.1734 13.7543 47.5995 17.0895 43.9984C19.6865 41.1954 21.7775 37.911 23.4386 34.3793C22.7362 39.8884 22.2593 45.4347 21.7499 51.0633C21.1578 57.6031 19.6541 63.8134 17.9168 70.1238C16.3044 75.977 11.4038 77.1806 8.00217 72.4227C5.75711 69.282 5.94204 64.3804 7.33709 60.9877C8.07355 59.1944 6.43031 59.9392 5.95664 61.0911C3.87379 66.1608 4.17714 71.5761 7.40847 76.0949C10.2667 80.0918 14.8282 78.5295 16.9857 75.0173C21.0621 68.3806 22.2268 59.852 23.1985 52.2847C24.2708 43.9467 24.7834 35.7784 26.0275 27.6198C27.2361 23.6956 28.0244 19.6615 28.4624 15.7809C28.6343 14.2623 26.9473 16.2915 26.7981 16.8343C25.755 20.6406 24.9748 24.4452 24.3421 28.258C23.0752 32.1175 21.3574 35.8237 19.1091 39.323C16.426 43.4992 7.4766 54.5626 2.69286 47.585C-5.59472 35.5005 20.4279 -1.85298 29.6498 10.9391C30.1851 11.6822 31.7505 9.36875 31.2639 8.69344Z" fill="white"/>
<path d="M103.706 16.4755C103.513 15.3721 101.845 17.5628 101.98 18.3318C102.009 18.5015 95.8531 20.9184 94.677 21.7956C92.9786 23.0622 90.5664 24.3369 88.0748 25.0429C88.7058 19.7713 88.5112 14.2865 88.4674 8.88562C88.4576 7.76926 86.8128 9.95997 86.743 10.4883C86.0828 15.5595 85.4437 20.5807 84.9343 25.589C83.3868 25.6665 81.9139 25.4193 80.6762 24.6956C79.9511 24.2707 78.543 26.7473 79.2909 27.1851C81.0201 28.1981 82.8434 28.3952 84.6813 28.1238C84.4671 30.489 84.2822 32.8509 84.1622 35.2145C84.1249 35.3018 84.0941 35.3906 84.0551 35.4795C82.5335 38.9562 78.6534 44.2811 74.0983 42.8804C70.8573 41.8836 71.3391 35.0626 71.3212 32.6038C71.318 32.0286 70.7843 32.4438 70.3106 33.0497C70.1841 32.4115 70.0235 31.7992 69.8369 31.2241C67.5124 24.0752 61.1195 33.0173 59.9126 35.8155C58.7803 38.4376 58.3651 41.3941 59.0853 43.6171C58.2969 42.9822 57.5686 42.1227 56.9798 40.9482C56.7786 40.5475 56.2254 41.0015 56.0681 41.1921C54.9326 42.5734 54.4605 43.1793 53.4678 44.6623C49.6752 46.0744 47.2517 45.9451 46.1827 44.2875C47.9541 44.3441 50.1667 41.1856 50.788 39.8851C53.1304 34.9867 51.1189 26.7279 46.3238 33.872C45.2921 35.4084 44.4632 37.4311 44.0479 39.5168C40.888 44.6106 45.1153 39.3746 39.5546 39.8463C37.6696 40.0063 36.4855 40.2115 34.8455 41.2309C34.1869 41.6396 33.6629 42.1614 33.2298 42.7495C33.2671 40.7381 33.4747 36.284 34.3686 35.3615C34.9979 34.7121 35.4505 32.2758 34.1609 33.6054C30.0536 37.843 31.2475 47.0776 31.4633 52.9341C31.4779 53.443 31.4908 53.9325 31.4957 54.3848C31.5071 55.4188 33.2217 53.2862 33.2217 52.5285V46.8611C33.4391 45.2488 34.0019 43.7835 35.3289 42.9579C36.9997 41.9207 40.9237 43.1712 43.8744 43.882C44.2767 46.6834 45.8258 49.0147 49.1788 49.648C52.0176 50.1844 55.2554 42.9854 56.313 45.0921C58.1282 48.7077 61.9695 48.4331 64.9526 46.9968C65.1781 46.9791 65.3922 46.9758 65.6339 46.9419C68.0218 46.6026 69.399 44.6187 70.2003 42.1695C70.7762 44.2197 71.8841 45.8159 74.0091 45.7545C77.3021 45.6608 79.9787 43.441 81.9609 40.9449C82.7542 39.9449 83.4371 38.9142 84.0519 37.864C83.8037 45.5315 84.1946 53.2168 85.7843 61.0232C86.0358 62.2543 87.5103 59.7663 87.5103 59.1669V56.3219C87.5103 55.9455 87.2735 55.9988 86.975 56.2524C85.7357 48.816 85.5297 41.4668 85.8784 34.1224C86.7544 31.9188 87.34 29.6343 87.739 27.3015C90.667 26.198 93.5253 24.3741 95.9958 23.2125C98.382 22.088 104.35 20.151 103.706 16.4755ZM64.9105 44.3764C64.247 44.4362 63.4992 44.3651 62.6362 44.1017C58.3634 42.7931 61.0059 36.1144 62.2015 33.754C65.973 26.3079 68.6268 34.3857 68.9042 36.7509C69.3325 40.4021 67.4183 43.2536 64.9105 44.3764Z" fill="white"/>
<path d="M132.266 42.1388C129.226 45.0016 125.905 47.6866 121.632 45.567C118.68 44.1017 118.206 40.0531 118.429 36.6636C120.453 36.9302 121.944 36.0449 123.066 33.3339C124.215 30.5616 125.921 27.2045 123.538 24.6987C123.417 24.6486 123.297 24.6567 123.178 24.723C120.15 25.8587 118.203 29.5842 117.253 33.3759C117.124 33.3291 117 33.2952 116.871 33.2354C116.179 32.922 115.499 34.4147 115.376 34.8574C114.261 38.8673 112.522 49.215 107.156 43.2293C104.848 40.6541 104.786 36.5118 103.651 33.3565C103.591 33.2467 103.498 33.195 103.372 33.2031C101.574 33.1708 100.251 35.5392 99.3002 38.5506C99.5581 35.7896 99.9977 33.0464 100.789 30.308C101.302 28.5357 99.4316 30.2078 99.1834 31.0641C97.3342 37.4666 97.2287 43.966 97.219 50.5866C97.2174 51.6432 98.9028 49.5995 98.9433 48.9839C99.1883 45.2811 100.241 41.5313 101.304 37.9884C101.755 36.4827 103.846 41.974 103.943 42.2438C104.822 44.6881 106.009 46.3732 108.172 47.7383C114.805 51.9226 115.973 41.2599 116.638 36.1967C116.665 36.2064 116.695 36.2193 116.722 36.229C116.552 37.6249 116.516 38.9416 116.626 40.0337C116.923 42.9934 118.192 48.5784 122.096 48.9242C126.46 49.3103 129.453 46.7415 132.475 43.8965C133.14 43.2664 133.615 40.8673 132.266 42.1388ZM122.32 31.3436C121.439 32.9252 120.211 33.6877 118.803 33.6797C118.818 33.6021 118.833 33.5165 118.847 33.4422C119.96 27.7683 121.478 32.8541 122.32 31.3436Z" fill="white"/>
<path d="M138.393 35.1434C136.433 33.9478 134.49 34.3 132.35 33.838C129.949 33.3194 136.295 30.1803 137.554 30.0656C138.423 29.9849 139.431 27.4355 138.61 27.5114C134.718 27.8685 130.155 31.1368 129.6 35.1547C129.573 35.3502 129.587 35.6006 129.769 35.7234C132.11 37.3228 135.226 36.5457 137.75 38.0869C139.293 39.0288 140.284 40.5474 141.084 42.1081C142.166 44.2164 141.398 47.4184 138.685 46.6074C138.365 46.5121 135.166 44.7124 136.057 44.1017C136.688 43.6687 137.555 41.0677 136.293 41.932C135.023 42.8028 134.284 43.7883 133.943 45.2924C133.549 47.0404 135.197 47.8676 136.413 48.6705C139.358 50.6108 142.75 48.5041 143.415 45.3134C144.274 41.2179 141.869 37.2646 138.393 35.1434Z" fill="white"/>
<path d="M162.757 47.7788C161.864 43.6461 159.68 40.3326 156.913 37.1855C155.995 36.1418 154.999 35.1644 154.016 34.1822C153.642 33.9576 153.269 33.7314 152.896 33.5069C151.858 30.6731 152.307 29.245 154.241 29.2208C155.013 29.0947 155.824 29.119 156.605 29.1157C157.459 29.1109 158.54 26.5567 157.661 26.5615C153.613 26.5841 149.848 27.9622 149.353 32.4907C149.076 35.0336 152.513 36.5441 153.956 38.0046C156.71 40.7963 159.148 43.9095 160.438 47.5865C156.433 47.635 153.115 45.8256 151.272 41.8916C150.933 41.1679 149.285 43.344 149.658 44.1373C151.874 48.8677 156.29 50.7611 161.367 49.9824C162.123 49.8693 162.913 48.4977 162.757 47.7788Z" fill="white"/>
<path d="M200.085 50.3314C199.063 57.2477 194.37 53.8453 192.696 51.2878C191.218 49.0325 191.92 45.6107 192.264 43.1163C192.825 39.0305 193.946 35.1063 194.188 30.9592C194.279 29.405 192.676 31.4875 192.524 32.0125C191.838 34.3906 189.242 46.2521 185.282 45.5348C184.502 45.3943 183.266 47.9145 184.226 48.089C186.872 48.5688 188.929 45.9629 190.485 42.6252C189.56 47.5785 189.276 52.6094 192.478 55.3882C197.006 59.314 201.176 53.2524 201.807 48.9824C202.025 47.5058 200.193 49.5963 200.085 50.3314Z" fill="white"/>
<path d="M213.896 43.5541C213.203 42.7269 212.102 42.2487 211.162 41.7721C206.075 39.1985 210.28 33.2467 214.704 32.9107C215.571 32.8445 216.592 30.2935 215.76 30.3565C212.082 30.636 209.704 33.2839 208.038 36.3519C206.356 39.4505 206.367 41.3117 209.018 43.5524C210.997 45.2246 213.154 45.6979 213.416 48.6867C213.563 50.3782 214.068 50.8128 211.988 51.0034C209.915 51.1941 205.138 49.2942 206.981 46.4702C207.65 45.4427 207.399 43.6219 206.337 45.2504C205.055 47.2149 203.975 50.005 206.051 51.8775C207.868 53.514 210.749 54.0989 212.989 53.01C215.025 52.0196 215.945 49.2441 215.266 47.1842C214.796 45.7528 214.934 44.79 213.896 43.5541Z" fill="white"/>
<path d="M196.08 21.2689C195.762 21.5856 195.445 21.9006 195.127 22.2173C194.704 22.6389 194.295 23.4079 194.368 24.0235C194.444 24.6761 195.087 24.2189 195.335 23.9734L196.287 23.025C196.711 22.6034 197.119 21.8344 197.046 21.2188C196.97 20.5661 196.326 21.0233 196.08 21.2689Z" fill="white"/>
<path d="M252.905 17.0766C251.932 17.1008 251.202 17.9781 250.832 18.9038C250.258 18.9733 249.671 18.9733 249.097 18.9749C248.243 18.9749 247.158 21.5291 248.04 21.5291C249.108 21.5291 250.243 21.5582 251.226 21.0784C252.437 20.4854 253.191 18.9765 253.239 17.6808C253.248 17.4369 253.246 17.0669 252.905 17.0766Z" fill="white"/>
<path d="M277.99 44.9838C273.787 46.6656 271.726 45.8643 271.807 42.5783C271.732 41.5669 271.615 40.5604 271.456 39.5588C271.232 37.927 270.587 36.9642 269.262 36.0821C269.085 35.9641 268.814 36.1402 268.687 36.242C266.731 37.8107 265.649 39.8011 264.517 42.0257C264.025 42.9918 263.584 43.987 263.117 44.9661C263.081 45.0695 263.037 45.1696 263.002 45.2746C263.714 39.6848 263.788 32.9075 261.757 28.6149C261.399 27.8572 260.351 29.5665 260.26 29.7894C258.888 33.1369 258.318 36.578 257.593 40.1129C256.873 43.6251 251.09 56.8583 247.471 48.5349C246.094 45.3683 246.121 42.0257 246.718 38.7235C247.974 35.7283 248.652 32.1837 249.371 29.3597C249.838 27.5228 248.028 29.3274 247.765 30.1158C247.534 30.8089 247.051 32.4874 246.542 34.6523C246.115 36.0837 245.651 37.5021 245.104 38.8964C243.852 42.2358 240.791 45.1212 238.144 47.6915C238.093 47.7351 238.045 47.7755 237.986 47.8321C237.912 47.9064 237.863 47.9613 237.801 48.0259C237.542 48.2796 237.281 48.5332 237.033 48.7804C236.39 49.4218 235.926 51.8451 237.24 50.5365L238.192 49.5882C238.457 49.3249 238.689 48.7594 238.781 48.2764C239.574 47.8515 240.42 47.3135 240.608 47.1212C242.251 45.4313 243.692 43.6251 245.078 41.7301C245.143 41.6428 245.195 41.5394 245.257 41.449C244.31 48.362 244.644 55.4592 250.414 53.6998C257.67 51.4881 258.971 39.5103 260.753 32.523C262.489 38.3245 261.269 47.6156 260.145 52.8807C259.787 54.5593 261.349 53.2572 261.637 52.451C262.689 49.53 263.709 46.5073 265.046 43.7075C266.163 41.3666 269.365 38.7687 269.936 42.9337C270.069 43.903 270.022 45.0194 270.308 45.9661C271.826 50.9954 275.551 49.8418 278.195 46.7416C278.771 46.0679 279.186 43.5815 277.99 44.9838Z" fill="white"/>
<path d="M346.051 48.4363C343.339 49.2716 341.501 49.2474 338.79 48.4121C338.456 48.2829 338.138 48.1326 337.832 47.9646C340.656 44.5493 343.486 39.4602 341.762 36.2016C338.445 29.93 333.267 39.1614 332.792 42.0403C332.29 45.0808 333.155 47.4121 334.779 49.0018C331.231 50.0535 328.395 42.903 326.522 39.9966C326.399 39.806 326.238 39.8286 326.048 39.8981C324.04 40.6348 322.908 42.4458 321.728 44.1373C320.281 46.2117 320.129 48.5236 320.588 43.3279C320.814 40.764 320.862 38.5297 320.924 35.8915C320.984 33.3243 321.232 30.636 321.563 27.9493C321.977 27.5034 322.372 27.0414 322.726 26.5406C327.393 19.9313 326.571 10.9116 326.579 3.19723C326.58 2.07603 324.931 4.28774 324.854 4.79988C324.329 8.33312 322.757 11.8631 322.102 15.4707C321.449 19.0605 321.091 22.7407 320.627 26.3838C319.845 27.2385 318.935 28.0204 317.845 28.7006C315.796 29.9801 313.543 30.9333 311.236 31.7718C311.309 30.573 311.36 29.405 311.394 28.2983C311.489 25.1318 311.773 2.53808 315.662 2.55424C316.513 2.55747 317.603 0.00325783 316.718 2.66938e-05C311.624 -0.0209757 311.05 12.3575 310.685 15.3511C310.073 20.3756 309.797 25.4517 309.645 30.51C309.627 31.0868 309.601 31.712 309.569 32.3582C307.744 32.9818 305.911 33.565 304.141 34.2064C303.405 34.473 302.4 37.0369 303.474 36.6475C305.322 35.9787 307.361 35.3454 309.426 34.641C308.977 40.5427 307.781 47.8887 304.657 51.6222C304.092 52.2959 303.682 54.7904 304.865 53.3784C308.951 48.4961 310.472 40.9223 311.068 34.0659C314.39 32.8639 317.662 31.397 320.221 29.2272C320.059 30.2871 319.897 31.3469 319.685 32.3889C318.826 36.5942 317.486 44.8094 319.193 48.8806C319.425 49.4348 320.192 48.5365 320.322 48.3685C320.891 47.6334 324.579 41.7317 325.688 43.4539C326.72 45.0566 327.32 46.971 328.241 48.6447C329.367 50.6917 332.963 52.4979 335.121 50.7401C335.387 50.5236 335.681 50.2555 335.982 49.9663C338.474 51.5673 342.012 51.9163 345.384 50.8775C346.13 50.648 347.162 48.0938 346.051 48.4363ZM322.887 19.1009C323.36 16.2817 324.144 13.5466 324.895 10.8114C324.879 15.6581 324.484 20.634 322.032 24.5259C322.304 22.6842 322.591 20.857 322.887 19.1009ZM338.589 44.6931C338.018 45.832 337.46 46.7044 336.915 47.3733C336.331 46.9339 335.805 46.412 335.34 45.8013C333.069 41.1049 334.152 40.7349 338.589 44.6931Z" fill="white"/>
<path d="M417.484 25.6698C414.941 26.6489 412.412 28.9672 409.634 29.3113C409.746 26.9219 409.904 24.5357 410.058 22.1495C410.253 19.7003 410.361 17.2511 410.392 14.8342C410.412 13.3011 408.682 15.4191 408.671 16.1849C408.655 17.2592 408.614 18.3336 408.572 19.4063C408.421 22.7311 408.076 26.0123 407.545 29.279C405.204 29.0674 402.894 28.5423 400.537 28.4615C399.694 28.4325 398.58 30.9851 399.481 31.0158C402.046 31.103 404.56 31.5909 407.109 31.83C406.822 33.2808 406.496 34.7299 406.116 36.1791C405.558 38.1986 404.867 40.1696 404.045 42.0937C403.154 46.5042 400.19 47.7676 395.157 45.8838C395.087 45.4864 395.001 45.1019 394.918 44.7158C395.682 43.6963 396.187 42.4911 396.521 40.6865C396.779 39.2955 397.279 32.4439 394.385 34.2C391.963 35.6702 391.546 40.6914 392.376 45.0518C390.665 45.4444 388.511 44.5655 387.481 42.8433C385.448 39.4426 383.747 33.6718 383.262 28.1271C383.701 24.3208 384.035 20.4952 384.676 16.7309C384.924 15.2769 383.309 17.0637 383.125 17.4579C381.688 20.5356 381.416 24.232 381.612 27.9026C381.135 31.7541 380.622 35.6007 379.733 39.4329C379.657 39.7641 379.568 40.1114 379.472 40.4652C379.253 39.8109 378.973 39.1808 378.586 38.6154C376.458 35.507 371.863 39.2891 370.292 40.9208C367.51 43.8127 366.826 48.7482 368.743 50.9292C368.677 51.5674 368.818 52.1102 369.33 52.4123C372.917 54.5368 376.689 50.989 378.494 48.2296C379.428 46.8015 379.917 45.0453 379.928 43.3021C380.217 42.4604 380.48 41.643 380.726 40.9111C381.437 38.8028 381.941 36.6573 382.342 34.4908C382.428 35.0692 382.515 35.6379 382.601 36.1888C382.957 38.4829 386.582 51.346 391.317 47.8968C391.864 47.4994 392.341 47.1391 392.787 46.7885C393.784 50.3202 395.627 52.9358 397.837 51.9373C402.421 49.8662 404.499 44.3054 406.233 39.9692C406.874 38.3698 407.398 36.7252 407.865 35.0611C408.072 38.7769 408.932 42.2036 409.419 45.9274C408.791 46.6431 408.34 48.0891 409.005 48.0891H409.957C410.772 48.0891 411.406 46.5317 411.349 45.8838C410.926 41.0387 409.599 36.7623 409.565 31.8946C411.85 31.5408 414.795 28.8929 416.821 28.1126C417.551 27.8299 418.542 25.2627 417.484 25.6698ZM375.767 47.8629C374.815 48.8096 373.699 49.4009 372.401 49.3751C372.177 48.8662 371.96 48.2248 371.754 47.4202C372.539 46.4331 372.312 44.6867 371.11 46.2005C370.943 46.4105 370.618 46.8532 370.262 47.4089C370.033 42.1018 372.014 39.7511 376.218 40.3747C376.693 40.8659 377.17 41.3586 377.646 41.8497C376.985 44.4201 376.359 46.4121 375.767 47.8629ZM394.553 43.0889C394.247 41.7867 393.952 40.4894 393.835 39.0839C394.596 37.2115 394.954 37.0838 394.912 38.7042C394.985 39.8206 394.948 40.9305 394.798 42.0372C394.758 42.4314 394.667 42.7722 394.553 43.0889Z" fill="white"/>
<path d="M470.228 33.2338C470.084 33.0949 469.75 33.3114 469.654 33.3938C468.572 34.3308 467.815 35.1337 467.223 36.4973C465.978 39.36 464.773 41.6057 463.115 43.9353C462.964 43.5492 462.835 43.1792 462.724 42.8416C462.505 42.1695 460.834 44.2423 461.11 45.0872C461.221 45.4233 461.347 45.7512 461.487 46.0711C461.436 46.1341 461.391 46.1939 461.339 46.2585C455.535 53.3638 448.618 45.958 445.434 41.1953C445.377 41.1113 445.332 41.0208 445.28 40.9352C446.295 37.8043 447.014 34.5618 447.435 31.3307C448.047 26.631 448.796 20.1025 447.544 15.5288C447.457 15.2122 447.332 15.1411 447.014 15.2364C443.343 16.3463 442.725 22.1349 442.241 25.2513C441.338 31.0948 441.416 36.9367 443.56 42.1114C442.963 43.8142 442.269 45.4798 441.513 46.9952C439.088 51.8548 437.123 45.6462 436.961 44.3715C436.619 41.6913 437.235 38.562 437.959 35.9981C438.371 34.5376 437.02 35.3631 436.632 36.0869C435.654 37.906 435.133 39.8754 434.556 41.8496C433.529 45.3506 429.269 51.2118 427.59 44.0953C427.241 42.6154 427.28 41.037 427.376 39.4715C427.486 38.528 427.53 37.5748 427.541 36.6507C427.551 35.7444 426.961 36.1128 426.469 36.7234C426.205 36.095 425.849 35.578 425.363 35.2614C423.69 34.1773 421.992 34.8575 420.662 36.2614C420.516 36.0029 420.2 36.0239 419.693 36.7154C418.264 38.6654 417.004 41.302 417.353 43.8077C417.682 46.168 419.968 50.8403 423.199 49.3152C424.286 48.8014 425.228 47.391 425.906 45.6462C426.083 46.7561 426.372 47.8515 426.878 48.9145C427.905 51.0713 431.066 50.6335 432.356 49.0938C433.706 47.4815 434.572 45.685 435.273 43.7802C435.237 44.5896 435.219 45.4039 435.238 46.2294C435.287 48.1665 436.767 52.283 439.49 50.997C441.842 49.8871 442.988 46.8547 443.917 44.6526C444.053 44.3311 444.16 43.9951 444.289 43.6704C445.134 45.3215 446.204 46.8967 447.559 48.3652C453.032 54.2976 457.903 51.2232 462.007 47.1051C464.455 51.4154 469.518 53.3719 472.997 48.341C475.538 44.6543 473.138 36.0368 470.228 33.2338ZM424.86 40.1501C424.87 40.911 424.821 41.6703 424.787 42.4296C424.574 42.8497 424.364 43.2713 424.151 43.6914C420.229 44.7124 420.466 43.5314 424.86 40.1501ZM443.753 25.7586C443.88 23.395 446.678 14.5078 446.091 21.7762C445.687 26.7748 446.04 31.7943 445.051 36.7396C444.887 37.5619 444.683 38.402 444.451 39.2453C442.919 35.1822 443.541 29.7474 443.753 25.7586ZM469.093 48.8612C466.51 49.5074 464.791 47.4508 463.715 45.294C464.449 44.4911 465.154 43.6898 465.831 42.9466C466.363 42.3618 466.603 41.5718 466.898 40.8625C467.245 39.8609 467.6 38.8624 467.965 37.8673C470.657 37.347 471.812 38.4941 471.426 41.31C471.813 43.8319 472.868 47.9161 469.093 48.8612Z" fill="white"/>
<path d="M482.447 50.2765H480.542C479.689 50.2765 478.604 52.8307 479.486 52.8307H481.391C482.244 52.8307 483.329 50.2765 482.447 50.2765Z" fill="white"/>
<path d="M510.672 74.2677C467.859 74.258 425.295 68.1463 382.463 67.6762C339.887 67.2093 297.375 70.0333 254.787 69.7134C233.774 69.5551 212.468 68.5986 191.481 69.6972C170.849 70.7764 150.359 72.9381 129.79 74.8121C108.611 76.7411 87.4018 77.83 66.1662 78.935C55.9807 79.465 45.8066 80.1483 35.6584 81.1661C25.0122 82.234 14.546 84.4538 3.89172 85.4442C3.02062 85.5249 2.01651 88.0743 2.8357 87.9984C12.5654 87.0937 22.1296 85.1437 31.8285 84.0192C42.8802 82.7381 54.0033 82.0854 65.1102 81.4893C86.3458 80.347 107.549 79.2598 128.736 77.3663C149.308 75.5278 169.793 73.3371 190.426 72.2514C211.412 71.148 232.719 72.106 253.733 72.2676C296.324 72.5956 338.828 69.9073 381.409 70.2304C424.245 70.5551 466.799 76.8106 509.618 76.8219C510.469 76.8219 511.554 74.2677 510.672 74.2677Z" fill="white"/>
</svg>
