<svg width="65" height="81" viewBox="0 0 65 81" fill="none" xmlns="http://www.w3.org/2000/svg">
<path d="M9.69896 22.8746V34.1412H3.99867C1.78667 34.1412 0 35.9337 0 38.1528V76.9884C0 79.2076 1.78667 81 3.99867 81H61.0013C63.2133 81 65 79.2076 65 76.9884V38.1528C65 35.9337 63.2133 34.1412 61.0013 34.1412H55.301V22.8746C55.301 10.2424 45.0916 0 32.5 0C19.9084 0 9.69896 10.2424 9.69896 22.8746ZM37.4345 66.4901C37.7748 67.7703 36.7539 69.0506 35.4778 69.0506H29.5222C28.161 69.0506 27.225 67.7703 27.5655 66.4901L29.4372 59.235C27.2252 58.1254 25.6938 55.8209 25.6938 53.0896C25.6938 49.2487 28.7566 46.176 32.5852 46.176C36.4138 46.176 39.4766 49.2487 39.4766 53.0896C39.4766 55.8209 37.9452 58.1255 35.7332 59.235L37.4345 66.4901ZM43.9004 22.8746V34.1412H21.0994V22.8746C21.0994 16.5585 26.2041 11.4372 32.5 11.4372C38.7958 11.4372 43.9004 16.5585 43.9004 22.8746Z" fill="#4FB0BB"/>
</svg>
