<svg width="74" height="74" viewBox="0 0 74 74" fill="none" xmlns="http://www.w3.org/2000/svg">
<path d="M6.52645 53.2429C7.08138 53.7994 7.81011 54.0769 8.5387 54.0769C9.26728 54.0769 9.99586 53.7994 10.5509 53.2429L13.3972 50.3967C14.5086 49.2853 14.5086 47.4836 13.3972 46.3722C12.8422 45.8158 12.1135 45.5382 11.3849 45.5382V36.9999H34.1542V45.5382C33.4256 45.5382 32.6971 45.8158 32.142 46.3722C31.0306 47.4836 31.0306 49.2853 32.142 50.3967L34.9881 53.2428C35.543 53.7992 36.2717 54.0768 37.0003 54.0768C37.7289 54.0768 38.4561 53.7992 39.0125 53.2428L41.8588 50.3965C42.9702 49.2852 42.9702 47.4835 41.8588 46.3721C41.3023 45.8156 40.5751 45.5381 39.8465 45.5381V36.9997H62.6158V45.5381C61.8872 45.5381 61.16 45.8156 60.6036 46.3721C59.4922 47.4835 59.4922 49.2852 60.6036 50.3965L63.4498 53.2426C64.0063 53.7991 64.7335 54.0766 65.4621 54.0766C66.1906 54.0766 66.9178 53.7991 67.4743 53.2426L70.3205 50.3964C71.4319 49.285 71.4319 47.4833 70.3205 46.3719C69.7641 45.8155 69.0369 45.5379 68.3083 45.5379V34.1533C68.3083 32.5822 67.0332 31.3071 65.4621 31.3071H39.8464V22.7692H51.231C52.8022 22.7692 54.0771 21.4941 54.0771 19.923V2.84623C54.0773 1.27509 52.8022 0 51.231 0H22.7694C21.1983 0 19.9232 1.27509 19.9232 2.84623V19.9231C19.9232 21.4943 21.1983 22.7693 22.7694 22.7693H34.1541V31.3077H8.5387C6.96755 31.3077 5.69246 32.5828 5.69246 34.1539V45.5385C4.96388 45.5385 4.2353 45.8161 3.68022 46.3725C2.56883 47.4839 2.56883 49.2856 3.68022 50.397L6.52645 53.2429Z" fill="#4FB0BB"/>
<path d="M14.2309 56.9229H2.84624C1.27509 56.9229 0 58.1979 0 59.7691V71.1537C0 72.7248 1.27509 73.9999 2.84624 73.9999H14.2309C15.802 73.9999 17.0771 72.7248 17.0771 71.1537V59.7691C17.077 58.1979 15.8019 56.9229 14.2309 56.9229Z" fill="#4FB0BB"/>
<path d="M36.9995 56.9229C32.2905 56.9229 28.4609 60.7524 28.4609 65.4612C28.4609 70.17 32.2905 73.9997 36.9995 73.9997C41.7085 73.9997 45.5379 70.1702 45.5379 65.4612C45.5379 60.7522 41.7083 56.9229 36.9995 56.9229Z" fill="#4FB0BB"/>
<path d="M73.7002 69.88L68.0079 58.4954C67.5255 57.5319 66.5407 56.9229 65.462 56.9229C64.3834 56.9229 63.3985 57.5319 62.9161 58.4954L57.2238 69.88C56.7827 70.7623 56.8311 71.8096 57.3491 72.6492C57.8672 73.4889 58.7836 73.9997 59.7697 73.9997H71.1543C72.1406 73.9997 73.057 73.4889 73.5749 72.6506C74.0931 71.8111 74.1415 70.7637 73.7002 69.88Z" fill="#4FB0BB"/>
</svg>
