<svg width="76" height="59" viewBox="0 0 76 59" fill="none" xmlns="http://www.w3.org/2000/svg">
<path d="M0 52.506C0 56.1239 2.84545 58.9998 6.42517 58.9998H69.5748C73.1545 58.9998 76 56.1239 76 52.506V17.2544H0V52.506ZM29.5555 35.9006H46.3525C47.3621 35.9006 48.1883 36.7356 48.1883 37.756C48.1883 38.7765 47.3621 39.6115 46.3525 39.6115H29.5555C28.5458 39.6115 27.7197 38.7765 27.7197 37.756C27.7197 36.7356 28.5458 35.9006 29.5555 35.9006ZM9.45411 28.2937C8.71985 27.5516 8.71985 26.4383 9.45411 25.6962C10.1884 24.9541 11.2899 24.9541 12.0242 25.6962L22.6714 36.4571C23.4057 37.1992 23.4057 38.3125 22.6714 39.0546L12.0242 49.8156C11.657 50.1867 11.198 50.3723 10.7391 50.3723C10.2803 50.3723 9.82124 50.1867 9.45411 49.8156C8.71985 49.0735 8.71985 47.9602 9.45411 47.2181L18.7246 37.7557L9.45411 28.2937Z" fill="#4FB0BB"/>
<path d="M69.5747 0H6.42517C2.84545 0 0 2.87584 0 6.49379V13.4514H75.9998V6.49379C75.9998 2.96857 73.0627 0 69.5747 0ZM6.51691 11.5959C3.94684 11.5959 1.83581 9.46236 1.83581 6.86484C1.83581 4.26733 3.94684 2.13374 6.51691 2.13374C9.08698 2.13374 11.198 4.26733 11.198 6.86484C11.198 9.46236 9.08698 11.5959 6.51691 11.5959ZM19.2753 11.5959C16.7053 11.5959 14.5942 9.46236 14.5942 6.86484C14.5942 4.26733 16.7053 2.13374 19.2753 2.13374C21.8454 2.13374 23.9565 4.26733 23.9565 6.86484C23.9565 9.46236 21.8454 11.5959 19.2753 11.5959ZM32.0338 11.5959C29.4637 11.5959 27.3527 9.46236 27.3527 6.86484C27.3527 4.26733 29.4637 2.13374 32.0338 2.13374C34.6039 2.13374 36.7149 4.26733 36.7149 6.86484C36.7149 9.46236 34.6039 11.5959 32.0338 11.5959Z" fill="#4FB0BB"/>
</svg>
