<svg width="153" height="110" viewBox="0 0 153 110" fill="none" xmlns="http://www.w3.org/2000/svg">
<path d="M108.759 12.5929C94.266 21.0542 79.9366 29.4196 65.4601 37.8712C65.4332 37.3768 65.3977 37.0247 65.3973 36.6722C65.3941 30.4487 65.3948 24.2255 65.3948 18.0019C65.3948 16.4534 65.4077 14.9045 65.3869 13.3559C65.3805 12.878 65.5197 12.5782 65.9582 12.324C72.8548 8.322 79.7407 4.30096 86.6298 0.28601C86.778 0.199601 86.9344 0.127893 87.1702 0.00634766C94.2868 4.15503 101.438 8.32451 108.759 12.5929Z" fill="#4FB0BB"/>
<path d="M43.5567 25.2131C43.1777 25.4494 42.9215 25.6186 42.6563 25.7735C35.9947 29.6601 29.3292 33.5402 22.6756 37.4401C22.1502 37.748 21.7508 37.7946 21.1949 37.4684C14.4939 33.5348 7.77634 29.6296 1.06455 25.7143C0.851745 25.5903 0.654012 25.4397 0.383789 25.2572C0.661548 25.0729 0.863228 24.9234 1.07855 24.7979C7.81546 20.8686 14.5574 16.9483 21.2843 13.0022C21.8053 12.6968 22.1936 12.6996 22.7 12.9961C29.4322 16.9387 36.1738 20.8654 42.9121 24.7972C43.083 24.8968 43.2452 25.0112 43.5567 25.2131Z" fill="#4FB0BB"/>
<path d="M130.703 0C137.877 4.18382 145.027 8.35365 152.285 12.5866C145.004 16.8321 137.847 21.0055 130.66 25.1958C123.513 21.0288 116.38 16.8704 109.236 12.7056C109.726 12.1427 125.107 3.05549 130.703 0Z" fill="#4FB0BB"/>
<path d="M65.1586 12.6045C58.0104 16.8001 51.0069 20.8606 43.8655 25.0372C43.826 24.6163 43.7808 24.3528 43.7797 24.0889C43.7729 22.5698 43.7762 21.0503 43.7762 19.5311C43.7762 13.4825 43.7762 7.43394 43.7762 1.38535C43.7762 1.04832 43.7762 0.711291 43.7762 0.191406C45.7208 1.20429 47.433 2.27812 49.1799 3.28813C50.9423 4.30746 52.6993 5.33576 54.458 6.36083C56.2172 7.3859 57.976 8.41132 59.7344 9.43711C61.4845 10.4586 63.234 11.4804 65.1586 12.6045Z" fill="#4FB0BB"/>
<path d="M65.0829 37.9657C57.9882 42.1029 51.013 46.1705 44.0795 50.2134C43.9804 50.1733 43.9521 50.1665 43.9295 50.1514C43.9072 50.1363 43.8767 50.1148 43.8738 50.093C43.8512 49.9244 43.8186 49.7552 43.8186 49.5863C43.8161 41.6228 43.8164 33.6592 43.8164 25.7355C43.9026 25.6806 43.9244 25.6616 43.9499 25.6516C43.9754 25.6419 44.012 25.6279 44.0303 25.6386C50.9219 29.6371 57.8124 33.637 64.7011 37.6397C64.7951 37.6942 64.8701 37.7821 65.0829 37.9657Z" fill="#4FB0BB"/>
<path d="M24.5234 88.8767C24.5234 80.5589 24.5234 72.3454 24.5234 64.0677C24.7484 64.0398 24.9663 63.9892 25.1841 63.9892C28.139 63.9889 31.0938 63.981 34.0483 64.0064C35.519 64.019 36.9544 64.2883 38.3493 64.764C41.7427 65.9218 44.0681 68.1906 45.3083 71.5372C46.5314 74.8372 46.6275 78.1717 45.1745 81.4179C43.2223 85.7792 39.6548 88.009 35.0399 88.6981C33.9963 88.8541 32.9255 88.8587 31.8665 88.8688C29.4585 88.8924 27.0502 88.8767 24.5234 88.8767ZM27.8303 67.1326C27.6549 68.045 27.6821 85.0374 27.8634 85.7409C27.9793 85.7642 28.1153 85.8144 28.2517 85.8147C29.7434 85.8179 31.2413 85.8954 32.7252 85.7846C33.945 85.6939 35.1877 85.5039 36.3504 85.1363C39.5601 84.1217 41.7143 82.0196 42.4974 78.6733C42.787 77.4352 42.783 76.1854 42.6086 74.9168C42.0219 70.6524 39.0412 67.6076 34.7424 67.196C32.5243 66.9834 30.2756 67.091 28.0406 67.0569C27.9872 67.0562 27.9337 67.0942 27.8303 67.1326Z" fill="#4FB0BB"/>
<path d="M66.4191 85.8248C66.4191 86.8821 66.4191 87.8161 66.4191 88.8136C60.9027 88.8136 55.4121 88.8136 49.8691 88.8136C49.8691 80.5643 49.8691 72.3469 49.8691 64.132C50.4806 63.9538 64.3733 63.8892 65.7531 64.0682C65.8938 65.0039 65.8324 65.9577 65.7839 67.0211C61.5548 67.0211 57.3808 67.0211 53.2417 67.0211C53.0196 67.7586 52.9801 73.5455 53.1778 74.568C53.4825 74.5903 53.8138 74.6347 54.145 74.6354C57.3597 74.6408 60.5743 74.6387 63.789 74.6387C64.1278 74.6387 64.4669 74.6387 64.8732 74.6387C64.8732 75.6573 64.8732 76.5884 64.8732 77.6483C63.9186 77.6572 62.9565 77.6701 61.9944 77.6748C61.0186 77.6795 60.0425 77.6759 59.0668 77.6759C58.091 77.6759 57.1149 77.6759 56.1392 77.6759C55.1667 77.6759 54.1941 77.6759 53.2507 77.6759C53.0099 78.3883 52.978 84.8334 53.2152 85.8094C55.3795 85.8424 57.5786 85.8205 59.7773 85.8244C61.9563 85.828 64.1357 85.8248 66.4191 85.8248Z" fill="#4FB0BB"/>
<path d="M118.333 66.1522C117.427 66.9761 116.584 67.7437 115.744 68.5085C115.619 68.4167 115.54 68.3773 115.486 68.316C113.705 66.2917 111.448 66.0303 109.037 66.7312C106.906 67.3508 105.866 69.3267 106.41 71.3758C106.57 71.9778 106.851 72.5238 107.363 72.8669C108.072 73.3427 108.801 73.8203 109.584 74.1466C110.585 74.5636 111.658 74.8067 112.683 75.1695C113.572 75.4839 114.485 75.7772 115.307 76.2258C117.981 77.685 118.847 79.7104 118.568 82.6641C118.251 86.0258 115.865 88.7302 111.691 89.3796C109.579 89.7083 107.517 89.4495 105.518 88.7005C104.428 88.2921 103.462 87.6869 102.66 86.8379C102.468 86.6346 102.305 86.404 102.063 86.1046C102.966 85.3266 103.823 84.5884 104.713 83.8215C104.921 84.047 105.073 84.2094 105.223 84.3747C106.992 86.3377 110.077 86.9963 112.485 85.925C114.229 85.1488 115.203 83.6823 115.108 81.966C115.06 81.0887 114.739 80.3278 113.989 79.8427C113.344 79.4247 112.669 79.0274 111.958 78.7398C110.951 78.3318 109.883 78.0758 108.872 77.6757C107.837 77.2662 106.781 76.8586 105.837 76.2817C101.747 73.7827 101.819 67.5716 105.632 64.9665C107.682 63.5664 109.947 63.1709 112.353 63.3918C113.233 63.4728 114.114 63.6453 114.971 63.8686C116.313 64.2193 117.402 64.9909 118.333 66.1522Z" fill="#4FB0BB"/>
<path d="M87.8166 83.0695C88.8408 83.8401 89.7068 84.4919 90.5996 85.1638C90.1309 85.9067 89.5553 86.4588 88.9208 86.9404C86.3439 88.8958 83.4403 89.6506 80.2084 89.481C75.4298 89.2304 69.918 85.6396 68.7263 79.1765C67.7638 73.9579 69.1016 69.3568 73.3606 65.9366C76.0818 63.751 79.313 63.0948 82.7588 63.4229C84.1713 63.5574 85.5206 63.931 86.8043 64.5269C88.0944 65.126 89.1947 65.9689 90.099 67.1743C89.1929 67.8638 88.3302 68.5203 87.4492 69.1908C87.3318 69.1069 87.2267 69.0578 87.1567 68.9782C84.3156 65.7334 79.0855 65.6408 75.7388 68.25C74.2732 69.3926 73.2454 70.8508 72.6325 72.5966C71.6115 75.504 71.6018 78.4114 72.9206 81.2152C74.4573 84.4818 77.0999 86.1985 80.7194 86.414C83.5221 86.5807 85.8386 85.6514 87.607 83.4421C87.6792 83.3524 87.7222 83.2399 87.8166 83.0695Z" fill="#4FB0BB"/>
<path d="M152.271 67.1706C151.332 67.8874 150.473 68.5435 149.472 69.3079C149.314 69.0748 149.214 68.8576 149.054 68.6995C147.343 67.001 145.255 66.3037 142.874 66.4277C138.535 66.654 135.218 69.784 134.344 74.2077C133.787 77.0273 134.079 79.7612 135.64 82.2416C137.3 84.8811 139.74 86.2285 142.853 86.4164C145.692 86.5878 148.025 85.6409 149.815 83.4104C149.868 83.3448 149.937 83.2921 150.071 83.1652C150.514 83.4871 150.97 83.8138 151.421 84.1476C151.857 84.4703 152.287 84.8001 152.764 85.1604C152.29 85.937 151.665 86.5089 150.988 87.0209C148.71 88.7426 146.12 89.5529 143.279 89.5232C138.047 89.4683 133.546 86.3759 131.571 81.5216C129.543 76.5361 130.755 70.443 134.512 66.7888C136.36 64.9914 138.6 63.9613 141.121 63.5329C143.546 63.1209 145.923 63.3253 148.228 64.208C149.81 64.8139 151.173 65.725 152.271 67.1706Z" fill="#4FB0BB"/>
<path d="M19.4496 83.1717C19.6577 83.3115 19.8271 83.4148 19.9847 83.5331C20.6938 84.0648 21.3997 84.6005 22.1525 85.1698C21.9954 85.386 21.883 85.5764 21.7366 85.7363C19.7485 87.9041 17.2555 89.0776 14.3581 89.4139C10.8961 89.8158 7.72846 89.036 4.98065 86.8614C1.83128 84.3689 0.178366 81.0778 0.0140074 77.0636C-0.10657 74.121 0.546199 71.3624 2.17077 68.8827C4.24893 65.7111 7.24256 63.9973 10.9668 63.4741C13.383 63.1346 15.7139 63.4272 17.9668 64.354C19.1503 64.8409 20.191 65.5415 21.0699 66.4737C21.2615 66.677 21.4302 66.9022 21.6548 67.1721C20.7379 67.867 19.8774 68.5195 18.9938 69.1889C18.8356 69.0631 18.7136 68.9903 18.6228 68.8896C16.0612 66.0478 11.6426 65.7426 8.48171 67.4812C6.01956 68.8354 4.54069 70.9494 3.86244 73.6227C3.08156 76.6997 3.36685 79.6713 5.11594 82.3836C6.752 84.9207 9.14417 86.2107 12.1514 86.4115C15.0195 86.6033 17.3919 85.6722 19.2006 83.4026C19.2526 83.337 19.3247 83.2864 19.4496 83.1717Z" fill="#4FB0BB"/>
<path d="M123.099 64.0396C124.156 64.0396 125.171 64.0396 126.172 64.0396C126.374 64.7735 126.399 88.0335 126.193 88.8764C125.535 88.8764 124.853 88.8764 124.172 88.8764C123.834 88.8764 123.496 88.8764 123.099 88.8764C123.099 80.5783 123.099 72.3649 123.099 64.0396Z" fill="#4FB0BB"/>
<path d="M102.04 99.316C102.04 100.277 102.04 101.239 102.04 102.246C101.72 102.275 101.504 102.296 101.216 102.322C101.216 100.856 101.216 99.4401 101.216 97.9572C101.654 97.9572 102.095 97.9572 102.597 97.9572C102.914 98.8191 103.237 99.6993 103.582 100.636C104.1 100.309 104.067 99.7728 104.254 99.3605C104.453 98.9184 104.596 98.4509 104.781 97.9468C105.231 97.9468 105.673 97.9468 106.171 97.9468C106.171 99.3956 106.171 100.814 106.171 102.269C105.886 102.269 105.643 102.269 105.315 102.269C105.315 101.258 105.315 100.293 105.315 99.3282C105.266 99.316 105.217 99.3039 105.168 99.2917C105.077 99.4426 104.96 99.5835 104.902 99.7459C104.65 100.447 104.403 101.15 104.183 101.861C104.052 102.282 103.802 102.399 103.306 102.246C102.978 101.29 102.63 100.276 102.282 99.2623C102.201 99.2802 102.12 99.2981 102.04 99.316Z" fill="#4FB0BB"/>
<path d="M24.0961 105.51C24.375 105.47 24.5401 105.431 24.7062 105.425C25.462 105.397 25.4943 105.418 25.7555 106.14C25.9967 106.805 26.2274 107.474 26.5393 108.358C26.7331 107.954 26.8465 107.751 26.9304 107.536C27.0761 107.163 27.2032 106.783 27.3385 106.406C27.7275 105.322 27.7275 105.322 28.9569 105.495C29.1468 106.09 29.1959 108.566 29.0319 109.797C28.8356 109.819 28.6235 109.844 28.2905 109.882C28.2693 108.826 28.2496 107.826 28.2295 106.826C28.1556 106.811 28.0813 106.796 28.0074 106.78C27.9112 107.027 27.8086 107.272 27.7206 107.522C27.4924 108.169 27.2649 108.817 27.0489 109.468C26.9688 109.709 26.8551 109.864 26.5712 109.869C26.2813 109.875 26.1643 109.707 26.0868 109.475C25.8513 108.769 25.6209 108.062 25.3812 107.358C25.3199 107.178 25.2316 107.006 24.989 106.838C24.9761 107.325 24.9585 107.811 24.952 108.298C24.9456 108.78 24.9506 109.263 24.9506 109.801C24.6728 109.827 24.4582 109.846 24.1525 109.874C23.9716 108.418 24.0613 107.006 24.0961 105.51Z" fill="#4FB0BB"/>
<path d="M129.278 106.942C129.278 107.873 129.278 108.805 129.278 109.807C128.93 109.824 128.695 109.836 128.417 109.85C128.417 108.359 128.417 106.942 128.417 105.536C129.57 105.306 129.594 105.316 130.136 106.197C130.565 106.896 130.997 107.594 131.526 108.453C131.815 107.381 131.57 106.467 131.745 105.511C131.979 105.486 132.214 105.46 132.394 105.441C132.641 105.688 132.683 108.51 132.513 109.807C132.166 109.807 131.807 109.807 131.339 109.807C130.752 108.88 130.119 107.882 129.486 106.883C129.417 106.903 129.347 106.923 129.278 106.942Z" fill="#4FB0BB"/>
<path d="M76.7558 106.974C76.7558 107.904 76.7558 108.834 76.7558 109.814C76.4127 109.814 76.173 109.814 75.8877 109.814C75.8877 108.375 75.8877 106.981 75.8877 105.594C76.8878 105.254 77.063 105.312 77.5769 106.14C78.0269 106.865 78.4754 107.59 79.0191 108.469C79.097 108.119 79.1637 107.947 79.1691 107.772C79.1856 107.199 79.1627 106.624 79.1874 106.052C79.2122 105.474 79.2434 105.464 80.0089 105.506C80.0089 106.918 80.0089 108.335 80.0089 109.75C78.9154 109.997 78.9158 109.997 78.3538 109.092C77.9041 108.368 77.4538 107.643 77.0038 106.918C76.9209 106.937 76.8383 106.956 76.7558 106.974Z" fill="#4FB0BB"/>
<path d="M46.5797 108.233C46.5797 107.331 46.5797 106.429 46.5797 105.492C46.9149 105.492 47.1554 105.492 47.4414 105.492C47.4414 106.938 47.4414 108.329 47.4414 109.822C47.0452 109.841 46.6623 109.86 46.2607 109.879C45.6223 108.863 45.0047 107.879 44.3383 106.818C43.9845 107.352 44.1628 107.843 44.1319 108.298C44.0996 108.777 44.1248 109.26 44.1248 109.792C43.8287 109.823 43.6159 109.845 43.4347 109.864C43.21 109.602 43.1666 106.88 43.3295 105.583C44.3132 105.258 44.4671 105.31 44.9853 106.147C45.431 106.867 45.8767 107.587 46.3224 108.307C46.4082 108.283 46.494 108.258 46.5797 108.233Z" fill="#4FB0BB"/>
<path d="M14.2455 102.213C13.1351 102.423 13.1351 102.423 12.613 101.577C12.1529 100.831 11.6929 100.085 11.1255 99.1648C10.8607 100.315 11.0835 101.28 10.9324 102.264C10.6644 102.264 10.4229 102.264 10.125 102.264C10.125 100.824 10.125 99.4083 10.125 98.0021C11.3082 97.7654 11.3136 97.769 11.8881 98.7034C12.3187 99.4036 12.7519 100.102 13.2744 100.787C13.5701 99.8586 13.3268 98.8956 13.5119 97.9591C13.654 97.9347 13.7624 97.9021 13.8704 97.9021C13.9788 97.9017 14.0872 97.934 14.2451 97.9605C14.2455 99.395 14.2455 100.809 14.2455 102.213Z" fill="#4FB0BB"/>
<path d="M117.82 100.104C117.819 101.519 116.881 102.447 115.442 102.456C113.97 102.465 113.009 101.512 113.025 100.057C113.039 98.6583 114.007 97.7343 115.446 97.7447C116.879 97.7551 117.822 98.6927 117.82 100.104ZM113.97 99.9756C113.917 100.889 114.467 101.567 115.317 101.638C116.13 101.705 116.804 101.111 116.87 100.272C116.944 99.3133 116.368 98.6041 115.485 98.5661C114.661 98.531 114.019 99.1283 113.97 99.9756Z" fill="#4FB0BB"/>
<path d="M94.0534 97.9479C94.3778 97.9479 94.5913 97.9479 94.8719 97.9479C94.8719 99.38 94.8719 100.793 94.8719 102.199C93.7856 102.438 93.7853 102.438 93.2563 101.582C92.7927 100.832 92.3305 100.081 91.7703 99.348C91.5205 100.295 91.6849 101.253 91.5725 102.25C91.3196 102.25 91.087 102.25 90.7791 102.25C90.6808 100.811 90.6765 99.4011 90.782 98.0064C91.9619 97.7834 91.9626 97.783 92.5088 98.6733C92.853 99.2344 93.1899 99.7998 93.5409 100.357C93.6396 100.513 93.7767 100.646 94.0534 100.757C94.0534 99.836 94.0534 98.9142 94.0534 97.9479Z" fill="#4FB0BB"/>
<path d="M74.0934 107.614C74.1031 109.034 73.179 109.972 71.7407 109.999C70.2888 110.028 69.2778 109.046 69.2832 107.614C69.2886 106.22 70.2514 105.295 71.6984 105.293C73.1625 105.292 74.0837 106.184 74.0934 107.614ZM70.2313 107.619C70.2227 108.53 70.8195 109.143 71.7091 109.138C72.5578 109.132 73.1525 108.547 73.1819 107.686C73.212 106.808 72.5844 106.122 71.7343 106.104C70.8748 106.086 70.2396 106.726 70.2313 107.619Z" fill="#4FB0BB"/>
<path d="M25.0352 102.456C23.621 102.434 22.6287 101.445 22.6477 100.076C22.6667 98.7029 23.6762 97.7399 25.0898 97.7456C26.5547 97.7517 27.5408 98.7427 27.5046 100.172C27.4694 101.555 26.4714 102.478 25.0352 102.456ZM25.1041 98.5667C24.2633 98.5527 23.5919 99.235 23.5923 100.104C23.5926 100.968 24.2694 101.657 25.1049 101.644C25.9188 101.631 26.5407 100.991 26.56 100.146C26.5805 99.2598 25.955 98.581 25.1041 98.5667Z" fill="#4FB0BB"/>
<path d="M90.0466 100.17C90.0179 101.548 89.0181 102.476 87.5845 102.456C86.1562 102.436 85.2045 101.48 85.2149 100.077C85.2257 98.6544 86.2506 97.7003 87.7191 97.7462C89.1391 97.791 90.0761 98.7666 90.0466 100.17ZM87.6362 101.644C88.4845 101.638 89.1132 100.962 89.0996 100.071C89.0863 99.2134 88.4874 98.5859 87.6613 98.5658C86.8158 98.545 86.1501 99.2123 86.1401 100.09C86.13 100.953 86.8011 101.649 87.6362 101.644Z" fill="#4FB0BB"/>
<path d="M100.447 100.105C100.445 101.523 99.5076 102.45 98.07 102.456C96.5993 102.462 95.6196 101.495 95.6379 100.057C95.6555 98.6758 96.6499 97.7339 98.0771 97.7457C99.5187 97.7572 100.448 98.6829 100.447 100.105ZM96.585 100.059C96.5652 100.954 97.1843 101.631 98.0323 101.643C98.8742 101.655 99.5406 100.974 99.5384 100.104C99.5363 99.2609 98.9334 98.6069 98.1206 98.5664C97.274 98.5245 96.6047 99.1749 96.585 100.059Z" fill="#4FB0BB"/>
<path d="M72.3177 97.7457C73.7445 97.7568 74.717 98.7116 74.7156 100.1C74.7142 101.527 73.7076 102.483 72.2369 102.456C70.8123 102.429 69.8598 101.46 69.8842 100.062C69.9083 98.6643 70.8858 97.7342 72.3177 97.7457ZM73.7686 100.072C73.7538 99.1799 73.0986 98.5324 72.2445 98.5668C71.4302 98.5994 70.8158 99.2512 70.8087 100.09C70.8015 100.954 71.4711 101.65 72.3048 101.643C73.1542 101.637 73.7833 100.962 73.7686 100.072Z" fill="#4FB0BB"/>
<path d="M110.12 105.293C111.574 105.286 112.525 106.19 112.546 107.598C112.567 109 111.622 109.961 110.19 109.993C108.739 110.026 107.709 109.043 107.712 107.626C107.715 106.236 108.682 105.3 110.12 105.293ZM110.093 109.137C110.974 109.157 111.615 108.536 111.627 107.653C111.639 106.786 110.983 106.105 110.137 106.104C109.315 106.104 108.693 106.72 108.66 107.567C108.625 108.471 109.215 109.118 110.093 109.137Z" fill="#4FB0BB"/>
<path d="M120.297 102.295C120.297 100.981 120.295 99.7848 120.3 98.5884C120.3 98.3941 120.329 98.1997 120.35 97.9495C121.149 97.9495 121.922 97.8609 122.666 97.9699C123.82 98.1391 124.449 98.9978 124.421 100.151C124.393 101.273 123.632 102.147 122.462 102.281C121.79 102.358 121.102 102.295 120.297 102.295ZM121.272 101.461C122.096 101.578 122.83 101.556 123.292 100.82C123.602 100.326 123.601 99.7633 123.226 99.2901C122.722 98.654 122.035 98.6217 121.272 98.754C121.272 99.6873 121.272 100.556 121.272 101.461Z" fill="#4FB0BB"/>
<path d="M40.5645 102.272C40.5645 100.833 40.5645 99.4428 40.5645 98.0498C41.3367 97.7816 42.7905 97.8254 43.4669 98.152C44.3142 98.5611 44.6339 99.2653 44.6149 100.177C44.5952 101.115 44.1358 101.751 43.2993 102.102C42.4284 102.467 41.5162 102.329 40.5645 102.272ZM41.4652 98.7386C41.4652 99.674 41.4652 100.547 41.4652 101.49C42.2382 101.542 42.9555 101.59 43.4382 100.906C43.7773 100.425 43.7888 99.863 43.4802 99.3714C43.0374 98.6669 42.3243 98.6375 41.4652 98.7386Z" fill="#4FB0BB"/>
<path d="M147.053 100.657C146.798 100.596 146.583 100.545 146.333 100.485C146.333 100.261 146.333 100.051 146.333 99.79C146.857 99.79 147.334 99.79 147.881 99.79C147.881 100.547 147.881 101.274 147.881 102.043C147.011 102.483 146.101 102.606 145.159 102.295C144.21 101.981 143.688 101.181 143.687 100.109C143.685 99.0353 144.2 98.2339 145.147 97.9148C146.058 97.6079 146.932 97.6818 147.812 98.2626C147.603 98.5061 147.442 98.6929 147.271 98.8908C146.965 98.7843 146.706 98.6667 146.433 98.6039C145.777 98.453 145.134 98.7434 144.817 99.3056C144.5 99.8689 144.58 100.692 144.997 101.156C145.414 101.619 146.15 101.762 146.739 101.526C147.133 101.369 147.12 101.08 147.053 100.657Z" fill="#4FB0BB"/>
<path d="M30.0352 102.412C30.0352 100.825 30.0352 99.4324 30.0352 97.9323C30.8569 97.8785 31.6744 97.7961 32.4837 98.0015C33.4759 98.2536 34.0182 98.9215 34.0767 99.8864C34.1416 100.953 33.6783 101.833 32.6943 102.101C31.884 102.323 31.0087 102.309 30.0352 102.412ZM30.9029 101.473C31.7243 101.564 32.4481 101.57 32.9401 100.85C33.2466 100.401 33.2175 99.6286 32.8655 99.2471C32.3326 98.6695 31.6665 98.5827 30.9029 98.795C30.9029 99.6974 30.9029 100.561 30.9029 101.473Z" fill="#4FB0BB"/>
<path d="M21.3011 100.546C21.6291 101.107 21.9435 101.645 22.3084 102.269C21.9054 102.269 21.6101 102.269 21.3302 102.269C20.7366 101.795 20.8586 100.71 19.796 100.52C19.7584 101.148 19.7264 101.681 19.6916 102.263C19.4063 102.263 19.1641 102.263 18.873 102.263C18.873 100.846 18.873 99.4496 18.873 97.9463C19.7052 97.862 20.5586 97.771 21.384 98.0015C22.2761 98.2503 22.527 99.4299 21.8721 100.1C21.7163 100.259 21.5189 100.378 21.3011 100.546ZM19.7939 99.6415C20.1865 99.8566 20.5834 99.8362 20.9462 99.6429C21.0901 99.5662 21.2329 99.3317 21.2272 99.1743C21.2218 99.0151 21.0592 98.7659 20.9175 98.7261C20.5784 98.6304 20.2109 98.6343 19.7939 98.5917C19.7939 99.0173 19.7939 99.3213 19.7939 99.6415Z" fill="#4FB0BB"/>
<path d="M102.198 109.832C102.198 108.354 102.198 106.964 102.198 105.5C103.081 105.371 103.929 105.34 104.76 105.568C105.707 105.828 106.213 106.542 106.241 107.537C106.269 108.544 105.76 109.333 104.838 109.673C104.009 109.979 103.153 109.877 102.198 109.832ZM103.079 109.013C103.917 109.116 104.627 109.075 105.086 108.391C105.413 107.906 105.421 107.344 105.073 106.857C104.588 106.179 103.883 106.169 103.079 106.307C103.079 107.192 103.079 108.06 103.079 109.013Z" fill="#4FB0BB"/>
<path d="M65.3809 97.9489C65.6705 97.9489 65.9127 97.9489 66.1987 97.9489C66.2321 98.4756 66.2622 98.9539 66.2974 99.5111C66.9372 99.5111 67.5448 99.5111 68.2241 99.5111C68.2658 98.9897 68.3059 98.4896 68.3497 97.9453C68.6307 97.9453 68.8729 97.9453 69.1575 97.9453C69.1575 99.4024 69.1575 100.822 69.1575 102.279C68.8891 102.279 68.6684 102.279 68.3515 102.279C68.3153 101.687 68.2794 101.104 68.2396 100.451C67.6051 100.451 66.995 100.451 66.2963 100.451C66.2662 101.048 66.2364 101.634 66.2041 102.266C65.9109 102.266 65.6687 102.266 65.3812 102.266C65.3809 100.816 65.3809 99.3967 65.3809 97.9489Z" fill="#4FB0BB"/>
<path d="M139.269 105.445C139.999 105.445 140.653 105.428 141.307 105.45C141.903 105.47 142.352 105.737 142.53 106.344C142.698 106.921 142.508 107.399 141.957 107.825C141.87 107.892 141.787 107.964 141.658 108.069C141.973 108.628 142.277 109.166 142.645 109.82C142.256 109.839 141.965 109.854 141.645 109.87C141.385 109.385 141.148 108.931 140.901 108.483C140.777 108.259 140.639 107.957 140.338 108.09C140.195 108.154 140.106 108.451 140.085 108.652C140.045 109.014 140.073 109.384 140.073 109.801C139.766 109.826 139.551 109.843 139.269 109.866C139.269 108.401 139.269 106.986 139.269 105.445ZM140.15 106.185C140.15 106.562 140.15 106.881 140.15 107.287C140.53 107.271 140.856 107.319 141.132 107.223C141.328 107.155 141.586 106.888 141.581 106.718C141.575 106.536 141.321 106.27 141.123 106.207C140.846 106.119 140.521 106.185 140.15 106.185Z" fill="#4FB0BB"/>
<path d="M139.884 97.8994C140.645 97.8994 141.298 97.8732 141.949 97.9066C142.625 97.9414 143.015 98.2501 143.178 98.7904C143.351 99.3637 143.172 99.8639 142.642 100.282C142.554 100.351 142.464 100.417 142.314 100.529C142.637 101.099 142.953 101.657 143.283 102.24C142.313 102.366 142.313 102.366 141.932 101.658C141.784 101.382 141.669 101.077 141.474 100.838C141.344 100.677 141.1 100.609 140.748 100.409C140.748 101.136 140.748 101.664 140.748 102.244C140.441 102.274 140.228 102.295 139.901 102.327C139.813 100.862 139.848 99.4501 139.884 97.8994ZM140.781 99.7133C141.17 99.7133 141.521 99.7785 141.826 99.6892C142.014 99.6344 142.222 99.3554 142.25 99.1532C142.27 99.0163 142.021 98.7563 141.842 98.695C141.502 98.5781 141.12 98.4767 140.78 98.7596C140.781 99.0622 140.781 99.363 140.781 99.7133Z" fill="#4FB0BB"/>
<path d="M59.1498 105.439C59.8836 105.439 60.5127 105.409 61.1375 105.446C61.885 105.491 62.2622 105.793 62.4172 106.379C62.5686 106.95 62.377 107.409 61.8075 107.84C61.7404 107.891 61.679 107.949 61.5463 108.062C61.8495 108.612 62.1585 109.172 62.4739 109.744C61.5592 109.948 61.5588 109.948 61.1673 109.222C61.0044 108.92 60.8694 108.597 60.6678 108.324C60.5709 108.193 60.3491 108.104 60.1815 108.099C60.1094 108.097 59.9752 108.356 59.9647 108.503C59.935 108.924 59.9543 109.348 59.9543 109.817C59.6353 109.817 59.4221 109.817 59.1494 109.817C59.1498 108.38 59.1498 106.967 59.1498 105.439ZM60.123 107.314C60.4733 107.272 60.8447 107.288 61.1709 107.174C61.5879 107.029 61.6439 106.505 61.257 106.326C60.9491 106.184 60.5368 106.125 60.2106 106.2C59.8201 106.29 59.9698 106.703 59.9769 107C59.9784 107.05 60.0214 107.1 60.123 107.314Z" fill="#4FB0BB"/>
<path d="M125.193 97.938C126.182 97.938 127.112 97.938 128.083 97.938C128.083 98.1696 128.083 98.3596 128.083 98.6716C127.445 98.6716 126.807 98.6716 126.113 98.6716C126.097 99.0301 126.087 99.27 126.072 99.5944C126.717 99.6296 127.303 99.6618 127.927 99.6959C127.944 99.9272 127.959 100.115 127.98 100.39C127.356 100.429 126.772 100.465 126.117 100.506C126.094 100.822 126.075 101.092 126.048 101.469C126.777 101.502 127.447 101.533 128.184 101.567C128.21 101.782 128.236 101.99 128.27 102.265C127.217 102.265 126.234 102.265 125.193 102.265C125.193 100.813 125.193 99.3998 125.193 97.938Z" fill="#4FB0BB"/>
<path d="M85.1792 109.843C84.099 109.843 83.1581 109.843 82.0948 109.843C82.0237 108.408 82.0539 106.994 82.0804 105.599C82.7946 105.371 84.1798 105.352 85.0235 105.548C85.0235 105.732 85.0235 105.923 85.0235 106.206C84.3718 106.206 83.7513 106.206 83.0576 106.206C83.0576 106.557 83.0576 106.817 83.0576 107.187C83.672 107.187 84.2602 107.187 84.886 107.187C84.886 107.485 84.886 107.676 84.886 107.945C84.2856 107.976 83.6975 108.007 83.0469 108.041C83.0469 108.374 83.0469 108.666 83.0469 109.045C83.7405 109.045 84.3901 109.045 85.1028 109.045C85.13 109.332 85.1498 109.539 85.1792 109.843Z" fill="#4FB0BB"/>
<path d="M126.212 107.228C126.212 107.508 126.212 107.7 126.212 107.955C125.592 107.982 125.003 108.008 124.371 108.036C124.371 108.384 124.371 108.657 124.371 109.02C125.066 109.052 125.739 109.084 126.467 109.118C126.467 109.365 126.467 109.572 126.467 109.826C125.453 109.826 124.489 109.826 123.531 109.826C123.351 109.208 123.313 106.626 123.474 105.496C124.389 105.496 125.317 105.496 126.318 105.496C126.334 105.695 126.35 105.901 126.374 106.213C125.688 106.213 125.07 106.213 124.393 106.213C124.364 106.549 124.343 106.791 124.313 107.145C124.96 107.173 125.546 107.199 126.212 107.228Z" fill="#4FB0BB"/>
<path d="M48.1656 99.6094C48.1656 99.965 48.1656 100.155 48.1656 100.399C47.543 100.435 46.9548 100.469 46.3239 100.505C46.3239 100.856 46.3239 101.128 46.3239 101.482C47.005 101.482 47.6539 101.482 48.3953 101.482C48.4143 101.785 48.4286 102.013 48.4455 102.281C47.3897 102.281 46.428 102.281 45.4092 102.281C45.4092 100.823 45.4092 99.41 45.4092 97.9429C46.3824 97.9429 47.3137 97.9429 48.2998 97.9429C48.2998 98.1781 48.2998 98.386 48.2998 98.6847C47.6449 98.6847 47.0255 98.6847 46.349 98.6847C46.3196 99.0099 46.2977 99.2512 46.2651 99.6097C46.916 99.6094 47.5003 99.6094 48.1656 99.6094Z" fill="#4FB0BB"/>
<path d="M80.2039 98.7005C79.4761 98.7005 78.8808 98.7005 78.2165 98.7005C78.2165 99.0249 78.2165 99.2852 78.2165 99.6291C78.8165 99.6291 79.3807 99.6291 80.0029 99.6291C80.0323 99.912 80.0539 100.12 80.0833 100.403C79.4327 100.436 78.8434 100.466 78.1885 100.499C78.1727 100.837 78.1602 101.11 78.1426 101.488C78.8506 101.488 79.4955 101.488 80.201 101.488C80.2419 101.784 80.2699 101.989 80.3076 102.264C79.2708 102.264 78.3098 102.264 77.2842 102.264C77.2842 100.837 77.2842 99.4229 77.2842 97.9482C78.2377 97.9482 79.1689 97.9482 80.1687 97.9482C80.1784 98.1652 80.1884 98.3731 80.2039 98.7005Z" fill="#4FB0BB"/>
<path d="M34.8701 102.272C34.8701 100.78 34.8701 99.3882 34.8701 97.9429C35.8484 97.9429 36.7764 97.9429 37.7557 97.9429C37.7557 98.1874 37.7557 98.3946 37.7557 98.6854C37.0789 98.6854 36.4588 98.6854 35.773 98.6854C35.773 99.0321 35.773 99.2946 35.773 99.632C36.396 99.632 36.9605 99.632 37.5828 99.632C37.619 99.9041 37.6463 100.111 37.685 100.402C37.0312 100.433 36.4426 100.461 35.778 100.492C35.778 100.832 35.778 101.122 35.778 101.503C36.4588 101.503 37.1058 101.503 37.8092 101.503C37.8343 101.796 37.8523 102.005 37.8752 102.272C36.855 102.272 35.8961 102.272 34.8701 102.272Z" fill="#4FB0BB"/>
<path d="M54.1641 109.827C54.1641 108.382 54.1641 106.991 54.1641 105.505C55.025 105.338 55.9042 105.427 56.7759 105.451C56.8875 105.454 57.0906 105.668 57.0795 105.764C57.0615 105.922 56.9298 106.151 56.7967 106.193C56.5609 106.268 56.2878 106.227 56.0305 106.23C55.724 106.233 55.4176 106.231 55.054 106.231C55.054 106.578 55.054 106.818 55.054 107.153C55.6752 107.153 56.2623 107.153 56.9047 107.153C56.9384 107.449 56.9625 107.659 56.9951 107.947C56.3531 107.976 55.7624 108.002 55.0813 108.032C55.0813 108.36 55.0813 108.67 55.0813 109.07C55.784 109.07 56.4321 109.07 57.1351 109.07C57.1351 109.366 57.1351 109.573 57.1351 109.827C56.155 109.827 55.2173 109.827 54.1641 109.827Z" fill="#4FB0BB"/>
<path d="M19.0137 109.807C19.0137 108.359 19.0137 106.967 19.0137 105.495C19.8853 105.354 20.7373 105.42 21.5831 105.447C21.7141 105.451 21.9151 105.657 21.9488 105.801C22.012 106.072 21.8236 106.22 21.5472 106.222C21.0348 106.226 20.5227 106.223 19.9345 106.223C19.9345 106.56 19.9345 106.821 19.9345 107.173C20.56 107.173 21.1493 107.173 21.7898 107.173C21.7898 107.473 21.7898 107.684 21.7898 107.98C21.1887 107.98 20.5973 107.98 19.9291 107.98C19.9291 108.356 19.9291 108.647 19.9291 109.057C20.6282 109.057 21.2989 109.057 22.0094 109.057C22.0094 109.364 22.0094 109.553 22.0094 109.807C21.0333 109.807 20.0759 109.807 19.0137 109.807Z" fill="#4FB0BB"/>
<path d="M35.4059 109.843C34.9835 109.843 34.7316 109.843 34.489 109.843C33.8434 108.831 33.8427 108.881 32.7514 108.866C32.0663 108.856 31.9978 109.351 31.7523 109.814C31.5043 109.814 31.2327 109.814 30.9111 109.814C30.9197 109.697 30.9 109.582 30.9388 109.492C31.4537 108.283 31.9784 107.078 32.4962 105.87C32.6035 105.619 32.7359 105.377 33.0474 105.442C33.2445 105.483 33.519 105.583 33.5893 105.735C34.1983 107.052 34.7689 108.388 35.4059 109.843ZM33.5642 108.113C33.5025 107.601 33.4293 107.166 32.9477 106.818C32.7826 107.266 32.6434 107.644 32.4704 108.113C32.9132 108.113 33.2111 108.113 33.5642 108.113Z" fill="#4FB0BB"/>
<path d="M60.5042 102.268C60.1148 102.268 59.8435 102.268 59.5772 102.268C59.0023 101.297 58.7662 101.215 57.2665 101.482C57.1488 101.717 57.0225 101.97 56.8649 102.285C56.6188 102.296 56.3449 102.308 55.9326 102.326C56.5319 100.778 57.1732 99.3661 57.8134 97.9355C58.094 97.9355 58.3406 97.9355 58.623 97.9355C59.2438 99.3658 59.855 100.773 60.5042 102.268ZM58.7798 100.584C58.5825 100.096 58.4217 99.6981 58.2613 99.3005C58.1967 99.3045 58.1324 99.3084 58.0678 99.3123C57.9275 99.7121 57.7872 100.112 57.6218 100.584C58.0564 100.584 58.3549 100.584 58.7798 100.584Z" fill="#4FB0BB"/>
<path d="M148.471 109.823C148.088 109.823 147.815 109.823 147.551 109.823C146.904 108.767 146.796 108.727 145.262 108.973C145.126 109.23 144.979 109.506 144.811 109.823C144.55 109.823 144.276 109.823 143.946 109.823C143.999 109.627 144.024 109.462 144.088 109.313C144.573 108.183 145.068 107.058 145.554 105.928C145.672 105.652 145.793 105.424 146.156 105.422C146.511 105.421 146.652 105.624 146.773 105.908C147.322 107.189 147.882 108.466 148.471 109.823ZM146.747 108.107C146.532 107.582 146.381 107.214 146.231 106.847C146.168 106.846 146.105 106.845 146.042 106.845C145.894 107.237 145.746 107.628 145.565 108.107C145.992 108.107 146.284 108.107 146.747 108.107Z" fill="#4FB0BB"/>
<path d="M6.3023 97.9243C7.22709 97.9243 8.10594 97.9243 9.05369 97.9243C9.07845 98.1498 9.10106 98.356 9.13515 98.664C8.44865 98.664 7.83177 98.664 7.13809 98.664C7.13809 99.0164 7.13809 99.2742 7.13809 99.651C7.61681 99.651 8.06682 99.636 8.5154 99.655C9.04903 99.6776 9.04903 99.6912 8.9263 100.404C8.35104 100.436 7.76287 100.469 7.10436 100.505C7.08928 100.838 7.07744 101.107 7.06057 101.485C7.80055 101.485 8.4709 101.485 9.20047 101.485C9.2263 101.793 9.24389 102.003 9.2665 102.272C8.25415 102.272 7.29527 102.272 6.34429 102.272C6.14584 101.61 6.11354 98.9268 6.3023 97.9243Z" fill="#4FB0BB"/>
<path d="M149.349 102.294C149.087 102.294 148.835 102.294 148.455 102.294C149.01 100.78 149.683 99.3849 150.278 97.9862C151.082 97.8754 151.091 97.8715 151.361 98.4864C151.898 99.7115 152.426 100.941 153 102.269C152.626 102.292 152.358 102.307 152.046 102.326C151.695 100.968 150.679 101.433 149.799 101.429C149.644 101.727 149.502 102 149.349 102.294ZM150.766 99.3021C150.703 99.3042 150.639 99.3064 150.576 99.3085C150.432 99.708 150.287 100.107 150.112 100.59C150.546 100.59 150.848 100.59 151.271 100.59C151.081 100.105 150.924 99.7033 150.766 99.3021Z" fill="#4FB0BB"/>
<path d="M100.591 109.82C100.207 109.82 99.9357 109.82 99.6777 109.82C99.6422 109.791 99.6149 109.777 99.5999 109.754C99.41 109.48 99.2744 109.05 99.021 108.963C98.609 108.823 98.116 108.867 97.666 108.916C97.4912 108.935 97.2953 109.15 97.1872 109.323C96.8445 109.876 96.8589 109.884 96.083 109.791C96.1135 109.654 96.1236 109.514 96.176 109.392C96.6708 108.237 97.1761 107.085 97.6706 105.929C97.7887 105.653 97.9089 105.425 98.2714 105.423C98.6259 105.421 98.768 105.62 98.89 105.905C99.4387 107.185 99.9989 108.461 100.591 109.82ZM98.8653 108.085C98.6503 107.59 98.4885 107.218 98.3266 106.845C98.2653 106.852 98.2042 106.86 98.1429 106.867C98.0022 107.242 97.8615 107.618 97.6871 108.085C98.107 108.085 98.411 108.085 98.8653 108.085Z" fill="#4FB0BB"/>
<path d="M136.625 97.9263C136.941 97.9263 137.164 97.9263 137.443 97.9263C138.061 99.3443 138.677 100.756 139.331 102.256C138.958 102.256 138.668 102.256 138.358 102.256C138.228 102.006 138.097 101.754 137.935 101.444C137.363 101.444 136.772 101.444 136.138 101.444C135.999 101.699 135.85 101.972 135.681 102.281C135.418 102.281 135.142 102.281 134.753 102.281C135.391 100.796 135.999 99.3837 136.625 97.9263ZM137.115 99.3059C137.036 99.3135 136.957 99.3206 136.878 99.3282C136.745 99.7294 136.613 100.131 136.445 100.639C136.892 100.619 137.184 100.606 137.595 100.587C137.404 100.076 137.26 99.691 137.115 99.3059Z" fill="#4FB0BB"/>
<path d="M9.26172 109.463C9.46448 109.224 9.60802 109.055 9.75192 108.886C9.86138 108.903 9.94248 108.916 10.0236 108.929C10.353 108.985 10.6835 109.086 11.0108 109.075C11.1511 109.071 11.3682 108.851 11.3966 108.701C11.4246 108.552 11.3018 108.298 11.1673 108.212C10.9075 108.045 10.5935 107.963 10.301 107.848C9.59546 107.57 9.33816 107.258 9.34462 106.685C9.35143 106.072 9.74044 105.548 10.3982 105.383C11.0463 105.22 11.698 105.203 12.2916 105.712C12.1387 105.905 12.0006 106.08 11.8667 106.249C11.7519 106.249 11.6657 106.261 11.5839 106.247C11.3611 106.209 11.121 106.087 10.9229 106.137C10.7036 106.192 10.4363 106.361 10.3466 106.553C10.2138 106.839 10.4818 107.021 10.7273 107.124C10.9904 107.234 11.2739 107.296 11.5394 107.402C12.1366 107.641 12.3784 107.988 12.3745 108.564C12.3709 109.15 12.0695 109.637 11.5186 109.829C10.7499 110.097 10.0046 110.075 9.26172 109.463Z" fill="#4FB0BB"/>
<path d="M49.4643 101.365C49.9197 101.469 50.2513 101.612 50.5746 101.594C50.7799 101.583 51.0573 101.375 51.1499 101.182C51.2827 100.905 51.0322 100.709 50.7842 100.601C50.4968 100.475 50.1953 100.381 49.9032 100.266C49.4119 100.072 49.0961 99.763 49.0972 99.1821C49.0983 98.5981 49.3509 98.1829 49.8637 97.953C50.5851 97.6293 51.2967 97.6526 52.0241 98.1596C51.8579 98.3743 51.7094 98.5661 51.5612 98.758C51.2655 98.6895 51.0046 98.5558 50.7742 98.5955C50.5266 98.6382 50.2061 98.7902 50.0984 98.9914C49.9276 99.3105 50.2222 99.503 50.5057 99.6131C50.772 99.7164 51.0494 99.7906 51.3146 99.8956C51.8098 100.092 52.1249 100.442 52.1228 100.994C52.1206 101.552 51.878 102.006 51.3624 102.241C50.5449 102.615 49.764 102.532 48.9863 101.946C49.169 101.723 49.3244 101.535 49.4643 101.365Z" fill="#4FB0BB"/>
<path d="M67.775 105.901C67.5446 106.093 67.3731 106.237 67.2144 106.369C66.1317 105.987 65.5472 106.094 65.1298 106.732C64.7602 107.298 64.8022 108.163 65.2235 108.668C65.6968 109.234 66.2559 109.272 67.2769 108.781C67.4527 108.925 67.6451 109.082 67.8374 109.24C67.0357 110.182 65.6272 110.242 64.6766 109.413C63.7625 108.615 63.6667 106.994 64.4792 106.059C65.282 105.134 66.7432 105.035 67.775 105.901Z" fill="#4FB0BB"/>
<path d="M4.55041 105.678C4.32325 106.163 4.06666 106.388 3.5761 106.153C3.43686 106.087 3.21365 106.083 3.078 106.15C2.89031 106.242 2.64485 106.413 2.61865 106.58C2.59497 106.733 2.79414 106.987 2.96101 107.086C3.22549 107.243 3.54954 107.297 3.83986 107.415C4.3254 107.612 4.64766 107.931 4.6473 108.504C4.64694 109.114 4.39574 109.597 3.85386 109.802C3.06364 110.103 2.29532 110.086 1.55176 109.479C1.71719 109.265 1.86684 109.071 2.01146 108.883C2.1385 108.904 2.22032 108.913 2.30106 108.93C2.60179 108.991 2.90574 109.114 3.20073 109.095C3.37549 109.084 3.6371 108.874 3.67371 108.711C3.70852 108.557 3.54344 108.288 3.38841 108.179C3.16233 108.019 2.86663 107.959 2.60107 107.856C1.86325 107.568 1.58549 107.221 1.61922 106.629C1.65511 106 2.11374 105.467 2.80347 105.343C3.39846 105.237 3.99848 105.234 4.55041 105.678Z" fill="#4FB0BB"/>
<path d="M112.466 98.349C112.403 98.4329 112.347 98.5315 112.269 98.6046C112.166 98.6993 112.045 98.7739 111.951 98.8434C110.938 98.4612 110.339 98.5591 109.922 99.1546C109.525 99.7222 109.565 100.645 110.008 101.161C110.489 101.718 111.046 101.751 111.993 101.237C112.187 101.379 112.407 101.54 112.633 101.706C111.744 102.662 110.284 102.689 109.374 101.818C108.493 100.975 108.458 99.3497 109.303 98.4601C110.143 97.5738 111.578 97.5111 112.466 98.349Z" fill="#4FB0BB"/>
<path d="M5.38561 98.3505C5.17065 98.5502 5.0088 98.7004 4.86059 98.8381C3.78078 98.4598 3.18184 98.5678 2.76986 99.1952C2.38444 99.7825 2.44904 100.689 2.91305 101.197C3.38567 101.714 3.93365 101.734 4.89432 101.244C5.07411 101.382 5.27149 101.533 5.46814 101.685C4.77805 102.604 3.37383 102.711 2.40777 101.956C1.45212 101.209 1.27377 99.6043 2.03742 98.6208C2.81615 97.6176 4.30866 97.4638 5.38561 98.3505Z" fill="#4FB0BB"/>
<path d="M134.453 98.3431C134.237 98.5392 134.073 98.6876 133.887 98.8569C132.824 98.3556 131.964 98.484 131.602 99.7177C131.422 100.328 131.591 100.918 132.111 101.34C132.698 101.816 133.279 101.664 133.885 101.214C134.101 101.378 134.314 101.541 134.532 101.707C133.699 102.64 132.285 102.693 131.354 101.879C130.465 101.102 130.341 99.5474 131.093 98.6037C131.878 97.6167 133.327 97.4725 134.453 98.3431Z" fill="#4FB0BB"/>
<path d="M53.8009 100.64C53.7621 101.217 53.728 101.72 53.6914 102.266C53.4341 102.266 53.221 102.266 52.9482 102.266C52.9482 100.836 52.9482 99.426 52.9482 97.9298C53.709 97.9298 54.4451 97.8739 55.1678 97.9463C55.8213 98.0119 56.1428 98.468 56.169 99.132C56.1985 99.8835 55.9397 100.289 55.2381 100.456C54.8 100.561 54.341 100.575 53.8009 100.64ZM53.8601 99.7881C54.1364 99.7881 54.3876 99.8093 54.6338 99.7827C54.9385 99.7501 55.1847 99.602 55.2109 99.2625C55.241 98.8728 54.9909 98.7229 54.6475 98.6476C53.9276 98.4898 53.7295 98.6522 53.7621 99.4084C53.7657 99.4902 53.8027 99.5701 53.8601 99.7881Z" fill="#4FB0BB"/>
<path d="M64.6093 98.3507C64.3929 98.5446 64.2285 98.692 64.0451 98.8566C62.9768 98.3567 62.1252 98.469 61.771 99.7314C61.5948 100.36 61.7735 100.936 62.2863 101.35C62.8702 101.821 63.4566 101.664 64.0498 101.213C64.2694 101.376 64.4898 101.54 64.7158 101.707C63.8582 102.634 62.4547 102.694 61.5313 101.89C60.6266 101.102 60.5168 99.4636 61.3066 98.5418C62.1112 97.602 63.5298 97.4884 64.6093 98.3507Z" fill="#4FB0BB"/>
<path d="M90.6122 105.895C90.3912 106.087 90.2236 106.233 90.0718 106.364C88.9833 105.989 88.3959 106.098 87.9814 106.733C87.5874 107.337 87.6538 108.214 88.1325 108.732C88.604 109.241 89.1642 109.26 90.1199 108.777C90.3022 108.921 90.4988 109.077 90.6876 109.226C90.1737 110.269 88.3044 110.108 87.5497 109.435C86.6572 108.639 86.5262 107.003 87.3121 106.076C88.102 105.145 89.5758 105.032 90.6122 105.895Z" fill="#4FB0BB"/>
<path d="M84.2395 101.245C84.4192 101.387 84.6148 101.541 84.8104 101.696C84.0751 102.607 82.6985 102.707 81.7364 101.953C80.7994 101.219 80.6196 99.5968 81.3668 98.6187C82.1215 97.6302 83.5946 97.4725 84.7289 98.3297C84.5287 98.5194 84.3392 98.6987 84.1706 98.8582C83.1392 98.4559 82.5471 98.5531 82.1236 99.1587C81.7016 99.7621 81.7353 100.6 82.204 101.153C82.6788 101.714 83.2486 101.747 84.2395 101.245Z" fill="#4FB0BB"/>
<path d="M121.562 105.906C121.399 106.06 121.237 106.212 121.049 106.39C119.928 105.854 119.08 106.049 118.728 107.334C118.57 107.909 118.861 108.617 119.338 108.929C119.925 109.312 120.483 109.147 121.058 108.751C121.274 108.92 121.489 109.087 121.697 109.249C121.06 110.289 119.186 110.106 118.427 109.343C117.579 108.489 117.544 106.842 118.387 105.973C119.225 105.109 120.702 105.062 121.562 105.906Z" fill="#4FB0BB"/>
<path d="M94.165 106.242C94.165 107.468 94.165 108.606 94.165 109.81C93.8535 109.829 93.6127 109.843 93.2689 109.864C93.2689 108.633 93.2689 107.47 93.2689 106.262C92.8207 106.193 92.4622 106.138 92.0761 106.079C91.9368 105.7 91.9752 105.439 92.4328 105.432C93.293 105.42 94.1539 105.415 95.013 105.446C95.1515 105.451 95.3575 105.632 95.4013 105.773C95.4766 106.013 95.28 106.117 95.0514 106.14C94.7991 106.166 94.5476 106.198 94.165 106.242Z" fill="#4FB0BB"/>
<path d="M136.365 106.278C136.365 107.438 136.365 108.577 136.365 109.784C136.055 109.82 135.818 109.846 135.472 109.885C135.472 108.651 135.472 107.491 135.472 106.252C135.107 106.207 134.821 106.209 134.562 106.126C134.413 106.078 134.308 105.894 134.184 105.771C134.319 105.658 134.452 105.452 134.591 105.447C135.479 105.418 136.37 105.424 137.259 105.439C137.63 105.446 137.645 105.705 137.556 106.052C137.202 106.119 136.821 106.191 136.365 106.278Z" fill="#4FB0BB"/>
<path d="M18.3109 97.939C18.4182 99.0766 17.4489 98.4104 17.0531 98.8765C17.0531 99.8995 17.0531 101.037 17.0531 102.251C16.7459 102.271 16.513 102.287 16.1653 102.31C16.1416 101.078 16.1193 99.9185 16.0964 98.7281C15.6546 98.6772 15.2936 98.6356 14.8945 98.5897C14.8945 98.3689 14.8945 98.1792 14.8945 97.939C16.0142 97.939 17.1209 97.939 18.3109 97.939Z" fill="#4FB0BB"/>
<path d="M15.198 109.867C15.198 108.614 15.198 107.479 15.198 106.252C14.8707 106.213 14.6005 106.172 14.3288 106.15C14.0776 106.13 13.8318 106.066 13.9003 105.766C13.9312 105.631 14.1533 105.447 14.2933 105.443C15.2866 105.415 16.281 105.428 17.3199 105.428C17.3343 105.679 17.3436 105.838 17.3565 106.064C16.9761 106.117 16.6191 106.168 16.2024 106.226C15.9114 107.388 16.2534 108.599 15.9871 109.813C15.7531 109.829 15.5374 109.844 15.198 109.867Z" fill="#4FB0BB"/>
<path d="M51.2307 106.228C51.2307 107.452 51.2307 108.586 51.2307 109.794C50.912 109.82 50.6781 109.839 50.3447 109.867C50.3447 108.632 50.3447 107.473 50.3447 106.243C49.9851 106.205 49.7005 106.208 49.4378 106.134C49.2814 106.09 49.0707 105.944 49.0398 105.809C48.972 105.512 49.215 105.428 49.468 105.427C50.4365 105.424 51.4047 105.425 52.3554 105.425C52.5143 106.083 52.5147 106.086 52.0435 106.147C51.8199 106.177 51.5949 106.193 51.2307 106.228Z" fill="#4FB0BB"/>
<path d="M150.974 109.093C151.67 109.093 152.176 109.093 152.723 109.093C152.723 109.374 152.723 109.581 152.723 109.831C151.851 109.831 151.031 109.831 150.088 109.831C150.024 108.389 150.061 106.958 150.074 105.517C150.27 105.48 150.379 105.442 150.487 105.444C150.594 105.445 150.701 105.486 150.88 105.526C150.91 106.689 150.941 107.841 150.974 109.093Z" fill="#4FB0BB"/>
<path d="M41.2588 109.825C40.9846 109.825 40.7679 109.825 40.4216 109.825C40.3588 108.383 40.3706 106.957 40.4226 105.494C40.7392 105.494 40.9778 105.494 41.2588 105.494C41.2588 106.938 41.2588 108.325 41.2588 109.825Z" fill="#4FB0BB"/>
<path d="M7.3768 109.819C7.09222 109.819 6.87906 109.819 6.61816 109.819C6.61816 108.38 6.61816 106.987 6.61816 105.503C6.85645 105.489 7.0854 105.476 7.3768 105.46C7.3768 106.938 7.3768 108.33 7.3768 109.819Z" fill="#4FB0BB"/>
<path d="M107.948 102.269C107.678 102.269 107.464 102.269 107.2 102.269C107.2 100.83 107.2 99.4371 107.2 97.9585C107.437 97.9438 107.668 97.9298 107.948 97.9126C107.948 99.4077 107.948 100.824 107.948 102.269Z" fill="#4FB0BB"/>
</svg>
