<svg width="458" height="292" viewBox="0 0 458 292" fill="none" xmlns="http://www.w3.org/2000/svg">
<path d="M25.6778 37.6C43.0638 12.5333 70.8814 0 109.131 0C147.38 0 174.128 11.7333 189.374 35.2C204.887 58.4 212.644 94 212.644 142C212.644 242 176.802 292 105.118 292C68.4741 292 41.7264 280 24.8754 256C8.29178 231.733 0 195.733 0 148C0 99.4667 8.55927 62.6666 25.6778 37.6ZM138.419 70.8C132.535 56.9333 121.97 50 106.723 50C91.4771 50 80.6443 57.0667 74.2249 71.2C68.0729 85.3333 64.9969 110.267 64.9969 146C64.9969 180.667 68.2066 205.333 74.6261 220C81.0455 234.667 91.7446 242 106.723 242C121.702 242 132.134 234.667 138.018 220C144.17 205.333 147.246 180 147.246 144C147.246 108.8 144.304 84.4 138.419 70.8Z" fill="#C4C4C4" fill-opacity="0.1"/>
<path d="M458 238V286.8H250.572V238C271.435 221.2 287.35 208.267 298.316 199.2C309.283 190.133 321.319 179.6 334.426 167.6C347.799 155.333 357.562 145.467 363.714 138C369.866 130.267 375.082 122.133 379.362 113.6C383.641 104.8 385.781 96.5333 385.781 88.8C385.781 76.5333 381.502 66.8 372.942 59.6C364.383 52.4 353.015 48.8 338.839 48.8C332.42 48.8 326.134 49.4666 319.982 50.8C313.83 51.8666 309.149 52.9333 305.939 54L301.526 56L297.514 90H255.386L253.38 16C283.605 5.33333 313.027 0 341.648 0C376.42 0 403.301 6.13333 422.292 18.4C441.55 30.4 451.179 50.5333 451.179 78.8C451.179 92.4 448.772 105.467 443.957 118C439.41 130.533 431.654 143.6 420.687 157.2C409.72 170.533 398.085 183.067 385.781 194.8C373.745 206.267 357.696 220.667 337.635 238H458Z" fill="#C4C4C4" fill-opacity="0.1"/>
</svg>
