<svg width="124" height="83" viewBox="0 0 124 83" fill="none" xmlns="http://www.w3.org/2000/svg">
<path d="M122.469 47.4244C113.384 49.4298 104.721 56.7461 99.7117 65.5414C94.9667 42.6165 85.0138 23.4317 63.6751 9.75388C46.8233 -1.04686 17.8967 -5.37739 2.1219 9.99258C2.11124 10.0032 2.10271 10.0075 2.09204 10.0181L1.12811 10.9814C-1.0706 13.3236 0.125789 17.343 3.15194 14.321C10.7845 6.18418 25.4184 5.43827 35.6719 6.035C46.3818 6.6573 57.2453 12.891 65.8332 18.8923C85.0181 32.2995 92.559 52.5498 96.1545 74.2643C96.1481 74.2941 96.1374 74.3218 96.1311 74.3517C92.8383 72.1438 89.8761 70.1362 85.7005 68.6146C79.0852 66.2042 70.1326 67.6342 63.2144 67.6342C60.811 67.6342 58.109 73.333 60.6681 73.333C66.8974 73.333 73.1353 73.2008 79.356 73.5738C86.5727 74.0064 90.3453 78.3412 95.8858 81.8384C96.3486 82.1304 96.8263 82.1283 97.2848 81.9493C97.6047 84.3639 100.511 81.9791 101.085 81.1138C107.717 71.1379 112.866 60.2092 122.181 52.4518C123.145 51.6462 125.58 46.7381 122.469 47.4244ZM112.842 56.8122C108.536 62.2125 105.018 68.0988 101.239 74.1215C101.145 73.4971 101.051 72.8726 100.951 72.2525C102.906 66.2724 107.491 60.5183 112.842 56.8122Z" fill="white"/>
</svg>
