<svg width="250" height="25" viewBox="0 0 250 25" fill="none" xmlns="http://www.w3.org/2000/svg">
<path d="M33.394 16.85L33.538 18.11C33.934 18.23 34.426 18.29 35.014 18.29C35.962 18.29 36.436 17.966 36.436 17.318C36.436 17.042 36.274 16.808 35.95 16.616C35.626 16.412 35.23 16.238 34.762 16.094C34.294 15.95 33.826 15.782 33.358 15.59C32.89 15.386 32.494 15.08 32.17 14.672C31.846 14.264 31.684 13.766 31.684 13.178C31.684 12.122 32.038 11.348 32.746 10.856C33.454 10.352 34.336 10.1 35.392 10.1C35.872 10.1 36.388 10.148 36.94 10.244C37.504 10.328 37.948 10.412 38.272 10.496L38.74 10.64C38.716 11.24 38.692 12.14 38.668 13.34H37.084L36.814 12.17C36.502 12.05 36.106 11.99 35.626 11.99C35.254 11.99 34.96 12.074 34.744 12.242C34.528 12.398 34.42 12.62 34.42 12.908C34.42 13.184 34.582 13.418 34.906 13.61C35.242 13.802 35.638 13.97 36.094 14.114C36.562 14.258 37.03 14.426 37.498 14.618C37.966 14.798 38.362 15.086 38.686 15.482C39.022 15.878 39.19 16.364 39.19 16.94C39.19 17.96 38.812 18.758 38.056 19.334C37.312 19.898 36.31 20.18 35.05 20.18C34.546 20.18 34.018 20.144 33.466 20.072C32.914 20.012 32.488 19.952 32.188 19.892L31.738 19.784V16.85H33.394ZM55.8978 13.34V18.11L57.1218 18.56V20H52.2978V18.56L53.2518 18.11V13.88C53.2518 13.376 53.1678 13.004 52.9998 12.764C52.8438 12.524 52.5798 12.404 52.2078 12.404C51.8598 12.404 51.5178 12.482 51.1818 12.638C50.8578 12.794 50.6178 12.95 50.4618 13.106L50.2098 13.34V18.11L51.1458 18.56V20H46.6098V18.56L47.5458 18.11V13.88C47.5458 13.364 47.4678 12.992 47.3118 12.764C47.1558 12.524 46.8918 12.404 46.5198 12.404C46.1718 12.404 45.8298 12.482 45.4938 12.638C45.1578 12.794 44.9058 12.95 44.7378 13.106L44.5038 13.34V18.11L45.4578 18.56V20H40.4718V18.56L41.8578 18.11V12.206L40.4898 11.864V10.424L44.1978 10.28L44.3238 11.558C44.4438 11.45 44.6058 11.318 44.8098 11.162C45.0138 10.994 45.3918 10.778 45.9438 10.514C46.4958 10.238 47.0058 10.1 47.4738 10.1C48.6618 10.1 49.4778 10.616 49.9218 11.648C50.1018 11.468 50.3118 11.282 50.5518 11.09C50.7918 10.898 51.1698 10.688 51.6858 10.46C52.2018 10.22 52.6998 10.1 53.1798 10.1C54.0798 10.1 54.7578 10.382 55.2138 10.946C55.6698 11.51 55.8978 12.308 55.8978 13.34ZM58.1554 10.424L62.2414 10.28V18.11L63.5014 18.56V20H58.1554V18.56L59.5954 18.11V12.224L58.1554 11.864V10.424ZM59.2534 7.31C59.2534 6.818 59.4034 6.428 59.7034 6.14C60.0154 5.84 60.3814 5.69 60.8014 5.69C61.8094 5.69 62.3134 6.23 62.3134 7.31C62.3134 7.814 62.1574 8.216 61.8454 8.516C61.5454 8.804 61.1974 8.948 60.8014 8.948C60.3094 8.948 59.9254 8.81 59.6494 8.534C59.3854 8.246 59.2534 7.838 59.2534 7.31ZM64.4266 6.194L68.5846 6.05V18.11L70.2946 18.56V20H64.4266V18.56L65.8666 18.11V7.994L64.4266 7.634V6.194ZM79.8597 15.68L73.8837 15.734C73.9317 16.478 74.1477 17.054 74.5317 17.462C74.9277 17.87 75.4317 18.074 76.0437 18.074C76.4877 18.074 76.9617 18.008 77.4657 17.876C77.9697 17.732 78.3597 17.588 78.6357 17.444L79.0677 17.228L79.8417 18.668C79.7097 18.776 79.5237 18.914 79.2837 19.082C79.0437 19.25 78.5637 19.478 77.8437 19.766C77.1237 20.042 76.4217 20.18 75.7377 20.18C74.2137 20.18 73.0497 19.76 72.2457 18.92C71.4537 18.068 71.0577 16.868 71.0577 15.32C71.0577 13.724 71.4837 12.458 72.3357 11.522C73.1877 10.574 74.3637 10.1 75.8637 10.1C77.1837 10.1 78.1977 10.478 78.9057 11.234C79.6137 11.99 79.9677 13.022 79.9677 14.33L79.8597 15.68ZM75.6837 12.206C75.1917 12.206 74.7897 12.374 74.4777 12.71C74.1777 13.046 73.9917 13.496 73.9197 14.06H77.1597C77.1597 12.824 76.6677 12.206 75.6837 12.206ZM91.1213 17.354C90.1013 17.354 89.3813 16.982 88.9613 16.238C88.8893 16.31 88.7933 16.406 88.6733 16.526C88.5533 16.646 88.3073 16.802 87.9353 16.994C87.5633 17.186 87.1973 17.282 86.8373 17.282C86.2013 17.282 85.7033 17.096 85.3433 16.724C84.9833 16.352 84.8033 15.848 84.8033 15.212C84.8033 13.784 85.8113 13.07 87.8273 13.07H88.6553V12.458C88.6553 11.894 88.3073 11.612 87.6113 11.612C87.3713 11.612 87.0893 11.636 86.7653 11.684C86.4413 11.732 86.1773 11.78 85.9733 11.828L85.6673 11.918L85.3253 10.586C86.2853 10.226 87.1913 10.046 88.0433 10.046C88.9673 10.046 89.6393 10.226 90.0593 10.586C90.4793 10.946 90.6893 11.522 90.6893 12.314V15.302C90.6893 15.722 90.8993 15.932 91.3193 15.932C91.6913 15.932 91.9793 15.728 92.1833 15.32C92.3993 14.9 92.5073 14.294 92.5073 13.502C92.5073 12.038 92.1113 10.898 91.3193 10.082C90.5393 9.254 89.4113 8.84 87.9353 8.84C86.4473 8.84 85.2953 9.266 84.4793 10.118C83.6753 10.958 83.2733 12.152 83.2733 13.7C83.2733 15.26 83.6213 16.454 84.3173 17.282C85.0253 18.11 86.0933 18.524 87.5213 18.524C87.8813 18.524 88.2473 18.488 88.6193 18.416C89.0033 18.344 89.2913 18.272 89.4833 18.2L89.7713 18.074L90.5093 19.55C90.4133 19.598 90.2813 19.664 90.1133 19.748C89.9453 19.832 89.5913 19.94 89.0513 20.072C88.5113 20.204 87.9593 20.27 87.3953 20.27C85.4273 20.27 83.9153 19.718 82.8593 18.614C81.8153 17.498 81.2933 15.89 81.2933 13.79C81.2933 11.726 81.8993 10.094 83.1113 8.894C84.3353 7.694 85.9733 7.094 88.0253 7.094C90.0293 7.094 91.6073 7.64 92.7593 8.732C93.9113 9.824 94.4873 11.384 94.4873 13.412C94.4873 14.648 94.1693 15.614 93.5333 16.31C92.9093 17.006 92.1053 17.354 91.1213 17.354ZM86.6933 15.05C86.6933 15.254 86.7593 15.416 86.8913 15.536C87.0233 15.656 87.2033 15.716 87.4313 15.716C87.8393 15.716 88.2473 15.512 88.6553 15.104V14.258H87.9533C87.1133 14.258 86.6933 14.522 86.6933 15.05ZM95.9689 21.98C95.9689 21.524 96.1249 21.116 96.4369 20.756C96.7489 20.396 97.0609 20.15 97.3729 20.018L97.8589 19.82C97.7749 19.808 97.6729 19.784 97.5529 19.748C97.4329 19.712 97.2709 19.592 97.0669 19.388C96.8749 19.184 96.7789 18.932 96.7789 18.632C96.7789 18.26 97.0909 17.582 97.7149 16.598C96.7909 15.986 96.3289 15.05 96.3289 13.79C96.3289 12.602 96.7249 11.69 97.5169 11.054C98.3209 10.418 99.3649 10.1 100.649 10.1C101.453 10.1 102.161 10.244 102.773 10.532L105.869 10.46V11.9L104.393 12.152C104.393 12.164 104.423 12.248 104.483 12.404C104.543 12.548 104.591 12.722 104.627 12.926C104.675 13.13 104.699 13.346 104.699 13.574C104.699 14.822 104.309 15.752 103.529 16.364C102.749 16.964 101.699 17.264 100.379 17.264C100.235 17.264 100.091 17.258 99.9469 17.246C99.8149 17.234 99.7009 17.222 99.6049 17.21C99.5209 17.186 99.4729 17.174 99.4609 17.174L99.3889 18.38H102.053C103.205 18.38 104.093 18.62 104.717 19.1C105.341 19.58 105.653 20.27 105.653 21.17C105.653 22.202 105.227 23.03 104.375 23.654C103.535 24.278 102.281 24.59 100.613 24.59C99.1009 24.59 97.9489 24.392 97.1569 23.996C96.3649 23.6 95.9689 22.928 95.9689 21.98ZM100.559 11.954C99.5389 11.954 99.0289 12.524 99.0289 13.664C99.0289 14.864 99.5089 15.464 100.469 15.464C101.021 15.464 101.411 15.32 101.639 15.032C101.879 14.744 101.999 14.288 101.999 13.664C101.999 12.524 101.519 11.954 100.559 11.954ZM101.333 20.36H99.4429C99.3829 20.384 99.3049 20.426 99.2089 20.486C99.1129 20.546 98.9809 20.678 98.8129 20.882C98.6569 21.086 98.5789 21.302 98.5789 21.53C98.5789 21.962 98.7529 22.25 99.1009 22.394C99.4609 22.538 100.037 22.61 100.829 22.61C101.645 22.61 102.233 22.514 102.593 22.322C102.953 22.13 103.133 21.818 103.133 21.386C103.133 21.002 102.989 20.732 102.701 20.576C102.425 20.432 101.969 20.36 101.333 20.36ZM107.889 16.958V12.188L106.575 11.864V10.424L110.553 10.28V16.454C110.553 16.946 110.631 17.312 110.787 17.552C110.943 17.78 111.201 17.894 111.561 17.894C111.897 17.894 112.239 17.816 112.587 17.66C112.947 17.492 113.223 17.324 113.415 17.156L113.685 16.904V12.188L112.353 11.864V10.424L116.331 10.28V18.11L117.699 18.47V19.874L114.027 20L113.847 18.74C113.811 18.776 113.751 18.83 113.667 18.902C113.595 18.962 113.445 19.076 113.217 19.244C112.989 19.412 112.755 19.562 112.515 19.694C112.275 19.814 111.981 19.922 111.633 20.018C111.297 20.126 110.973 20.18 110.661 20.18C109.761 20.18 109.071 19.898 108.591 19.334C108.123 18.77 107.889 17.978 107.889 16.958ZM118.712 10.424L122.798 10.28V18.11L124.058 18.56V20H118.712V18.56L120.152 18.11V12.224L118.712 11.864V10.424ZM119.81 7.31C119.81 6.818 119.96 6.428 120.26 6.14C120.572 5.84 120.938 5.69 121.358 5.69C122.366 5.69 122.87 6.23 122.87 7.31C122.87 7.814 122.714 8.216 122.402 8.516C122.102 8.804 121.754 8.948 121.358 8.948C120.866 8.948 120.482 8.81 120.206 8.534C119.942 8.246 119.81 7.838 119.81 7.31ZM135.459 19.874L131.679 20L131.517 19.046C130.761 19.802 129.855 20.18 128.799 20.18C127.563 20.18 126.639 19.76 126.027 18.92C125.415 18.08 125.109 16.898 125.109 15.374C125.109 13.67 125.535 12.368 126.387 11.468C127.251 10.556 128.523 10.1 130.203 10.1C130.599 10.1 130.989 10.16 131.373 10.28V7.994L129.933 7.634V6.194L134.019 6.05V18.074L135.459 18.434V19.874ZM131.373 17.048V12.44C131.073 12.26 130.605 12.17 129.969 12.17C128.589 12.17 127.899 13.19 127.899 15.23C127.899 17.126 128.475 18.074 129.627 18.074C129.963 18.074 130.275 17.99 130.563 17.822C130.863 17.642 131.073 17.468 131.193 17.3L131.373 17.048ZM145.215 15.68L139.239 15.734C139.287 16.478 139.503 17.054 139.887 17.462C140.283 17.87 140.787 18.074 141.399 18.074C141.843 18.074 142.317 18.008 142.821 17.876C143.325 17.732 143.715 17.588 143.991 17.444L144.423 17.228L145.197 18.668C145.065 18.776 144.879 18.914 144.639 19.082C144.399 19.25 143.919 19.478 143.199 19.766C142.479 20.042 141.777 20.18 141.093 20.18C139.569 20.18 138.405 19.76 137.601 18.92C136.809 18.068 136.413 16.868 136.413 15.32C136.413 13.724 136.839 12.458 137.691 11.522C138.543 10.574 139.719 10.1 141.219 10.1C142.539 10.1 143.553 10.478 144.261 11.234C144.969 11.99 145.323 13.022 145.323 14.33L145.215 15.68ZM141.039 12.206C140.547 12.206 140.145 12.374 139.833 12.71C139.533 13.046 139.347 13.496 139.275 14.06H142.515C142.515 12.824 142.023 12.206 141.039 12.206ZM147.603 12.224L146.163 11.864V10.424L149.943 10.28L150.105 11.288C150.201 11.204 150.327 11.096 150.483 10.964C150.651 10.832 150.963 10.658 151.419 10.442C151.887 10.214 152.337 10.1 152.769 10.1C153.993 10.1 154.923 10.526 155.559 11.378C156.195 12.218 156.513 13.382 156.513 14.87C156.513 16.574 156.099 17.888 155.271 18.812C154.455 19.724 153.231 20.18 151.599 20.18C151.179 20.18 150.729 20.12 150.249 20V22.286L151.959 22.7V24.14H146.199V22.7L147.603 22.286V12.224ZM150.249 13.214V18.02C150.549 18.2 151.017 18.29 151.653 18.29C152.397 18.29 152.925 18.038 153.237 17.534C153.561 17.018 153.723 16.238 153.723 15.194C153.723 13.214 153.123 12.224 151.923 12.224C151.575 12.224 151.263 12.308 150.987 12.476C150.711 12.644 150.519 12.812 150.411 12.98L150.249 13.214ZM162.631 10.1C164.083 10.1 165.199 10.526 165.979 11.378C166.771 12.218 167.167 13.412 167.167 14.96C167.167 16.568 166.729 17.84 165.853 18.776C164.989 19.712 163.825 20.18 162.361 20.18C159.301 20.18 157.771 18.53 157.771 15.23C157.771 13.622 158.209 12.368 159.085 11.468C159.961 10.556 161.143 10.1 162.631 10.1ZM162.541 12.17C161.857 12.17 161.353 12.392 161.029 12.836C160.717 13.28 160.561 14.048 160.561 15.14C160.561 16.172 160.711 16.928 161.011 17.408C161.311 17.876 161.791 18.11 162.451 18.11C163.111 18.11 163.597 17.876 163.909 17.408C164.221 16.94 164.377 16.154 164.377 15.05C164.377 14.078 164.227 13.358 163.927 12.89C163.639 12.41 163.177 12.17 162.541 12.17ZM170.187 16.85L170.331 18.11C170.727 18.23 171.219 18.29 171.807 18.29C172.755 18.29 173.229 17.966 173.229 17.318C173.229 17.042 173.067 16.808 172.743 16.616C172.419 16.412 172.023 16.238 171.555 16.094C171.087 15.95 170.619 15.782 170.151 15.59C169.683 15.386 169.287 15.08 168.963 14.672C168.639 14.264 168.477 13.766 168.477 13.178C168.477 12.122 168.831 11.348 169.539 10.856C170.247 10.352 171.129 10.1 172.185 10.1C172.665 10.1 173.181 10.148 173.733 10.244C174.297 10.328 174.741 10.412 175.065 10.496L175.533 10.64C175.509 11.24 175.485 12.14 175.461 13.34H173.877L173.607 12.17C173.295 12.05 172.899 11.99 172.419 11.99C172.047 11.99 171.753 12.074 171.537 12.242C171.321 12.398 171.213 12.62 171.213 12.908C171.213 13.184 171.375 13.418 171.699 13.61C172.035 13.802 172.431 13.97 172.887 14.114C173.355 14.258 173.823 14.426 174.291 14.618C174.759 14.798 175.155 15.086 175.479 15.482C175.815 15.878 175.983 16.364 175.983 16.94C175.983 17.96 175.605 18.758 174.849 19.334C174.105 19.898 173.103 20.18 171.843 20.18C171.339 20.18 170.811 20.144 170.259 20.072C169.707 20.012 169.281 19.952 168.981 19.892L168.531 19.784V16.85H170.187ZM181.225 20.18C180.229 20.18 179.545 19.862 179.173 19.226C178.801 18.578 178.615 17.456 178.615 15.86V12.494H176.941V10.784L178.615 10.55V8.066L181.261 7.58V10.55H183.781V12.494H181.261V16.562C181.261 17.162 181.327 17.582 181.459 17.822C181.591 18.062 181.843 18.182 182.215 18.182C182.647 18.182 183.121 18.044 183.637 17.768L184.285 19.064C183.229 19.808 182.209 20.18 181.225 20.18ZM185.662 18.596C185.662 18.104 185.812 17.714 186.112 17.426C186.424 17.126 186.79 16.976 187.21 16.976C187.702 16.976 188.074 17.12 188.326 17.408C188.59 17.684 188.722 18.08 188.722 18.596C188.722 19.1 188.572 19.502 188.272 19.802C187.972 20.09 187.606 20.234 187.174 20.234C186.682 20.234 186.304 20.096 186.04 19.82C185.788 19.532 185.662 19.124 185.662 18.596ZM200.815 19.874L197.035 20L196.873 19.046C196.117 19.802 195.211 20.18 194.155 20.18C192.919 20.18 191.995 19.76 191.383 18.92C190.771 18.08 190.465 16.898 190.465 15.374C190.465 13.67 190.891 12.368 191.743 11.468C192.607 10.556 193.879 10.1 195.559 10.1C195.955 10.1 196.345 10.16 196.729 10.28V7.994L195.289 7.634V6.194L199.375 6.05V18.074L200.815 18.434V19.874ZM196.729 17.048V12.44C196.429 12.26 195.961 12.17 195.325 12.17C193.945 12.17 193.255 13.19 193.255 15.23C193.255 17.126 193.831 18.074 194.983 18.074C195.319 18.074 195.631 17.99 195.919 17.822C196.219 17.642 196.429 17.468 196.549 17.3L196.729 17.048ZM210.571 15.68L204.595 15.734C204.643 16.478 204.859 17.054 205.243 17.462C205.639 17.87 206.143 18.074 206.755 18.074C207.199 18.074 207.673 18.008 208.177 17.876C208.681 17.732 209.071 17.588 209.347 17.444L209.779 17.228L210.553 18.668C210.421 18.776 210.235 18.914 209.995 19.082C209.755 19.25 209.275 19.478 208.555 19.766C207.835 20.042 207.133 20.18 206.449 20.18C204.925 20.18 203.761 19.76 202.957 18.92C202.165 18.068 201.769 16.868 201.769 15.32C201.769 13.724 202.195 12.458 203.047 11.522C203.899 10.574 205.075 10.1 206.575 10.1C207.895 10.1 208.909 10.478 209.617 11.234C210.325 11.99 210.679 13.022 210.679 14.33L210.571 15.68ZM206.395 12.206C205.903 12.206 205.501 12.374 205.189 12.71C204.889 13.046 204.703 13.496 204.631 14.06H207.871C207.871 12.824 207.379 12.206 206.395 12.206ZM213.552 16.85L213.696 18.11C214.092 18.23 214.584 18.29 215.172 18.29C216.12 18.29 216.594 17.966 216.594 17.318C216.594 17.042 216.432 16.808 216.108 16.616C215.784 16.412 215.388 16.238 214.92 16.094C214.452 15.95 213.984 15.782 213.516 15.59C213.048 15.386 212.652 15.08 212.328 14.672C212.004 14.264 211.842 13.766 211.842 13.178C211.842 12.122 212.196 11.348 212.904 10.856C213.612 10.352 214.494 10.1 215.55 10.1C216.03 10.1 216.546 10.148 217.098 10.244C217.662 10.328 218.106 10.412 218.43 10.496L218.898 10.64C218.874 11.24 218.85 12.14 218.826 13.34H217.242L216.972 12.17C216.66 12.05 216.264 11.99 215.784 11.99C215.412 11.99 215.118 12.074 214.902 12.242C214.686 12.398 214.578 12.62 214.578 12.908C214.578 13.184 214.74 13.418 215.064 13.61C215.4 13.802 215.796 13.97 216.252 14.114C216.72 14.258 217.188 14.426 217.656 14.618C218.124 14.798 218.52 15.086 218.844 15.482C219.18 15.878 219.348 16.364 219.348 16.94C219.348 17.96 218.97 18.758 218.214 19.334C217.47 19.898 216.468 20.18 215.208 20.18C214.704 20.18 214.176 20.144 213.624 20.072C213.072 20.012 212.646 19.952 212.346 19.892L211.896 19.784V16.85H213.552ZM220.63 10.424L224.716 10.28V18.11L225.976 18.56V20H220.63V18.56L222.07 18.11V12.224L220.63 11.864V10.424ZM221.728 7.31C221.728 6.818 221.878 6.428 222.178 6.14C222.49 5.84 222.856 5.69 223.276 5.69C224.284 5.69 224.788 6.23 224.788 7.31C224.788 7.814 224.632 8.216 224.32 8.516C224.02 8.804 223.672 8.948 223.276 8.948C222.784 8.948 222.4 8.81 222.124 8.534C221.86 8.246 221.728 7.838 221.728 7.31ZM227.207 21.98C227.207 21.524 227.363 21.116 227.675 20.756C227.987 20.396 228.299 20.15 228.611 20.018L229.097 19.82C229.013 19.808 228.911 19.784 228.791 19.748C228.671 19.712 228.509 19.592 228.305 19.388C228.113 19.184 228.017 18.932 228.017 18.632C228.017 18.26 228.329 17.582 228.953 16.598C228.029 15.986 227.567 15.05 227.567 13.79C227.567 12.602 227.963 11.69 228.755 11.054C229.559 10.418 230.603 10.1 231.887 10.1C232.691 10.1 233.399 10.244 234.011 10.532L237.107 10.46V11.9L235.631 12.152C235.631 12.164 235.661 12.248 235.721 12.404C235.781 12.548 235.829 12.722 235.865 12.926C235.913 13.13 235.937 13.346 235.937 13.574C235.937 14.822 235.547 15.752 234.767 16.364C233.987 16.964 232.937 17.264 231.617 17.264C231.473 17.264 231.329 17.258 231.185 17.246C231.053 17.234 230.939 17.222 230.843 17.21C230.759 17.186 230.711 17.174 230.699 17.174L230.627 18.38H233.291C234.443 18.38 235.331 18.62 235.955 19.1C236.579 19.58 236.891 20.27 236.891 21.17C236.891 22.202 236.465 23.03 235.613 23.654C234.773 24.278 233.519 24.59 231.851 24.59C230.339 24.59 229.187 24.392 228.395 23.996C227.603 23.6 227.207 22.928 227.207 21.98ZM231.797 11.954C230.777 11.954 230.267 12.524 230.267 13.664C230.267 14.864 230.747 15.464 231.707 15.464C232.259 15.464 232.649 15.32 232.877 15.032C233.117 14.744 233.237 14.288 233.237 13.664C233.237 12.524 232.757 11.954 231.797 11.954ZM232.571 20.36H230.681C230.621 20.384 230.543 20.426 230.447 20.486C230.351 20.546 230.219 20.678 230.051 20.882C229.895 21.086 229.817 21.302 229.817 21.53C229.817 21.962 229.991 22.25 230.339 22.394C230.699 22.538 231.275 22.61 232.067 22.61C232.883 22.61 233.471 22.514 233.831 22.322C234.191 22.13 234.371 21.818 234.371 21.386C234.371 21.002 234.227 20.732 233.939 20.576C233.663 20.432 233.207 20.36 232.571 20.36ZM238.155 10.424L241.881 10.28L242.007 11.522C242.139 11.414 242.313 11.288 242.529 11.144C242.745 10.988 243.141 10.784 243.717 10.532C244.305 10.268 244.839 10.136 245.319 10.136C246.183 10.136 246.843 10.424 247.299 11C247.767 11.564 248.001 12.344 248.001 13.34V18.11C248.157 18.158 248.379 18.236 248.667 18.344C248.955 18.452 249.153 18.524 249.261 18.56V20H244.401V18.56L245.355 18.11V13.754C245.355 13.334 245.241 12.992 245.013 12.728C244.797 12.452 244.503 12.314 244.131 12.314C243.795 12.314 243.465 12.404 243.141 12.584C242.829 12.752 242.595 12.92 242.439 13.088L242.205 13.34V18.11L243.141 18.56V20H238.155V18.56L239.541 18.11V12.224L238.155 11.864V10.424Z" fill="white"/>
<path d="M21.8379 19.8703C21.7675 15.1275 21.3966 10.3826 21.6929 5.63982C21.7095 5.38522 21.5914 5.30947 21.3593 5.30105C17.905 5.19795 14.4528 5.12851 11.0006 5.01068C7.9546 4.90757 5.05153 5.58511 2.05315 5.58932C1.97441 5.28211 1.5289 5.24213 1.0005 5.7787C-0.628203 7.43258 0.480392 11.7819 0.519763 13.9134C0.561206 16.127 0.418228 18.3175 0.237952 20.5205C0.128128 21.8966 -0.32567 23.6873 0.416156 24.9245C0.501114 25.0655 0.762203 24.9708 0.863738 24.9435C4.94793 23.8262 8.69228 23.5695 12.9112 23.662C15.0911 23.7083 18.9908 24.8972 21.063 23.8451C22.5093 23.1108 21.8545 21.0571 21.8379 19.8703ZM16.6307 6.77608C17.1881 6.77608 18.8251 6.52147 19.5897 7.16324C18.4376 8.68666 16.9518 9.88604 15.7086 11.3253C14.7968 12.3816 13.825 13.48 12.8987 14.5257C11.9186 15.6304 11.844 15.037 10.9633 14.0502C9.38852 12.2911 7.81784 10.7193 6.00472 9.22323C5.13856 8.50991 4.50863 7.73347 3.80203 7.02016C5.39758 6.83078 6.98484 6.5846 8.6239 6.60985C11.297 6.64982 13.9555 6.77608 16.6307 6.77608ZM19.1752 22.3554C13.5349 21.4611 7.57747 21.7999 2.08837 23.2391C1.49989 23.3948 2.05936 16.5836 2.10495 15.6978C2.1754 14.3132 2.11738 12.916 2.09252 11.5315C2.0863 11.218 1.90188 9.32212 1.77548 7.93758C3.38968 9.14958 4.61431 10.8771 6.29067 12.047C7.92766 13.1896 9.54186 15.5147 10.8162 17.0865C10.9136 17.2086 11.1519 17.1559 11.2638 17.1054C13.166 16.2322 14.4072 14.2038 15.7811 12.6741C17.1736 11.1275 18.6738 9.77031 19.9896 8.21112C19.9896 8.21322 19.9896 8.21322 19.9896 8.21533C19.857 10.349 20.0103 12.5184 20.0704 14.652C20.116 16.2133 20.0973 17.7725 20.1367 19.3296C20.174 20.8277 21.1645 22.671 19.1752 22.3554Z" fill="white"/>
</svg>
