<svg width="351" height="187" viewBox="0 0 351 187" fill="none" xmlns="http://www.w3.org/2000/svg">
<g style="mix-blend-mode:multiply">
<path d="M0 187H331.458L351 0H19.5441L0 187Z" fill="#1A8782"/>
</g>
<path d="M74.1757 15.8144C72.5331 16.2264 71.511 17.6167 70.7104 19.0203C67.5878 24.503 68.9009 33.2642 67.2939 39.2315C65.2082 46.9774 65.5243 55.1651 63.5834 63.0577C62.5937 67.0819 63.2998 72.0517 62.8862 76.5961C61.9911 74.2275 60.9438 71.9257 59.8714 69.5912C57.5716 64.5859 57.9808 58.7282 56.3885 53.5999C56.096 52.6557 54.1314 54.6626 53.8789 54.9294C51.0044 57.9664 49.5923 63.5898 48.9941 67.6125C48.3663 71.8338 46.4889 75.9513 45.0621 79.9517C46.2526 76.6168 45.9365 72.3926 45.9365 68.7864C45.9365 59.4842 46.6426 50.6236 44.9468 41.4192C44.1064 36.857 44.195 32.3171 44.195 27.7C44.195 23.1794 43.3486 18.8128 43.3235 14.2669C43.3191 13.6785 40.0045 15.7906 40.0104 17.0001C40.0695 27.617 40.5643 38.8965 42.6234 49.34C43.7371 54.9902 42.7371 61.1161 42.6234 66.821C42.5215 71.9731 41.4786 78.4532 42.6234 83.4275C42.7238 83.8618 43.2039 83.6113 43.4668 83.4808C46.5539 81.9557 47.709 79.3011 48.8346 76.1499C49.8996 73.1648 51.5642 69.8491 52.031 66.7098C52.288 64.9786 52.8862 61.5829 53.7592 58.8068C54.6972 62.5345 55.3294 66.6698 55.6883 70.316C56.093 74.4306 59.8478 79.3292 60.9143 83.4275C61.2008 84.5273 63.7858 81.6859 64.0118 81.2976C65.6336 78.5081 65.6617 75.1435 65.9674 71.9553C66.5952 65.3863 66.9423 58.5637 68.5258 52.1192C69.9438 46.3534 69.5819 40.4187 71.1388 34.6382C71.6173 32.861 73.1447 18.6305 71.8699 18.9507C72.8404 18.7061 75.3588 15.5164 74.1757 15.8144Z" fill="white"/>
<path d="M97.5138 75.5451C93.6069 79.5144 86.0131 78.1685 82.0235 75.2842C77.9275 72.3228 77.7931 66.4755 77.8123 61.9311C82.183 61.2967 86.6704 59.9806 90.8521 61.6984C92.5552 62.398 94.3307 60.4208 95.0958 59.0809C96.3809 56.8339 92.8698 50.1151 91.4651 47.914C89.4533 44.7614 84.1904 46.9462 81.9939 48.6774C74.5818 54.5128 72.9201 64.8777 75.5966 73.6167C78.6749 83.6645 92.3779 82.5988 98.4074 76.4729C100.208 74.6424 99.3292 73.6997 97.5138 75.5451ZM84.8152 49.626C87.3661 49.2169 88.6822 51.4698 89.5847 53.3818C89.7428 53.7153 90.5626 56.072 91.2819 57.9322C90.2258 57.7128 89.149 57.6061 87.5005 57.8506C84.6025 58.2805 80.9747 58.8289 78.0634 58.9741C78.0515 58.9741 78.0368 58.9845 78.025 58.986C78.5996 54.8507 80.4533 50.3256 84.8152 49.626Z" fill="white"/>
<path d="M171.807 60.0578C169.441 54.1646 166.543 49.9211 160.997 46.6988C157.4 44.6089 153.756 45.0965 150.159 46.2437C158.632 39.7591 165.567 32.8047 156.648 21.38C153.167 16.9201 142.19 19.588 138.429 22.2456C134.091 25.3122 128.808 27.9624 126.495 32.9811C126.35 33.2953 126.586 33.2731 126.985 33.0715C126.973 33.1293 126.936 33.193 126.936 33.2479C127.396 52.3385 128.557 71.3491 128.424 90.4501C128.424 90.751 129.294 90.336 130.143 89.7016C131.271 91.627 136.345 93.3285 137.904 94.1111C143.195 96.7657 148.621 96.9406 154.437 96.6664C161.363 96.3403 166.613 92.5667 170.223 86.9017C175.282 78.9601 175.194 68.4929 171.807 60.0578ZM170.949 76.3974C170.688 80.3845 169.085 84.8756 167.336 88.4284C164.663 93.8591 157.539 93.4204 152.682 93.6605C148.747 93.8547 144.564 92.7638 141.09 91.0207C139.689 90.3182 133.22 87.9304 133.22 86.2258C133.22 85.9546 132.499 86.2762 131.731 86.8083C131.822 68.0127 130.697 49.303 130.245 30.5162C130.242 30.3932 130.084 30.405 129.868 30.4732C131.688 27.2154 138.223 24.3562 141.336 23.2624C145.607 21.7609 151.551 22.0262 154.505 25.8102C159.187 31.8072 158.688 38.5022 151.853 43.5269C149.574 45.2032 147.195 46.7225 144.941 48.4329C144.67 48.6375 142.518 51.3528 143.796 50.8578C152.124 47.6325 158.508 48.4418 164.488 55.211C169.11 60.4387 171.397 69.5616 170.949 76.3974Z" fill="white"/>
<path d="M150.942 28.4708C147.382 26.9278 143.514 28.118 140.616 30.4406C140.316 30.6807 139.843 31.0394 139.339 31.453C138.518 31.6783 136.331 33.2612 136.354 34.2425C136.437 37.5878 137.263 40.8456 137.345 44.1909C137.347 44.2799 137.427 44.3006 137.542 44.2887C137.586 44.4221 137.774 44.4384 138.19 44.2458C140.567 43.1475 142.325 41.0842 144.691 40.0378C146.629 39.1811 148.549 38.1184 150.085 36.6303C152.299 34.4796 155.008 30.2346 150.942 28.4708ZM145.76 37.4247C143.954 38.4504 142.431 39.9015 140.644 40.9331C140.613 38.1288 140.353 35.3971 140.198 32.6135C142.74 30.6481 147.672 30.0612 149.605 32.99C151.236 35.4638 147.138 36.6421 145.76 37.4247Z" fill="white"/>
<path d="M139.545 54.7945C137.641 56.5479 138.549 57.4624 140.437 55.7223C142.62 53.711 149.969 56.1551 152.001 57.0904C154.883 58.4169 157.032 61.0508 158.828 63.5631C161.028 66.6387 161.647 70.3412 162.652 73.8895C164.462 80.2733 158.673 85.4373 152.627 85.4506C149.692 85.458 146.554 84.5984 144.063 83.0599C143.387 82.7812 142.667 82.676 141.905 82.7427C139.589 82.4522 140.655 78.3183 140.655 77.0822C140.655 70.2004 141.121 63.3082 141.143 56.4041C141.143 56.3952 141.15 56.3863 141.15 56.3774V55.8824C141.15 55.2999 137.839 57.4031 137.839 58.6141V59.1121L137.84 59.1136C137.849 67.8659 138.081 76.8154 136.848 85.4758C136.85 85.6315 136.93 85.7145 137.085 85.7219C144.254 86.6216 150.236 90.9125 157.453 86.8068C162.254 84.0752 165.657 80.7165 166.367 75.1153C167.945 62.7005 151.342 43.9241 139.545 54.7945Z" fill="white"/>
<path d="M214.883 39.9651C214.679 36.0269 214.683 32.2207 214.725 28.2765C214.756 25.3107 213.524 22.496 213.524 19.5716C213.503 19.5123 213.482 19.4531 213.462 19.3938C211.047 18.4244 209.372 19.3256 206.841 19.3256C205.797 19.3256 204.389 20.8419 203.98 21.7015C202.073 25.7198 203.27 31.3373 203.209 35.7335C203.12 42.2106 202.633 48.6018 201.887 55.0286C201.222 60.7499 201.784 66.8269 201.784 72.5881C201.784 74.9448 199.42 85.5188 196.11 80.0762C193.63 75.9972 192.41 71.1741 191.245 66.5719C189.462 59.5241 189.813 52.1976 189.479 45.0001C189.153 37.9538 190.655 31.2824 190.293 24.2954C190.066 19.9007 189.638 17.8315 184.781 17.8315C182.487 17.8315 181.209 18.6527 179.782 20.4017C179.131 21.2006 178.997 21.6141 179.137 21.7682C179.036 21.958 178.973 22.1403 178.982 22.3018C179.435 30.6229 178.453 39.1499 178.366 47.5021C178.265 57.2934 179.304 67.2167 180.568 76.9176C181.358 82.9842 182.867 88.6062 187.578 92.8334C192.048 96.8427 201.116 94.3067 206.084 92.5918C216.027 89.159 215.976 74.5787 216.001 66.3259C216.029 57.5691 215.335 48.713 214.883 39.9651ZM204.329 90.6086C197.382 92.1857 191.654 92.0212 187.438 85.9219C183.652 80.4438 183.595 72.5111 182.971 66.1465C182.186 58.1131 181.624 50.1404 181.707 42.0654C181.778 35.1317 182.559 28.1061 182.348 21.1768C182.592 21.2095 182.864 21.1857 183.186 21.0568C185.744 21.0316 186.986 22.2752 186.914 24.789C187.33 28.2514 187.295 32.1021 186.49 35.4844C184.965 41.8994 186.329 49.1013 186.417 55.6289C186.5 61.7089 188.172 88.0178 198.509 85.0534C206.791 82.6789 205.095 69.9484 205.095 63.8403C205.095 56.9584 205.784 50.2886 206.086 43.4468C206.24 39.9621 206.441 36.4894 206.521 33.0018C206.583 30.2553 205.843 25.8339 206.264 22.5286C208.089 22.5553 210.211 22.7687 210.211 23.7959C210.211 25.3018 210.951 27.2568 211.202 28.7701C212.311 35.4459 211.502 42.9784 211.872 49.7846C212.422 59.8517 217.572 87.6013 204.329 90.6086Z" fill="white"/>
<path d="M234.343 58.3696C234.343 45.3441 237.383 31.3744 235.451 18.4082C235.764 17.9294 236.061 17.3321 235.593 17.3366C232.345 17.3677 229.112 17.6967 225.866 17.7961C225.934 17.3796 225.501 17.4833 224.928 17.8257C224.847 17.8272 224.767 17.8331 224.686 17.8331C223.834 17.842 222.924 18.8306 222.414 19.4087C222.318 19.5184 221.1 21.0658 221.85 21.0584C222.047 21.0569 222.242 21.0435 222.438 21.0391C220.079 31.6427 221.663 44.142 221.168 54.9338C220.865 61.5355 221.648 68.4336 222.045 75.0294C222.431 81.4191 221.741 88.2431 222.788 94.5528C222.791 94.7085 222.871 94.7915 223.026 94.7989C225.307 95.4525 229.371 95.0582 231.763 94.6744C232.973 94.4802 234.363 93.0884 234.782 91.9619C235.877 89.0242 235.332 85.3188 235.332 82.2447C235.335 74.3002 234.343 66.3571 234.343 58.3696ZM228.654 91.6981C224.621 92.3725 225.933 87.173 225.84 84.4754C225.568 76.5946 224.925 68.7419 224.925 60.8567C224.925 53.6295 224.922 46.3683 224.927 39.1114C224.93 33.4347 224.447 26.7944 225.286 20.9279C227.544 20.8005 229.8 20.633 232.061 20.5826C233.919 32.2459 230.736 44.2769 230.847 55.9403C230.912 62.8991 230.748 69.9885 231.382 76.9192C231.761 81.0604 232.899 86.9003 232.199 91.5721C231.023 91.5558 229.855 91.498 228.654 91.6981Z" fill="white"/>
<path d="M276.478 82.2448C276.475 82.0891 276.395 82.0061 276.24 81.9987C269.873 80.6203 262.896 81.0042 256.411 81.0042C252.365 81.0042 254.17 64.7549 254.17 62.3122C254.17 54.0416 253.179 45.8718 253.179 37.6026C253.179 30.3562 253.778 22.7955 253.179 15.5921C253.176 15.4365 253.097 15.3534 252.942 15.346C249.934 15.346 247.021 14.848 244.018 14.848C243.466 14.848 242.729 15.515 242.129 16.2383C241.609 16.6074 241.114 17.0417 240.915 17.3366C238.804 20.4566 239.464 23.9961 239.633 27.6749C239.992 35.5038 239.953 43.3165 239.953 51.1528C239.953 58.7253 240.945 66.2223 240.945 73.82C240.945 80.7077 240.448 87.5436 240.448 94.4269C240.451 94.5825 240.531 94.6655 240.686 94.6729C251.271 94.6359 262.352 94.9664 272.844 94.0519C278.704 93.542 276.51 85.4463 276.478 82.2448ZM264.84 90.9526C260.779 90.5006 256.544 90.9526 252.447 90.9526C249.172 90.9526 243.761 93.2545 243.761 88.1958C243.761 83.3386 244.258 78.5141 244.258 73.6466C244.258 64.3503 243.267 55.171 243.267 45.897C243.267 40.7034 243.315 35.5083 243.215 30.3147C243.157 27.2866 241.693 21.5505 242.656 18.0436C245.41 17.9888 249.847 18.051 250.055 20.5619C250.447 25.2767 249.869 30.4392 249.869 35.1881C249.869 45.9785 250.86 56.6547 250.86 67.4377C250.86 71.1446 248.429 83.0511 253.577 84.2279C258.005 85.2403 263.832 84.4251 268.448 84.7259C269.981 84.8252 273.159 84.0604 273.187 86.8381C273.201 88.3899 273.464 89.8855 273.593 91.4151C270.91 91.9383 266.692 91.1587 264.84 90.9526Z" fill="white"/>
<path d="M311.178 34.9909C309.997 30.2523 309.043 25.6116 306.762 21.2658C304.432 16.8207 301.073 14.8627 297.235 11.931C293.3 8.92509 286.311 6.40091 282.065 9.94335C281.071 10.7734 280.179 11.8732 280.145 13.2472C280.011 18.7831 280.017 24.3532 280.249 29.8862C280.69 40.3861 277.498 50.9838 279.463 61.4688C281.275 71.1342 281 80.9878 281.884 90.7406C281.108 91.6418 280.528 92.6837 280.838 92.6837H281.334C281.374 92.6837 281.42 92.6541 281.461 92.6482C281.662 92.6422 281.859 92.6245 282.058 92.6141C282.07 92.7208 282.076 92.8275 282.088 92.9342C282.12 93.2322 282.736 92.9876 283.424 92.5355C296.906 91.1749 306.935 80.2897 310.768 67.4361C313.785 57.3275 313.721 45.2017 311.178 34.9909ZM285.324 89.3829C284.636 82.8212 284.358 76.0032 284.138 69.4296C283.921 62.9035 282.083 56.6339 282.284 49.9655C282.489 43.0911 283.56 36.2493 283.633 29.3971C283.665 26.2519 283.418 23.0948 283.418 19.9452V14.7219C283.418 11.5975 281.99 11.6064 284.743 11.6064C290.485 11.6064 297.856 16.6147 301.466 21.0079C306.262 26.8463 307.692 35.6994 308.981 42.9458C312.185 60.9471 307.164 87.8874 285.324 89.3829Z" fill="white"/>
<path d="M290.286 19.7125C289.303 19.4931 287.832 21.4081 287.424 22.0899C285.668 25.0261 286.55 28.5775 286.55 31.8842C286.55 37.3891 285.559 42.808 285.559 48.2862C285.559 53.5924 284.937 59.3522 285.807 64.5843C286.655 69.6905 287.219 75.3124 287.543 80.5016C287.584 81.1567 290.927 78.9527 290.854 77.7699C290.283 68.5833 288.872 59.8443 288.872 50.5761C288.872 45.5693 289.194 40.7685 289.658 35.7883C289.94 32.7528 288.98 27.3917 289.444 23.5306C298.259 26.7944 300.522 37.2631 301.975 45.553C304.015 57.1823 303.144 72.3169 291.995 78.7096C291.252 79.1365 288.579 82.5781 290.371 81.5495C294.884 78.9616 297.829 76.1099 301.308 72.1895C305.531 67.4301 305.606 60.9574 305.72 54.9234C305.944 42.845 305.282 23.0563 290.286 19.7125Z" fill="white"/>
<path d="M136.608 113.812C132.422 118.959 120.935 121.383 119.174 113.089C117.991 107.518 121.366 100.184 122.706 94.8418C122.864 94.2119 122.341 94.2667 121.916 94.5217C121.162 94.9619 120.412 95.4095 119.669 95.8675C119.003 96.2899 114.183 97.7291 112.628 98.0908C112.527 97.8462 112.415 97.6091 112.288 97.3823C111.843 96.5908 109.444 99.3758 109.251 99.6901C109.153 99.8501 109.054 100.009 108.957 100.169C108.896 100.267 108.589 100.814 108.806 100.948C109.016 101.08 109.227 101.16 109.437 101.249C111.236 106.421 109.168 121.419 102.56 116.344C100.91 115.077 100.054 113.513 99.6748 111.808C100.823 107.901 100.926 103.083 100.948 100.544C100.955 99.7894 97.8698 102.183 97.6911 103.009C96.8831 106.739 95.6852 110.266 96.3602 113.934C95.8949 114.503 95.0072 114.509 93.2022 113.483C87.638 110.322 90.793 103.873 90.5375 99.0498C90.5139 98.5992 89.8846 98.8823 89.6941 98.9964C86.6631 100.799 83.7827 102.352 80.4873 103.676C80.4061 103.708 80.3042 103.733 80.2067 103.76C79.4593 102.966 78.4563 102.394 77.1033 102.161C75.1713 101.829 73.2983 102.254 71.8566 103.293C71.8758 102.545 71.8419 101.793 71.7015 101.04C71.5021 99.9702 68.8109 102.772 68.6041 103.17C65.9719 108.213 64.9852 112.464 60.4106 116.114C60.2393 110.097 60.3013 104.074 60.3013 98.0552C60.3013 97.4208 57.065 99.653 56.9896 100.787C56.9882 103.265 56.5096 105.663 55.5569 107.981C54.1256 108.186 52.6928 108.391 51.2615 108.597C50.4934 107.027 50.0177 105.38 49.8361 103.656C49.3176 100.579 48.6647 97.6091 47.9084 94.5735C47.8006 94.1393 47.3368 94.3898 47.065 94.5202C45.4978 95.2657 36.1759 101.833 39.7032 103.453C40.8509 103.981 43.3324 100.568 42.8907 100.364C41.9159 99.9168 44.4875 98.1189 44.7179 97.8966C45.0946 97.5305 45.7593 101.961 46.0857 103.275C47.0517 107.153 46.3309 111.878 50.7386 113.504C53.356 114.47 55.449 112.272 57.0015 109.235C57.0118 112.295 57.0369 115.354 57.1063 118.413C55.4136 119.584 53.7755 120.9 52.5672 122.547C49.7268 126.42 43.8937 140.387 52.2866 141.286C56 141.684 59.7577 136.437 60.3294 133.36C61.2068 128.63 60.7031 123.742 60.4963 118.964C60.4756 118.487 60.4697 118.01 60.4534 117.533C62.387 116.031 64.288 114.53 65.6986 112.816C66.9261 111.325 67.8153 109.689 68.6011 108.008C68.4357 113.426 67.4844 119.443 74.0812 121.924C76.9674 123.011 81.0737 121.804 81.4696 118.062C81.8005 114.939 82.9172 109.179 81.3204 105.484C83.9836 104.303 87.2849 102.871 87.3189 103.514C87.5877 108.571 84.7104 115.179 91.6143 117.448C94.0367 118.244 95.8255 117.737 97.1505 116.48C97.1874 116.565 97.2169 116.649 97.2583 116.735C98.6896 119.787 103.049 122.913 106.31 120.499C109.557 118.093 110.932 115.997 111.8 111.9C112.438 108.89 113.557 104.569 113.264 100.959C114.822 100.366 119.056 98.8185 118.879 99.527C117.399 105.426 114.933 111.442 116.239 117.593C118.399 127.766 134.877 118.112 138.316 113.884C140.246 111.512 137.691 112.481 136.608 113.812ZM57.2895 124.151C57.4165 127.103 57.5273 130.057 57.4475 133.013C57.6292 135.534 56.0561 136.924 52.7253 137.182C50.291 135.549 51.8789 128.743 52.3324 126.952C53.0192 124.241 54.9158 122.114 57.161 120.174C57.1994 121.501 57.2334 122.826 57.2895 124.151ZM78.5523 117.204C78.3677 118.311 78.1816 119.221 78.3854 119.255C75.9216 118.853 74.1476 116.384 72.8168 114.543C71.2363 112.357 71.1654 110.144 71.3854 107.907C73.2569 108.149 74.9497 107.74 76.8374 107.199C79.3367 109.639 79.087 113.989 78.5523 117.204Z" fill="white"/>
<path d="M67.1757 138.092C64.0753 135.38 60.0901 133.214 55.6263 131.983C50.6795 130.617 45.1522 131.308 40.3678 130.143C39.5495 129.945 37.3516 131.937 38.0473 132.106C39.5894 132.481 41.2172 132.51 42.8523 132.549C42.7711 132.66 42.7194 132.767 42.7194 132.864C42.7194 139.607 42.6647 146.358 42.0517 153.087C41.774 156.136 42.031 159.172 41.7888 162.224C41.6514 163.949 41.1344 165.633 40.9971 167.37C40.9926 167.434 40.5909 169.494 40.3028 170.699C38.2187 170.266 36.232 169.758 34.4299 169.232C33.4432 168.943 31.5082 171.019 31.8228 171.111C40.198 173.562 49.9394 174.842 58.6617 172.583C65.6838 170.764 70.8891 165.458 73.0634 160.383C76.2525 152.935 73.9246 143.996 67.1757 138.092ZM58.7784 171.132C53.7134 172.443 47.5598 172.046 41.9277 171.015C42.161 170.856 42.3442 170.709 42.4151 170.613C43.6603 168.934 43.6411 166.501 43.7932 164.591C44.0724 161.075 44.7888 157.759 44.6174 154.205C44.2748 147.088 45.2718 139.828 45.4033 132.672C45.6558 132.694 45.9084 132.716 46.1581 132.749C50.2777 133.293 54.1861 133.957 57.839 135.547C65.0398 138.685 69.059 144.23 70.9364 150.045C73.4918 157.965 70.1033 168.198 58.7784 171.132Z" fill="white"/>
<path d="M114.886 160.012C111.709 155.355 107.666 153.127 101.889 152.016C108.498 150.446 115.257 147.459 115.964 142.319C116.722 136.81 110.873 134.447 105.511 131.779C99.4429 128.76 91.5715 130.072 84.8876 130.848C83.8891 130.964 82.3426 132.805 82.6114 132.772C86.2081 132.354 89.5538 131.887 93.1771 131.837C93.152 131.907 93.1387 131.973 93.1579 132.031C94.0471 134.687 93.5789 137.692 93.3514 140.404C92.9836 144.8 91.9644 148.965 91.9644 153.403C91.9644 157.44 91.7354 161.173 91.0102 165.186C90.3957 168.588 90.3898 172.041 89.8433 175.428C89.4489 175.719 89.152 176.026 89.1801 176.26C89.2391 176.74 89.1357 176.699 89.6276 176.959C90.3972 177.37 92.1328 175.698 92.2347 175.222C92.9703 171.79 92.7591 168.294 93.4282 164.834C94.1786 160.946 94.861 157.193 94.666 153.267C102.319 153.959 107.455 155.696 111.493 160.713C115.311 165.456 118.189 171.638 119.009 177.151C119.072 177.573 121.768 176.208 121.664 175.52C120.874 170.199 118.13 164.765 114.886 160.012ZM94.6497 152.76C94.4341 148.491 94.9082 144.416 95.8152 140.198C96.3543 137.695 96.6749 134.646 96.1977 131.973C99.9658 132.418 103.114 133.838 106.532 135.255C110.27 136.805 113.193 139.573 113.459 142.836C113.924 148.54 102.645 150.729 96.8181 151.329C96.3425 151.38 95.1593 152.205 94.6497 152.76Z" fill="white"/>
<path d="M168.416 171.602C167.849 174.653 167.589 173.841 164.214 173.841H136.78C136.799 173.794 136.825 173.743 136.833 173.7C137.917 167.226 137.957 160.493 137.957 153.943C142.183 154.22 146.333 154.687 150.617 154.687C151.539 154.687 153.166 152.874 152.76 152.874C147.946 152.874 143.299 152.283 138.527 152.035C138.36 152.026 138.162 152.096 137.96 152.194C137.964 148.241 138.128 144.368 138.707 140.433C139.159 137.36 138.985 134.187 140.177 131.203H150.243C153.487 131.203 157.109 131.879 160.357 132.181C164.886 132.604 167.508 133.026 168.044 136.935C168.103 137.363 170.546 136.005 170.546 135.399V135.119C170.546 135.094 170.506 135.092 170.478 135.083C169.508 129.897 163.127 130.296 157.257 129.948C152.74 129.679 148.437 129.389 143.87 129.389C142.246 129.389 140.291 129.183 138.701 129.414C139.268 129.331 134.363 129.999 133.791 129.706C133.085 129.344 130.942 131.216 131.382 131.442C132.932 132.235 136.528 131.241 138.338 131.206C136.923 133.764 136.511 136.875 136.252 139.588C135.843 143.868 135.456 148.149 135.456 152.447C135.456 159.514 135.549 166.787 134.528 173.837H133.658C132.737 173.837 131.109 175.649 131.515 175.649H164.103C168.716 175.649 170.327 173.248 170.92 170.062C170.96 169.839 168.546 170.903 168.416 171.602Z" fill="white"/>
<path d="M221.763 175.749C220.004 175.749 214.874 176.389 214.063 174.628C213.338 173.056 212.936 171.188 212.391 169.571C210.825 164.93 209.131 160.33 208.332 155.573C207.487 150.549 205.668 145.699 205.141 140.602C204.8 137.307 204.419 132.097 201.304 129.435C201.327 129.267 201.345 129.101 201.345 128.949C201.345 128.836 201.033 128.912 200.637 129.08C199.844 129.189 198.149 130.521 198.567 130.828C198.657 130.895 198.735 130.973 198.821 131.043C198.577 132.332 197.694 134.215 197.274 135.146C195.38 139.34 194.63 143.768 193.413 148.078C192.134 152.606 190.994 157.22 189.589 161.721C188.84 164.122 188.069 166.501 187.162 168.871C186.556 170.454 186.188 172.46 185.189 174.041C183.654 173.938 182.119 173.841 180.577 173.825C179.676 173.815 178.062 175.601 178.472 175.605C182.163 175.645 185.813 176.113 189.505 176.153C190.406 176.164 192.02 174.378 191.609 174.373C189.931 174.356 188.262 174.246 186.595 174.132C189.181 171.098 190.047 166.739 191.084 163.322C191.71 161.26 192.304 159.197 192.889 157.132C197.126 156.907 201.445 156.666 205.67 156.666C205.927 157.716 206.168 158.769 206.366 159.827C207.227 164.438 209.016 169.418 211.026 173.82C211.45 174.748 211.149 176.192 212.001 176.985C213.355 178.243 217.621 177.526 219.66 177.526C220.564 177.529 222.162 175.749 221.763 175.749ZM193.445 155.438C193.419 155.44 193.389 155.455 193.363 155.459C194.051 153.009 194.728 150.559 195.42 148.107C196.753 143.394 197.664 138.524 199.649 133.935C199.818 133.543 200.03 133.081 200.248 132.592C202.702 136.111 202.587 141.641 203.03 145.104C203.454 148.425 204.382 151.669 205.228 154.925C201.308 155.006 197.338 155.235 193.445 155.438Z" fill="white"/>
<path d="M281.664 174.939H276.582C276.591 174.888 276.605 174.834 276.587 174.787C273.531 166.639 273.662 158.099 272.516 149.744C271.893 145.198 271.427 140.775 271.227 136.207C271.117 133.712 271.269 130.42 270.046 128.067C269.807 127.607 267.695 129.282 267.562 129.472C265.987 131.716 266.023 134.628 265.359 137.102C264.147 141.63 262.371 145.546 261.983 150.193C261.622 154.494 260.159 159.077 258.916 163.273C258.151 165.855 257.887 168.649 257.249 171.333C255.819 164.689 254.484 157.955 252.656 151.353C251.587 147.489 250.03 143.693 248.949 139.831C247.911 136.124 246.831 131.876 244.903 128.37C244.856 128.357 244.807 128.342 244.76 128.329H244.354C243.634 128.329 241.636 129.535 241.84 130.142C241.088 137.276 240.683 144.445 239.5 151.556C238.197 159.39 238.269 167.308 236.868 175.097C235.851 175.171 234.832 175.23 233.809 175.243C233.109 175.252 232.37 175.848 231.949 176.202C231.868 176.27 230.874 177.206 231.488 177.206H232.299C232.411 177.206 232.524 177.185 232.637 177.157C233.999 177.101 235.357 176.988 236.713 176.88C236.748 176.88 236.782 176.88 236.828 176.871C238.423 176.742 240.02 176.62 241.627 176.601C242.327 176.592 243.066 175.996 243.485 175.642C243.562 175.577 244.56 174.631 243.946 174.639C242.451 174.658 240.968 174.772 239.485 174.894C239.47 174.821 239.417 174.776 239.33 174.757C240.888 166.977 240.043 159.049 241.903 151.254C243.221 145.73 243.599 140.052 244.027 134.415C245.036 137.347 246.027 140.871 246.235 141.492C247.519 145.315 248.82 149.166 249.943 153.015C251.987 160.024 253.296 167.263 254.822 174.335H252.054C251.055 174.335 249.295 176.297 249.733 176.297H261.088C262.086 176.297 263.847 174.335 263.408 174.335H258.292C259.903 171.366 260.097 167.938 260.689 164.788C261.416 160.922 262.989 157.195 263.603 153.298C264.303 148.859 264.865 144.214 266.519 139.917C267.098 138.414 267.653 136.972 268.064 135.441C268.203 134.923 268.306 134.35 268.404 133.749C268.587 135.658 268.503 137.652 268.574 139.276C268.776 143.898 269.386 148.382 270.017 152.981C271.021 160.304 271.011 167.755 273.345 174.941H271.114C270.162 174.941 268.294 176.889 268.794 176.903C270.104 176.94 271.365 177.026 272.596 176.903H279.337C280.342 176.902 282.102 174.939 281.664 174.939Z" fill="white"/>
<path d="M320.302 155.563C320.105 145.239 306.841 145.165 298.091 140.695C294.966 139.099 293.294 137.234 293.294 134.353C293.294 128.703 303.247 128.414 307.925 129.174C311.452 129.747 313.573 131.806 316.559 130.803C316.542 131.486 316.407 132.171 316.605 132.865C316.785 133.494 318.76 131.978 318.932 131.803C319.909 130.812 320.334 129.761 319.263 128.673C319.248 128.658 319.225 128.655 319.204 128.645C319.175 128.262 319.089 127.874 318.857 127.462C318.705 127.191 315.968 128.575 316.238 129.298C314.748 129.045 313.014 128.041 312.093 127.706C309.836 126.887 307.367 126.782 304.915 126.882C301.082 127.04 297.616 128.591 294.817 130.428C292.519 131.935 291.123 133.791 290.585 136.016C289.572 140.212 295.878 143.169 300.154 144.633C304.244 146.032 308.667 146.575 312.374 148.595C317.448 151.359 317.209 156.923 317.82 161.016C318.237 163.807 318.494 166.364 317.51 169.14C315.956 173.525 310.116 174.796 304.925 174.942C301.473 175.04 297.133 175.694 295.899 172.506C295.405 171.233 296.229 170.136 295.336 168.929C294.983 168.453 293.003 170.133 292.851 170.334C291.514 172.104 292.151 175.352 292.848 177.241C292.851 177.336 292.916 177.387 293.042 177.391C293.255 177.431 293.469 177.47 293.681 177.51C294.148 177.596 294.953 177.066 295.513 176.534C296.376 176.844 297.374 176.939 298.668 177.038C303.127 177.382 309.238 176.743 312.974 174.757C322.25 169.823 320.446 163.158 320.302 155.563Z" fill="white"/>
</svg>
