<svg width="118" height="43" viewBox="0 0 118 43" fill="none" xmlns="http://www.w3.org/2000/svg">
<path d="M118 0H0V43H118V0Z" fill="#4AB1BA"/>
<path d="M24.3751 28.4265V31.0002H15.285V28.4265L17.5203 27.687V13.6354L15.285 12.7479V10.2926L24.3751 10.1447V12.7479L22.1398 13.6354V27.687L24.3751 28.4265Z" fill="white"/>
<path d="M29.3842 25.8233L29.6205 27.8941C30.2783 28.0927 31.0915 28.1899 32.0643 28.1899C33.6333 28.1899 34.4167 27.6574 34.4167 26.5925C34.4167 26.1382 34.1484 25.7494 33.612 25.424C33.0755 25.0986 32.4198 24.8175 31.645 24.5809C30.8701 24.3442 30.0952 24.0632 29.3203 23.7378C28.5454 23.4124 27.8897 22.9137 27.3533 22.2439C26.8168 21.5741 26.5486 20.7542 26.5486 19.7886C26.5486 18.0538 27.134 16.7775 28.307 15.9576C29.4778 15.1399 30.9382 14.73 32.6881 14.73C33.4821 14.73 34.3422 14.8039 35.2661 14.9518C36.19 15.0998 36.9202 15.2434 37.4566 15.3808L38.2294 15.6174C38.1889 16.6042 38.1506 18.0833 38.1102 20.0548H35.4896L35.0425 18.1319C34.5252 17.9354 33.8674 17.8361 33.0734 17.8361C32.4582 17.8361 31.9707 17.9692 31.613 18.2355C31.2554 18.5017 31.0808 18.8715 31.0808 19.3448C31.0808 19.7991 31.3533 20.1837 31.9004 20.4985C32.4475 20.8134 33.1011 21.0902 33.8674 21.3268C34.6317 21.5635 35.4044 21.8361 36.1772 22.1403C36.9521 22.4467 37.6141 22.9243 38.1613 23.5751C38.7062 24.2259 38.9808 25.0246 38.9808 25.9713C38.9808 27.6469 38.3592 28.9548 37.1181 29.8909C35.8749 30.827 34.2123 31.2961 32.1261 31.2961C31.2894 31.2961 30.4166 31.2411 29.5034 31.1334C28.5901 31.0256 27.8833 30.9221 27.3873 30.8228L26.6423 30.6453V25.8233H29.3842Z" fill="white"/>
<path d="M57.0416 30.7932L51.1405 31.0002L50.6041 29.0774C50.4253 29.2359 50.1868 29.4366 49.8888 29.6838C49.5908 29.9311 49.0203 30.2607 48.1751 30.6748C47.33 31.089 46.5317 31.2961 45.7759 31.2961C44.3241 31.2961 43.1916 30.8925 42.3762 30.0832C41.5609 29.276 41.1543 28.1308 41.1543 26.6516C41.1543 23.3976 43.5386 21.7706 48.3071 21.7706H50.3933V20.1435C50.3933 18.6644 49.6291 17.9249 48.0985 17.9249C47.6408 17.9249 47.1937 17.965 46.7573 18.0432C46.3188 18.1214 45.9931 18.2017 45.7738 18.2799L45.4737 18.3686L45.0266 20.2915H42.3443L42.1357 15.9133C44.5391 15.1251 46.6956 14.73 48.6009 14.73C50.8659 14.73 52.4647 15.1695 53.4013 16.0464C54.3338 16.9254 54.8 18.4383 54.8 20.5873V27.8941L57.0374 28.4266V30.7932H57.0416ZM45.446 26.2079C45.446 27.3912 46.0314 27.9829 47.2044 27.9829C47.6812 27.9829 48.1815 27.8413 48.7094 27.5539C49.2353 27.2687 49.6461 26.9771 49.9463 26.6812L50.3933 26.2671V24.2851H48.6924C47.5407 24.2851 46.7105 24.4393 46.2038 24.7436C45.7014 25.05 45.446 25.5381 45.446 26.2079Z" fill="white"/>
<path d="M57.3992 8.31063L64.0134 8.07397V16.2979C65.3865 15.2519 66.8064 14.73 68.2753 14.73C70.2636 14.73 71.7793 15.4104 72.8224 16.7712C73.8634 18.132 74.385 20.0654 74.385 22.5693C74.385 25.3902 73.6484 27.5603 72.1795 29.0774C70.7106 30.5967 68.5648 31.3553 65.7441 31.3553C64.7691 31.3553 63.7771 31.3003 62.7638 31.1925C61.7505 31.0848 60.9756 30.9812 60.4391 30.8819L59.6344 30.7044V11.2689L57.3992 10.6772V8.31063V8.31063ZM64.0134 19.5519V27.6575C64.4711 27.8159 65.2077 27.8941 66.2188 27.8941C68.5818 27.8941 69.7654 26.2185 69.7654 22.8651C69.7654 19.7696 68.7926 18.2207 66.8447 18.2207C66.3082 18.2207 65.808 18.3285 65.3396 18.5461C64.8734 18.7638 64.5307 18.9898 64.3136 19.2265L64.0134 19.5519Z" fill="white"/>
<path d="M91.045 23.9005L81.1524 23.9892C81.2312 25.2127 81.5931 26.1593 82.2403 26.8291C82.8853 27.499 83.7134 27.8349 84.7288 27.8349C85.4633 27.8349 86.2488 27.7208 87.0812 27.4947C87.9178 27.2687 88.5607 27.0362 89.0184 26.7996L89.7337 26.4446L91.0174 28.8112C90.796 28.9887 90.4894 29.2147 90.0913 29.4916C89.6932 29.7684 88.8992 30.1381 87.7071 30.6009C86.5149 31.0636 85.3547 31.2961 84.2201 31.2961C81.6953 31.2961 79.7751 30.6009 78.4531 29.2105C77.1311 27.8202 76.4712 25.8529 76.4712 23.3088C76.4712 20.6866 77.1758 18.601 78.5872 17.0522C79.9965 15.5055 81.9444 14.73 84.4266 14.73C86.6128 14.73 88.2904 15.3512 89.4633 16.5937C90.6363 17.8361 91.2217 19.5329 91.2217 21.6818L91.045 23.9005ZM84.1307 18.1911C83.3153 18.1911 82.6554 18.4679 82.1487 19.0194C81.6421 19.5709 81.3291 20.3105 81.2099 21.2381H86.5767C86.5767 19.2075 85.7613 18.1911 84.1307 18.1911Z" fill="white"/>
<path d="M92.7738 8.31063L99.6584 8.07397V27.8941L102.49 28.6337V31.0003H92.7738V28.6337L95.1581 27.8941V11.2689L92.7738 10.6772V8.31063Z" fill="white"/>
</svg>
