<svg width="188" height="73" viewBox="0 0 188 73" fill="none" xmlns="http://www.w3.org/2000/svg">
<path d="M39.0689 27.6764C36.857 28.65 34.4244 28.2991 32.4934 27.1372C34.7331 24.5439 36.3748 19.3358 32.9692 17.1276C29.9665 15.1805 27.3217 21.3322 27.626 23.3478C27.7889 24.4283 28.194 25.3826 28.7127 26.2471C28.3933 26.0973 28.0632 25.9026 27.7182 25.6373C26.8587 25.1451 26.3529 23.7543 25.2599 23.6152C22.7094 23.2921 21.0012 27.2848 19.8803 30.4152C19.9017 28.8083 20.1696 27.1607 20.1696 25.6073V23.8185C21.1727 22.1816 21.9314 20.4527 22.3879 18.8415C23.4252 15.1869 26.3808 2.89214 22.1586 0.0720043C21.7556 -0.197599 21.2584 0.356586 21.0634 0.636888C18.26 4.6467 18.6843 10.8283 18.6243 15.5186C18.5858 18.2638 18.6008 21.0091 18.6115 23.7522C17.0297 26.0139 14.8008 27.8026 11.6159 28.757C10.5014 29.0908 9.11469 29.0266 7.68513 28.9474C7.42151 27.3319 6.63708 25.7378 5.79478 24.2079C3.97943 20.9085 2.18767 18.8565 6.62636 16.8409C9.46832 15.5507 12.4046 15.4094 15.3323 16.4386C16.0546 16.6911 17.0919 14.8488 16.1853 14.53C11.588 12.9167 4.59455 14.3952 1.77188 18.7346C0.410907 20.8229 1.9562 22.6823 3.43076 24.2443C4.06731 25.1751 4.64385 26.1444 5.15608 27.1479C5.31254 27.7256 5.47114 28.3012 5.6276 28.8789C3.99015 28.8704 2.43414 29.0694 1.32822 30.0964C-2.95401 34.0656 4.26663 37.1617 6.8214 33.2354C7.33364 32.4501 7.61226 31.6605 7.72585 30.8753C8.33883 30.9095 8.94108 30.9437 9.51547 30.9544C13.1483 31.0208 16.2903 28.8789 18.6158 26.0245C18.6158 26.1529 18.6179 26.2813 18.6179 26.4097C18.6179 29.0073 17.9385 31.7033 18.6308 34.2368C18.8772 35.1397 19.8588 34.1105 20.0432 33.7104C20.4997 32.7133 23.2902 24.8991 24.9898 25.909C26.0336 26.5295 26.4494 27.6101 27.6903 28.0509C28.6441 28.3911 29.6321 28.558 30.5451 28.3633C32.7999 30.1542 35.9847 30.7298 38.9703 29.4181C39.6819 29.1015 40.2241 27.1693 39.0689 27.6764ZM3.0514 31.0957C4.02016 30.8325 5.08321 30.7854 6.15484 30.8068C6.18056 30.9031 6.20843 30.9994 6.23414 31.0957C3.82083 34.1276 2.75992 34.1276 3.0514 31.0957ZM20.1696 16.5349C20.1696 12.9445 20.2596 9.43538 20.8576 5.88346C21.5992 1.48635 22.3943 5.09604 22.3515 7.69365C22.2786 12.1314 21.8778 16.9479 20.1696 20.932V16.5349ZM33.2692 22.3721C32.7098 24.2892 32.0004 25.5217 31.1538 26.1208C30.348 25.3505 29.6986 24.4219 29.3342 23.3499C30.6459 23.0247 31.9575 22.6973 33.2692 22.3721Z" fill="white"/>
<path d="M45.5971 9.07152C44.9349 7.16931 42.8473 3.37133 44.4462 1.52904C45.1449 0.724508 44.7098 -0.672723 43.7689 0.41211C41.1799 3.39273 42.9524 7.06875 44.0711 10.2869C44.4269 11.3097 45.8458 9.79046 45.5971 9.07152Z" fill="white"/>
<path d="M53.6024 14.9388C52.0186 16.7425 52.5287 19.4749 53.0923 21.5333C53.5253 23.1124 54.4769 24.6102 55.2206 26.0567C56.0693 27.7064 57.9554 31.6199 54.5262 32.6192C52.1836 33.3017 51.2641 30.993 50.6855 29.3904C50.3168 28.3676 48.9023 29.8889 49.1595 30.6057C50.6833 34.8252 54.5326 35.9764 57.2824 32.0265C58.6562 30.0515 57.9318 27.6165 57.1345 25.5924C56.2708 23.3992 54.9527 21.5398 54.3204 19.231C53.8211 17.7182 54.3161 16.3552 55.7821 15.1377C56.0286 15.1934 58.2983 14.9281 58.1333 15.1527C57.3596 16.2097 58.3991 16.8538 59.1578 15.816C61.9097 12.0544 55.3042 13.0002 53.6024 14.9388Z" fill="white"/>
<path d="M68.3393 63.8867C65.8424 64.1648 62.6747 63.3068 60.5014 61.5565C62.4239 58.8327 63.7742 52.987 60.6815 51.5962C57.0229 49.9507 56.4764 56.0275 56.4185 58.1437C56.3928 59.0958 56.6093 59.9624 56.9951 60.7498C55.2955 60.4781 53.3987 59.5709 52.1492 58.899C46.8574 56.051 45.6979 63.9765 44.8171 68.6646C43.186 64.244 42.2752 59.6094 41.8036 54.8999C44.9607 51.0676 43.1303 43.1486 41.1692 39.3806C40.747 38.5696 39.6947 40.1188 39.6947 40.5574C39.699 45.1834 39.7568 49.8673 40.1448 54.504C39.6689 55.0839 39.0881 55.5996 38.3616 56.0147C37.2814 56.6309 36.0533 57.0481 34.7695 57.3477C34.3044 52.2231 33.9786 47.1456 33.9743 41.9375C33.9743 40.6794 32.4247 41.9589 32.4247 42.7378C32.4269 47.1177 32.4783 51.4849 32.7784 55.8563C32.8212 56.4726 32.9113 57.0802 32.9798 57.6922C30.9716 57.9853 28.9119 58.0474 27.0816 58.0731C26.2864 58.0838 25.3648 59.9795 26.2286 59.9795H26.9551C26.983 59.9795 27.013 59.9603 27.0409 59.956C29.0705 59.9068 31.1495 59.7549 33.1642 59.3697C33.342 60.6664 33.5349 61.9588 33.7 63.2619C33.9486 65.2347 35.1488 70.0276 34.1393 71.7565C33.4899 72.867 34.5037 73.5496 35.1638 72.4198C37.0177 69.2466 35.5903 65.5513 35.226 62.0465C35.1188 61.013 35.0245 59.9881 34.9259 58.961C36.8741 58.4218 38.7045 57.5873 40.2969 56.3185C40.8649 61.7427 41.9687 67.0748 44.1291 72.1395C44.4227 72.8306 45.3657 71.718 45.4772 71.4441C46.7589 68.3244 47.016 58.5609 52.2392 61.3746C54.5196 62.6028 56.5407 64.2376 58.8254 63.0393C61.2816 65.1041 65.103 66.0777 67.84 65.7739C68.6072 65.6883 69.4153 63.769 68.3393 63.8867ZM41.2914 45.0016C41.8422 47.1734 42.048 49.5592 41.5336 51.6454C41.3921 49.4286 41.3278 47.2119 41.2914 45.0016ZM60.7715 57.0931C60.8551 59.0038 60.2978 60.033 59.4148 60.5038C58.5061 59.4232 57.9488 58.1137 57.9917 56.5988C58.0881 52.9506 60.6365 54.0033 60.7715 57.0931Z" fill="white"/>
<path d="M117.375 52.4799C113.588 55.3385 109.421 57.0011 107.981 51.1811C107.883 50.7788 107.85 50.3637 107.848 49.9465C107.853 49.9401 107.855 49.9315 107.859 49.9251C108.901 48.1063 112.231 47.0728 113.627 45.2113C114.505 44.0409 117.047 38.9334 113.502 38.8756C110.274 38.8243 108.819 42.3034 107.782 44.8647C107.107 46.5294 106.633 48.1213 106.487 49.7154C106.314 50.0535 106.164 50.3894 106.074 50.6975C105.699 51.9 105.281 53.0876 104.818 54.2601C103.133 58.6829 99.9397 53.4984 99.4039 52.4649C98.9173 51.5256 98.6087 50.46 98.403 49.3495C98.5123 48.9323 98.6194 48.5193 98.7159 48.1341C99.5925 44.6143 100.062 40.964 100.51 37.3714C100.941 33.9286 101.772 29.1699 100.84 25.7613C100.716 25.3099 100.229 25.3505 99.929 25.6287C96.7098 28.6264 97.1492 34.2752 96.6091 38.3792C96.2126 41.3812 96.1525 44.6528 96.5405 47.8196C95.9168 46.003 94.4722 45.0144 91.8853 45.9195C88.844 46.983 86.6708 52.3879 87.3609 55.805C86.2207 52.6254 87.2023 47.8068 89.8492 46.1057C90.4793 45.7013 90.9808 43.7049 89.9499 44.3661C86.7286 46.4373 85.194 50.4793 85.4855 54.2516C85.7299 57.3884 87.961 62.9859 92.2368 60.7114C93.8142 59.8726 95.1581 57.7414 95.9982 55.3385C96.5876 54.427 97.0677 53.4149 97.4578 52.3643C97.6228 52.925 97.8007 53.4791 98.0043 54.0162C99.3481 57.5617 102.734 58.9932 105.236 55.9783C105.96 55.1053 106.346 54.0397 106.693 52.9528C106.841 53.6225 107.04 54.2986 107.342 54.9919C109.867 60.7991 114.758 56.1516 117.671 53.9542C118.372 53.4299 118.496 51.6326 117.375 52.4799ZM98.6602 34.1854C98.7502 33.6397 99.7982 26.7627 99.511 30.3211C99.1252 35.1012 98.7652 39.8 97.9872 44.5116C97.9786 44.1992 97.97 43.8911 97.9593 43.5937C97.865 40.4119 98.1415 37.3307 98.6602 34.1854ZM89.0026 51.823C89.5063 49.3067 91.521 46.448 94.2579 48.2411C95.8653 49.2939 95.8953 51.6754 95.516 53.7145C94.7744 55.0775 93.7714 56.1923 92.3268 56.6309C88.9126 57.6708 88.5097 54.2879 89.0026 51.823ZM89.397 58.4475C90.0464 58.6786 90.8458 58.73 91.836 58.516C92.7555 58.317 93.5228 57.8805 94.2107 57.337C92.9784 59.1194 91.0259 59.4917 89.397 58.4475ZM111.031 45.819C109.58 46.7369 109.539 46.6085 108.181 47.5864C108.521 46.3346 109.046 45.1086 109.479 44.0409C110.416 41.302 110.932 41.8947 111.031 45.819Z" fill="white"/>
<path d="M137.847 53.1668C135.58 49.219 133.805 45.0808 133.563 40.4826C133.497 39.2116 132.005 40.5147 132.013 41.2828C132.058 45.0616 132.879 50.2054 130.269 53.3872C129.441 54.395 128.224 54.9749 126.932 55.4798C126.934 55.3942 126.938 55.3065 126.932 55.2252C126.687 51.9279 125.496 49.3239 124.176 46.3261C123.095 43.8719 122.3 41.3299 123.012 38.666C123.26 36.4129 124.508 35.7217 126.754 36.5926C126.885 37.4271 126.94 38.2637 126.923 39.1068C126.934 40.3671 128.479 39.0854 128.473 38.3087C128.462 36.8686 128.706 33.6591 126.67 33.4002C124.739 33.1562 123.252 35.3559 122.461 36.7424C121.312 38.7537 121.066 40.7993 121.246 43.046C121.419 45.2049 122.607 47.4923 123.462 49.4351C124.13 50.9565 124.718 52.4158 125.011 54.0591C125.016 54.0805 125.204 55.1139 125.224 56.1324C124.223 56.5176 123.252 56.9391 122.463 57.5596C122.049 57.8849 121.537 58.7407 122.028 59.1965C123.837 60.8762 125.879 58.9248 126.634 56.9113C128.811 56.0019 130.817 55.2359 132.371 52.4307C133.025 51.2539 133.362 49.9337 133.542 48.5643C134.305 50.6762 135.299 52.7153 136.452 54.7202C136.896 55.4991 138.246 53.8622 137.847 53.1668Z" fill="white"/>
<path d="M136.12 29.0438C135.327 28.9368 134.364 30.8283 135.267 30.9503C135.734 31.0145 135.644 31.4831 135.646 31.8468C135.653 33.105 137.2 31.8254 137.196 31.0466C137.191 30.18 137.168 29.1872 136.12 29.0438Z" fill="white"/>
<path d="M147.908 35.632C144.176 34.0785 142.138 39.2524 141.89 42.2073C141.817 43.0824 141.808 43.9362 141.827 44.7835C141.028 44.5375 140.359 44.0731 140.091 43.1787C139.781 42.1474 138.347 43.6623 138.565 44.3919C139.039 45.9646 140.379 46.7371 141.984 46.9853C142.211 49.1335 142.65 51.2497 143.248 53.4215C143.816 55.4842 144.455 57.5233 144.995 59.5946C145.255 60.6345 145.465 61.6829 145.627 62.7421L145.878 65.7591C140.822 70.4729 138.643 70.1091 139.339 64.6678C139.583 63.2856 138.019 64.1244 137.865 64.9995C137.222 68.6391 138.115 71.149 141.81 72.3173C144.041 73.0234 146.363 69.893 146.911 68.1748C148.553 63.0267 146.217 57.151 144.777 52.2104C144.299 50.5736 143.844 48.8361 143.557 47.0751C145.677 47.0024 147.925 46.2514 149.196 45.3077C152.72 42.6887 151.545 37.1448 147.908 35.632ZM144.843 45.0082C144.378 45.0296 143.851 45.0467 143.321 45.021C143.178 43.0097 143.326 41.0026 144.037 39.1111C146.408 32.8161 155.206 44.5075 144.843 45.0082Z" fill="white"/>
<path d="M187.548 32.6834C182.526 34.4551 179.517 38.0584 177.901 42.4405V35.403C177.901 34.0678 176.452 35.5421 176.351 36.2011C175.627 40.8935 175.517 48.6435 168.541 48.9388C165.913 49.05 163.974 46.2962 163.294 43.4611C163.757 43.5082 164.229 43.4526 164.718 43.2022C166.634 42.2137 167.703 39.492 168.505 37.6604C170.903 32.1763 166.565 32.2961 163.807 36.0556C162.911 37.2795 162.212 39.0405 161.876 40.9191C160.48 40.9191 159.089 40.8977 158.38 41.1181C157.19 41.4883 156.209 42.1901 155.396 43.091C155.457 42.3207 155.514 41.5504 155.574 40.7822C155.714 39.0212 155.521 37.8487 155.281 36.4065C155.452 37.4336 156.931 35.9379 156.807 35.1933C156.755 34.8852 156.646 34.7803 156.412 34.5813C156.277 34.4658 156.009 34.5278 155.879 34.6091C154.428 35.5228 154.546 36.1754 154.344 37.9621C154.042 40.6474 153.855 43.3263 153.598 45.9967C152.42 48.7719 152.1 52.1098 152.375 54.5491C152.49 55.5762 153.78 54.1918 153.875 53.7767C154.43 51.2989 154.809 48.8446 155.099 46.3219C155.116 46.1764 155.124 46.0331 155.139 45.8876C155.954 44.4219 157.173 43.2279 158.969 42.6673C159.921 42.3699 160.795 42.6844 161.657 43.0054C161.567 46.4118 162.816 49.7112 166.351 50.535C172.144 51.8852 174.879 47.6657 176.349 42.8599V51.4401C176.349 52.7047 177.886 51.408 177.899 50.6399C178.016 43.9811 180.091 37.0227 187.055 34.5663C187.762 34.3203 188.499 32.3475 187.548 32.6834ZM163.517 38.9592C163.912 38.1867 164.349 37.44 164.833 36.721C165.624 36.9799 166.415 37.2388 167.208 37.4978C166.829 38.4499 166.366 39.3614 165.821 40.2323C165.526 40.7351 164.375 40.8657 163.05 40.9042C163.093 40.1767 163.241 39.5069 163.517 38.9592Z" fill="white"/>
</svg>
