<?xml version="1.0" encoding="iso-8859-1"?>
<!-- Generator: Adobe Illustrator 17.0.0, SVG Export Plug-In . SVG Version: 6.00 Build 0)  -->
<!DOCTYPE svg PUBLIC "-//W3C//DTD SVG 1.1//EN" "http://www.w3.org/Graphics/SVG/1.1/DTD/svg11.dtd">
<svg version="1.1" xmlns="http://www.w3.org/2000/svg" xmlns:xlink="http://www.w3.org/1999/xlink" x="0px" y="0px"

	 xml:space="preserve" id="splash-slogan">

<g id="path">
	<!-- <path id="_x30_05" fill="none" stroke="#FFFFFF" stroke-miterlimit="10" d="M125.355,43.901c-0.876,2.15-0.825,5.279-1.032,7.568
		c-0.207,2.29-0.631,4.592-0.739,6.873c-0.091,1.921,0.019,3.869,0.004,5.794c0.976-4.275,0.414-9.117,2.612-13.035
		c2.357-4.201,3.691,0.661,4.739,2.979c1.022,2.26,2.679,7.24,6.18,6.577c3.141-0.595,3.509-6.81,4.218-9.229
		c0.28-0.956,0.65-1.861,0.943-2.81c1.584,0.714,2.231,1.499,4.13,0.903c1.645-0.516,3.077-1.592,3.817-3.122
		c0.686-1.42,2.094-9.138-1.367-7.677c-2.249,0.949-3.603,5.933-4.294,7.986c-0.682,2.026-0.986,3.742-0.727,5.864
		c0.446,3.64,1.589,9.838,6.572,8.939c3.273-0.591,7.709-2.037,9.185-5.265"/>
	<path id="_x30_06" fill="none" stroke="#FFFFFF" stroke-miterlimit="10" d="M165.768,42.137c-1.971,0.049-4.739,1.443-6.29,2.678
		c-0.759,0.604-2.906,3.22-2.351,4.379c0.632,1.321,4.433,0.446,5.708,0.839c2.211,0.68,4.391,2.704,5.735,4.559
		c2.439,3.365,1.148,7.621-3.277,7.972c-1.822,0.144-3.25-0.544-3.677-2.355c-0.262-1.113-0.267-3.213,1.359-3.082"/>
	<path id="_x30_07" fill="none" stroke="#FFFFFF" stroke-miterlimit="10" d="M185.46,40.962c-3.115,0.017-5.622,2.069-6.437,5.114
		c-0.431,1.61,0.104,2.552,1.408,3.446c1.717,1.178,3.057,2.054,4.294,3.777c1.041,1.449,1.923,2.804,3.09,4.122
		c0.764,0.863,1.771,2.331,1.77,3.519c-0.002,4.006-5.5,2.754-7.62,1.334c-1.34-0.898-2.879-3.073-3.56-4.559"/>
	<path id="_x30_08" fill="none" stroke="#FFFFFF" stroke-miterlimit="10" d="M213.529,61.977c3.006-0.38,5.052-5.688,5.846-8.23
		c0.97-3.106,1.518-6.469,2.539-9.507c-0.112,5.059-1.2,10.059-1.616,15.092c-0.216,2.614-0.473,5.846,0.833,8.229
		c0.99,1.807,3.073,2.864,5.183,2.359c2.392-0.573,5.478-4.248,5.291-6.767"/>
	<path id="_x30_09" fill="none" stroke="#FFFFFF" stroke-miterlimit="10" d="M225.579,35.23c-0.596,0.211-0.72,0.848-0.566,1.447
		c0.806,0.183,1.235-0.528,1.134-1.281c-0.698-0.097-1.117,0.519-1.303,1.156"/>
	<path id="_x30_10" fill="none" stroke="#FFFFFF" stroke-miterlimit="10" d="M245.418,45.223c-1.779-0.196-4.76,1.779-5.995,2.943
		c-1.045,0.984-1.602,2.593-1.826,3.964c-0.308,1.88,0.084,2.476,1.657,3.498c1.735,1.127,2.804,2.049,3.781,3.952
		c1.311,2.556,2.686,7.456-1.29,7.686c-2.034,0.118-3.986-0.143-4.992-2.021c-1.046-1.953-0.315-2.949,0.29-4.739"/>
	<path id="_x30_11" fill="none" stroke="#FFFFFF" stroke-miterlimit="10" d="M268.343,63.887c-0.186,0.063-0.374,0.116-0.565,0.157
		c1.89-0.272,4.172-3.602,5.106-5.071c1.335-2.098,2.393-4.37,3.549-6.565c1.255-2.384,3.182-5.655,2.935-8.479
		c-0.482,2.848-1.23,5.646-1.657,8.533c-0.443,2.996-1.365,6.915-0.562,9.917c0.735,2.747,2.971,5.55,5.86,3.998
		c4.657-2.502,6.19-7.104,7.197-12.02c0.649-3.17,2.516-6.435,2.855-9.563c1.904,2.662,1.734,8.232,1.734,11.454
		c0,3.489-0.641,7.004-1.329,10.356c0.222-1.911,6.04-17.11,8.824-14.077c1.91,2.081-0.081,6.351,1.498,8.729
		c1.393,2.098,7.802,0.395,7.613-2.072"/>
	<path id="_x30_12" fill="none" stroke="#FFFFFF" stroke-miterlimit="10" d="M279.806,32.585c0.746,0.267,3.158,0.399,3.041-0.863
		c-0.936-0.075-2.179,0.686-2.415,1.542c0.541,0.165,2.842-0.327,2.476-1.274c-0.317-0.821-2.072,0.282-1.633,1.183"/>
	<path id="_x30_13" fill="none" stroke="#FFFFFF" stroke-miterlimit="10" d="M349.904,13.187c-1.124-1.209-2.679,2.785-2.935,3.564
		c-1.012,3.079-0.763,6.263-0.883,9.465c-0.224,6.02-1.302,11.708-2.029,17.653c-0.583,4.766-1.298,9.282-2.281,13.977
		c-0.612,2.926-1.886,7.776-3.905,10.009c-0.023-0.161,0.02-0.308,0.129-0.44"/>
	<path id="_x30_14" fill="none" stroke="#FFFFFF" stroke-miterlimit="10" d="M337.266,49.338c4.095-0.012,7.563-2.673,10.907-4.85
		c3.05-1.984,6.233-3.986,8.645-6.764c2.666-3.07,3.161-6.999,3.365-10.903c0.133-2.541,2.353-7.757,0.754-9.982
		c-2.634,1.685-2.208,8.256-2.767,11.011c-0.917,4.517-1.339,9.125-2.205,13.663c-0.89,4.664-1.337,9.296-1.836,14.006
		c-0.27,2.545-1.058,5.045-0.996,7.595c0.462-2.615,3.02-5.411,4.996-7.016c2.056-1.669,2.856-1.979,3.571,0.621
		c0.649,2.36,2.156,7.792,5.688,7.472c2.089-0.189,4.25-3.515,5.292-5.039c1.504-2.199,2.377-5.375,2.211-8.046
		c-0.208-3.365-2.382-2.171-3.798,0.144c-1.51,2.468-1.94,4.775-1.94,7.608c0,2.444,0.622,5.786,3.197,6.764
		c1.448,0.55,9.441,1.697,9.882,0.617"/>
	<path id="_x30_15" fill="none" stroke="#FFFFFF" stroke-miterlimit="10" d="M414.418,61.83c0.478-2.463,1.665-4.391,0.918-7.057
		c-0.548-1.958-1.606-2.537-3.596-2.025c-3.944,1.014-6.218,7.541-6.139,11.139c0.12,5.514,5.297,2.565,7.631,0.012
		c3.471-3.797,3.243-7.787,3.946-12.656c0.456-3.16,1.225-6.272,1.686-9.431c0.392-2.688,0.476-6.197,1.4-8.629
		c0.151,1.415-0.301,2.917-0.264,4.364c0.061,2.427,0.401,4.903,0.77,7.305c0.517,3.365,1.34,6.57,2.057,9.889
		c0.621,2.872,3.081,8.926,6.797,5.885c2.522-2.064,3.269-4.438,3.751-7.62c0.198-1.305,0.053-5.363-2.064-3.347
		c-1.858,1.77-1.415,7.138-1.021,9.452c0.287,1.687,1.424,4.392,2.792,5.51c1.952,1.596,4.521-0.863,5.979-2.333
		c3.296-3.324,4.966-7.951,6.105-12.354c1.069-4.131,1.129-8.385,1.909-12.564c0.487-2.605,0.793-5.227,0.996-7.828
		c-0.552,7.416-0.798,14.769-0.142,22.182c0.194,2.195,0.363,4.433,0.731,6.605c0.295,1.742,0.08,3.577,0.441,5.265"/>
	<path id="_x30_16" fill="none" stroke="#FFFFFF" stroke-miterlimit="10" d="M438.813,43.607c1.257-0.361,2.93,0.098,4.294,0.003
		c1.809-0.126,3.66-0.648,5.404-1.179c2.314-0.704,5.273-1.395,7.054-3.086"/>
	<path id="_x30_17" fill="none" stroke="#FFFFFF" stroke-miterlimit="10" d="M500.681,56.98c-0.195,2.45,2.044,5.551,3.965,6.877
		c3.229,2.229,5.671,0.393,7.384-2.354c1.458-2.34,1.523-6.143,0.125-8.674c-1.123-2.033-4.171-2.225-3.824-4.769
		c-2.948,8.015-7.459,15.617-17.165,14.03c-3.512-0.575-6.375-1.652-8.563-4.53c-2.697-3.547-2.63-7.002-2.086-11.334
		c0.179-1.424,3.035-17.664,6.608-15.367c1.067,0.686,0.931,3.912,0.886,4.959c-0.124,2.902-0.815,5.701-1.29,8.55
		c-0.774,4.636-2.485,8.766-3.828,13.267c-0.818,2.74-2.067,5.467-5.246,5.518c-4.276,0.068-4.199-8.88-2.962-11.704
		c-2.18,3.449-3.252,9.427-6.741,11.858c-2.267,1.58-3.74-1.422-4.087-3.264c-0.546-2.893,0.822-5.734,0.821-8.647"/>
	<path id="_x30_18" fill="none" stroke="#FFFFFF" stroke-miterlimit="10" d="M464.089,53.453c0.06-1.941-1.073-4.371-3.388-3.277
		c-2.766,1.307-4.38,5.458-4.401,8.241c-0.016,2.034,0.337,4.871,3.086,4.588c1.641-0.169,3.964-3.576,4.115-5.143"/>
	<path id="_x30_19" fill="none" stroke="#FFFFFF" stroke-miterlimit="10" d="M520.52,65.944c-0.151,1.376,2.468-0.73,0.77-0.756
		c-1.877-0.028-0.045,2.149,0.093,0.374c-0.498-0.236-0.374,0.095-0.569,0.382"/>
	<path id="_x30_20" fill="none" stroke="#FFFFFF" stroke-miterlimit="10" d="M26.181,103.422c-0.497-0.271-0.889,0.35-1.002-0.407
		c13.006-0.679,25.394-4.646,38.138-5.347c9.737-0.535,19.475-0.16,28.871-1.019c5.864-0.536,11.314-2.148,17.166-2.642
		c6.267-0.529,12.541-0.496,18.831-1.044c11.722-1.021,23.13-1.734,34.625-3.024c20.316-2.28,40.762-3.337,61.067-5.347
		c9.462-0.937,20.225,0.076,29.302,1.555c9.766,1.592,19.62,1.583,29.799,1.583c22.292,0,45.096,1.01,66.95-1.596
		c20.558-2.452,41.382-0.994,62.28-2.038c20.098-1.005,39.631-2.347,59.192,2.718c4.46,1.155,8.889,1.684,13.483,1.962
		c7.436,0.45,14.167,2.71,21.444,3.661c8.861,1.158,17.664,0,26.663,0c5.697,0,13.434,0.821,18.318-1.046"/> -->
	<g id="clip__x5F_001">
		<defs>
			<path id="mask_x5F_001" d="M54.455,21.495c-6.893-9.601-18.289,3.808-22.53,9.455c-6.633,8.831-11.33,19.887-9.537,31.043
				c1.947,12.114,13.893,0.05,17.354-3.702c2.695-2.921,4.867-6.344,6.59-10.025c-0.73,5.741-1.224,11.522-1.753,17.389
				c-0.614,6.815-2.176,13.289-3.979,19.864c-1.673,6.1-6.761,7.355-10.292,2.396c-2.331-3.274-2.138-8.382-0.691-11.917
				c0.765-1.869-0.942-1.093-1.433,0.107c-2.162,5.283-1.847,10.928,1.507,15.637c2.966,4.166,7.701,2.538,9.94-1.122
				c4.231-6.916,5.44-15.805,6.45-23.692c1.112-8.69,1.645-17.203,2.936-25.706c1.254-4.089,2.073-8.295,2.527-12.339
				c0.178-1.583-1.572,0.532-1.727,1.098c-1.083,3.967-1.892,7.931-2.549,11.906c-1.315,4.022-3.098,7.884-5.432,11.532
				c-2.785,4.352-12.074,15.882-17.04,8.61c-8.599-12.593,18.411-51.524,27.982-38.192C53.335,24.611,54.96,22.199,54.455,21.495z"
				/>
		</defs>
		<clipPath id="mask_x5F_001_1_">
			<use xlink:href="#mask_x5F_001"  overflow="visible"/>
		</clipPath>
		<g id="g_x5F_001" clip-path="url(#mask_x5F_001_1_)">
			<path id="path_x5F_001" fill="none" stroke="#FF00FF" stroke-miterlimit="10" d="M55.992,24.503
				c-0.915-0.133-1.566-1.735-2.311-2.388c-0.765-0.67-1.662-1.34-2.502-1.91c-1.892-1.286-4.365-0.679-6.357,0.143
				c-4.584,1.89-8.754,5.724-11.576,9.78c-5.902,8.485-10.616,17.636-10.614,28.175c0,2.398,0.294,5.01,2.388,6.576
				c2.257,1.688,4.643-0.254,6.727-1.29c4.354-2.164,7.879-7.037,11.015-10.724c6.167-7.252,6.362-16.938,8.38-25.57"/>
			<path id="path_x5F_0012" fill="none" stroke="#FFFFFF" stroke-miterlimit="10" d="M47.615,44.195
				c-1.282,7.412-1.313,15.158-2.646,22.624c-0.43,2.408-0.672,4.819-0.874,7.246c-0.179,2.15-1.151,4.182-1.771,6.242
				c-1.033,3.43-1.32,6.871-3.821,9.592c-2.476,2.695-4.944,2.989-7.674,0.588c-2.976-2.617-2.76-5.079-2.759-8.964
				c0.001-3.821,1.383-6.038,2.792-9.406"/>
		</g>
	</g>
	<g id="clip_x5F_002">
		<defs>
			<path id="mask_x5F_002_1_" d="M129.646,29.607c-0.201-1.15-1.931,1.133-1.791,1.935c0.031,0.177-6.359,2.695-7.581,3.61
				c-1.763,1.321-4.267,2.648-6.853,3.384c0.656-5.495,0.453-11.21,0.407-16.838c-0.01-1.164-1.718,1.119-1.789,1.671
				c-0.685,5.285-1.349,10.519-1.877,15.737c-1.606,0.081-3.136-0.177-4.42-0.931c-0.752-0.442-2.213,2.138-1.438,2.594
				c1.796,1.055,3.688,1.26,5.596,0.978c-0.222,2.465-0.415,4.927-0.54,7.39c-0.039,0.092-0.071,0.184-0.111,0.275
				c-1.579,3.624-5.607,9.174-10.335,7.712c-3.364-1.039-2.864-8.147-2.882-10.711c-0.004-0.6-0.557-0.166-1.049,0.464
				c-0.132-0.665-0.298-1.303-0.492-1.903c-2.412-7.451-9.048,1.869-10.301,4.785c-1.175,2.733-1.606,5.813-0.859,8.131
				c-0.819-0.662-1.574-1.557-2.186-2.782c-0.208-0.417-0.782,0.056-0.946,0.255c-1.179,1.44-1.669,2.072-2.698,3.616
				c-3.936,1.472-6.452,1.337-7.561-0.391c1.839,0.059,4.135-3.233,4.781-4.588c2.431-5.105,0.344-13.712-4.634-6.267
				c-1.071,1.602-1.931,3.709-2.362,5.882c-3.281,5.308,1.108-0.149-4.664,0.343c-1.957,0.167-3.186,0.381-4.889,1.442
				c-0.684,0.426-1.227,0.969-1.677,1.583c0.038-2.096,0.254-6.739,1.182-7.699c0.653-0.676,1.123-3.217-0.215-1.831
				c-4.264,4.417-3.025,14.04-2.799,20.144c0.015,0.531,0.029,1.04,0.034,1.511c0.011,1.077,1.791-1.145,1.791-1.935v-5.906
				c0.226-1.68,0.81-3.208,2.188-4.067c1.734-1.081,5.807,0.222,8.87,0.964c0.418,2.919,2.026,5.349,5.506,6.009
				c2.946,0.559,6.308-6.943,7.406-4.748c1.884,3.769,5.871,3.482,8.967,1.986c0.235-0.019,0.457-0.022,0.707-0.058
				c2.478-0.353,3.908-2.421,4.74-4.974c0.598,2.136,1.747,3.8,3.953,3.736c3.417-0.098,6.197-2.41,8.253-5.012
				c0.824-1.042,1.532-2.117,2.171-3.211c-0.257,7.992,0.148,16,1.798,24.137c0.26,1.283,1.791-1.309,1.791-1.935v-2.966
				c0-0.392-0.246-0.336-0.556-0.073c-1.287-7.75-1.5-15.41-1.138-23.064c0.909-2.297,1.517-4.677,1.931-7.108
				c3.039-1.15,6.006-3.05,8.57-4.261C124.12,35.455,130.315,33.437,129.646,29.607z M89.379,58.685
				c-0.689,0.062-1.465-0.012-2.36-0.287c-4.436-1.364-1.692-8.324-0.451-10.784c3.915-7.761,6.669,0.658,6.957,3.123
				C93.968,54.542,91.982,57.514,89.379,58.685z"/>
		</defs>
		<clipPath id="mask_x5F_002_2_">
			<use xlink:href="#mask_x5F_002_1_"  overflow="visible"/>
		</clipPath>
		<g id="g_x5F_002" clip-path="url(#mask_x5F_002_2_)">
			<path id="path_x5F_002" fill="none" stroke="#FFFFFF" stroke-miterlimit="10" d="M57.608,47.869
				c-2.632,6.716-2.154,13.294-2.649,20.235c0.433-2.034,0.18-4.05,0.294-6.13c0.055-1.002,0.102-3.11,0.771-3.932
				c1.309-1.607,5.029-2.081,6.874-1.8c2.726,0.414,5.32,0.956,7.781-0.551c2.506-1.535,4.826-3.996,3.971-7.233
				c-1.157-4.381-4.684-0.306-5.763,2.028c-1.17,2.53-1.185,4.917-0.372,7.524c0.708,2.271,2.409,5.498,5.25,5
				c1.47-0.258,2.812-1.413,3.869-2.42c0.98-0.933,1.674-2.432,2.752-3.185c2.029,2.124,3.045,3.837,6.319,3.838
				c3.26,0.001,6.243-2.593,7.825-5.258c1.901-3.203,0.159-15.319-5.588-11.274c-3.764,2.65-7.413,11.839-2.792,15.061
				c1.752,1.222,4.936,1.371,6.588-0.146c1.885-1.731,1.837-4.171,2.376-6.422c0.667,2.525,1.478,5.748,4.817,5.247
				c2.865-0.43,4.309-2.127,6.176-4.119c4.744-5.061,5.647-12.232,6.724-18.814c0.652-3.986,1.198-8.364,0.882-12.443
				c-0.697,2.232-0.659,4.691-1.18,7.013c-0.574,2.562-1.228,5.103-1.722,7.674c-0.928,4.824-1.18,9.64-1.18,14.557
				c0,4.253,0.347,8.449,0.146,12.708c-0.171,3.627,1.142,6.636,2.205,9.883"/>
			<path id="path_x5F_0022" fill="none" stroke="#FFFFFF" stroke-miterlimit="10" d="M105.075,39.639
				c2.055,1.847,6.412,1.104,8.82,0.477c2.474-0.644,4.864-1.463,7.091-2.686c1.903-1.045,3.695-2.303,5.405-3.67
				c1.171-0.936,3.472-2.456,3.813-3.968"/>
		</g>
	</g>
</g>
</svg>
