<svg width="196" height="115" viewBox="0 0 196 115" fill="none" xmlns="http://www.w3.org/2000/svg">
<g clip-path="url(#clip0)">
<path d="M28.6959 5.12709C27.5839 5.40509 26.8919 6.34309 26.3499 7.29009C24.2369 10.9891 25.1249 16.8991 24.0369 20.9261C22.6249 26.1521 22.8389 31.6771 21.5249 37.0011C20.8549 39.7161 21.3329 43.0691 21.0529 46.1351C20.4469 44.5371 19.7379 42.9841 19.0119 41.4091C17.4549 38.0331 17.7319 34.0801 16.6539 30.6201C16.4559 29.9831 15.1259 31.3371 14.9549 31.5171C13.0089 33.5671 12.0529 37.3601 11.6479 40.0741C11.2229 42.9221 9.9519 45.7001 8.9859 48.3991C9.7919 46.1491 9.5769 43.2991 9.5769 40.8661C9.5769 34.5901 10.0549 28.6121 8.9079 22.4021C8.3389 19.3241 8.3979 16.2611 8.3979 13.1461C8.3979 10.0961 7.8249 7.15009 7.8079 4.08409C7.8059 3.68709 5.5619 5.11109 5.5669 5.92709C5.6059 13.0901 5.9419 20.7001 7.3359 27.7461C8.0899 31.5581 7.4129 35.6901 7.3359 39.5401C7.2659 43.0161 6.5609 47.3871 7.3359 50.7441C7.4039 51.0371 7.7289 50.8691 7.9069 50.7811C9.9969 49.7511 10.7799 47.9611 11.5409 45.8351C12.2619 43.8211 13.3889 41.5841 13.7049 39.4661C13.8799 38.2981 14.2849 36.0071 14.8759 34.1341C15.5109 36.6491 15.9379 39.4391 16.1809 41.8991C16.4559 44.6751 18.9979 47.9801 19.7199 50.7441C19.9129 51.4861 21.6639 49.5701 21.8169 49.3071C22.9149 47.4251 22.9339 45.1551 23.1409 43.0041C23.5659 38.5721 23.7999 33.9691 24.8729 29.6211C25.8329 25.7301 25.5879 21.7271 26.6419 17.8271C26.9659 16.6281 28.0009 7.02709 27.1379 7.24209C27.7929 7.07909 29.4979 4.92709 28.6959 5.12709Z" fill="#1B708A"/>
<path d="M44.497 45.427C41.852 48.105 36.711 47.197 34.01 45.25C31.237 43.252 31.146 39.307 31.159 36.242C34.118 35.813 37.156 34.925 39.986 36.085C41.139 36.557 42.341 35.223 42.859 34.319C43.729 32.802 41.352 28.27 40.401 26.785C39.039 24.658 35.476 26.132 33.989 27.3C28.971 31.237 27.845 38.229 29.658 44.126C31.742 50.905 41.019 50.186 45.101 46.052C46.321 44.818 45.726 44.182 44.497 45.427ZM35.9 27.94C37.627 27.664 38.518 29.184 39.129 30.474C39.236 30.7 39.792 32.289 40.278 33.545C39.563 33.397 38.834 33.325 37.717 33.49C35.756 33.78 33.299 34.15 31.329 34.248C31.321 34.249 31.311 34.256 31.303 34.257C31.691 31.465 32.947 28.412 35.9 27.94Z" fill="#1B708A"/>
<path d="M94.7939 34.9769C93.1919 31.0019 91.2299 28.1389 87.4739 25.9649C85.0389 24.5539 82.5719 24.8839 80.1379 25.6569C85.8739 21.2819 90.5679 16.5899 84.5299 8.88191C82.1729 5.87291 74.7419 7.67291 72.1959 9.46591C69.2589 11.5349 65.6819 13.3229 64.1159 16.7089C64.0179 16.9209 64.1779 16.9059 64.4479 16.7699C64.4399 16.8089 64.4139 16.8519 64.4149 16.8889C64.7259 29.7689 65.5119 42.5939 65.4219 55.4819C65.4219 55.6849 66.0109 55.4049 66.5859 54.9769C67.3499 56.2749 70.7849 57.4239 71.8399 57.9509C75.4219 59.7419 79.0959 59.8599 83.0329 59.6749C87.7219 59.4549 91.2769 56.9099 93.7199 53.0879C97.1459 47.7299 97.0869 40.6689 94.7939 34.9769ZM94.2129 46.0019C94.0359 48.6919 92.9509 51.7219 91.7669 54.1189C89.9569 57.7829 85.1349 57.4869 81.8459 57.6489C79.1819 57.7799 76.3499 57.0439 73.9979 55.8669C73.0499 55.3929 68.6699 53.7819 68.6699 52.6319C68.6699 52.4489 68.1819 52.6659 67.6629 53.0249C67.7239 40.3439 66.9629 27.7209 66.6569 15.0459C66.6549 14.9629 66.5469 14.9699 66.4019 15.0169C67.6339 12.8189 72.0569 10.8899 74.1659 10.1509C77.0569 9.13891 81.0809 9.31691 83.0809 11.8709C86.2509 15.9169 85.9129 20.4329 81.2859 23.8239C79.7439 24.9549 78.1329 25.9799 76.6059 27.1339C76.4229 27.2719 74.9659 29.1049 75.8309 28.7709C81.4689 26.5939 85.7909 27.1409 89.8409 31.7079C92.9679 35.2339 94.5159 41.3899 94.2129 46.0019Z" fill="#1B708A"/>
<path d="M80.6672 13.6659C78.2572 12.6249 75.6392 13.4279 73.6762 14.9949C73.4722 15.1569 73.1532 15.3989 72.8112 15.6779C72.2552 15.8299 70.7742 16.8979 70.7912 17.5599C70.8462 19.8159 71.4062 22.0139 71.4622 24.2709C71.4632 24.3309 71.5172 24.3449 71.5952 24.3369C71.6252 24.4269 71.7512 24.4379 72.0332 24.3079C73.6422 23.5669 74.8322 22.1749 76.4342 21.4689C77.7462 20.8909 79.0462 20.1739 80.0862 19.1699C81.5862 17.7199 83.4202 14.8559 80.6672 13.6659ZM77.1592 19.7069C75.9362 20.3989 74.9052 21.3779 73.6952 22.0739C73.6742 20.1819 73.4982 18.3399 73.3932 16.4609C75.1142 15.1349 78.4522 14.7389 79.7612 16.7149C80.8672 18.3839 78.0922 19.1799 77.1592 19.7069Z" fill="#1B708A"/>
<path d="M72.952 31.427C71.663 32.61 72.278 33.227 73.556 32.053C75.034 30.695 80.009 32.345 81.385 32.976C83.336 33.871 84.791 35.649 86.007 37.343C87.496 39.418 87.915 41.917 88.596 44.311C89.821 48.618 85.903 52.101 81.809 52.111C79.822 52.116 77.698 51.536 76.011 50.498C75.553 50.31 75.066 50.239 74.55 50.284C72.982 50.088 73.704 47.299 73.704 46.465C73.704 41.822 74.018 37.172 74.034 32.514C74.034 32.508 74.039 32.502 74.039 32.496V32.161C74.039 31.768 71.798 33.186 71.798 34.004V34.339L71.799 34.34C71.805 40.245 71.961 46.283 71.127 52.126C71.129 52.231 71.182 52.286 71.287 52.292C76.14 52.899 80.19 55.794 85.076 53.024C88.326 51.182 90.63 48.915 91.112 45.136C92.179 36.76 80.938 24.093 72.952 31.427Z" fill="#1B708A"/>
<path d="M123.956 21.421C123.818 18.764 123.821 16.196 123.849 13.535C123.87 11.534 123.036 9.63501 123.036 7.66201C123.022 7.62201 123.008 7.58201 122.994 7.54201C121.359 6.88801 120.225 7.49601 118.513 7.49601C117.806 7.49601 116.852 8.51901 116.576 9.09901C115.285 11.81 116.095 15.6 116.054 18.566C115.994 22.937 115.664 27.248 115.159 31.584C114.709 35.444 115.089 39.544 115.089 43.431C115.089 45.021 113.489 52.156 111.248 48.484C109.569 45.731 108.743 42.478 107.955 39.373C106.748 34.618 106.986 29.675 106.76 24.819C106.538 20.065 107.556 15.564 107.31 10.85C107.156 7.88501 106.866 6.48901 103.579 6.48901C102.026 6.48901 101.161 7.04201 100.195 8.22301C99.754 8.76201 99.663 9.04101 99.757 9.14501C99.689 9.27301 99.646 9.39601 99.652 9.50501C99.959 15.12 99.294 20.872 99.235 26.507C99.167 33.113 99.87 39.808 100.726 46.353C101.262 50.446 102.282 54.239 105.472 57.091C108.498 59.796 114.637 58.085 118 56.928C124.733 54.612 124.697 44.776 124.714 39.208C124.732 33.298 124.262 27.323 123.956 21.421ZM116.811 55.589C112.108 56.653 108.23 56.542 105.376 52.427C102.812 48.731 102.773 43.379 102.352 39.085C101.819 33.666 101.44 28.286 101.496 22.838C101.544 18.16 102.073 13.42 101.93 8.74501C102.095 8.76801 102.279 8.75201 102.497 8.66501C104.229 8.64801 105.071 9.48701 105.022 11.183C105.304 13.519 105.279 16.117 104.735 18.399C103.703 22.727 104.626 27.586 104.686 31.99C104.742 36.092 105.874 53.842 112.872 51.842C118.479 50.24 117.331 41.651 117.331 37.53C117.331 32.887 117.797 28.387 118.002 23.77C118.106 21.42 118.242 19.077 118.296 16.723C118.338 14.87 117.837 11.887 118.122 9.65701C119.358 9.67601 120.794 9.81901 120.794 10.512C120.794 11.529 121.295 12.847 121.466 13.868C122.216 18.372 121.669 23.453 121.919 28.046C122.289 34.838 125.777 53.56 116.811 55.589Z" fill="#1B708A"/>
<path d="M137.131 33.8391C137.131 25.0511 139.189 15.6261 137.881 6.87707C138.093 6.55507 138.294 6.15107 137.977 6.15407C135.779 6.17507 133.589 6.39707 131.393 6.46407C131.439 6.18407 131.146 6.25407 130.758 6.48407C130.703 6.48507 130.649 6.48907 130.594 6.49007C130.017 6.49507 129.401 7.16207 129.056 7.55307C128.991 7.62707 128.166 8.67007 128.674 8.66607C128.807 8.66407 128.939 8.65607 129.072 8.65307C127.475 15.8071 128.547 24.2401 128.213 31.5211C128.008 35.9751 128.538 40.6291 128.807 45.0791C129.068 49.3901 128.601 53.9941 129.31 58.2511C129.313 58.3561 129.366 58.4111 129.471 58.4171C131.015 58.8581 133.767 58.5921 135.386 58.3331C136.205 58.2021 137.146 57.2631 137.43 56.5031C138.171 54.5211 137.802 52.0221 137.802 49.9471C137.802 44.5861 137.131 39.2281 137.131 33.8391ZM133.279 56.3251C130.549 56.7801 131.437 53.2721 131.374 51.4521C131.19 46.1351 130.755 40.8371 130.755 35.5171C130.755 30.6411 130.753 25.7421 130.756 20.8461C130.758 17.0161 130.431 12.5361 130.999 8.57807C132.528 8.49307 134.055 8.37907 135.586 8.34507C136.844 16.2141 134.689 24.3311 134.764 32.2001C134.808 36.8951 134.696 41.6781 135.126 46.3541C135.382 49.1481 136.153 53.0881 135.678 56.2401C134.883 56.2291 134.092 56.1891 133.279 56.3251Z" fill="#1B708A"/>
<path d="M165.656 49.9471C165.654 49.8421 165.601 49.7861 165.496 49.7801C161.186 48.8501 156.461 49.1091 152.072 49.1091C149.333 49.1091 150.555 38.1471 150.555 36.4981C150.555 30.9181 149.883 25.4061 149.883 19.8271C149.883 14.9381 150.288 9.83807 149.883 4.97707C149.881 4.87207 149.828 4.81707 149.723 4.81107C147.687 4.81107 145.715 4.47607 143.682 4.47607C143.308 4.47607 142.809 4.92507 142.403 5.41407C142.052 5.66307 141.716 5.95607 141.581 6.15507C140.152 8.26007 140.599 10.6481 140.713 13.1301C140.955 18.4111 140.93 23.6831 140.93 28.9701C140.93 34.0781 141.601 39.1361 141.601 44.2631C141.601 48.9101 141.266 53.5221 141.266 58.1661C141.268 58.2711 141.321 58.3271 141.426 58.3331C148.592 58.3081 156.094 58.5311 163.198 57.9131C167.163 57.5681 165.678 52.1061 165.656 49.9471ZM157.777 55.8211C155.028 55.5161 152.161 55.8211 149.387 55.8211C147.17 55.8211 143.507 57.3741 143.507 53.9611C143.507 50.6841 143.843 47.4301 143.843 44.1461C143.843 37.8741 143.172 31.6801 143.172 25.4241C143.172 21.9201 143.204 18.4141 143.137 14.9111C143.097 12.8681 142.107 8.99807 142.759 6.63207C144.623 6.59507 147.627 6.63707 147.768 8.33107C148.033 11.5121 147.642 14.9951 147.642 18.1991C147.642 25.4791 148.313 32.6821 148.313 39.9571C148.313 42.4581 146.667 50.4911 150.152 51.2851C153.15 51.9691 157.095 51.4181 160.219 51.6211C161.257 51.6881 163.409 51.1711 163.427 53.0451C163.437 54.0921 163.615 55.1021 163.702 56.1341C161.887 56.4861 159.031 55.9601 157.777 55.8211Z" fill="#1B708A"/>
<path d="M189.148 18.0659C188.349 14.8689 187.703 11.7379 186.159 8.80592C184.581 5.80692 182.307 4.48592 179.71 2.50792C177.046 0.479925 172.313 -1.22308 169.439 1.16692C168.766 1.72692 168.162 2.46992 168.139 3.39692C168.048 7.13192 168.052 10.8899 168.21 14.6229C168.509 21.7059 166.347 28.8569 167.678 35.9299C168.905 42.4509 168.719 49.0989 169.317 55.6789C168.793 56.2869 168.399 56.9899 168.609 56.9899H168.945C168.972 56.9899 169.003 56.9699 169.031 56.9659C169.167 56.9619 169.3 56.9499 169.435 56.9429C169.443 57.0149 169.447 57.0869 169.455 57.1589C169.478 57.3599 169.894 57.1959 170.361 56.8899C179.487 55.9719 186.277 48.6279 188.872 39.9569C190.914 33.1359 190.87 24.9549 189.148 18.0659ZM171.645 54.7619C171.179 50.3349 170.991 45.7349 170.842 41.2999C170.695 36.8969 169.452 32.6669 169.587 28.1679C169.726 23.5309 170.451 18.9149 170.5 14.2909C170.522 12.1689 170.355 10.0389 170.355 7.91393V4.38993C170.355 2.28192 169.387 2.28892 171.252 2.28892C175.139 2.28892 180.13 5.66692 182.573 8.63192C185.82 12.5709 186.788 18.5429 187.661 23.4319C189.83 35.5779 186.431 53.7529 171.645 54.7619Z" fill="#1B708A"/>
<path d="M175.004 7.7571C174.339 7.6091 173.343 8.9011 173.067 9.3611C171.879 11.3411 172.476 13.7381 172.476 15.9691C172.476 19.6821 171.804 23.3381 171.804 27.0351C171.804 30.6151 171.384 34.5011 171.972 38.0311C172.546 41.4761 172.928 45.2681 173.147 48.7701C173.174 49.2121 175.438 47.7241 175.388 46.9271C175.001 40.7281 174.046 34.8331 174.046 28.5791C174.046 25.2011 174.264 21.9621 174.578 18.6031C174.769 16.5551 174.118 12.9381 174.432 10.3331C180.4 12.5351 181.932 19.5981 182.916 25.1911C184.297 33.0371 183.708 43.2481 176.159 47.5611C175.656 47.8491 173.847 50.1711 175.061 49.4771C178.116 47.7321 180.11 45.8081 182.465 43.1621C185.324 39.9511 185.375 35.5841 185.452 31.5131C185.605 23.3641 185.157 10.0131 175.004 7.7571Z" fill="#1B708A"/>
<path d="M70.9632 71.244C68.1302 74.716 60.3522 76.353 59.1602 70.757C58.3592 66.998 60.6442 62.049 61.5512 58.446C61.6582 58.021 61.3052 58.058 61.0162 58.23C60.5062 58.526 59.9992 58.829 59.4952 59.137C59.0452 59.422 55.7822 60.393 54.7282 60.637C54.6602 60.473 54.5852 60.312 54.4992 60.159C54.1982 59.625 52.5742 61.504 52.4432 61.717C52.3772 61.825 52.3102 61.932 52.2442 62.04C52.2032 62.106 51.9962 62.475 52.1422 62.566C52.2842 62.655 52.4262 62.71 52.5692 62.769C53.7872 66.259 52.3872 76.377 47.9132 72.954C46.7962 72.099 46.2162 71.043 45.9592 69.894C46.7372 67.257 46.8062 64.006 46.8222 62.293C46.8272 61.784 44.7382 63.399 44.6172 63.957C44.0702 66.474 43.2592 68.853 43.7162 71.328C43.4012 71.711 42.8002 71.716 41.5782 71.024C37.8112 68.891 39.9482 64.54 39.7742 61.287C39.7582 60.982 39.3332 61.173 39.2032 61.25C37.1512 62.466 35.2012 63.514 32.9702 64.407C32.9152 64.429 32.8462 64.446 32.7792 64.464C32.2732 63.928 31.5942 63.542 30.6792 63.385C29.3712 63.161 28.1032 63.449 27.1272 64.149C27.1402 63.644 27.1172 63.137 27.0222 62.629C26.8872 61.907 25.0652 63.797 24.9252 64.066C23.1422 67.468 22.4742 70.336 19.3782 72.799C19.2612 68.74 19.3032 64.676 19.3032 60.615C19.3032 60.187 17.1132 61.694 17.0622 62.458C17.0612 64.13 16.7372 65.748 16.0922 67.313C15.1222 67.451 14.1532 67.589 13.1842 67.727C12.6642 66.668 12.3422 65.557 12.2192 64.394C11.8682 62.318 11.4252 60.314 10.9142 58.266C10.8402 57.973 10.5262 58.142 10.3422 58.23C9.28122 58.732 2.97022 63.163 5.35822 64.257C6.13522 64.613 7.81522 62.31 7.51622 62.173C6.85622 61.871 8.59722 60.658 8.75322 60.507C9.00822 60.261 9.45722 63.25 9.67922 64.136C10.3332 66.753 9.84522 69.94 12.8292 71.038C14.6012 71.69 16.0172 70.207 17.0692 68.158C17.0772 70.222 17.0932 72.286 17.1402 74.35C15.9942 75.139 14.8852 76.027 14.0672 77.139C12.1442 79.751 8.19522 89.175 13.8772 89.782C16.3912 90.05 18.9352 86.509 19.3222 84.434C19.9162 81.242 19.5752 77.945 19.4352 74.722C19.4222 74.4 19.4182 74.078 19.4062 73.756C20.7162 72.743 22.0032 71.73 22.9572 70.574C23.7882 69.568 24.3902 68.464 24.9222 67.33C24.8102 70.985 24.1662 75.045 28.6332 76.72C30.5862 77.452 33.3672 76.639 33.6342 74.114C33.8582 72.006 34.6142 68.12 33.5342 65.627C35.3372 64.83 37.5722 63.864 37.5952 64.298C37.7772 67.71 35.8292 72.168 40.5032 73.699C42.1432 74.237 43.3532 73.894 44.2512 73.047C44.2762 73.104 44.2962 73.161 44.3232 73.218C45.2922 75.278 48.2432 77.386 50.4512 75.757C52.6502 74.134 53.5812 72.72 54.1682 69.956C54.6002 67.925 55.3572 65.01 55.1592 62.574C56.2142 62.174 59.0812 61.13 58.9602 61.608C57.9582 65.588 56.2892 69.647 57.1732 73.796C58.6362 80.66 69.7922 74.146 72.1202 71.294C73.4272 69.693 71.6962 70.346 70.9632 71.244ZM17.2652 78.22C17.3512 80.212 17.4262 82.205 17.3722 84.199C17.4952 85.899 16.4302 86.837 14.1752 87.012C12.5272 85.909 13.6032 81.317 13.9102 80.11C14.3752 78.282 15.6582 76.847 17.1782 75.538C17.2042 76.431 17.2272 77.325 17.2652 78.22ZM31.6602 73.533C31.5352 74.28 31.4092 74.894 31.5472 74.917C29.8792 74.646 28.6782 72.98 27.7772 71.737C26.7082 70.262 26.6592 68.769 26.8092 67.26C28.0762 67.424 29.2222 67.147 30.5002 66.782C32.1912 68.428 32.0222 71.364 31.6602 73.533Z" fill="#1B708A"/>
<path d="M23.958 87.6251C21.859 85.7951 19.16 84.3341 16.139 83.5041C12.789 82.5831 9.04795 83.0491 5.80895 82.2621C5.25495 82.1281 3.76695 83.4721 4.23795 83.5861C5.28195 83.8401 6.38395 83.8591 7.49095 83.8851C7.43595 83.9601 7.40095 84.0321 7.40095 84.0981C7.40095 88.6471 7.36395 93.2021 6.94895 97.7421C6.76095 99.7991 6.93495 101.847 6.77095 103.906C6.67795 105.071 6.32795 106.206 6.23395 107.378C6.23095 107.421 5.95895 108.81 5.76395 109.624C4.35395 109.332 3.00795 108.989 1.78795 108.633C1.11995 108.438 -0.189046 109.839 0.022954 109.901C5.69295 111.555 12.287 112.419 18.193 110.895C22.947 109.668 26.471 106.088 27.943 102.664C30.103 97.6391 28.526 91.6091 23.958 87.6251ZM18.273 109.916C14.844 110.801 10.678 110.533 6.86495 109.837C7.02295 109.73 7.14695 109.631 7.19495 109.566C8.03795 108.433 8.02495 106.793 8.12795 105.503C8.31695 103.131 8.80195 100.894 8.68595 98.4961C8.45395 93.6951 9.12895 88.7961 9.21795 83.9681C9.38895 83.9831 9.55895 83.9981 9.72895 84.0201C12.518 84.3881 15.164 84.8351 17.637 85.9091C22.512 88.0261 25.233 91.7671 26.504 95.6901C28.234 101.033 25.94 107.937 18.273 109.916Z" fill="#1B708A"/>
<path d="M56.2581 102.415C54.1061 99.2721 51.3701 97.7691 47.4581 97.0201C51.9321 95.9611 56.5081 93.9461 56.9871 90.4781C57.5001 86.7611 53.5401 85.1671 49.9101 83.3671C45.8021 81.3301 40.4731 82.2151 35.9491 82.7391C35.2731 82.8171 34.2261 84.0581 34.4081 84.0371C36.8431 83.7551 39.1081 83.4411 41.5621 83.4061C41.5441 83.4541 41.5361 83.4991 41.5491 83.5371C42.1511 85.3291 41.8341 87.3561 41.6801 89.1861C41.4321 92.1521 40.7411 94.9621 40.7411 97.9571C40.7411 100.681 40.5861 103.199 40.0951 105.906C39.6791 108.201 39.6751 110.531 39.3051 112.816C39.0381 113.012 38.8371 113.219 38.8561 113.377C38.8961 113.702 38.8271 113.673 39.1591 113.85C39.6801 114.127 40.8551 112.998 40.9241 112.678C41.4221 110.361 41.2791 108.004 41.7321 105.668C42.2401 103.045 42.7021 100.513 42.5701 97.8641C47.7511 98.3311 51.2281 99.5031 53.9621 102.888C56.5471 106.087 58.4941 110.259 59.0501 113.978C59.0931 114.263 60.9181 113.342 60.8491 112.878C60.3121 109.287 58.4541 105.622 56.2581 102.415ZM42.5581 97.5211C42.4121 94.6411 42.7331 91.8921 43.3471 89.0461C43.7121 87.3571 43.9291 85.3001 43.6061 83.4981C46.1571 83.7981 48.2881 84.7561 50.6021 85.7121C53.1341 86.7581 55.1121 88.6251 55.2921 90.8271C55.6071 94.6761 47.9721 96.1521 44.0261 96.5571C43.7041 96.5901 42.9031 97.1471 42.5581 97.5211Z" fill="#1B708A"/>
<path d="M92.4982 110.234C92.1142 112.293 91.9382 111.745 89.6532 111.745H71.0802C71.0932 111.713 71.1112 111.68 71.1162 111.65C71.8502 107.283 71.8772 102.739 71.8772 98.32C74.7372 98.507 77.5482 98.822 80.4482 98.822C81.0722 98.822 82.1732 97.599 81.8982 97.599C78.6402 97.599 75.4942 97.2 72.2622 97.033C72.1502 97.027 72.0162 97.075 71.8782 97.14C71.8822 94.473 71.9922 91.86 72.3842 89.205C72.6892 87.132 72.5722 84.991 73.3792 82.978H80.1942C82.3902 82.978 84.8422 83.434 87.0412 83.639C90.1072 83.924 91.8822 84.209 92.2442 86.846C92.2842 87.134 93.9382 86.219 93.9382 85.81V85.621C93.9382 85.604 93.9122 85.603 93.8922 85.598C93.2362 82.099 88.9152 82.368 84.9412 82.133C81.8832 81.952 78.9702 81.756 75.8782 81.756C74.7792 81.756 73.4552 81.617 72.3792 81.773C72.7642 81.717 69.4422 82.167 69.0562 81.97C68.5782 81.726 67.1272 82.989 67.4252 83.141C68.4742 83.676 70.9092 83.007 72.1342 82.983C71.1772 84.708 70.8972 86.808 70.7222 88.638C70.4442 91.525 70.1832 94.414 70.1832 97.314C70.1832 102.082 70.2462 106.989 69.5542 111.745H68.9662C68.3422 111.745 67.2402 112.968 67.5152 112.968H89.5762C92.7002 112.968 93.7902 111.348 94.1922 109.198C94.2202 109.045 92.5862 109.763 92.4982 110.234Z" fill="#1B708A"/>
<path d="M128.614 113.032C127.422 113.032 123.95 113.463 123.401 112.276C122.91 111.215 122.638 109.955 122.269 108.864C121.209 105.733 120.062 102.63 119.521 99.42C118.949 96.03 117.718 92.758 117.36 89.319C117.13 87.096 116.871 83.581 114.763 81.785C114.778 81.672 114.791 81.56 114.791 81.457C114.791 81.381 114.58 81.432 114.312 81.546C113.775 81.619 112.627 82.518 112.91 82.726C112.971 82.771 113.023 82.824 113.082 82.871C112.917 83.741 112.319 85.011 112.034 85.639C110.752 88.469 110.245 91.456 109.42 94.364C108.554 97.419 107.782 100.532 106.831 103.569C106.324 105.189 105.802 106.794 105.188 108.393C104.778 109.461 104.529 110.814 103.851 111.881C102.813 111.811 101.774 111.747 100.729 111.735C100.119 111.729 99.0262 112.933 99.3042 112.936C101.804 112.963 104.274 113.279 106.774 113.306C107.384 113.313 108.477 112.109 108.198 112.106C107.062 112.093 105.932 112.02 104.803 111.942C106.554 109.895 107.14 106.954 107.842 104.649C108.266 103.258 108.668 101.866 109.064 100.473C111.934 100.321 114.858 100.159 117.717 100.158C117.891 100.867 118.055 101.577 118.189 102.292C118.772 105.403 119.983 108.762 121.344 111.733C121.63 112.359 121.427 113.333 122.004 113.868C122.921 114.717 125.809 114.232 127.189 114.232C127.802 114.232 128.883 113.032 128.614 113.032ZM109.443 99.328C109.425 99.329 109.405 99.339 109.387 99.342C109.852 97.689 110.311 96.036 110.78 94.382C111.682 91.202 112.299 87.916 113.643 84.82C113.757 84.556 113.901 84.244 114.048 83.914C115.709 86.288 115.632 90.019 115.932 92.356C116.22 94.596 116.848 96.785 117.42 98.982C114.766 99.036 112.078 99.192 109.443 99.328Z" fill="#1B708A"/>
<path d="M169.166 112.486H165.726C165.731 112.451 165.74 112.415 165.728 112.383C163.659 106.886 163.748 101.124 162.973 95.487C162.551 92.42 162.235 89.435 162.1 86.354C162.026 84.67 162.129 82.45 161.301 80.862C161.14 80.551 159.71 81.682 159.62 81.809C158.554 83.323 158.578 85.288 158.129 86.958C157.308 90.013 156.106 92.655 155.843 95.79C155.599 98.691 154.607 101.783 153.766 104.614C153.249 106.357 153.069 108.241 152.638 110.052C151.67 105.569 150.765 101.026 149.529 96.572C148.805 93.965 147.75 91.404 147.018 88.798C146.316 86.297 145.585 83.431 144.279 81.066C144.247 81.057 144.215 81.047 144.182 81.038H143.908C143.421 81.038 142.068 81.852 142.205 82.261C141.696 87.074 141.422 91.91 140.622 96.709C139.74 101.993 139.788 107.336 138.84 112.591C138.152 112.641 137.462 112.682 136.769 112.69C136.295 112.696 135.795 113.098 135.511 113.337C135.456 113.384 134.783 114.014 135.198 114.014H135.748C135.823 114.014 135.9 114.001 135.977 113.982C136.899 113.944 137.817 113.868 138.736 113.794C138.76 113.794 138.783 113.795 138.813 113.788C139.893 113.702 140.974 113.619 142.062 113.606C142.536 113.6 143.037 113.198 143.321 112.959C143.373 112.915 144.049 112.277 143.633 112.282C142.622 112.294 141.617 112.372 140.613 112.454C140.603 112.406 140.567 112.376 140.509 112.362C141.564 107.113 140.992 101.765 142.251 96.505C143.144 92.778 143.399 88.947 143.69 85.144C144.373 87.123 145.043 89.5 145.185 89.919C146.054 92.498 146.935 95.096 147.695 97.694C149.079 102.423 149.965 107.307 150.998 112.078H149.124C148.448 112.078 147.256 113.402 147.553 113.402H155.24C155.916 113.402 157.109 112.078 156.811 112.078H153.347C154.438 110.075 154.569 107.761 154.97 105.637C155.463 103.028 156.527 100.514 156.943 97.884C157.416 94.889 157.797 91.755 158.917 88.856C159.309 87.842 159.685 86.869 159.963 85.836C160.057 85.487 160.127 85.1 160.193 84.695C160.317 85.983 160.26 87.328 160.308 88.425C160.445 91.542 160.858 94.567 161.285 97.67C161.965 102.612 161.958 107.638 163.538 112.486H162.028C161.382 112.486 160.118 113.8 160.457 113.81C161.344 113.835 162.198 113.893 163.031 113.81H167.595C168.271 113.81 169.463 112.486 169.166 112.486Z" fill="#1B708A"/>
<path d="M195.325 99.412C195.192 92.447 186.212 92.397 180.288 89.381C178.173 88.304 177.041 87.046 177.041 85.102C177.041 81.29 183.779 81.095 186.946 81.608C189.334 81.995 190.771 83.384 192.791 82.707C192.78 83.169 192.688 83.63 192.822 84.098C192.943 84.523 194.281 83.5 194.398 83.382C195.059 82.712 195.347 82.003 194.622 81.269C194.612 81.259 194.595 81.257 194.582 81.251C194.562 80.993 194.504 80.731 194.347 80.453C194.244 80.27 192.391 81.203 192.574 81.691C191.564 81.52 190.391 80.843 189.768 80.618C188.24 80.064 186.567 79.994 184.908 80.061C182.313 80.167 179.967 81.215 178.072 82.454C176.516 83.471 175.571 84.723 175.207 86.223C174.521 89.054 178.79 91.05 181.685 92.037C184.455 92.981 187.449 93.347 189.958 94.71C193.394 96.575 193.232 100.329 193.646 103.089C193.928 104.972 194.101 106.697 193.435 108.57C192.383 111.53 188.429 112.387 184.915 112.485C182.579 112.551 179.64 112.992 178.805 110.842C178.471 109.983 179.029 109.243 178.423 108.429C178.185 108.108 176.844 109.242 176.742 109.377C175.836 110.571 176.267 112.762 176.739 114.037C176.741 114.101 176.785 114.135 176.871 114.138C177.015 114.165 177.16 114.191 177.304 114.218C177.62 114.276 178.165 113.919 178.544 113.56C179.128 113.769 179.805 113.833 180.68 113.9C183.699 114.133 187.836 113.702 190.365 112.361C196.644 109.033 195.423 104.536 195.325 99.412Z" fill="#1B708A"/>
</g>
<defs>
<clipPath id="clip0">
<rect width="195.484" height="114.37" fill="white"/>
</clipPath>
</defs>
</svg>
