<svg width="115" height="115" viewBox="0 0 115 115" fill="none" xmlns="http://www.w3.org/2000/svg">
<path d="M113.336 71.179L108.543 70.0598C108.289 68.8353 107.966 67.6239 107.573 66.4354L111.144 63.087C111.742 62.5274 111.918 61.6477 111.581 60.8979C110.538 58.5943 109.254 56.3765 107.761 54.3025C107.281 53.6376 106.437 53.35 105.647 53.5895L101.001 55.0002C100.163 54.0608 99.2719 53.1679 98.3286 52.3305L99.7433 47.6866C99.981 46.9024 99.6952 46.0536 99.0302 45.5742C97.9992 44.8308 96.9316 44.1389 95.833 43.5025V9.58348C95.833 4.29916 91.5339 0 86.2501 0H9.58348C4.29916 0 0 4.29916 0 9.58348V59.4167C0 64.7011 4.29916 69.0002 9.58348 69.0002H29.8484L23.5749 86.2501H13.4164C12.3562 86.2501 11.4999 87.1087 11.4999 88.1666C11.4999 93.4509 15.7991 97.7501 21.0834 97.7501H44.7443C45.0244 98.1739 45.2752 98.6167 45.5725 99.0285C46.0519 99.6935 46.8933 99.981 47.6866 99.7416L52.3328 98.3309C53.1702 99.2702 54.0614 100.163 55.0047 101.001L53.59 105.644C53.3523 106.429 53.6381 107.277 54.3031 107.757C56.3731 109.25 58.5925 110.536 60.9002 111.579C61.6494 111.918 62.5274 111.744 63.0893 111.142L66.436 107.569C67.6204 107.962 68.8335 108.286 70.0621 108.539L71.1813 113.334C71.3692 114.133 72.0422 114.726 72.8601 114.806C74.1517 114.935 75.4341 115 76.6667 115C77.8993 115 79.1811 114.935 80.475 114.808C81.2934 114.727 81.9659 114.135 82.1537 113.336L83.2729 108.54C84.5015 108.287 85.7129 107.964 86.8991 107.571L90.2457 111.144C90.8093 111.743 91.6891 111.92 92.4348 111.581C94.7351 110.54 96.9545 109.254 99.0279 107.759C99.6952 107.279 99.9804 106.43 99.7427 105.644L98.3303 100.998C99.2713 100.161 100.164 99.2673 101.002 98.3286L105.648 99.741C106.429 99.9804 107.283 99.6929 107.763 99.0279C109.253 96.9562 110.54 94.7385 111.582 92.4325C111.921 91.6851 111.745 90.8053 111.145 90.2434L107.575 86.8951C107.968 85.7066 108.292 84.4952 108.544 83.2689L113.338 82.1497C114.137 81.9636 114.729 81.2889 114.81 80.4727C114.935 79.1845 114.999 77.9027 114.999 76.6661C114.999 75.4301 114.934 74.1476 114.806 72.8555C114.726 72.0399 114.136 71.3652 113.336 71.179ZM9.58348 3.8335H86.2501C89.4204 3.8335 92.0001 6.41323 92.0001 9.58348V41.6319C91.3678 41.511 90.7045 41.7006 90.2463 42.1875L86.8997 45.7604C85.7152 45.3674 84.5021 45.0433 83.2735 44.7907L82.1543 39.9949C81.9664 39.1959 81.2934 38.6037 80.4755 38.5229C77.8844 38.268 75.4484 38.268 72.8566 38.5229C72.0382 38.6037 71.3657 39.1959 71.1779 39.9949L70.0587 44.7907C68.8301 45.0438 67.6187 45.3674 66.4325 45.7604L63.0859 42.1875C62.5246 41.5895 61.6465 41.4131 60.8968 41.7504C58.5965 42.7911 56.3771 44.077 54.3037 45.5725C53.6364 46.0519 53.3512 46.9007 53.5889 47.6866L54.2441 49.8333H15.3334V26.8334H34.4998V22.9999H15.3334V11.4999H80.5002V34.4998H84.3337V9.58348C84.3337 8.52558 83.4768 7.66701 82.4172 7.66701H13.4164C12.3562 7.66701 11.4999 8.52558 11.4999 9.58348V49.8333H3.8335V9.58348C3.8335 6.41323 6.41323 3.8335 9.58348 3.8335ZM53.6668 53.6668C53.2223 54.1112 52.7486 54.5311 52.3311 55.0007L47.9403 53.6668H53.6668ZM3.8335 59.4167V53.6668H46.4007C46.0788 53.7991 45.7873 54.0059 45.5725 54.3031C44.0816 56.3748 42.7952 58.5925 41.7527 60.8985C41.4137 61.6459 41.5901 62.5257 42.1897 63.0876L44.4092 65.1673H32.5834H9.58348C6.41323 65.1667 3.8335 62.587 3.8335 59.4167ZM33.9248 68.9997H45.0415C44.955 69.3525 44.8634 69.703 44.7907 70.0598L39.9972 71.179C39.1982 71.3652 38.606 72.0399 38.5252 72.8561C38.3986 74.1476 38.3333 75.4301 38.3333 76.6667C38.3333 77.9027 38.3986 79.1834 38.5269 80.4773C38.6077 81.294 39.1999 81.9682 39.9989 82.1543L44.7924 83.2735C44.9992 84.2798 45.2867 85.2667 45.588 86.2501H27.6536L33.9248 68.9997ZM21.0834 93.9166C18.5839 93.9166 16.4526 92.314 15.6611 90.0831H24.9169H42.3621L42.1875 90.2457C41.5895 90.8053 41.4131 91.6851 41.7504 92.4348C41.9784 92.9389 42.2619 93.4217 42.5134 93.9166H21.0834ZM111.101 78.7406L106.449 79.8272C105.694 80.0036 105.121 80.617 104.994 81.3816C104.691 83.2156 104.207 85.029 103.553 86.7696C103.281 87.4942 103.473 88.3127 104.038 88.8413L107.5 92.086C106.885 93.3163 106.187 94.5163 105.425 95.6704L100.919 94.2998C100.175 94.0718 99.3716 94.3169 98.8813 94.9149C97.6968 96.356 96.3628 97.6905 94.9155 98.8807C94.3175 99.3733 94.0758 100.176 94.3003 100.918L95.6709 105.424C94.5134 106.189 93.3152 106.885 92.0866 107.501L88.8436 104.038C88.3144 103.473 87.4902 103.281 86.7719 103.555C85.0376 104.207 83.2242 104.691 81.3822 104.996C80.6176 105.123 80.0042 105.695 79.8277 106.451L78.7429 111.103C77.3322 111.189 76.0057 111.189 74.595 111.103L73.5102 106.451C73.3338 105.696 72.7226 105.123 71.9557 104.996C70.1137 104.691 68.3026 104.205 66.566 103.555C65.8432 103.283 65.0212 103.473 64.4943 104.038L61.2513 107.501C60.0187 106.884 58.8188 106.189 57.6652 105.424L59.0376 100.92C59.2621 100.178 59.0187 99.375 58.4224 98.8824C56.9773 97.694 55.6434 96.36 54.4566 94.9166C53.964 94.3186 53.1593 94.0752 52.4193 94.3015L47.9134 95.6698C47.1487 94.514 46.4528 93.3163 45.836 92.0854L49.2995 88.8407C49.8648 88.3115 50.0566 87.4936 49.7846 86.7691C49.1311 85.0267 48.6459 83.2139 48.3435 81.3794C48.2187 80.6147 47.6442 80.0013 46.8887 79.8249L42.2367 78.7383C42.1909 78.0367 42.168 77.3431 42.168 76.6667C42.168 75.9902 42.1909 75.296 42.2333 74.5927L46.8853 73.5061C47.6402 73.3297 48.2135 72.7163 48.3401 71.9517C48.6431 70.1154 49.1276 68.3026 49.7812 66.5637C50.0555 65.8391 49.8636 65.0207 49.2983 64.4897L45.8348 61.245C46.45 60.0147 47.1476 58.8165 47.9105 57.6607L52.4164 59.029C53.1582 59.2535 53.9635 59.0101 54.4538 58.4138C55.6399 56.9728 56.9722 55.6382 58.4196 54.448C59.0175 53.9554 59.2592 53.1524 59.0347 52.4107L57.6641 47.9048C58.8216 47.1401 60.0199 46.4442 61.2484 45.8274L64.4914 49.2909C65.0184 49.8562 65.8409 50.0458 66.5631 49.7737C68.2974 49.1219 70.1108 48.6373 71.9528 48.3326C72.7175 48.2061 73.3309 47.6333 73.5073 46.8778L74.5921 42.2258C76.0028 42.1393 77.3293 42.1393 78.7401 42.2258L79.8249 46.8778C80.0013 47.6327 80.6124 48.2061 81.3794 48.3326C83.2214 48.6373 85.0324 49.1242 86.7691 49.7737C87.4879 50.0458 88.3121 49.8545 88.8407 49.2909L92.0837 45.8274C93.3163 46.4448 94.5163 47.1401 95.6698 47.9048L94.2975 52.409C94.0729 53.1507 94.3164 53.9537 94.9126 54.4463C96.3577 55.6348 97.6917 56.9688 98.8784 58.4121C99.371 59.0101 100.174 59.2552 100.916 59.0273L105.422 57.6589C106.186 58.8148 106.882 60.0124 107.499 61.2433L104.036 64.488C103.47 65.0172 103.278 65.8351 103.55 66.5597C104.204 68.302 104.689 70.1148 104.992 71.9494C105.116 72.714 105.691 73.3275 106.446 73.5039L111.098 74.5904C111.144 75.2955 111.167 75.9897 111.167 76.6661C111.166 77.3431 111.144 78.0367 111.101 78.7406Z" fill="#1B708A"/>
<path d="M90.0828 76.6664C90.0828 69.268 84.0625 63.25 76.6664 63.25C69.2697 63.25 63.25 69.2686 63.25 76.6664C63.25 84.0648 69.2703 90.0828 76.6664 90.0828C84.0625 90.0828 90.0828 84.0648 90.0828 76.6664ZM76.6664 86.2499C71.3821 86.2499 67.0829 81.9507 67.0829 76.6664C67.0829 71.3821 71.3821 67.0829 76.6664 67.0829C81.9507 67.0829 86.2499 71.3821 86.2499 76.6664C86.2499 81.9507 81.9507 86.2499 76.6664 86.2499Z" fill="#1B708A"/>
<path d="M85.6428 55.4839C84.3816 54.9472 83.0591 54.5234 81.7137 54.2227L80.874 57.9622C81.9932 58.2131 83.0935 58.5659 84.1399 59.0127L85.6428 55.4839Z" fill="#1B708A"/>
<path d="M67.539 59.8071L65.7084 56.4375C64.5045 57.091 63.3527 57.8597 62.2793 58.7182L64.6792 61.7081C65.5721 60.9915 66.5344 60.3518 67.539 59.8071Z" fill="#1B708A"/>
<path d="M61.1322 65.4385L58.029 63.1904C57.222 64.3022 56.5129 65.4941 55.9189 66.7324L59.3744 68.3906C59.8687 67.359 60.461 66.3641 61.1322 65.4385Z" fill="#1B708A"/>
<path d="M75.7482 57.5229L75.5678 53.6934C74.1937 53.7587 72.8191 53.9465 71.4834 54.2529L72.3443 57.9885C73.4594 57.7336 74.6038 57.5761 75.7482 57.5229Z" fill="#1B708A"/>
<path d="M62.2509 89.2969L59.3682 91.8228C60.2749 92.856 61.2772 93.8125 62.3523 94.6671L64.7367 91.6675C63.8415 90.9567 63.0041 90.1595 62.2509 89.2969Z" fill="#1B708A"/>
<path d="M90.9479 58.6367L88.5635 61.638C89.4604 62.3488 90.3001 63.1466 91.059 64.0069L93.9343 61.473C93.0259 60.4438 92.0213 59.4896 90.9479 58.6367Z" fill="#1B708A"/>
<path d="M57.7972 73.2814L54.0233 72.6084C53.7856 73.9384 53.667 75.3032 53.667 76.6658V76.7082L57.5005 76.6658C57.4999 75.5295 57.6019 74.3891 57.7972 73.2814Z" fill="#1B708A"/>
<path d="M58.1974 81.8047L54.502 82.8242C54.8639 84.1427 55.3548 85.4406 55.9568 86.6824L59.4088 85.0127C58.9071 83.9783 58.5004 82.8975 58.1974 81.8047Z" fill="#1B708A"/>
<path d="M67.6484 97.8327C68.9137 98.3734 70.2362 98.799 71.5759 99.1014L72.4173 95.3618C71.3038 95.111 70.2053 94.7564 69.1531 94.3057L67.6484 97.8327Z" fill="#1B708A"/>
<path d="M95.126 71.4937L98.8214 70.4685C98.4554 69.1477 97.9606 67.8504 97.3552 66.6104L93.9111 68.2891C94.4134 69.3201 94.8235 70.3975 95.126 71.4937Z" fill="#1B708A"/>
<path d="M77.5469 95.8144L77.7193 99.6439C79.0956 99.5809 80.4697 99.3965 81.8054 99.0918L80.9525 95.3545C79.8391 95.6071 78.6947 95.7623 77.5469 95.8144Z" fill="#1B708A"/>
<path d="M85.7607 93.5427L87.5798 96.9163C88.7855 96.2668 89.9413 95.5016 91.0164 94.6413L88.6246 91.6475C87.7276 92.3623 86.7654 93.0003 85.7607 93.5427Z" fill="#1B708A"/>
<path d="M92.1797 87.9272L95.2789 90.1833C96.0859 89.0733 96.799 87.8831 97.3947 86.6453L93.9427 84.9814C93.4449 86.0101 92.8504 87.0033 92.1797 87.9272Z" fill="#1B708A"/>
<path d="M95.5283 80.0899L99.3023 80.7703C99.544 79.4289 99.6665 78.0485 99.6665 76.6665V76.584L95.833 76.6665C95.833 77.8206 95.7299 78.9724 95.5283 80.0899Z" fill="#1B708A"/>
<path d="M68.4381 17.8115L65.7277 20.5218L70.1226 24.9167H45.9995C40.7152 24.9167 36.416 29.2158 36.416 34.5001V46.0001H40.2495V34.4996C40.2495 31.3293 42.8292 28.7496 45.9995 28.7496H70.1226L65.7277 33.1444L68.4381 35.8547L76.1045 28.1883C76.8537 27.4391 76.8537 26.2277 76.1045 25.478L68.4381 17.8115Z" fill="#1B708A"/>
<path d="M23.0005 15.333H19.167V19.1665H23.0005V15.333Z" fill="#1B708A"/>
<path d="M30.6665 15.333H26.833V19.1665H30.6665V15.333Z" fill="#1B708A"/>
<path d="M38.3335 15.333H34.5V19.1665H38.3335V15.333Z" fill="#1B708A"/>
</svg>
