<?xml version="1.0" encoding="iso-8859-1"?>
<!-- Generator: Adobe Illustrator 17.0.0, SVG Export Plug-In . SVG Version: 6.00 Build 0)  -->
<!DOCTYPE svg PUBLIC "-//W3C//DTD SVG 1.1//EN" "http://www.w3.org/Graphics/SVG/1.1/DTD/svg11.dtd">
<svg version="1.1" id="Layer_1" xmlns="http://www.w3.org/2000/svg" xmlns:xlink="http://www.w3.org/1999/xlink" x="0px" y="0px"
	 width="126.666px" height="139.899px" viewBox="0 0 126.666 139.899" style="enable-background:new 0 0 126.666 139.899;"
	 xml:space="preserve">
<g>
	<g>
		<path style="fill:#1B708A;" d="M62.183,88.41c-0.263,0.01-0.526,0.028-0.788,0.028c-17.086,0.001-34.171,0.001-51.257,0.001
			c-0.088,0-0.176,0.001-0.264,0c-0.514-0.006-0.521-0.004-0.662-0.502c-0.839-2.958-1.451-5.962-1.863-9.01
			c-0.492-3.645-0.632-7.304-0.484-10.973c0.199-4.952,0.991-9.814,2.349-14.582c0.146-0.512,0.151-0.513,0.718-0.514
			c1.252-0.002,2.504-0.001,3.755-0.001c15.878,0,31.756,0,47.633,0.001c0.285,0,0.57,0.018,0.854,0.028
			c0.015,0.086,0.023,0.174,0.045,0.258c1.235,4.77,1.877,9.627,2.052,14.543c0.112,3.133,0.074,6.267-0.213,9.395
			c-0.16,1.745-0.359,3.484-0.627,5.216C63.114,84.357,62.662,86.386,62.183,88.41z"/>
		<path style="fill:#1B708A;" d="M9.973,90.258l-0.119-0.001c-1.319-0.016-2.032-0.561-2.39-1.824
			c-0.842-2.966-1.486-6.082-1.915-9.263c-0.487-3.609-0.655-7.408-0.499-11.289c0.202-5.039,1.016-10.088,2.417-15.007
			c0.371-1.301,1.085-1.832,2.465-1.834c0.53-0.001,1.061-0.001,1.591-0.001l7.297,0c14.168,0,28.335,0,42.504,0.001
			c0.234,0,0.451,0.009,0.662,0.019c0.085,0.004,0.17,0.007,0.254,0.01l1.482,0.051l0.249,1.462
			c0.007,0.041,0.013,0.082,0.019,0.124l0.003,0.022c1.207,4.672,1.913,9.684,2.099,14.896c0.125,3.504,0.053,6.652-0.22,9.626
			c-0.18,1.964-0.39,3.707-0.641,5.328c-0.337,2.173-0.813,4.289-1.277,6.251l-0.319,1.347l-1.383,0.052
			c-0.077,0.003-0.154,0.007-0.231,0.01c-0.189,0.009-0.402,0.019-0.625,0.019c-14.104,0.001-28.209,0.001-42.313,0.001l-8.944,0
			L9.973,90.258z M10.736,86.62h8.346c13.884,0,27.767,0,41.65-0.001c0.338-1.486,0.661-3.037,0.903-4.598
			c0.239-1.546,0.44-3.216,0.614-5.104c0.259-2.819,0.326-5.816,0.207-9.164c-0.163-4.563-0.744-8.955-1.727-13.075
			c-13.97-0.001-27.94-0.001-41.91-0.001l-7.297,0c-0.26,0-0.521,0-0.781,0c-1.186,4.387-1.877,8.874-2.057,13.35
			c-0.147,3.671,0.01,7.256,0.469,10.657C9.519,81.401,10.051,84.067,10.736,86.62z"/>
	</g>
	<g>
		<path style="fill:#1B708A;" d="M69.945,135.735c-0.99,0-1.986-0.024-2.96-0.072c-5.143-0.253-10.206-1.099-15.048-2.512
			c-4.142-1.209-8.152-2.816-11.918-4.775c-0.019-0.009-0.04-0.019-0.062-0.029c-0.239-0.109-0.685-0.312-1.063-0.774l-0.592-0.724
			l0.244-0.903c0.196-0.726,0.693-1.105,0.88-1.248l0.023-0.017l0.311-0.257c1.091-0.901,2.122-1.753,3.068-2.693
			c0.321-0.319,0.643-0.636,0.966-0.953c1.19-1.17,2.314-2.274,3.364-3.472c0.993-1.132,2.042-2.341,3.002-3.586
			c1.916-2.483,3.636-5.034,5.114-7.582c1.384-2.387,2.513-4.584,3.452-6.718c0.061-0.139,0.126-0.278,0.191-0.417
			c0.157-0.334,0.305-0.65,0.336-0.877l0.122-0.887l0.777-0.445c0.356-0.203,0.757-0.307,1.193-0.307
			c0.088,0,0.176,0.004,0.264,0.01l0.04,0.002c3.156-0.001,6.313-0.003,9.47-0.005c3.94-0.003,7.881-0.005,11.82-0.005
			c5.587,0,10.205,0.005,14.533,0.016c7.233,0.018,13.8,2.248,19.519,6.627c1.621,1.242,3.1,2.624,4.396,4.109
			c0.038,0.043,0.072,0.08,0.102,0.113c1.333,1.456,0.36,2.708-0.006,3.179c-1.669,2.149-3.492,4.215-5.418,6.142
			c-4.928,4.932-10.597,9.022-16.848,12.157c-5.727,2.872-11.807,4.87-18.071,5.939c-2.305,0.394-4.697,0.672-7.111,0.827
			C72.664,135.69,71.287,135.735,69.945,135.735z M43.495,126.045c3.025,1.448,6.199,2.661,9.462,3.613
			c4.569,1.334,9.349,2.131,14.208,2.371c2.157,0.107,4.391,0.087,6.639-0.057c2.287-0.147,4.552-0.41,6.732-0.783
			c5.91-1.009,11.648-2.895,17.053-5.605c5.902-2.959,11.253-6.821,15.905-11.476c1.612-1.613,3.148-3.33,4.574-5.113
			c-0.993-1.061-2.095-2.058-3.287-2.971c-5.072-3.884-10.898-5.862-17.316-5.878c-4.326-0.011-8.941-0.016-14.524-0.016
			c-3.939,0-7.878,0.002-11.818,0.005c-2.908,0.002-5.815,0.004-8.723,0.004c-0.064,0.145-0.128,0.282-0.189,0.411
			c-0.053,0.112-0.106,0.225-0.155,0.338c-0.994,2.258-2.183,4.572-3.634,7.076c-1.557,2.686-3.368,5.371-5.381,7.98
			c-1.024,1.328-2.116,2.586-3.147,3.762c-1.139,1.299-2.364,2.503-3.549,3.668c-0.318,0.312-0.636,0.625-0.952,0.939
			C44.779,124.923,44.139,125.495,43.495,126.045z"/>
	</g>
	<g>
		<path style="fill:#1B708A;" d="M75.019,90.256l-12.311-0.001c-0.181,0-0.34-0.011-0.481-0.02c-0.047-0.003-0.093-0.007-0.14-0.009
			l-2.175-0.116l0.502-2.119c0.447-1.89,0.905-3.921,1.222-5.97c0.239-1.546,0.44-3.215,0.614-5.104
			c0.259-2.819,0.326-5.816,0.207-9.164c-0.177-4.962-0.849-9.724-1.995-14.152c-0.04-0.153-0.059-0.283-0.071-0.369l-0.006-0.041
			l-0.342-2.016l2.041-0.106c0.054-0.003,0.108-0.006,0.162-0.01c0.153-0.01,0.327-0.021,0.521-0.021
			c2.465,0,4.929-0.002,7.394-0.003c2.837-0.002,5.674-0.003,8.511-0.003c4.369,0,7.961,0.004,11.304,0.013
			c5.019,0.013,9.433,1.683,13.122,4.962c3.344,2.973,5.424,6.654,6.182,10.941c1.211,6.847-0.655,12.798-5.546,17.687
			c-3.07,3.068-6.869,4.911-11.291,5.479c-0.733,0.094-1.496,0.14-2.332,0.14C85.08,90.256,80.048,90.256,75.019,90.256z
			 M64.46,86.618l10.558,0.001c5.03,0,10.06,0,15.09-0.002c0.68,0,1.292-0.036,1.87-0.11c3.606-0.462,6.695-1.957,9.182-4.443
			c4.002-4,5.528-8.872,4.536-14.481c-0.612-3.461-2.3-6.441-5.017-8.856c-3.005-2.672-6.61-4.032-10.715-4.043
			c-3.34-0.009-6.929-0.013-11.295-0.013c-2.836,0-5.672,0.002-8.508,0.003c-1.9,0.001-3.8,0.002-5.7,0.003
			c0.922,4.108,1.469,8.453,1.629,12.947c0.125,3.504,0.053,6.652-0.22,9.626c-0.18,1.964-0.39,3.707-0.641,5.328
			C65.017,83.956,64.748,85.311,64.46,86.618z"/>
	</g>
	<g>
		<path style="fill:#1B708A;" d="M61.056,98.375c-0.088,0.643-0.411,1.203-0.665,1.78c-1.043,2.369-2.244,4.657-3.543,6.897
			c-1.574,2.714-3.333,5.301-5.247,7.781c-0.975,1.264-2.021,2.472-3.074,3.674c-1.391,1.587-2.922,3.032-4.415,4.515
			c-1.103,1.096-2.311,2.076-3.509,3.067c-0.119,0.099-0.255,0.171-0.299,0.333c-0.99-0.428-1.9-1.003-2.817-1.56
			c-10.429-6.335-18.383-14.973-23.979-25.801c-0.091-0.175-0.178-0.352-0.261-0.531c-0.017-0.036-0.009-0.083-0.013-0.138
			c0.118-0.125,0.278-0.068,0.419-0.068c15.606-0.003,31.213-0.003,46.819-0.001C60.666,98.323,60.867,98.29,61.056,98.375z"/>
		<path style="fill:#1B708A;" d="M41.51,128.925l-1.929-0.834c-1.006-0.435-1.898-0.979-2.762-1.506l-0.278-0.169
			c-10.584-6.43-18.878-15.352-24.651-26.52c-0.102-0.198-0.201-0.399-0.294-0.598c-0.162-0.347-0.179-0.663-0.182-0.803
			l-0.064-0.763l0.56-0.591c0.396-0.419,0.941-0.649,1.532-0.649c0.109,0,0.199,0.008,0.258,0.013
			c15.59-0.003,31.179-0.003,46.769-0.001c0.02,0,0.041-0.001,0.061-0.002c0.065-0.002,0.131-0.004,0.196-0.004
			c0.397,0,0.749,0.072,1.076,0.22l1.238,0.559l-0.185,1.346c-0.107,0.776-0.406,1.415-0.647,1.928
			c-0.053,0.112-0.106,0.225-0.155,0.338c-0.994,2.257-2.183,4.572-3.634,7.076c-1.557,2.686-3.368,5.371-5.381,7.98
			c-1.024,1.328-2.116,2.586-3.147,3.762c-1.139,1.299-2.364,2.503-3.549,3.668c-0.318,0.312-0.636,0.625-0.952,0.939
			c-1.065,1.058-2.209,2.003-3.316,2.917l-0.139,0.115L41.51,128.925z M16.153,100.143c5.399,9.673,12.886,17.459,22.278,23.165
			l0.283,0.172c0.435,0.265,0.856,0.522,1.276,0.755c1.006-0.832,1.959-1.629,2.839-2.503c0.321-0.319,0.643-0.636,0.966-0.952
			c1.19-1.17,2.314-2.274,3.364-3.472c0.993-1.132,2.042-2.341,3.002-3.586c1.916-2.483,3.636-5.034,5.114-7.582
			c1.229-2.12,2.257-4.09,3.129-5.998C44.32,100.14,30.237,100.14,16.153,100.143z"/>
	</g>
	<g>
		<path style="fill:#1B708A;" d="M60.924,44.676c-0.436,0-0.837-0.103-1.193-0.307l-0.777-0.445l-0.122-0.887
			c-0.031-0.228-0.179-0.544-0.336-0.878c-0.065-0.139-0.13-0.277-0.191-0.417c-0.939-2.134-2.069-4.331-3.452-6.718
			c-1.478-2.549-3.198-5.1-5.114-7.582c-0.96-1.244-2.009-2.454-3.002-3.586c-1.05-1.198-2.175-2.303-3.366-3.473
			c-0.322-0.316-0.644-0.633-0.964-0.951c-0.947-0.94-1.978-1.792-3.069-2.693l-0.332-0.273c-0.187-0.143-0.683-0.522-0.88-1.248
			l-0.244-0.902l0.592-0.724c0.378-0.462,0.823-0.665,1.063-0.774c0.021-0.01,0.043-0.019,0.064-0.03
			c3.764-1.958,7.773-3.564,11.915-4.774c4.842-1.414,9.905-2.259,15.048-2.512c0.974-0.048,1.97-0.072,2.961-0.072
			c1.342,0,2.719,0.045,4.09,0.133c2.413,0.155,4.805,0.433,7.111,0.827c6.265,1.069,12.345,3.068,18.071,5.939
			c6.251,3.135,11.92,7.225,16.848,12.157c1.925,1.926,3.748,3.993,5.418,6.142c0.366,0.471,1.339,1.724,0.006,3.179
			c-0.03,0.033-0.064,0.07-0.102,0.113c-1.296,1.485-2.775,2.867-4.396,4.109c-5.719,4.38-12.286,6.609-19.519,6.627
			c-4.329,0.011-8.947,0.016-14.533,0.016c-3.94,0-7.88-0.002-11.82-0.005c-3.157-0.002-6.313-0.004-9.47-0.005l-0.04,0.002
			C61.1,44.672,61.012,44.676,60.924,44.676z M61.978,41.026c2.907,0.001,5.815,0.003,8.723,0.004
			c3.939,0.003,7.879,0.005,11.818,0.005c5.583,0,10.199-0.005,14.524-0.016c6.418-0.016,12.244-1.994,17.316-5.878
			c1.191-0.912,2.294-1.909,3.287-2.97c-1.427-1.783-2.962-3.5-4.574-5.113c-4.652-4.655-10.003-8.517-15.905-11.476
			c-5.405-2.71-11.142-4.596-17.053-5.605c-2.181-0.372-4.446-0.635-6.732-0.782c-2.247-0.145-4.48-0.164-6.639-0.058
			c-4.859,0.239-9.639,1.037-14.208,2.371c-3.262,0.953-6.437,2.165-9.462,3.613c0.644,0.55,1.284,1.123,1.898,1.732
			c0.315,0.313,0.633,0.625,0.95,0.937c1.186,1.165,2.412,2.37,3.551,3.67c1.03,1.175,2.122,2.434,3.147,3.762
			c2.013,2.608,3.823,5.293,5.381,7.98c1.452,2.504,2.641,4.819,3.635,7.076c0.05,0.113,0.103,0.225,0.155,0.338
			C61.85,40.744,61.914,40.881,61.978,41.026z"/>
	</g>
	<g>
		<path style="fill:#1B708A;" d="M60.634,42.791c-0.088-0.643-0.411-1.203-0.665-1.78c-1.043-2.369-2.244-4.657-3.543-6.897
			c-1.574-2.714-3.333-5.301-5.247-7.781c-0.975-1.264-2.021-2.472-3.074-3.674c-1.391-1.587-2.922-3.032-4.415-4.515
			c-1.103-1.096-2.311-2.076-3.509-3.067c-0.119-0.099-0.255-0.171-0.299-0.333c-0.99,0.428-1.9,1.003-2.817,1.56
			c-10.429,6.335-18.383,14.973-23.979,25.801c-0.091,0.175-0.178,0.352-0.261,0.531c-0.017,0.036-0.009,0.083-0.013,0.138
			c0.118,0.125,0.278,0.068,0.419,0.068c15.606,0.003,31.213,0.003,46.819,0.001C60.245,42.843,60.446,42.876,60.634,42.791z"/>
		<path style="fill:#1B708A;" d="M13.023,44.673c-0.592,0-1.136-0.231-1.532-0.649l-0.56-0.591l0.064-0.764
			c0.003-0.144,0.021-0.457,0.181-0.801c0.094-0.201,0.192-0.402,0.295-0.599c5.772-11.168,14.066-20.09,24.651-26.52l0.277-0.169
			c0.863-0.527,1.756-1.071,2.762-1.506l1.929-0.834l0.427,1.58l0.137,0.114c1.107,0.914,2.252,1.86,3.317,2.918
			c0.315,0.313,0.633,0.625,0.95,0.937c1.186,1.165,2.412,2.37,3.551,3.67c1.031,1.175,2.122,2.434,3.147,3.762
			c2.013,2.609,3.823,5.293,5.381,7.98c1.452,2.504,2.641,4.819,3.635,7.076c0.05,0.113,0.103,0.225,0.155,0.338
			c0.241,0.513,0.54,1.151,0.647,1.928l0.185,1.346l-1.238,0.559c-0.327,0.148-0.679,0.22-1.076,0.22
			c-0.065,0-0.131-0.002-0.196-0.004c-0.021-0.001-0.041-0.002-0.062-0.002c-15.589,0.002-31.179,0.002-46.769-0.001
			C13.222,44.666,13.132,44.673,13.023,44.673z M15.732,41.023c14.084,0.002,28.167,0.002,42.25,0.001
			c-0.873-1.909-1.901-3.879-3.129-5.998c-1.478-2.549-3.198-5.1-5.114-7.582c-0.96-1.244-2.009-2.454-3.002-3.586
			c-1.05-1.198-2.175-2.303-3.366-3.473c-0.322-0.316-0.644-0.633-0.964-0.951c-0.88-0.874-1.832-1.671-2.839-2.503
			c-0.42,0.233-0.841,0.49-1.276,0.755l-0.283,0.172C28.617,23.564,21.131,31.35,15.732,41.023z"/>
	</g>
</g>
</svg>
