<svg width="96" height="106" viewBox="0 0 96 106" fill="none" xmlns="http://www.w3.org/2000/svg">
<g clip-path="url(#clip0)">
<path d="M36.7975 4.757L36.7975 4.75701C34.4936 5.54478 32.2632 6.46962 30.1167 7.55755C31.108 8.3849 32.07 9.24136 33.0055 10.1213L36.7975 4.757ZM36.7975 4.757C39.8034 3.72912 42.8877 2.99515 46.0409 2.53793L36.7975 4.757ZM93.2359 20.6273C89.7145 24.2524 85.4563 26.5402 80.3901 27.4698L80.39 27.4698C79.0125 27.7226 77.5882 27.8106 76.1015 27.8093C68.857 27.8031 61.6118 27.8035 54.3678 27.8038C51.545 27.804 48.7224 27.8041 45.9 27.8039C45.8749 27.7493 45.8476 27.6901 45.8176 27.6258L45.8175 27.6254C43.936 23.5899 41.5524 19.8887 38.8146 16.4371L38.8145 16.4371C37.0322 14.1903 35.0932 12.0851 33.0055 10.1214L93.2359 20.6273ZM93.2359 20.6273C90.7909 17.6841 88.0542 15.0382 85.0087 12.7043C79.7611 8.68287 73.9525 5.77017 67.5722 3.95857L93.2359 20.6273ZM46.0411 2.53791C47.8112 2.28138 49.6097 2.13674 51.4439 2.04722L46.0411 2.53791ZM51.444 2.04722C53.2097 1.96112 54.9859 1.99879 56.783 2.11144L51.444 2.04722ZM56.7832 2.11145C60.445 2.34135 64.0426 2.95646 67.5721 3.95856L56.7832 2.11145Z" stroke="#1B708A" stroke-width="4"/>
<path d="M45.388 65.8984C46.2014 62.4203 46.6438 58.8824 46.7495 55.3004L46.7495 55.3003C46.8367 52.3496 46.7847 49.4386 46.4577 46.5603L45.388 65.8984ZM45.388 65.8984C31.4822 65.8994 17.5764 65.8994 3.67048 65.8994C3.27252 64.4002 2.94806 62.8803 2.68801 61.3419L2.688 61.3419C2.10018 57.8645 1.89917 54.3551 2.04625 50.8188C2.19761 47.1816 2.74289 43.6043 3.67623 40.088C4.14085 40.0878 4.60559 40.0879 5.07087 40.088C5.37498 40.0881 5.67932 40.0881 5.98401 40.0881H6.00151C19.1304 40.0881 32.2592 40.0881 45.388 40.0892C45.866 42.2117 46.2086 44.3684 46.4577 46.5602L45.388 65.8984ZM45.1518 39.088C45.1518 39.0881 45.1519 39.0883 45.1519 39.0884L45.1518 39.088Z" fill="#1B708A" stroke="#1B708A" stroke-width="4"/>
<path d="M39.0837 101.964C36.5459 101.228 34.0842 100.309 31.696 99.2075C35.1669 96.1094 38.3056 92.6877 41.0164 88.8603C43.3926 85.5053 45.4518 81.9547 47.1059 78.1639C56.9128 78.1663 66.7197 78.1719 76.5267 78.1802C80.4524 78.1835 84.1405 79.0466 87.5903 80.8469C89.7741 81.9867 91.719 83.4175 93.419 85.152C91.3332 87.7003 89.0142 90.0284 86.4665 92.1419C83.4552 94.6397 80.192 96.7634 76.685 98.5214C72.6973 100.52 68.5146 101.979 64.1419 102.895C61.6618 103.415 59.153 103.746 56.6131 103.9C54.7274 104.014 52.8523 104.037 50.9899 103.945C46.9419 103.745 42.9707 103.092 39.0838 101.964L39.0837 101.964Z" stroke="#1B708A" stroke-width="4"/>
<path d="M83.2819 51.4373C82.9203 48.5007 81.7241 46.0061 79.6422 43.9271C77.0621 41.3507 73.934 40.1017 70.2356 40.0923C64.6788 40.0782 59.1234 40.0816 53.5644 40.0851C52.1469 40.0859 50.7293 40.0868 49.3113 40.0874C50.0998 43.7663 50.5073 47.4876 50.5942 51.2381M83.2819 51.4373L50.3825 58.6239C50.6122 56.143 50.6507 53.6761 50.5942 51.2381M83.2819 51.4373C84.095 58.0437 79.7259 64.0211 73.3615 65.5553M83.2819 51.4373L50.3824 58.6242C50.2457 60.1026 50.07 61.5819 49.8406 63.0615L49.8406 63.0615C49.6921 64.0194 49.51 64.9651 49.3111 65.8962C56.4379 65.8963 63.5646 65.8956 70.6914 65.8946H70.6917C71.5698 65.8946 72.4571 65.7733 73.3615 65.5553M50.5942 51.2381L48.5947 51.2844M50.5942 51.2381L48.5947 51.2844M48.5947 51.2844C48.6501 53.672 48.6115 56.0579 48.391 58.4398L47.2646 40.0899C48.0845 43.7714 48.5072 47.5064 48.5947 51.2844ZM73.3615 65.5553L73.8302 67.4996L73.3615 65.5553Z" stroke="#1B708A" stroke-width="4"/>
<path d="M5.71156 76.2753C5.72331 76.2751 5.73506 76.2749 5.74681 76.2747L5.71182 76.2904L5.71156 76.2753ZM5.71156 76.2753C5.61381 76.2769 5.53258 76.314 5.47559 76.3959M5.71156 76.2753L5.71181 76.2904L5.47559 76.3959M5.47559 76.3959C5.49252 76.4338 5.50882 76.472 5.52511 76.5103C5.55917 76.5902 5.59323 76.6701 5.63309 76.7469C5.66267 76.8038 5.69232 76.8606 5.72206 76.9173L5.71855 76.7025L5.63314 76.7469L5.71855 76.7025L5.71628 76.5635L5.47559 76.3959ZM8.75751 78.2717C7.98983 78.2717 7.22216 78.2717 6.45448 78.2717C10.4804 85.4882 15.8703 91.5376 22.7162 96.3361C24.4732 97.5679 26.2889 98.7101 28.2086 99.6822M8.75751 78.2717C12.5755 84.803 17.5827 90.2955 23.8641 94.6984L23.8642 94.6985C25.2245 95.6521 26.6028 96.5374 28.0248 97.3224M8.75751 78.2717C8.37393 77.6155 8.00235 76.9488 7.6427 76.2717L42.3044 83.4839C40.9739 85.7577 39.4865 87.9233 37.8707 90.0031C37.4056 90.6018 36.9132 91.1803 36.4209 91.7586C36.281 91.9229 36.1411 92.0872 36.0019 92.252C34.5819 93.9322 33.0102 95.4657 31.4176 96.9767C30.4043 97.9382 29.3659 98.8828 28.2086 99.6822M8.75751 78.2717C20.1151 78.2714 31.4724 78.2714 42.8299 78.2737M28.0248 97.3224C27.7121 97.5742 27.3959 97.8129 27.0719 98.0366L28.2086 99.6822M28.0248 97.3224C28.6984 96.7798 29.356 96.1758 30.0409 95.5259L30.0411 95.5257C31.6275 94.0207 33.1304 92.5512 34.4743 90.9611C34.6245 90.7834 34.7714 90.6107 34.9155 90.4414C35.4023 89.8695 35.8563 89.3361 36.2913 88.7761L36.2913 88.776C37.8592 86.7579 39.2964 84.6644 40.5782 82.4738L40.5783 82.4737C41.3877 81.0907 42.1439 79.695 42.8299 78.2737M28.0248 97.3224C28.3843 97.5208 28.7467 97.7129 29.1122 97.898L28.2086 99.6822M42.8299 78.2737C43.0508 77.816 43.2644 77.3558 43.4701 76.8924L43.4702 76.8923C43.6045 76.59 43.6911 76.4111 43.7488 76.2917C43.7518 76.2856 43.7547 76.2797 43.7575 76.2738C44.2499 76.2739 44.7423 76.2741 45.2347 76.2742L42.8299 78.2737ZM5.71872 76.7024L5.71639 76.5635L5.83155 76.6437L5.71872 76.7024ZM5.71872 76.7024L5.8317 76.6438L6.21243 76.9088L6.21244 76.9088L7.11703 77.5386C6.96474 77.7573 6.74691 77.958 6.46892 78.0962C6.43904 78.1111 6.40932 78.1248 6.37982 78.1375C6.32377 78.0364 6.26798 77.935 6.21246 77.8335C6.21245 77.8335 6.21244 77.8334 6.21243 77.8334C6.04669 77.5303 5.88333 77.2251 5.72233 76.9178L5.71872 76.7024Z" fill="#1B708A" stroke="#1B708A" stroke-width="4"/>
<path d="M44.7014 29.7824C44.6382 29.7847 44.575 29.7877 44.5118 29.7907C44.3715 29.7973 44.2312 29.8039 44.0907 29.8039C43.7857 29.804 43.4807 29.804 43.1757 29.804L43.3997 29.6952L44.0907 29.7415L44.7014 29.7824ZM44.7014 29.7824C44.7042 29.7402 44.7024 29.6995 44.6968 29.6601L44.7014 29.7824ZM14.945 19.1863C18.3078 15.431 22.1368 12.2283 26.422 9.5592C26.4775 9.6043 26.5329 9.64922 26.588 9.69403C27.2236 10.2101 27.8383 10.7091 28.4644 11.2437L28.4647 11.2439C29.7996 12.3831 31.0723 13.5955 32.3025 14.8666L32.3027 14.8667C33.1166 15.7075 33.8994 16.5961 34.6966 17.5213L34.6969 17.5218C36.3324 19.4188 37.8062 21.4462 39.1746 23.5766C39.8251 24.5897 40.4285 25.6447 41.0501 26.7472C41.2467 27.096 41.4309 27.4466 41.611 27.8041C31.8662 27.8048 22.1213 27.8048 12.3762 27.8048C11.1504 27.8048 9.92451 27.8048 8.69864 27.8048C10.4746 24.7263 12.5564 21.8539 14.945 19.1863Z" fill="#1B708A" stroke="#1B708A" stroke-width="4"/>
</g>
<defs>
<clipPath id="clip0">
<rect width="96" height="106" fill="white"/>
</clipPath>
</defs>
</svg>
