<svg width="84" height="105" viewBox="0 0 84 105" fill="none" xmlns="http://www.w3.org/2000/svg">
<path d="M0 105H84V26.6789V20.0359H63.8095V0H57.1153H0V46.7141H6.6942V6.64296H57.1153V26.6789H77.3058V98.357H0V105Z" fill="#1B708A"/>
<path d="M9.7169 77.4644C15.0074 77.4644 19.3264 73.1785 19.3264 67.9285C19.3264 62.6785 15.0074 58.3926 9.7169 58.3926H0.107422V86.6785H6.80162V77.4644H9.7169ZM6.69375 65.0363H9.60903C11.2285 65.0363 12.5243 66.3222 12.5243 67.9292C12.5243 69.5363 11.2285 70.8222 9.60903 70.8222H6.69375V65.0363Z" fill="#1B708A"/>
<path d="M70.5037 65.0361V58.2861H53.7686V86.6784H60.4628V77.4643H65.5375V70.8213H60.4628V65.0361H70.5037Z" fill="#1B708A"/>
<path d="M47.0742 72.5355C47.0742 64.7144 40.7043 58.3926 32.8221 58.3926H26.1279V86.6785H32.8221C40.7043 86.6778 47.0742 80.3567 47.0742 72.5355ZM32.7143 80.0355V65.0355C36.9254 65.0355 40.2721 68.3567 40.2721 72.5355C40.2721 76.7144 36.9254 80.0355 32.7143 80.0355Z" fill="#1B708A"/>
</svg>
